<svg id="레이어_1" data-name="레이어 1" xmlns="http://www.w3.org/2000/svg" viewBox="0 0 120 120"><defs><style>.cls-1{fill:#f3f5fa;}.cls-2,.cls-3{fill:none;stroke-width:1.5px;}.cls-2{stroke:#231815;stroke-miterlimit:10;}.cls-3{stroke:#4b8dc3;stroke-linecap:round;stroke-linejoin:round;}</style></defs><title>무제-1</title><circle class="cls-1" cx="60" cy="60.05" r="60"/><path class="cls-2" d="M39.81,41.9A6.66,6.66,0,0,0,36.52,47a18.72,18.72,0,0,0,1.59,8.84s6.5,17.27,28,27.73a12.42,12.42,0,0,0,3.19,1c2.81.5,7.92.9,9.68-2.43l2.5-4A1.6,1.6,0,0,0,81,76l-9.67-6.62a1.77,1.77,0,0,0-2.41.38L66.2,73.23a2.21,2.21,0,0,1-2.8.58c-3.69-2-11.86-8.22-15.78-15.68a2.18,2.18,0,0,1,.59-2.63l3.43-2.62a2.35,2.35,0,0,0,.42-3.12L45.74,40.7a2.1,2.1,0,0,0-2.8-.63Z"/><path class="cls-3" d="M62.11,55.34s4.63.17,4.68,4.85"/><path class="cls-3" d="M62.11,50.7s9-.25,9.57,9.49"/><path class="cls-3" d="M62.11,45.81s13.74.51,14.08,14.38"/></svg>