<svg id="Layer_1" data-name="Layer 1" xmlns="http://www.w3.org/2000/svg" viewBox="0 0 485.9 485.9"><defs><style>.cls-1{fill:#fce3c3;}.cls-2{fill:#ffcfca;}.cls-3{fill:#f9bfbb;}.cls-4{fill:#602826;}.cls-5{fill:#f9713d;}.cls-6{fill:#ef5d30;}.cls-7{fill:#211a17;}.cls-8{fill:#ce7872;}.cls-9{fill:#fff;}.cls-10{fill:#ea8c8b;}.cls-11{fill:#fbb03b;}</style></defs><title>사람2</title><path class="cls-1" d="M49.68,356.07a56.08,56.08,0,0,1,27.17-46.22,59.31,59.31,0,0,1-3.5-20.3A60.56,60.56,0,0,1,134,229a64.94,64.94,0,0,1,7.7.5,24.58,24.58,0,0,1,34.3-16.6c4.5-16.8,6.3-34.3,11.5-51.2,8.2-26.4,25.4-52.8,54-63.1,25.1-9.1,56.3-4.5,76.6,12.1,35,28.7,36.3,80.7,33.6,120.7-1.1,17.3-5.2,45.7-.5,69.1a53.17,53.17,0,0,1,12-1.3,57.88,57.88,0,0,1,42,97.7c1.95,4.42,3.75,8.91,5.43,13.43a226,226,0,0,0,66.24-160.13c0-125.2-101.5-226.7-226.7-226.7S23.45,125,23.45,250.15A225.7,225.7,0,0,0,49.68,356.07Z" transform="translate(-7.05 -7.05)"/><path class="cls-1" d="M91.79,412.35q3.78,3.69,7.72,7.2a60.82,60.82,0,0,1-1.76-6A56.12,56.12,0,0,1,91.79,412.35Z" transform="translate(-7.05 -7.05)"/><path class="cls-2" d="M309.55,306.85v-.13A202.56,202.56,0,0,1,253.35,283c-5.5-3.4-11.2-7.1-16.7-11.1-.9-7.1-2.1-14.1-3.4-21.1-.54-3.14-1.11-6.26-1.68-9.38h-.12c.58,3.15,1.15,6.3,1.7,9.47,1.3,7,2.5,14,3.4,21.1.4,2.8.7,5.6.9,8.5a261.54,261.54,0,0,1,.2,28c-.08,3-.16,6.05-.24,9.07.25.32.5.62.75.91,2.54,2.87,5.5,4.38,9.89,5.72,14.3,4.4,29.6,4.8,44.4,2.8,5.47-.73,12.41-4.23,16.42-6.47l.82-.46Z" transform="translate(-7.05 -7.05)"/><path class="cls-3" d="M309.55,306.72l.1,0-.15-24.56-.1,0Z" transform="translate(-7.05 -7.05)"/><path class="cls-3" d="M291.55,284.45a61.08,61.08,0,0,1-28.8-10,70.22,70.22,0,0,1-12-9.6,101.85,101.85,0,0,1-16.2-20.9c-.56-.93-1.12-1.87-1.66-2.82q-.66.13-1.32.24c.57,3.12,1.14,6.24,1.68,9.38,1.3,7,2.5,14,3.4,21.1,5.5,4,11.2,7.7,16.7,11.1a202.56,202.56,0,0,0,56.2,23.77l-.15-24.5A48.68,48.68,0,0,1,291.55,284.45Z" transform="translate(-7.05 -7.05)"/><path class="cls-2" d="M293.05,267.45c-17.6-8.6-35.1-17.4-52.3-26.9l-2.24-1.21-.16.06,2.3,1.25c17.2,9.5,34.7,18.3,52.3,26.9,5.3,2.6,10.7,5.2,16.4,6.6l0,8.07.1,0-.05-8.14C303.75,272.65,298.35,270.05,293.05,267.45Z" transform="translate(-7.05 -7.05)"/><path class="cls-2" d="M230.87,237.47l-.18-.32c.26,1.41.51,2.83.76,4.23h.12C231.33,240.07,231.1,238.77,230.87,237.47Z" transform="translate(-7.05 -7.05)"/><path class="cls-2" d="M230.05,233.55c.21,1.21.43,2.4.64,3.6l.18.32c-.23-1.26-.46-2.52-.68-3.79Z" transform="translate(-7.05 -7.05)"/><path class="cls-2" d="M230.19,233.68a36.05,36.05,0,0,0,8.16,5.72l.16-.06a36.26,36.26,0,0,1-8.36-5.89C230.16,233.53,230.18,233.6,230.19,233.68Z" transform="translate(-7.05 -7.05)"/><path class="cls-2" d="M343.65,182a136.17,136.17,0,0,0-3.8-13.9,74,74,0,0,0-26.08-36.51c-8.54,18.36-23.06,33.79-40.32,44.51-16.34,10.15-35,16.21-54.07,18.69-.65.09-1.31.16-2,.24-2.18.25-4.36.47-6.55.63a16.8,16.8,0,0,0-9,7.24,18.46,18.46,0,0,0-2.5,7.6,24,24,0,0,0-.2,4.6,27.86,27.86,0,0,0,32.3,26.33c-.25-1.4-.5-2.82-.76-4.24-.21-1.19-.43-2.38-.64-3.59l.14.13c0-.08,0-.15,0-.23a36.26,36.26,0,0,0,8.36,5.89l2.24,1.21c17.2,9.5,34.7,18.3,52.3,26.9,5.3,2.6,10.7,5.2,16.4,6.6l.05,8.14a46.51,46.51,0,0,0,8.95-3.94c9.1-5.3,14.7-13.6,18.9-22.9C347.45,232.55,348.85,206.25,343.65,182Zm-29.5-5.3c.5-1.3,2-1.9,3.4-2.2a20.71,20.71,0,0,1,10.5.4c.7.2,4.4,1.6,4.2,2.5-.1.7-4.6-.6-5.4-.6a23.28,23.28,0,0,0-3.8.4c-2.3.4-4.5.7-6.8,1.1-.7.1-1.7.1-2.1-.5A1.08,1.08,0,0,1,314.15,176.65Zm-4.3,31a5.54,5.54,0,0,1,1.6,6.2,3.67,3.67,0,0,1-3,2.5l-4.9-8.5A5,5,0,0,1,309.85,207.65ZM268,233.92c-8.1.56-15-4.34-15.49-10.95s5.73-12.43,13.83-13,15,4.34,15.5,11S276.08,233.36,268,233.92Zm16.47-27.07c-3.1.1-5.6-3.3-5.8-7.7s2.2-7.9,5.3-8,5.7,3.3,5.8,7.7S287.55,206.75,284.45,206.85Zm5.5-28.6c-.3.7-1.2.8-2,.7l-6.8-.6a25.41,25.41,0,0,0-3.9-.1c-.8.1-5.2,1.7-5.4,1-.3-.9,3.4-2.5,4-2.8a20.9,20.9,0,0,1,10.5-1.2c1.4.1,3,.6,3.6,1.9A1.39,1.39,0,0,1,290,178.25Zm32.9,58.4c-2.6,6.6-7.2,11.2-12.9,11.7-5.5.5-10.7-3-14.3-8.8a32.71,32.71,0,0,1-4.7-14.5l1-.09h0l31.7-2.6h.1l1.2-.1A37,37,0,0,1,322.85,236.65Zm2.2-31c-3.1.1-5.7-3.4-5.8-7.7s2.2-8,5.3-8,5.7,3.4,5.8,7.7S328.15,205.55,325.05,205.65Zm11.66,15.58c-4.57.32-8.48-2.42-8.74-6.11s3.24-6.94,7.82-7.26,8.48,2.42,8.74,6.11S341.29,220.91,336.71,221.23Z" transform="translate(-7.05 -7.05)"/><path class="cls-2" d="M231.57,241.37q.66-.1,1.32-.24c.54,1,1.1,1.89,1.66,2.82a101.85,101.85,0,0,0,16.2,20.9,70.22,70.22,0,0,0,12,9.6,61.08,61.08,0,0,0,28.8,10,48.68,48.68,0,0,0,17.85-2.23l0-8.07c-5.7-1.4-11.1-4-16.4-6.6-17.6-8.6-35.1-17.4-52.3-26.9l-2.3-1.25a36.05,36.05,0,0,1-8.16-5.72c.22,1.27.45,2.53.68,3.79S231.33,240.07,231.57,241.37Z" transform="translate(-7.05 -7.05)"/><path class="cls-4" d="M363.15,299.15a53.17,53.17,0,0,0-12,1.3c-4.7-23.4-.6-51.8.5-69.1,2.7-40,1.4-92-33.6-120.7-20.3-16.6-51.5-21.2-76.6-12.1-28.6,10.3-45.8,36.7-54,63.1-5.2,16.9-7,34.4-11.5,51.2a24.58,24.58,0,0,0-34.3,16.6,64.94,64.94,0,0,0-7.7-.5,60.56,60.56,0,0,0-60.6,60.6,59.31,59.31,0,0,0,3.5,20.3,56.08,56.08,0,0,0-27.17,46.22,227.84,227.84,0,0,0,42.11,56.28,56.12,56.12,0,0,0,6,1.2,60.82,60.82,0,0,0,1.76,6q4.84,4.31,9.92,8.34c1.18-2.23,2.41-4.44,3.72-6.64,7.3-12.7,14.8-25.3,22.7-37.6,1.5-2.3,3-4.6,4.5-6.8,10.5-15.1,22.9-28.8,38-39.3a126.61,126.61,0,0,1,25.9-13.9c4.7-1.9,31.2-9.1,31.4-8.7a25,25,0,0,0,1.76,2.57c.08-3,.16-6,.24-9.07a261.54,261.54,0,0,0-.2-28c-.2-2.9-.5-5.7-.9-8.5-.9-7.1-2.1-14.1-3.4-21.1-.55-3.17-1.12-6.32-1.7-9.47a27.86,27.86,0,0,1-32.3-26.33,24,24,0,0,1,.2-4.6,18.46,18.46,0,0,1,2.5-7.6,16.8,16.8,0,0,1,9-7.24,18.46,18.46,0,0,1,6.5-1.05c.46,0,.92,0,1.38.09.21,0,.42.06.63.09,19.07-2.48,37.73-8.54,54.07-18.69,17.26-10.72,31.78-26.15,40.32-44.51a74,74,0,0,1,26.08,36.51,136.17,136.17,0,0,1,3.8,13.9c5.2,24.3,3.8,50.6-6.3,73.4-4.2,9.3-9.8,17.6-18.9,22.9a46.51,46.51,0,0,1-8.95,3.94l.15,24.56-.1,0v.13l.14,13.17c1.53-.88,2.46-1.47,2.46-1.47s25.8,7.4,39,15.3a143.58,143.58,0,0,1,16.3,11.8c15.6,13,27.5,29.2,36.1,47.6.56,1.19,1.1,2.39,1.63,3.6a57.88,57.88,0,0,0-42-97.7Z" transform="translate(-7.05 -7.05)"/><path class="cls-4" d="M217.37,194.56a18.46,18.46,0,0,0-6.5,1.05c2.19-.16,4.37-.38,6.55-.63C217.4,194.84,217.39,194.7,217.37,194.56Z" transform="translate(-7.05 -7.05)"/><path class="cls-4" d="M218.75,194.65c-.46-.05-.92-.07-1.38-.09,0,.14,0,.28,0,.42.65-.08,1.31-.15,2-.24C219.17,194.71,219,194.67,218.75,194.65Z" transform="translate(-7.05 -7.05)"/><path class="cls-5" d="M308.87,320.48l.83.21V320Z" transform="translate(-7.05 -7.05)"/><path class="cls-5" d="M237.41,317.52l0,1.05.78-.14C237.91,318.14,237.65,317.84,237.41,317.52Z" transform="translate(-7.05 -7.05)"/><path class="cls-5" d="M405.18,396.85c-.53-1.21-1.07-2.41-1.63-3.6-8.6-18.4-20.5-34.6-36.1-47.6a143.58,143.58,0,0,0-16.3-11.8c-13.2-7.9-39-15.3-39-15.3s-.93.59-2.46,1.47v.67l-.83-.21c-4,2.24-10.95,5.74-16.42,6.47-14.8,2-30.1,1.6-44.4-2.8-4.39-1.34-7.35-2.85-9.89-5.72l-.78.14,0-1.05a25,25,0,0,1-1.76-2.57c-.2-.4-26.7,6.8-31.4,8.7a126.61,126.61,0,0,0-25.9,13.9c-15.1,10.5-27.5,24.2-38,39.3-1.5,2.2-3,4.5-4.5,6.8-7.9,12.3-15.4,24.9-22.7,37.6-1.31,2.2-2.54,4.41-3.72,6.64,1.75,1.38,3.52,2.75,5.31,4.09A225.92,225.92,0,0,0,180.1,465.8q4.85,1.57,9.77,2.93c3.14.87,6.32,1.68,9.52,2.41a37,37,0,0,0,2.36-6.39q-.65,3.3-1.3,6.62a227.32,227.32,0,0,0,49.7,5.48q8.73,0,17.3-.65a225.47,225.47,0,0,0,98.38-31.06q2-1.2,4-2.43c0-.42,0-.84-.07-1.26-.07-1-.18-2.05-.3-3.07a124.19,124.19,0,0,0-2.6-13.83,294.5,294.5,0,0,0-11.2-36c1,1.9,2.1,3.8,3.2,5.6,5.63,9.55,11,19.52,14.57,30.21l.36,1.1a79.79,79.79,0,0,1,2.87,12.19c0,.2.05.4.08.6A227.67,227.67,0,0,0,407,413.81c1.21-1.16,2.42-2.34,3.6-3.53C408.93,405.76,407.13,401.27,405.18,396.85Z" transform="translate(-7.05 -7.05)"/><path class="cls-6" d="M376.65,437.65a79.79,79.79,0,0,0-2.87-12.19l-.36-1.1c-3.52-10.69-8.94-20.66-14.57-30.21-1.1-1.8-2.2-3.7-3.2-5.6a294.5,294.5,0,0,1,11.2,36,124.19,124.19,0,0,1,2.6,13.83c.12,1,.23,2,.3,3.07,0,.42,0,.84.07,1.26l1.45-.91q2.76-1.74,5.46-3.55C376.7,438.05,376.68,437.85,376.65,437.65Z" transform="translate(-7.05 -7.05)"/><path class="cls-6" d="M199.39,471.14l1.06.23q.66-3.31,1.3-6.62A37,37,0,0,1,199.39,471.14Z" transform="translate(-7.05 -7.05)"/><path class="cls-7" d="M286.35,175.25a20.9,20.9,0,0,0-10.5,1.2c-.6.3-4.3,1.9-4,2.8.2.7,4.6-.9,5.4-1a25.41,25.41,0,0,1,3.9.1l6.8.6c.8.1,1.7,0,2-.7a1.39,1.39,0,0,0,0-1.1C289.35,175.85,287.75,175.35,286.35,175.25Z" transform="translate(-7.05 -7.05)"/><path class="cls-7" d="M316.25,178.25c2.3-.4,4.5-.7,6.8-1.1a23.28,23.28,0,0,1,3.8-.4c.8,0,5.3,1.3,5.4.6.2-.9-3.5-2.3-4.2-2.5a20.71,20.71,0,0,0-10.5-.4c-1.4.3-2.9.9-3.4,2.2a1.08,1.08,0,0,0,0,1.1C314.55,178.35,315.55,178.35,316.25,178.25Z" transform="translate(-7.05 -7.05)"/><path class="cls-8" d="M323.75,222.35h-.11A19.62,19.62,0,0,1,292,225l-1,.09a32.71,32.71,0,0,0,4.7,14.5,38.45,38.45,0,0,1,4.9-2.7,28.08,28.08,0,0,1,15.6-2.3,27.39,27.39,0,0,1,6.7,2.1,37,37,0,0,0,2.1-14.4Z" transform="translate(-7.05 -7.05)"/><polygon class="cls-9" points="316.59 215.31 316.6 215.3 284.9 217.9 284.91 217.91 285 217.9 316.59 215.31"/><path class="cls-9" d="M308.45,231.75a20.2,20.2,0,0,0,15.19-9.39L292.05,225H292A20.11,20.11,0,0,0,308.45,231.75Z" transform="translate(-7.05 -7.05)"/><path class="cls-10" d="M300.55,236.85a38.45,38.45,0,0,0-4.9,2.7c3.6,5.8,8.8,9.3,14.3,8.8,5.7-.5,10.3-5.1,12.9-11.7a27.39,27.39,0,0,0-6.7-2.1A28.08,28.08,0,0,0,300.55,236.85Z" transform="translate(-7.05 -7.05)"/><path class="cls-7" d="M284,191.15c-3.1.1-5.4,3.7-5.3,8s2.7,7.8,5.8,7.7,5.4-3.7,5.3-8S287.05,191.05,284,191.15Zm1.9,8a1.4,1.4,0,0,1-.1-2.8A1.4,1.4,0,0,1,285.85,199.15Z" transform="translate(-7.05 -7.05)"/><path class="cls-9" d="M285.75,196.35a1.4,1.4,0,0,0,.1,2.8A1.4,1.4,0,0,0,285.75,196.35Z" transform="translate(-7.05 -7.05)"/><path class="cls-7" d="M330.35,197.65c-.1-4.3-2.7-7.7-5.8-7.7s-5.4,3.7-5.3,8,2.7,7.8,5.8,7.7S330.45,202,330.35,197.65Zm-3.8-.6a1.4,1.4,0,0,1-.1-2.8A1.4,1.4,0,0,1,326.55,197.05Z" transform="translate(-7.05 -7.05)"/><path class="cls-9" d="M326.45,194.25a1.4,1.4,0,0,0,.1,2.8A1.4,1.4,0,0,0,326.45,194.25Z" transform="translate(-7.05 -7.05)"/><path class="cls-8" d="M311.45,213.85a5.54,5.54,0,0,0-1.6-6.2,5,5,0,0,0-6.3.2l4.9,8.5A3.67,3.67,0,0,0,311.45,213.85Z" transform="translate(-7.05 -7.05)"/><ellipse class="cls-3" cx="266.56" cy="221.6" rx="15.3" ry="12.76" transform="translate(-23.41 14.26) rotate(-4.44)"/><ellipse class="cls-3" cx="336.25" cy="214.55" rx="8.3" ry="6.7" transform="translate(-21.09 16.73) rotate(-3.97)"/><path class="cls-11" d="M311.25,482.55c-2.2.5-4.5,1.1-6.7,1.6a1.2,1.2,0,0,0-1,1.5,1.38,1.38,0,0,0,1.3,1,.76.76,0,0,1,.4.1c2.2-.6,4.5-1.1,6.7-1.7a1.3,1.3,0,1,0-.7-2.5Z" transform="translate(-7.05 -7.05)"/><path class="cls-11" d="M396.85,440.45c-1.8,1.4-3.6,2.8-5.5,4.1a1.28,1.28,0,0,0-.3,1.8,1.23,1.23,0,0,0,1,.5,5.07,5.07,0,0,0,.9-.2c1.8-1.4,3.7-2.8,5.5-4.2a1.28,1.28,0,0,0-1.6-2Z" transform="translate(-7.05 -7.05)"/><path class="cls-11" d="M362.15,462.65c-2,1.1-4.1,2.1-6.1,3.1a1.23,1.23,0,0,0-.6,1.7,1.52,1.52,0,0,0,1.2.7c.2,0,.4,0,.5-.2,2.1-1,4.2-2,6.2-3.1a1.25,1.25,0,0,0-1.2-2.2Z" transform="translate(-7.05 -7.05)"/><path class="cls-11" d="M248.85,491.65a1.32,1.32,0,0,0,1.3,1.3c2.3,0,4.6,0,6.9-.1a1.3,1.3,0,0,0,0-2.6c-2.3.1-4.6.1-6.9.1A1.32,1.32,0,0,0,248.85,491.65Z" transform="translate(-7.05 -7.05)"/><path class="cls-11" d="M202.25,485.65c-2.2-.4-4.5-.9-6.7-1.4a1.27,1.27,0,0,0-.5,2.5c2.3.6,4.5,1,6.8,1.5h.3a1.11,1.11,0,0,0,1.1-1.1A1.2,1.2,0,0,0,202.25,485.65Z" transform="translate(-7.05 -7.05)"/><path class="cls-11" d="M270.65,489.45c-2.2.2-4.5.4-6.8.5a1.4,1.4,0,0,0-1.2,1.4,1.3,1.3,0,0,0,1.3,1.2c2.3-.1,4.7-.3,6.9-.5a1.3,1.3,0,0,0-.2-2.6Z" transform="translate(-7.05 -7.05)"/><path class="cls-11" d="M290.05,488.35a1.29,1.29,0,0,0,1.3,1.1c.1,0,.1,0,.2-.1,2.2-.4,4.5-.8,6.8-1.3a1.27,1.27,0,0,0-.5-2.5c-2.2.5-4.5.9-6.7,1.3A1.34,1.34,0,0,0,290.05,488.35Z" transform="translate(-7.05 -7.05)"/><path class="cls-11" d="M385.65,448.45c-1.9,1.3-3.8,2.6-5.7,3.8a1.3,1.3,0,0,0-.4,1.8,1.38,1.38,0,0,0,1.1.6,1.08,1.08,0,0,0,.7-.3c2-1.2,3.9-2.5,5.8-3.8a1.29,1.29,0,0,0-1.5-2.1Z" transform="translate(-7.05 -7.05)"/><path class="cls-11" d="M144,465.75a1.27,1.27,0,1,0-1.1,2.3l6.3,3a.75.75,0,0,0,.5.1,1,1,0,0,0,1.1-.8,1.32,1.32,0,0,0-.6-1.7C148.05,467.75,146.05,466.75,144,465.75Z" transform="translate(-7.05 -7.05)"/><path class="cls-11" d="M175.75,478.75c-2.2-.7-4.4-1.4-6.5-2.2a1.26,1.26,0,1,0-.8,2.4c2.2.7,4.4,1.5,6.6,2.2a.6.6,0,0,0,.4.1,1.17,1.17,0,0,0,1.1-.9A1.23,1.23,0,0,0,175.75,478.75Z" transform="translate(-7.05 -7.05)"/><path class="cls-11" d="M131.85,459.35a1.32,1.32,0,0,0-1.3,2.3c2,1.1,4.1,2.2,6.1,3.3a1.27,1.27,0,0,0,.6.1,1.08,1.08,0,0,0,1.1-.7,1.2,1.2,0,0,0-.5-1.7Z" transform="translate(-7.05 -7.05)"/><path class="cls-11" d="M156.55,471.45a1.3,1.3,0,0,0-1,2.4c2.1.9,4.2,1.8,6.4,2.6a.9.9,0,0,0,.5.1,1.3,1.3,0,0,0,1.2-.8,1.25,1.25,0,0,0-.7-1.7C160.75,473.25,158.65,472.35,156.55,471.45Z" transform="translate(-7.05 -7.05)"/><path class="cls-11" d="M120.05,452.15a1.3,1.3,0,1,0-1.4,2.2c1.9,1.3,3.9,2.5,5.9,3.7a1.85,1.85,0,0,0,.7.2,1,1,0,0,0,1-.7,1.3,1.3,0,0,0-.4-1.8C124,454.65,122,453.35,120.05,452.15Z" transform="translate(-7.05 -7.05)"/><path class="cls-11" d="M484.05,195.15c.6,2.2,1,4.5,1.5,6.7a1.38,1.38,0,0,0,1.3,1c.1,0,.1,0,.3.1a1.27,1.27,0,0,0,1-1.5c-.5-2.3-1-4.5-1.5-6.8a1.35,1.35,0,0,0-1.6-1A1.2,1.2,0,0,0,484.05,195.15Z" transform="translate(-7.05 -7.05)"/><path class="cls-11" d="M468.55,149.75a1.3,1.3,0,0,0,1.2.8c.2,0,.3-.1.6-.2a1.32,1.32,0,0,0,.6-1.7c-1-2-2-4.1-3-6.2a1.27,1.27,0,0,0-2.3,1.1C466.65,145.65,467.65,147.65,468.55,149.75Z" transform="translate(-7.05 -7.05)"/><path class="cls-11" d="M462.55,137.45a1.25,1.25,0,0,0,1.8.5,1.28,1.28,0,0,0,.5-1.7c-1-2.1-2.2-4.1-3.3-6.1a1.32,1.32,0,1,0-2.3,1.3Z" transform="translate(-7.05 -7.05)"/><path class="cls-11" d="M480.65,181.85l1.8,6.6a1.19,1.19,0,0,0,1.2,1c.1,0,.3-.1.5,0a1.28,1.28,0,0,0,.9-1.6c-.6-2.3-1.2-4.5-1.9-6.7a1.3,1.3,0,1,0-2.5.7Z" transform="translate(-7.05 -7.05)"/><path class="cls-11" d="M474,162.35a1.3,1.3,0,0,0,1.2.8h.5a1.33,1.33,0,0,0,.7-1.7c-.8-2.1-1.7-4.3-2.6-6.4a1.3,1.3,0,0,0-2.4,1C472.25,158.15,473.15,160.25,474,162.35Z" transform="translate(-7.05 -7.05)"/><path class="cls-11" d="M476.35,168.75c.7,2.2,1.5,4.3,2.2,6.5a1.26,1.26,0,0,0,1.2.9h.5a1.23,1.23,0,0,0,.8-1.6c-.7-2.2-1.4-4.4-2.2-6.6a1.38,1.38,0,0,0-1.7-.8A1.23,1.23,0,0,0,476.35,168.75Z" transform="translate(-7.05 -7.05)"/><path class="cls-11" d="M455.75,125.65a1.25,1.25,0,0,0,1.1.6c.2,0,.4-.1.8-.1a1.3,1.3,0,0,0,.4-1.8c-1.2-2-2.5-4-3.7-5.9a1.3,1.3,0,1,0-2.2,1.4C453.35,121.75,454.55,123.75,455.75,125.65Z" transform="translate(-7.05 -7.05)"/><path class="cls-11" d="M490,235.75l.3,6.9a1.31,1.31,0,1,0,2.6-.2l-.3-6.9a1.3,1.3,0,0,0-2.6.2Z" transform="translate(-7.05 -7.05)"/><path class="cls-11" d="M96.05,436.25a1.28,1.28,0,0,0,.2,1.8c1.8,1.4,3.6,2.9,5.4,4.3a1.14,1.14,0,0,0,.8.3,1.23,1.23,0,0,0,1-.5,1.19,1.19,0,0,0-.2-1.8c-1.8-1.4-3.6-2.9-5.4-4.3A1.28,1.28,0,0,0,96.05,436.25Z" transform="translate(-7.05 -7.05)"/><path class="cls-11" d="M491.65,248.15a1.32,1.32,0,0,0-1.3,1.3v.5c0,2.3,0,4.6-.1,6.9a1.32,1.32,0,0,0,1.3,1.3,1.26,1.26,0,0,0,1.3-1.3c.1-2.3.1-4.6.1-6.9v-.5A1.32,1.32,0,0,0,491.65,248.15Z" transform="translate(-7.05 -7.05)"/><path class="cls-11" d="M113,450.55a1.45,1.45,0,0,0,.7.2,1.23,1.23,0,0,0,1-.5,1.28,1.28,0,0,0-.3-1.8c-1.9-1.3-3.8-2.7-5.6-4a1.29,1.29,0,1,0-1.5,2.1C109.15,448,111.05,449.25,113,450.55Z" transform="translate(-7.05 -7.05)"/><path class="cls-11" d="M344.15,474c.2,0,.3-.1.6-.2,2.1-.9,4.2-1.8,6.3-2.8a1.27,1.27,0,1,0-1.1-2.3c-2.1,1-4.2,1.9-6.3,2.8a1.25,1.25,0,0,0-.7,1.7A1.3,1.3,0,0,0,344.15,474Z" transform="translate(-7.05 -7.05)"/><path class="cls-11" d="M488.75,222.15c.3,2.2.5,4.5.7,6.8a1.3,1.3,0,0,0,1.3,1.2,1.32,1.32,0,0,0,1.2-1.4c-.2-2.3-.4-4.6-.7-6.9a1.26,1.26,0,0,0-2.5.3Z" transform="translate(-7.05 -7.05)"/><path class="cls-11" d="M486.75,208.55c.4,2.3.8,4.5,1.1,6.8a1.38,1.38,0,0,0,1.3,1.1c.1,0,.2,0,.1.1a1.34,1.34,0,0,0,1.1-1.5c-.3-2.3-.7-4.6-1.1-6.9a1.27,1.27,0,1,0-2.5.4Z" transform="translate(-7.05 -7.05)"/><path class="cls-11" d="M457,376.15a1.56,1.56,0,0,0,1.2-.6c1.2-2,2.4-4,3.5-6a1.32,1.32,0,0,0-2.3-1.3c-1.2,2-2.3,4-3.5,5.9a1.3,1.3,0,0,0,.4,1.8A1.85,1.85,0,0,0,457,376.15Z" transform="translate(-7.05 -7.05)"/><path class="cls-11" d="M71.85,88a1.22,1.22,0,0,0,.9-.3c1.5-1.7,3.1-3.4,4.7-5a1.27,1.27,0,1,0-1.8-1.8c-1.6,1.6-3.2,3.3-4.8,5a1.27,1.27,0,0,0,.1,1.8A1.61,1.61,0,0,0,71.85,88Z" transform="translate(-7.05 -7.05)"/><path class="cls-11" d="M229.35,492.05h.1a1.3,1.3,0,0,0,1.3-1.1,1.4,1.4,0,0,0-1.2-1.4c-2.2-.2-4.5-.4-6.8-.7a1.26,1.26,0,0,0-.3,2.5C224.75,491.65,227.05,491.85,229.35,492.05Z" transform="translate(-7.05 -7.05)"/><path class="cls-11" d="M243.25,492.85a1.58,1.58,0,0,0,1.4-1.3,1.32,1.32,0,0,0-1.3-1.3l-6.9-.3a1.3,1.3,0,0,0-.2,2.6Z" transform="translate(-7.05 -7.05)"/><path class="cls-11" d="M368.85,461.75a.83.83,0,0,0,.7-.3c2-1.1,4-2.3,6-3.5a1.3,1.3,0,0,0-1.4-2.2c-1.9,1.2-3.9,2.4-5.9,3.5a1.33,1.33,0,0,0-.5,1.8A1.17,1.17,0,0,0,368.85,461.75Z" transform="translate(-7.05 -7.05)"/><path class="cls-11" d="M412.35,429a1.43,1.43,0,0,0,1,.4,1.61,1.61,0,0,0,.9-.3c1.7-1.6,3.4-3.2,5-4.8a1.27,1.27,0,0,0-1.8-1.8c-1.6,1.6-3.3,3.2-5,4.7A1.27,1.27,0,0,0,412.35,429Z" transform="translate(-7.05 -7.05)"/><path class="cls-11" d="M442.35,398.45c1.4-1.9,2.8-3.7,4.2-5.6a1.29,1.29,0,0,0-2.1-1.5c-1.3,1.9-2.7,3.7-4.1,5.5a1.19,1.19,0,0,0,.2,1.8,1.14,1.14,0,0,0,.8.3A1.39,1.39,0,0,0,442.35,398.45Z" transform="translate(-7.05 -7.05)"/><path class="cls-11" d="M448.25,114.05a1.38,1.38,0,0,0,1.1.6,1.45,1.45,0,0,0,.7-.2,1.28,1.28,0,0,0,.3-1.8c-1.3-1.9-2.6-3.8-4-5.7a1.29,1.29,0,0,0-2.1,1.5C445.65,110.25,447,112.15,448.25,114.05Z" transform="translate(-7.05 -7.05)"/><path class="cls-11" d="M77.55,417.45a1.27,1.27,0,0,0-1.8,1.8c1.6,1.6,3.2,3.3,4.9,4.9a1.22,1.22,0,0,0,.9.4,1,1,0,0,0,.9-.4,1.27,1.27,0,0,0,0-1.8C80.75,420.75,79.15,419.05,77.55,417.45Z" transform="translate(-7.05 -7.05)"/><path class="cls-11" d="M85.75,429.05l5.2,4.6a1.14,1.14,0,0,0,.8.3,1.25,1.25,0,0,0,.8-2.2c-1.7-1.5-3.4-3.1-5.1-4.6a1.27,1.27,0,0,0-1.7,1.9Z" transform="translate(-7.05 -7.05)"/><path class="cls-11" d="M66.45,407.25a1.27,1.27,0,0,0-.1,1.8c1.5,1.8,3,3.5,4.6,5.2a1.43,1.43,0,0,0,1,.4.91.91,0,0,0,.8-.4,1.27,1.27,0,0,0,.1-1.8c-1.6-1.7-3.1-3.4-4.6-5.1A1.27,1.27,0,0,0,66.45,407.25Z" transform="translate(-7.05 -7.05)"/><path class="cls-11" d="M62,403.75a1.39,1.39,0,0,0,1,.5,1.14,1.14,0,0,0,.8-.3,1.19,1.19,0,0,0,.2-1.8c-1.5-1.8-2.9-3.6-4.3-5.4a1.28,1.28,0,1,0-2,1.6C59.05,400.15,60.45,402,62,403.75Z" transform="translate(-7.05 -7.05)"/><path class="cls-11" d="M215.55,490.55h.2a1.2,1.2,0,0,0,1.2-1.1,1.34,1.34,0,0,0-1.1-1.5c-2.3-.4-4.6-.7-6.8-1.1a1.32,1.32,0,1,0-.4,2.6C211,489.85,213.25,490.25,215.55,490.55Z" transform="translate(-7.05 -7.05)"/><path class="cls-11" d="M331.35,479a4.33,4.33,0,0,1,.5-.1c2.2-.7,4.4-1.6,6.5-2.4a1.3,1.3,0,0,0-1-2.4c-2.1.8-4.3,1.6-6.4,2.4a1.23,1.23,0,0,0-.8,1.6A1.26,1.26,0,0,0,331.35,479Z" transform="translate(-7.05 -7.05)"/><path class="cls-11" d="M188.35,485.05h.3a1.11,1.11,0,0,0,1.2-1,1.28,1.28,0,0,0-.9-1.6c-2.2-.5-4.4-1.2-6.6-1.8a1.3,1.3,0,0,0-.7,2.5C183.85,483.85,186.15,484.45,188.35,485.05Z" transform="translate(-7.05 -7.05)"/><path class="cls-11" d="M427.05,412.55c-1.5,1.7-3.1,3.4-4.7,5a1.27,1.27,0,0,0,0,1.8,1.22,1.22,0,0,0,.9.4,1,1,0,0,0,.9-.5c1.6-1.6,3.2-3.3,4.8-5a1.27,1.27,0,0,0-1.9-1.7Z" transform="translate(-7.05 -7.05)"/><path class="cls-11" d="M436.05,402.35c-1.4,1.7-2.9,3.5-4.4,5.2a1.27,1.27,0,0,0,.1,1.8,1.14,1.14,0,0,0,.8.3,1.78,1.78,0,0,0,1-.4c1.5-1.7,3-3.5,4.5-5.3a1.28,1.28,0,0,0-.2-1.8A1.39,1.39,0,0,0,436.05,402.35Z" transform="translate(-7.05 -7.05)"/><path class="cls-11" d="M467.45,355.65a1.32,1.32,0,0,0-1.7.6c-1,2-2,4.1-3.1,6.1a1.2,1.2,0,0,0,.5,1.7,1.27,1.27,0,0,0,.6.1,1.36,1.36,0,0,0,1.1-.6c1.1-2.1,2.2-4.1,3.2-6.2A1.32,1.32,0,0,0,467.45,355.65Z" transform="translate(-7.05 -7.05)"/><path class="cls-11" d="M454.05,379.65a1.3,1.3,0,0,0-1.8.4c-1.2,1.9-2.5,3.8-3.8,5.7a1.28,1.28,0,0,0,.3,1.8,1.45,1.45,0,0,0,.7.2,2.08,2.08,0,0,0,1.2-.5c1.3-1.9,2.5-3.9,3.8-5.8A1.3,1.3,0,0,0,454.05,379.65Z" transform="translate(-7.05 -7.05)"/><path class="cls-11" d="M318.25,483.15h.5l6.6-2.1a1.26,1.26,0,0,0-.8-2.4c-2.2.7-4.4,1.4-6.6,2a1.28,1.28,0,0,0-.9,1.6A1.2,1.2,0,0,0,318.25,483.15Z" transform="translate(-7.05 -7.05)"/><path class="cls-11" d="M488.85,277.35c-.3,2.2-.6,4.5-.9,6.8a1.34,1.34,0,0,0,1.1,1.5h.2a1.13,1.13,0,0,0,1.2-1.1l.9-6.9a1.26,1.26,0,0,0-2.5-.3Z" transform="translate(-7.05 -7.05)"/><path class="cls-11" d="M402,438a1.39,1.39,0,0,0,1,.5,1.33,1.33,0,0,0,.8-.3c1.8-1.5,3.6-3,5.3-4.5a1.27,1.27,0,0,0-1.7-1.9c-1.7,1.5-3.4,3-5.2,4.4A1.19,1.19,0,0,0,402,438Z" transform="translate(-7.05 -7.05)"/><path class="cls-11" d="M487,291.05c-.4,2.2-.8,4.4-1.3,6.7a1.2,1.2,0,0,0,1,1.5h.3a1.38,1.38,0,0,0,1.3-1c.5-2.3.9-4.6,1.3-6.8a1.32,1.32,0,1,0-2.6-.4Z" transform="translate(-7.05 -7.05)"/><path class="cls-11" d="M473.25,343a1.25,1.25,0,0,0-1.7.7c-.9,2.1-1.8,4.2-2.8,6.3a1.32,1.32,0,0,0,.6,1.7.75.75,0,0,0,.5.1,1.71,1.71,0,0,0,1.3-.7c1-2.1,1.9-4.3,2.8-6.4A1.25,1.25,0,0,0,473.25,343Z" transform="translate(-7.05 -7.05)"/><path class="cls-11" d="M490.85,272a1.38,1.38,0,0,0,1.3-1.1c.2-2.3.4-4.6.5-6.9a1.22,1.22,0,0,0-1.2-1.4,1.27,1.27,0,0,0-1.4,1.2c-.1,2.2-.3,4.5-.5,6.8a1.4,1.4,0,0,0,1.2,1.4Z" transform="translate(-7.05 -7.05)"/><path class="cls-11" d="M484.15,304.45c-.5,2.3-1,4.5-1.6,6.7a1.28,1.28,0,0,0,.9,1.6h.3a1.19,1.19,0,0,0,1.2-1.1c.6-2.2,1.2-4.5,1.7-6.7a1.27,1.27,0,0,0-2.5-.5Z" transform="translate(-7.05 -7.05)"/><path class="cls-11" d="M480.75,317.65c-.6,2.2-1.3,4.4-2,6.6a1.23,1.23,0,0,0,.8,1.6.6.6,0,0,0,.4.1,1.44,1.44,0,0,0,1.3-1c.7-2.2,1.4-4.4,2-6.6a1.3,1.3,0,1,0-2.5-.7Z" transform="translate(-7.05 -7.05)"/><path class="cls-11" d="M478.05,329.85a1.27,1.27,0,0,0-1.6.8c-.8,2.2-1.6,4.4-2.4,6.5a1.25,1.25,0,0,0,.7,1.7.9.9,0,0,0,.5.1,1.24,1.24,0,0,0,1.2-1c.8-2.1,1.6-4.3,2.4-6.5A1.27,1.27,0,0,0,478.05,329.85Z" transform="translate(-7.05 -7.05)"/><path class="cls-11" d="M277.75,491.45l6.9-.9a1.32,1.32,0,0,0-.4-2.6l-6.8.9a1.24,1.24,0,0,0-1.1,1.4,1.38,1.38,0,0,0,1.3,1.1C277.75,491.35,277.75,491.35,277.75,491.45Z" transform="translate(-7.05 -7.05)"/><path class="cls-11" d="M23.65,331c-.7-2.1-1.5-4.3-2.2-6.5a1.26,1.26,0,0,0-2.4.8c.7,2.2,1.4,4.4,2.2,6.6a1.26,1.26,0,0,0,1.2.9c.1,0,.2-.1.4-.2A1.23,1.23,0,0,0,23.65,331Z" transform="translate(-7.05 -7.05)"/><path class="cls-11" d="M26.05,337.35a1.3,1.3,0,1,0-2.4,1c.8,2.1,1.7,4.3,2.6,6.4a1.3,1.3,0,0,0,1.2.8.65.65,0,0,0,.5-.2,1.25,1.25,0,0,0,.7-1.7C27.75,341.55,26.85,339.45,26.05,337.35Z" transform="translate(-7.05 -7.05)"/><path class="cls-11" d="M19.35,317.85l-1.8-6.6a1.3,1.3,0,1,0-2.5.7c.6,2.2,1.3,4.5,1.9,6.7a1.2,1.2,0,0,0,1.2.9.37.37,0,0,0,.3-.1A1.28,1.28,0,0,0,19.35,317.85Z" transform="translate(-7.05 -7.05)"/><path class="cls-11" d="M26.75,157.25a.9.9,0,0,0,.5.1,1.08,1.08,0,0,0,1.1-.8c.9-2.1,1.9-4.2,2.8-6.3a1.27,1.27,0,0,0-2.3-1.1c-1,2.1-1.9,4.3-2.8,6.4A1.25,1.25,0,0,0,26.75,157.25Z" transform="translate(-7.05 -7.05)"/><path class="cls-11" d="M15.85,304.65c-.6-2.2-1-4.5-1.5-6.7a1.27,1.27,0,0,0-2.5.5c.5,2.3,1,4.6,1.5,6.8a1.38,1.38,0,0,0,1.3,1c.1,0,.2,0,.2-.1A1.2,1.2,0,0,0,15.85,304.65Z" transform="translate(-7.05 -7.05)"/><path class="cls-11" d="M10.15,279.05a1.24,1.24,0,0,0,1.1-1.4c-.3-2.2-.5-4.5-.7-6.8a1.3,1.3,0,1,0-2.6.2c.2,2.3.4,4.6.7,6.9a1.38,1.38,0,0,0,1.3,1.1Z" transform="translate(-7.05 -7.05)"/><path class="cls-11" d="M12.05,292.65a1.27,1.27,0,0,0,1.1-1.5c-.4-2.3-.8-4.5-1.1-6.8a1.32,1.32,0,0,0-2.6.4c.3,2.3.7,4.6,1.1,6.9a1.29,1.29,0,0,0,1.3,1.1C12,292.75,12.05,292.75,12.05,292.65Z" transform="translate(-7.05 -7.05)"/><path class="cls-11" d="M21.85,170.15a.6.6,0,0,0,.4.1,1.39,1.39,0,0,0,1.2-.7c.8-2.2,1.6-4.4,2.4-6.5a1.3,1.3,0,0,0-2.4-1c-.8,2.1-1.6,4.3-2.4,6.5A1.27,1.27,0,0,0,21.85,170.15Z" transform="translate(-7.05 -7.05)"/><path class="cls-11" d="M55.65,391.25c-1.4-1.8-2.7-3.7-4-5.6a1.29,1.29,0,0,0-2.1,1.5c1.3,1.9,2.6,3.8,4,5.7a1.23,1.23,0,0,0,1,.5,1.6,1.6,0,0,0,.8-.3A1.28,1.28,0,0,0,55.65,391.25Z" transform="translate(-7.05 -7.05)"/><path class="cls-11" d="M102.35,60a1.08,1.08,0,0,0,.7-.3c1.8-1.4,3.7-2.8,5.5-4.1a1.29,1.29,0,1,0-1.5-2.1c-1.8,1.4-3.7,2.8-5.5,4.2a1.36,1.36,0,0,0-.2,1.8A1.23,1.23,0,0,0,102.35,60Z" transform="translate(-7.05 -7.05)"/><path class="cls-11" d="M31.25,350.05a1.27,1.27,0,0,0-2.3,1.1c1,2,2,4.1,3,6.2a1.52,1.52,0,0,0,1.2.7c.2,0,.4,0,.4-.1a1.23,1.23,0,0,0,.6-1.7C33.15,354.15,32.15,352.15,31.25,350.05Z" transform="translate(-7.05 -7.05)"/><path class="cls-11" d="M44.15,374.05a1.3,1.3,0,1,0-2.2,1.4c1.2,2,2.5,4,3.7,5.9a1.38,1.38,0,0,0,1.1.6.6.6,0,0,0,.6-.3,1.3,1.3,0,0,0,.4-1.8C46.55,378,45.35,376.05,44.15,374.05Z" transform="translate(-7.05 -7.05)"/><path class="cls-11" d="M37.35,362.25a1.25,1.25,0,0,0-2.2,1.2c1,2.1,2.2,4.1,3.3,6.1a1.17,1.17,0,0,0,1.1.7.85.85,0,0,0,.6-.2,1.33,1.33,0,0,0,.5-1.8Z" transform="translate(-7.05 -7.05)"/><path class="cls-11" d="M91.65,68.75a1.14,1.14,0,0,0,.8-.3c1.7-1.5,3.4-3,5.2-4.4a1.28,1.28,0,0,0-1.6-2c-1.8,1.5-3.6,3-5.3,4.5a1.27,1.27,0,0,0-.1,1.8A1.78,1.78,0,0,0,91.65,68.75Z" transform="translate(-7.05 -7.05)"/><path class="cls-11" d="M17.65,183.35a.76.76,0,0,0,.4.1,1.17,1.17,0,0,0,1.1-.9c.6-2.2,1.3-4.4,2-6.6a1.26,1.26,0,1,0-2.4-.8c-.7,2.2-1.4,4.4-2,6.6A1.28,1.28,0,0,0,17.65,183.35Z" transform="translate(-7.05 -7.05)"/><path class="cls-11" d="M11.65,210.35h.2a1.28,1.28,0,0,0,1.2-1.1c.4-2.2.9-4.5,1.3-6.7a1.2,1.2,0,0,0-1-1.5,1.2,1.2,0,0,0-1.5,1c-.5,2.2-.9,4.5-1.3,6.8A1.34,1.34,0,0,0,11.65,210.35Z" transform="translate(-7.05 -7.05)"/><path class="cls-11" d="M62.85,98.35a1.28,1.28,0,0,0,1-.4c1.4-1.8,2.9-3.6,4.4-5.3a1.27,1.27,0,1,0-1.9-1.7c-1.5,1.7-3,3.5-4.5,5.3a1.28,1.28,0,0,0,.2,1.8A1.14,1.14,0,0,0,62.85,98.35Z" transform="translate(-7.05 -7.05)"/><path class="cls-11" d="M14.25,196.75h.3a1.51,1.51,0,0,0,1.3-.8c.5-2.3,1-4.5,1.6-6.7a1.3,1.3,0,0,0-2.5-.7c-.6,2.2-1.2,4.4-1.7,6.7A1.39,1.39,0,0,0,14.25,196.75Z" transform="translate(-7.05 -7.05)"/><path class="cls-11" d="M440.25,103.05a1.23,1.23,0,0,0,1,.5,1.33,1.33,0,0,0,.8-.3,1.36,1.36,0,0,0,.2-1.8c-1.4-1.8-2.8-3.6-4.3-5.4a1.28,1.28,0,1,0-2,1.6C437.45,99.45,438.85,101.25,440.25,103.05Z" transform="translate(-7.05 -7.05)"/><path class="cls-11" d="M9.75,224h.1a1.5,1.5,0,0,0,1.4-1.1c.3-2.3.6-4.6.9-6.8a1.32,1.32,0,0,0-2.6-.4l-.9,6.9A1.24,1.24,0,0,0,9.75,224Z" transform="translate(-7.05 -7.05)"/><path class="cls-11" d="M46,120.55a1.85,1.85,0,0,0,.7.2,1.1,1.1,0,0,0,1-.6c1.2-1.9,2.5-3.8,3.8-5.7a1.29,1.29,0,1,0-2.1-1.5c-1.3,1.9-2.6,3.9-3.8,5.8A1.3,1.3,0,0,0,46,120.55Z" transform="translate(-7.05 -7.05)"/><path class="cls-11" d="M32.45,144.65a1.27,1.27,0,0,0,.6.1,1.17,1.17,0,0,0,1.1-.7c1-2,2-4.1,3.1-6.1a1.25,1.25,0,0,0-2.2-1.2c-1.1,2-2.2,4.1-3.2,6.2A1.32,1.32,0,0,0,32.45,144.65Z" transform="translate(-7.05 -7.05)"/><path class="cls-11" d="M10.05,264.15l-.3-6.9a1.3,1.3,0,0,0-2.6,0l.3,6.9a1.3,1.3,0,0,0,1.3,1.2A1.39,1.39,0,0,0,10.05,264.15Z" transform="translate(-7.05 -7.05)"/><path class="cls-11" d="M38.85,132.35a1.42,1.42,0,0,0,.6.2,1.08,1.08,0,0,0,1.1-.7c1.2-1.9,2.3-3.9,3.5-5.9a1.3,1.3,0,1,0-2.2-1.4c-1.2,2-2.4,4-3.5,6A1.41,1.41,0,0,0,38.85,132.35Z" transform="translate(-7.05 -7.05)"/><path class="cls-11" d="M8.35,251.55a1.35,1.35,0,0,0,1.3-1.4V250c0-2.2,0-4.4.1-6.6a1.32,1.32,0,0,0-1.3-1.3,1.4,1.4,0,0,0-1.3,1.3c-.1,2.2-.1,4.5-.1,6.7v.2A1.32,1.32,0,0,0,8.35,251.55Z" transform="translate(-7.05 -7.05)"/><path class="cls-11" d="M54.45,109.35a1.23,1.23,0,0,0,1-.5c1.3-1.8,2.7-3.7,4.1-5.5a1.28,1.28,0,1,0-2-1.6c-1.4,1.9-2.8,3.7-4.2,5.6a1.28,1.28,0,0,0,.3,1.8A2.35,2.35,0,0,0,54.45,109.35Z" transform="translate(-7.05 -7.05)"/><path class="cls-11" d="M8.75,237.75a1.48,1.48,0,0,0,1.3-1.3c.2-2.2.3-4.5.5-6.8a1.4,1.4,0,0,0-1.2-1.4,1.4,1.4,0,0,0-1.4,1.2c-.2,2.3-.4,4.6-.5,6.9A1.29,1.29,0,0,0,8.75,237.75Z" transform="translate(-7.05 -7.05)"/><path class="cls-11" d="M81.45,78.05c.4,0,.7-.1.8-.4,1.6-1.6,3.3-3.2,5-4.7a1.27,1.27,0,0,0-1.7-1.9c-1.7,1.6-3.4,3.2-5,4.8a1.27,1.27,0,0,0,0,1.8A1.09,1.09,0,0,0,81.45,78.05Z" transform="translate(-7.05 -7.05)"/><path class="cls-11" d="M324.05,21.15c2.2.7,4.4,1.4,6.5,2.2a.6.6,0,0,0,.4.1,1.48,1.48,0,0,0,1.3-.9,1.27,1.27,0,0,0-.8-1.6c-2.2-.7-4.4-1.5-6.6-2.2a1.16,1.16,0,0,0-1.6.8A1.23,1.23,0,0,0,324.05,21.15Z" transform="translate(-7.05 -7.05)"/><path class="cls-11" d="M337,25.75c2.2.8,4.3,1.7,6.4,2.6a.9.9,0,0,0,.5.1,1.41,1.41,0,0,0,1.2-.8,1.25,1.25,0,0,0-.7-1.7c-2.1-.9-4.2-1.8-6.4-2.6a1.3,1.3,0,1,0-1,2.4Z" transform="translate(-7.05 -7.05)"/><path class="cls-11" d="M362.05,37.15l6,3.3a1.42,1.42,0,0,0,.6.2,1.56,1.56,0,0,0,1.2-.6,1.41,1.41,0,0,0-.5-1.8c-2-1.1-4-2.2-6.1-3.3a1.25,1.25,0,0,0-1.2,2.2Z" transform="translate(-7.05 -7.05)"/><path class="cls-11" d="M349.65,31.25c2.1.9,4.2,1.9,6.2,2.9a1.27,1.27,0,0,0,.6.1,2,2,0,0,0,1.2-.6,1.32,1.32,0,0,0-.6-1.7l-6.3-3a1.27,1.27,0,0,0-1.1,2.3Z" transform="translate(-7.05 -7.05)"/><path class="cls-11" d="M283.85,12c2.3.4,4.6.7,6.8,1.1h.2a1.47,1.47,0,0,0,1.4-1.1,1.34,1.34,0,0,0-1.1-1.5c-2.3-.4-4.6-.8-6.9-1.1a1.32,1.32,0,1,0-.4,2.6Z" transform="translate(-7.05 -7.05)"/><path class="cls-11" d="M297.45,14.35c2.2.4,4.5.9,6.7,1.4h.3a1.54,1.54,0,0,0,1.3-.9,1.39,1.39,0,0,0-1-1.5c-2.3-.6-4.5-1-6.8-1.5a1.2,1.2,0,0,0-1.5,1A1.2,1.2,0,0,0,297.45,14.35Z" transform="translate(-7.05 -7.05)"/><path class="cls-11" d="M310.75,17.35l6.6,1.8a.76.76,0,0,0,.4.1,1.38,1.38,0,0,0,1.3-1,1.28,1.28,0,0,0-.9-1.6l-6.7-1.8a1.3,1.3,0,0,0-.7,2.5Z" transform="translate(-7.05 -7.05)"/><path class="cls-11" d="M113.45,51.85a1.45,1.45,0,0,0,.7-.2c1.9-1.3,3.8-2.6,5.7-3.8a1.3,1.3,0,1,0-1.4-2.2c-2,1.2-3.9,2.5-5.8,3.8a1.28,1.28,0,0,0-.3,1.8A1.38,1.38,0,0,0,113.45,51.85Z" transform="translate(-7.05 -7.05)"/><path class="cls-11" d="M431.45,92.45a1.78,1.78,0,0,0,1,.4,1.88,1.88,0,0,0,.8-.2,1.27,1.27,0,0,0,.1-1.8c-1.5-1.8-3-3.5-4.6-5.2a1.27,1.27,0,0,0-1.9,1.7C428.45,89.05,430,90.75,431.45,92.45Z" transform="translate(-7.05 -7.05)"/><path class="cls-11" d="M412.35,72.75a1.61,1.61,0,0,0,.9.3,1.43,1.43,0,0,0,1-.4,1.27,1.27,0,0,0-.1-1.8l-5.2-4.6a1.27,1.27,0,0,0-1.7,1.9C409,69.65,410.65,71.25,412.35,72.75Z" transform="translate(-7.05 -7.05)"/><path class="cls-11" d="M391.05,55.45a2.35,2.35,0,0,0,.8.2,1.61,1.61,0,0,0,1.1-.5,1.28,1.28,0,0,0-.3-1.8c-1.9-1.4-3.8-2.7-5.7-4a1.29,1.29,0,0,0-1.5,2.1C387.35,52.75,389.25,54.15,391.05,55.45Z" transform="translate(-7.05 -7.05)"/><path class="cls-11" d="M374,44.05c1.9,1.1,3.9,2.4,5.8,3.6a1.54,1.54,0,0,0,1.9-.3,1.3,1.3,0,0,0-.4-1.8c-1.9-1.3-3.9-2.5-5.9-3.7a1.3,1.3,0,0,0-1.4,2.2Z" transform="translate(-7.05 -7.05)"/><path class="cls-11" d="M402.05,63.75a1.14,1.14,0,0,0,.8.3,1.59,1.59,0,0,0,1-.5,1.28,1.28,0,0,0-.2-1.8c-1.7-1.4-3.6-2.9-5.4-4.3a1.28,1.28,0,1,0-1.6,2C398.45,60.85,400.25,62.35,402.05,63.75Z" transform="translate(-7.05 -7.05)"/><path class="cls-11" d="M422.25,82.25a1.09,1.09,0,0,0,.9.4,1.4,1.4,0,0,0,.9-.3,1.27,1.27,0,0,0,0-1.8c-1.6-1.7-3.3-3.3-4.9-4.9a1.27,1.27,0,0,0-1.8,1.8C419.05,79,420.65,80.65,422.25,82.25Z" transform="translate(-7.05 -7.05)"/><path class="cls-11" d="M149.35,31.55a1,1,0,0,0,.4-.1c2.1-1,4.2-1.9,6.3-2.8a1.3,1.3,0,1,0-1-2.4c-2.1.9-4.2,1.8-6.3,2.8a1.32,1.32,0,0,0-.6,1.7A1.3,1.3,0,0,0,149.35,31.55Z" transform="translate(-7.05 -7.05)"/><path class="cls-11" d="M162.05,26.15a.6.6,0,0,0,.4-.1c2.1-.8,4.3-1.6,6.4-2.4a1.26,1.26,0,0,0-.8-2.4c-2.2.7-4.4,1.6-6.5,2.4a1.33,1.33,0,0,0-.7,1.7A1.3,1.3,0,0,0,162.05,26.15Z" transform="translate(-7.05 -7.05)"/><path class="cls-11" d="M175.05,21.45a.37.37,0,0,0,.3-.1c2.2-.7,4.4-1.4,6.6-2a1.3,1.3,0,1,0-.7-2.5l-6.6,2.1a1.23,1.23,0,0,0-.8,1.6A1.26,1.26,0,0,0,175.05,21.45Z" transform="translate(-7.05 -7.05)"/><path class="cls-11" d="M188.25,17.55c.1,0,.2,0,.2-.1,2.2-.6,4.5-1.2,6.7-1.7a1.27,1.27,0,0,0-.5-2.5c-2.2.6-4.5,1.1-6.7,1.7a1.28,1.28,0,0,0-.9,1.6A1.19,1.19,0,0,0,188.25,17.55Z" transform="translate(-7.05 -7.05)"/><path class="cls-11" d="M125.05,44.35a2,2,0,0,0,.7-.1c1.9-1.2,3.9-2.4,5.9-3.5a1.32,1.32,0,1,0-1.3-2.3c-2,1.1-4,2.3-6,3.5a1.3,1.3,0,0,0-.4,1.8A1.25,1.25,0,0,0,125.05,44.35Z" transform="translate(-7.05 -7.05)"/><path class="cls-11" d="M137.05,37.65a1.42,1.42,0,0,0,.6-.2c2-1,4.1-2.1,6.1-3.1a1.27,1.27,0,0,0-1.1-2.3c-2.1,1.1-4.2,2.1-6.2,3.2A1.28,1.28,0,0,0,136,37,1.08,1.08,0,0,0,137.05,37.65Z" transform="translate(-7.05 -7.05)"/><path class="cls-11" d="M256.55,9.65l6.9.3a1.1,1.1,0,0,0,1.2-1.2,1.22,1.22,0,0,0-1.2-1.4l-6.9-.3a1.3,1.3,0,0,0,0,2.6Z" transform="translate(-7.05 -7.05)"/><path class="cls-11" d="M270.35,10.45c2.2.2,4.5.4,6.8.7h.1a1.38,1.38,0,0,0,1.3-1.2,1.24,1.24,0,0,0-1.1-1.4c-2.3-.3-4.6-.5-6.9-.7a1.4,1.4,0,0,0-1.4,1.2A1.4,1.4,0,0,0,270.35,10.45Z" transform="translate(-7.05 -7.05)"/><path class="cls-11" d="M242.75,9.75c2.3-.1,4.6-.1,6.9-.1a1.3,1.3,0,0,0,0-2.6c-2.3,0-4.6,0-6.9.1a1.26,1.26,0,0,0-1.3,1.3A1.32,1.32,0,0,0,242.75,9.75Z" transform="translate(-7.05 -7.05)"/><path class="cls-11" d="M201.65,14.45c.1,0,.2,0,.2.1,2.2-.5,4.5-.9,6.7-1.3a1.32,1.32,0,1,0-.4-2.6c-2.2.4-4.5.8-6.8,1.3a1.27,1.27,0,0,0-1,1.5A1.38,1.38,0,0,0,201.65,14.45Z" transform="translate(-7.05 -7.05)"/><path class="cls-11" d="M215.25,12.05c.1,0,.2,0,.2-.1l6.8-.9a1.26,1.26,0,1,0-.3-2.5l-6.9.9A1.34,1.34,0,0,0,214,11,1.38,1.38,0,0,0,215.25,12.05Z" transform="translate(-7.05 -7.05)"/><path class="cls-11" d="M229,10.55h.2c2.2-.2,4.5-.4,6.8-.5a1.4,1.4,0,0,0,1.2-1.4,1.4,1.4,0,0,0-1.4-1.2c-2.3.1-4.6.3-6.9.5a1.32,1.32,0,0,0-1.2,1.4A1.3,1.3,0,0,0,229,10.55Z" transform="translate(-7.05 -7.05)"/></svg>