<svg id="레이어_1" data-name="레이어 1" xmlns="http://www.w3.org/2000/svg" viewBox="0 0 120 120"><defs><style>.cls-1{fill:#f3f5fa;}.cls-2{fill:#2c2d2d;}.cls-3,.cls-4,.cls-5,.cls-6{fill:none;stroke-width:1.5px;}.cls-3,.cls-5{stroke:#4b8dc3;}.cls-3,.cls-4,.cls-5{stroke-miterlimit:10;}.cls-4,.cls-6{stroke:#231815;}.cls-4,.cls-5{stroke-linecap:round;}.cls-6{stroke-linejoin:round;}</style></defs><title>무제-1</title><circle class="cls-1" cx="60" cy="60" r="60"/><rect class="cls-2" x="69.82" y="37.01" width="1.66" height="1.66"/><rect class="cls-2" x="73.58" y="37.01" width="1.66" height="1.66"/><rect class="cls-2" x="77.13" y="37.01" width="5.32" height="1.66"/><line class="cls-3" x1="31.94" y1="42.36" x2="86.96" y2="42.36"/><path class="cls-4" d="M63.16,67.46a10.11,10.11,0,1,1,.73-16.61"/><path class="cls-4" d="M67.89,58.9a10.13,10.13,0,0,1-.6,3.45"/><polyline class="cls-5" points="52.28 57.77 57.66 62.85 70.53 50.02"/><path class="cls-4" d="M78.72,94.62S78,91.54,74,91a4.1,4.1,0,0,1-2.21-1l0,0a4.65,4.65,0,0,1-.69-.78l-5.63-8.07a4,4,0,0,1-.63-3.41c.33-1.11,1.19-2.15,3.32-1.81l-5.62-10a3.12,3.12,0,0,1,1.06-3.49,3,3,0,0,1,4.34.81l6.64,11.27"/><line class="cls-4" x1="68.11" y1="75.89" x2="71.8" y2="81.69"/><path class="cls-4" d="M70.53,67.73a2.19,2.19,0,0,1,1.75-2.86s1.94-.38,3.32,2L79,73.07"/><path class="cls-4" d="M75.85,67.32s-.22-2.51,1.76-2.61c0,0,1.69-.48,3.19,1.92L84,71.73"/><path class="cls-4" d="M81.55,67.83s0-2.77,2.08-2.14a2.94,2.94,0,0,1,1.48,1.39l4.53,7.45a9.93,9.93,0,0,1,1.66,5.11v6.17a3.14,3.14,0,0,0,.85,2.47"/><path class="cls-6" d="M64.32,78.15H33.79a1.85,1.85,0,0,1-1.85-1.85V35.57a1.85,1.85,0,0,1,1.85-1.85H85.11A1.85,1.85,0,0,1,87,35.57V70.23"/></svg>