<svg id="Layer_1" data-name="Layer 1" xmlns="http://www.w3.org/2000/svg" viewBox="0 0 486 486"><defs><style>.cls-1{fill:none;}.cls-2{fill:#d6e9f2;}.cls-3{fill:#acddd9;}.cls-4{fill:#ffcfca;}.cls-5{fill:#f9bfbb;}.cls-6{fill:#c15252;}.cls-7{fill:#363740;}.cls-8{fill:#fff;}.cls-9{fill:#1f3c49;}.cls-10{fill:#d55454;}.cls-11{fill:#f37c7c;}.cls-12{fill:#af4646;}.cls-13{fill:#603813;}.cls-14{fill:#a2cddd;}</style></defs><title>사람1</title><path class="cls-1" d="M485.93,248.9v.74A6.09,6.09,0,0,1,485.93,248.9Z" transform="translate(0 0)"/><path class="cls-1" d="M449.77,115.32c.41.65.83,1.31,1.23,2Z" transform="translate(0 0)"/><path class="cls-1" d="M6.29,298.15,6,296.8Z" transform="translate(0 0)"/><path class="cls-1" d="M1.39,269c0-.41-.1-.83-.14-1.24C1.29,268.16,1.34,268.58,1.39,269Z" transform="translate(0 0)"/><path class="cls-1" d="M.36,256.23l-.14-3.36C.26,254,.3,255.11.36,256.23Z" transform="translate(0 0)"/><path class="cls-1" d="M417,73.39q-1.89-1.94-3.82-3.83C414.44,70.81,415.74,72.07,417,73.39Z" transform="translate(0 0)"/><path class="cls-1" d="M393,51.79l.11.09Z" transform="translate(0 0)"/><polygon class="cls-1" points="0 243 0 243 0 243 0 243"/><path class="cls-1" d="M382.92,44.31c.63.44,1.25.89,1.87,1.34Z" transform="translate(0 0)"/><path class="cls-1" d="M46.77,99.67c1.16-1.55,2.31-3.06,3.46-4.62Q48.48,97.35,46.77,99.67Z" transform="translate(0 0)"/><path class="cls-1" d="M1.4,235a1.32,1.32,0,0,1,1.3,1.3c-.1,2.2-.1,4.4-.1,6.6v.2a1.3,1.3,0,0,1-1.18,1.4H1.3A1.32,1.32,0,0,1,0,243.21c0,2.32,0,4.62.11,6.92a1.3,1.3,0,0,1,2.59.07l.3,6.9c.1.5-.5,1.1-1.3,1.2h0a1.29,1.29,0,0,1-1.28-1.13q.2,3.33.48,6.63a1.36,1.36,0,0,1,1.2-1.2,1.31,1.31,0,0,1,1.4,1.2c.2,2.3.4,4.6.7,6.8A1.25,1.25,0,0,1,3.14,272H2.9a1.36,1.36,0,0,1-1.29-1.09q1.17,10.32,3.19,20.37a1.23,1.23,0,0,1,1-1.38,1.27,1.27,0,0,1,1.5,1h0c.5,2.2.9,4.5,1.5,6.7A1.2,1.2,0,0,1,8,299.07l-.15,0c0,.1-.1.1-.2.1a1.38,1.38,0,0,1-1.3-1C31.3,405.81,127.78,486,243,486a243.59,243.59,0,0,0,55.26-6.32.9.9,0,0,0-.36-.08,1.38,1.38,0,0,1-1.3-1,1.2,1.2,0,0,1,.85-1.47l.15,0c2.2-.5,4.5-1.1,6.7-1.6a1.3,1.3,0,0,1,.7,2.5c-1.34.37-2.71.7-4.08,1a242.1,242.1,0,0,0,84.85-39.4,2.93,2.93,0,0,1-.77.16,1.23,1.23,0,0,1-1-.5,1.28,1.28,0,0,1,.28-1.79h0c1.8-1.3,3.7-2.7,5.5-4.1a1.28,1.28,0,1,1,1.6,2h0c-1.24,1-2.51,1.92-3.78,2.89a244.24,244.24,0,0,0,39-36.08,2,2,0,0,1-1,.39,1.12,1.12,0,0,1-.8-.3,1.28,1.28,0,0,1-.11-1.79h0c1.5-1.7,3-3.5,4.4-5.2a1.28,1.28,0,0,1,1.8-.2h0a1.26,1.26,0,0,1,.29,1.62q6.46-7.9,12.27-16.36a1.79,1.79,0,0,1-1,.34,1.42,1.42,0,0,1-.7-.2,1.27,1.27,0,0,1-.31-1.78v0c1.3-1.9,2.6-3.8,3.8-5.7a1.29,1.29,0,0,1,2.3,1.16q1.76-2.73,3.43-5.51a1.62,1.62,0,0,1-1,.45,1.94,1.94,0,0,1-.7-.2,1.29,1.29,0,0,1-.4-1.79h0c1.2-1.9,2.3-3.9,3.5-5.9a1.41,1.41,0,0,1,1.8-.5,1.39,1.39,0,0,1,.57,1.53q5-8.79,9.2-18a1.6,1.6,0,0,1-1.07.49.74.74,0,0,1-.5-.1,1.31,1.31,0,0,1-.6-1.7c.9-2.1,1.9-4.2,2.8-6.3a1.31,1.31,0,0,1,2.51.47,240.67,240.67,0,0,0,14.27-46.73l-.18.86a1.29,1.29,0,0,1-1.3,1h-.3a1.2,1.2,0,0,1-1-1.35l0-.15c.5-2.2.9-4.5,1.3-6.7a1.34,1.34,0,0,1,1.5-1.1,1.32,1.32,0,0,1,1.09,1.38q2-11.52,2.85-23.39c-.07,1-.16,1.94-.24,2.91a1.29,1.29,0,0,1-1.3,1.1,1.41,1.41,0,0,1-1.3-1.4c.2-2.3.4-4.6.5-6.8a1.21,1.21,0,0,1,1.23-1.21h.17a1.2,1.2,0,0,1,1.2,1.2v.09q.19-3.42.3-6.87a1.24,1.24,0,0,1-1.3,1.18h0a1.32,1.32,0,0,1-1.3-1.3c.1-2.3.1-4.6.1-6.9v-.4a1.3,1.3,0,0,1,2.59,0q0-3.48-.11-6.93a1.35,1.35,0,0,1-1.28,1.36,1.32,1.32,0,0,1-1.3-1.3l-.3-6.9a1.29,1.29,0,0,1,2.55-.36q-.62-10.24-2.06-20.24a1.32,1.32,0,0,1-1.09,1.4.3.3,0,0,0-.2-.1,1.38,1.38,0,0,1-1.3-1.1c-.3-2.3-.7-4.5-1.1-6.8a1.31,1.31,0,1,1,2.58-.46q-1.74-10-4.27-19.64a1.28,1.28,0,0,1-.91,1,.85.85,0,0,0-.5,0,1.19,1.19,0,0,1-1.2-1l-1.8-6.6a1.28,1.28,0,0,1,.87-1.59h0a1.27,1.27,0,0,1,1.33.4c-.91-3-1.87-6.09-2.9-9.1.33,1,.65,2,1,3a1.23,1.23,0,0,1-.73,1.58l-.07,0h-.4a1.26,1.26,0,0,1-1.2-.9c-.7-2.2-1.5-4.3-2.2-6.5a1.26,1.26,0,0,1,2.3-1q-3.5-9.72-7.78-19a1.32,1.32,0,0,1-.62,1.62,1.42,1.42,0,0,1-.6.2,1.31,1.31,0,0,1-1.2-.8c-1-2.1-1.9-4.1-2.9-6.2a1.27,1.27,0,0,1,2.3-1.1h0c.87,1.83,1.74,3.65,2.62,5.42q-2.69-5.78-5.65-11.38a1.24,1.24,0,0,1-.57,1.46,1,1,0,0,1-.7.2,1.09,1.09,0,0,1-1.1-.7l-3.3-6a1.33,1.33,0,0,1,.5-1.8,1.25,1.25,0,0,1,1.52.19c-1.05-1.84-2.12-3.68-3.22-5.49a1.31,1.31,0,0,1-.39,1.8h0c-.3,0-.5.1-.8.1a1.25,1.25,0,0,1-1.1-.6c-1.2-1.9-2.4-3.9-3.6-5.8a1.3,1.3,0,1,1,2.2-1.4h0l1.56,2.46q-4.38-7-9.22-13.62c1.31,1.78,2.54,3.57,3.76,5.36a1.28,1.28,0,0,1-.28,1.79h0a1.94,1.94,0,0,1-.7.2,1.39,1.39,0,0,1-1.1-.6c-1.3-1.9-2.6-3.8-4-5.6a1.29,1.29,0,0,1,2.08-1.52A245.59,245.59,0,0,0,417.1,73.5a1.27,1.27,0,0,1,0,1.8h0a1.62,1.62,0,0,1-.9.3,1.08,1.08,0,0,1-.9-.4c-1.6-1.6-3.2-3.3-4.9-4.8a1.27,1.27,0,0,1,1.77-1.82c-1.58-1.53-3.18-3-4.8-4.54a1.21,1.21,0,0,1-.07,1.56,1.44,1.44,0,0,1-1,.4,1.62,1.62,0,0,1-.9-.3c-1.7-1.5-3.4-3.1-5.1-4.6a1.28,1.28,0,0,1-.11-1.79h0a1.29,1.29,0,0,1,1.64-.2c-1.72-1.49-3.46-2.94-5.22-4.38a1.31,1.31,0,0,1,.18,1.78,1.23,1.23,0,0,1-1,.5,1.12,1.12,0,0,1-.8-.3c-1.8-1.4-3.6-2.9-5.4-4.3a1.19,1.19,0,0,1-.32-1.65l.12-.15a1.17,1.17,0,0,1,1.61-.32l.05,0c-1.75-1.33-3.52-2.67-5.32-4a1.26,1.26,0,0,1,.27,1.76v0a1.63,1.63,0,0,1-1.1.5,2.41,2.41,0,0,1-.8-.2c-1.8-1.3-3.7-2.7-5.6-4a1.29,1.29,0,1,1,1.5-2.1l2.51,1.7q-4.33-3-8.81-5.92l.6.39a1.29,1.29,0,0,1,.4,1.79h0a2.08,2.08,0,0,1-1.2.5,1.94,1.94,0,0,1-.7-.2c-1.9-1.2-3.9-2.5-5.8-3.6a1.3,1.3,0,0,1,1.28-2.25c-1.89-1.14-3.79-2.25-5.72-3.34A1.45,1.45,0,0,1,362.8,33a1.29,1.29,0,0,1-1.79.4h0l-6-3.3a1.19,1.19,0,0,1-.55-1.6.31.31,0,0,1,.05-.1,1.22,1.22,0,0,1,1.34-.65q-8.89-4.68-18.22-8.64A1.23,1.23,0,0,1,338,20.6a1.17,1.17,0,0,1-1.2.8.87.87,0,0,1-.5-.1c-2.1-.9-4.3-1.8-6.4-2.6a1.31,1.31,0,0,1,.45-2.51c-1.83-.71-3.67-1.4-5.52-2.05a1.31,1.31,0,0,1,.37,1.36,1.39,1.39,0,0,1-1.3.9.63.63,0,0,1-.4-.1c-2.2-.8-4.3-1.5-6.5-2.2a1.17,1.17,0,0,1-.87-1.39,1.72,1.72,0,0,1,.07-.21,1.17,1.17,0,0,1,1.16-.89q-2.82-.91-5.67-1.75a1.28,1.28,0,0,1,.41,1.34,1.61,1.61,0,0,1-1.3,1,.79.79,0,0,1-.4-.1l-6.6-1.8a1.29,1.29,0,0,1,.39-2.53q-9.62-2.49-19.53-4.2a1.35,1.35,0,0,1,.64,1.33A1.57,1.57,0,0,1,283.9,6h-.2c-2.2-.4-4.5-.7-6.8-1.1a1.34,1.34,0,0,1-1.1-1.5,1.32,1.32,0,0,1,1-1c-2.05-.29-4.09-.55-6.15-.78a1.22,1.22,0,0,1,.89,1.33,1.3,1.3,0,0,1-1.3,1.2c-2.4-.3-4.7-.5-6.9-.7A1.41,1.41,0,0,1,262.1,2,1.37,1.37,0,0,1,263.24.85C261.17.67,259.09.53,257,.41a1.23,1.23,0,0,1,.69,1.29,1.22,1.22,0,0,1-1.2,1.2h0l-6.9-.3a1.32,1.32,0,0,1-1.3-1.3,1.31,1.31,0,0,1,.93-1.22C247.16,0,245.09,0,243,0h-.28a1.3,1.3,0,1,1,0,2.6c-2.3,0-4.6,0-6.9.1a1.32,1.32,0,0,1-1.3-1.3A1.24,1.24,0,0,1,235.73.12q-3.42.11-6.81.3a1.4,1.4,0,0,1,1.3,1.18A1.4,1.4,0,0,1,229,3c-2.3.1-4.6.3-6.8.5H222a1.29,1.29,0,0,1-.25-2.56q-3.12.27-6.21.61a1.28,1.28,0,0,1,.86,1A1.25,1.25,0,0,1,215.34,4h0l-6.8.9a.3.3,0,0,1-.2.1,1.38,1.38,0,0,1-1.3-1.1,1.35,1.35,0,0,1,.64-1.33q-9.81,1.43-19.37,3.62a1.23,1.23,0,0,1,.93,1,1.2,1.2,0,0,1-.85,1.47l-.15,0c-2.2.5-4.5,1.1-6.7,1.7,0,.1-.1.1-.2.1a1.19,1.19,0,0,1-1.2-1,1.26,1.26,0,0,1,.5-1.4c-2,.53-4,1.09-6,1.66a1.3,1.3,0,0,1,.3,2.53h0c-2.2.6-4.4,1.3-6.6,2,0,.1-.2.1-.3.1a1.26,1.26,0,0,1-1.2-.9,1.24,1.24,0,0,1,.58-1.49c-2.17.72-4.33,1.45-6.48,2.22h.1a1.26,1.26,0,0,1,.8,2.4c-2.1.8-4.3,1.6-6.4,2.4-.1.1-.2.1-.4.1a1.29,1.29,0,0,1-.62-2.43c-2,.81-4.1,1.64-6.13,2.5a1.23,1.23,0,0,1,1.55.73,1.25,1.25,0,0,1-.61,1.66l-.09,0c-2.1.9-4.2,1.8-6.3,2.8-.1,0-.3.1-.4.1a1.32,1.32,0,0,1-1.3-1.34,1.31,1.31,0,0,1,.62-1.1q-9.18,4.21-17.94,9.17a1.43,1.43,0,0,1,1.32.67,1.33,1.33,0,0,1-.5,1.8c-2,1.1-4,2.3-5.9,3.5a1.51,1.51,0,0,1-.7.1,1.25,1.25,0,0,1-1.1-.6,1.28,1.28,0,0,1,.14-1.55c-1.82,1.11-3.63,2.24-5.43,3.41a1.3,1.3,0,0,1,1.3,2.24h0c-1.9,1.2-3.8,2.5-5.7,3.8a1.94,1.94,0,0,1-.7.2,1.39,1.39,0,0,1-1.1-.6,1.29,1.29,0,0,1,0-1.5c-1.67,1.15-3.33,2.32-5,3.51a1.23,1.23,0,0,1,1.36.49,1.28,1.28,0,0,1-.28,1.79h0c-1.8,1.3-3.7,2.7-5.5,4.1a.79.79,0,0,1-.7.3,1.23,1.23,0,0,1-1-.5,1.35,1.35,0,0,1,.07-1.64q-8,6.23-15.54,13.1a1.29,1.29,0,0,1,1.57.24,1.27,1.27,0,0,1-.09,1.79h0c-1.7,1.5-3.4,3.1-5,4.7-.1.3-.5.4-.8.4a1.08,1.08,0,0,1-.9-.4,1.26,1.26,0,0,1,0-1.78h0A245.11,245.11,0,0,0,50.45,94.65a1.29,1.29,0,0,1,2,1.62h0c-1.4,1.8-2.8,3.7-4.1,5.5a1.23,1.23,0,0,1-1,.5,2.41,2.41,0,0,1-.8-.2,1.28,1.28,0,0,1-.32-1.76c-1.29,1.78-2.56,3.57-3.8,5.39a1.28,1.28,0,0,1,1.92,1.67c-1.3,1.9-2.6,3.8-3.8,5.7a1,1,0,0,1-1,.6,1.94,1.94,0,0,1-.7-.2,1.29,1.29,0,0,1-.4-1.79h0l.13-.2q-5.92,9.18-11,18.93l.39-.73a1.25,1.25,0,0,1,2.2,1.2c-1.1,2-2.1,4.1-3.1,6.1a1,1,0,0,1-1.1.7,1.23,1.23,0,0,1-.6-.1,1.32,1.32,0,0,1-.63-1.57,241.24,241.24,0,0,0-12.86,31.66,1.3,1.3,0,0,1,1.39-.39,1.22,1.22,0,0,1,.82,1.53.14.14,0,0,1,0,.07c-.7,2.2-1.4,4.4-2,6.6a1,1,0,0,1-1.09.9h0a.79.79,0,0,1-.4-.1,1.25,1.25,0,0,1-.92-1.38q-1.32,4.55-2.47,9.16l.69-2.58a1.3,1.3,0,0,1,2.5.7c-.6,2.2-1.1,4.4-1.6,6.7a1.51,1.51,0,0,1-1.3.8h-.3a1.38,1.38,0,0,1-1-1.48A244.14,244.14,0,0,0,0,237.4v-1.13A1.4,1.4,0,0,1,1.4,235Zm481.5-21.3a1.25,1.25,0,0,1,1.4,1.06v0c.3,2.3.5,4.6.7,6.9a1.31,1.31,0,0,1-1.2,1.4,1.3,1.3,0,0,1-1.3-1.2c-.2-2.3-.4-4.6-.7-6.8a1.25,1.25,0,0,1,1.06-1.4Zm-1,56.6a1.26,1.26,0,0,1,2.5.3l-.9,6.9a1.18,1.18,0,0,1-1.2,1.1h-.2a1.34,1.34,0,0,1-1.1-1.5C481.3,274.8,481.6,272.6,481.9,270.3Zm-461,68c-.1.2-.3.2-.5.2a1.31,1.31,0,0,1-1.2-.8c-.9-2.1-1.8-4.3-2.6-6.4a1.3,1.3,0,0,1,2.4-1c.8,2.1,1.7,4.2,2.6,6.3a1.25,1.25,0,0,1-.61,1.66Zm5.7,12.6a.63.63,0,0,1-.4.1,1.53,1.53,0,0,1-1.2-.7c-1-2.1-2-4.2-3-6.2a1.27,1.27,0,1,1,2.3-1.1c.9,2.1,1.9,4.1,2.9,6.2a1.23,1.23,0,0,1-.52,1.66ZM33.2,363a1.42,1.42,0,0,1-.6.2,1.18,1.18,0,0,1-1.1-.7c-1.1-2-2.3-4-3.3-6.1a1.25,1.25,0,0,1,2.2-1.2l3.3,6A1.33,1.33,0,0,1,33.2,363Zm7.1,11.6c-.1.3-.3.3-.6.3a1.39,1.39,0,0,1-1.1-.6c-1.2-1.9-2.5-3.9-3.7-5.9a1.3,1.3,0,0,1,2.2-1.4c1.2,1.9,2.4,3.9,3.6,5.8a1.31,1.31,0,0,1-.39,1.8Zm8,11.4a1.32,1.32,0,0,1-.8.3,1.23,1.23,0,0,1-1-.5c-1.4-1.9-2.7-3.8-4-5.7a1.29,1.29,0,0,1,2.1-1.5h0c1.3,1.9,2.6,3.8,4,5.6a1.28,1.28,0,0,1-.28,1.79Zm8.4,10.9a1.12,1.12,0,0,1-.8.3,1.39,1.39,0,0,1-1-.5c-1.5-1.8-2.9-3.6-4.3-5.4a1.28,1.28,0,1,1,2-1.6c1.4,1.8,2.8,3.6,4.3,5.4a1.19,1.19,0,0,1,0,1.68Zm9.1,10.3a.91.91,0,0,1-.8.4,1.44,1.44,0,0,1-1-.4c-1.6-1.7-3.1-3.4-4.6-5.2a1.27,1.27,0,1,1,1.9-1.7c1.5,1.7,3,3.4,4.6,5.1a1.27,1.27,0,0,1-.09,1.79Zm9.7,9.9a1.08,1.08,0,0,1-.9.4,1.24,1.24,0,0,1-.9-.4c-1.7-1.6-3.3-3.3-4.9-4.9a1.27,1.27,0,1,1,1.8-1.8c1.6,1.6,3.2,3.3,4.9,4.9.34.45.15,1.21,0,1.8Zm10.2,9.4a1.52,1.52,0,0,1-.9.4,1.12,1.12,0,0,1-.8-.3L78.8,422a1.27,1.27,0,0,1,1.7-1.9c1.7,1.5,3.4,3.1,5.1,4.6a1.28,1.28,0,0,1,.11,1.79Zm10.7,8.6a1.23,1.23,0,0,1-1,.5,1.12,1.12,0,0,1-.8-.3c-1.8-1.4-3.6-2.9-5.4-4.3a1.28,1.28,0,0,1,1.6-2c1.8,1.4,3.6,2.9,5.4,4.3a1.19,1.19,0,0,1,.32,1.65l-.12.15Zm11.2,8.1a1,1,0,0,1-1,.5,1.42,1.42,0,0,1-.7-.2c-1.9-1.3-3.8-2.6-5.7-4a1.29,1.29,0,1,1,1.5-2.1c1.8,1.3,3.7,2.7,5.6,4a1.27,1.27,0,0,1,.31,1.78v0Zm11.6,7.3a.9.9,0,0,1-1,.7,1.94,1.94,0,0,1-.7-.2c-2-1.2-4-2.4-5.9-3.7a1.3,1.3,0,1,1,1.4-2.2c1.9,1.2,3.9,2.5,5.8,3.6a1.29,1.29,0,0,1,.4,1.79Zm12.2,6.8a1.18,1.18,0,0,1-1.1.7,1.23,1.23,0,0,1-.6-.1c-2-1.1-4.1-2.2-6.1-3.3a1.32,1.32,0,0,1,1.3-2.3l6,3.3a1.19,1.19,0,0,1,.55,1.6.31.31,0,0,1,0,.1Zm12.4,6a1.05,1.05,0,0,1-1.1.8.74.74,0,0,1-.5-.1l-6.3-3a1.27,1.27,0,1,1,1.1-2.3c2,1,4.1,2,6.2,2.9a1.31,1.31,0,0,1,.6,1.7Zm12.8,5.4a1.31,1.31,0,0,1-1.2.8.87.87,0,0,1-.5-.1c-2.2-.8-4.3-1.7-6.4-2.6a1.3,1.3,0,0,1,1-2.4c2.1.9,4.2,1.8,6.4,2.6a1.25,1.25,0,0,1,.74,1.61l0,.09Zm12.9,4.6a1,1,0,0,1-1.09.9h0a.63.63,0,0,1-.4-.1c-2.2-.7-4.4-1.5-6.6-2.2a1.26,1.26,0,0,1,.8-2.4h0c2.1.8,4.3,1.5,6.5,2.2a1.22,1.22,0,0,1,.82,1.53.14.14,0,0,1,0,.07Zm13.4,3.8a1.19,1.19,0,0,1-1.2,1h-.3c-2.2-.6-4.5-1.2-6.7-1.9a1.3,1.3,0,0,1,.56-2.54l.14,0c2.2.6,4.4,1.3,6.6,1.8a1.28,1.28,0,0,1,.91,1.56v0Zm12.2,4.1h-.3c-2.3-.5-4.5-.9-6.8-1.5a1.27,1.27,0,0,1,.5-2.5c2.2.5,4.5,1,6.7,1.4a1.2,1.2,0,0,1,1,1.35l0,.15a1,1,0,0,1-.89,1.1Zm13.6,2.3h-.2c-2.3-.3-4.6-.7-6.9-1.1a1.32,1.32,0,1,1,.18-2.63.83.83,0,0,1,.22,0c2.2.4,4.5.7,6.8,1.1a1.34,1.34,0,0,1,1.1,1.5,1.13,1.13,0,0,1-1.16,1.1Zm13.8,1.5c-2.4-.2-4.7-.4-7-.7a1.26,1.26,0,0,1,.3-2.5c2.3.3,4.6.5,6.8.7a1.4,1.4,0,0,1,1.2,1.4,1.38,1.38,0,0,1-1.3,1.1Zm13.7.8-7-.3a1.3,1.3,0,1,1,.2-2.6h0l6.9.3a1.32,1.32,0,0,1,1.3,1.3,1.41,1.41,0,0,1-1.4,1.3Zm13.8,0c-2.2.1-4.6.1-6.9.1a1.3,1.3,0,0,1,0-2.6c2.3,0,4.6,0,6.9-.1a1.3,1.3,0,0,1,0,2.6Zm13.8-.8c-2.2.2-4.5.4-6.9.5h0a1.3,1.3,0,0,1-1.3-1.2,1.4,1.4,0,0,1,1.2-1.4c2.3-.1,4.6-.3,6.8-.5a1.3,1.3,0,0,1,.2,2.6Zm13.9-1.5c-2.3.3-4.6.6-7,.8h0a1.38,1.38,0,0,1-1.3-1.1,1.25,1.25,0,0,1,1.06-1.4h0l6.8-.9a1.32,1.32,0,0,1,.4,2.6Zm13.6-2.5c-2.3.5-4.6.9-6.8,1.3,0,.1-.1.1-.2.1a1.29,1.29,0,0,1-1.3-1.1,1.34,1.34,0,0,1,1.1-1.5c2.2-.4,4.5-.8,6.7-1.3a1.27,1.27,0,0,1,.5,2.5Zm27-7c-2.2.7-4.4,1.4-6.6,2a1.44,1.44,0,0,1-.5.1,1.2,1.2,0,0,1-1.2-.9,1.28,1.28,0,0,1,.86-1.59h0c2.2-.6,4.4-1.3,6.6-2a1.23,1.23,0,0,1,1.58.73s0,.05,0,.07a1.3,1.3,0,0,1-.8,1.6Zm13-4.6c-2.1.8-4.3,1.7-6.5,2.4a.87.87,0,0,1-.5.1,1.26,1.26,0,0,1-1.2-.9,1.23,1.23,0,0,1,.73-1.58l.07,0c2.1-.8,4.3-1.6,6.4-2.4a1.3,1.3,0,0,1,1,2.4Zm12.8-5.5c-2.1,1-4.2,1.9-6.3,2.8a4.22,4.22,0,0,1-.6.2,1.31,1.31,0,0,1-1.2-.8,1.25,1.25,0,0,1,.61-1.66l.09,0c2.1-.9,4.2-1.8,6.3-2.8a1.27,1.27,0,1,1,1.1,2.3Zm12.3-6.1c-2,1.1-4.1,2.1-6.2,3.1-.1.2-.3.2-.5.2a1.53,1.53,0,0,1-1.2-.7,1.23,1.23,0,0,1,.52-1.66l.08,0c2-1,4.1-2.1,6.1-3.1a1.25,1.25,0,0,1,1.2,2.2Zm12.1-6.9c-2,1.2-4,2.4-6,3.5-.2.3-.4.3-.7.3a1.18,1.18,0,0,1-1.1-.7,1.33,1.33,0,0,1,.5-1.8c2-1.1,4-2.3,5.9-3.5a1.3,1.3,0,0,1,1.4,2.2Zm11.6-7.4c-1.9,1.3-3.8,2.6-5.8,3.8a.89.89,0,0,1-.7.3,1.39,1.39,0,0,1-1.1-.6,1.31,1.31,0,0,1,.39-1.8h0c1.9-1.2,3.8-2.5,5.7-3.8a1.29,1.29,0,1,1,1.5,2.1ZM402,426.6c-1.7,1.5-3.5,3-5.3,4.5a1.12,1.12,0,0,1-.8.3,1.39,1.39,0,0,1-1-.5,1.19,1.19,0,0,1,.05-1.68l.15-.12c1.8-1.4,3.5-2.9,5.2-4.4a1.27,1.27,0,1,1,1.7,1.9Zm10.2-9.3c-1.6,1.6-3.3,3.2-5,4.8a1.93,1.93,0,0,1-.9.3,1.44,1.44,0,0,1-1-.4,1.27,1.27,0,0,1,.09-1.79h0c1.7-1.5,3.4-3.1,5-4.7a1.27,1.27,0,0,1,1.8,1.8Zm9.7-10.1c-1.6,1.7-3.2,3.4-4.8,5a.86.86,0,0,1-.9.5,1.24,1.24,0,0,1-.9-.4,1.27,1.27,0,0,1,0-1.8h0c1.6-1.6,3.2-3.3,4.7-5a1.27,1.27,0,0,1,1.9,1.7Zm17.6-21.4c-1.4,1.9-2.8,3.7-4.2,5.6a1.23,1.23,0,0,1-1,.5,1.12,1.12,0,0,1-.8-.3,1.19,1.19,0,0,1-.32-1.65l.12-.15c1.4-1.8,2.8-3.7,4.1-5.5a1.29,1.29,0,0,1,2.1,1.5Zm21.6-35.6c-1,2.1-2.1,4.2-3.2,6.2a1.35,1.35,0,0,1-1.1.7.74.74,0,0,1-.6-.2,1.19,1.19,0,0,1-.55-1.6.31.31,0,0,1,.05-.1c1.1-2,2.1-4.1,3.1-6.1a1.27,1.27,0,0,1,2.3,1.1ZM478,186.6a1.2,1.2,0,0,1,1.47.85l0,.15c.5,2.2,1,4.5,1.5,6.8a1.27,1.27,0,0,1-1,1.5h0c0-.1-.1-.1-.2-.1a1.38,1.38,0,0,1-1.3-1c-.5-2.2-.9-4.5-1.5-6.7a1.2,1.2,0,0,1,.85-1.47Zm-2.4,117.5c.6-2.2,1.1-4.4,1.6-6.7a1.27,1.27,0,0,1,2.5.5c-.5,2.2-1.1,4.5-1.7,6.7a1.18,1.18,0,0,1-1.2,1.1h-.3a1.28,1.28,0,0,1-.91-1.56Zm-3.9,13.1c.7-2.2,1.4-4.4,2-6.6a1.3,1.3,0,0,1,2.54.56.57.57,0,0,1,0,.14c-.6,2.2-1.3,4.4-2,6.6a1.26,1.26,0,0,1-1.3,1,.63.63,0,0,1-.4-.1,1.22,1.22,0,0,1-.82-1.53A.14.14,0,0,1,471.7,317.2Zm-.6,5.7a1.27,1.27,0,0,1,.8,1.6c-.8,2.2-1.6,4.4-2.4,6.5a1.26,1.26,0,0,1-1.2.9.87.87,0,0,1-.5-.1,1.25,1.25,0,0,1-.74-1.61l0-.09c.8-2.1,1.6-4.3,2.4-6.4a1.27,1.27,0,0,1,1.6-.8ZM465,147.3a1.25,1.25,0,0,1,1.66.61.36.36,0,0,1,0,.09c.9,2.1,1.8,4.3,2.6,6.4a1.33,1.33,0,0,1-.7,1.7h-.5a1.31,1.31,0,0,1-1.2-.8c-.8-2.1-1.7-4.2-2.6-6.3a1.25,1.25,0,0,1,.61-1.66ZM429.1,88.8a1.19,1.19,0,0,1,1.68,0,1.58,1.58,0,0,1,.12.15c1.5,1.8,2.9,3.6,4.3,5.4a1.37,1.37,0,0,1-.2,1.8,1.12,1.12,0,0,1-.8.3,1.23,1.23,0,0,1-1-.5c-1.4-1.8-2.8-3.6-4.3-5.4a1.19,1.19,0,0,1,.05-1.68ZM420,78.5a1.27,1.27,0,0,1,1.79.09h0c1.6,1.7,3.1,3.4,4.6,5.2a1.27,1.27,0,0,1-.09,1.79h0a1.86,1.86,0,0,1-.8.2,1.81,1.81,0,0,1-1-.4c-1.5-1.7-3-3.4-4.6-5.1a1.27,1.27,0,0,1,.09-1.79Zm-78-56a1.31,1.31,0,0,1,1.7-.6l6.3,3a1.31,1.31,0,0,1,.6,1.7,1.74,1.74,0,0,1-1.2.6,1.23,1.23,0,0,1-.6-.1c-2-1-4.1-2-6.2-2.9A1.31,1.31,0,0,1,342,22.5ZM289.4,5.8a1.2,1.2,0,0,1,1.35-1l.15,0c2.3.4,4.5.9,6.8,1.5a1.39,1.39,0,0,1,1,1.5,1.41,1.41,0,0,1-1.3.9h-.3c-2.2-.5-4.5-1-6.7-1.4a1.2,1.2,0,0,1-1-1.35Zm-95-.9c2.3-.5,4.6-.9,6.8-1.3a1.31,1.31,0,0,1,1.59,1,1.33,1.33,0,0,1-1,1.6l-.22,0c-2.2.4-4.5.8-6.7,1.3,0-.1-.1-.1-.2-.1a1.38,1.38,0,0,1-1.3-1,1.27,1.27,0,0,1,1-1.5Zm-65,23.3c2-1.1,4.1-2.1,6.2-3.2a1.27,1.27,0,0,1,1.1,2.3c-2,1-4.1,2.1-6.1,3.1a1.42,1.42,0,0,1-.6.2,1.09,1.09,0,0,1-1.1-.7A1.27,1.27,0,0,1,129.4,28.2ZM83.8,59.5c1.7-1.5,3.5-3,5.3-4.5a1.28,1.28,0,1,1,1.6,2h0c-1.8,1.4-3.5,2.9-5.2,4.4a1.12,1.12,0,0,1-.8.3,1.81,1.81,0,0,1-1-.4,1.27,1.27,0,0,1,.09-1.79ZM63.9,78.8c1.6-1.7,3.2-3.4,4.8-5a1.27,1.27,0,0,1,1.8,1.8c-1.6,1.6-3.2,3.3-4.7,5a1.4,1.4,0,0,1-.9.3,1.62,1.62,0,0,1-.9-.3,1.28,1.28,0,0,1-.11-1.79Zm-9,10.4c1.5-1.8,3-3.6,4.5-5.3a1.27,1.27,0,1,1,1.9,1.7c-1.5,1.7-3,3.5-4.4,5.3a1.44,1.44,0,0,1-1,.4,1.12,1.12,0,0,1-.8-.3,1.28,1.28,0,0,1-.2-1.8ZM31.4,123.5c1.1-2,2.3-4,3.5-6a1.3,1.3,0,0,1,2.2,1.4c-1.2,2-2.3,4-3.5,5.9a1.18,1.18,0,0,1-1.1.7,1.38,1.38,0,0,1-1.1-2ZM243.1,16.2c125.2,0,226.7,101.5,226.7,226.7a226.85,226.85,0,0,1-106,191.93l-.32.2q-4.78,3-9.74,5.78a225.64,225.64,0,0,1-108.17,28.76h-2.44a228.19,228.19,0,0,1-24.65-1.34A226.57,226.57,0,0,1,16.4,242.9C16.4,117.7,117.9,16.2,243.1,16.2ZM19.1,148.5c.9-2.1,1.8-4.3,2.8-6.4a1.27,1.27,0,0,1,2.3,1.1h0c-.9,2.1-1.9,4.2-2.8,6.3a1.08,1.08,0,0,1-1.1.8.87.87,0,0,1-.5-.1,1.25,1.25,0,0,1-.74-1.61Zm-5,13c.8-2.2,1.6-4.4,2.4-6.5a1.3,1.3,0,0,1,2.4,1c-.8,2.1-1.6,4.3-2.4,6.5a1.39,1.39,0,0,1-1.2.7.63.63,0,0,1-.4-.1A1.27,1.27,0,0,1,14.1,161.5ZM12.8,316.6a1.23,1.23,0,0,1,1.58.73s0,.05,0,.07c.7,2.2,1.5,4.4,2.2,6.5a1.23,1.23,0,0,1-.73,1.58l-.07,0a.52.52,0,0,1-.4.2,1.26,1.26,0,0,1-1.2-.9c-.8-2.2-1.5-4.4-2.2-6.6a1.23,1.23,0,0,1,.73-1.58Zm-2.3-12.4,1.8,6.6a1.28,1.28,0,0,1-.86,1.59h0c0,.1-.1.1-.3.1a1.2,1.2,0,0,1-1.2-.9c-.6-2.2-1.3-4.5-1.9-6.7a1.3,1.3,0,0,1,2.46-.84A.74.74,0,0,1,10.5,304.2ZM5.1,285.6c-.1.1-.1.1-.2.1a1.29,1.29,0,0,1-1.3-1.1c-.4-2.3-.8-4.6-1.1-6.9a1.32,1.32,0,0,1,2.6-.4c.3,2.3.7,4.5,1.1,6.8a1.28,1.28,0,0,1-1,1.49ZM4.8,195a1.26,1.26,0,0,1,1.49-1h0a1.2,1.2,0,0,1,1,1.35l0,.15c-.4,2.2-.9,4.5-1.3,6.7a1.2,1.2,0,0,1-1.2,1.1H4.6a1.34,1.34,0,0,1-1.1-1.5C3.9,199.5,4.3,197.2,4.8,195ZM2.6,208.6a1.29,1.29,0,0,1,1.45-1.11h0A1.34,1.34,0,0,1,5.2,209c-.3,2.2-.6,4.5-.9,6.8a1.59,1.59,0,0,1-1.4,1.1,1.25,1.25,0,0,1-1.21-1.29s0-.07,0-.11ZM.9,222.4a1.4,1.4,0,0,1,1.4-1.2,1.4,1.4,0,0,1,1.2,1.4c-.2,2.3-.3,4.6-.5,6.8a1.32,1.32,0,0,1-1.3,1.3,1.28,1.28,0,0,1-1.3-1.28.48.48,0,0,1,0-.12C.5,227,.7,224.7.9,222.4Z" transform="translate(0 0)"/><path class="cls-2" d="M269.8,292.05c-.79.33-1.59.64-2.4.94l1.73.07Z" transform="translate(0 0)"/><path class="cls-2" d="M56,370.93c.14-.18.27-.37.4-.53,24.1-31,102.5-49.3,106.4-50.4l4.29-1.18-.19-.32,3.19-4.35L170,314l2.3-3.2v.08l.06-.08,4-5.5,2.3-3.1,3.3-4.7,2.3-3.1,3.3-4.6,5.78.23a11.13,11.13,0,0,0-.08-1.63c-.2-2.77-.49-5.45-.79-8.22l-.11-.08c-.8-6.9-2.1-13.7-3.3-20.5l-.18-1c-1.36-2-2.66-4-3.92-6l-.44-.73a29.73,29.73,0,0,1-35-22.87,26.19,26.19,0,0,1-.7-4.9,23,23,0,0,1,1.2-8.6,18.26,18.26,0,0,1,6.79-8.53c-.36.22-.72.46-1.09.73-5.9-11.5-9.4-23.8-12.1-36.5-1.3-6.3-2.3-12.9-1.5-19.3a16.41,16.41,0,0,1,2.2-6.9,12.22,12.22,0,0,1,8.8-5.1c3.6-.6,6.1-.8,9.4.2-2.1-8.3.6-17.6,6-23.9s13.1-10,21.1-11.3,16-.4,23.9,1.2c7.6,1.5,15.2,3.7,22.9,3.3a35.47,35.47,0,0,0,24.8-13c5.9-7.2,18.6-6.2,26.2-1.1s15.2,13.9,16.8,23.5c1.07,6.46,1,16-4.34,24.08A67.78,67.78,0,0,1,303,155.27a65.39,65.39,0,0,1-1.29,26.89c6,26.62,5,55.27-5.31,80.44-4.3,10.4-10.1,19.8-19.8,25.9a50,50,0,0,1-4.48,2.48l2.38,3.42,2.3,3.1,3.4,4.7,2.2,3.1,4,5.5.06.08v-.08l2.3,3.2v.08L292,318.5l-.11.17c1.37.38,2.74.74,4.11,1.13,3.9,1.1,82.2,19.3,106.4,50.4,2.5,3.21,6.63,11.06,11.65,21.58A225.79,225.79,0,0,0,469.8,242.9c0-125.2-101.5-226.7-226.7-226.7S16.4,117.7,16.4,242.9A225.66,225.66,0,0,0,56,370.93Z" transform="translate(0 0)"/><path d="M263.4,298.4v3.25l5.73-8.59L267.4,293c-1.32.48-2.67.91-4,1.29Z" transform="translate(0 0)"/><path d="M193.7,297.7c-.08-2.56-.18-5.11-.32-7.67l-5.78-.23,6.11,9.16C193.7,298.54,193.71,298.12,193.7,297.7Z" transform="translate(0 0)"/><path class="cls-3" d="M244.48,397.26l-.08.14-2.9-15.5-.8-4.2-2.3-12.1v-.1l-.08.1-.8-4.4-.46-2.42a52.67,52.67,0,0,1-14.86-2.25l-.88,4.67-.8,4.4-.08-.1v.1l-2.3,12.1-.8,4.2-2.9,15.5-.07-.12c2,21.47,3.37,45.49,4.12,71a228.19,228.19,0,0,0,24.65,1.34h2.44C243.56,443.67,242.62,419.25,244.48,397.26Z" transform="translate(0 0)"/><path class="cls-4" d="M263.4,298.4v-4.12h-.07v7.5l.1-.15Z" transform="translate(0 0)"/><path class="cls-4" d="M253.81,316l2.51-3.77A190.69,190.69,0,0,1,208.6,290.9l-.45-.28c-5.22-3.2-10.52-6.68-15.64-10.44.3,2.77.59,5.45.79,8.22a11.13,11.13,0,0,0,.08,1.63c.14,2.56.24,5.11.32,7.67V299l10.08,15.12,19,28.5L224.4,345l-.9,4.4-.8,4.5h0l-.5,2.65a53,53,0,0,0,14.8,2.23l-.92-4.9h0l-.8-4.5-.8-4.4,1.27-1.9Z" transform="translate(0 0)"/><path class="cls-5" d="M189.2,259.6c0-.1-.1-.3-.1-.4a3.1,3.1,0,0,1-.11-.51.36.36,0,0,1-.07-.1l.18,1c1.2,6.8,2.5,13.6,3.3,20.5l.11.08v-.08C191.6,273.3,190.4,266.4,189.2,259.6Z" transform="translate(0 0)"/><path class="cls-5" d="M247.6,296.1a60.48,60.48,0,0,1-20.52-4.72,74,74,0,0,1-10.88-5.68A88.32,88.32,0,0,1,203,275.4a107.58,107.58,0,0,1-14-16.71,3.1,3.1,0,0,0,.11.51c0,.1.1.3.1.4,1.2,6.8,2.4,13.7,3.3,20.5v.08c5.12,3.76,10.42,7.24,15.64,10.44l.45.28a190.78,190.78,0,0,0,47.72,21.36l7-10.46v-7.5A52.13,52.13,0,0,1,247.6,296.1Z" transform="translate(0 0)"/><path class="cls-6" d="M214.33,397.28l-46.61-77.42-.63-1L162.8,320c-3.9,1.1-82.3,19.4-106.4,50.4-.13.16-.26.35-.4.53a227.72,227.72,0,0,0,79.07,71.32,225.08,225.08,0,0,0,83.38,26C217.7,442.77,216.37,418.75,214.33,397.28Z" transform="translate(0 0)"/><path class="cls-7" d="M191,311.73l.16,1,.47-.1C191.42,312.32,191.2,312,191,311.73Z" transform="translate(0 0)"/><path class="cls-7" d="M212.14,376.14a318.49,318.49,0,0,1-22-28.44c-4.8-7.1-9.4-14.4-13.6-21.8-1.31-2.38-2.62-4.75-3.9-7.13L172,317.5c-.54-1-1.08-2-1.61-3a2.5,2.5,0,0,0-.21-.35l-3.19,4.35.19.32.63,1,46.61,77.42.07.12,2.9-15.5C215.55,380,213.84,378.08,212.14,376.14Z" transform="translate(0 0)"/><path class="cls-7" d="M195.6,341.5h0v0Z" transform="translate(0 0)"/><path class="cls-7" d="M222.79,342.58l-19-28.5L193.71,299l-6.11-9.16-3.3,4.6a102.88,102.88,0,0,0,5.44,9.23q1.78,2.76,3.66,5.47l.19.26,1.74,2.42c.7,1,1.41,2,2.12,2.93l.85-.1c.37.93.74,1.86,1.09,2.79q9.17,12.6,18.7,25,2.7,3.51,5.41,7l.9-4.4Z" transform="translate(0 0)"/><path class="cls-7" d="M193.42,315.12v.08h.05Z" transform="translate(0 0)"/><path class="cls-7" d="M199.39,317.4c-.35-.93-.72-1.86-1.09-2.79l-.85.1C198.1,315.6,198.74,316.5,199.39,317.4Z" transform="translate(0 0)"/><path class="cls-7" d="M213.63,342.22q-5.37-7-10.59-14.09l-2.24-3c-2.44-3.29-4.92-6.58-7.34-9.91h-.05v-.08c-.61-.83-1.2-1.67-1.8-2.5l-.47.1-.16-1a137.6,137.6,0,0,1-8.89-14.23l2.2-3.1-2.3,3.1-3.3,4.7-2.3,3.1-4,5.5-.06.08c.59,1.08,1.17,2.25,1.66,3.32.42.81.85,1.61,1.28,2.42l.76,1.44c1.58,3,3.19,5.91,4.86,8.84a300.64,300.64,0,0,0,29.2,41.8l1.33,1.49c2.3,2.57,4.49,5.08,6.67,7.51l2.3-12.1v-.1q-6-7-11.83-14.21l-.78-1q-3.47-4.28-6.85-8.63c-1.74-2.22-3.46-4.45-5.16-6.71l-1.52-2c-.54-.73-1.08-1.45-1.62-2.19-3.33-4.56-6.55-9.22-9.56-14-.38-.61-.75-1.22-1.12-1.84-1.93-3.14-3.77-6.34-5.48-9.61l2.3-3.1q3.15,6.06,6.69,11.86c.43.7.87,1.39,1.3,2.08l.41.66c1.9,3,3.89,5.86,5.93,8.73l.07.1c3.94,5.54,8.1,10.94,12.34,16.27.52.65,1,1.3,1.55,1.94q3.94,4.9,7.91,9.76l.44.54c1.87,2.34,3.82,4.74,5.86,7.06l.88-4.67.5-2.65Q218.11,348.08,213.63,342.22Zm-18-.72h0v0Z" transform="translate(0 0)"/><path class="cls-8" d="M222.68,353.88h0l.8-4.5-.8,4.4Z" transform="translate(0 0)"/><path class="cls-8" d="M218.09,342.4q-9.51-12.37-18.7-25c-.65-.9-1.29-1.8-1.94-2.69s-1.42-1.95-2.12-2.93l-1.74-2.42-.19-.26c-1.25-1.81-2.47-3.64-3.66-5.47a102.88,102.88,0,0,1-5.44-9.23l-2.2,3.1a136,136,0,0,0,8.9,14.23c.21.3.43.59.63.89.6.83,1.19,1.67,1.8,2.5v.07c2.42,3.33,4.9,6.62,7.34,9.91l2.24,3q5.22,7.08,10.59,14.09,4.49,5.85,9.05,11.66v-.08l.8-4.4Z" transform="translate(0 0)"/><path class="cls-8" d="M220.5,365.6l.8-4.4-.88,4.3Z" transform="translate(0 0)"/><path class="cls-8" d="M208.59,351.29a3.57,3.57,0,0,0-.11-.55l-.67-.4Z" transform="translate(0 0)"/><path class="cls-8" d="M193.19,326v-.32l-.07-.1Z" transform="translate(0 0)"/><path class="cls-8" d="M215.44,354.14l-.44-.54q-4-4.86-7.91-9.76c-.52-.64-1-1.29-1.55-1.94-4.24-5.33-8.4-10.73-12.34-16.27V326l-.06-.42c-2-2.87-4-5.77-5.93-8.73l-.41-.66c-.43-.69-.87-1.38-1.3-2.08q-3.54-5.79-6.69-11.86l-2.3,3.1c1.71,3.27,3.55,6.47,5.48,9.61.37.62.74,1.23,1.12,1.84,3,4.8,6.23,9.46,9.56,14l1.62,2.19,1.52,2c1.7,2.26,3.42,4.49,5.16,6.71q3.39,4.35,6.85,8.63l.67.4a2.68,2.68,0,0,0,.11.55q5.82,7.17,11.83,14.21l.88-4.3C219.26,358.88,217.31,356.48,215.44,354.14Z" transform="translate(0 0)"/><path class="cls-8" d="M172.34,310.88v-.08L170,314l.09.15.11-.15Z" transform="translate(0 0)"/><path class="cls-8" d="M211.43,370.19l-1.33-1.49a300.64,300.64,0,0,1-29.2-41.8c-1.67-2.93-3.28-5.87-4.86-8.84l-.76-1.44c-.43-.81-.86-1.61-1.28-2.42-.49-1.07-1.07-2.24-1.66-3.32L170.2,314l-.11.15a2.5,2.5,0,0,1,.21.35c.53,1,1.07,2,1.61,3l.69,1.27c1.28,2.38,2.59,4.75,3.9,7.13,4.2,7.4,8.8,14.7,13.6,21.8a318.49,318.49,0,0,0,22,28.44c1.7,1.94,3.41,3.87,5.16,5.76l.8-4.2C215.92,375.27,213.73,372.76,211.43,370.19Z" transform="translate(0 0)"/><path class="cls-6" d="M402.4,370.2c-24.2-31.1-102.5-49.3-106.4-50.4-1.37-.39-2.74-.75-4.11-1.13l-3.73,6.19-43.68,72.4c-1.86,22-.92,46.41,1.06,72.31a225.64,225.64,0,0,0,108.17-28.76q4.95-2.78,9.74-5.78l-.15-2.33s.17.75.47,2.13a227.51,227.51,0,0,0,50.28-43.05C409,381.26,404.9,373.41,402.4,370.2Z" transform="translate(0 0)"/><path class="cls-7" d="M237,358.78l.46,2.42c.72-.82,1.42-1.66,2.12-2.5C238.76,358.75,237.9,358.78,237,358.78Z" transform="translate(0 0)"/><path class="cls-7" d="M263.4,309.8v-8.15l-.1.15v9.75h.1Z" transform="translate(0 0)"/><path class="cls-7" d="M244.62,358.1a38.51,38.51,0,0,0,4.48-1.1l.14-.05q.45-2.83,1-5.66Q247.44,354.71,244.62,358.1Z" transform="translate(0 0)"/><path class="cls-7" d="M263.59,311.61h-.19v.3Z" transform="translate(0 0)"/><path class="cls-7" d="M288.76,314.08c-.09.14-.17.25-.26.42-.5.95-1,1.89-1.52,2.84q-1.62,3-3.28,6l-1.4,2.55c-4.2,7.4-8.8,14.7-13.6,21.8a319.42,319.42,0,0,1-22.06,28.46c-1.69,1.93-3.39,3.85-5.14,5.74l2.9,15.5.08-.14,43.68-72.4,3.73-6.19.11-.17Z" transform="translate(0 0)"/><path class="cls-7" d="M263.49,317.9v-.18l-.11.15Z" transform="translate(0 0)"/><path class="cls-7" d="M263.4,311.87v-.3h-.1V312Z" transform="translate(0 0)"/><path class="cls-7" d="M255.73,328.17l-.06.22.17-.37Z" transform="translate(0 0)"/><path class="cls-7" d="M259.48,317.07l-.18.48.33-.45Z" transform="translate(0 0)"/><path class="cls-7" d="M259.5,317.07h.15l2.35-3.23c-.38-.09-.75-.19-1.12-.3C260.41,314.72,259.94,315.89,259.5,317.07Z" transform="translate(0 0)"/><path class="cls-7" d="M286.4,310.8l-4-5.5-2.2-3.1-3.4-4.7-2.3-3.1-2.38-3.4c-.76.37-1.53.73-2.32,1.07l-.66,1h0l-5.73,8.59v9.92h.19l.6-.84,8.49-17.52h0l-8.51,17.57,1.21-1.67a133.08,133.08,0,0,0,9.1-14.7l2.2,3.1a137.74,137.74,0,0,1-9.42,15c-1.25,1.76-2.51,3.51-3.8,5.25v.18h-.12L258,325.1c-.71,1-1.44,1.94-2.16,2.92l-.17.37.06-.22q-5.67,7.68-11.5,15.27-4,5.24-8.11,10.44l.92,4.9c.86,0,1.72,0,2.58-.08,1.43-1.71,2.84-3.42,4.18-5.1q4-4.86,7.91-9.76c4.19-5.23,8.31-10.52,12.25-15.94q3.06-4.2,5.92-8.51c.58-.86,1.16-1.72,1.72-2.59s1.2-1.92,1.79-2.88c2.33-3.81,4.54-7.73,6.61-11.72l2.3,3.1c-1.69,3.22-3.5,6.37-5.39,9.47-1.14,1.86-2.3,3.71-3.49,5.53-3,4.57-6.17,9-9.43,13.37L263,335c-4.16,5.53-8.43,10.94-12.79,16.29q-.51,2.82-1,5.66l-.14.05a38.51,38.51,0,0,1-4.48,1.1q-3.1,3.7-6.24,7.4v.1l2.3,12.1c2.18-2.43,4.36-4.93,6.66-7.5l1.34-1.5a300.64,300.64,0,0,0,29.2-41.8c.87-1.52,1.71-3,2.55-4.57,1.08-1.94,2.12-3.9,3.15-5.86.4-.76.81-1.51,1.2-2.27.49-1.07,1.07-2.24,1.66-3.32Z" transform="translate(0 0)"/><path class="cls-7" d="M259.3,317.55l.18-.48c.44-1.18.91-2.35,1.38-3.53h0c.37.11.74.21,1.12.3L263.3,312v-.45h0V301.8l-7,10.46L253.81,316l-18,27.07L234.5,345l.8,4.4c1.59-2,3.16-4.08,4.73-6.13Q249.84,330.55,259.3,317.55Z" transform="translate(0 0)"/><path class="cls-8" d="M235.3,349.4l.8,4.5h0v-.08Z" transform="translate(0 0)"/><path class="cls-8" d="M267.28,312.47a137.74,137.74,0,0,0,9.42-15l-2.2-3.1a133.08,133.08,0,0,1-9.1,14.7l-1.21,1.67-.42.88Z" transform="translate(0 0)"/><path class="cls-8" d="M263.77,311.65l.42-.88-.6.84Z" transform="translate(0 0)"/><path class="cls-8" d="M235.3,349.4l.8,4.4v.08q4.1-5.2,8.11-10.44l-4.2-.17C238.46,345.32,236.89,347.37,235.3,349.4Z" transform="translate(0 0)"/><path class="cls-8" d="M259.3,317.55q-9.44,13-19.27,25.72l4.2.17q5.84-7.59,11.5-15.27C256.8,324.63,258,321.09,259.3,317.55Z" transform="translate(0 0)"/><path class="cls-8" d="M263.4,312.41v1.69c0,1.18,0,2.39.08,3.62q1.92-2.61,3.8-5.25l-3.51-.82Z" transform="translate(0 0)"/><path class="cls-8" d="M263.4,312.41l.37-.76h-.18l-.19.26Z" transform="translate(0 0)"/><path class="cls-8" d="M263.3,314.2h0l-.68-.18L261,317.38l2.38.49.11-.15c-.05-1.23-.08-2.44-.08-3.62v-1.69l-.1.21Z" transform="translate(0 0)"/><path class="cls-8" d="M263.3,312v.61l.1-.21v-.54Z" transform="translate(0 0)"/><path class="cls-8" d="M262,313.84l-2.35,3.26,1.36.28,1.63-3.36Z" transform="translate(0 0)"/><path class="cls-8" d="M255.84,328c.72-1,1.45-1.94,2.16-2.92l5.37-7.23-2.38-.49Z" transform="translate(0 0)"/><path class="cls-8" d="M255.84,328,261,317.38l-1.36-.28-.33.45c-1.32,3.54-2.5,7.08-3.57,10.62Z" transform="translate(0 0)"/><polygon class="cls-8" points="263.3 314.2 263.3 314.2 263.3 314.2 263.3 314.2"/><path class="cls-8" d="M263.3,314.2v-1.58l-.68,1.4Z" transform="translate(0 0)"/><path class="cls-8" d="M263.3,312.62V312l-1.3,1.84.64.18Z" transform="translate(0 0)"/><path class="cls-8" d="M238.3,365.6l.08-.1-.88-4.3Z" transform="translate(0 0)"/><path class="cls-8" d="M282.3,305.3l-2.3-3.1q-3.11,6-6.61,11.72l3.52.85C278.8,311.67,280.61,308.52,282.3,305.3Z" transform="translate(0 0)"/><path class="cls-8" d="M239.62,358.7c-.7.84-1.4,1.68-2.12,2.5l.88,4.3q3.13-3.69,6.24-7.4A41.86,41.86,0,0,1,239.62,358.7Z" transform="translate(0 0)"/><path class="cls-8" d="M251.71,343.85q-3.94,4.89-7.91,9.75c-1.34,1.68-2.75,3.39-4.18,5.1a41.86,41.86,0,0,0,5-.6q2.82-3.39,5.59-6.81Q250.9,347.56,251.71,343.85Z" transform="translate(0 0)"/><path class="cls-8" d="M269.88,319.39l3.54.91c1.19-1.82,2.35-3.67,3.49-5.53l-3.52-.85c-.59,1-1.18,1.93-1.79,2.88S270.46,318.53,269.88,319.39Z" transform="translate(0 0)"/><path class="cls-8" d="M264,333.67c3.26-4.36,6.43-8.8,9.43-13.37l-3.54-.91Q267,323.71,264,327.9C264,329.83,264.05,331.76,264,333.67Z" transform="translate(0 0)"/><path class="cls-8" d="M263,335l1-1.33c.06-1.91,0-3.84,0-5.77-3.94,5.42-8.06,10.71-12.25,16q-.81,3.71-1.5,7.44C254.57,345.94,258.84,340.53,263,335Z" transform="translate(0 0)"/><path class="cls-8" d="M288.76,314.08V314l-2.3-3.2v.08L288.7,314Z" transform="translate(0 0)"/><path class="cls-8" d="M288.7,314l-2.24-3.12c-.59,1.08-1.17,2.25-1.66,3.32-.39.8-.8,1.51-1.2,2.27l3.38.87c.5-.95,1-1.89,1.52-2.84.09-.17.17-.28.26-.42Z" transform="translate(0 0)"/><path class="cls-8" d="M280.45,322.34c1.09.32,2.17.66,3.25,1q1.67-3,3.28-6l-3.38-.87C282.6,318.48,281.53,320.4,280.45,322.34Z" transform="translate(0 0)"/><path class="cls-8" d="M277.9,326.9a300.64,300.64,0,0,1-29.2,41.8l-1.34,1.5h0c-2.3,2.57-4.48,5.07-6.66,7.5l.8,4.2c1.75-1.89,3.45-3.81,5.14-5.74.23-2,.47-4,.72-6-.25,2-.49,4-.72,6a320,320,0,0,0,22.06-28.5c4.8-7.1,9.4-14.4,13.6-21.8l1.4-2.55c-1.08-.35-2.16-.69-3.25-1C279.61,323.85,278.77,325.38,277.9,326.9Z" transform="translate(0 0)"/><path class="cls-4" d="M242.1,214.6C242.2,214.5,242.1,214.5,242.1,214.6Z" transform="translate(0 0)"/><path class="cls-4" d="M267.4,293l-4-.16v1.45C264.73,293.9,266.08,293.47,267.4,293Z" transform="translate(0 0)"/><path class="cls-4" d="M196.4,249.8c16.7,9.2,33.7,17.8,50.9,26.2,5.2,2.5,10.4,5,16,6.4v10.42h.07l-.07-10.63c-5.6-1.4-10.8-3.9-16-6.4-17.1-8.4-34.2-17-50.9-26.2-.4-.2-.9-.5-1.3-.7l-.93-.51-.16.08Z" transform="translate(0 0)"/><path class="cls-4" d="M187.58,251.16c.15.83.31,1.66.46,2.49l-.45-2.49Z" transform="translate(0 0)"/><path class="cls-4" d="M263.3,294.3h.07v-1.45h-.07Z" transform="translate(0 0)"/><path class="cls-4" d="M188.9,258.3c-.3-1.56-.58-3.1-.86-4.65.29,1.65.59,3.29.88,4.94a.36.36,0,0,0,.07.1A1.1,1.1,0,0,0,188.9,258.3Z" transform="translate(0 0)"/><path class="cls-4" d="M186.1,242.8c.49,2.81,1,5.59,1.48,8.36h0C187.1,248.37,186.6,245.59,186.1,242.8Z" transform="translate(0 0)"/><path class="cls-4" d="M194.17,248.39a38.38,38.38,0,0,1-8.07-5.59h0a36.28,36.28,0,0,0,7.91,5.67Z" transform="translate(0 0)"/><polygon class="cls-4" points="186.1 242.8 186.1 242.8 186.1 242.8 186.1 242.8"/><path class="cls-4" d="M301.71,182.16c-.11-.45-.2-.91-.31-1.36a159,159,0,0,0-4.4-15.3,84.42,84.42,0,0,0-6.27-14l-.23.14c-14.75,8.64-57,7.07-72.3,6.4l-4.8-.2c-7.2-.2-14.9,1.7-19.6,7.5-9.36,11.45-11.18,28.54-11.89,43.88v.22A32.76,32.76,0,0,0,166.24,205H164.8a14.21,14.21,0,0,0-8,2,18.26,18.26,0,0,0-6.8,8.5,23,23,0,0,0-1.2,8.6,26.19,26.19,0,0,0,.7,4.9,29.73,29.73,0,0,0,35.06,22.87l.44.73c1.26,2,2.56,4,3.92,6-.29-1.65-.59-3.29-.88-4.94-.15-.83-.31-1.66-.46-2.49-.5-2.77-1-5.55-1.48-8.36.5,2.79,1,5.57,1.49,8.36l.45,2.49c.28,1.55.56,3.09.86,4.65a1.83,1.83,0,0,0,.09.39,107.58,107.58,0,0,0,14,16.71,88.32,88.32,0,0,0,13.2,10.3,74,74,0,0,0,10.88,5.68,60.48,60.48,0,0,0,20.52,4.72,52,52,0,0,0,15.7-1.8V282.4c-5.6-1.4-10.8-3.9-16-6.4-17.2-8.4-34.2-17-50.9-26.2L194,248.47a36.28,36.28,0,0,1-7.91-5.67h0a38.38,38.38,0,0,0,8.07,5.59l.93.51c.4.2.9.5,1.3.7,16.7,9.2,33.8,17.8,50.9,26.2,5.2,2.5,10.4,5,16,6.4l.07,10.63,4,.16c.81-.3,1.61-.61,2.4-.94l1.5-2.25.82,1.18a50,50,0,0,0,4.48-2.48c9.7-6.1,15.5-15.5,19.8-25.9C306.72,237.43,307.67,208.78,301.71,182.16Zm-15.34,25.17a6.61,6.61,0,0,1-.47,1.57,2.5,2.5,0,0,1-1.6,1.6,2.17,2.17,0,0,1-1.4-.6,7.55,7.55,0,0,1-2.3-4.7,8.14,8.14,0,0,1,.5-4.7,2.61,2.61,0,0,1,1.5-1.6h.1c1.2-.1,3.2,1.9,3.7,5.3A8.66,8.66,0,0,1,286.37,207.33ZM271.5,179.8a16,16,0,0,1,9.8-2.7,8.91,8.91,0,0,1,2.3.3,3.23,3.23,0,0,1,2.52,3.81s0,.06,0,.09a3.33,3.33,0,0,1-3.4,2.6c-.2,0-.3-.1-.5-.1a5.18,5.18,0,0,0-1.3-.2,9.46,9.46,0,0,0-5.7,1.6,3.64,3.64,0,0,1-2,.6,1.51,1.51,0,0,1-.7-.1,2.88,2.88,0,0,1-1.9-1.3A3.35,3.35,0,0,1,271.5,179.8Zm-3.7,36.9a6.36,6.36,0,0,1,4.3,3.2,5.83,5.83,0,0,1,.2,5.3,5.13,5.13,0,0,1-3.9,3.1,6.82,6.82,0,0,0,2-3.7,6.28,6.28,0,0,0-.5-3.6,5.31,5.31,0,0,0-2.6-2.5,7.19,7.19,0,0,0-4.2-.4,5.29,5.29,0,0,1,4.7-1.4ZM230,183.6a16.68,16.68,0,0,1,13.4.6,3.24,3.24,0,0,1,1.5,4.3,3.17,3.17,0,0,1-3.1,1.8,2.79,2.79,0,0,1-1.3-.3,10.67,10.67,0,0,0-4-1,12,12,0,0,0-4.2.7,3.5,3.5,0,0,1-1.4.2,3.78,3.78,0,0,1-1-.2,3.29,3.29,0,0,1,.1-6.1Zm-3.2,54.3c-7.3.4-13.4-3.6-13.7-9s5.4-10,12.7-10.4,13.4,3.6,13.7,9-5.4,10-12.7,10.4Zm11.4-28.8a9.12,9.12,0,0,1,.17-3.89,7.62,7.62,0,0,1,.33-.91,2.94,2.94,0,0,1,1.6-1.7h.1c1.4-.1,3.3,2.2,3.9,5.5a10.81,10.81,0,0,1,.12,1.61,7.6,7.6,0,0,1-.62,3.19,2.86,2.86,0,0,1-1.7,1.7C240.7,214.7,238.8,212.4,238.2,209.1ZM286,250c-3.5,7.4-10.2,12.7-18.2,13.5-8.2.8-15.9-3.2-20.9-10a28.9,28.9,0,0,1-5.4-14.4v-.6l1.91-.19h0l21.65-2.2,23.55-2.4c0,.2.1.4.1.6A28.41,28.41,0,0,1,286,250Zm6.3-24.2c-4.9.3-9.1-2.5-9.2-6.1s3.6-6.8,8.5-7,9,2.5,9.2,6.1S297.2,225.6,292.3,225.8Z" transform="translate(0 0)"/><path class="cls-4" d="M269.8,292.05c.79-.34,1.56-.7,2.32-1.07l-.82-1.18Z" transform="translate(0 0)"/><path class="cls-9" d="M238.2,209.1c.6,3.3,2.5,5.6,3.9,5.5,0-.1.1-.1,0,0a2.86,2.86,0,0,0,1.7-1.7,7.6,7.6,0,0,0,.62-3.19c-.93-.58-1.84-1.21-2.74-1.86a1.61,1.61,0,0,1-1.08.15,1.54,1.54,0,0,1-1.22-1.79l0-.11-1-.89A9.13,9.13,0,0,0,238.2,209.1Z" transform="translate(0 0)"/><path class="cls-9" d="M241.3,204.8a1.66,1.66,0,0,1,1.1,2.08,1.69,1.69,0,0,1-.72.92c.9.65,1.81,1.28,2.74,1.86a10.81,10.81,0,0,0-.12-1.61c-.6-3.3-2.5-5.6-3.9-5.5h-.1a2.94,2.94,0,0,0-1.6,1.7,7.62,7.62,0,0,0-.33.91l1,.89a1.57,1.57,0,0,1,1.82-1.27Z" transform="translate(0 0)"/><path class="cls-9" d="M285.9,208.9a6.61,6.61,0,0,0,.47-1.57,37.93,37.93,0,0,1-3.47,2.57,2.17,2.17,0,0,0,1.4.6A2.5,2.5,0,0,0,285.9,208.9Z" transform="translate(0 0)"/><path class="cls-9" d="M286.4,204.2c-.5-3.4-2.5-5.4-3.7-5.3h-.1a2.61,2.61,0,0,0-1.5,1.6,8.14,8.14,0,0,0-.5,4.7,7.55,7.55,0,0,0,2.3,4.7,37.93,37.93,0,0,0,3.47-2.57A8.66,8.66,0,0,0,286.4,204.2Zm-3-.4c-2-.4-1.4-3.6.7-3.2a1.64,1.64,0,0,1-.7,3.2Z" transform="translate(0 0)"/><path class="cls-9" d="M267.3,218.5a5.31,5.31,0,0,1,2.6,2.5,6.28,6.28,0,0,1,.5,3.6,6.82,6.82,0,0,1-2,3.7,5.13,5.13,0,0,0,3.9-3.1,5.83,5.83,0,0,0-.2-5.3,6.36,6.36,0,0,0-4.3-3.2,5.29,5.29,0,0,0-4.7,1.4A7.19,7.19,0,0,1,267.3,218.5Z" transform="translate(0 0)"/><path class="cls-9" d="M243.4,184.2a16.68,16.68,0,0,0-13.4-.6,3.29,3.29,0,0,0-.1,6.1,3.78,3.78,0,0,0,1,.2,3.5,3.5,0,0,0,1.4-.2,12,12,0,0,1,4.2-.7,10.67,10.67,0,0,1,4,1,2.79,2.79,0,0,0,1.3.3,3.17,3.17,0,0,0,3.1-1.8A3.24,3.24,0,0,0,243.4,184.2Z" transform="translate(0 0)"/><path class="cls-9" d="M283.6,177.4a8.91,8.91,0,0,0-2.3-.3,16,16,0,0,0-9.8,2.7,3.35,3.35,0,0,0-.9,4.6,2.88,2.88,0,0,0,1.9,1.3,1.51,1.51,0,0,0,.7.1,3.64,3.64,0,0,0,2-.6,9.46,9.46,0,0,1,5.7-1.6,5.18,5.18,0,0,1,1.3.2c.2,0,.3.1.5.1a3.33,3.33,0,0,0,3.4-2.6,3.22,3.22,0,0,0-2.41-3.88Z" transform="translate(0 0)"/><path class="cls-8" d="M240.6,208a1.61,1.61,0,0,0,1.08-.15c-.77-.56-1.53-1.14-2.27-1.75a1.52,1.52,0,0,0,1.08,1.87Z" transform="translate(0 0)"/><path class="cls-8" d="M241.3,204.8a1.57,1.57,0,0,0-1.87,1.2s0,.07,0,.1c.74.61,1.5,1.19,2.27,1.75a1.66,1.66,0,0,0,.63-2.26A1.64,1.64,0,0,0,241.3,204.8Z" transform="translate(0 0)"/><path class="cls-8" d="M284.1,200.6c-2.1-.4-2.7,2.8-.7,3.2a1.64,1.64,0,0,0,.7-3.2Z" transform="translate(0 0)"/><path class="cls-10" d="M288.6,233.7l-23.55,2.4,21.65-2.2a30.46,30.46,0,0,1-42.81,4.8l-.48-.39-1.91.19v.6a28.9,28.9,0,0,0,5.4,14.4,88,88,0,0,1,24.4-4.3,101.72,101.72,0,0,1,14.7.8,28.37,28.37,0,0,0,2.7-15.7C288.7,234.1,288.6,233.9,288.6,233.7Z" transform="translate(0 0)"/><polygon class="cls-8" points="243.4 238.3 243.41 238.31 265.05 236.1 243.4 238.3"/><path class="cls-8" d="M266,245.2a30,30,0,0,0,20.7-11.3l-21.65,2.2-21.64,2.21A30.17,30.17,0,0,0,266,245.2Z" transform="translate(0 0)"/><path class="cls-11" d="M271.3,249.2a88,88,0,0,0-24.4,4.3c5,6.8,12.7,10.8,20.9,10,8-.8,14.7-6.1,18.2-13.5A101.72,101.72,0,0,0,271.3,249.2Z" transform="translate(0 0)"/><path class="cls-5" d="M225.8,218.5c-7.3.4-13,5-12.7,10.4s6.4,9.4,13.7,9,13-5,12.7-10.4S233,218.1,225.8,218.5Z" transform="translate(0 0)"/><path class="cls-5" d="M283.1,219.7c.1,3.6,4.3,6.4,9.2,6.1s8.7-3.4,8.5-7-4.3-6.4-9.2-6.1S282.9,216.1,283.1,219.7Z" transform="translate(0 0)"/><path class="cls-12" d="M363.45,435l.32-.2c-.3-1.38-.47-2.13-.47-2.13Z" transform="translate(0 0)"/><path class="cls-13" d="M299.86,142.88c5.3-8,5.41-17.62,4.34-24.08-1.6-9.6-9.2-18.4-16.8-23.5s-20.3-6.1-26.2,1.1a35.47,35.47,0,0,1-24.8,13c-7.7.4-15.3-1.8-22.9-3.3-7.9-1.6-16-2.5-23.9-1.2s-15.7,5-21.1,11.3-8.1,15.6-6,23.9c-3.3-1-5.8-.8-9.4-.2a12.22,12.22,0,0,0-8.8,5.1,16.41,16.41,0,0,0-2.2,6.9c-.8,6.4.2,13,1.5,19.3,2.7,12.7,6.2,25,12.1,36.5.37-.27.73-.51,1.09-.73l.4-.26a14.2,14.2,0,0,1,7.6-1.78,10.2,10.2,0,0,0,1.45.07,32.67,32.67,0,0,1,15.66,4.36v-.15h0c.71-15.34,2.53-32.43,11.89-43.88,4.7-5.8,12.4-7.7,19.6-7.5l4.8.2c15.29.67,57.55,2.24,72.3-6.4l.23-.14a84.42,84.42,0,0,1,6.27,14,159,159,0,0,1,4.4,15.3c.11.45.2.91.31,1.36A65.39,65.39,0,0,0,303,155.27,67.78,67.78,0,0,0,299.86,142.88Z" transform="translate(0 0)"/><path class="cls-14" d="M302.9,8.7a1.28,1.28,0,0,0,.86,1.59h0l6.6,1.8a.79.79,0,0,0,.4.1,1.61,1.61,0,0,0,1.3-1,1.28,1.28,0,0,0-.41-1.34c-2.49-.73-5-1.43-7.5-2.09A1.28,1.28,0,0,0,302.9,8.7Z" transform="translate(0 0)"/><path class="cls-14" d="M248.3,1.3a1.32,1.32,0,0,0,1.3,1.3l6.9.3a1.22,1.22,0,0,0,1.2-1.2A1.23,1.23,0,0,0,257,.41c-2.59-.15-5.18-.27-7.78-.33A1.31,1.31,0,0,0,248.3,1.3Z" transform="translate(0 0)"/><path class="cls-14" d="M275.8,3.4a1.34,1.34,0,0,0,1.1,1.5c2.3.4,4.6.7,6.8,1.1h.2a1.57,1.57,0,0,0,1.4-1.1,1.35,1.35,0,0,0-.64-1.33c-2.62-.45-5.26-.86-7.9-1.22A1.31,1.31,0,0,0,275.8,3.4Z" transform="translate(0 0)"/><path class="cls-14" d="M262.1,2a1.4,1.4,0,0,0,1.2,1.4c2.2.2,4.5.4,6.9.7a1.3,1.3,0,0,0,1.3-1.2,1.22,1.22,0,0,0-.89-1.33c-2.45-.28-4.9-.52-7.37-.72A1.37,1.37,0,0,0,262.1,2Z" transform="translate(0 0)"/><path class="cls-14" d="M316.2,12.5a1.16,1.16,0,0,0,.59,1.53l.21.07c2.2.7,4.3,1.4,6.5,2.2a.63.63,0,0,0,.4.1,1.39,1.39,0,0,0,1.3-.9,1.31,1.31,0,0,0-.37-1.36c-2.48-.89-5-1.73-7.47-2.53A1.17,1.17,0,0,0,316.2,12.5Z" transform="translate(0 0)"/><path class="cls-14" d="M19.8,150.2a.87.87,0,0,0,.5.1,1.08,1.08,0,0,0,1.1-.8c.9-2.1,1.9-4.2,2.8-6.3a1.27,1.27,0,0,0-2.3-1.1c-1,2.1-1.9,4.3-2.8,6.4a1.25,1.25,0,0,0,.61,1.66Z" transform="translate(0 0)"/><path class="cls-14" d="M378.2,42.6a1.28,1.28,0,0,0,.28,1.79h0c1.9,1.3,3.8,2.7,5.6,4a2.41,2.41,0,0,0,.8.2,1.63,1.63,0,0,0,1.1-.5,1.26,1.26,0,0,0-.26-1.75c-.31-.24-.63-.47-.95-.7-.62-.45-1.24-.9-1.87-1.34l-.41-.28L380,42.3a1.28,1.28,0,0,0-1.79.28Z" transform="translate(0 0)"/><path class="cls-14" d="M389.4,50.6a1.19,1.19,0,0,0,.05,1.68l.15.12c1.8,1.4,3.6,2.9,5.4,4.3a1.12,1.12,0,0,0,.8.3,1.23,1.23,0,0,0,1-.5,1.31,1.31,0,0,0-.18-1.78c-1.17-.95-2.34-1.91-3.53-2.84l-.11-.09c-.63-.49-1.28-1-1.92-1.47a1.15,1.15,0,0,0-1.62.23Z" transform="translate(0 0)"/><path class="cls-14" d="M410.4,68.6a1.27,1.27,0,0,0,0,1.8h0c1.7,1.5,3.3,3.2,4.9,4.8a1.08,1.08,0,0,0,.9.4,1.62,1.62,0,0,0,.9-.3,1.27,1.27,0,0,0,0-1.8h0l-.11-.11c-1.25-1.32-2.55-2.58-3.82-3.83l-1-1A1.27,1.27,0,0,0,410.4,68.6Z" transform="translate(0 0)"/><path class="cls-14" d="M400.2,59.3a1.27,1.27,0,0,0,.09,1.79h0c1.7,1.5,3.4,3.1,5.1,4.6a1.62,1.62,0,0,0,.9.3,1.44,1.44,0,0,0,1-.4,1.21,1.21,0,0,0,.07-1.56q-2.73-2.51-5.53-4.94A1.29,1.29,0,0,0,400.2,59.3Z" transform="translate(0 0)"/><path class="cls-14" d="M329.2,17a1.25,1.25,0,0,0,.61,1.66l.09,0c2.1.8,4.3,1.7,6.4,2.6a.87.87,0,0,0,.5.1,1.17,1.17,0,0,0,1.2-.8,1.23,1.23,0,0,0-.38-1.49c-2.4-1-4.83-2-7.27-2.92A1.26,1.26,0,0,0,329.2,17Z" transform="translate(0 0)"/><path class="cls-14" d="M366.6,35.2A1.31,1.31,0,0,0,367,37h0c1.9,1.1,3.9,2.4,5.8,3.6a1.94,1.94,0,0,0,.7.2,2.08,2.08,0,0,0,1.2-.5,1.31,1.31,0,0,0-.39-1.8h0l-.6-.39c-1.79-1.14-3.59-2.26-5.42-3.36A1.31,1.31,0,0,0,366.6,35.2Z" transform="translate(0 0)"/><path class="cls-14" d="M354.5,28.4a1.21,1.21,0,0,0,.4,1.65l.1.05,6,3.3a1.31,1.31,0,0,0,1.8-.39h0a1.43,1.43,0,0,0-.24-1.59q-3.33-1.87-6.72-3.66A1.22,1.22,0,0,0,354.5,28.4Z" transform="translate(0 0)"/><path class="cls-14" d="M166.8,13.5a1.26,1.26,0,0,0,1.2.9c.1,0,.3,0,.3-.1,2.2-.7,4.4-1.4,6.6-2a1.28,1.28,0,0,0,.91-1.56v0a1.29,1.29,0,0,0-1.16-.94Q171,10.84,167.38,12A1.24,1.24,0,0,0,166.8,13.5Z" transform="translate(0 0)"/><path class="cls-14" d="M73.6,70.6a1.08,1.08,0,0,0,.9.4c.3,0,.7-.1.8-.4,1.6-1.6,3.3-3.2,5-4.7a1.28,1.28,0,0,0,.11-1.79h0a1.29,1.29,0,0,0-1.57-.24c-1.77,1.62-3.51,3.27-5.24,5A1.26,1.26,0,0,0,73.6,70.6Z" transform="translate(0 0)"/><path class="cls-14" d="M105.4,44.2a1.39,1.39,0,0,0,1.1.6,1.94,1.94,0,0,0,.7-.2c1.9-1.3,3.8-2.6,5.7-3.8a1.29,1.29,0,0,0,.4-1.79h0a1.3,1.3,0,0,0-1.69-.44c-2.09,1.34-4.15,2.73-6.2,4.14A1.29,1.29,0,0,0,105.4,44.2Z" transform="translate(0 0)"/><path class="cls-14" d="M46.6,102.1a2.41,2.41,0,0,0,.8.2,1.23,1.23,0,0,0,1-.5c1.3-1.8,2.7-3.7,4.1-5.5a1.29,1.29,0,1,0-2-1.62h0l-.29.37c-1.15,1.56-2.3,3.07-3.46,4.62l-.49.67A1.27,1.27,0,0,0,46.6,102.1Z" transform="translate(0 0)"/><path class="cls-14" d="M94.3,52.4a1.23,1.23,0,0,0,1,.5.79.79,0,0,0,.7-.3c1.8-1.4,3.7-2.8,5.5-4.1a1.27,1.27,0,0,0,.31-1.78v0a1.23,1.23,0,0,0-1.36-.49c-2,1.49-4.07,3-6.07,4.55A1.35,1.35,0,0,0,94.3,52.4Z" transform="translate(0 0)"/><path class="cls-14" d="M437.6,99.6a1.27,1.27,0,0,0-.31,1.78v0c1.4,1.8,2.7,3.7,4,5.6a1.39,1.39,0,0,0,1.1.6,1.94,1.94,0,0,0,.7-.2,1.27,1.27,0,0,0,.31-1.78v0c-1.22-1.79-2.45-3.58-3.76-5.36l-.26-.36a1.26,1.26,0,0,0-1.77-.28Z" transform="translate(0 0)"/><path class="cls-14" d="M38.9,113.5a1.94,1.94,0,0,0,.7.2,1,1,0,0,0,1-.6c1.2-1.9,2.5-3.8,3.8-5.7a1.28,1.28,0,0,0-1.92-1.67c-1.31,1.9-2.6,3.82-3.85,5.77l-.13.2a1.31,1.31,0,0,0,.39,1.8Z" transform="translate(0 0)"/><path class="cls-14" d="M207,3.9A1.38,1.38,0,0,0,208.3,5a.3.3,0,0,0,.2-.1l6.8-.9a1.23,1.23,0,0,0,1.1-1.36v0a1.28,1.28,0,0,0-.86-1c-2.64.3-5.28.64-7.9,1A1.36,1.36,0,0,0,207,3.9Z" transform="translate(0 0)"/><path class="cls-14" d="M234.5,1.4a1.32,1.32,0,0,0,1.3,1.3c2.3-.1,4.6-.1,6.9-.1a1.3,1.3,0,1,0,0-2.6c-2.35,0-4.68,0-7,.12A1.25,1.25,0,0,0,234.5,1.4Z" transform="translate(0 0)"/><path class="cls-14" d="M116.9,36.7a1.25,1.25,0,0,0,1.1.6,1.51,1.51,0,0,0,.7-.1c1.9-1.2,3.9-2.4,5.9-3.5a1.33,1.33,0,0,0,.5-1.8,1.43,1.43,0,0,0-1.32-.67c-2.27,1.27-4.52,2.57-6.74,3.92A1.28,1.28,0,0,0,116.9,36.7Z" transform="translate(0 0)"/><path class="cls-14" d="M180.1,9.5a1.19,1.19,0,0,0,1.2,1c.1,0,.2,0,.2-.1,2.2-.6,4.5-1.2,6.7-1.7a1.2,1.2,0,0,0,1-1.35l0-.15a1.23,1.23,0,0,0-.93-1c-2.57.59-5.12,1.24-7.67,1.91A1.26,1.26,0,0,0,180.1,9.5Z" transform="translate(0 0)"/><path class="cls-14" d="M220.7,2.3A1.3,1.3,0,0,0,222,3.5h.2c2.2-.2,4.5-.4,6.8-.5a1.4,1.4,0,0,0,1.2-1.4A1.4,1.4,0,0,0,228.9.42c-2.4.13-4.78.31-7.15.52A1.29,1.29,0,0,0,220.7,2.3Z" transform="translate(0 0)"/><path class="cls-14" d="M153.8,18.3a1.31,1.31,0,0,0,1.2.8c.2,0,.3,0,.4-.1,2.1-.8,4.3-1.6,6.4-2.4a1.26,1.26,0,0,0-.8-2.4h-.1c-2.18.79-4.36,1.6-6.52,2.44A1.31,1.31,0,0,0,153.8,18.3Z" transform="translate(0 0)"/><path class="cls-14" d="M141.2,23.7a1.31,1.31,0,0,0,1.2.8c.1,0,.3-.1.4-.1,2.1-1,4.2-1.9,6.3-2.8a1.25,1.25,0,0,0,.74-1.61l0-.09a1.23,1.23,0,0,0-1.55-.73c-2.19.93-4.36,1.9-6.53,2.89A1.31,1.31,0,0,0,141.2,23.7Z" transform="translate(0 0)"/><path class="cls-14" d="M474.6,173.2a1.28,1.28,0,0,0-.91,1.56v0l1.8,6.6a1.19,1.19,0,0,0,1.2,1,.85.85,0,0,1,.5,0,1.28,1.28,0,0,0,.91-1c-.68-2.62-1.41-5.21-2.18-7.8A1.27,1.27,0,0,0,474.6,173.2Z" transform="translate(0 0)"/><path class="cls-14" d="M12,318.2c.7,2.2,1.4,4.4,2.2,6.6a1.26,1.26,0,0,0,1.2.9.52.52,0,0,0,.4-.2,1.22,1.22,0,0,0,.82-1.53.14.14,0,0,0,0-.07c-.7-2.1-1.5-4.3-2.2-6.5a1.26,1.26,0,1,0-2.4.8Z" transform="translate(0 0)"/><path class="cls-14" d="M14.9,163.1a.63.63,0,0,0,.4.1,1.39,1.39,0,0,0,1.2-.7c.8-2.2,1.6-4.4,2.4-6.5a1.3,1.3,0,0,0-2.4-1c-.8,2.1-1.6,4.3-2.4,6.5A1.27,1.27,0,0,0,14.9,163.1Z" transform="translate(0 0)"/><path class="cls-14" d="M2.9,272h.2a1.23,1.23,0,0,0,1.1-1.36v0c-.3-2.2-.5-4.5-.7-6.8a1.31,1.31,0,0,0-1.4-1.2,1.36,1.36,0,0,0-1.2,1.2c.11,1.32.21,2.64.35,3.95A10.46,10.46,0,0,0,1.39,269c.06.64.14,1.28.22,1.92A1.36,1.36,0,0,0,2.9,272Z" transform="translate(0 0)"/><path class="cls-14" d="M391.6,433.6a1.37,1.37,0,0,0-1.8-.2c-1.8,1.4-3.7,2.8-5.5,4.1a1.27,1.27,0,0,0-.31,1.78v0a1.23,1.23,0,0,0,1,.5,2.93,2.93,0,0,0,.77-.16l1.85-1.35c1.27-1,2.54-1.93,3.78-2.89A1.37,1.37,0,0,0,391.6,433.6Z" transform="translate(0 0)"/><path class="cls-14" d="M7.6,299.2c.1,0,.2,0,.2-.1a1.2,1.2,0,0,0,1-1.35l0-.15c-.6-2.2-1-4.5-1.5-6.7a1.26,1.26,0,0,0-1.49-1h0a1.23,1.23,0,0,0-1,1.38c.38,1.85.77,3.69,1.19,5.52l.3,1.35v.05A1.38,1.38,0,0,0,7.6,299.2Z" transform="translate(0 0)"/><path class="cls-14" d="M305.9,476.4a1.28,1.28,0,0,0-1.56-.91h0c-2.2.5-4.5,1.1-6.7,1.6a1.2,1.2,0,0,0-1,1.35l0,.15a1.38,1.38,0,0,0,1.3,1,.9.9,0,0,1,.36.08c.89-.2,1.77-.43,2.66-.64l4.08-1a1.28,1.28,0,0,0,.92-1.56A.31.31,0,0,0,305.9,476.4Z" transform="translate(0 0)"/><path class="cls-14" d="M1.7,258.3c.8-.1,1.4-.7,1.3-1.2l-.3-6.9A1.28,1.28,0,0,0,1.33,249a1.3,1.3,0,0,0-1.22,1.15c0,.92.07,1.83.11,2.74l.14,3.36.06.94A1.29,1.29,0,0,0,1.7,258.3Z" transform="translate(0 0)"/><path class="cls-14" d="M1.7,230.7A1.32,1.32,0,0,0,3,229.4c.2-2.2.3-4.5.5-6.8a1.4,1.4,0,0,0-1.2-1.4,1.4,1.4,0,0,0-1.4,1.2c-.2,2.3-.4,4.6-.5,6.9a1.3,1.3,0,0,0,1.18,1.4Z" transform="translate(0 0)"/><path class="cls-14" d="M2.9,216.9a1.59,1.59,0,0,0,1.4-1.1c.3-2.3.6-4.6.9-6.8a1.34,1.34,0,0,0-1.1-1.5,1.29,1.29,0,0,0-1.49,1.05v0l-.9,6.9a1.24,1.24,0,0,0,1.09,1.39Z" transform="translate(0 0)"/><path class="cls-14" d="M8,304.9c.6,2.2,1.3,4.5,1.9,6.7a1.2,1.2,0,0,0,1.2.9c.2,0,.3,0,.3-.1a1.28,1.28,0,0,0,.91-1.56v0l-1.8-6.6a1.3,1.3,0,0,0-2.54.56A.57.57,0,0,0,8,304.9Z" transform="translate(0 0)"/><path class="cls-14" d="M445.5,111a1.29,1.29,0,0,0-.4,1.79h0c1.2,1.9,2.4,3.9,3.6,5.8a1.25,1.25,0,0,0,1.1.6c.3,0,.5-.1.8-.1a1.29,1.29,0,0,0,.4-1.79h0c-.4-.67-.82-1.33-1.23-2-.3-.49-.6-1-.91-1.46l-1.56-2.46a1.3,1.3,0,0,0-1.8-.38Z" transform="translate(0 0)"/><path class="cls-14" d="M4.6,203.3h.2A1.2,1.2,0,0,0,6,202.2c.4-2.2.9-4.5,1.3-6.7A1.2,1.2,0,0,0,6.45,194l-.15,0a1.27,1.27,0,0,0-1.5,1h0c-.5,2.2-.9,4.5-1.3,6.8A1.34,1.34,0,0,0,4.6,203.3Z" transform="translate(0 0)"/><path class="cls-14" d="M3.6,276.2a1.34,1.34,0,0,0-1.1,1.5c.3,2.3.7,4.6,1.1,6.9a1.29,1.29,0,0,0,1.3,1.1c.1,0,.1,0,.2-.1a1.26,1.26,0,0,0,1.11-1.41.28.28,0,0,0,0-.09c-.4-2.3-.8-4.5-1.1-6.8A1.34,1.34,0,0,0,3.6,276.2Z" transform="translate(0 0)"/><path class="cls-14" d="M0,243.21a1.32,1.32,0,0,0,1.3,1.29,1.28,1.28,0,0,0,1.3-1.28.48.48,0,0,0,0-.12v-.2c0-2.2,0-4.4.1-6.6A1.32,1.32,0,0,0,1.4,235a1.4,1.4,0,0,0-1.3,1.3v1.13C0,239.28,0,241.14,0,243H0Z" transform="translate(0 0)"/><path class="cls-14" d="M25.4,137.6a1.23,1.23,0,0,0,.6.1,1,1,0,0,0,1.1-.7c1-2,2-4.1,3.1-6.1a1.25,1.25,0,0,0-2.2-1.2l-.39.73c-1,1.85-1.91,3.71-2.84,5.6A1.3,1.3,0,0,0,25.4,137.6Z" transform="translate(0 0)"/><path class="cls-14" d="M480.9,200a1.26,1.26,0,0,0-1.11,1.41.28.28,0,0,0,0,.09c.4,2.3.8,4.5,1.1,6.8a1.38,1.38,0,0,0,1.3,1.1.3.3,0,0,1,.2.1,1.32,1.32,0,0,0,1.09-1.4c-.34-2.37-.7-4.72-1.11-7.06a1.26,1.26,0,0,0-1.44-1Z" transform="translate(0 0)"/><path class="cls-14" d="M470.2,160.1a1.22,1.22,0,0,0-.82,1.53.14.14,0,0,0,0,.07c.7,2.2,1.5,4.3,2.2,6.5a1.26,1.26,0,0,0,1.2.9h.4a1.22,1.22,0,0,0,.82-1.53.14.14,0,0,0,0-.07c-.32-1-.64-2-1-3-.43-1.27-.88-2.53-1.33-3.79A1.23,1.23,0,0,0,470.2,160.1Z" transform="translate(0 0)"/><path class="cls-14" d="M484.2,227.3a1.4,1.4,0,0,0-1.2,1.4l.3,6.9a1.32,1.32,0,0,0,1.3,1.3,1.35,1.35,0,0,0,1.28-1.36c-.08-2.41-.19-4.8-.33-7.2A1.4,1.4,0,0,0,484.2,227.3Z" transform="translate(0 0)"/><path class="cls-14" d="M430.9,395.1a1.28,1.28,0,0,0-1.8.2h0c-1.4,1.7-2.9,3.5-4.4,5.2a1.27,1.27,0,0,0,.09,1.79h0a1.12,1.12,0,0,0,.8.3,2,2,0,0,0,1-.39q2.34-2.7,4.61-5.49A1.27,1.27,0,0,0,430.9,395.1Z" transform="translate(0 0)"/><path class="cls-14" d="M452.7,122.6a1.33,1.33,0,0,0-.5,1.8l3.3,6a1.09,1.09,0,0,0,1.1.7,1,1,0,0,0,.7-.2,1.24,1.24,0,0,0,.57-1.46c-1.19-2.24-2.4-4.46-3.65-6.65A1.25,1.25,0,0,0,452.7,122.6Z" transform="translate(0 0)"/><path class="cls-14" d="M459.2,134.8a1.23,1.23,0,0,0-.64,1.62s0,.05,0,.08c1,2.1,1.9,4.1,2.9,6.2a1.31,1.31,0,0,0,1.2.8,1.42,1.42,0,0,0,.6-.2,1.32,1.32,0,0,0,.62-1.62c-.13-.29-.27-.57-.4-.86-.88-1.77-1.75-3.59-2.62-5.42a1.23,1.23,0,0,0-1.62-.64Z" transform="translate(0 0)"/><path class="cls-14" d="M454.2,360.7a1.41,1.41,0,0,0-1.8.5c-1.2,2-2.3,4-3.5,5.9a1.31,1.31,0,0,0,.39,1.8h0a1.94,1.94,0,0,0,.7.2,1.62,1.62,0,0,0,1-.45c1.28-2.12,2.52-4.26,3.74-6.42A1.39,1.39,0,0,0,454.2,360.7Z" transform="translate(0 0)"/><path class="cls-14" d="M447.1,372.6a1.31,1.31,0,0,0-1.8.39h0c-1.2,1.9-2.5,3.8-3.8,5.7a1.28,1.28,0,0,0,.28,1.79h0a1.42,1.42,0,0,0,.7.2,1.79,1.79,0,0,0,1-.34q2.12-3.06,4.14-6.2A1.31,1.31,0,0,0,447.1,372.6Z" transform="translate(0 0)"/><path class="cls-14" d="M466.3,335.9a1.25,1.25,0,0,0-1.66.61.36.36,0,0,0,0,.09c-.9,2.1-1.9,4.2-2.8,6.3a1.31,1.31,0,0,0,.6,1.7.74.74,0,0,0,.5.1,1.6,1.6,0,0,0,1.07-.49q1.62-3.54,3.14-7.14A1.24,1.24,0,0,0,466.3,335.9Z" transform="translate(0 0)"/><path class="cls-14" d="M484.7,241.2a1.32,1.32,0,0,0-1.3,1.3v.4c0,2.3,0,4.6-.1,6.9a1.32,1.32,0,0,0,1.3,1.3,1.24,1.24,0,0,0,1.3-1.18h0v-1c0-2,.07-3.93.07-5.9v-.53A1.33,1.33,0,0,0,484.7,241.2Z" transform="translate(0 0)"/><path class="cls-14" d="M481.4,282.9a1.34,1.34,0,0,0-1.5,1.1c-.4,2.2-.8,4.5-1.3,6.7a1.2,1.2,0,0,0,.85,1.47l.15,0h.3a1.29,1.29,0,0,0,1.3-1l.18-.86c.39-2,.77-4,1.11-6.06A1.32,1.32,0,0,0,481.4,282.9Z" transform="translate(0 0)"/><path class="cls-14" d="M484.4,255.5a1.22,1.22,0,0,0-1.39,1,.91.91,0,0,0,0,.17c-.1,2.2-.3,4.5-.5,6.8a1.41,1.41,0,0,0,1.3,1.4,1.29,1.29,0,0,0,1.3-1.1c.08-1,.17-1.94.24-2.91.1-1.36.19-2.73.26-4.1a1.21,1.21,0,0,0-1.11-1.29Z" transform="translate(0 0)"/><path class="cls-14" d="M460.5,348.5a1.31,1.31,0,0,0-1.7.6c-1,2-2,4.1-3.1,6.1a1.21,1.21,0,0,0,.4,1.65l.1,0a.74.74,0,0,0,.6.2,1.35,1.35,0,0,0,1.1-.7c1.1-2,2.2-4.1,3.2-6.2A1.31,1.31,0,0,0,460.5,348.5Z" transform="translate(0 0)"/><path class="cls-14" d="M410.4,415.5c-1.6,1.6-3.3,3.2-5,4.7a1.28,1.28,0,0,0-.11,1.79h0a1.44,1.44,0,0,0,1,.4,1.93,1.93,0,0,0,.9-.3c1.7-1.6,3.4-3.2,5-4.8a1.27,1.27,0,0,0-1.8-1.8Z" transform="translate(0 0)"/><path class="cls-14" d="M420,405.5c-1.5,1.7-3.1,3.4-4.7,5a1.27,1.27,0,0,0,0,1.8h0a1.24,1.24,0,0,0,.9.4.86.86,0,0,0,.9-.5c1.6-1.6,3.2-3.3,4.8-5a1.27,1.27,0,0,0-1.9-1.7Z" transform="translate(0 0)"/><path class="cls-14" d="M378.6,441.4c-1.9,1.3-3.8,2.6-5.7,3.8a1.29,1.29,0,0,0-.4,1.79h0a1.39,1.39,0,0,0,1.1.6.89.89,0,0,0,.7-.3c2-1.2,3.9-2.5,5.8-3.8a1.29,1.29,0,1,0-1.5-2.1Z" transform="translate(0 0)"/><path class="cls-14" d="M400.3,424.7c-1.7,1.5-3.4,3-5.2,4.4a1.19,1.19,0,0,0-.32,1.65l.12.15a1.39,1.39,0,0,0,1,.5,1.12,1.12,0,0,0,.8-.3c1.8-1.5,3.6-3,5.3-4.5a1.27,1.27,0,1,0-1.7-1.9Z" transform="translate(0 0)"/><path class="cls-14" d="M478.5,194.8a1.38,1.38,0,0,0,1.3,1c.1,0,.2,0,.2.1a1.26,1.26,0,0,0,1-1.49h0c-.5-2.3-1-4.6-1.5-6.8a1.27,1.27,0,1,0-2.5.5C477.6,190.3,478,192.6,478.5,194.8Z" transform="translate(0 0)"/><path class="cls-14" d="M437.4,384.3c-1.3,1.8-2.7,3.7-4.1,5.5a1.19,1.19,0,0,0,.05,1.68l.15.12a1.12,1.12,0,0,0,.8.3,1.23,1.23,0,0,0,1-.5c1.4-1.9,2.8-3.7,4.2-5.6a1.29,1.29,0,0,0-2.1-1.5Z" transform="translate(0 0)"/><path class="cls-14" d="M367.1,448.7c-1.9,1.2-3.9,2.4-5.9,3.5a1.33,1.33,0,0,0-.5,1.8,1.18,1.18,0,0,0,1.1.7c.3,0,.5,0,.7-.3,2-1.1,4-2.3,6-3.5a1.3,1.3,0,0,0-1.4-2.2Z" transform="translate(0 0)"/><path class="cls-14" d="M317.5,471.6c-2.2.7-4.4,1.4-6.6,2a1.28,1.28,0,0,0-.91,1.56v0a1.2,1.2,0,0,0,1.2.9,1.24,1.24,0,0,0,.5-.1c2.2-.6,4.4-1.3,6.6-2a1.3,1.3,0,0,0,.8-1.6,1.22,1.22,0,0,0-1.53-.82Z" transform="translate(0 0)"/><path class="cls-14" d="M476.5,305.7h.3a1.18,1.18,0,0,0,1.2-1.1c.6-2.2,1.2-4.5,1.7-6.7a1.27,1.27,0,0,0-2.5-.5h0c-.5,2.3-1,4.5-1.6,6.7a1.28,1.28,0,0,0,.86,1.59Z" transform="translate(0 0)"/><path class="cls-14" d="M290.8,478.5c-2.2.5-4.5.9-6.7,1.3a1.34,1.34,0,0,0-1.1,1.5,1.29,1.29,0,0,0,1.3,1.1c.1,0,.2,0,.2-.1,2.2-.4,4.5-.8,6.8-1.3a1.27,1.27,0,0,0-.5-2.5Z" transform="translate(0 0)"/><path class="cls-14" d="M330.3,467c-2.1.8-4.3,1.6-6.4,2.4a1.22,1.22,0,0,0-.82,1.53.14.14,0,0,0,0,.07,1.26,1.26,0,0,0,1.2.9.87.87,0,0,0,.5-.1c2.2-.7,4.4-1.6,6.5-2.4a1.3,1.3,0,0,0-1-2.4Z" transform="translate(0 0)"/><path class="cls-14" d="M343,461.6c-2.1,1-4.2,1.9-6.3,2.8A1.25,1.25,0,0,0,336,466l0,.09a1.31,1.31,0,0,0,1.2.8,3.84,3.84,0,0,0,.6-.2c2.1-.9,4.2-1.8,6.3-2.8a1.27,1.27,0,1,0-1.1-2.3Z" transform="translate(0 0)"/><path class="cls-14" d="M355.2,455.6c-2,1-4.1,2.1-6.1,3.1a1.23,1.23,0,0,0-.64,1.62l0,.08a1.53,1.53,0,0,0,1.2.7c.2,0,.4,0,.5-.2,2.1-1,4.2-2,6.2-3.1a1.25,1.25,0,0,0-1.2-2.2Z" transform="translate(0 0)"/><path class="cls-14" d="M290.4,7.3c2.2.4,4.5.9,6.7,1.4h.3a1.41,1.41,0,0,0,1.3-.9,1.39,1.39,0,0,0-1-1.5c-2.3-.6-4.5-1.1-6.8-1.5a1.2,1.2,0,0,0-1.47.85l0,.15a1.2,1.2,0,0,0,.85,1.47Z" transform="translate(0 0)"/><path class="cls-14" d="M84.7,61.7a1.12,1.12,0,0,0,.8-.3c1.7-1.5,3.4-3,5.2-4.4a1.28,1.28,0,1,0-1.6-2h0c-1.8,1.5-3.6,3-5.3,4.5a1.28,1.28,0,0,0-.11,1.79h0A1.81,1.81,0,0,0,84.7,61.7Z" transform="translate(0 0)"/><path class="cls-14" d="M130,30.6a1.42,1.42,0,0,0,.6-.2c2-1,4.1-2.1,6.1-3.1a1.27,1.27,0,0,0-1.1-2.3h0c-2.1,1.1-4.2,2.1-6.2,3.2a1.27,1.27,0,0,0-.5,1.7A1.09,1.09,0,0,0,130,30.6Z" transform="translate(0 0)"/><path class="cls-14" d="M64.9,80.9a1.4,1.4,0,0,0,.9-.3c1.5-1.7,3.1-3.4,4.7-5a1.27,1.27,0,0,0-1.8-1.8h0c-1.6,1.6-3.2,3.3-4.8,5A1.27,1.27,0,0,0,64,80.59h0A1.62,1.62,0,0,0,64.9,80.9Z" transform="translate(0 0)"/><path class="cls-14" d="M31.9,125.3a1.42,1.42,0,0,0,.6.2,1.18,1.18,0,0,0,1.1-.7c1.2-1.9,2.3-3.9,3.5-5.9a1.3,1.3,0,0,0-2.2-1.4h0c-1.2,2-2.4,4-3.5,6A1.41,1.41,0,0,0,31.9,125.3Z" transform="translate(0 0)"/><path class="cls-14" d="M194.7,7.4c.1,0,.2,0,.2.1,2.2-.5,4.5-.9,6.7-1.3a1.32,1.32,0,1,0-.18-2.63.83.83,0,0,0-.22,0c-2.2.4-4.5.8-6.8,1.3a1.26,1.26,0,0,0-1,1.49h0A1.38,1.38,0,0,0,194.7,7.4Z" transform="translate(0 0)"/><path class="cls-14" d="M55.9,91.3a1.44,1.44,0,0,0,1-.4c1.4-1.8,2.9-3.6,4.4-5.3a1.27,1.27,0,1,0-1.9-1.7c-1.5,1.7-3,3.5-4.5,5.3a1.28,1.28,0,0,0,.2,1.8h0A1.12,1.12,0,0,0,55.9,91.3Z" transform="translate(0 0)"/><path class="cls-14" d="M424.5,85.4a1.81,1.81,0,0,0,1,.4,1.86,1.86,0,0,0,.8-.2,1.28,1.28,0,0,0,.11-1.79h0c-1.5-1.8-3-3.5-4.6-5.2a1.27,1.27,0,0,0-1.9,1.7C421.5,82,423,83.7,424.5,85.4Z" transform="translate(0 0)"/><path class="cls-14" d="M433.2,96a1.23,1.23,0,0,0,1,.5,1.12,1.12,0,0,0,.8-.3,1.37,1.37,0,0,0,.2-1.8c-1.4-1.8-2.8-3.6-4.3-5.4a1.28,1.28,0,0,0-2,1.6h0C430.4,92.4,431.8,94.2,433.2,96Z" transform="translate(0 0)"/><path class="cls-14" d="M466.9,155.3a1.31,1.31,0,0,0,1.2.8h.5a1.33,1.33,0,0,0,.7-1.7c-.8-2.1-1.7-4.3-2.6-6.4a1.3,1.3,0,1,0-2.4,1h0C465.2,151.1,466.1,153.2,466.9,155.3Z" transform="translate(0 0)"/><path class="cls-14" d="M469.5,323.7c-.8,2.1-1.6,4.3-2.4,6.4a1.25,1.25,0,0,0,.61,1.66l.09,0a.87.87,0,0,0,.5.1,1.26,1.26,0,0,0,1.2-.9c.8-2.1,1.6-4.3,2.4-6.5a1.26,1.26,0,1,0-2.4-.8Z" transform="translate(0 0)"/><path class="cls-14" d="M342.6,24.2c2.1.9,4.2,1.9,6.2,2.9a1.23,1.23,0,0,0,.6.1,1.74,1.74,0,0,0,1.2-.6,1.31,1.31,0,0,0-.6-1.7l-6.3-3a1.27,1.27,0,0,0-1.1,2.3Z" transform="translate(0 0)"/><path class="cls-14" d="M277.3,480.9l-6.8.9a1.23,1.23,0,0,0-1.1,1.36v0a1.38,1.38,0,0,0,1.3,1.1c2.4-.2,4.7-.5,7-.8a1.32,1.32,0,0,0-.4-2.6Z" transform="translate(0 0)"/><path class="cls-14" d="M472.5,318.8a.63.63,0,0,0,.4.1,1.26,1.26,0,0,0,1.3-1c.7-2.2,1.4-4.4,2-6.6a1.3,1.3,0,1,0-2.46-.84.74.74,0,0,0,0,.14c-.6,2.2-1.3,4.4-2,6.6a1.23,1.23,0,0,0,.73,1.58Z" transform="translate(0 0)"/><path class="cls-14" d="M52.6,389.7a1.28,1.28,0,1,0-2,1.6h0c1.4,1.8,2.8,3.6,4.3,5.4a1.39,1.39,0,0,0,1,.5,1.12,1.12,0,0,0,.8-.3,1.19,1.19,0,0,0,.32-1.65l-.12-.15C55.4,393.3,54,391.5,52.6,389.7Z" transform="translate(0 0)"/><path class="cls-14" d="M10.6,176.3a.79.79,0,0,0,.4.1,1,1,0,0,0,1.1-.89h0c.6-2.2,1.3-4.4,2-6.6a1.23,1.23,0,0,0-.73-1.58l-.07,0a1.3,1.3,0,0,0-1.39.39c-.78,2.4-1.52,4.8-2.23,7.23A1.25,1.25,0,0,0,10.6,176.3Z" transform="translate(0 0)"/><path class="cls-14" d="M37.1,367a1.3,1.3,0,0,0-2.2,1.4c1.2,2,2.5,4,3.7,5.9a1.39,1.39,0,0,0,1.1.6c.3,0,.5,0,.6-.3a1.29,1.29,0,0,0,.4-1.79h0C39.5,370.9,38.3,368.9,37.1,367Z" transform="translate(0 0)"/><path class="cls-14" d="M61.3,400.3a1.27,1.27,0,1,0-1.9,1.7c1.5,1.8,3,3.5,4.6,5.2a1.44,1.44,0,0,0,1,.4.91.91,0,0,0,.8-.4,1.28,1.28,0,0,0,.11-1.79h0C64.3,403.7,62.8,402,61.3,400.3Z" transform="translate(0 0)"/><path class="cls-14" d="M44.6,378.6a1.29,1.29,0,0,0-2.1,1.5h0c1.3,1.9,2.6,3.8,4,5.7a1.23,1.23,0,0,0,1,.5,1.32,1.32,0,0,0,.8-.3,1.27,1.27,0,0,0,.31-1.78v0C47.2,382.4,45.9,380.5,44.6,378.6Z" transform="translate(0 0)"/><path class="cls-14" d="M80.5,420.1a1.27,1.27,0,0,0-1.7,1.9h0l5.2,4.6a1.12,1.12,0,0,0,.8.3,1.52,1.52,0,0,0,.9-.4,1.27,1.27,0,0,0-.09-1.79h0C83.9,423.2,82.2,421.6,80.5,420.1Z" transform="translate(0 0)"/><path class="cls-14" d="M70.6,410.4a1.27,1.27,0,1,0-1.8,1.8c1.6,1.6,3.2,3.3,4.9,4.9a1.24,1.24,0,0,0,.9.4,1.08,1.08,0,0,0,.9-.4,1.27,1.27,0,0,0,0-1.8h0C73.8,413.7,72.2,412,70.6,410.4Z" transform="translate(0 0)"/><path class="cls-14" d="M483.8,223.1a1.31,1.31,0,0,0,1.2-1.4c-.2-2.3-.4-4.6-.7-6.9a1.26,1.26,0,0,0-2.5.3c.3,2.2.5,4.5.7,6.8A1.3,1.3,0,0,0,483.8,223.1Z" transform="translate(0 0)"/><path class="cls-14" d="M90.8,429a1.28,1.28,0,0,0-1.6,2c1.8,1.4,3.6,2.9,5.4,4.3a1.12,1.12,0,0,0,.8.3,1.23,1.23,0,0,0,1-.5,1.19,1.19,0,0,0-.05-1.68l-.15-.12C94.4,431.9,92.6,430.4,90.8,429Z" transform="translate(0 0)"/><path class="cls-14" d="M7.2,189.7h.3a1.51,1.51,0,0,0,1.3-.8c.5-2.3,1-4.5,1.6-6.7a1.3,1.3,0,0,0-2.5-.7l-.69,2.58c-.34,1.38-.69,2.76-1,4.14A1.38,1.38,0,0,0,7.2,189.7Z" transform="translate(0 0)"/><path class="cls-14" d="M482.1,278.6h.2a1.18,1.18,0,0,0,1.2-1.1l.9-6.9a1.26,1.26,0,0,0-2.5-.3c-.3,2.3-.6,4.5-.9,6.8A1.34,1.34,0,0,0,482.1,278.6Z" transform="translate(0 0)"/><path class="cls-14" d="M19,330.3a1.3,1.3,0,0,0-2.4,1c.8,2.1,1.7,4.3,2.6,6.4a1.31,1.31,0,0,0,1.2.8c.2,0,.4,0,.5-.2a1.25,1.25,0,0,0,.74-1.61l0-.09C20.7,334.5,19.8,332.4,19,330.3Z" transform="translate(0 0)"/><path class="cls-14" d="M24.3,343a1.27,1.27,0,1,0-2.3,1.1c1,2,2,4.1,3,6.2a1.53,1.53,0,0,0,1.2.7.63.63,0,0,0,.4-.1,1.23,1.23,0,0,0,.64-1.62s0,0,0-.08C26.2,347.1,25.2,345.1,24.3,343Z" transform="translate(0 0)"/><path class="cls-14" d="M30.4,355.2a1.25,1.25,0,0,0-2.2,1.2h0c1,2.1,2.2,4.1,3.3,6.1a1.18,1.18,0,0,0,1.1.7,1.42,1.42,0,0,0,.6-.2,1.33,1.33,0,0,0,.5-1.8Z" transform="translate(0 0)"/><path class="cls-14" d="M195.2,478.6c-2.2-.4-4.5-.9-6.7-1.4a1.27,1.27,0,0,0-.5,2.5h0c2.3.6,4.5,1,6.8,1.5h.3a1,1,0,0,0,1.1-.89.74.74,0,0,0,0-.21,1.2,1.2,0,0,0-.85-1.47Z" transform="translate(0 0)"/><path class="cls-14" d="M208.8,480.9c-2.3-.4-4.6-.7-6.8-1.1a1.31,1.31,0,0,0-1.59,1,1.33,1.33,0,0,0,1,1.6l.22,0c2.3.4,4.6.8,6.9,1.1h.2a1.13,1.13,0,0,0,1.2-1.06v0A1.34,1.34,0,0,0,208.8,480.9Z" transform="translate(0 0)"/><path class="cls-14" d="M222.6,482.5c-2.2-.2-4.5-.4-6.8-.7a1.26,1.26,0,0,0-.3,2.5c2.3.3,4.6.5,7,.7a1.38,1.38,0,0,0,1.3-1.1A1.4,1.4,0,0,0,222.6,482.5Z" transform="translate(0 0)"/><path class="cls-14" d="M182,475.5c-2.2-.5-4.4-1.2-6.6-1.8a1.3,1.3,0,1,0-.84,2.46l.14,0c2.2.7,4.5,1.3,6.7,1.9h.3a1.19,1.19,0,0,0,1.2-1,1.28,1.28,0,0,0-.86-1.59Z" transform="translate(0 0)"/><path class="cls-14" d="M263.6,482.4c-2.2.2-4.5.4-6.8.5a1.4,1.4,0,0,0-1.2,1.4,1.3,1.3,0,0,0,1.3,1.2c2.4-.1,4.7-.3,6.9-.5a1.3,1.3,0,0,0-.2-2.6Z" transform="translate(0 0)"/><path class="cls-14" d="M236.3,483.2l-6.9-.3a1.3,1.3,0,1,0-.2,2.6h0l7,.3a1.41,1.41,0,0,0,1.4-1.3A1.32,1.32,0,0,0,236.3,483.2Z" transform="translate(0 0)"/><path class="cls-14" d="M250,483.2c-2.3.1-4.6.1-6.9.1a1.3,1.3,0,0,0,0,2.6h0c2.3,0,4.7,0,6.9-.1a1.3,1.3,0,0,0,0-2.6Z" transform="translate(0 0)"/><path class="cls-14" d="M143.2,461.6c-2.1-.9-4.2-1.9-6.2-2.9a1.27,1.27,0,1,0-1.1,2.3h0l6.3,3a.74.74,0,0,0,.5.1,1.05,1.05,0,0,0,1.1-.8A1.31,1.31,0,0,0,143.2,461.6Z" transform="translate(0 0)"/><path class="cls-14" d="M130.9,455.6l-6-3.3a1.32,1.32,0,0,0-1.3,2.3c2,1.1,4.1,2.2,6.1,3.3a1.23,1.23,0,0,0,.6.1,1.18,1.18,0,0,0,1.1-.7,1.21,1.21,0,0,0-.4-1.65Z" transform="translate(0 0)"/><path class="cls-14" d="M168.7,471.7c-2.2-.7-4.4-1.4-6.5-2.2a1.26,1.26,0,0,0-.8,2.4c2.2.7,4.4,1.5,6.6,2.2a.63.63,0,0,0,.4.1,1,1,0,0,0,1.1-.89h0a1.23,1.23,0,0,0-.73-1.58Z" transform="translate(0 0)"/><path class="cls-14" d="M118.8,448.7c-1.9-1.1-3.9-2.4-5.8-3.6a1.3,1.3,0,1,0-1.4,2.2h0c1.9,1.3,3.9,2.5,5.9,3.7a1.94,1.94,0,0,0,.7.2.9.9,0,0,0,1-.7,1.31,1.31,0,0,0-.39-1.8Z" transform="translate(0 0)"/><path class="cls-14" d="M101.7,437.4a1.29,1.29,0,1,0-1.5,2.1c1.9,1.4,3.8,2.7,5.7,4a1.42,1.42,0,0,0,.7.2,1,1,0,0,0,1-.5,1.28,1.28,0,0,0-.28-1.79h0C105.4,440.1,103.5,438.7,101.7,437.4Z" transform="translate(0 0)"/><path class="cls-14" d="M155.9,467c-2.2-.8-4.3-1.7-6.4-2.6a1.3,1.3,0,0,0-1,2.4c2.1.9,4.2,1.8,6.4,2.6a.87.87,0,0,0,.5.1,1.31,1.31,0,0,0,1.2-.8A1.25,1.25,0,0,0,156,467Z" transform="translate(0 0)"/></svg>