<svg id="Layer_1" data-name="Layer 1" xmlns="http://www.w3.org/2000/svg" viewBox="0 0 486 485.9"><defs><style>.cls-1{fill:#f7d5f7;}.cls-2{fill:#ffcfca;}.cls-3{fill:#534741;}.cls-4{fill:#f9bfbb;}.cls-5{fill:#397272;}.cls-6{fill:#306664;}.cls-7{fill:#211a17;}.cls-8{fill:#ce7872;}.cls-9{fill:#fff;}.cls-10{fill:#ea8c8b;}.cls-11{fill:#e8a6e8;}</style></defs><title>사람3 (1)</title><path class="cls-1" d="M278.87,328.66c-.34.23-.69.45-1.05.67C278.18,329.11,278.53,328.89,278.87,328.66Z" transform="translate(-7 -7.05)"/><path class="cls-1" d="M281.13,327a31.24,31.24,0,0,0,9.56-12.9l-.09,0A31.46,31.46,0,0,1,281.13,327Z" transform="translate(-7 -7.05)"/><path class="cls-1" d="M89.65,410.3c.91-1.61,1.52-2.7,1.65-2.95,21-43.8,57.3-90.2,107.3-100.9,2.82-.58,30.1-3.72,31.63-5.09,0-1.1.13-2.2.27-3.21v-6.3c0-8.1-.1-16.1-.9-24.2-.3-2.5-.6-4.9-1-7.3-.46-3.14-1-6.25-1.65-9.35a66.64,66.64,0,0,1-13.55-10.75q-3-2.91-5.78-6a26.2,26.2,0,0,1-9.52-3.84,26.64,26.64,0,0,1-11.4-19.7,30.84,30.84,0,0,1,0-4.3,19.11,19.11,0,0,1,.41-2.59c-.65-1.57-1.26-3.16-1.81-4.77-3.44-.53-7.14-5.24-8.7-7.54-5-7.7-7.3-19.1-5.9-29.5,1.2-9,5.2-17.3,12.5-21.9a25.3,25.3,0,0,1,11.57-3.83A71.23,71.23,0,0,1,222,99.45c21.6-14.9,50.9-16.9,74.6-5.8,12.1,5.7,24.3,16.8,20.7,31.3a24.88,24.88,0,0,1-5,9.68l1.3,2.72a92.76,92.76,0,0,1,8.9,30,90.94,90.94,0,0,1,.3,17.3c0,.24-.05.48-.08.72,3.24,19.74,1.79,40.41-5.82,58.88-3.6,8.7-8.6,16.7-16.9,21.9a43,43,0,0,1-8,3.88l.72,18.42-.1,0v0l.48,12.94A157.48,157.48,0,0,1,407.2,393.55c1.8,4.1,3.5,8.3,5,12.5.25.67.48,1.35.73,2a226,226,0,0,0,64-157.82c0-125.2-101.5-226.7-226.7-226.7S23.5,125.05,23.5,250.25A226,226,0,0,0,89.65,410.3Z" transform="translate(-7 -7.05)"/><path class="cls-1" d="M281.09,327c-.48.39-1,.76-1.49,1.12C280.11,327.8,280.6,327.43,281.09,327Z" transform="translate(-7 -7.05)"/><path class="cls-2" d="M230.3,302.55a31.31,31.31,0,0,0,47.52,26.78c.36-.22.71-.44,1.05-.67l.73-.5c.5-.36,1-.73,1.49-1.12l0,0a31.46,31.46,0,0,0,9.47-12.86l.09,0a31.25,31.25,0,0,0,2.21-11.56v-1.2l.18,0-.48-12.94v0a175.4,175.4,0,0,1-49.1-19c-4.9-2.8-9.9-5.8-14.7-9.1-.46-3.09-1-6.16-1.63-9.22L227,251c.62,3.1,1.19,6.21,1.65,9.35.4,2.4.7,4.8,1,7.3.8,8.1.9,16.1.9,24.2v6.3c-.14,1-.23,2.11-.27,3.21,0,0,.07-.07.07-.11Z" transform="translate(-7 -7.05)"/><path class="cls-3" d="M220.6,236.65c-.54-.85-1.07-1.71-1.6-2.58a27.45,27.45,0,0,1-11.38.22q2.82,3,5.78,6A66.64,66.64,0,0,0,227,251c-.5-2.5-1-5-1.58-7.48C223.69,241.29,222.09,239,220.6,236.65Z" transform="translate(-7 -7.05)"/><path class="cls-3" d="M225.65,243.9c-.09-.13-.18-.26-.28-.38.54,2.49,1.08,5,1.58,7.48l.22.13C226.69,248.71,226.17,246.3,225.65,243.9Z" transform="translate(-7 -7.05)"/><path class="cls-4" d="M292.6,288.43l.1,0L292,270h0Z" transform="translate(-7 -7.05)"/><path class="cls-4" d="M275,272.75a57.55,57.55,0,0,1-27.2-8.5,70.33,70.33,0,0,1-11.5-8.6c-.49-.45-1-.91-1.43-1.37a34.4,34.4,0,0,1-4.67-1.63c-1-.45-2-1-3-1.52.61,3.06,1.17,6.13,1.63,9.22,4.8,3.3,9.8,6.3,14.7,9.1a175.4,175.4,0,0,0,49.1,19L292,270A45.25,45.25,0,0,1,275,272.75Z" transform="translate(-7 -7.05)"/><path class="cls-4" d="M234.87,254.28a90.62,90.62,0,0,1-9.22-10.38c.52,2.4,1,4.81,1.52,7.23,1,.55,2,1.07,3,1.52A34.4,34.4,0,0,0,234.87,254.28Z" transform="translate(-7 -7.05)"/><path class="cls-2" d="M277.3,255.15c4.7,2.1,9.4,4.2,14.3,5.2l0,1,0-1.08c-4.9-1-9.6-3.1-14.3-5.2-1.43-.64-2.84-1.29-4.26-1.94l-.13,0Z" transform="translate(-7 -7.05)"/><path class="cls-2" d="M272.91,253.15l.13,0c-14-6.38-27.93-12.87-41.64-19.86-2.05-1-3.83-1.92-5.56-3,1.71,1.08,3.48,2,5.56,3.08C245.07,240.32,258.91,246.79,272.91,253.15Z" transform="translate(-7 -7.05)"/><path class="cls-2" d="M223.23,232.68l-.18.09c.67,3.17,1.35,6.34,2,9.48l.27,1.27c.1.12.19.25.28.38-.11-.55-.23-1.1-.35-1.65C224.59,239.08,223.91,235.88,223.23,232.68Z" transform="translate(-7 -7.05)"/><path class="cls-2" d="M292,270h0l-.34-8.7Z" transform="translate(-7 -7.05)"/><path class="cls-2" d="M225.84,230.27c-.6-.38-1.19-.78-1.77-1.21v.06C224.66,229.53,225.25,229.91,225.84,230.27Z" transform="translate(-7 -7.05)"/><path class="cls-2" d="M221.9,227.45c.4,1.76.77,3.54,1.15,5.32l.18-.09c-.36-1.68-.71-3.37-1.09-5Z" transform="translate(-7 -7.05)"/><path class="cls-2" d="M222.14,227.64c.66.54,1.3,1,1.94,1.48v-.06c-.65-.49-1.3-1-2-1.61C222.11,227.51,222.13,227.58,222.14,227.64Z" transform="translate(-7 -7.05)"/><path class="cls-2" d="M322.72,185.37c-.54-3.33-1.21-6.65-2-9.92a127,127,0,0,0-3.9-12.8,71,71,0,0,0-12.12-21.09,57.94,57.94,0,0,1-12.88,6.69c-13.2,5-27.2,8.1-41.1,10.7-3.9.8-7.7,1.4-11.2,2.1-6,1.06-12.76,2.69-19.45,3.46a62.17,62.17,0,0,1-.65,7.84,28,28,0,0,1-3.7,11.2c-1.4,2.3-6.1,8.1-9.3,7.7-1.1-.2-2.2-.3-3.1-.4h-.19c0,.08,0,.17,0,.25a16.54,16.54,0,0,0-14.35,8.15,17.7,17.7,0,0,0-1.69,4.61,19.11,19.11,0,0,0-.41,2.59,30.84,30.84,0,0,0,0,4.3,26.64,26.64,0,0,0,11.4,19.7,26.2,26.2,0,0,0,9.52,3.84,27.45,27.45,0,0,0,11.38-.22c.53.87,1.06,1.73,1.6,2.58,1.49,2.34,3.09,4.64,4.77,6.87l-.27-1.27c-.7-3.14-1.38-6.31-2-9.48-.38-1.78-.75-3.56-1.15-5.32l.24.19c0-.06,0-.13,0-.19.67.6,1.32,1.12,2,1.61s1.17.83,1.77,1.21c1.73,1.06,3.51,2,5.56,3,13.71,7,27.6,13.48,41.64,19.86,1.42.65,2.83,1.3,4.26,1.94,4.7,2.1,9.4,4.2,14.3,5.2l0,1.08L292,270a43,43,0,0,0,8-3.88c8.3-5.2,13.3-13.2,16.9-21.9C324.51,225.78,326,205.11,322.72,185.37ZM294.3,170.55c.4-1.3,2-1.8,3.3-2.1a19.23,19.23,0,0,1,10.1.4c.6.2,4.3,1.6,4.1,2.4s-4.6-.5-5.3-.5c-1.2,0-2.5.2-3.7.3-2.2.3-4.3.7-6.5,1-.7.1-1.6.1-2-.5A.91.91,0,0,1,294.3,170.55Zm15.5,20.2c.1,4.2-2.2,7.6-5.1,7.7s-5.4-3.2-5.5-7.4,2.1-7.6,5.1-7.7S309.7,186.55,309.8,190.75Zm-19.7,9.7a5.16,5.16,0,0,1,1.5,6,3.73,3.73,0,0,1-2.9,2.4l-4.7-8.2A5,5,0,0,1,290.1,200.45Zm-40.2,23.4c-7.8.5-14.5-4.2-14.9-10.5s5.5-12,13.3-12.5,14.5,4.2,14.9,10.5S257.7,223.35,249.9,223.85Zm15.9-24.2c-3,.1-5.4-3.2-5.5-7.4s2.1-7.6,5.1-7.7,5.3,3.2,5.5,7.4S268.8,199.55,265.8,199.65Zm5.2-27.5c-.3.6-1.2.7-1.9.6-2.2-.1-4.4-.3-6.6-.5a22.88,22.88,0,0,0-3.7-.1c-.7.1-5,1.7-5.2.9s3.3-2.4,3.9-2.7a20.42,20.42,0,0,1,10.1-1.1c1.3.2,2.9.6,3.4,1.9A1.17,1.17,0,0,1,271,172.15Zm1,44.9,1-.1,30.5-2.5,1.1-.1a34.21,34.21,0,0,1-2,13.9c-2.5,6.4-7,10.8-12.4,11.2s-10.3-2.9-13.7-8.4A31.72,31.72,0,0,1,272,217.05Zm43.92-5.3h0c-4.4.3-8.2-2.3-8.4-5.9s3.1-6.7,7.5-7a9.27,9.27,0,0,1,5.1,1.07,6,6,0,0,1,3.3,4.83C323.6,208.24,320.31,211.34,315.92,211.75Z" transform="translate(-7 -7.05)"/><path class="cls-2" d="M277.3,255.15l-4.39-2c-14-6.36-27.84-12.83-41.51-19.8-2.08-1.1-3.85-2-5.56-3.08-.59-.36-1.18-.74-1.76-1.15s-1.28-.94-1.94-1.48c.38,1.67.73,3.36,1.09,5,.68,3.2,1.36,6.4,2.07,9.57.12.55.24,1.1.35,1.65a90.62,90.62,0,0,0,9.22,10.38c.47.46.94.92,1.43,1.37a70.33,70.33,0,0,0,11.5,8.6,57.55,57.55,0,0,0,27.2,8.5A45.25,45.25,0,0,0,292,270l-.31-8.71,0-1C286.7,259.35,282,257.25,277.3,255.15Z" transform="translate(-7 -7.05)"/><path class="cls-3" d="M322.5,167.35a92.76,92.76,0,0,0-8.9-30l-1.3-2.72a24.88,24.88,0,0,0,5-9.68c3.6-14.5-8.6-25.6-20.7-31.3-23.7-11.1-53-9.1-74.6,5.8a71.23,71.23,0,0,0-27.23,36.87,25.3,25.3,0,0,0-11.57,3.83c-7.3,4.6-11.3,12.9-12.5,21.9-1.4,10.4.9,21.8,5.9,29.5,1.56,2.3,5.26,7,8.7,7.54.55,1.61,1.16,3.2,1.81,4.77a17.7,17.7,0,0,1,1.69-4.61,16.54,16.54,0,0,1,14.35-8.15c0-.08,0-.17,0-.25h.19c.9.1,2,.2,3.1.4,3.2.4,7.9-5.4,9.3-7.7a28,28,0,0,0,3.7-11.2,62.17,62.17,0,0,0,.65-7.84c6.69-.77,13.41-2.4,19.45-3.46,3.5-.7,7.3-1.3,11.2-2.1,13.9-2.6,27.9-5.7,41.1-10.7a57.94,57.94,0,0,0,12.88-6.69,71,71,0,0,1,12.12,21.09,127,127,0,0,1,3.9,12.8c.81,3.27,1.48,6.59,2,9.92,0-.24.06-.48.08-.72A90.94,90.94,0,0,0,322.5,167.35Z" transform="translate(-7 -7.05)"/><path class="cls-5" d="M279.6,328.16l-.73.5Z" transform="translate(-7 -7.05)"/><path class="cls-5" d="M412.2,406.05c-1.5-4.2-3.2-8.4-5-12.5a157.48,157.48,0,0,0-114.12-92.16l-.18,0v1.2A31.28,31.28,0,0,1,281.13,327l0,0c-.49.39-1,.76-1.49,1.12l-.73.5c-.34.23-.69.45-1.05.67a31.22,31.22,0,0,1-46.32-17.88l-.9-.3v-3.7a38.84,38.84,0,0,1-.4-4.8q0-.63,0-1.29c-1.53,1.37-28.81,4.51-31.63,5.09-50,10.7-86.3,57.1-107.3,100.9-.13.25-.74,1.34-1.65,2.95,2,2,4,3.95,6.11,5.88a227.55,227.55,0,0,0,41.06,30.42,81.88,81.88,0,0,0,17.28-25.15c2.7-6.4,3.9-12.8,8.2-18.2a519.38,519.38,0,0,0-9.36,51.82l2.34,1.1A227,227,0,0,0,377.43,437.9c-.07-2.85-.17-5.7-.33-8.55-1.2-20.6-5.6-41.7-17.5-58.5,11.5,11.1,17,25.7,21.3,41.1,1.79,6.53,3.4,13.16,5.26,19.72a228.37,228.37,0,0,0,26.77-23.6C412.68,407.4,412.45,406.72,412.2,406.05Z" transform="translate(-7 -7.05)"/><path class="cls-5" d="M281.13,327l0,0Z" transform="translate(-7 -7.05)"/><path class="cls-5" d="M230.6,307.45v3.7l.9.3a31.22,31.22,0,0,0,46.32,17.88,31.31,31.31,0,0,1-47.52-26.78v-1.3s0,.07-.07.11q0,.66,0,1.29A38.84,38.84,0,0,0,230.6,307.45Z" transform="translate(-7 -7.05)"/><path class="cls-6" d="M359.6,370.85c11.9,16.8,16.3,37.9,17.5,58.5.16,2.85.26,5.7.33,8.55q4.44-3,8.73-6.23c-1.86-6.56-3.47-13.19-5.26-19.72C376.6,396.55,371.1,382,359.6,370.85Z" transform="translate(-7 -7.05)"/><path class="cls-7" d="M267.6,169.25a20.42,20.42,0,0,0-10.1,1.1c-.6.3-4.1,1.9-3.9,2.7s4.5-.8,5.2-.9a22.88,22.88,0,0,1,3.7.1c2.2.2,4.4.4,6.6.5.7.1,1.6,0,1.9-.6a1.17,1.17,0,0,0,0-1C270.5,169.85,268.9,169.45,267.6,169.25Z" transform="translate(-7 -7.05)"/><path class="cls-7" d="M307.7,168.85a19.23,19.23,0,0,0-10.1-.4c-1.3.3-2.9.8-3.3,2.1a.91.91,0,0,0,0,1c.4.6,1.3.6,2,.5,2.2-.3,4.3-.7,6.5-1,1.2-.1,2.5-.3,3.7-.3.7,0,5.1,1.2,5.3.5S308.3,169.05,307.7,168.85Z" transform="translate(-7 -7.05)"/><path class="cls-8" d="M303.5,214.45,273,217l-1,.1a31.72,31.72,0,0,0,4.5,14,35.43,35.43,0,0,1,4.7-2.6,26.85,26.85,0,0,1,15-2.2,29.65,29.65,0,0,1,6.4,2,34.21,34.21,0,0,0,2-13.9Zm-14.7,9.2a19.6,19.6,0,0,1-15.9-6.6l30.5-2.5A19.68,19.68,0,0,1,288.8,223.65Z" transform="translate(-7 -7.05)"/><path class="cls-9" d="M288.8,223.65a19.68,19.68,0,0,0,14.6-9.1l-30.5,2.5A19.6,19.6,0,0,0,288.8,223.65Z" transform="translate(-7 -7.05)"/><path class="cls-10" d="M281.2,228.45a35.43,35.43,0,0,0-4.7,2.6c3.4,5.5,8.4,8.8,13.7,8.4s9.9-4.8,12.4-11.2a29.65,29.65,0,0,0-6.4-2A26.85,26.85,0,0,0,281.2,228.45Z" transform="translate(-7 -7.05)"/><path class="cls-7" d="M265.4,184.55c-3,.1-5.2,3.5-5.1,7.7s2.5,7.5,5.5,7.4,5.2-3.5,5.1-7.7S268.3,184.45,265.4,184.55Zm1.7,7.7a1.35,1.35,0,0,1-.1-2.7C268.7,189.45,268.8,192.15,267.1,192.25Z" transform="translate(-7 -7.05)"/><path class="cls-9" d="M267,189.55a1.35,1.35,0,0,0,.1,2.7C268.8,192.15,268.7,189.45,267,189.55Z" transform="translate(-7 -7.05)"/><path class="cls-7" d="M304.3,183.35c-3,.1-5.3,3.6-5.1,7.7s2.6,7.4,5.5,7.4,5.2-3.5,5.1-7.7S307.2,183.35,304.3,183.35Zm1.8,6.9a1.35,1.35,0,0,1-.1-2.7A1.35,1.35,0,0,1,306.1,190.25Z" transform="translate(-7 -7.05)"/><path class="cls-9" d="M306,187.55a1.35,1.35,0,0,0,.1,2.7A1.35,1.35,0,0,0,306,187.55Z" transform="translate(-7 -7.05)"/><path class="cls-8" d="M291.6,206.45a5.16,5.16,0,0,0-1.5-6,5,5,0,0,0-6.1.2l4.7,8.2A3.73,3.73,0,0,0,291.6,206.45Z" transform="translate(-7 -7.05)"/><path class="cls-4" d="M248.3,200.85c-7.8.5-13.8,6.1-13.3,12.5s7.1,11,14.9,10.5,13.8-6.1,13.3-12.5S256.1,200.35,248.3,200.85Z" transform="translate(-7 -7.05)"/><path class="cls-4" d="M323.4,204.75a6,6,0,0,0-3.3-4.83,85.65,85.65,0,0,1-4.18,11.83C320.31,211.34,323.6,208.24,323.4,204.75Z" transform="translate(-7 -7.05)"/><path class="cls-4" d="M315,198.85c-4.4.3-7.7,3.4-7.5,7s4,6.2,8.4,5.9h0a85.65,85.65,0,0,0,4.18-11.83A9.27,9.27,0,0,0,315,198.85Z" transform="translate(-7 -7.05)"/><path class="cls-6" d="M154.1,421.45a81.88,81.88,0,0,1-17.28,25.15q7.88,4.54,16.12,8.47a519.38,519.38,0,0,1,9.36-51.82C158,408.65,156.8,415.05,154.1,421.45Z" transform="translate(-7 -7.05)"/><path class="cls-11" d="M491.4,262.55a1.33,1.33,0,0,0-1.4,1.2c-.1,2.2-.3,4.5-.5,6.8a1.4,1.4,0,0,0,1.2,1.4h.1a1.3,1.3,0,0,0,1.3-1.1c.2-2.3.4-4.6.5-6.9A1.22,1.22,0,0,0,491.4,262.55Z" transform="translate(-7 -7.05)"/><path class="cls-11" d="M368.8,461.75a.74.74,0,0,0,.7-.3c2-1.1,4-2.3,6-3.5a1.3,1.3,0,1,0-1.4-2.2c-1.9,1.2-3.9,2.4-5.9,3.5a1.33,1.33,0,0,0-.5,1.8A1.17,1.17,0,0,0,368.8,461.75Z" transform="translate(-7 -7.05)"/><path class="cls-11" d="M380.6,454.65a.91.91,0,0,0,.7-.3c1.9-1.2,3.9-2.5,5.8-3.8a1.29,1.29,0,1,0-1.5-2.1c-1.9,1.3-3.8,2.6-5.7,3.8a1.3,1.3,0,0,0-.4,1.8A1.38,1.38,0,0,0,380.6,454.65Z" transform="translate(-7 -7.05)"/><path class="cls-11" d="M356.7,468.25c.2,0,.3-.1.5-.2,2.1-1,4.2-2,6.2-3.1a1.25,1.25,0,1,0-1.2-2.2c-2,1-4.1,2.1-6.1,3.1a1.23,1.23,0,0,0-.6,1.7A1.52,1.52,0,0,0,356.7,468.25Z" transform="translate(-7 -7.05)"/><path class="cls-11" d="M463.7,364.15c.5,0,1-.2,1.1-.6,1.1-2.1,2.2-4.1,3.2-6.2a1.27,1.27,0,0,0-2.3-1.1c-1,2-2,4.1-3.1,6.1a1.2,1.2,0,0,0,.5,1.7A1.27,1.27,0,0,0,463.7,364.15Z" transform="translate(-7 -7.05)"/><path class="cls-11" d="M450.7,387.25c1.3-1.9,2.6-3.9,3.8-5.8a1.3,1.3,0,1,0-2.2-1.4c-1.2,1.9-2.5,3.8-3.8,5.7a1.28,1.28,0,0,0,.3,1.8,1.45,1.45,0,0,0,.7.2A1.58,1.58,0,0,0,450.7,387.25Z" transform="translate(-7 -7.05)"/><path class="cls-11" d="M461.1,367.75a1.41,1.41,0,0,0-1.8.5c-1.2,2-2.3,3.9-3.5,5.9a1.3,1.3,0,0,0,.4,1.8,1.85,1.85,0,0,0,.7.2,1.43,1.43,0,0,0,1.2-.6c1.2-2,2.4-4,3.5-6A1.41,1.41,0,0,0,461.1,367.75Z" transform="translate(-7 -7.05)"/><path class="cls-11" d="M442.3,398.45c1.4-1.9,2.8-3.7,4.2-5.6a1.29,1.29,0,0,0-2.1-1.5c-1.3,1.9-2.7,3.7-4.1,5.5a1.19,1.19,0,0,0,.2,1.8,1.14,1.14,0,0,0,.8.3A1.23,1.23,0,0,0,442.3,398.45Z" transform="translate(-7 -7.05)"/><path class="cls-11" d="M473.3,343a1.25,1.25,0,0,0-1.7.7c-.9,2.1-1.8,4.2-2.8,6.3a1.32,1.32,0,0,0,.6,1.7.75.75,0,0,0,.5.1,1.89,1.89,0,0,0,1.3-.7c1-2.1,1.9-4.3,2.8-6.4A1.25,1.25,0,0,0,473.3,343Z" transform="translate(-7 -7.05)"/><path class="cls-11" d="M488.8,277.35c-.3,2.2-.6,4.5-.9,6.8a1.34,1.34,0,0,0,1.1,1.5h.2a1.08,1.08,0,0,0,1.2-1.1l.9-6.9a1.26,1.26,0,0,0-2.5-.3Z" transform="translate(-7 -7.05)"/><path class="cls-11" d="M478.1,330a1.27,1.27,0,0,0-1.6.8c-.8,2.2-1.6,4.4-2.4,6.5a1.25,1.25,0,0,0,.7,1.7.9.9,0,0,0,.5.1,1.36,1.36,0,0,0,1.2-1c.8-2.1,1.6-4.3,2.4-6.5A1.27,1.27,0,0,0,478.1,330Z" transform="translate(-7 -7.05)"/><path class="cls-11" d="M484.2,304.45c-.5,2.3-1,4.5-1.6,6.7a1.28,1.28,0,0,0,.9,1.6h.3a1.19,1.19,0,0,0,1.2-1.1c.6-2.2,1.2-4.5,1.7-6.7a1.27,1.27,0,0,0-2.5-.5Z" transform="translate(-7 -7.05)"/><path class="cls-11" d="M486.9,291.05c-.4,2.2-.9,4.5-1.3,6.7a1.2,1.2,0,0,0,1,1.5h.3a1.38,1.38,0,0,0,1.3-1c.5-2.2.9-4.5,1.3-6.8a1.32,1.32,0,1,0-2.6-.4Z" transform="translate(-7 -7.05)"/><path class="cls-11" d="M480.7,317.65c-.6,2.2-1.3,4.4-2,6.6a1.23,1.23,0,0,0,.8,1.6.6.6,0,0,0,.4.1,1.27,1.27,0,0,0,1.3-1c.7-2.2,1.3-4.4,2-6.6a1.3,1.3,0,1,0-2.5-.7Z" transform="translate(-7 -7.05)"/><path class="cls-11" d="M85.6,427.25a1.27,1.27,0,0,0,.1,1.8l5.2,4.6a1.14,1.14,0,0,0,.8.3,1.1,1.1,0,0,0,.9-.4,1.27,1.27,0,0,0-.1-1.8c-1.7-1.5-3.4-3.1-5.1-4.6A1.27,1.27,0,0,0,85.6,427.25Z" transform="translate(-7 -7.05)"/><path class="cls-11" d="M137.8,462.65l-6-3.3a1.32,1.32,0,0,0-1.3,2.3c2,1.1,4.1,2.2,6.1,3.3a1.27,1.27,0,0,0,.6.1,1,1,0,0,0,1.1-.7A1.2,1.2,0,0,0,137.8,462.65Z" transform="translate(-7 -7.05)"/><path class="cls-11" d="M125.8,455.75c-1.9-1.1-3.9-2.4-5.8-3.6a1.3,1.3,0,1,0-1.4,2.2c2,1.3,3.9,2.5,5.9,3.7a1.85,1.85,0,0,0,.7.2,1,1,0,0,0,1-.7A1.3,1.3,0,0,0,125.8,455.75Z" transform="translate(-7 -7.05)"/><path class="cls-11" d="M97.8,436.05a1.28,1.28,0,0,0-1.6,2c1.7,1.4,3.6,2.9,5.4,4.3a1.14,1.14,0,0,0,.8.3,1,1,0,0,0,1-.5,1.19,1.19,0,0,0-.2-1.8C101.4,439,99.6,437.45,97.8,436.05Z" transform="translate(-7 -7.05)"/><path class="cls-11" d="M77.6,417.55a1.27,1.27,0,0,0-1.8,1.8c1.6,1.7,3.3,3.3,4.9,4.9a1.22,1.22,0,0,0,.9.4,1.8,1.8,0,0,0,.9-.4,1.27,1.27,0,0,0,0-1.8C80.8,420.85,79.2,419.15,77.6,417.55Z" transform="translate(-7 -7.05)"/><path class="cls-11" d="M59.6,396.75a1.28,1.28,0,1,0-2,1.6c1.4,1.8,2.8,3.6,4.3,5.4a1.39,1.39,0,0,0,1,.5,1.14,1.14,0,0,0,.8-.3,1.19,1.19,0,0,0,.2-1.8C62.4,400.35,61,398.55,59.6,396.75Z" transform="translate(-7 -7.05)"/><path class="cls-11" d="M424.1,419.35c1.6-1.6,3.2-3.3,4.8-5a1.27,1.27,0,1,0-1.9-1.7c-1.5,1.7-3.1,3.4-4.7,5a1.27,1.27,0,0,0,0,1.8,1.22,1.22,0,0,0,.9.4A1.05,1.05,0,0,0,424.1,419.35Z" transform="translate(-7 -7.05)"/><path class="cls-11" d="M350,468.65c-2.1,1-4.2,1.9-6.3,2.8a1.25,1.25,0,0,0-.7,1.7,1.3,1.3,0,0,0,1.2.8,1,1,0,0,0,.6-.2c2.1-.9,4.2-1.8,6.3-2.8a1.27,1.27,0,1,0-1.1-2.3Z" transform="translate(-7 -7.05)"/><path class="cls-11" d="M396.8,440.45c-1.8,1.4-3.7,2.8-5.5,4.1a1.28,1.28,0,0,0-.3,1.8,1.23,1.23,0,0,0,1,.5,3.71,3.71,0,0,0,.9-.2c1.8-1.4,3.7-2.8,5.5-4.2a1.28,1.28,0,1,0-1.6-2Z" transform="translate(-7 -7.05)"/><path class="cls-11" d="M433.6,409.25c1.5-1.7,3-3.5,4.5-5.3a1.28,1.28,0,1,0-2-1.6c-1.4,1.7-2.9,3.5-4.4,5.2a1.27,1.27,0,0,0,.1,1.8,1.14,1.14,0,0,0,.8.3A2.11,2.11,0,0,0,433.6,409.25Z" transform="translate(-7 -7.05)"/><path class="cls-11" d="M142.2,466.45a1.32,1.32,0,0,0,.6,1.7l6.3,3a.75.75,0,0,0,.5.1,1.08,1.08,0,0,0,1.1-.8,1.32,1.32,0,0,0-.6-1.7c-2.1-.9-4.1-1.9-6.2-2.9A1.32,1.32,0,0,0,142.2,466.45Z" transform="translate(-7 -7.05)"/><path class="cls-11" d="M202.2,485.65c-2.2-.4-4.5-.9-6.7-1.4a1.33,1.33,0,0,0-1.5,1,1.39,1.39,0,0,0,1,1.5c2.3.6,4.5,1,6.8,1.5h.3a1,1,0,0,0,1.1-1.1A1.2,1.2,0,0,0,202.2,485.65Z" transform="translate(-7 -7.05)"/><path class="cls-11" d="M162.9,474.05c-2.1-.8-4.3-1.7-6.4-2.6a1.3,1.3,0,0,0-1,2.4c2.1.9,4.3,1.8,6.4,2.6a.9.9,0,0,0,.5.1,1.3,1.3,0,0,0,1.2-.8A1.25,1.25,0,0,0,162.9,474.05Z" transform="translate(-7 -7.05)"/><path class="cls-11" d="M72,414.75a1.8,1.8,0,0,0,.9-.4,1.27,1.27,0,0,0,.1-1.8c-1.6-1.6-3.1-3.4-4.6-5.1a1.27,1.27,0,1,0-1.9,1.7c1.5,1.8,3.1,3.5,4.6,5.2A1.09,1.09,0,0,0,72,414.75Z" transform="translate(-7 -7.05)"/><path class="cls-11" d="M14.3,298a1.27,1.27,0,0,0-2.5.5c.5,2.3,1,4.6,1.5,6.8a1.38,1.38,0,0,0,1.3,1c.1,0,.2,0,.2-.1a1.2,1.2,0,0,0,1-1.5C15.2,302.45,14.8,300.15,14.3,298Z" transform="translate(-7 -7.05)"/><path class="cls-11" d="M10.6,283.25a1.34,1.34,0,0,0-1.1,1.5c.3,2.3.7,4.6,1.1,6.9a1.29,1.29,0,0,0,1.3,1.1.31.31,0,0,0,.2-.1,1.34,1.34,0,0,0,1.1-1.5c-.4-2.3-.8-4.6-1.1-6.8A1.34,1.34,0,0,0,10.6,283.25Z" transform="translate(-7 -7.05)"/><path class="cls-11" d="M17.5,311.25a1.3,1.3,0,1,0-2.5.7c.6,2.2,1.2,4.5,1.9,6.7a1.2,1.2,0,0,0,1.2.9c.1,0,.3,0,.3-.1a1.28,1.28,0,0,0,.9-1.6Z" transform="translate(-7 -7.05)"/><path class="cls-11" d="M9.1,269.65a1.32,1.32,0,0,0-1.2,1.4c.2,2.3.4,4.6.7,6.9a1.38,1.38,0,0,0,1.3,1.1h.2a1.24,1.24,0,0,0,1.1-1.4c-.3-2.2-.5-4.5-.7-6.8A1.32,1.32,0,0,0,9.1,269.65Z" transform="translate(-7 -7.05)"/><path class="cls-11" d="M26.2,344.75a1.3,1.3,0,0,0,1.2.8.55.55,0,0,0,.5-.2,1.25,1.25,0,0,0,.7-1.7c-.9-2.1-1.8-4.2-2.6-6.3a1.3,1.3,0,1,0-2.4,1C24.4,340.45,25.3,342.65,26.2,344.75Z" transform="translate(-7 -7.05)"/><path class="cls-11" d="M21.4,324.45a1.26,1.26,0,0,0-2.4.8c.7,2.2,1.4,4.4,2.2,6.6a1.26,1.26,0,0,0,1.2.9.76.76,0,0,0,.4-.2,1.23,1.23,0,0,0,.8-1.6C22.8,328.75,22.1,326.65,21.4,324.45Z" transform="translate(-7 -7.05)"/><path class="cls-11" d="M9.7,257.25A1.32,1.32,0,0,0,8.4,256a1.26,1.26,0,0,0-1.3,1.3l.3,6.9a1.3,1.3,0,0,0,1.3,1.2c.8-.1,1.4-.7,1.3-1.2Z" transform="translate(-7 -7.05)"/><path class="cls-11" d="M54.5,393.35a.91.91,0,0,0,.8-.3,1.28,1.28,0,0,0,.3-1.8c-1.4-1.8-2.7-3.7-4-5.6a1.29,1.29,0,0,0-2.1,1.5c1.3,2,2.7,3.9,4,5.7A1.23,1.23,0,0,0,54.5,393.35Z" transform="translate(-7 -7.05)"/><path class="cls-11" d="M46.7,382.05a.71.71,0,0,0,.6-.3,1.3,1.3,0,0,0,.4-1.8c-1.2-1.9-2.4-3.9-3.6-5.8a1.3,1.3,0,0,0-2.2,1.4c1.2,2,2.5,4,3.7,5.9A1.38,1.38,0,0,0,46.7,382.05Z" transform="translate(-7 -7.05)"/><path class="cls-11" d="M113.6,450.85a1.23,1.23,0,0,0,1-.5,1.28,1.28,0,0,0-.3-1.8c-1.9-1.3-3.7-2.7-5.6-4a1.29,1.29,0,1,0-1.5,2.1c1.9,1.4,3.8,2.7,5.7,4A1.45,1.45,0,0,0,113.6,450.85Z" transform="translate(-7 -7.05)"/><path class="cls-11" d="M491.7,248.15a1.32,1.32,0,0,0-1.3,1.3v.5c0,2.3,0,4.6-.1,6.9a1.3,1.3,0,1,0,2.6,0c.1-2.3.1-4.6.1-6.9v-.5A1.32,1.32,0,0,0,491.7,248.15Z" transform="translate(-7 -7.05)"/><path class="cls-11" d="M39.6,370.25a1.42,1.42,0,0,0,.6-.2,1.33,1.33,0,0,0,.5-1.8l-3.3-6a1.25,1.25,0,0,0-2.2,1.2c1,2.1,2.2,4.1,3.3,6.1A1.17,1.17,0,0,0,39.6,370.25Z" transform="translate(-7 -7.05)"/><path class="cls-11" d="M33.1,358.05c.2,0,.4,0,.4-.1a1.23,1.23,0,0,0,.6-1.7c-1-2-1.9-4.1-2.9-6.2a1.27,1.27,0,0,0-2.3,1.1c1,2,2,4.2,3,6.2A1.52,1.52,0,0,0,33.1,358.05Z" transform="translate(-7 -7.05)"/><path class="cls-11" d="M215.5,490.55h.2a1.13,1.13,0,0,0,1.2-1.1,1.34,1.34,0,0,0-1.1-1.5c-2.3-.4-4.6-.7-6.8-1.1a1.32,1.32,0,1,0-.4,2.6C210.9,489.85,213.2,490.25,215.5,490.55Z" transform="translate(-7 -7.05)"/><path class="cls-11" d="M304.8,486.75a.76.76,0,0,1,.4.1c2.2-.6,4.5-1.1,6.7-1.7a1.3,1.3,0,0,0-.7-2.5c-2.3.5-4.5,1.1-6.7,1.6a1.2,1.2,0,0,0-1,1.5A1.38,1.38,0,0,0,304.8,486.75Z" transform="translate(-7 -7.05)"/><path class="cls-11" d="M291.5,489.35c2.2-.4,4.5-.8,6.8-1.3a1.27,1.27,0,0,0-.5-2.5c-2.2.5-4.5.9-6.7,1.3a1.34,1.34,0,0,0-1.1,1.5,1.29,1.29,0,0,0,1.3,1.1C291.4,489.45,291.5,489.45,291.5,489.35Z" transform="translate(-7 -7.05)"/><path class="cls-11" d="M318.2,483.25a2,2,0,0,1,.5-.1c2.2-.6,4.4-1.3,6.6-2a1.26,1.26,0,1,0-.8-2.4c-2.2.7-4.4,1.4-6.6,2a1.28,1.28,0,0,0-.9,1.6A1.2,1.2,0,0,0,318.2,483.25Z" transform="translate(-7 -7.05)"/><path class="cls-11" d="M403.7,438.15c1.8-1.5,3.6-3,5.3-4.5a1.27,1.27,0,1,0-1.7-1.9c-1.7,1.5-3.4,3-5.2,4.4a1.19,1.19,0,0,0-.2,1.8,1.39,1.39,0,0,0,1,.5A1.14,1.14,0,0,0,403.7,438.15Z" transform="translate(-7 -7.05)"/><path class="cls-11" d="M331.3,479a.9.9,0,0,0,.5-.1c2.2-.7,4.3-1.6,6.5-2.4a1.3,1.3,0,0,0-1-2.4c-2.1.8-4.3,1.6-6.4,2.4a1.23,1.23,0,0,0-.8,1.6A1.26,1.26,0,0,0,331.3,479Z" transform="translate(-7 -7.05)"/><path class="cls-11" d="M277.8,491.45l6.9-.9a1.32,1.32,0,0,0-.4-2.6l-6.8.9a1.24,1.24,0,0,0-1.1,1.4,1.38,1.38,0,0,0,1.3,1.1A.1.1,0,0,1,277.8,491.45Z" transform="translate(-7 -7.05)"/><path class="cls-11" d="M14.2,196.75h.3a1.51,1.51,0,0,0,1.3-.8c.5-2.2,1-4.5,1.6-6.7a1.3,1.3,0,0,0-2.5-.7c-.6,2.2-1.2,4.5-1.7,6.7A1.39,1.39,0,0,0,14.2,196.75Z" transform="translate(-7 -7.05)"/><path class="cls-11" d="M175,481.15a.6.6,0,0,0,.4.1,1,1,0,0,0,1.1-.9,1.23,1.23,0,0,0-.8-1.6c-2.2-.7-4.3-1.4-6.5-2.2a1.26,1.26,0,0,0-.8,2.4C170.6,479.65,172.8,480.45,175,481.15Z" transform="translate(-7 -7.05)"/><path class="cls-11" d="M188.4,485.15h.3a1.19,1.19,0,0,0,1.2-1,1.28,1.28,0,0,0-.9-1.6c-2.2-.5-4.4-1.2-6.6-1.8a1.3,1.3,0,1,0-.7,2.5C183.9,484,186.2,484.55,188.4,485.15Z" transform="translate(-7 -7.05)"/><path class="cls-11" d="M229.3,492.05h.1a1.23,1.23,0,0,0,1.3-1.1,1.4,1.4,0,0,0-1.2-1.4c-2.2-.2-4.5-.4-6.8-.7a1.26,1.26,0,0,0-.3,2.5C224.7,491.65,227,491.85,229.3,492.05Z" transform="translate(-7 -7.05)"/><path class="cls-11" d="M272,490.65a1.32,1.32,0,0,0-1.4-1.2c-2.2.2-4.5.4-6.8.5a1.4,1.4,0,0,0-1.2,1.4,1.3,1.3,0,0,0,1.3,1.2c2.4-.1,4.7-.3,6.9-.5A1.32,1.32,0,0,0,272,490.65Z" transform="translate(-7 -7.05)"/><path class="cls-11" d="M243.2,492.85a1.41,1.41,0,0,0,1.4-1.3,1.32,1.32,0,0,0-1.3-1.3l-6.9-.3a1.3,1.3,0,0,0-.2,2.6Z" transform="translate(-7 -7.05)"/><path class="cls-11" d="M257,492.85a1.26,1.26,0,0,0,1.3-1.3,1.21,1.21,0,0,0-1.3-1.3c-2.3.1-4.6.1-6.9.1a1.3,1.3,0,1,0,0,2.6C252.4,493,254.7,493,257,492.85Z" transform="translate(-7 -7.05)"/><path class="cls-11" d="M412.3,429.05a1.43,1.43,0,0,0,1,.4,1.4,1.4,0,0,0,.9-.3c1.6-1.6,3.3-3.2,5-4.8a1.27,1.27,0,0,0-1.8-1.8c-1.6,1.6-3.3,3.2-5,4.7A1.27,1.27,0,0,0,412.3,429.05Z" transform="translate(-7 -7.05)"/><path class="cls-11" d="M125,44.45c.3,0,.5-.1.7-.1,1.9-1.2,3.9-2.4,5.9-3.5a1.32,1.32,0,0,0-1.3-2.3c-2,1.1-4,2.3-6,3.5a1.3,1.3,0,0,0-.4,1.8A1.25,1.25,0,0,0,125,44.45Z" transform="translate(-7 -7.05)"/><path class="cls-11" d="M8.3,251.55a1.35,1.35,0,0,0,1.3-1.4V250c0-2.2,0-4.4.1-6.6a1.3,1.3,0,0,0-2.6,0c-.1,2.2-.1,4.5-.1,6.7v.2A1.32,1.32,0,0,0,8.3,251.55Z" transform="translate(-7 -7.05)"/><path class="cls-11" d="M149.3,31.55a1,1,0,0,0,.4-.1c2.1-1,4.2-1.9,6.3-2.8a1.3,1.3,0,1,0-1-2.4c-2.1.9-4.2,1.8-6.3,2.8a1.32,1.32,0,0,0-.6,1.7A1.3,1.3,0,0,0,149.3,31.55Z" transform="translate(-7 -7.05)"/><path class="cls-11" d="M242.8,9.75c2.3-.1,4.6-.1,6.9-.1a1.3,1.3,0,1,0,0-2.6c-2.3,0-4.6,0-6.9.1a1.26,1.26,0,0,0-1.3,1.3A1.32,1.32,0,0,0,242.8,9.75Z" transform="translate(-7 -7.05)"/><path class="cls-11" d="M102.3,60c.3,0,.6,0,.7-.3,1.8-1.4,3.7-2.8,5.5-4.1a1.29,1.29,0,1,0-1.5-2.1c-1.8,1.4-3.7,2.8-5.5,4.2a1.36,1.36,0,0,0-.2,1.8A1.23,1.23,0,0,0,102.3,60Z" transform="translate(-7 -7.05)"/><path class="cls-11" d="M91.6,68.75a1.14,1.14,0,0,0,.8-.3c1.7-1.5,3.4-3,5.2-4.4a1.28,1.28,0,0,0-1.6-2c-1.8,1.5-3.6,3-5.3,4.5a1.27,1.27,0,0,0-.1,1.8A1.78,1.78,0,0,0,91.6,68.75Z" transform="translate(-7 -7.05)"/><path class="cls-11" d="M113.5,51.85a1,1,0,0,0,.7-.2c1.9-1.3,3.8-2.6,5.7-3.8a1.3,1.3,0,1,0-1.4-2.2c-2,1.2-3.9,2.5-5.8,3.8a1.28,1.28,0,0,0-.3,1.8A1.38,1.38,0,0,0,113.5,51.85Z" transform="translate(-7 -7.05)"/><path class="cls-11" d="M215.3,12.15a.31.31,0,0,0,.2-.1l6.8-.9a1.26,1.26,0,1,0-.3-2.5l-6.9.9a1.34,1.34,0,0,0-1.1,1.5A1.38,1.38,0,0,0,215.3,12.15Z" transform="translate(-7 -7.05)"/><path class="cls-11" d="M162,26.15c.2,0,.3,0,.4-.1,2.1-.8,4.3-1.6,6.4-2.4a1.26,1.26,0,0,0-.8-2.4c-2.2.7-4.4,1.6-6.5,2.4a1.33,1.33,0,0,0-.7,1.7A1.3,1.3,0,0,0,162,26.15Z" transform="translate(-7 -7.05)"/><path class="cls-11" d="M229,10.55h.2c2.2-.2,4.5-.4,6.8-.5a1.4,1.4,0,0,0,1.2-1.4,1.4,1.4,0,0,0-1.4-1.2c-2.3.1-4.6.3-6.9.5a1.32,1.32,0,0,0-1.2,1.4A1.3,1.3,0,0,0,229,10.55Z" transform="translate(-7 -7.05)"/><path class="cls-11" d="M201.7,14.45c.1,0,.1,0,.2.1,2.2-.5,4.4-.9,6.7-1.3a1.27,1.27,0,0,0,1.1-1.5,1.34,1.34,0,0,0-1.5-1.1c-2.3.4-4.6.8-6.8,1.3a1.27,1.27,0,0,0-1,1.5A1.38,1.38,0,0,0,201.7,14.45Z" transform="translate(-7 -7.05)"/><path class="cls-11" d="M188.2,17.55c.1,0,.3,0,.2-.1,2.2-.6,4.5-1.2,6.7-1.7a1.27,1.27,0,0,0-.5-2.5c-2.2.5-4.5,1.1-6.7,1.7a1.28,1.28,0,0,0-.9,1.6A1.19,1.19,0,0,0,188.2,17.55Z" transform="translate(-7 -7.05)"/><path class="cls-11" d="M175,21.45c.1,0,.3,0,.3-.1,2.2-.7,4.4-1.4,6.6-2a1.3,1.3,0,0,0-.7-2.5L174.6,19a1.23,1.23,0,0,0-.8,1.6A1.26,1.26,0,0,0,175,21.45Z" transform="translate(-7 -7.05)"/><path class="cls-11" d="M137,37.65a1.42,1.42,0,0,0,.6-.2c2-1.1,4.1-2.1,6.1-3.1a1.27,1.27,0,0,0-1.1-2.3c-2.1,1.1-4.2,2.1-6.2,3.2a1.28,1.28,0,0,0-.5,1.7A1.08,1.08,0,0,0,137,37.65Z" transform="translate(-7 -7.05)"/><path class="cls-11" d="M32.4,144.65a1.27,1.27,0,0,0,.6.1,1.08,1.08,0,0,0,1.1-.7c1-2,2-4.1,3.1-6.1a1.25,1.25,0,0,0-2.2-1.2c-1.1,2-2.2,4.1-3.2,6.2A1.32,1.32,0,0,0,32.4,144.65Z" transform="translate(-7 -7.05)"/><path class="cls-11" d="M38.9,132.35a1.42,1.42,0,0,0,.6.2,1.27,1.27,0,0,0,1.1-.7c1.2-2,2.3-4,3.5-5.9a1.3,1.3,0,1,0-2.2-1.4c-1.2,2-2.4,4-3.5,6A1.41,1.41,0,0,0,38.9,132.35Z" transform="translate(-7 -7.05)"/><path class="cls-11" d="M26.8,157.25a.9.9,0,0,0,.5.1,1.17,1.17,0,0,0,1.1-.8c.9-2.1,1.9-4.2,2.8-6.3a1.27,1.27,0,0,0-2.3-1.1c-1,2.1-1.9,4.3-2.8,6.4A1.25,1.25,0,0,0,26.8,157.25Z" transform="translate(-7 -7.05)"/><path class="cls-11" d="M21.8,170.15a.6.6,0,0,0,.4.1,1.18,1.18,0,0,0,1.2-.7c.8-2.2,1.6-4.4,2.4-6.5a1.3,1.3,0,1,0-2.4-1c-.8,2.1-1.6,4.3-2.4,6.5A1.27,1.27,0,0,0,21.8,170.15Z" transform="translate(-7 -7.05)"/><path class="cls-11" d="M45.9,120.55a1.85,1.85,0,0,0,.7.2,1.1,1.1,0,0,0,1-.6c1.2-1.9,2.5-3.8,3.8-5.7a1.29,1.29,0,1,0-2.1-1.5c-1.3,1.9-2.5,3.9-3.8,5.8A1.3,1.3,0,0,0,45.9,120.55Z" transform="translate(-7 -7.05)"/><path class="cls-11" d="M17.6,183.35a.76.76,0,0,0,.4.1,1,1,0,0,0,1.1-.9c.6-2.2,1.3-4.4,2-6.6a1.26,1.26,0,1,0-2.4-.8c-.7,2.2-1.4,4.4-2,6.6A1.28,1.28,0,0,0,17.6,183.35Z" transform="translate(-7 -7.05)"/><path class="cls-11" d="M8.7,237.75a1.32,1.32,0,0,0,1.3-1.3c.2-2.2.3-4.5.5-6.8a1.4,1.4,0,0,0-1.2-1.4,1.4,1.4,0,0,0-1.4,1.2c-.2,2.3-.4,4.6-.5,6.9A1.34,1.34,0,0,0,8.7,237.75Z" transform="translate(-7 -7.05)"/><path class="cls-11" d="M11.6,210.35h.2a1.2,1.2,0,0,0,1.2-1.1c.4-2.2.9-4.5,1.3-6.7a1.2,1.2,0,0,0-1-1.5,1.27,1.27,0,0,0-1.5,1c-.5,2.2-.9,4.5-1.3,6.8A1.34,1.34,0,0,0,11.6,210.35Z" transform="translate(-7 -7.05)"/><path class="cls-11" d="M81.5,78.05a.91.91,0,0,0,.8-.4c1.6-1.6,3.3-3.2,5-4.7a1.27,1.27,0,1,0-1.7-1.9c-1.7,1.6-3.4,3.2-5,4.8a1.27,1.27,0,0,0,0,1.8A1.09,1.09,0,0,0,81.5,78.05Z" transform="translate(-7 -7.05)"/><path class="cls-11" d="M9.8,224h.1a1.6,1.6,0,0,0,1.4-1.1c.3-2.3.6-4.5.9-6.8a1.32,1.32,0,0,0-2.6-.4l-.9,6.9A1.24,1.24,0,0,0,9.8,224Z" transform="translate(-7 -7.05)"/><path class="cls-11" d="M54.4,109.35a1.23,1.23,0,0,0,1-.5c1.3-1.9,2.7-3.7,4.1-5.5a1.28,1.28,0,0,0-2-1.6c-1.4,1.9-2.8,3.7-4.2,5.6a1.28,1.28,0,0,0,.3,1.8A2.35,2.35,0,0,0,54.4,109.35Z" transform="translate(-7 -7.05)"/><path class="cls-11" d="M62.8,98.45a1.53,1.53,0,0,0,1-.4c1.4-1.8,2.9-3.6,4.4-5.3a1.27,1.27,0,1,0-1.9-1.7c-1.5,1.7-3.1,3.5-4.5,5.3a1.28,1.28,0,0,0,.2,1.8A1.14,1.14,0,0,0,62.8,98.45Z" transform="translate(-7 -7.05)"/><path class="cls-11" d="M71.9,88a1.4,1.4,0,0,0,.9-.3c1.5-1.7,3.1-3.4,4.7-5a1.27,1.27,0,0,0-1.8-1.8c-1.6,1.6-3.2,3.3-4.8,5a1.27,1.27,0,0,0,.1,1.8A1.61,1.61,0,0,0,71.9,88Z" transform="translate(-7 -7.05)"/><path class="cls-11" d="M462.5,137.55a1.08,1.08,0,0,0,1.1.7,2.54,2.54,0,0,0,.7-.2,1.28,1.28,0,0,0,.5-1.7c-1.1-2.1-2.2-4.1-3.3-6.1a1.32,1.32,0,1,0-2.3,1.3Z" transform="translate(-7 -7.05)"/><path class="cls-11" d="M455.7,125.65a1.25,1.25,0,0,0,1.1.6c.3,0,.5-.1.8-.1a1.3,1.3,0,0,0,.4-1.8c-1.2-2-2.5-4-3.7-5.9a1.3,1.3,0,1,0-2.2,1.4C453.3,121.75,454.5,123.75,455.7,125.65Z" transform="translate(-7 -7.05)"/><path class="cls-11" d="M448.3,114.05a1.38,1.38,0,0,0,1.1.6,1.85,1.85,0,0,0,.7-.2,1.28,1.28,0,0,0,.3-1.8c-1.3-1.9-2.6-3.8-4-5.7a1.29,1.29,0,1,0-2.1,1.5C445.7,110.25,447,112.15,448.3,114.05Z" transform="translate(-7 -7.05)"/><path class="cls-11" d="M491.2,234.35a1.4,1.4,0,0,0-1.2,1.4l.3,6.9a1.32,1.32,0,0,0,1.3,1.3,1.38,1.38,0,0,0,1.3-1.5l-.3-6.9A1.32,1.32,0,0,0,491.2,234.35Z" transform="translate(-7 -7.05)"/><path class="cls-11" d="M468.5,149.75a1.3,1.3,0,0,0,1.2.8.73.73,0,0,0,.6-.2,1.32,1.32,0,0,0,.6-1.7c-1-2-2-4.1-3-6.2a1.27,1.27,0,0,0-2.3,1.1C466.6,145.65,467.6,147.65,468.5,149.75Z" transform="translate(-7 -7.05)"/><path class="cls-11" d="M431.5,92.45a1.78,1.78,0,0,0,1,.4,1.88,1.88,0,0,0,.8-.2,1.27,1.27,0,0,0,.1-1.8c-1.5-1.8-3-3.5-4.6-5.2a1.27,1.27,0,0,0-1.9,1.7C428.5,89.05,430,90.75,431.5,92.45Z" transform="translate(-7 -7.05)"/><path class="cls-11" d="M422.2,82.35a1.09,1.09,0,0,0,.9.4,1.9,1.9,0,0,0,.9-.3,1.27,1.27,0,0,0,0-1.8c-1.6-1.7-3.3-3.3-4.9-4.9a1.27,1.27,0,0,0-1.8,1.8C419,79.05,420.6,80.75,422.2,82.35Z" transform="translate(-7 -7.05)"/><path class="cls-11" d="M440.2,103.05a1.23,1.23,0,0,0,1,.5,1.14,1.14,0,0,0,.8-.3,1.36,1.36,0,0,0,.2-1.8c-1.4-1.8-2.8-3.6-4.3-5.4a1.28,1.28,0,0,0-2,1.6C437.4,99.45,438.8,101.25,440.2,103.05Z" transform="translate(-7 -7.05)"/><path class="cls-11" d="M486.8,208.55c.4,2.3.8,4.5,1.1,6.8a1.38,1.38,0,0,0,1.3,1.1h.1a1.34,1.34,0,0,0,1.1-1.5c-.3-2.3-.7-4.6-1.1-6.9a1.27,1.27,0,0,0-2.5.5Z" transform="translate(-7 -7.05)"/><path class="cls-11" d="M484,195.15c.6,2.2,1,4.5,1.5,6.7a1.38,1.38,0,0,0,1.3,1c.1,0,.2,0,.2.1a1.27,1.27,0,0,0,1-1.5c-.5-2.3-1-4.5-1.5-6.8a1.27,1.27,0,0,0-2.5.5Z" transform="translate(-7 -7.05)"/><path class="cls-11" d="M473.9,162.45a1.3,1.3,0,0,0,1.2.8c.2,0,.3-.1.5,0a1.33,1.33,0,0,0,.7-1.7c-.8-2.1-1.7-4.3-2.6-6.4a1.3,1.3,0,0,0-2.4,1C472.2,158.25,473.1,160.35,473.9,162.45Z" transform="translate(-7 -7.05)"/><path class="cls-11" d="M488.8,222.15c.3,2.2.5,4.5.7,6.8a1.3,1.3,0,0,0,1.3,1.2,1.32,1.32,0,0,0,1.2-1.4c-.2-2.3-.4-4.6-.7-6.9a1.26,1.26,0,1,0-2.5.3Z" transform="translate(-7 -7.05)"/><path class="cls-11" d="M476.4,168.75c.7,2.2,1.5,4.3,2.2,6.5a1.26,1.26,0,0,0,1.2.9,1.34,1.34,0,0,0,.5-.1,1.23,1.23,0,0,0,.8-1.6c-.7-2.2-1.4-4.4-2.2-6.6a1.33,1.33,0,0,0-2.5.9Z" transform="translate(-7 -7.05)"/><path class="cls-11" d="M480.7,181.85l1.8,6.6a1.19,1.19,0,0,0,1.2,1h.5a1.28,1.28,0,0,0,.9-1.6c-.6-2.3-1.3-4.5-1.9-6.7a1.3,1.3,0,1,0-2.5.7Z" transform="translate(-7 -7.05)"/><path class="cls-11" d="M256.6,9.65l6.9.3a1.22,1.22,0,0,0,1.2-1.2,1.22,1.22,0,0,0-1.2-1.4l-6.9-.3a1.3,1.3,0,0,0,0,2.6Z" transform="translate(-7 -7.05)"/><path class="cls-11" d="M310.8,17.35c2.2.5,4.4,1.2,6.6,1.8a.76.76,0,0,0,.4.1,1.6,1.6,0,0,0,1.3-1,1.28,1.28,0,0,0-.9-1.6l-6.7-1.8a1.3,1.3,0,1,0-.7,2.5Z" transform="translate(-7 -7.05)"/><path class="cls-11" d="M324,21.25c2.2.7,4.4,1.4,6.5,2.2a.6.6,0,0,0,.4.1,1.68,1.68,0,0,0,1.3-.9,1.27,1.27,0,0,0-.8-1.6c-2.2-.7-4.4-1.5-6.6-2.2a1.26,1.26,0,0,0-.8,2.4Z" transform="translate(-7 -7.05)"/><path class="cls-11" d="M412.3,72.75a1.61,1.61,0,0,0,.9.3,1.25,1.25,0,0,0,.9-2.2c-1.7-1.5-3.4-3.1-5.2-4.6a1.27,1.27,0,1,0-1.7,1.9C408.9,69.65,410.6,71.25,412.3,72.75Z" transform="translate(-7 -7.05)"/><path class="cls-11" d="M283.9,12c2.3.4,4.6.7,6.8,1.1h.2a1.57,1.57,0,0,0,1.4-1.1,1.34,1.34,0,0,0-1.1-1.5c-2.3-.4-4.6-.8-6.9-1.1a1.32,1.32,0,1,0-.4,2.6Z" transform="translate(-7 -7.05)"/><path class="cls-11" d="M270.3,10.45c2.2.2,4.5.4,6.8.7h.1a1.3,1.3,0,0,0,1.3-1.2,1.24,1.24,0,0,0-1.1-1.4c-2.3-.3-4.6-.5-6.9-.7a1.4,1.4,0,0,0-1.4,1.2A1.4,1.4,0,0,0,270.3,10.45Z" transform="translate(-7 -7.05)"/><path class="cls-11" d="M336.9,25.85c2.1.8,4.3,1.7,6.4,2.6a.9.9,0,0,0,.5.1,1.3,1.3,0,0,0,1.2-.8,1.25,1.25,0,0,0-.7-1.7c-2.1-.9-4.3-1.8-6.4-2.6a1.3,1.3,0,1,0-1,2.4Z" transform="translate(-7 -7.05)"/><path class="cls-11" d="M297.4,14.35c2.2.4,4.5.9,6.7,1.4h.3a1.42,1.42,0,0,0,1.3-.9,1.39,1.39,0,0,0-1-1.5c-2.3-.6-4.5-1-6.8-1.5a1.2,1.2,0,0,0-1.5,1A1.2,1.2,0,0,0,297.4,14.35Z" transform="translate(-7 -7.05)"/><path class="cls-11" d="M391.1,55.45a2.35,2.35,0,0,0,.8.2,1.61,1.61,0,0,0,1.1-.5,1.28,1.28,0,0,0-.3-1.8c-1.9-1.3-3.8-2.7-5.7-4a1.29,1.29,0,0,0-1.5,2.1C387.4,52.75,389.3,54.15,391.1,55.45Z" transform="translate(-7 -7.05)"/><path class="cls-11" d="M402,63.75a1.14,1.14,0,0,0,.8.3,1.39,1.39,0,0,0,1-.5,1.28,1.28,0,0,0-.2-1.8c-1.7-1.4-3.6-2.9-5.4-4.3a1.28,1.28,0,1,0-1.6,2C398.4,60.85,400.2,62.35,402,63.75Z" transform="translate(-7 -7.05)"/><path class="cls-11" d="M362,37.15l6,3.3a1.3,1.3,0,0,0,1.8-.4,1.41,1.41,0,0,0-.5-1.8c-2-1.1-4.1-2.2-6.1-3.3a1.25,1.25,0,1,0-1.2,2.2Z" transform="translate(-7 -7.05)"/><path class="cls-11" d="M349.6,31.25c2,.9,4.1,1.9,6.2,2.9a1.27,1.27,0,0,0,.6.1,1.74,1.74,0,0,0,1.2-.6A1.32,1.32,0,0,0,357,32l-6.3-3a1.27,1.27,0,0,0-1.1,2.3Z" transform="translate(-7 -7.05)"/><path class="cls-11" d="M374,44.05c1.9,1.1,3.9,2.4,5.8,3.6a1.85,1.85,0,0,0,.7.2,2.08,2.08,0,0,0,1.2-.5,1.3,1.3,0,0,0-.4-1.8c-2-1.3-3.9-2.5-5.9-3.7a1.3,1.3,0,1,0-1.4,2.2Z" transform="translate(-7 -7.05)"/></svg>