<svg xmlns="http://www.w3.org/2000/svg" viewBox="0 0 350 482"><defs><style>.cls-1{isolation:isolate;}.cls-2,.cls-3{fill:#446179;}.cls-3{opacity:0.4;}.cls-25,.cls-3,.cls-31,.cls-35{mix-blend-mode:multiply;}.cls-4,.cls-5{fill:#f8ce7a;}.cls-4{opacity:0.05;}.cls-31,.cls-5{opacity:0.1;}.cls-6{fill:#bea986;}.cls-7{fill:#273238;}.cls-8{fill:#5b7580;}.cls-9{fill:#9f9e9f;}.cls-10{fill:#38474f;}.cls-11{fill:#536d78;}.cls-12,.cls-35{opacity:0.2;}.cls-13{fill:#fdfbe7;}.cls-14,.cls-34{fill:#f5a32f;}.cls-14,.cls-25{opacity:0.3;}.cls-15{fill:#0f68ac;}.cls-16{opacity:0.6;}.cls-17{fill:#1796c5;}.cls-18{fill:#78cadf;}.cls-19{fill:#21abd8;}.cls-20{fill:#fff;}.cls-21{fill:#afbcc3;}.cls-22{fill:#3a3b3b;}.cls-23,.cls-35{fill:#434242;}.cls-24,.cls-25{fill:#5f7b89;}.cls-26{fill:#f49f31;}.cls-27{fill:#f6b250;}.cls-28{fill:#5c4037;}.cls-29{fill:#757575;}.cls-30{fill:#1f272c;}.cls-32{fill:#698592;}.cls-33{fill:#bdbdbd;}.cls-36{fill:#d6b350;}.cls-37{font-size:30px;}.cls-37,.cls-39{fill:#231916;font-family:NotoSansKR-Bold-KSCpc-EUC-H, Noto Sans KR;}.cls-38{font-size:21px;fill:#828182;font-family:NotoSansKR-Medium-KSCpc-EUC-H, Noto Sans KR;}.cls-39{font-size:18px;}</style></defs><title>Artboard 24 copy 9</title><g class="cls-1"><g id="레이어_1" data-name="레이어 1"><rect class="cls-2" y="0.16" width="350" height="482"/><rect class="cls-2" x="34.94" y="38.92" width="280.12" height="286.25"/><path class="cls-3" d="M112,266.8H238a107.08,107.08,0,0,0,41.15-84.75C279.17,123.26,232.53,75.6,175,75.6S70.83,123.26,70.83,182.05A107.08,107.08,0,0,0,112,266.8Z"/><ellipse class="cls-4" cx="124.37" cy="169.21" rx="65.91" ry="58.76"/><ellipse class="cls-5" cx="124.37" cy="169.21" rx="47.5" ry="42.35"/><polygon class="cls-6" points="225.07 78.28 224.37 78.28 224.37 63.61 284.76 63.61 284.76 38.92 285.46 38.92 285.46 64.33 225.07 64.33 225.07 78.28"/><polygon class="cls-6" points="139.73 88.21 139.03 88.21 139.03 50.73 34.94 50.73 34.94 50.01 139.73 50.01 139.73 88.21"/><polygon class="cls-6" points="107.77 137.08 65.83 137.08 65.83 38.92 66.53 38.92 66.53 136.37 107.77 136.37 107.77 137.08"/><polygon class="cls-6" points="46.73 223.91 34.94 223.91 34.94 223.19 46.03 223.19 46.03 153.83 91.37 153.83 91.37 154.54 46.73 154.54 46.73 223.91"/><polygon class="cls-6" points="94.06 255.52 34.94 255.52 34.94 254.81 93.36 254.81 93.36 212.87 94.06 212.87 94.06 255.52"/><polygon class="cls-6" points="299.54 131.12 245.34 131.12 245.34 130.4 298.83 130.4 298.83 86.39 315.06 86.39 315.06 87.11 299.54 87.11 299.54 131.12"/><polygon class="cls-6" points="315.06 186.85 304.2 186.85 304.2 149.49 225.05 149.49 225.05 148.77 304.9 148.77 304.9 186.13 315.06 186.13 315.06 186.85"/><polygon class="cls-6" points="296.97 238.89 270.06 238.89 270.06 238.18 296.27 238.18 296.27 218.48 315.06 218.48 315.06 219.19 296.97 219.19 296.97 238.89"/><polygon class="cls-6" points="51.05 118.91 34.94 118.91 34.94 118.19 50.35 118.19 50.35 78.99 34.94 78.99 34.94 78.27 51.05 78.27 51.05 118.91"/><polygon class="cls-6" points="203.28 62.36 170.55 62.36 170.55 38.92 171.25 38.92 171.25 61.64 202.58 61.64 202.58 49.66 217.37 49.66 217.37 38.92 218.07 38.92 218.07 50.37 203.28 50.37 203.28 62.36"/><path class="cls-7" d="M206.93,253.23a12.14,12.14,0,0,1-6-1.7c-7.61-4.24-10-17.14-12.87-32.09-1.16-6.15-2.36-12.51-4-18.95-3.71-14.46-10.17-32.4-27.41-42.94l.53-.91c17.57,10.74,24.13,28.93,27.88,43.58,1.66,6.48,2.86,12.85,4,19,2.77,14.68,5.17,27.36,12.34,31.36,5.94,3.3,9.81.88,14.29-1.93,3.26-2,6.68-4.16,11.06-4.08l0,1.06c-4.16-.09-7.37,1.95-10.5,3.92C213.42,251.38,210.47,253.23,206.93,253.23Z"/><polygon class="cls-8" points="181.33 132.29 173.46 160.22 156.96 177.81 159.14 180.97 182.4 166.55 183.65 163.01 191.66 138.38 181.33 132.29"/><polygon class="cls-9" points="156.21 177.84 164.89 167.31 171.87 174.17 158.88 181.7 156.21 177.84"/><path class="cls-9" d="M156.21,177.84s-4.89,2.11-5.49,3.51,3.6,4.17,4.76,3.82,3.4-3.47,3.4-3.47S157.93,177.36,156.21,177.84Z"/><rect class="cls-7" x="109.92" y="180.2" width="6.36" height="3.17"/><rect class="cls-10" x="106.96" y="158.85" width="35.78" height="21.87"/><rect class="cls-11" x="106.96" y="158.85" width="35.78" height="13.97"/><path class="cls-10" d="M141,169.79a1.66,1.66,0,1,1-1.65-1.7A1.67,1.67,0,0,1,141,169.79Z"/><rect class="cls-10" x="106.96" y="165.35" width="35.78" height="0.49"/><path class="cls-10" d="M136.25,170.6a.87.87,0,1,1-.87-.88A.87.87,0,0,1,136.25,170.6Z"/><rect class="cls-7" x="141.71" y="158.85" width="0.82" height="21.87"/><g class="cls-12"><ellipse class="cls-13" cx="124.18" cy="167.1" rx="9.57" ry="8.38"/></g><ellipse class="cls-14" cx="124.18" cy="167.1" rx="13.83" ry="12.11"/><rect class="cls-10" x="142.53" y="155.99" width="3.49" height="27.59"/><path class="cls-15" d="M131,158.5c-1.92,2.91-3.83,5-4.26,4.72s.77-2.89,2.69-5.8,3.82-5,4.25-4.72S132.89,155.6,131,158.5Z"/><g class="cls-16"><path class="cls-17" d="M131.28,157.45c-1.6,2.43-3.13,4.24-3.41,4s.78-2.32,2.38-4.75,3.13-4.23,3.41-4S132.88,155,131.28,157.45Z"/></g><path class="cls-18" d="M133.28,153.28c.42.29-.9,3-3,6.21l.19-.29c2.25-3.25,3.58-6.2,3.15-6.5s-2.36,1.81-4.71,5.42l-.19.29C130.86,155.27,132.86,153,133.28,153.28Z"/><path class="cls-19" d="M131.87,156a11.52,11.52,0,0,1-2.31,2.94c-.15-.1.65-1.58,1.79-3.29a11.52,11.52,0,0,1,2.31-2.94C133.81,152.8,133,154.28,131.87,156Z"/><path class="cls-20" d="M132.63,154.85c-.72,1.08-1.41,1.88-1.56,1.78s.32-1.06,1-2.14,1.41-1.88,1.55-1.79S133.34,153.76,132.63,154.85Z"/><path class="cls-7" d="M157,158.71l-14.16-10.52a3.26,3.26,0,0,0-4.61.74l-4.63,5.62-1.55-1.15,4-6.12a6,6,0,0,1,8.44-1.37l14.17,10.53Z"/><rect class="cls-7" x="148.26" y="177.8" width="9.73" height="5.73"/><path class="cls-21" d="M278.93,266.38c0,.91-46.53,1.64-103.93,1.64s-103.93-.73-103.93-1.64,46.53-1.64,103.93-1.64S278.93,265.47,278.93,266.38Z"/><polygon class="cls-22" points="185.4 266.16 190.44 266.16 192.41 220.95 211.26 180.2 189.88 180.2 182.4 220.95 185.4 266.16"/><path class="cls-7" d="M190.56,266.15s-8.09-1.63-11.18,0C179.38,266.15,179.84,267.42,190.56,266.15Z"/><polygon class="cls-23" points="211.26 180.2 209.23 221.01 214.11 266.16 209.56 266.16 198.76 221.44 189.88 180.2 211.26 180.2"/><path class="cls-7" d="M214.11,266.15s-8.09-1.63-11.18,0C202.93,266.15,203.38,267.42,214.11,266.15Z"/><path class="cls-24" d="M190.37,121.44,179.49,128l.69,19.08,10.26,23.11-2.08,12.1H211.9s-6.28-37.82-7.82-41.25C197.52,126.41,190.37,121.44,190.37,121.44Z"/><path class="cls-25" d="M190.54,121.56l-.67-.89c-2.91,2.23-10.1,8.07-10,11.2l6.28-2.87,2.07,1.65,2.82,16.27-3.5,16.81.72,1.62h3.36l5.17-11.16,3.64,12.86s-4.52,1.58-4.41,2.16,4.87.7,4.87.7l.09,2.25s-2.66.56-2.61,1,2.72.37,2.72.37l.35,6.65-13.12,2.06H211.9s-6.28-37.82-7.82-41.25C198.1,127.71,191.64,122.4,190.54,121.56Z"/><path class="cls-26" d="M184.08,112.91a51.1,51.1,0,0,0,5.93,9.92L182.44,129s-1.61-4-3.37-7.33C180.09,120.77,182,114.63,184.08,112.91Z"/><path class="cls-27" d="M168.36,112c2.67,5.46,6.49,12.32,8.66,12,3.58-.48,9.1-5.94,8.21-9.3-2.46-9.33-5.12-15.64-9.87-15.71C174,99,162.86,100.78,168.36,112Z"/><polygon class="cls-24" points="191.08 122.27 188.19 118.44 177.86 129.19 179.91 131.87 191.08 122.27"/><path class="cls-28" d="M185.23,114.75c2.07-1.12,1.86-14.67-3.82-17.64-8.88-3-17.13,5.14-16.34,8.48.38,1.59,2.09,1.87,3.51,1.15,2.56-1.29,6.2-4.29,7.36-2.68s4.75,7.5,4.75,7.5l2.21-1.2Z"/><path class="cls-29" d="M175.22,106.1,185.7,104s-.51-6.46-3.83-7.5a12.76,12.76,0,0,0-7.06.28l-3.91,1.33a4.81,4.81,0,0,0-2.49,1.22Z"/><path class="cls-7" d="M169.53,97.77a10.71,10.71,0,0,0-5.07,3.82c-1.78,3.18,1.11,8.58,1.11,8.58s7.83,18.47,14.44,14.07C185.72,120.44,170.21,97.07,169.53,97.77Z"/><path class="cls-7" d="M180.55,107s-5.74-9.94-9.65-8.89a6.19,6.19,0,0,1,3.59-1.31s3.1-.76,8.45,8.78Z"/><path class="cls-10" d="M174.46,109.72a27.49,27.49,0,0,1,2.36,4.47l-7.7,3.9a25.15,25.15,0,0,1-2.47-4.33Z"/><path class="cls-30" d="M173.69,110.81a18.28,18.28,0,0,1,1.76,3.37l-6.13,3.14a13.18,13.18,0,0,1-1.86-3.25Z"/><g class="cls-31"><path class="cls-7" d="M175.23,109.88l-.77-.16a27.49,27.49,0,0,1,2.36,4.47l-7.29,3.69c.28.44.46.67.46.67l7.7-3.9A34.17,34.17,0,0,0,175.23,109.88Z"/></g><path class="cls-32" d="M187.94,129.7a5.76,5.76,0,0,0-3.21,4.72l-1.67,19.13-24-.92-1,5.17,28.52,7.91,4.24-2.07L195.83,140a10.61,10.61,0,0,0-1.81-8.48l-.26-.36A4.67,4.67,0,0,0,187.94,129.7Z"/><polygon class="cls-33" points="176.09 152.48 174.59 163.8 157.99 157.8 158.96 151.85 176.09 152.48"/><rect class="cls-7" x="101.65" y="189.02" width="62.56" height="77.78"/><polygon class="cls-10" points="132.29 151.35 135.47 153.57 133.41 155.78 131.13 154.19 132.29 151.35"/><path class="cls-7" d="M186.25,106.22,177,111.49l-.88-2.41,9.82-5.64A4.81,4.81,0,0,1,186.25,106.22Z"/><path class="cls-27" d="M185.73,108.83a3.33,3.33,0,0,1-1.43,4c-1.09.41-1.9-.82-2.51-2.48s-.23-3.36.86-3.78S185.12,107.17,185.73,108.83Z"/><path class="cls-26" d="M184.78,109.2a1.73,1.73,0,0,1-.74,2.07c-.56.21-1-.42-1.3-1.29s-.12-1.74.44-2S184.46,108.33,184.78,109.2Z"/><g class="cls-31"><path class="cls-7" d="M169.53,97.77a8.18,8.18,0,0,0-2.93,1.58c1.53.76,15,19.91,12.28,25.41a4,4,0,0,0,1.13-.52C185.72,120.44,170.21,97.07,169.53,97.77Z"/></g><path class="cls-34" d="M128.9,168l7.26-.35L129,165.06h0l13-9.3-14.7,5.65.83-7.77-3.6,6.89h0l-6.62-14.63,2.82,15.75-14.51-6.32,12.71,10-6.58,3.18,7.18-.44-9.39,12.84,11.63-9.54v8.78l2.52-8.38,2.88,5.94-.49-6.42,10.47,10.43Z"/><polygon class="cls-13" points="126.31 166.74 129.71 166.57 126.33 165.37 126.33 165.37 132.41 161.01 125.52 163.66 125.91 160.01 124.22 163.25 124.23 163.25 124.22 163.25 121.12 156.39 122.44 163.78 115.64 160.81 121.59 165.49 118.51 166.98 121.87 166.78 117.47 172.79 122.92 168.32 122.92 172.44 124.11 168.51 125.45 171.29 125.23 168.29 130.13 173.17 126.31 166.74"/><rect class="cls-11" x="143.16" y="155.99" width="1.66" height="24.69"/><rect class="cls-10" x="98.56" y="183.37" width="68.48" height="6.24"/><path class="cls-34" d="M98.56,183.37H167S121.12,184.38,98.56,183.37Z"/><path class="cls-9" d="M149.22,152s-2.67,2.95-2.07,4.08,2.88-1.41,2.88-1.41Z"/><path class="cls-9" d="M150,154.19s-2.83,2.89-1.93,4.25,2.87-1.8,2.87-1.8Z"/><path class="cls-9" d="M150.67,156.37s-2.23,3.25-1.22,3.85,2.38-1.51,2.38-1.51Z"/><path class="cls-9" d="M151.4,158.35s-1.46,2.16-.43,2.86,2.07-1.43,2.07-1.43Z"/><path class="cls-33" d="M159,151.86s-7.38-1.15-9.53,0,1.72,8.2,3,8.46S158,157.8,158,157.8C158.76,155.61,159.5,154.29,159,151.86Z"/><path class="cls-28" d="M186.43,110.17s.93,3.2,2.59,1.82a2.07,2.07,0,0,1-1.49,2.15,1.38,1.38,0,0,0,1.32.61s-2.2,2.41-3.62,0Z"/><polygon class="cls-7" points="223.89 250.55 226.3 251.24 226.3 247.81 223.89 248.5 223.89 250.55"/><path class="cls-7" d="M228.06,264s.43,2.87,1,2.87,1.48-2.87,1.48-2.87Z"/><path class="cls-7" d="M257.6,264s-.43,2.87-1,2.87-1.48-2.87-1.48-2.87Z"/><path class="cls-7" d="M250.58,244a1.74,1.74,0,0,1-1.72-1.76v-3.4a.72.72,0,0,0-.71-.73H237.59a.72.72,0,0,0-.71.73v3.4a1.72,1.72,0,1,1-3.43,0v-3.4a4.2,4.2,0,0,1,4.14-4.24h10.56a4.2,4.2,0,0,1,4.15,4.24v3.4A1.74,1.74,0,0,1,250.58,244Z"/><rect class="cls-10" x="225.78" y="241.37" width="34.18" height="23.08"/><rect class="cls-7" x="225.05" y="255.16" width="0.73" height="0.66"/><rect class="cls-7" x="225.05" y="256.68" width="0.73" height="0.66"/><rect class="cls-7" x="225.05" y="258.21" width="0.73" height="0.66"/><rect class="cls-7" x="225.05" y="259.73" width="0.73" height="0.66"/><rect class="cls-7" x="234.18" y="245.2" width="8.89" height="0.66"/><rect class="cls-7" x="234.18" y="246.72" width="8.89" height="0.66"/><rect class="cls-7" x="234.18" y="248.24" width="8.89" height="0.66"/><rect class="cls-7" x="234.18" y="249.76" width="8.89" height="0.66"/><rect class="cls-7" x="245.34" y="245.2" width="8.89" height="0.66"/><rect class="cls-7" x="245.34" y="246.72" width="8.89" height="0.66"/><rect class="cls-7" x="245.34" y="248.24" width="8.89" height="0.66"/><rect class="cls-7" x="245.34" y="249.76" width="8.89" height="0.66"/><polygon class="cls-35" points="190.32 182.27 192.03 190.2 210.76 190.2 211.16 182.27 190.32 182.27"/><path class="cls-36" d="M248,77.7h.84l-.92,8H247l-.83-5.9-.89,5.9h-.88l-1-8h.85l.67,6.12.89-6.12h.75l.91,6.12Z"/><path class="cls-36" d="M249.8,77.7h2.34v.78h-1.42v2.73h1.34V82h-1.34v2.92h1.44v.78H249.8Z"/><path class="cls-36" d="M253.23,77.7h.92v7.21h1.44v.78h-2.36Z"/><path class="cls-36" d="M256.39,77.7h1.47a1.32,1.32,0,0,1,1.24.56,3.22,3.22,0,0,1,.33,1.61v3.51a3.29,3.29,0,0,1-.37,1.77,1.4,1.4,0,0,1-1.24.54h-1.44Zm2.13,2.14a2.34,2.34,0,0,0-.18-1.07.58.58,0,0,0-.56-.33h-.48v6.49h.48a.64.64,0,0,0,.41-.11c.22-.15.33-.59.33-1.3Z"/><path class="cls-36" d="M260.61,77.7H263v.78h-1.42v2.73h1.34V82h-1.34v2.92H263v.78h-2.36Z"/><path class="cls-36" d="M264,77.7h1.64a1.39,1.39,0,0,1,1,.29,1.52,1.52,0,0,1,.37,1c0,.2,0,.5,0,.91a2.79,2.79,0,0,1-.16,1,.82.82,0,0,1-.56.54.62.62,0,0,1,.45.32,2.31,2.31,0,0,1,.21.85c0,.38.06,1,.06,1.72a7.1,7.1,0,0,0,.07,1.33h-.91a21.15,21.15,0,0,1-.07-2.69c0-.58-.06-.91-.17-1a.75.75,0,0,0-.49-.14l-.55,0v3.86H264Zm2.13,2c0-.61-.06-1-.16-1.06a.68.68,0,0,0-.47-.15H265v2.7h.59a.62.62,0,0,0,.39-.11.65.65,0,0,0,.17-.4,5,5,0,0,0,.06-.92Z"/><path class="cls-36" d="M94.06,65h.84L94,73h-.91l-.84-5.9L91.35,73h-.89l-1-8h.85l.66,6.13L91.83,65h.75l.92,6.13Z"/><path class="cls-36" d="M95.83,65h2.33v.79H96.75v2.73h1.34v.78H96.75v2.92h1.43V73H95.83Z"/><path class="cls-36" d="M99.25,65h.92v7.22h1.45V73H99.25Z"/><path class="cls-36" d="M102.41,65h1.47a1.33,1.33,0,0,1,1.24.57,3.11,3.11,0,0,1,.34,1.61v3.51a3.2,3.2,0,0,1-.37,1.77,1.39,1.39,0,0,1-1.24.54h-1.44Zm2.13,2.15a2.48,2.48,0,0,0-.17-1.07.6.6,0,0,0-.57-.33h-.47v6.49h.47a.72.72,0,0,0,.42-.11c.21-.16.32-.59.32-1.3Z"/><path class="cls-36" d="M106.64,65H109v.79h-1.41v2.73h1.34v.78h-1.34v2.92H109V73h-2.35Z"/><path class="cls-36" d="M110.06,65h1.64a1.42,1.42,0,0,1,1,.3,1.57,1.57,0,0,1,.37,1c0,.2,0,.5,0,.91a3,3,0,0,1-.15,1,.86.86,0,0,1-.56.54.62.62,0,0,1,.44.32,2.5,2.5,0,0,1,.22.84c0,.39.06,1,.06,1.73a6.25,6.25,0,0,0,.07,1.33h-.92a23.88,23.88,0,0,1-.07-2.69c0-.58,0-.91-.16-1a.78.78,0,0,0-.5-.14l-.55,0V73h-.92Zm2.13,2c0-.61,0-1-.16-1.06a.66.66,0,0,0-.47-.15H111v2.7h.59a.59.59,0,0,0,.39-.11.71.71,0,0,0,.18-.4,6.45,6.45,0,0,0,0-.92Z"/><path class="cls-36" d="M66.06,178.36h.85l-.93,8h-.91l-.83-5.9-.89,5.9h-.89l-1-8h.85l.67,6.13.89-6.13h.75l.91,6.13Z"/><path class="cls-36" d="M67.83,178.36h2.34v.78H68.75v2.73h1.34v.79H68.75v2.91h1.43v.78H67.83Z"/><path class="cls-36" d="M71.25,178.36h.92v7.22h1.45v.77H71.25Z"/><path class="cls-36" d="M74.42,178.36h1.47a1.31,1.31,0,0,1,1.23.56,3.14,3.14,0,0,1,.34,1.61V184a3.3,3.3,0,0,1-.36,1.77,1.4,1.4,0,0,1-1.24.54H74.42Zm2.12,2.15a2.41,2.41,0,0,0-.17-1.08.58.58,0,0,0-.57-.33h-.47v6.49h.47a.73.73,0,0,0,.42-.1c.22-.16.32-.6.32-1.3Z"/><path class="cls-36" d="M78.64,178.36H81v.78H79.56v2.73H80.9v.79H79.56v2.91H81v.78H78.64Z"/><path class="cls-36" d="M82.07,178.36h1.64a1.44,1.44,0,0,1,1,.29,1.58,1.58,0,0,1,.37,1q0,.28,0,.9a3.11,3.11,0,0,1-.16,1,.84.84,0,0,1-.56.54.59.59,0,0,1,.44.31,2.1,2.1,0,0,1,.22.85c0,.38.06,1,.06,1.72a6.19,6.19,0,0,0,.07,1.33h-.91a19.75,19.75,0,0,1-.08-2.69c0-.57,0-.91-.16-1a.78.78,0,0,0-.5-.14l-.54,0v3.86h-.92Zm2.12,2c0-.62,0-1-.16-1.07a.66.66,0,0,0-.47-.15H83v2.7h.58a.59.59,0,0,0,.39-.1.62.62,0,0,0,.18-.4,5.43,5.43,0,0,0,0-.93Z"/><path class="cls-36" d="M267.82,168.56h.84l-.93,8h-.91l-.83-5.9-.89,5.9h-.89l-1-8H264l.67,6.13.89-6.13h.75l.91,6.13Z"/><path class="cls-36" d="M269.58,168.56h2.34v.78H270.5v2.74h1.34v.78H270.5v2.92h1.44v.78h-2.36Z"/><path class="cls-36" d="M273,168.56h.92v7.22h1.44v.78H273Z"/><path class="cls-36" d="M276.17,168.56h1.47a1.3,1.3,0,0,1,1.23.57,3.1,3.1,0,0,1,.34,1.6v3.52a3.29,3.29,0,0,1-.37,1.77,1.4,1.4,0,0,1-1.24.54h-1.44Zm2.13,2.15a2.39,2.39,0,0,0-.18-1.08.59.59,0,0,0-.57-.32h-.47v6.49h.47a.72.72,0,0,0,.42-.11c.22-.16.33-.59.33-1.3Z"/><path class="cls-36" d="M280.39,168.56h2.34v.78h-1.42v2.74h1.34v.78h-1.34v2.92h1.44v.78h-2.36Z"/><path class="cls-36" d="M283.82,168.56h1.64a1.39,1.39,0,0,1,1,.3,1.5,1.5,0,0,1,.37,1c0,.2,0,.5,0,.91a2.82,2.82,0,0,1-.16,1,.82.82,0,0,1-.56.54.6.6,0,0,1,.45.32,2.25,2.25,0,0,1,.21.84c0,.39.06,1,.06,1.72a7.16,7.16,0,0,0,.07,1.34H286a21.38,21.38,0,0,1-.07-2.7c0-.57-.06-.9-.17-1a.71.71,0,0,0-.5-.14l-.54,0v3.86h-.92Zm2.13,2c0-.61-.06-1-.17-1.07a.68.68,0,0,0-.46-.14h-.58V172h.58a.64.64,0,0,0,.4-.11.65.65,0,0,0,.17-.4,5.12,5.12,0,0,0,.06-.93Z"/><path class="cls-36" d="M81.38,199.33h-.95a.16.16,0,0,1-.15-.16v-4.23a.16.16,0,0,1,.15-.16h.95a.16.16,0,0,1,.15.16v4.23A.16.16,0,0,1,81.38,199.33Zm-.79-.31h.63V195.1h-.63Z"/><path class="cls-36" d="M82.09,209.52H79.72a.31.31,0,0,1-.3-.32v-7.87c0-.21.27-2.47,1.15-2.47h.67c.88,0,1.16,2.26,1.16,2.47v7.87A.31.31,0,0,1,82.09,209.52ZM80,208.89h1.75v-7.56a4,4,0,0,0-.56-1.84H80.6a3.85,3.85,0,0,0-.57,1.84Z"/><path class="cls-36" d="M77.63,199.33h-.95a.16.16,0,0,1-.15-.16v-4.23a.16.16,0,0,1,.15-.16h.95a.16.16,0,0,1,.15.16v4.23A.16.16,0,0,1,77.63,199.33Zm-.79-.31h.63V195.1h-.63Z"/><path class="cls-36" d="M78.34,209.52H76a.31.31,0,0,1-.3-.32v-7.87c0-.21.27-2.47,1.15-2.47h.67c.88,0,1.15,2.26,1.15,2.47v7.87A.31.31,0,0,1,78.34,209.52Zm-2.06-.63H78v-7.56a4,4,0,0,0-.56-1.84h-.63a4,4,0,0,0-.56,1.84Z"/><path class="cls-36" d="M73.88,199.33h-.95a.16.16,0,0,1-.15-.16v-4.23a.16.16,0,0,1,.15-.16h.95a.16.16,0,0,1,.15.16v4.23A.16.16,0,0,1,73.88,199.33Zm-.79-.31h.63V195.1h-.63Z"/><path class="cls-36" d="M74.59,209.52H72.22a.31.31,0,0,1-.31-.32v-7.87c0-.21.28-2.47,1.16-2.47h.67c.88,0,1.15,2.26,1.15,2.47v7.87A.31.31,0,0,1,74.59,209.52Zm-2.06-.63h1.75v-7.56a4,4,0,0,0-.56-1.84h-.63a4,4,0,0,0-.56,1.84Z"/><path class="cls-36" d="M70.13,199.33h-.95a.16.16,0,0,1-.15-.16v-4.23a.16.16,0,0,1,.15-.16h.95a.16.16,0,0,1,.15.16v4.23A.16.16,0,0,1,70.13,199.33Zm-.8-.31H70V195.1h-.64Z"/><path class="cls-36" d="M70.83,209.52H68.47a.31.31,0,0,1-.31-.32v-7.87c0-.21.28-2.47,1.16-2.47H70c.88,0,1.15,2.26,1.15,2.47v7.87A.31.31,0,0,1,70.83,209.52Zm-2-.63h1.75v-7.56a3.85,3.85,0,0,0-.57-1.84h-.62a4,4,0,0,0-.56,1.84Z"/><path class="cls-36" d="M66.37,199.33h-.94a.15.15,0,0,1-.15-.16v-4.23a.15.15,0,0,1,.15-.16h.94a.16.16,0,0,1,.16.16v4.23A.16.16,0,0,1,66.37,199.33Zm-.79-.31h.64V195.1h-.64Z"/><path class="cls-36" d="M67.08,209.52H64.72a.31.31,0,0,1-.31-.32v-7.87c0-.21.28-2.47,1.16-2.47h.67c.87,0,1.15,2.26,1.15,2.47v7.87A.31.31,0,0,1,67.08,209.52Zm-2-.63h1.75v-7.56a3.85,3.85,0,0,0-.57-1.84h-.62a4,4,0,0,0-.56,1.84Z"/><path class="cls-36" d="M83.8,226.41H63V210.86a1.87,1.87,0,0,1,1.76-2H82a1.87,1.87,0,0,1,1.76,2Zm-20.17-.63H83.18V210.86A1.25,1.25,0,0,0,82,209.52H64.77a1.25,1.25,0,0,0-1.14,1.34Z"/><path class="cls-36" d="M101.47,116.28h-.31c-6.31,0-11.45-5.73-11.45-12.77v-18c0-3.47,2.54-6.29,5.66-6.29h11.89c3.12,0,5.66,2.82,5.66,6.29v18C112.92,110.55,107.78,116.28,101.47,116.28Zm-6.1-36.42c-2.78,0-5,2.54-5,5.66v18c0,6.69,4.86,12.14,10.83,12.14h.31c6,0,10.83-5.45,10.83-12.14v-18c0-3.12-2.26-5.66-5-5.66Z"/><path class="cls-36" d="M112.49,91.7V86.15l3.09.28a1.66,1.66,0,0,1,1.5,1.68v1.64a1.66,1.66,0,0,1-1.5,1.68Zm.62-4.86V91l2.42-.22a1,1,0,0,0,.94-1V88.11a1,1,0,0,0-.94-1Z"/><rect class="cls-36" x="112.8" y="87.95" width="3.97" height="0.31"/><rect class="cls-36" x="112.8" y="89.28" width="3.97" height="0.31"/><path class="cls-36" d="M90.31,91.7l-3.09-.27a1.67,1.67,0,0,1-1.5-1.68V88.11a1.67,1.67,0,0,1,1.5-1.68l3.09-.28Zm-.62-4.86-2.41.22a1,1,0,0,0-1,1v1.64a1,1,0,0,0,1,1l2.41.22Z"/><rect class="cls-36" x="86.03" y="87.95" width="3.97" height="0.31"/><rect class="cls-36" x="86.03" y="89.28" width="3.97" height="0.31"/><path class="cls-36" d="M108.36,96.06H94.07a1.67,1.67,0,0,1-1.64-1.68V89a1.67,1.67,0,0,1,1.64-1.68h14.29A1.67,1.67,0,0,1,110,89v5.38A1.67,1.67,0,0,1,108.36,96.06ZM94.07,88a1,1,0,0,0-1,1v5.38a1,1,0,0,0,1,1.05h14.29a1,1,0,0,0,1-1.05V89a1,1,0,0,0-1-1Z"/><path class="cls-36" d="M106.81,94.41H95.63a1.13,1.13,0,0,1-1.21-1V90a1.13,1.13,0,0,1,1.21-1h11.18a1.13,1.13,0,0,1,1.2,1v3.4A1.13,1.13,0,0,1,106.81,94.41ZM95.63,89.28a.82.82,0,0,0-.9.71v3.4a.82.82,0,0,0,.9.71h11.18a.82.82,0,0,0,.89-.71V90a.82.82,0,0,0-.89-.71Z"/><path class="cls-36" d="M279.4,105v.15a.32.32,0,0,1-.3.31l-21.22.89a.31.31,0,0,1-.32-.32v-4.58a.31.31,0,0,1,.3-.32H276C278.11,101.1,279.4,102.59,279.4,105Zm-21.23.7,20.61-.86c0-.89-.35-3.08-2.75-3.08H258.17Z"/><path class="cls-36" d="M266.24,92.53h0V96a.3.3,0,0,1-.21.3l-8.28,2.9v11.86a.31.31,0,0,1-.3.32l-14.23.09a.29.29,0,0,1-.22-.09.31.31,0,0,1-.09-.22v-7.73a.31.31,0,0,1,.06-.19l1.65-2.12A16.09,16.09,0,0,1,251,96.22l1.11-.48h.05l13.68-3.48a.31.31,0,0,1,.13,0A.31.31,0,0,1,266.24,92.53Zm-.61,3.28V92.94l-13.34,3.39-1.09.47a15.44,15.44,0,0,0-6.1,4.74l-1.58,2v7.3l13.62-.09V99a.3.3,0,0,1,.21-.29Z"/><path class="cls-36" d="M243.52,103.46v2.72a.31.31,0,0,1-.3.32l-11.55.09a.32.32,0,0,1-.27-.15.31.31,0,0,1,0-.32l.49-.85a4.21,4.21,0,0,1,3.64-2.12h7.68A.31.31,0,0,1,243.52,103.46Zm-.61,2.41v-2.09h-7.38a3.6,3.6,0,0,0-3.11,1.81l-.21.37Z"/><path class="cls-36" d="M257.75,101.24a.3.3,0,0,1-.21.29l-14.23,5a.3.3,0,0,1-.39-.2.31.31,0,0,1,.19-.39l14.24-5a.3.3,0,0,1,.39.19A.41.41,0,0,1,257.75,101.24Z"/><path class="cls-36" d="M243.52,108.46v2.73a.31.31,0,0,1-.31.31h-7.68a4.21,4.21,0,0,1-3.64-2.12l-.49-.85a.31.31,0,0,1,0-.32.28.28,0,0,1,.27-.15l11.55.09A.3.3,0,0,1,243.52,108.46Zm-.61,2.41v-2.09l-10.7-.09.21.37a3.6,3.6,0,0,0,3.11,1.81Z"/><path class="cls-36" d="M279.4,108h0a3.3,3.3,0,0,1-3.37,3.38H257.86a.3.3,0,0,1-.3-.31v-4.59a.31.31,0,0,1,.09-.22.32.32,0,0,1,.23-.09l21.16.88a.31.31,0,0,1,.28.25A3.34,3.34,0,0,1,279.4,108Zm-21.23,2.75H276a2.69,2.69,0,0,0,2.75-2.75h0c0-.11,0-.22,0-.33l-20.59-.86Z"/><path class="cls-36" d="M242.85,106.28a.13.13,0,0,1,0,.1l-1.85,2.1a.14.14,0,0,1-.23,0l-1.42-1.94-1.76,2a.16.16,0,0,1-.11,0,.14.14,0,0,1-.12-.06l-1.42-1.72-1.48,1.75a.17.17,0,0,1-.12,0,.2.2,0,0,1-.12-.06l-1.57-2.12a.17.17,0,0,1,0-.22.16.16,0,0,1,.22,0l1.46,2,1.47-1.73a.17.17,0,0,1,.12,0,.14.14,0,0,1,.11,0l1.42,1.72,1.77-2a.18.18,0,0,1,.12,0,.17.17,0,0,1,.12.06l1.41,1.94,1.73-2a.15.15,0,0,1,.26.11Z"/><path class="cls-36" d="M282.6,217.65H271.1a.27.27,0,0,1-.22-.1.29.29,0,0,1-.08-.23l.66-8.6c-1.6-1.24-7.84-6.22-7-8.13a1.17,1.17,0,0,1,1.21-.7c1.51,0,4.1,1.54,5.17,2.22a27.9,27.9,0,0,1,.67-5.64c-.21-1.36-1.52-10.73.88-11.67a1.15,1.15,0,0,1,.36-.07c1.38,0,2.07,3.36,2.42,6.37.35-3.41,1.1-7.45,2.69-7.56a1,1,0,0,1,.81.37c.94,1.09.95,4.86.78,7.9.78-2.83,1.91-5.91,3.1-5.91l.21,0a.92.92,0,0,1,.54.46c.57,1,.22,3.83-.26,6.32.71-1.55,1.53-2.89,2.24-2.89a.64.64,0,0,1,.2,0,.63.63,0,0,1,.4.36c.68,1.4-1.6,7.74-2.12,9.16,0,.68,0,6.14-1.69,9.27l.86,8.61a.28.28,0,0,1,0,.09A.3.3,0,0,1,282.6,217.65ZM271.43,217h10.82l-.84-8.42a.34.34,0,0,1,0-.2c1.78-3.1,1.66-9,1.66-9.09a.17.17,0,0,1,0-.12c1.62-4.38,2.6-8.39,2.13-8.75h0c-.68,0-2.22,3.4-3.25,6.58a.3.3,0,0,1-.38.2.31.31,0,0,1-.21-.38c.63-2.35,2.08-8.77,1.31-10.15-.08-.14-.15-.15-.17-.16h-.05c-.94,0-2.52,4.87-3.45,9.38a.3.3,0,0,1-.35.24.32.32,0,0,1-.26-.34c.32-2.74.89-10.14-.28-11.48a.37.37,0,0,0-.29-.16c-1.43.09-2.28,6.66-2.43,11.29a.31.31,0,0,1-.31.3h0a.32.32,0,0,1-.31-.3c-.17-4.86-1-10.1-2.12-10.1l-.14,0c-1.49.58-1.09,7.09-.49,11.05a.24.24,0,0,1,0,.12,28,28,0,0,0-.67,6.11.34.34,0,0,1-.16.29.31.31,0,0,1-.32,0s-3.59-2.42-5.3-2.42c-.46,0-.59.18-.64.32-.47,1.11,3.8,5,7,7.48a.32.32,0,0,1,.13.28Z"/><path class="cls-36" d="M284.29,221.37H269.55a.3.3,0,0,1-.23-.11.26.26,0,0,1-.07-.24l.43-3.72A.31.31,0,0,1,270,217H283.8a.31.31,0,0,1,.31.27l.47,3.65a.36.36,0,0,1,0,.11A.31.31,0,0,1,284.29,221.37Zm-14.39-.63h14l-.4-3.09H270.26Z"/><path class="cls-6" d="M226.91,149.13a1.86,1.86,0,1,1-1.86-1.9A1.88,1.88,0,0,1,226.91,149.13Z"/><path class="cls-6" d="M226.58,78.28a1.86,1.86,0,1,1-1.86-1.89A1.88,1.88,0,0,1,226.58,78.28Z"/><path class="cls-6" d="M247.2,130.76a1.86,1.86,0,1,1-1.86-1.9A1.88,1.88,0,0,1,247.2,130.76Z"/><path class="cls-6" d="M141.23,87.82a1.86,1.86,0,1,1-1.85-1.89A1.88,1.88,0,0,1,141.23,87.82Z"/><path class="cls-6" d="M109.63,136.72a1.86,1.86,0,1,1-1.86-1.89A1.88,1.88,0,0,1,109.63,136.72Z"/><path class="cls-6" d="M93.22,154.19a1.86,1.86,0,1,1-1.85-1.9A1.87,1.87,0,0,1,93.22,154.19Z"/><path class="cls-6" d="M95.66,213.86A1.86,1.86,0,1,1,93.8,212,1.88,1.88,0,0,1,95.66,213.86Z"/><path class="cls-6" d="M271.91,238.54a1.86,1.86,0,1,1-1.86-1.9A1.88,1.88,0,0,1,271.91,238.54Z"/><rect class="cls-20" y="337.31" width="350" height="145"/><text class="cls-37" transform="translate(37 415.4)">용접산업기사취득과정</text><text class="cls-38" transform="translate(99.4 454)">2022년 6월 21일</text><text class="cls-39" transform="translate(10.69 365.55)">과정평가형자격</text></g></g></svg>