<svg xmlns="http://www.w3.org/2000/svg" viewBox="0 0 350 482"><defs><style>.cls-1{isolation:isolate;}.cls-2{fill:#ebeded;}.cls-3{fill:#8eaf5f;}.cls-4{fill:#6e91af;}.cls-5{fill:#233542;}.cls-6{fill:#f1db9d;}.cls-7{fill:#d58f6b;}.cls-8{fill:#d3756a;}.cls-13,.cls-9{fill:none;stroke-linecap:round;stroke-linejoin:round;}.cls-9{stroke:#233542;}.cls-10{fill:#3e554f;}.cls-11{fill:#a8b36e;}.cls-12{fill:#658c71;}.cls-13{stroke:#d58f6b;}.cls-14{fill:#f2d9bb;}.cls-15{fill:#6f8f53;}.cls-16,.cls-17,.cls-18,.cls-25{fill:#709053;}.cls-16{opacity:0.26;}.cls-16,.cls-18,.cls-22,.cls-23,.cls-24,.cls-25,.cls-26,.cls-29,.cls-30,.cls-31,.cls-35,.cls-37,.cls-38,.cls-39,.cls-40,.cls-41,.cls-42{mix-blend-mode:multiply;}.cls-18{opacity:0.51;}.cls-19{fill:#bdd64b;}.cls-20,.cls-22,.cls-24,.cls-30,.cls-31{fill:#8bb6cc;}.cls-21,.cls-23,.cls-41,.cls-42{fill:#cb892d;}.cls-22,.cls-45{opacity:0.56;}.cls-23{opacity:0.62;}.cls-24{opacity:0.34;}.cls-25,.cls-30{opacity:0.25;}.cls-26{opacity:0.42;}.cls-27,.cls-28,.cls-29{fill:#56585d;}.cls-28,.cls-44,.cls-45{mix-blend-mode:screen;}.cls-29{opacity:0.49;}.cls-31{opacity:0.61;}.cls-32,.cls-35,.cls-44,.cls-45{fill:#e8e9e7;}.cls-33{fill:#762644;}.cls-34,.cls-39{fill:#3f779a;}.cls-36,.cls-37,.cls-38,.cls-40{fill:#ee9e75;}.cls-37{opacity:0.41;}.cls-38{opacity:0.45;}.cls-39{opacity:0.69;}.cls-40{opacity:0.75;}.cls-41{opacity:0.22;}.cls-42{opacity:0.28;}.cls-43{fill:#cb6ea8;}.cls-44{opacity:0.46;}.cls-46{fill:#fff;}.cls-47{font-size:30px;}.cls-47,.cls-49{fill:#231916;font-family:NotoSansKR-Bold-KSCpc-EUC-H, Noto Sans KR;}.cls-48{font-size:21px;fill:#828182;font-family:NotoSansKR-Medium-KSCpc-EUC-H, Noto Sans KR;}.cls-49{font-size:18px;}</style></defs><title>Artboard 24 copy 11</title><g class="cls-1"><g id="레이어_1" data-name="레이어 1"><rect class="cls-2" y="1.75" width="350" height="482"/><path class="cls-3" d="M350.6,273.82V478.89H.6V269.41s16.73-3.88,40.48-7c39.2-5.22,97.52-8.51,131.2,10.72,1.14.66,10.06,4.3,17.63,7.61,2.21.95,4.3,1.89,6.05,2.71l1.66.79a24.51,24.51,0,0,0,22.35.16l8.88-4.23c3.22-1.55,9.3-2.41,12.54-1.44,18.5,5.47,25.95,3.31,47.41,2.82,7.85-.17,14.93-.55,21.26-1.05C337.27,278.27,350.6,273.82,350.6,273.82Z"/><path class="cls-4" d="M245.23,248.27l-4.49-6.46a.89.89,0,0,0-1-.31l-3,1.13c.36-1.64-.15-3.79-1.8-6.18-2.67-3.84-9-4.62-9-4.62s-1.46,6.16,1.21,10c2.55,3.66,5.53,4.59,7.65,3.38l.15-.05,4.68-1.79,4.1,5.89a.87.87,0,0,0,1.43-1Z"/><path class="cls-5" d="M313.86,311.59l10.21-.71a5.46,5.46,0,0,1,5.27,2.34c2.34,3,9.71,3.51,10.88,7.61s-3.43,5.19-5.69,4.77-7.47-1.66-12.22-1.09h-3.59Z"/><path class="cls-5" d="M281.21,233.78s1.15-.21,2.33,1.63l-3.94,2.76s-1-2.67,0-3.32Z"/><path class="cls-5" d="M309.13,274.32s14.38-3,16.57,1.43l.48,4.58S309.13,284.86,309.13,274.32Z"/><path class="cls-5" d="M299.72,213.37s3.39-5.69,9.67-4.44,10.84,6.53,7.28,15.7c0,0-3.2,5.57-2.58,8.08s2.45.82,4.71,2.26,2.7,10-5.21,10.35-15.95-4.41-16.41-13S299.72,213.37,299.72,213.37Z"/><path class="cls-6" d="M306.77,216.24c.57,3.09-1.11,6-3.76,6.49s-5.27-1.61-5.85-4.7,1.11-6,3.76-6.49S306.19,213.15,306.77,216.24Z"/><path class="cls-7" d="M264.33,246.33s-2.57,1.07,0,6.65,5.73,12.43,9.67,10.73l2.4-1-8.85-17.83Z"/><path class="cls-8" d="M268.48,246.46l-7.53,4.7-11.13-3.32-3.56,6.83,9.67,7.54s5,3.7,9.1,2.94,11.79-7.53,11.79-7.53S276.82,248.28,268.48,246.46Z"/><path class="cls-5" d="M276.82,257.62s0-9.34-8.34-11.16l-2.75,1.71c3,3.2,3.93,11,4.21,14.67A66.39,66.39,0,0,0,276.82,257.62Z"/><path class="cls-6" d="M264.33,246.33s9.23-4.08,11.17-5.84,5.09-6.14,7.35-6.71,8.58,0,8.58,0L303,235.83l8.88,4.19a5.86,5.86,0,0,1,2.48,2.17c1.18,1.89,3,5.74,4.26,12.8,2,11.29,4.83,24,4.83,24l-36.52,4.2L282,260.26l-8,3.45S272.74,251.16,264.33,246.33Z"/><path class="cls-5" d="M290.86,221a6.92,6.92,0,0,1-1.43-8.66c2.72-5.31,7,0,7,0s4.57-1,7.23,1.38,3.85,11.1-2.21,14.59Z"/><path class="cls-8" d="M291.29,234.75l1.16-7.7,10-.74.53,9.52s-3.75,11.13-12.55,9.29C284.83,244,291.29,234.75,291.29,234.75Z"/><path class="cls-5" d="M301.26,227.05h-8.81l-1,6.73S299.5,232.59,301.26,227.05Z"/><path class="cls-8" d="M296.38,215.92a4.44,4.44,0,0,0-1-2.55c-2,.5-5.07,2.19-5.64,7.82C289,229,289.18,232,295,232.32c4.26.24,7.24-4.21,8.48-8.44C296,223.17,296.54,217.73,296.38,215.92Z"/><path class="cls-8" d="M305.94,224.12a2.32,2.32,0,1,1-2.78-1.75A2.33,2.33,0,0,1,305.94,224.12Z"/><path class="cls-4" d="M281.65,249.4s-4.22,3.53-3.64,8.37a6,6,0,0,0,.9,2.57,3.87,3.87,0,0,0,2.18,1.74L284.41,276l-19.07-2.39a10.42,10.42,0,0,0-7.06,1.57c-2.49,1.66-4.78,4.76-3.67,10.52a10.36,10.36,0,0,0,2.36,4.81l14,16.36s-10.17,11-3.89,22,36.26-2,43.67-2.89l11.54-1.38s2.26-10-5.52-13.3l-6.78.38s16.95-12.18,16.82-25l-1.13-10.86s-14.23,7.22-19.85-6.58l-4-15.18S286.42,253,281.65,249.4Z"/><path class="cls-4" d="M291.43,254.65s7.41-14.71,18.57-16.4a1.68,1.68,0,0,1,1.09.22l3.18,1.9a23.57,23.57,0,0,0-17.09,15.21Z"/><path class="cls-7" d="M309.76,268.63s3.39,1,4.46,2.92-14.45-1.94-20.94-6.77A75,75,0,0,1,309.76,268.63Z"/><path class="cls-8" d="M293.28,264.78s10.79,1.09,16.48,3.85l-9.28,16.9s-4.44,5.05-10.71,5.74-27.69.61-27.69.61-7,3-11.67,1.13-3.39-2.88-2.39-3.13,5.39-1.56,6.59-4.23l-.29-3.3s3.61.62,5.37,2.13c0,0,4.64,1,11.61-1.82S287.11,277,287.11,277Z"/><path class="cls-5" d="M293,265.41c2.86.85,10.73,3.32,15.28,6l1.52-2.77c-5.69-2.76-16.48-3.85-16.48-3.85Z"/><path class="cls-8" d="M244.8,276.73c-4.06,1.5-7,3.57-6.65,4.62l1.8,4.9a5.28,5.28,0,0,0,.88,0l3.4,8.1s2.28,1.75,7.06,0,5.37-4.56,5.37-4.56L254,281.45a5.27,5.27,0,0,0,.65-.61l-1.8-4.9C252.46,274.89,248.86,275.24,244.8,276.73Z"/><path class="cls-5" d="M252.85,275.94c.39,1.06-2.59,3.13-6.65,4.62s-7.66,1.85-8,.79,2.59-3.12,6.65-4.61S252.46,274.89,252.85,275.94Z"/><path class="cls-9" d="M251.16,283.31a20.93,20.93,0,0,0,2.84-1.86"/><path class="cls-9" d="M240.83,286.29a25.05,25.05,0,0,0,8.26-2"/><path class="cls-10" d="M244.79,271.69c1.92,2.92,2,5.06.88,5.81s-3.07-.18-5-3.1-2-7.49-2-7.49S242.87,268.76,244.79,271.69Z"/><path class="cls-11" d="M247,271c1.07,3.33.58,5.41-.72,5.83s-2.9-1-4-4.33.11-7.74.11-7.74S245.9,267.69,247,271Z"/><path class="cls-11" d="M243.09,275.13c1.71,2.42,1.84,4.23.9,4.89s-2.6-.06-4.31-2.49-1.88-6.28-1.88-6.28S241.38,272.7,243.09,275.13Z"/><path class="cls-10" d="M244.57,273.57c.14,3.5,1.32,5.29,2.68,5.23s2.38-1.93,2.24-5.42-2.75-7.24-2.75-7.24S244.43,270.08,244.57,273.57Z"/><path class="cls-12" d="M242,275.62c1.51,3.15,3.3,4.33,4.52,3.75s1.44-2.72-.07-5.88-5.39-5.56-5.39-5.56S240.48,272.46,242,275.62Z"/><path class="cls-6" d="M272.46,282.2l-1.16.46c-7,2.82-11.61,1.82-11.61,1.82-1.76-1.51-5.37-2.13-5.37-2.13l.29,3.3c-1.2,2.67-5.59,4-6.59,4.23s-2.26,1.25,2.39,3.13,11.67-1.13,11.67-1.13,5.2,0,11.22,0A15,15,0,0,0,272.46,282.2Z"/><path class="cls-13" d="M250.41,293a50.4,50.4,0,0,0,5.25-.72"/><line class="cls-9" x1="310.01" y1="311.59" x2="288.1" y2="324.51"/><line class="cls-9" x1="270.99" y1="306.82" x2="284.66" y2="294.65"/><line class="cls-9" x1="281.65" y1="293.06" x2="293.89" y2="297.74"/><path class="cls-9" d="M261,251.16s3.95,2.07,3.76,5.84"/><path class="cls-6" d="M293.28,264.78l6-14.22s3.7-5.82,10.45-4.77,7.12,11.94,5.69,18.18a63.36,63.36,0,0,0-1,6.49S303.71,265.59,293.28,264.78Z"/><path class="cls-13" d="M315.45,264s-1.14,5.66-1.23,7.58"/><path class="cls-4" d="M282.41,250.56s-2-14.58-1.2-16.78L279,235.25a3,3,0,0,0-1.32,2.6A59,59,0,0,0,280,252.73Z"/><path class="cls-9" d="M288.15,277.75s1.62-.35,4.13,1.46"/><path class="cls-6" d="M258.4,250.34l-8.58-2.56c0-.41-.15-2.67-1.74-3.29s-5.14-2.5-5.58-3.1-.9,1.8,1.17,3.1l-5.3,1.42a1.64,1.64,0,0,0-.34,2.37s0,2.71.82,3.6,4.41,2.85,5.41,2.67l1.47-.3,9.25,7.22A12.39,12.39,0,0,0,258.4,250.34Z"/><path class="cls-13" d="M243.67,244.49s-.59,4.12,2.24,5.27"/><line class="cls-13" x1="238.03" y1="248.28" x2="243.62" y2="246.83"/><path class="cls-13" d="M244.26,254.55s2-1.32,1.65-2.75a17.91,17.91,0,0,0-1.64-3.52"/><line class="cls-13" x1="238.56" y1="251.42" x2="244.64" y2="248.94"/><line class="cls-13" x1="241.03" y1="253.37" x2="245.7" y2="251.16"/><line class="cls-13" x1="245.73" y1="254.25" x2="247.9" y2="253.86"/><line class="cls-13" x1="249.82" y1="247.78" x2="249.82" y2="248.94"/><path class="cls-13" d="M247.68,291.57c.76-.08,4.68-.32,7.15-1.64"/><polyline class="cls-9" points="236.76 242.63 235.09 243.32 233.55 240.73"/><path class="cls-8" d="M223.56,330.14h15.09c.71-1.17,1.12-4,1-7.34-.19-4.32-1.26-7.78-2.39-7.73l-5.21.23a4.54,4.54,0,0,0-.3.82l-8.75.79s-2.36,1.65-2.13,6.74S223.56,330.14,223.56,330.14Z"/><path class="cls-5" d="M237.12,330.14h1.53c.71-1.17,1.12-4,1-7.34-.19-4.32-1.26-7.78-2.39-7.73s-1.88,3.59-1.68,7.91C235.69,326.23,236.34,329,237.12,330.14Z"/><path class="cls-9" d="M231.42,326.88a21.08,21.08,0,0,0,.92,3.26"/><path class="cls-9" d="M231.72,316.12a25.09,25.09,0,0,0-.63,8.48"/><path class="cls-7" d="M236.89,330.14h25.52s-2.17-4-4.68-4.27a18.31,18.31,0,0,0-4.15,0,6.76,6.76,0,0,0-5.81-3.89,10.12,10.12,0,0,0-6.61,2.1s-2.29-4.07-5.56-4.15C235.6,319.93,235,326.13,236.89,330.14Z"/><path class="cls-14" d="M246.93,324.05a.34.34,0,1,1-.33-.33A.34.34,0,0,1,246.93,324.05Z"/><circle class="cls-14" cx="240.32" cy="325.6" r="0.38"/><path class="cls-14" d="M242.17,325.23A.19.19,0,1,1,242,325,.18.18,0,0,1,242.17,325.23Z"/><path class="cls-14" d="M247.77,323.38a.2.2,0,1,1-.19-.19A.2.2,0,0,1,247.77,323.38Z"/><path class="cls-14" d="M249.05,324.93a.19.19,0,0,1-.19.19.19.19,0,1,1,0-.38A.19.19,0,0,1,249.05,324.93Z"/><path class="cls-9" d="M295,227.59a3,3,0,0,1-2.24,0"/><path class="cls-5" d="M294.82,222.21c-.07.37.07.7.3.74s.49-.21.56-.57-.07-.7-.31-.74S294.89,221.85,294.82,222.21Z"/><path class="cls-5" d="M290.22,222.09c-.05.36.11.68.35.72s.47-.25.52-.61-.12-.69-.35-.72S290.26,221.72,290.22,222.09Z"/><path class="cls-9" d="M296.42,220.29a1.61,1.61,0,0,0-2.07-.09"/><path class="cls-9" d="M291.48,220.08a1.2,1.2,0,0,0-1.57.12"/><polyline class="cls-9" points="292.51 221.64 290.98 225.5 292.7 225.88"/><path class="cls-15" d="M129.63,299.25s6.38-3,9.12-4.2c3.18-1.38,3-5,8.38-9.13,2.71-2.09,7.88-6.51,11.92-7s7.2-5.87,8.21-8.66,9.16-5.18,11.88-1.61,4.89,2.42,9.39,3.3,10.51-5.13,13.29,1.3,2.41,10.27,5.48,11.57-.33-3.34,5.44,0,9.11,1.75,10.16,6.62l0,.15a8.38,8.38,0,0,0,9.29,6.38,9.87,9.87,0,0,1,6.73,1.29c5,3.16,17.4,4.95,16.82,5.54-1.7,1.72-22,3-27.75,2.18s-11.52-1.62-10.18.13-3,1.72-10-.13-4.28-4.22-12.09-4.22-21,1.36-21,1.36l-20.51,4.28s-6,1.44-7.73-1.42-11-4.56-11-4.56H124.19l-8.08-1.7Z"/><path class="cls-16" d="M239,299.25c4.5,2.84,13.92,5.32,16.29,5.55-3.42.31-22.07,2.9-27.21,2.16-5.79-.81-11.53-1.62-10.18.14s-3,1.71-10-.14-4.29-4.21-12.09-4.21-21,1.36-21,1.36l-20.5,4.28s-6,1.44-7.73-1.43-11-4.55-11-4.55H124.2l-8.09-1.69,13.53-1.47a74.74,74.74,0,0,0,9.11-4.19c2.51-1.63,4.75-3.46,8.39-9.14,0,0,7.87-6.51,11.92-7s7.19-5.87,8.2-8.67,9.16-5.17,11.88-1.6,4.88,2.42,9.39,3.3,10.51-5.13,13.29,1.31c.56,1.29,1,2.49,1.35,3.58l0,.06c1.08,3.3,1.49,5.61,2.75,7h0a3.75,3.75,0,0,0,1.35.95c3.07,1.31-.33-3.34,5.46,0s9.1,1.76,10.15,6.62l0,.15a8.39,8.39,0,0,0,9.3,6.38A9.85,9.85,0,0,1,239,299.25Z"/><path class="cls-17" d="M132.08,307.9c2-.1,2.93.55,3,1.4s-.83,1.58-2.82,1.68a5.89,5.89,0,0,1-3.67-1.36A5.91,5.91,0,0,1,132.08,307.9Z"/><path class="cls-17" d="M136.32,313c-1.37.08-2-.36-2.06-.95s.57-1.1,1.94-1.18a4.08,4.08,0,0,1,2.55.92A4.09,4.09,0,0,1,136.32,313Z"/><path class="cls-17" d="M129.73,311.93c1.14-.77,1.93-.73,2.26-.24s.08,1.24-1.06,2a4.12,4.12,0,0,1-2.67.51A4.14,4.14,0,0,1,129.73,311.93Z"/><path class="cls-17" d="M137.86,299.19c1.31-.42,2-.15,2.23.41s-.28,1.21-1.6,1.62a4,4,0,0,1-2.69-.27A4.06,4.06,0,0,1,137.86,299.19Z"/><path class="cls-17" d="M169.68,295.86c1.31-.41,2.06-.15,2.24.42s-.29,1.2-1.6,1.62a4.1,4.1,0,0,1-2.7-.28A4.11,4.11,0,0,1,169.68,295.86Z"/><path class="cls-18" d="M162.77,304.52c-1.08-.86-1.27-1.63-.91-2.09s1.16-.44,2.24.42a4.13,4.13,0,0,1,1.28,2.39A4.14,4.14,0,0,1,162.77,304.52Z"/><path class="cls-17" d="M182.75,285.39c-.77-1.14-.73-1.93-.24-2.26s1.23-.07,2,1.06a4.12,4.12,0,0,1,.51,2.67A4.11,4.11,0,0,1,182.75,285.39Z"/><path class="cls-17" d="M168.22,274.56c-.77-1.14-.73-1.93-.24-2.26s1.23-.07,2,1.06a4.12,4.12,0,0,1,.51,2.67A4.11,4.11,0,0,1,168.22,274.56Z"/><path class="cls-17" d="M142.4,301.24c-.26-.83-.09-1.31.26-1.42s.77.18,1,1a2.62,2.62,0,0,1-.17,1.71A2.58,2.58,0,0,1,142.4,301.24Z"/><path class="cls-17" d="M172.08,295.73c-.26-.84-.09-1.31.26-1.42s.77.18,1,1a2.62,2.62,0,0,1-.17,1.71A2.58,2.58,0,0,1,172.08,295.73Z"/><path class="cls-17" d="M217.86,289.55c1.31-.41,2.06-.15,2.23.42s-.28,1.2-1.59,1.61a4,4,0,0,1-2.7-.27A4.11,4.11,0,0,1,217.86,289.55Z"/><path class="cls-17" d="M220.26,289.41c-.26-.83-.1-1.3.26-1.41s.77.18,1,1a2.59,2.59,0,0,1-.18,1.71A2.58,2.58,0,0,1,220.26,289.41Z"/><path class="cls-17" d="M167.65,277.6c-.26-.83-.1-1.3.26-1.41s.77.18,1,1a2.62,2.62,0,0,1-.17,1.71A2.58,2.58,0,0,1,167.65,277.6Z"/><path class="cls-18" d="M142.82,296.3c.72-.5,1.22-.49,1.43-.18s.07.78-.64,1.29a2.63,2.63,0,0,1-1.68.36A2.57,2.57,0,0,1,142.82,296.3Z"/><path class="cls-17" d="M145.72,290.33c.25-.83.65-1.13,1-1s.53.57.29,1.41a2.63,2.63,0,0,1-1.1,1.32A2.59,2.59,0,0,1,145.72,290.33Z"/><path class="cls-17" d="M170.68,298.73c.72-.5,1.22-.49,1.43-.18s.07.78-.64,1.28a2.56,2.56,0,0,1-1.68.36A2.56,2.56,0,0,1,170.68,298.73Z"/><path class="cls-18" d="M160.41,304.7c.71-.5,1.21-.48,1.43-.18s.06.78-.65,1.29a2.62,2.62,0,0,1-1.68.36A2.58,2.58,0,0,1,160.41,304.7Z"/><path class="cls-18" d="M180.63,286.31c.71-.5,1.21-.48,1.43-.18s.06.78-.65,1.29a2.62,2.62,0,0,1-1.68.36A2.64,2.64,0,0,1,180.63,286.31Z"/><path class="cls-18" d="M211.54,287.25c.72-.5,1.22-.48,1.43-.18s.07.78-.65,1.29a2.62,2.62,0,0,1-1.68.36A2.64,2.64,0,0,1,211.54,287.25Z"/><path class="cls-17" d="M135,298.64c.84-.22,1.3,0,1.4.33s-.22.76-1.07,1a2.6,2.6,0,0,1-1.69-.27A2.53,2.53,0,0,1,135,298.64Z"/><path class="cls-19" d="M143.74,289.21c.85-.22,1.31,0,1.4.34s-.21.75-1.06,1a2.6,2.6,0,0,1-1.7-.26A2.63,2.63,0,0,1,143.74,289.21Z"/><path class="cls-19" d="M165.43,272.65c.78.51,1,1,.74,1.34s-.74.37-1.52-.14a2.76,2.76,0,0,1-1-1.51A2.76,2.76,0,0,1,165.43,272.65Z"/><path class="cls-19" d="M179.12,284.29c.84-.22,1.3,0,1.4.34s-.22.75-1.07,1a2.56,2.56,0,0,1-1.69-.26A2.58,2.58,0,0,1,179.12,284.29Z"/><path class="cls-19" d="M214.22,284.27c-.73.13-1.1.49-1.15.85s.24.59,1,.45a3.11,3.11,0,0,0,1.41-.9A1.41,1.41,0,0,0,214.22,284.27Z"/><path class="cls-19" d="M196.73,291.69c-.38-.5-.75-.5-1-.23s-.28.71.1,1.21a1.35,1.35,0,0,0,1.13.42A2.15,2.15,0,0,0,196.73,291.69Z"/><path class="cls-19" d="M216.62,287.31c-.37-.5-.75-.51-1-.24s-.28.71.1,1.21a1.38,1.38,0,0,0,1.14.42A2.15,2.15,0,0,0,216.62,287.31Z"/><path class="cls-19" d="M166.1,274.8c.85-.22,1.31,0,1.4.34s-.21.75-1.06,1a2.6,2.6,0,0,1-1.7-.26A2.63,2.63,0,0,1,166.1,274.8Z"/><path class="cls-18" d="M153.44,285.75a3.94,3.94,0,0,0,1.67,2.18c1.59.88,2.92,1.39,3.45,1.19.74-.28.49-1,2.81-1.32s7.27,2.32,7.65,2.05,2.78-2.41,1.52,0-5.31,3.44-6.88,2.19,0-3.87-2.54-2.19-3.29.7-6.21.87-3,3.36-4,.8a5,5,0,0,1,1.85-5.86C153.16,285.45,153.36,285.54,153.44,285.75Z"/><path class="cls-18" d="M186.82,296.84c1.29,0,4.62-.28,5.59,0s4.51,2.22,7.43,1.19,6-1.65,8-.25-.15,1.57-2.14,1.49-1.38-.35-3.81.94-7.85,1.15-7.85,1.15L190,300.21s-6.38.76-9,1.15S181.22,296.84,186.82,296.84Z"/><path class="cls-18" d="M205.7,285.92c-1.61,1.1-4.27-2.07-8.45-5.23s-1.55-.24-2.95,1-3.72.92-5.71-.83-4.09-2.76-2-3,2.14,1.43,4.78,1,.9-1.63,5.85,0,5.92-2.08,5.92-2.08l0,.06c1.08,3.3,1.49,5.61,2.75,7h0C206.15,284.84,206.12,285.63,205.7,285.92Z"/><path class="cls-20" d="M152.77,305.1a.53.53,0,0,0,.26,0l.49-.09,19.18-3.75a.6.6,0,0,0,.45-.34l0-.06a.9.9,0,0,0,0-.33.61.61,0,0,0-.71-.48l-18.76,3.66-1.2.3v0a.58.58,0,0,0-.2.59A.55.55,0,0,0,152.77,305.1Z"/><path class="cls-21" d="M136,310.54a1.47,1.47,0,0,0,.19-.88,1.53,1.53,0,0,0-1.66-1.37L41,317.22a1.52,1.52,0,1,0,.29,3l93.5-8.93A1.52,1.52,0,0,0,136,310.54Z"/><path class="cls-20" d="M133.21,311.58l10.81-.44a.56.56,0,0,0,.3-.07h0c1.38-.58-.18-4.7-.41-4.63l-11,2c-.48,0-.49,1.88-.45,2.07C132.7,311.19,133,311.56,133.21,311.58Z"/><path class="cls-22" d="M152.57,305a.53.53,0,0,0,.26,0l.49-.09,19.18-3.75a.62.62,0,0,0,.45-.34l0-.06a.9.9,0,0,0,0-.33.58.58,0,0,0-.2-.31.57.57,0,0,1,.4.42.9.9,0,0,1,0,.33l0,.06a.6.6,0,0,1-.45.34L153.52,305l-.49.09a.53.53,0,0,1-.26,0,.58.58,0,0,1-.31-.16S152.52,305,152.57,305Z"/><path class="cls-20" d="M174.63,301.61a.59.59,0,0,0,0-.37.61.61,0,0,0-.71-.49l-20.82,4.08a.61.61,0,0,0-.48.71.63.63,0,0,0,.72.49L174.19,302A.59.59,0,0,0,174.63,301.61Z"/><path class="cls-22" d="M153.09,305.87l20.81-4.07a.59.59,0,0,0,.44-.35.67.67,0,0,0,0-.37c0-.12-.11-.19-.18-.28a.58.58,0,0,1,.46.44.59.59,0,0,1,0,.37.59.59,0,0,1-.44.34L153.38,306a.58.58,0,0,1-.54-.21A.74.74,0,0,0,153.09,305.87Z"/><path class="cls-20" d="M177.14,302.72a.55.55,0,0,0,0-.36.6.6,0,0,0-.7-.5L153,305.92a.62.62,0,0,0-.5.71.63.63,0,0,0,.71.5l23.45-4.06A.62.62,0,0,0,177.14,302.72Z"/><path class="cls-22" d="M153,307l23.45-4.06a.63.63,0,0,0,.45-.35.64.64,0,0,0,0-.36.56.56,0,0,0-.19-.3.57.57,0,0,1,.38.79.62.62,0,0,1-.45.35l-23.45,4.06a.57.57,0,0,1-.51-.2A.64.64,0,0,0,153,307Z"/><path class="cls-20" d="M179.11,304.16a.59.59,0,0,0,0-.35.61.61,0,0,0-.7-.51l-24.82,3.79a.61.61,0,1,0,.18,1.21l24.83-3.79A.6.6,0,0,0,179.11,304.16Z"/><path class="cls-20" d="M181.29,306.26a.56.56,0,0,0,.05-.34.61.61,0,0,0-.69-.52l-26.09,3.79a.62.62,0,0,0-.51.7.61.61,0,0,0,.69.51l26.08-3.79A.6.6,0,0,0,181.29,306.26Z"/><path class="cls-20" d="M183.39,307.85a.72.72,0,0,0,.05-.33.62.62,0,0,0-.68-.53l-29.34,3.65a.62.62,0,0,0-.53.69.62.62,0,0,0,.68.53l29.34-3.65A.62.62,0,0,0,183.39,307.85Z"/><path class="cls-22" d="M153.59,308.17l24.82-3.79a.61.61,0,0,0,.52-.7.63.63,0,0,0-.19-.31.56.56,0,0,1,.42.44.59.59,0,0,1,0,.35.6.6,0,0,1-.46.35l-24.83,3.79a.59.59,0,0,1-.51-.2A.55.55,0,0,0,153.59,308.17Z"/><path class="cls-20" d="M184.65,309.61a.63.63,0,0,0,0-.31.62.62,0,0,0-.67-.55l-30.45,2.88a.61.61,0,1,0,.12,1.22L184.15,310A.61.61,0,0,0,184.65,309.61Z"/><path class="cls-20" d="M180.25,305.08a.76.76,0,0,0,.05-.34.62.62,0,0,0-.7-.52l-26.25,4a.6.6,0,0,0-.51.69.61.61,0,0,0,.69.52l26.25-4A.63.63,0,0,0,180.25,305.08Z"/><path class="cls-22" d="M153.21,309.28l26.25-4a.6.6,0,0,0,.46-.35.57.57,0,0,0,.05-.34.66.66,0,0,0-.17-.29.58.58,0,0,1,.49.47.64.64,0,0,1,0,.34.63.63,0,0,1-.47.35l-26.25,4a.58.58,0,0,1-.52-.23C153.08,309.24,153.14,309.29,153.21,309.28Z"/><path class="cls-20" d="M186.23,311.51a.54.54,0,0,0,.05-.28.61.61,0,0,0-.63-.59l-29.84,1.06a.61.61,0,0,0-.59.63.61.61,0,0,0,.63.59l29.84-1.06A.59.59,0,0,0,186.23,311.51Z"/><path class="cls-23" d="M132,310.51c.52-.05.33-1.85.9-2.06-.51.31-.58,2.57.12,3l-91.7,8.75a1.52,1.52,0,0,1-1.53-.93Z"/><path class="cls-22" d="M154.48,310.26l26.08-3.79a.65.65,0,0,0,.47-.36.56.56,0,0,0,.05-.34.61.61,0,0,0-.18-.31.58.58,0,0,1,.44.46.56.56,0,0,1-.05.34.6.6,0,0,1-.47.35l-26.08,3.79a.57.57,0,0,1-.51-.2A.71.71,0,0,0,154.48,310.26Z"/><path class="cls-22" d="M153.22,311.66,182.56,308a.65.65,0,0,0,.48-.35.74.74,0,0,0,.05-.33.66.66,0,0,0-.17-.29.58.58,0,0,1,.52.48.72.72,0,0,1-.05.33.62.62,0,0,1-.48.36l-29.34,3.65a.59.59,0,0,1-.51-.24C153.11,311.63,153.16,311.67,153.22,311.66Z"/><path class="cls-22" d="M153.17,312.55a.5.5,0,0,0,.29.09l30.45-2.87a.62.62,0,0,0,.5-.36.49.49,0,0,0-.08-.57.58.58,0,0,1,.37.46.63.63,0,0,1,0,.31.61.61,0,0,1-.5.36l-30.45,2.88A.58.58,0,0,1,153.17,312.55Z"/><path class="cls-22" d="M155.3,312.51a.58.58,0,0,0,.34.12l29.84-1.05a.63.63,0,0,0,.59-.63.61.61,0,0,0-.09-.18.57.57,0,0,1,.25.74.59.59,0,0,1-.54.35l-29.84,1.06A.6.6,0,0,1,155.3,312.51Z"/><path class="cls-20" d="M156.77,313.77l.12,0,4,.22H161l25.3-.76s.4-.2.44-.32a.57.57,0,0,0,.07-.25,0,0,0,0,1,0,0,.64.64,0,0,0-.64-.59l-26.58.8h0l-.92,0-1.35,0a.55.55,0,0,0-.43.23.07.07,0,0,0,0,0h0a.89.89,0,0,0-.11.37A.57.57,0,0,0,156.77,313.77Z"/><path class="cls-20" d="M144,311.14l12.76,2.69,4,.22h.12l-.53-.48h0l-.75-.69h0c-1.73-1.62-4.7-4.66-5.74-6.92a5.8,5.8,0,0,1-.33-.89,1.56,1.56,0,0,1,0-.3,1.36,1.36,0,0,1,.23-1l-1.19.31v0l-8.59,2.39L144,310Z"/><path class="cls-24" d="M133.21,311.58l10.92-.47,12.64,2.66.12,0,4,.22H161l25.3-.76s.4-.2.44-.32a.57.57,0,0,0,.07-.25c-1.66.59-21,.79-26.35.84h-1.34a16,16,0,0,1-2.2-.35h-.06l-3.73-.87-9.75-2.5-10.91.74C132.58,310.87,132.92,311.58,133.21,311.58Z"/><path class="cls-24" d="M152.26,305.29s-7.34,1.37-7.5,2.67l-.16,1.3s.35-1.3.87-1.62S152.26,305.29,152.26,305.29Z"/><path class="cls-17" d="M184.52,225.29a2.72,2.72,0,0,0,3.28,0s.29-1.44-1.67-2.63a7.31,7.31,0,0,0-4.36-.83A7.24,7.24,0,0,0,184.52,225.29Z"/><path class="cls-17" d="M200.63,233.52a3.82,3.82,0,0,0,3-3.5s-1.25-1.65-4.34-.68a10.29,10.29,0,0,0-4.94,3.84A10.25,10.25,0,0,0,200.63,233.52Z"/><path class="cls-17" d="M172.38,230.07a2.13,2.13,0,0,1,2.48-.68s.52,1-.71,2.34a5.67,5.67,0,0,1-3.11,1.54A5.69,5.69,0,0,1,172.38,230.07Z"/><path class="cls-17" d="M187.82,211.09a2.72,2.72,0,0,1-1,3.14s-1.46-.14-2-2.36a7.29,7.29,0,0,1,.47-4.41A7.31,7.31,0,0,1,187.82,211.09Z"/><path class="cls-17" d="M162.69,201.75a3.83,3.83,0,0,1,3.46-3.08s1.66,1.23.74,4.33a10.31,10.31,0,0,1-3.77,5A10.31,10.31,0,0,1,162.69,201.75Z"/><path class="cls-17" d="M171.91,185.53a2.7,2.7,0,0,0,1-3.12s-1.27-.73-3,.76a7.29,7.29,0,0,0-2.16,3.88A7.29,7.29,0,0,0,171.91,185.53Z"/><path class="cls-17" d="M184.8,172.84a3.82,3.82,0,0,0-2.37-4s-2,.67-2,3.9a10.31,10.31,0,0,0,2.09,5.9A10.24,10.24,0,0,0,184.8,172.84Z"/><path class="cls-17" d="M172.63,198.56a2.12,2.12,0,0,1,.14-2.56s1.13-.18,2,1.4a5.71,5.71,0,0,1,.49,3.44A5.71,5.71,0,0,1,172.63,198.56Z"/><path class="cls-17" d="M159.48,177.93a2.72,2.72,0,0,1,2.67,1.91s-.59,1.34-2.88,1.19a7.31,7.31,0,0,1-4-1.83A7.31,7.31,0,0,1,159.48,177.93Z"/><path class="cls-17" d="M142.7,198.84a3.82,3.82,0,0,1-1.83-4.25s1.69-1.2,4.34.66a10.2,10.2,0,0,1,3.55,5.15A10.31,10.31,0,0,1,142.7,198.84Z"/><path class="cls-17" d="M195.37,255.69a2.71,2.71,0,0,0,2-2.57s-.94-1.13-3.1-.35a7.27,7.27,0,0,0-3.38,2.87A7.29,7.29,0,0,0,195.37,255.69Z"/><path class="cls-17" d="M211.89,248.33c1.19-3-.82-4.56-.82-4.56s-2.06-.06-3.25,2.95a10.25,10.25,0,0,0-.11,6.26A10.25,10.25,0,0,0,211.89,248.33Z"/><path class="cls-17" d="M186.4,244.21a2.7,2.7,0,0,1,1.82,2.73s-1,1-3.11.1A7.28,7.28,0,0,1,182,243.9,7.31,7.31,0,0,1,186.4,244.21Z"/><path class="cls-17" d="M163.35,257.9a3.83,3.83,0,0,1-.23-4.63s2-.52,3.84,2.14a10.3,10.3,0,0,1,1.51,6.08A10.31,10.31,0,0,1,163.35,257.9Z"/><path class="cls-17" d="M156.52,240.53a2.71,2.71,0,0,0-1.8-2.74s-1.37.53-1.31,2.82a7.27,7.27,0,0,0,1.67,4.12A7.3,7.3,0,0,0,156.52,240.53Z"/><path class="cls-17" d="M154.73,222.53a3.82,3.82,0,0,0-4.58-.66s-.71,1.94,1.77,4a10.36,10.36,0,0,0,5.91,2.08A10.24,10.24,0,0,0,154.73,222.53Z"/><path class="cls-17" d="M167.1,248.16a2.12,2.12,0,0,1-1.9-1.72s.57-1,2.34-.67a5.66,5.66,0,0,1,3,1.78A5.73,5.73,0,0,1,167.1,248.16Z"/><path class="cls-17" d="M142.79,245.43a2.73,2.73,0,0,1,3.17-.88s.67,1.31-.89,3a7.29,7.29,0,0,1-4,2A7.32,7.32,0,0,1,142.79,245.43Z"/><path class="cls-17" d="M18.56,231.64c1.25,20.35,9.81,39.5,17.08,51.65a37.12,37.12,0,0,0,20.93,16.15l.09,0a37.9,37.9,0,0,0,10.78,1.68c1.29,0,3,.06,4.94-.09a31.19,31.19,0,0,0,17.1-6.73,52.59,52.59,0,0,0,9.23-9.18,91,91,0,0,0,19.82-64.88c-.21-2.6-3.83-32.06-4-34.21-.63-9,2.49-19.18,0-35a45.44,45.44,0,0,0-3.21-11.81A95.85,95.85,0,0,1,107,127.74c-1.57-5.08-.45-11.31-4.69-10.48-2.19.42-8.15-13.55-8.15-30.46,0-12.1-5.27-23.22-8.29-28.59A41.84,41.84,0,0,1,82.59,50c-1.18-4-5.25-10.67-8.43-11.68a.52.52,0,0,0-.15-.06l-.28-.06c-.12,0-.23,0-.35,0-.92,0-1.72.62-2.3,2.1l-.81,2.21C69,46,68,49,67.14,51.08a13.86,13.86,0,0,1-.68,1.43,2.43,2.43,0,0,1-.26.44,2.08,2.08,0,0,1-.25.38,2.6,2.6,0,0,1-.67.69,15.26,15.26,0,0,0-5.34,10.64c-.06.72-.12,1.45-.21,2.14a15,15,0,0,1-.91,3.78h0a4.43,4.43,0,0,1-.3.67,4.13,4.13,0,0,1-.35.65,4.38,4.38,0,0,1-.39.6,3,3,0,0,1-.33.41,6.34,6.34,0,0,1-2.62,1.84,5.16,5.16,0,0,0-1,.53,1.73,1.73,0,0,0-.31.22,4.4,4.4,0,0,0-1,1,2.41,2.41,0,0,0-.27.41,3.58,3.58,0,0,0-.25.42,7.11,7.11,0,0,0-.34.8,12.41,12.41,0,0,0-.59,2c-.92,4.23-3.85,7.48-7.37,10a3.13,3.13,0,0,0-.64.59,2.78,2.78,0,0,0-.21.27,21.15,21.15,0,0,0-2.46,5.71c-.11.34-.21.67-.32,1-.54,1.9-1.08,4.07-1.6,6.44l-.36,1.71c-.47,2.33-.91,4.79-1.31,7.34,0,.32-.1.63-.16,1-.19,1.28-.37,2.58-.55,3.89-.08.62-.17,1.26-.25,1.89a.28.28,0,0,1,0,.09c-.08.67-.15,1.33-.24,2-.4,3.5-.71,7-.91,10.33q0,.5-.06,1a101.38,101.38,0,0,0-.07,11c1.2,21.43-7.1,36.86-14.17,65.42-.17.68-.32,1.38-.47,2.07s-.27,1.39-.41,2.08a.09.09,0,0,1,0,.05A73.1,73.1,0,0,0,18.56,231.64Z"/><path class="cls-25" d="M73.48,143.41s-7.34-21.37-8-16.5c-.58,4.35-1.73,4.6-1.73,4.6s-1.9-14.25-3-15.56c-1.69-2.11-5.61,22-7.74,23s-3-2.48-3.59-2.48c-1.72,0-3.83,19.64-3.83,19.64S49.58,144,51.55,143.6s4.65,2.79,6.8-2.6,2.87-2.86,5.92-3,2.25-4.84,3.72-4S73.48,143.41,73.48,143.41Z"/><path class="cls-25" d="M38.89,214s3.87-21.65,4.48-16.28c.54,4.8,3.07,2.82,3.07,2.82s2.77-5,3.33-6.44c.89-2.38,2,13.33,3.31,14.45s1.67-2.81,2-2.83c1,0,2.3,13.51,2.3,13.51s-2-5.2-3.18-5.63-2.6,3.2-4.12-2.69-1.82-3.1-3.62-3.23-1.55-5.28-2.38-4.26S38.89,214,38.89,214Z"/><path class="cls-25" d="M93.78,210.83c.57,4.35,3.48,10.76,4.53,9.45,1.68-2.11,2.8-14.77,4.92-13.7s-1.37,21.32,4.32,19.21c1.62-.61.14,18.93.14,18.93s-1.58-14.29-3.56-14.72-2.69,1-4.84-4.38c-4.9,0-3.82-7.8-6.87-8s-5.59,4.06-7.07,5S93.13,206,93.78,210.83Z"/><path class="cls-25" d="M82.31,191.41s-.31-11.93,2.9-9.47c3.73,2.85,1.15-8.31,3.73-11.67C90.75,174,90.1,180,92.08,180s3.29-5.38,4.9-4.1,4.1,6.22,4.36,10.22-4-8.48-6-6.12-4.52,1.33-5.94.73-.92,7.85-3.68,5.39S82.31,191.41,82.31,191.41Z"/><path class="cls-25" d="M67,172.07s-3.76-7.64-5-5c-1.41,3-3.47-4.87-6.2-6.14.09,3,2.48,6.54,1.23,7.19s-3.85-2.31-4.45-1-.54,5.28.63,7.9-.25-6.69,1.76-5.86,3.3-.65,4-1.5,3.17,4.66,4.1,2.2S67,172.07,67,172.07Z"/><path class="cls-25" d="M89.27,245.43s-5.36-11.22-6.52-9.14,0,6.58-1.4,5.65-3.66-12.32-4.74-13.24.88,10.23-.75,9.32-2.77-5.39-3.69-1.22a47.68,47.68,0,0,0-1,8.41s1.31-6.6,2.92-6,2.93,1.55,3.62.45,2.44,4.86,3.52,5.32,2.59-5.6,3.24-4.92S89.27,245.43,89.27,245.43Z"/><path class="cls-25" d="M73.21,51.93S74,39,75,43.45s.33,7.29,1.86,5.6S79.6,44,80.76,50.91s.17,10.69,1.18,8.48,1.51-1.36,1.85,2.55.34,7.63,0,6.44-1-6.44-1.85-6.44-2.29-3.4-2.51-7.13-3.25-4.41-3.6-3.05S73.21,51.93,73.21,51.93Z"/><path class="cls-25" d="M72.43,83s.4-15.09-1.41-12.21-1.08,5.94-2,7.13S66.72,74.65,67,74A68.37,68.37,0,0,0,64.8,85.51c-.34,5.42,2.16-4.58,4.26-5.6S72.43,83,72.43,83Z"/><path class="cls-25" d="M85.17,117.76s.41-15.26,2.43-8.82,4.29,10.35,3.75,7.64,1.66-12.72,2.51-2.72,2.72,18,2.38,12.38,4.79-2.7,4.57,8.68c-4.57-8.68-4.74-.5-5.59-5.76s-3.35-4.11-3.87-8.85-1.77,2.09-2.71-.34C85.87,112.84,85.17,117.76,85.17,117.76Z"/><g class="cls-26"><path class="cls-17" d="M55.31,83.43c-1.5-4.78-3.07-4.81-4.51-1.91.53-3.13,1.31-5.7,4-6.76a6.84,6.84,0,0,0,4-4.19C58.32,74.55,58.35,79.44,55.31,83.43Z"/><path class="cls-17" d="M59.73,66.8a5.2,5.2,0,0,1,2.77-2.9c4.64-2,4.66-7.69,4.64-12.82a13.86,13.86,0,0,1-.68,1.43,4.64,4.64,0,0,1-.26.44,2.49,2.49,0,0,1-.25.38,2.6,2.6,0,0,1-.67.69,15.26,15.26,0,0,0-5.34,10.64C59.88,65.38,59.82,66.11,59.73,66.8Z"/><path class="cls-17" d="M70.27,42.48c.26-.72.53-1.44.82-2.2.72-1.89,1.82-2.37,3.07-2C73,42,71.92,43.81,70.27,42.48Z"/><path class="cls-17" d="M18.56,231.64c1.25,20.35,9.81,39.5,17.08,51.65a37.12,37.12,0,0,0,20.93,16.15l.09,0a43.57,43.57,0,0,0,9.79,1.43c2,.06,4,.12,5.93.16a31.19,31.19,0,0,0,17.1-6.73,5.25,5.25,0,0,0-1.94-.34c-5.69.06-10.45-3.22-15.24-9.16A24.62,24.62,0,0,0,60.55,277c-7.53-2.44-11.4-13-14.31-24a40.19,40.19,0,0,0-4.76-11.18c-5.55-8.77-6.32-30.81-4.18-41.59-3.61-16.76,5.27-40.93,3.06-62.28-6.6-4.55,5.2-33.2,7.45-45.55a11.17,11.17,0,0,1-1.07,1.51c-.91-3.43-2-4.49-3.05-3.81a3.13,3.13,0,0,0-.64.59,2.78,2.78,0,0,0-.21.27,21.15,21.15,0,0,0-2.46,5.71c-.11.34-.21.67-.32,1-.54,1.9-1.08,4.07-1.6,6.44l-.36,1.71c-.47,2.33-.91,4.79-1.31,7.34,0,.32-.1.63-.16,1-.19,1.28-.37,2.58-.55,3.89-.08.62-.17,1.26-.25,1.89a.28.28,0,0,1,0,.09c-.08.67-.15,1.33-.24,2-.4,3.5-.71,7-.91,10.33q0,.5-.06,1a101.38,101.38,0,0,0-.07,11c1.2,21.43-7.1,36.86-14.17,65.42-.17.68-.32,1.38-.47,2.07s-.27,1.39-.41,2.08a.09.09,0,0,1,0,.05A80.52,80.52,0,0,0,18.56,231.64Z"/></g><path class="cls-25" d="M69.06,267.93S57.82,245.59,57.84,251c0,4.86-1.2,5.3-1.2,5.3S52.42,241,51.07,239.72c-2.17-2.07-2.86,24.94-5,26.42s-3.7-2.27-4.3-2.18c-1.9.26-1.27,22.1-1.27,22.1S40.86,273,43,272.19s7.6,1.59,9.16-4.63,2.71-3.58,6-4.23,1.74-5.64,3.49-4.88S69.06,267.93,69.06,267.93Z"/><path class="cls-25" d="M69.57,105a2.87,2.87,0,0,0,.17,3.49s1.54.25,2.73-1.89a7.71,7.71,0,0,0,.7-4.67A7.77,7.77,0,0,0,69.57,105Z"/><path class="cls-25" d="M71.61,107.9a2.27,2.27,0,0,0-.66,2.65s1.1.53,2.47-.8A6,6,0,0,0,75,106.41,6,6,0,0,0,71.61,107.9Z"/><path class="cls-25" d="M65.46,110.22a2.26,2.26,0,0,0,1.92,2s1-.67.6-2.53a6.07,6.07,0,0,0-2-3.08A6.06,6.06,0,0,0,65.46,110.22Z"/><path class="cls-25" d="M64.74,114.36a1.69,1.69,0,0,0,1.44,1.46s.77-.5.45-1.89a4.57,4.57,0,0,0-1.52-2.32A4.54,4.54,0,0,0,64.74,114.36Z"/><path class="cls-25" d="M83.71,75.49a2.22,2.22,0,0,1-.12,2.69s-1.19.19-2.1-1.45a6,6,0,0,1-.54-3.6A6,6,0,0,1,83.71,75.49Z"/><path class="cls-25" d="M82,78.43A1.32,1.32,0,0,1,82.41,80s-.64.31-1.45-.47a3.58,3.58,0,0,1-.92-2A3.55,3.55,0,0,1,82,78.43Z"/><path class="cls-25" d="M86.36,73a2,2,0,0,1-1.68,1.69s-.89-.57-.52-2.19a5.3,5.3,0,0,1,1.78-2.69A5.32,5.32,0,0,1,86.36,73Z"/><path class="cls-25" d="M85.94,78.89a1.71,1.71,0,0,1-1.58,1.32s-.71-.57-.26-1.93a4.55,4.55,0,0,1,1.74-2.16A4.58,4.58,0,0,1,85.94,78.89Z"/><path class="cls-25" d="M86.07,127a2.2,2.2,0,0,0,.12,2.68s1.19.19,2.1-1.45a6,6,0,0,0,.54-3.59A5.91,5.91,0,0,0,86.07,127Z"/><path class="cls-25" d="M88.27,139.73a1.32,1.32,0,0,0-.39,1.56s.64.31,1.45-.47a3.55,3.55,0,0,0,.92-2A3.55,3.55,0,0,0,88.27,139.73Z"/><path class="cls-25" d="M84.24,134.57a2,2,0,0,0,2.16,1s.64-.85-.27-2.24a5.32,5.32,0,0,0-2.59-1.91A5.35,5.35,0,0,0,84.24,134.57Z"/><path class="cls-25" d="M84.35,140.2a1.69,1.69,0,0,0,1.58,1.31s.71-.57.26-1.93a4.5,4.5,0,0,0-1.74-2.15A4.57,4.57,0,0,0,84.35,140.2Z"/><path class="cls-25" d="M44.73,126.68a1.33,1.33,0,0,0,.73,1.43s.69-.19.78-1.31a3.56,3.56,0,0,0-.6-2.09A3.53,3.53,0,0,0,44.73,126.68Z"/><path class="cls-25" d="M42.09,129.61a1.7,1.7,0,0,0,2-.05s.16-.9-1.07-1.63a4.57,4.57,0,0,0-2.73-.47A4.56,4.56,0,0,0,42.09,129.61Z"/><path class="cls-25" d="M53.62,151.41a1.33,1.33,0,0,0,.74,1.43s.69-.19.77-1.31a3.58,3.58,0,0,0-.59-2.09A3.58,3.58,0,0,0,53.62,151.41Z"/><path class="cls-25" d="M51,154.34a1.7,1.7,0,0,0,2.05-.05s.17-.9-1.07-1.63a4.56,4.56,0,0,0-2.73-.47A4.63,4.63,0,0,0,51,154.34Z"/><path class="cls-17" d="M108.05,87.69a2.11,2.11,0,0,0-1.26,2.23s.86.76,2.43-.11a5.66,5.66,0,0,0,2.27-2.63A5.71,5.71,0,0,0,108.05,87.69Z"/><path class="cls-17" d="M98.74,91a2.7,2.7,0,0,0,1.86,2.7s1.35-.56,1.24-2.86a7.31,7.31,0,0,0-1.76-4.07A7.27,7.27,0,0,0,98.74,91Z"/><path class="cls-17" d="M134,109.47a2.71,2.71,0,0,0-3.2-.71s-.61,1.34,1,2.94a7.32,7.32,0,0,0,4.07,1.77A7.27,7.27,0,0,0,134,109.47Z"/><path class="cls-17" d="M117.47,115.84a3.84,3.84,0,0,0-2.86-3.65s-1.86.92-1.5,4.14a10.3,10.3,0,0,0,2.83,5.58A10.25,10.25,0,0,0,117.47,115.84Z"/><path class="cls-17" d="M120.13,97.84a3.83,3.83,0,0,0-3.73,2.74s.85,1.89,4.08,1.63a10.23,10.23,0,0,0,5.67-2.64A10.3,10.3,0,0,0,120.13,97.84Z"/><path class="cls-17" d="M146.9,107.51a2.11,2.11,0,0,1-2.56.11s-.28-1.11,1.2-2.12a5.66,5.66,0,0,1,3.38-.81A5.69,5.69,0,0,1,146.9,107.51Z"/><path class="cls-17" d="M127.62,122.56a2.7,2.7,0,0,1,1.65-2.83s1.39.45,1.45,2.75a7.23,7.23,0,0,1-1.43,4.19A7.22,7.22,0,0,1,127.62,122.56Z"/><path class="cls-17" d="M150,137.27a3.84,3.84,0,0,1-4.06,2.24s-1.35-1.57.25-4.39a10.27,10.27,0,0,1,4.79-4A10.3,10.3,0,0,1,150,137.27Z"/><path class="cls-17" d="M137.42,151a2.72,2.72,0,0,0-1.68,2.82s1.08,1,3.12-.07a7.28,7.28,0,0,0,3-3.3A7.31,7.31,0,0,0,137.42,151Z"/><path class="cls-17" d="M122,160.53a3.84,3.84,0,0,0,1.42,4.41s2.06-.22,2.84-3.36a10.32,10.32,0,0,0-.73-6.22A10.34,10.34,0,0,0,122,160.53Z"/><path class="cls-17" d="M139.63,138.17a2.12,2.12,0,0,1-.71,2.47s-1.14-.09-1.63-1.81a5.75,5.75,0,0,1,.29-3.46A5.65,5.65,0,0,1,139.63,138.17Z"/><path class="cls-17" d="M147.84,161.21a2.71,2.71,0,0,1-2.17-2.46s.87-1.17,3.07-.51a7.25,7.25,0,0,1,3.53,2.69A7.34,7.34,0,0,1,147.84,161.21Z"/><path class="cls-17" d="M168.86,144.58a3.81,3.81,0,0,1,.84,4.55s-1.91.79-4.08-1.61a10.27,10.27,0,0,1-2.32-5.82A10.29,10.29,0,0,1,168.86,144.58Z"/><path class="cls-27" d="M99.88,123.61a1.94,1.94,0,0,0,2.65-.75c.38-.52.75-1,1.12-1.57a97,97,0,0,0,5.19-8.32c1-1.73,1.93-3.53,2.88-5.39.41-.79.8-1.6,1.2-2.42s.7-1.45,1-2.2.84-1.82,1.27-2.75a.68.68,0,0,0-.21-.86c-.18-.12-1.34,1.55-3.15,4-.54.73-1.14,1.53-1.8,2.38s-1.35,1.74-2.1,2.65c-.16.21-.35.42-.51.62-1.15,1.38-1.48,2.91-3.07,4.39a4.82,4.82,0,0,0-1,1.35,9.14,9.14,0,0,0-.45,1.08,5.43,5.43,0,0,1-.57,1.16,6.63,6.63,0,0,1-1,1.28,3,3,0,0,1-.25.25,8.61,8.61,0,0,0-2,2.41,2,2,0,0,0-.22.59A2,2,0,0,0,99.88,123.61Z"/><path class="cls-28" d="M101.1,118.53a6.82,6.82,0,0,0,1.84-2.69,5.88,5.88,0,0,1,1.45-2.43c1.59-1.48,1.92-3,3.07-4.39,4.27-5.11,7.27-9.88,7.57-9.67a.27.27,0,0,1,.07.08s0,0,0,0c-.3-.2-3.18,4.64-7.31,9.86-1.12,1.41-1.41,2.94-3,4.46a5.87,5.87,0,0,0-1.39,2.47,6.9,6.9,0,0,1-1.77,2.74,8.42,8.42,0,0,0-1.92,2.47,2,2,0,0,0,.37,2.31,1.28,1.28,0,0,1-.24-.11,2,2,0,0,1-.75-2.66A8.44,8.44,0,0,1,101.1,118.53Z"/><path class="cls-29" d="M99.12,121a2,2,0,1,0,3.42,1.91c.37-.51.46-.59.82-1.14a4.27,4.27,0,0,0-.53-2c-.77-1.16-.46-1.75-.45-2.7a7.18,7.18,0,0,1-1.28,1.53A8.44,8.44,0,0,0,99.12,121Z"/><path class="cls-27" d="M88.52,98.47q1.58,4.55,3.33,8.8c.28.7.58,1.4.88,2.09s.63,1.46,1,2.17c.86,1.91,1.76,3.77,2.7,5.55.81,1.53,1.64,3,2.51,4.45l.35.58a2,2,0,1,0,3.56-1.61,7.54,7.54,0,0,0-1.45-2.22c-.13-.17-.3-.34-.47-.52A5.53,5.53,0,0,1,99.73,116a2.88,2.88,0,0,1-.2-.56,6.59,6.59,0,0,0-1.33-2.88A7.28,7.28,0,0,1,97,110.79c-.39-.72-.67-1.42-1-2.11a5.67,5.67,0,0,0-.47-.77l-.82-1.18c-3.37-5-5.61-9.26-5.9-9.09A.66.66,0,0,0,88.52,98.47Z"/><path class="cls-28" d="M102.33,120.85a8.65,8.65,0,0,0-2-3,4.21,4.21,0,0,1-1-1.86,7.28,7.28,0,0,0-1.37-3.22c-1.42-1.64-1.59-3.19-2.6-4.68-3.72-5.52-6.21-10.57-6.53-10.4a.79.79,0,0,0-.17.14.63.63,0,0,1,.23-.23c.31-.19,2.89,4.82,6.72,10.27,1,1.47,1.23,3,2.69,4.63a6.56,6.56,0,0,1,1.33,2.87,5.41,5.41,0,0,0,1.36,2.35,8.36,8.36,0,0,1,1.92,2.74,1.94,1.94,0,0,1-1,2.59h0A1.94,1.94,0,0,0,102.33,120.85Z"/><path class="cls-20" d="M98.9,122.1a2,2,0,0,0,.74,1.37l.14.22c.13.2.28.44.41.67s.31.52.46.79.26.44.38.67l.22.39c.48.86,1,1.74,1.42,2.63q1.62,3,3.2,6.14c.53,1,1.06,2.07,1.58,3.12,1.58,3.08,3.13,6.18,4.68,9.28q1.32,2.63,2.62,5.25,2.79,5.63,5.57,11.27c1.38,2.79,2.75,5.6,4.13,8.4h0a2.6,2.6,0,1,0,4.67-2.29l0-.05q-2.81-5.44-5.63-10.85-2.28-4.37-4.57-8.7h0l-2.7-5.12c-1.67-3.14-3.34-6.29-5-9.42-.51-1-1-1.91-1.55-2.87q-1.65-3.06-3.37-6.12c-.56-1-1.14-2-1.74-3.06-.3-.51-.6-1-.93-1.54l-.37-.57-.15-.22c-.09-.14-.21-.29-.32-.45l-.25-.3-.29-.27-.07-.06-.17-.11-.23-.13a2.22,2.22,0,0,0-1-.19,2,2,0,0,0-1.8,2.12Z"/><path class="cls-30" d="M99.53,122.83l.16.22c.13.19.29.42.43.65s.33.51.49.77.27.43.4.65l.24.39c.51.84,1,1.7,1.52,2.57,1.15,2,2.3,4,3.43,6,.57,1,1.14,2,1.7,3.06,1.7,3,3.37,6,5,9.09l2.82,5.15q3,5.52,6,11,2.23,4.11,4.45,8.24h0a2.59,2.59,0,0,0,3.06,1.24,2.57,2.57,0,0,1-1.33,1.58,2.6,2.6,0,0,1-3.48-1.19h0c-1.38-2.8-2.75-5.61-4.13-8.4q-2.77-5.64-5.57-11.27-1.31-2.62-2.62-5.25c-1.55-3.1-3.1-6.2-4.68-9.28-.52-1-1-2.08-1.58-3.12q-1.58-3.09-3.2-6.14c-.47-.89-.94-1.77-1.42-2.63l-.22-.39c-.12-.23-.25-.45-.38-.67s-.3-.54-.46-.79-.28-.47-.41-.67l-.14-.22a2,2,0,0,1-.74-1.37V122A2,2,0,0,0,99.53,122.83Z"/><path class="cls-31" d="M98.9,122.1a2,2,0,0,0,.74,1.37l.14.22c.13.2.28.44.41.67s.31.52.46.79.26.44.38.67l.22.39c.3-.53.66-1.11,1.08-1.72a4.22,4.22,0,0,0,.88-2.78l-.15-.22c-.09-.14-.21-.29-.32-.45l-.25-.3-.29-.27-.07-.06-.17-.11-.23-.13a2.22,2.22,0,0,0-1-.19,2,2,0,0,0-1.8,2.12Z"/><path class="cls-20" d="M96.8,123.73q-1,1.45-1.89,2.91-1.86,2.91-3.67,5.84c-.38.63-.77,1.26-1.16,1.88-2,3.27-4,6.56-6,9.84-.54.88-1.07,1.78-1.61,2.66q-3.26,5.38-6.49,10.78-3,5-6,10.12a2.6,2.6,0,1,0,4.47,2.65l0,0c1.59-2.8,3.17-5.61,4.77-8.42q3.32-5.83,6.65-11.66L88,146.52q2.53-4.43,5.11-8.82l1.77-3c1.16-2,2.32-3.93,3.5-5.87.59-1,1.19-1.93,1.78-2.88l.49-.77.42-.63.44-.64.16-.21h0a2,2,0,0,0-1.18-3.55,2.25,2.25,0,0,0-.56.09l-.29.11a1.88,1.88,0,0,0-.37.21l-.08.06-.26.23-.25.28-.34.42c-.2.26-.37.51-.55.76C97.45,122.76,97.13,123.25,96.8,123.73Z"/><path class="cls-32" d="M100,121.49a.62.62,0,0,0,.17.84.61.61,0,0,0,.84-.18.6.6,0,0,0-.18-.83A.61.61,0,0,0,100,121.49Z"/><path class="cls-33" d="M107.45,138.1c1.58,3.08,3.13,6.18,4.68,9.28q1.32,2.63,2.62,5.25c0-.81,3.56-2.39,4.14-2.21h0l-2.7-5.12c-1.67-3.14-2.7-5.1-4.39-8.23C110.58,137,107.2,137.59,107.45,138.1Z"/><path class="cls-33" d="M89.48,135.34c-2,3.27-3.42,5.58-5.42,8.86-.54.88-1.07,1.78-1.61,2.66A11.56,11.56,0,0,1,86.56,149c.71-1.26.72-1.26,1.44-2.51,1.69-3,4.57-7.91,6.29-10.84C94.3,135.34,90.43,135.28,89.48,135.34Z"/><path class="cls-34" d="M76,157.64q-3,5-6,10.12a2.6,2.6,0,1,0,4.47,2.65l0,0c1.59-2.8,3.17-5.61,4.77-8.42C77.53,161.35,75.73,158.87,76,157.64Z"/><path class="cls-34" d="M120.32,163.9c1.38,2.79,2.75,5.6,4.13,8.4h0a2.6,2.6,0,1,0,4.67-2.29l0-.05q-2.81-5.44-5.63-10.85C123.65,160,121,163.36,120.32,163.9Z"/><path class="cls-30" d="M97.8,122.27c.18-.25.35-.5.55-.76l.34-.42.25-.28.25-.21c-.09.12-.17.24-.25.37-.33.5-.64,1-1,1.48-.62,1-1.22,2-1.81,3-1.17,2-2.33,4-3.49,5.94-.36.64-.73,1.29-1.1,1.92-1.92,3.33-3.83,6.68-5.72,10-.51.89-1,1.8-1.53,2.71q-3.09,5.48-6.17,11l-5.73,10.3a2.59,2.59,0,0,0,1,3.53,3,3,0,0,0,.45.2,2.59,2.59,0,0,1-4-3.24q3-5.07,6-10.12,3.24-5.4,6.49-10.78c.54-.88,1.07-1.78,1.61-2.66,2-3.28,4-6.57,6-9.84.39-.62.78-1.25,1.16-1.88q1.82-2.92,3.67-5.84.93-1.45,1.89-2.91C97.13,123.25,97.45,122.76,97.8,122.27Z"/><path class="cls-35" d="M100.49,121.23a.57.57,0,0,0-.34.25.59.59,0,0,0,.17.83.63.63,0,0,0,.35.09.65.65,0,0,1-.49-.07.62.62,0,0,1-.17-.84A.59.59,0,0,1,100.49,121.23Z"/><path class="cls-28" d="M110.07,105.75l2.85-.59c.35-.73.7-1.45,1-2.2l-2.09.41C111.33,104.1,110.73,104.9,110.07,105.75Z"/><path class="cls-28" d="M91.85,107.27c.28.7.58,1.4.88,2.09l3.25-.68a5.67,5.67,0,0,0-.47-.77l-.82-1.18Z"/><path class="cls-28" d="M103.39,114.76l5.45-1.79c1-1.73,1.93-3.53,2.88-5.39l-3.75.82c-.16.21-.35.42-.51.62-1.15,1.38-1.48,2.91-3.07,4.39A4.82,4.82,0,0,0,103.39,114.76Z"/><path class="cls-28" d="M93.69,111.53c.86,1.91,1.76,3.77,2.7,5.55l3.34-1.1a2.88,2.88,0,0,1-.2-.56,6.59,6.59,0,0,0-1.33-2.88A7.28,7.28,0,0,1,97,110.79Z"/><polygon class="cls-33" points="92.7 201.78 91.64 184.45 95.3 190.11 92.7 201.78"/><path class="cls-36" d="M128.55,168.69s.81-6.76-1.51-7.39c-1.25-.33-2.33-1.58-3.09-1.23.57.87,0,3-1.07,4.11-3.3-.48-2.44,1.09-2.32,1.66a9,9,0,0,0,3.17,4.62C128.32,174,128.55,168.69,128.55,168.69Z"/><path class="cls-27" d="M80.59,304.71c7.4.61,7.71,1.57,11.78,2.35,1.24.25,4.21-.39,4.58-1.72.16-.59.06-1-.36-4.42a64.71,64.71,0,0,1-.32-9.41c.49-10.64-9.28-7-8.41,4.29a2.47,2.47,0,0,1-2,2.66,7.94,7.94,0,0,1-3.07,0c-2.42-.12-3,0-4,.63a2.61,2.61,0,0,0-1.27,2.43C77.46,303.84,78.16,304.07,80.59,304.71Z"/><path class="cls-27" d="M101.6,301.94c7.34,1.12,7.59,2.1,11.6,3.16,1.21.34,4.22-.09,4.68-1.4.2-.58.13-1-.06-4.43a63.86,63.86,0,0,1,.34-9.41c1.22-10.58-8.77-7.66-8.68,3.69a2.93,2.93,0,0,1-1.34,2.58,4,4,0,0,1-2.6.71,17.91,17.91,0,0,0-4.5.44,7.29,7.29,0,0,0-1.2.41,1.63,1.63,0,0,0-1.14,1.83C98.68,300.59,99.23,301.13,101.6,301.94Z"/><path class="cls-27" d="M119.11,293.16s-.15-.7-5.33-1.53-5.32-.39-5.32-.39.23,2.12,4.24,2.73S119.06,294.11,119.11,293.16Z"/><path class="cls-27" d="M98.44,295.11s.41-.93-6.66-1.44c0,0-5.61-.47-5.54.3s2.11,2.14,2.11,2.14S98.23,298.56,98.44,295.11Z"/><path class="cls-34" d="M118.64,293.43c.09,2-9.81,1.63-9.64-1.3-.3-10.14-.15-21-2-30.75,4.17-1.22,8.39-2.73,12.7-3.85C120.46,269.81,120.73,281.55,118.64,293.43Z"/><path class="cls-34" d="M99.24,263.09c-.82,10.14-1.49,23.31-1.88,33,0,2.54-10.3,2.78-10.22-.65,0-.64-.32-5-.6-9.4-.64-10.4-1.22-16.8-1.28-23,3.47.15,6.91.33,10.16.33A28.88,28.88,0,0,0,99.24,263.09Z"/><path class="cls-34" d="M90.56,219.78c1.26-6.24,1-4.64,4.07-5.09,2.36-.34,8.49.17,13.23,1.74,2.73-2.47,6.39-4,9.25-3.24s4.39,2.16,4.67,5.67c.1,1.24,2,7.19.67,11.12,0,0-.12.74-.28,1.92-.13.93-.3,2.16-.49,3.58-.83,6.37-2,16.59-2,21.33,0,.24,0,.48,0,.72-4.31,1.12-8.53,2.63-12.7,3.85-.15-.76-.27-1.53-.44-2.27-.19-1.23-.37-2.44-.51-3.66a.52.52,0,0,1,0-.14,3.93,3.93,0,0,1-.06-.48c-.07-.57-.15-1.14-.2-1.72-.23-2-.42-4-.58-5.92-.25-3.18-1.29-6.92-1.79-5-1.59,6-3.42,13.22-4,18.44q-.11,1.22-.21,2.49a28.88,28.88,0,0,1-3.82.28c-3.25,0-6.69-.18-10.16-.33,0-.51,0-1,0-1.53C85.28,252.51,85.12,240.47,90.56,219.78Z"/><path class="cls-36" d="M124.13,173.38c-.24-1.43-.4-2.92-.4-2.92-.58-1.32,3.75-3.17,4.82-1.77,1.42,1.84,5.77,8.72,7.41,11.39-4-1.34-8.07-2.53-11.4-4.7A17.63,17.63,0,0,1,124.13,173.38Z"/><path class="cls-36" d="M120.16,177.72a5.42,5.42,0,0,1,3-1.93,4.88,4.88,0,0,1,1.52-.19c0-.06,0-.15-.07-.22,3.33,2.17,7.4,3.36,11.4,4.7l.18.29.46.77.51,1c.17.33.32.62.51,1a2,2,0,0,1,.18,1c0,.29-.08.6-.12,1-.27,2.64-2.28,5-4.92,4.74,0,0-2.7-.36-3.69-.62a25.39,25.39,0,0,1-2.83-1,23.56,23.56,0,0,1-2.58-1.23c-.41-.22-.82-.45-1.24-.7C122.22,186.25,118.27,180.12,120.16,177.72Z"/><path class="cls-36" d="M102.93,163.21l.56,4.16.38,2.8.28,2.09c.37,2.67,10,1.35,9.67-1.32-.06-.44-4-9.64-4-9.64C109.06,159.45,102.71,161.65,102.93,163.21Z"/><path class="cls-37" d="M103.49,167.37l.38,2.8a8.73,8.73,0,0,1,3.35-1.4l1.71-1Z"/><path class="cls-36" d="M100.65,154.61c-1.48,2.26-.78,8.11-.26,10.87a3,3,0,0,0,1.41,2c2.9,1.78,2.65.25,5.42,1.25,6.25,0,13.74-1.69,14.06-8.17.36-7.36-7.61-13.34-13.86-13.34-2.68,0-5.76,2.55-6.26,5.9A3.41,3.41,0,0,1,100.65,154.61Z"/><path class="cls-27" d="M103.65,154.39c-2.66,2.88-2,6.2.32,8.59a32.85,32.85,0,0,0,3,6.53,4,4,0,0,0,3.56,2c5,.16,8.42-3.6,10.93-8.27a8.92,8.92,0,0,0,.92-6.2,16.14,16.14,0,0,0-8-10.31C108.67,143.39,102.12,147.42,103.65,154.39Z"/><path class="cls-36" d="M103.14,161.93c.1,1.8-1.07,3.53-.24,4,.67.37,1.76-.26,2.66-1.46a4,4,0,0,0,.83-2.2,1.91,1.91,0,0,0-.86-1.92C104,159.51,103,159.94,103.14,161.93Z"/><path class="cls-32" d="M91.39,214.8c-2,9.4,31.37,9.57,30.11,2.34,1.21-3.63,5.5-37.63,3.18-40.83-2.75-1.6-7.29-2.43-15.54-2.2-4.43.62-19.22-1.88-18.06,5.64.08.51,1.45,9.25,2,10.62.37,1-.14,9-.35,11.41C92.3,206.34,92.25,211.26,91.39,214.8Z"/><path class="cls-35" d="M92.1,186.58a41.63,41.63,0,0,1,1.28,5.84c1.39-1.57.39-5.08.39-5.08l-1.74-2A7.86,7.86,0,0,0,92.1,186.58Z"/><path class="cls-38" d="M124.63,175.6a14.24,14.24,0,0,1-.5-2.22,6.14,6.14,0,0,0,1.21,2.5c2.15,3,8,3.86,8,3.86h0a13.74,13.74,0,0,1,2.84.63l.46.77.51,1c.11.21-3.85,1.66-3.85,1.66S124.12,175.59,124.63,175.6Z"/><path class="cls-39" d="M103.42,242.16c.5-1.89,1.54,1.85,1.79,5,.16,2,.35,3.95.58,5.92a80.53,80.53,0,0,1,1.32-8.12c2-7.66,14.21-6.66,14.57-9.51.19-1.42.45-3.35.58-4.28a1,1,0,0,1-.36.33c-4,3.14-14.44,5.45-20.41,3.13C97.47,233.1,103.24,235.18,103.42,242.16Z"/><path class="cls-32" d="M124,175.22v.12l-1.29,14.75c4.66,2.91,8.95,2.92,11.86.82a.28.28,0,0,0,.14-.09,9,9,0,0,0,2.84-3.72,7.78,7.78,0,0,0,.46-1.49c1-5.46-6.29-6-6.29-6-.79-.14-5.3-2.9-7-4l-.07,0,0,0Z"/><path class="cls-20" d="M98.44,295.11a7.41,7.41,0,0,1-.49,2.26c-.36.62-3.15,1.34-7.54.64-3.85-.61-4-1.95-4-1.95l-.2-2.09s.3,1.58,5.89,1.89C95.45,296,98.55,295.86,98.44,295.11Z"/><path class="cls-20" d="M119.11,293.16a2.82,2.82,0,0,1-.66,1.87c-.62.62-3.36.75-6,.18-3.74-.79-3.89-2.23-3.89-2.23l-.08-1.74s1,1.37,4.37,2C118.34,294.15,119.11,293.16,119.11,293.16Z"/><path class="cls-35" d="M124,175.34l-1.29,14.75c4.66,2.91,8.95,2.92,11.86.82-1.36.64-7.86-.1-6.9-6.14.93-5.84-2.47-8.73-3-9.13l-.07,0,0,0Z"/><path class="cls-36" d="M80.94,174.07c.94-.63,1.88-1.26,2.82-1.84.18.41.35.82.54,1.22a8.63,8.63,0,0,0,1.09.37c.79.22,9.11,1.2,9,4s-3.41,7.4-4.71,7.94l-.13.06h0c-.29,0-5.44-.9-7.19-1.42a17.81,17.81,0,0,1-5.25-2.55.27.27,0,0,1-.1-.06s-.22-.2-.5-.5a3.88,3.88,0,0,1-.83-1.42c0-.07-.14-.33-.24-.59C77.2,177.51,79,175.73,80.94,174.07Z"/><path class="cls-36" d="M75.06,178.21c-.07-.28-.1-.44-.16-.73,0-.13-.06-.27-.11-.41s-.05-.21-.07-.3c-.16-.74-.1-1.55-.21-2.28a31,31,0,0,1-.3-4.51,34.83,34.83,0,0,1,.87-7.21l.14-.49,0-.14A20.5,20.5,0,0,1,76,159.8c.6-1.47,5.35-1.46,5.37.47,0,0,.06,2.85.27,4.14.06.65.2,1.29.31,1.93s.27,1.27.45,1.91a31.87,31.87,0,0,0,1.25,3.68l.13.3c-.94.58-1.88,1.21-2.82,1.84-1.93,1.66-3.74,3.44-5.52,5.24a3.79,3.79,0,0,1-.14-.38C75.17,178.63,75.09,178.31,75.06,178.21Z"/><path class="cls-40" d="M74.21,170a31,31,0,0,0,.3,4.51c.11.73,0,1.54.21,2.28,0,.09,0,.2.07.3s.07.28.11.41c.06.29.09.45.16.73,0,.1.11.42.22.72s.34.87.38,1a3.88,3.88,0,0,0,.83,1.42c.28.3.5.5.5.5a.27.27,0,0,0,.1.06c1.94-2.12,7.21-8.43,7.21-8.43s-3.93-.54-7.9,4.29C75.16,179.23,74.19,169,74.21,170Z"/><path class="cls-32" d="M77,180.9c.07,2.33.87,6.1,2.63,6.83,2.15.88,7,.28,14.29.28.47-3.6.52-3.33.87-5.36a7.28,7.28,0,0,0,.07-1,26.3,26.3,0,0,0-1.15-6.78c-3-.29-9.1-1.31-9.42-1.45a8.19,8.19,0,0,0-7.17,5.84A5.31,5.31,0,0,0,77,180.9Z"/><path class="cls-36" d="M81.35,160.27s4-3.09,2-5.59c0,0-2.2,1.84-3.46-3.7-.73-3.22-2.06.26-2.06.26s-2.82,1.4-3.57,3.94c-.47,1.58,2.17,4.84,2.17,4.84Z"/><path class="cls-35" d="M77,180.9c.07,2.33.87,6.1,2.63,6.83,2.15.88,7,.28,14.29.28a35.09,35.09,0,0,0-.46-8.72l-1.5,1.9s-.31,3.5-1,4.67-11.89,1.22-13-1.41A22.79,22.79,0,0,1,77,180.9Z"/><path class="cls-21" d="M100.15,174.17c12.1-1.1,19.43.09,19.43.09a2.61,2.61,0,0,0-.34-.59c-.25-.35-.72-1.57-1.36-1.92-.91-.5-5-.94-6.68-1-6.16-.21-8.06,0-10.14,2.3C100.75,173.41,100.45,173.78,100.15,174.17Z"/><path class="cls-21" d="M99.37,222.27c2.16-.18,4.5-.68,6.9-.75,8.23-.25,15.93-1.47,15.81-4.06,1.21-3.62,2.66-13.77,2.66-13.77.9-6.4,2.62-12.35,2.43-17.39,0-3.31.48-9.28-1.94-10.81-1.24-.8-8-2.09-16.29-1.85a104,104,0,0,0-15.22,1.25c-1.26.79-2,5.53-1.69,8.49.28,2.61.6,17.88.61,18v0a2.67,2.67,0,0,1,0,.75c-.41,4.44-1,11.78-2.48,15.15C89.57,219.64,94.34,222.73,99.37,222.27Z"/><path class="cls-41" d="M127.19,188.46a1.72,1.72,0,0,1-.92.49,9.46,9.46,0,0,1-1.06.21c-.72.1-1.45.14-2.18.18l-4.39.1a29.61,29.61,0,0,1-4.41-.21c-1.46-.16-2.91-.4-4.37-.56h0c-1.83,0-3.67,0-5.5-.17-.91,0-1.83-.13-2.73-.24a15.28,15.28,0,0,1-2.69-.55l0,.05a16.4,16.4,0,0,0,5.39,1.32,39.72,39.72,0,0,0,5.56.14h0c1.47.13,2.94.21,4.41.26s3,.18,4.42.32a24.38,24.38,0,0,0,4.44,0,13.87,13.87,0,0,0,2.21-.33,6,6,0,0,0,1.07-.33,1.58,1.58,0,0,0,.89-.7Z"/><path class="cls-41" d="M125.62,199.09a9.36,9.36,0,0,1-4,.93c-1.37.08-2.75.11-4.14.13-2.79,0-5.58-.09-8.36-.17s-5.55-.22-8.3-.57c-1.37-.19-2.75-.35-4.12-.58a26.6,26.6,0,0,1-4-.89l0,.05a32,32,0,0,0,8.12,2,48,48,0,0,0,8.38.39,55.26,55.26,0,0,1,8.34.09,18.52,18.52,0,0,0,4.21,0,10.59,10.59,0,0,0,2.08-.39,4.26,4.26,0,0,0,1.88-1Z"/><path class="cls-41" d="M123.8,212a12.76,12.76,0,0,1-3.92.68c-1.33,0-2.67.13-4,.06a78.55,78.55,0,0,0-8.12,0c-2.71.07-5.39.26-8-.51A20.74,20.74,0,0,1,96,210.87a9.92,9.92,0,0,1-3.25-2.3l0,0a8.85,8.85,0,0,0,3.08,2.65,17,17,0,0,0,3.8,1.55,14.06,14.06,0,0,0,4.07.59c1.37,0,2.73-.07,4.07-.19a43.7,43.7,0,0,1,8.08-.23,19.75,19.75,0,0,0,4.07.23,8.08,8.08,0,0,0,3.92-1.14Z"/><path class="cls-42" d="M99.37,222.27c2.15-.19,4.52-.45,6.91-.75-2.78,0-10.26-4.48-11.65-6.83-1.62-2.75-1.95-25.8-1.95-25.8s-.05,12.37,0,12.5v0a2.63,2.63,0,0,1,0,.74c-.41,4.45-1,11.8-2.49,15.16C89.57,219.64,94.33,222.73,99.37,222.27Z"/><path class="cls-42" d="M109.16,185.66s4.58,12,11.6,15.66C120.76,201.32,114,202.31,109.16,185.66Z"/><path class="cls-42" d="M108.07,190.85s1.51,8.17,5.5,11.22,5.71,5.91,9.05,6.6c-1.1.76-6.43-1.51-9.27-3.68S108.25,198.62,108.07,190.85Z"/><path class="cls-33" d="M116.84,222.83s.49-1,1.45,0,1,2.39,2.09,4.73a14.63,14.63,0,0,1,.71,7.24,7.5,7.5,0,0,0,2.26-3.6c.58-2.26-3.63-9.65-5.78-9.65C116.2,221.55,116.84,222.83,116.84,222.83Z"/><path class="cls-43" d="M116.84,222.83s-1-1.15.73-1.85,2.43-.4,4.21-2.12,2.81,3.7,2.91,5c.25,3-.66,5.06-.84,7.36a3.47,3.47,0,0,1-1.59,3s1-4.78-1.81-8.46a10.42,10.42,0,0,1-.83-1.25C117.5,220.58,116.84,222.83,116.84,222.83Z"/><path class="cls-44" d="M121.59,219.05a1.05,1.05,0,0,1,1.54.57,7.61,7.61,0,0,1,.08,1,5,5,0,0,0,.22.95,11.47,11.47,0,0,1,.56,3.81c0,1.3-.16,2.59-.28,3.88a7.31,7.31,0,0,1-1,3.68l.08,0a8.85,8.85,0,0,0-1.32-7.06c-.35-.51-.8-.93-1.16-1.41s-.65-1-1-1.51-.72-1-1.33-1.26a.93.93,0,0,0-1.09,1.12h0a.9.9,0,0,1,1.07-1.07c.56.22.89.8,1.26,1.26s.67,1,1,1.53.82.93,1.16,1.42a8.93,8.93,0,0,1,1.34,7l0,.22.12-.18a7.55,7.55,0,0,0,1-3.74c.14-1.29.31-2.57.34-3.87a10.71,10.71,0,0,0-.57-3.85,5.3,5.3,0,0,1-.24-.93,6.36,6.36,0,0,0-.09-1,1.09,1.09,0,0,0-1.62-.57Z"/><path class="cls-45" d="M122.42,219.21a11.68,11.68,0,0,0-.83,1,1.35,1.35,0,0,1-.3-.87Z"/><path class="cls-45" d="M123.49,226.89a8.69,8.69,0,0,0-.61.75,1,1,0,0,1-.22-.63Z"/><path class="cls-45" d="M122.91,228.66c.19.15.39.28.59.41a.75.75,0,0,1-.46.2Z"/><path class="cls-45" d="M123,226.68a9.55,9.55,0,0,0,.15-1.31,1.34,1.34,0,0,1,.72.57Z"/><path class="cls-45" d="M121.35,222.56a11.68,11.68,0,0,0-.83,1,1.37,1.37,0,0,1-.3-.87Z"/><path class="cls-45" d="M121.7,225.37a13.07,13.07,0,0,0,1.12.7,1.36,1.36,0,0,1-.83.4Z"/><path class="cls-45" d="M121.42,221.27l-1-.43a.15.15,0,0,1-.09-.06,2.54,2.54,0,0,1,.61-.78Z"/><path class="cls-45" d="M122.37,225.12l-1.14,0a.15.15,0,0,1-.1,0,2.49,2.49,0,0,1,.22-1Z"/><path class="cls-45" d="M122,220.69a.15.15,0,0,0,.07.07l.35.24.67.46a7.06,7.06,0,0,1-.21-.79l-.26-.84a2.77,2.77,0,0,1-.54.73C122,220.62,122,220.65,122,220.69Z"/><path class="cls-45" d="M122.76,224a.29.29,0,0,0,0,.1c0,.13,0,.27,0,.41l-.09.81a5.22,5.22,0,0,1,.6-.55c.09-.1.51-.51.63-.63a2.5,2.5,0,0,1-.9-.14C122.83,224,122.79,224,122.76,224Z"/><path class="cls-45" d="M122.67,221.84a11.94,11.94,0,0,1-1.89.26,5.19,5.19,0,0,1,1-.71c.06,0,.16-.12.23-.12s.16.13.22.18l.24.2S122.63,221.85,122.67,221.84Z"/><path class="cls-45" d="M122.52,223.74a12,12,0,0,1-1.88.27,4.77,4.77,0,0,1,1-.71c.05,0,.16-.13.22-.12s.17.13.22.18l.24.2S122.48,223.75,122.52,223.74Z"/><path class="cls-45" d="M119.76,221.19c0,.35-.07.69-.11,1,0,.18-.05.37-.07.55a3.16,3.16,0,0,1,.8-.6c.31-.16.24-.24,0-.45C120.31,221.65,119.75,221.27,119.76,221.19Z"/><path class="cls-45" d="M122.08,222.51c.27.22.51.46.76.7l.4.39a2.8,2.8,0,0,1,0-1c.06-.35,0-.34-.36-.28A3.83,3.83,0,0,1,122.08,222.51Z"/><path class="cls-45" d="M118.33,220.72l.43.22.25.13a1.36,1.36,0,0,1,.48.53,5.32,5.32,0,0,1,0-.69c0-.11,0-.18,0-.25A4,4,0,0,0,118.33,220.72Z"/><path class="cls-45" d="M122.91,228a3,3,0,0,1,.64.65,3.29,3.29,0,0,0,0-.59A2.32,2.32,0,0,0,122.91,228Z"/><rect class="cls-46" y="337.31" width="350" height="145"/><text class="cls-47" transform="translate(30.19 415.4)">조경시공 및 관리자과정</text><text class="cls-48" transform="translate(105.39 454)">2022년 5월 9일</text><text class="cls-49" transform="translate(10.69 365.55)">스마트훈련</text></g></g></svg>