<svg xmlns="http://www.w3.org/2000/svg" xmlns:xlink="http://www.w3.org/1999/xlink" viewBox="0 0 350 482"><defs><style>.cls-1{isolation:isolate;}.cls-2{fill:url(#linear-gradient);}.cls-10,.cls-3{fill:#fff;}.cls-4{font-size:18px;}.cls-4,.cls-7{fill:#231916;font-family:NotoSansKR-Bold-KSCpc-EUC-H, Noto Sans KR;}.cls-5{letter-spacing:-0.08em;}.cls-6{letter-spacing:-0.02em;}.cls-7{font-size:30px;}.cls-8{letter-spacing:-0.05em;}.cls-9{font-size:21px;fill:#828182;}.cls-10,.cls-9{font-family:NotoSansKR-Medium-KSCpc-EUC-H, Noto Sans KR;}.cls-10{font-size:12.71px;letter-spacing:0.2em;}.cls-11{letter-spacing:0.15em;}.cls-12{letter-spacing:0.18em;}.cls-13{letter-spacing:0.19em;}.cls-14{letter-spacing:0.2em;}.cls-113,.cls-126,.cls-127,.cls-129,.cls-137,.cls-139,.cls-141,.cls-142,.cls-15,.cls-55,.cls-79,.cls-84{mix-blend-mode:overlay;}.cls-16{fill:url(#radial-gradient);}.cls-17{fill:url(#radial-gradient-2);}.cls-18{fill:url(#radial-gradient-3);}.cls-19{fill:url(#radial-gradient-4);}.cls-20{fill:url(#radial-gradient-5);}.cls-21{fill:url(#radial-gradient-6);}.cls-22{fill:url(#radial-gradient-7);}.cls-23{fill:url(#radial-gradient-8);}.cls-24{fill:url(#radial-gradient-9);}.cls-25{fill:url(#radial-gradient-10);}.cls-26{fill:url(#radial-gradient-11);}.cls-27{fill:url(#radial-gradient-12);}.cls-28{fill:url(#radial-gradient-13);}.cls-29{fill:url(#radial-gradient-14);}.cls-30{fill:url(#radial-gradient-15);}.cls-31{fill:url(#radial-gradient-16);}.cls-32{fill:url(#radial-gradient-17);}.cls-33{fill:url(#radial-gradient-18);}.cls-34{fill:url(#radial-gradient-19);}.cls-35{fill:url(#radial-gradient-20);}.cls-36{fill:url(#radial-gradient-21);}.cls-37{fill:url(#radial-gradient-22);}.cls-38{fill:url(#radial-gradient-23);}.cls-39{fill:url(#radial-gradient-24);}.cls-40{fill:url(#radial-gradient-25);}.cls-41{fill:url(#radial-gradient-26);}.cls-42{fill:url(#radial-gradient-27);}.cls-43{fill:url(#radial-gradient-28);}.cls-44{fill:url(#radial-gradient-29);}.cls-45{fill:url(#radial-gradient-30);}.cls-46{fill:url(#radial-gradient-31);}.cls-47{fill:url(#radial-gradient-32);}.cls-48{fill:url(#radial-gradient-33);}.cls-49{fill:url(#radial-gradient-34);}.cls-50{fill:url(#radial-gradient-35);}.cls-51{fill:url(#radial-gradient-36);}.cls-52{fill:url(#radial-gradient-37);}.cls-53{fill:url(#radial-gradient-38);}.cls-54{fill:url(#radial-gradient-39);}.cls-55{fill:url(#linear-gradient-2);}.cls-56{fill:#22274b;}.cls-57{fill:url(#linear-gradient-3);}.cls-145,.cls-146,.cls-147,.cls-58,.cls-64,.cls-65,.cls-96,.cls-97,.cls-98{opacity:0.45;}.cls-145,.cls-146,.cls-147,.cls-58,.cls-96,.cls-97,.cls-98{mix-blend-mode:multiply;}.cls-58{fill:url(#radial-gradient-40);}.cls-59{opacity:0.5;}.cls-60{fill:url(#radial-gradient-41);}.cls-61{fill:url(#linear-gradient-4);}.cls-62{fill:url(#linear-gradient-5);}.cls-63{fill:url(#linear-gradient-6);}.cls-100,.cls-101,.cls-102,.cls-103,.cls-104,.cls-105,.cls-106,.cls-148,.cls-149,.cls-150,.cls-151,.cls-152,.cls-153,.cls-154,.cls-155,.cls-64,.cls-99{mix-blend-mode:screen;}.cls-64{fill:url(#linear-gradient-7);}.cls-65{fill:url(#linear-gradient-8);}.cls-66{fill:url(#linear-gradient-9);}.cls-67{fill:url(#linear-gradient-10);}.cls-68{fill:url(#linear-gradient-11);}.cls-69{fill:url(#linear-gradient-12);}.cls-70{fill:url(#linear-gradient-13);}.cls-71{fill:url(#linear-gradient-14);}.cls-72{fill:url(#linear-gradient-15);}.cls-73{fill:url(#linear-gradient-16);}.cls-74{fill:url(#linear-gradient-17);}.cls-75{fill:url(#linear-gradient-18);}.cls-76{fill:url(#linear-gradient-19);}.cls-77{fill:url(#Degradado_sin_nombre_13);}.cls-78{fill:#d98874;}.cls-79,.cls-89{fill:#404040;}.cls-113,.cls-137,.cls-139,.cls-141,.cls-142,.cls-80{opacity:0.78;}.cls-80{fill:url(#Degradado_sin_nombre_20);}.cls-81{fill:url(#linear-gradient-20);}.cls-82{fill:url(#linear-gradient-21);}.cls-83{fill:url(#linear-gradient-22);}.cls-84{fill:#525151;}.cls-85{fill:url(#linear-gradient-23);}.cls-86{fill:url(#Degradado_sin_nombre_19);}.cls-87{fill:url(#linear-gradient-24);}.cls-88{fill:url(#linear-gradient-25);}.cls-90{fill:url(#linear-gradient-26);}.cls-91{fill:url(#linear-gradient-27);}.cls-92{fill:url(#linear-gradient-28);}.cls-93{fill:url(#linear-gradient-29);}.cls-94{fill:url(#linear-gradient-30);}.cls-95{fill:url(#radial-gradient-42);}.cls-96{fill:url(#radial-gradient-43);}.cls-97{fill:url(#radial-gradient-44);}.cls-98{fill:url(#radial-gradient-45);}.cls-99{fill:url(#radial-gradient-46);}.cls-100{fill:url(#radial-gradient-47);}.cls-101{fill:url(#radial-gradient-48);}.cls-102{fill:url(#radial-gradient-49);}.cls-103{fill:url(#radial-gradient-50);}.cls-104{fill:url(#radial-gradient-51);}.cls-105{fill:url(#radial-gradient-52);}.cls-106{fill:url(#radial-gradient-53);}.cls-107{fill:url(#Degradado_sin_nombre_19-2);}.cls-108{fill:url(#Degradado_sin_nombre_13-2);}.cls-109,.cls-110,.cls-111,.cls-112,.cls-156{fill:none;}.cls-109,.cls-110,.cls-111,.cls-112{stroke-miterlimit:10;stroke-width:3px;}.cls-109{stroke:url(#linear-gradient-31);}.cls-110{stroke:url(#linear-gradient-32);}.cls-111{stroke:url(#linear-gradient-33);}.cls-112{stroke:url(#linear-gradient-34);}.cls-113{fill:url(#linear-gradient-35);}.cls-114{fill:url(#linear-gradient-36);}.cls-115{fill:url(#linear-gradient-37);}.cls-116{fill:url(#linear-gradient-38);}.cls-117{fill:url(#linear-gradient-39);}.cls-118{fill:url(#linear-gradient-40);}.cls-119{fill:url(#linear-gradient-41);}.cls-120{fill:url(#linear-gradient-42);}.cls-121{fill:url(#linear-gradient-43);}.cls-122{fill:url(#linear-gradient-44);}.cls-123{fill:url(#linear-gradient-45);}.cls-124{fill:url(#linear-gradient-46);}.cls-125{fill:url(#linear-gradient-47);}.cls-126{fill:url(#linear-gradient-48);}.cls-127{fill:url(#linear-gradient-49);}.cls-128{fill:url(#linear-gradient-50);}.cls-129{fill:url(#linear-gradient-51);}.cls-130{fill:url(#linear-gradient-52);}.cls-131{fill:url(#linear-gradient-53);}.cls-132{fill:url(#linear-gradient-54);}.cls-133{fill:url(#linear-gradient-55);}.cls-134{fill:url(#linear-gradient-56);}.cls-135{fill:url(#linear-gradient-57);}.cls-136{fill:url(#linear-gradient-58);}.cls-137{fill:url(#linear-gradient-59);}.cls-138{fill:url(#linear-gradient-60);}.cls-139{fill:url(#linear-gradient-61);}.cls-140{fill:url(#linear-gradient-62);}.cls-141{fill:url(#linear-gradient-63);}.cls-143{fill:url(#linear-gradient-64);}.cls-144{fill:url(#Degradado_sin_nombre_21);}.cls-145{fill:url(#radial-gradient-54);}.cls-146{fill:url(#radial-gradient-55);}.cls-147{fill:url(#radial-gradient-56);}.cls-148{fill:url(#radial-gradient-57);}.cls-149{fill:url(#radial-gradient-58);}.cls-150{fill:url(#radial-gradient-59);}.cls-151{fill:url(#radial-gradient-60);}.cls-152{fill:url(#radial-gradient-61);}.cls-153{fill:url(#radial-gradient-62);}.cls-154{fill:url(#radial-gradient-63);}.cls-155{fill:url(#radial-gradient-64);}</style><linearGradient id="linear-gradient" x1="-2.1" y1="242.26" x2="352.1" y2="239.14" gradientUnits="userSpaceOnUse"><stop offset="0" stop-color="#c4511c"/><stop offset="1" stop-color="#dfa94e"/></linearGradient><radialGradient id="radial-gradient" cx="-313.82" cy="90.6" r="2.56" gradientTransform="matrix(-1, 0, 0, 1, -245.7, 0)" gradientUnits="userSpaceOnUse"><stop offset="0" stop-color="#fff"/><stop offset="0.11" stop-color="#fff" stop-opacity="0.79"/><stop offset="0.24" stop-color="#fff" stop-opacity="0.58"/><stop offset="0.37" stop-color="#fff" stop-opacity="0.4"/><stop offset="0.5" stop-color="#fff" stop-opacity="0.26"/><stop offset="0.63" stop-color="#fff" stop-opacity="0.15"/><stop offset="0.75" stop-color="#fff" stop-opacity="0.06"/><stop offset="0.88" stop-color="#fff" stop-opacity="0.02"/><stop offset="1" stop-color="#fff" stop-opacity="0"/></radialGradient><radialGradient id="radial-gradient-2" cx="-284.15" cy="164.84" r="2.56" xlink:href="#radial-gradient"/><radialGradient id="radial-gradient-3" cx="-265.07" cy="122.86" r="2.56" xlink:href="#radial-gradient"/><radialGradient id="radial-gradient-4" cx="-343.43" cy="109.56" r="2.56" xlink:href="#radial-gradient"/><radialGradient id="radial-gradient-5" cx="-343.43" cy="150.91" r="3.29" xlink:href="#radial-gradient"/><radialGradient id="radial-gradient-6" cx="-516.79" cy="187.27" r="3.29" xlink:href="#radial-gradient"/><radialGradient id="radial-gradient-7" cx="-334.18" cy="181.97" r="3.29" xlink:href="#radial-gradient"/><radialGradient id="radial-gradient-8" cx="-451.82" cy="128.49" r="3.29" xlink:href="#radial-gradient"/><radialGradient id="radial-gradient-9" cx="-278.71" cy="92.55" r="3.29" xlink:href="#radial-gradient"/><radialGradient id="radial-gradient-10" cx="-531.65" cy="108.73" r="3.29" xlink:href="#radial-gradient"/><radialGradient id="radial-gradient-11" cx="-302.01" cy="184.91" r="3.29" xlink:href="#radial-gradient"/><radialGradient id="radial-gradient-12" cx="-353.44" cy="93.37" r="0.82" xlink:href="#radial-gradient"/><radialGradient id="radial-gradient-13" cx="-424.83" cy="108.73" r="0.82" xlink:href="#radial-gradient"/><radialGradient id="radial-gradient-14" cx="-286.61" cy="152.34" r="0.82" xlink:href="#radial-gradient"/><radialGradient id="radial-gradient-15" cx="-294.44" cy="174.21" r="0.82" xlink:href="#radial-gradient"/><radialGradient id="radial-gradient-16" cx="-284.97" cy="177.03" r="0.82" xlink:href="#radial-gradient"/><radialGradient id="radial-gradient-17" cx="-389.87" cy="134.28" r="0.82" xlink:href="#radial-gradient"/><radialGradient id="radial-gradient-18" cx="-307" cy="164.84" r="0.82" xlink:href="#radial-gradient"/><radialGradient id="radial-gradient-19" cx="-790.67" cy="-3022.75" r="2.56" gradientTransform="matrix(1, 0, 0, -1, 1121.3, -2851.74)" xlink:href="#radial-gradient"/><radialGradient id="radial-gradient-20" cx="-808.83" cy="-3045.43" r="3.29" gradientTransform="matrix(1, 0, 0, -1, 1121.3, -2851.74)" xlink:href="#radial-gradient"/><radialGradient id="radial-gradient-21" cx="-948.06" cy="-2986.02" r="3.29" gradientTransform="matrix(1, 0, 0, -1, 1121.3, -2851.74)" xlink:href="#radial-gradient"/><radialGradient id="radial-gradient-22" cx="-915.5" cy="-2944.29" r="3.29" gradientTransform="matrix(1, 0, 0, -1, 1121.3, -2851.74)" xlink:href="#radial-gradient"/><radialGradient id="radial-gradient-23" cx="-980.43" cy="-2953.71" r="3.29" gradientTransform="matrix(1, 0, 0, -1, 1121.3, -2851.74)" xlink:href="#radial-gradient"/><radialGradient id="radial-gradient-24" cx="-837.48" cy="-2945.63" r="3.29" gradientTransform="matrix(1, 0, 0, -1, 1121.3, -2851.74)" xlink:href="#radial-gradient"/><radialGradient id="radial-gradient-25" cx="-790.67" cy="-2994.78" r="3.29" gradientTransform="matrix(1, 0, 0, -1, 1121.3, -2851.74)" xlink:href="#radial-gradient"/><radialGradient id="radial-gradient-26" cx="-1049.04" cy="-2991" r="3.29" gradientTransform="matrix(1, 0, 0, -1, 1121.3, -2851.74)" xlink:href="#radial-gradient"/><radialGradient id="radial-gradient-27" cx="-864.02" cy="-2981.63" r="3.29" gradientTransform="matrix(1, 0, 0, -1, 1121.3, -2851.74)" xlink:href="#radial-gradient"/><radialGradient id="radial-gradient-28" cx="-841.8" cy="-2980.45" r="3.29" gradientTransform="matrix(1, 0, 0, -1, 1121.3, -2851.74)" xlink:href="#radial-gradient"/><radialGradient id="radial-gradient-29" cx="-888.49" cy="-3002.65" r="3.29" gradientTransform="matrix(1, 0, 0, -1, 1121.3, -2851.74)" xlink:href="#radial-gradient"/><radialGradient id="radial-gradient-30" cx="-876.43" cy="-2953.71" r="3.29" gradientTransform="matrix(1, 0, 0, -1, 1121.3, -2851.74)" xlink:href="#radial-gradient"/><radialGradient id="radial-gradient-31" cx="-814.05" cy="-3065.7" r="0.82" gradientTransform="matrix(1, 0, 0, -1, 1121.3, -2851.74)" xlink:href="#radial-gradient"/><radialGradient id="radial-gradient-32" cx="-814.05" cy="-3028.01" r="0.82" gradientTransform="matrix(1, 0, 0, -1, 1121.3, -2851.74)" xlink:href="#radial-gradient"/><radialGradient id="radial-gradient-33" cx="-821.59" cy="-2992.33" r="0.82" gradientTransform="matrix(1, 0, 0, -1, 1121.3, -2851.74)" xlink:href="#radial-gradient"/><radialGradient id="radial-gradient-34" cx="-812.12" cy="-2989.51" r="0.82" gradientTransform="matrix(1, 0, 0, -1, 1121.3, -2851.74)" xlink:href="#radial-gradient"/><radialGradient id="radial-gradient-35" cx="-826.6" cy="-3048.23" r="0.82" gradientTransform="matrix(1, 0, 0, -1, 1121.3, -2851.74)" xlink:href="#radial-gradient"/><radialGradient id="radial-gradient-36" cx="-858.23" cy="-3004.91" r="0.82" gradientTransform="matrix(1, 0, 0, -1, 1121.3, -2851.74)" xlink:href="#radial-gradient"/><radialGradient id="radial-gradient-37" cx="-844.42" cy="-2988.69" r="0.82" gradientTransform="matrix(1, 0, 0, -1, 1121.3, -2851.74)" xlink:href="#radial-gradient"/><radialGradient id="radial-gradient-38" cx="-858.23" cy="-2963.71" r="0.82" gradientTransform="matrix(1, 0, 0, -1, 1121.3, -2851.74)" xlink:href="#radial-gradient"/><radialGradient id="radial-gradient-39" cx="-909.07" cy="-2961.3" r="0.82" gradientTransform="matrix(1, 0, 0, -1, 1121.3, -2851.74)" xlink:href="#radial-gradient"/><linearGradient id="linear-gradient-2" x1="-420.7" y1="217.88" x2="-420.7" y2="141.58" gradientTransform="matrix(-1, 0, 0, 1, -245.7, 0)" gradientUnits="userSpaceOnUse"><stop offset="0" stop-color="#fdfdfe" stop-opacity="0"/><stop offset="1" stop-color="#fff"/></linearGradient><linearGradient id="linear-gradient-3" x1="-853.67" y1="-119.08" x2="-829.43" y2="-119.08" gradientTransform="matrix(-0.05, -1, -1, 0.05, -73.84, -711.5)" gradientUnits="userSpaceOnUse"><stop offset="0" stop-color="#5f479a"/><stop offset="1" stop-color="#4b268a"/></linearGradient><radialGradient id="radial-gradient-40" cx="-829.57" cy="-106.76" r="33.14" gradientTransform="matrix(-0.94, -0.33, -0.33, 0.94, -748.08, -43.84)" gradientUnits="userSpaceOnUse"><stop offset="0.22" stop-color="#ce1673"/><stop offset="0.92" stop-color="#f5da4d"/></radialGradient><radialGradient id="radial-gradient-41" cx="-822.72" cy="-112.4" r="33.84" gradientTransform="matrix(-0.94, -0.33, -0.33, 0.94, -748.08, -43.84)" gradientUnits="userSpaceOnUse"><stop offset="0.06" stop-color="#693590"/><stop offset="0.66" stop-color="#91d2df"/><stop offset="1" stop-color="#cfdfeb"/></radialGradient><linearGradient id="linear-gradient-4" x1="-860.53" y1="-119.02" x2="-822.5" y2="-119.02" gradientTransform="matrix(-0.94, -0.33, -0.33, 0.94, -748.08, -43.84)" xlink:href="#linear-gradient"/><linearGradient id="linear-gradient-5" x1="-548.07" y1="156.24" x2="-510.98" y2="156.24" gradientTransform="matrix(-0.38, -0.92, -0.92, 0.38, 225.53, -392.77)" gradientUnits="userSpaceOnUse"><stop offset="0" stop-color="#3263ae"/><stop offset="0.96" stop-color="#0b0e28"/></linearGradient><linearGradient id="linear-gradient-6" x1="-548.07" y1="156.24" x2="-510.98" y2="156.24" gradientTransform="matrix(-0.38, -0.92, -0.92, 0.38, 225.53, -392.77)" gradientUnits="userSpaceOnUse"><stop offset="0" stop-color="#344ea0"/><stop offset="1" stop-color="#a1d7e1"/></linearGradient><linearGradient id="linear-gradient-7" x1="-546.09" y1="153.4" x2="-513.07" y2="153.4" gradientTransform="matrix(-1, 0, 0, 1, -245.7, 0)" xlink:href="#linear-gradient-5"/><linearGradient id="linear-gradient-8" x1="-533.78" y1="149.8" x2="-514.99" y2="178.26" gradientTransform="matrix(-1, 0, 0, 1, -245.7, 0)" gradientUnits="userSpaceOnUse"><stop offset="0.04" stop-color="#0b0e28"/><stop offset="1" stop-color="#3263ae"/></linearGradient><linearGradient id="linear-gradient-9" x1="-539.08" y1="147.36" x2="-536.54" y2="151.21" xlink:href="#linear-gradient-8"/><linearGradient id="linear-gradient-10" x1="-534.55" y1="142.17" x2="-533.33" y2="144.03" xlink:href="#linear-gradient-8"/><linearGradient id="linear-gradient-11" x1="-530.69" y1="150.17" x2="-526.19" y2="156.99" gradientTransform="matrix(-0.71, -0.71, -0.71, 0.71, 17.12, -329.51)" xlink:href="#linear-gradient-8"/><linearGradient id="linear-gradient-12" x1="-543.52" y1="157.66" x2="-539.19" y2="164.23" xlink:href="#linear-gradient-8"/><linearGradient id="linear-gradient-13" x1="-536.12" y1="157.99" x2="-534.4" y2="160.59" xlink:href="#linear-gradient-8"/><linearGradient id="linear-gradient-14" x1="-534.07" y1="167.67" x2="-531.45" y2="171.64" xlink:href="#linear-gradient-8"/><linearGradient id="linear-gradient-15" x1="-526.44" y1="162.88" x2="-525.05" y2="164.99" xlink:href="#linear-gradient-8"/><linearGradient id="linear-gradient-16" x1="-519.53" y1="157.84" x2="-516.91" y2="161.81" xlink:href="#linear-gradient-8"/><linearGradient id="linear-gradient-17" x1="-543.87" y1="149.7" x2="-542.64" y2="151.56" xlink:href="#linear-gradient-8"/><linearGradient id="linear-gradient-18" x1="-524.93" y1="142.92" x2="-521.82" y2="147.63" xlink:href="#linear-gradient-8"/><linearGradient id="linear-gradient-19" x1="-517.67" y1="149.06" x2="-515.46" y2="152.41" xlink:href="#linear-gradient-8"/><linearGradient id="Degradado_sin_nombre_13" x1="-382.7" y1="178.07" x2="-382.7" y2="167.26" gradientTransform="matrix(-1, 0, 0, 1, -245.7, 0)" gradientUnits="userSpaceOnUse"><stop offset="0" stop-color="#d0728b"/><stop offset="1" stop-color="#efcec0"/></linearGradient><linearGradient id="Degradado_sin_nombre_20" x1="-436.1" y1="147.44" x2="-416.33" y2="147.44" gradientTransform="matrix(-1, 0, 0, 1, -245.7, 0)" gradientUnits="userSpaceOnUse"><stop offset="0" stop-color="#161c3a"/><stop offset="1" stop-color="#21274e"/></linearGradient><linearGradient id="linear-gradient-20" x1="-421.43" y1="279.87" x2="-402.43" y2="279.87" gradientTransform="matrix(-1, 0, 0, 1, -245.7, 0)" gradientUnits="userSpaceOnUse"><stop offset="0" stop-color="#c6b6d8"/><stop offset="1" stop-color="#fff"/></linearGradient><linearGradient id="linear-gradient-21" x1="-441.16" y1="255.37" x2="-430.16" y2="255.37" xlink:href="#linear-gradient-20"/><linearGradient id="linear-gradient-22" x1="-435.66" y1="226.27" x2="-400.2" y2="226.27" gradientTransform="matrix(-1, 0, 0, 1, -245.7, 0)" xlink:href="#linear-gradient-3"/><linearGradient id="linear-gradient-23" x1="-440.76" y1="238.7" x2="-410.8" y2="238.7" gradientTransform="matrix(-1, 0, 0, 1, -245.7, 0)" xlink:href="#linear-gradient-3"/><linearGradient id="Degradado_sin_nombre_19" x1="-416.8" y1="240.61" x2="-415.73" y2="138.38" gradientTransform="matrix(-1, 0, 0, 1, -245.7, 0)" gradientUnits="userSpaceOnUse"><stop offset="0" stop-color="#5373b7"/><stop offset="1" stop-color="#aad1ef"/></linearGradient><linearGradient id="linear-gradient-24" x1="-936.45" y1="173.26" x2="-934.19" y2="143.27" gradientTransform="translate(1116.23)" gradientUnits="userSpaceOnUse"><stop offset="0" stop-color="#efcec0"/><stop offset="1" stop-color="#d0728b"/></linearGradient><linearGradient id="linear-gradient-25" x1="-943.34" y1="166.36" x2="-930.88" y2="142.75" xlink:href="#linear-gradient-24"/><linearGradient id="linear-gradient-26" x1="-435.43" y1="155.74" x2="-427.99" y2="155.74" gradientTransform="matrix(-0.88, 0.47, 0.47, 0.88, -268.42, 219.97)" gradientUnits="userSpaceOnUse"><stop offset="0" stop-color="#aad1ef"/><stop offset="1" stop-color="#5373b7"/></linearGradient><linearGradient id="linear-gradient-27" x1="-931.16" y1="134.33" x2="-931.85" y2="145.9" gradientTransform="translate(1116.23)" xlink:href="#linear-gradient-26"/><linearGradient id="linear-gradient-28" x1="-941.21" y1="138.76" x2="-934.61" y2="173.71" gradientTransform="translate(1116.23)" xlink:href="#linear-gradient-26"/><linearGradient id="linear-gradient-29" x1="-940.21" y1="146.95" x2="-933" y2="183.06" gradientTransform="translate(1116.23)" xlink:href="#linear-gradient-3"/><linearGradient id="linear-gradient-30" x1="-930.87" y1="152.06" x2="-930.14" y2="159.82" gradientTransform="translate(1116.23)" xlink:href="#linear-gradient-26"/><radialGradient id="radial-gradient-42" cx="-400.03" cy="173.72" r="27.44" gradientTransform="matrix(-0.92, -0.39, -0.39, 0.92, -145.75, -140.63)" gradientUnits="userSpaceOnUse"><stop offset="0.08" stop-color="#f5da4d"/><stop offset="1" stop-color="#da812c"/></radialGradient><radialGradient id="radial-gradient-43" cx="-399.79" cy="173.72" r="27.24" gradientTransform="matrix(-1, 0, 0, 1, -245.7, 0)" xlink:href="#radial-gradient-42"/><radialGradient id="radial-gradient-44" cx="-394.75" cy="162.4" r="2.89" gradientTransform="matrix(-1, 0, 0, 1, -245.7, 0)" xlink:href="#radial-gradient-42"/><radialGradient id="radial-gradient-45" cx="-398.45" cy="176.18" r="22.55" gradientTransform="matrix(-1, 0, 0, 1, -245.7, 0)" xlink:href="#radial-gradient-42"/><radialGradient id="radial-gradient-46" cx="-403.47" cy="166.61" r="5.15" gradientTransform="matrix(-1, 0, 0, 1, -245.7, 0)" xlink:href="#radial-gradient-42"/><radialGradient id="radial-gradient-47" cx="-400.98" cy="183.86" r="7.92" gradientTransform="matrix(-1, 0, 0, 1, -245.7, 0)" xlink:href="#radial-gradient-42"/><radialGradient id="radial-gradient-48" cx="-402.22" cy="169.33" r="8.67" gradientTransform="matrix(-1, 0, 0, 1, -245.7, 0)" xlink:href="#radial-gradient-42"/><radialGradient id="radial-gradient-49" cx="-401.64" cy="186.5" r="4.57" gradientTransform="matrix(-1, 0, 0, 1, -245.7, 0)" xlink:href="#radial-gradient-42"/><radialGradient id="radial-gradient-50" cx="-382.78" cy="178.23" r="5.17" gradientTransform="matrix(-1, 0, 0, 1, -245.7, 0)" xlink:href="#radial-gradient-42"/><radialGradient id="radial-gradient-51" cx="-386.09" cy="176.11" r="7.8" gradientTransform="matrix(-1, 0, 0, 1, -245.7, 0)" xlink:href="#radial-gradient-42"/><radialGradient id="radial-gradient-52" cx="-389.82" cy="164.78" r="2.6" gradientTransform="matrix(-1, 0, 0, 1, -245.7, 0)" xlink:href="#radial-gradient-42"/><radialGradient id="radial-gradient-53" cx="-390.23" cy="180.48" r="6.11" gradientTransform="matrix(-1, 0, 0, 1, -245.7, 0)" xlink:href="#radial-gradient-42"/><linearGradient id="Degradado_sin_nombre_19-2" x1="-429.23" y1="199.61" x2="-428.96" y2="173.31" xlink:href="#Degradado_sin_nombre_19"/><linearGradient id="Degradado_sin_nombre_13-2" x1="-407.6" y1="186.29" x2="-407.6" y2="177.63" xlink:href="#Degradado_sin_nombre_13"/><linearGradient id="linear-gradient-31" x1="-331.58" y1="200.61" x2="-312.83" y2="199.86" xlink:href="#linear-gradient-2"/><linearGradient id="linear-gradient-32" x1="-542.83" y1="203.72" x2="-512.36" y2="202.49" xlink:href="#linear-gradient-2"/><linearGradient id="linear-gradient-33" x1="-367.87" y1="109.34" x2="-337.39" y2="108.12" xlink:href="#linear-gradient-2"/><linearGradient id="linear-gradient-34" x1="-521.17" y1="107.61" x2="-490.7" y2="106.39" xlink:href="#linear-gradient-2"/><linearGradient id="linear-gradient-35" x1="-1260.36" y1="196.22" x2="-1260.36" y2="157.32" gradientTransform="translate(1364)" xlink:href="#linear-gradient-2"/><linearGradient id="linear-gradient-36" x1="-349.34" y1="186.04" x2="-349.34" y2="168.3" gradientTransform="matrix(1, 0, 0, -1, 452.97, 354.34)" gradientUnits="userSpaceOnUse"><stop offset="0" stop-color="#c4511c" stop-opacity="0"/><stop offset="1" stop-color="#dfa94e"/></linearGradient><linearGradient id="linear-gradient-37" x1="-351.67" y1="180.86" x2="-351.67" y2="179.94" gradientTransform="matrix(1, 0, 0, -1, 457.63, 360.8)" xlink:href="#linear-gradient-20"/><linearGradient id="linear-gradient-38" x1="-347" y1="180.86" x2="-347" y2="179.94" gradientTransform="matrix(1, 0, 0, -1, 448.31, 360.8)" xlink:href="#linear-gradient-20"/><linearGradient id="linear-gradient-39" x1="-362.3" y1="168.3" x2="-362.3" y2="166.8" gradientTransform="matrix(1, 0, 0, -1, 478.89, 335.1)" xlink:href="#linear-gradient-20"/><linearGradient id="linear-gradient-40" x1="-336.38" y1="168.3" x2="-336.38" y2="166.8" gradientTransform="matrix(1, 0, 0, -1, 427.05, 335.1)" xlink:href="#linear-gradient-20"/><linearGradient id="linear-gradient-41" x1="-336.38" y1="181.66" x2="-336.38" y2="172.08" xlink:href="#linear-gradient-20"/><linearGradient id="linear-gradient-42" x1="-362.3" y1="181.66" x2="-362.3" y2="172.08" xlink:href="#linear-gradient-20"/><linearGradient id="linear-gradient-43" x1="-365.71" y1="176.87" x2="-358.88" y2="176.87" gradientTransform="matrix(-1, 0, 0, 1, -245.7, 0)" xlink:href="#linear-gradient-3"/><linearGradient id="linear-gradient-44" x1="-336.38" y1="175.83" x2="-336.38" y2="173.5" gradientTransform="matrix(-1, 0, 0, 1, -245.7, 0)" gradientUnits="userSpaceOnUse"><stop offset="0" stop-color="#622051"/><stop offset="1" stop-color="#c34092"/></linearGradient><linearGradient id="linear-gradient-45" x1="-338.58" y1="178.04" x2="-338.58" y2="175.71" gradientTransform="matrix(-1, 0, 0, 1, -245.7, 0)" gradientUnits="userSpaceOnUse"><stop offset="0" stop-color="#4b268a"/><stop offset="1" stop-color="#5f479a"/></linearGradient><linearGradient id="linear-gradient-46" x1="-336.38" y1="180.25" x2="-336.38" y2="177.92" gradientTransform="matrix(-1, 0, 0, 1, -245.7, 0)" xlink:href="#linear-gradient"/><linearGradient id="linear-gradient-47" x1="-334.17" y1="178.04" x2="-334.17" y2="175.71" gradientTransform="matrix(-1, 0, 0, 1, -245.7, 0)" xlink:href="#linear-gradient-6"/><linearGradient id="linear-gradient-48" x1="-503.15" y1="134.65" x2="-446.63" y2="229.7" xlink:href="#linear-gradient-2"/><linearGradient id="linear-gradient-49" x1="-497.59" y1="164.21" x2="-458.28" y2="164.21" xlink:href="#linear-gradient-2"/><linearGradient id="linear-gradient-50" x1="-476.88" y1="183.31" x2="-490.02" y2="148.43" gradientTransform="matrix(-1, 0, 0, 1, -245.7, 0)" xlink:href="#linear-gradient"/><linearGradient id="linear-gradient-51" x1="-473.76" y1="158.08" x2="-483.45" y2="172.05" xlink:href="#linear-gradient-2"/><linearGradient id="linear-gradient-52" x1="-492.89" y1="188.67" x2="-462.97" y2="188.67" xlink:href="#linear-gradient-20"/><linearGradient id="linear-gradient-53" x1="-492.89" y1="192.14" x2="-462.97" y2="192.14" xlink:href="#linear-gradient-20"/><linearGradient id="linear-gradient-54" x1="-492.89" y1="195.62" x2="-462.97" y2="195.62" xlink:href="#linear-gradient-20"/><linearGradient id="linear-gradient-55" x1="-500.12" y1="205.91" x2="-497.96" y2="207.92" gradientTransform="matrix(-1, 0, 0, 1, -245.7, 0)" gradientUnits="userSpaceOnUse"><stop offset="0" stop-color="#f5b529"/><stop offset="1" stop-color="#e2650f"/></linearGradient><linearGradient id="linear-gradient-56" x1="-496.65" y1="206.9" x2="-480.34" y2="206.9" xlink:href="#linear-gradient-20"/><linearGradient id="linear-gradient-57" x1="-475.65" y1="205.91" x2="-473.5" y2="207.92" gradientTransform="matrix(-1, 0, 0, 1, -245.7, 0)" xlink:href="#linear-gradient-3"/><linearGradient id="linear-gradient-58" x1="-472.19" y1="206.9" x2="-455.88" y2="206.9" xlink:href="#linear-gradient-20"/><linearGradient id="linear-gradient-59" x1="-671.59" y1="-2636.45" x2="-634.5" y2="-2636.78" gradientTransform="matrix(1, 0, 0, -1, 802.96, -2499.78)" xlink:href="#linear-gradient-2"/><linearGradient id="linear-gradient-60" x1="-671.39" y1="-2636.51" x2="-647.88" y2="-2636.72" gradientTransform="matrix(1, 0, 0, -1, 802.96, -2499.78)" xlink:href="#linear-gradient"/><linearGradient id="linear-gradient-61" x1="-671.59" y1="-2641.18" x2="-634.5" y2="-2641.51" gradientTransform="matrix(1, 0, 0, -1, 802.96, -2499.78)" xlink:href="#linear-gradient-2"/><linearGradient id="linear-gradient-62" x1="-671.49" y1="-2641.21" x2="-641.05" y2="-2641.48" gradientTransform="matrix(1, 0, 0, -1, 802.96, -2499.78)" xlink:href="#linear-gradient-6"/><linearGradient id="linear-gradient-63" x1="-1245.64" y1="154.74" x2="-1245.64" y2="135.58" gradientTransform="translate(1364)" xlink:href="#linear-gradient-2"/><linearGradient id="linear-gradient-64" x1="-364.06" y1="151.47" x2="-364.06" y2="137.94" xlink:href="#linear-gradient-2"/><linearGradient id="Degradado_sin_nombre_21" x1="-1907.65" y1="-1653.68" x2="-1894.52" y2="-1653.68" gradientTransform="matrix(0.71, -0.71, -0.71, -0.71, 419.99, -2395.9)" xlink:href="#linear-gradient-44"/><radialGradient id="radial-gradient-54" cx="-1902.92" cy="-1654.39" r="11.91" gradientTransform="matrix(-0.03, -1, -1, 0.03, -1469.83, -1728.46)" xlink:href="#radial-gradient-42"/><radialGradient id="radial-gradient-55" cx="-1900.72" cy="-1659.34" r="1.26" gradientTransform="matrix(-0.03, -1, -1, 0.03, -1469.83, -1728.46)" xlink:href="#radial-gradient-42"/><radialGradient id="radial-gradient-56" cx="-1902.33" cy="-1653.32" r="9.85" gradientTransform="matrix(-0.03, -1, -1, 0.03, -1469.83, -1728.46)" xlink:href="#radial-gradient-42"/><radialGradient id="radial-gradient-57" cx="-1904.53" cy="-1657.5" r="2.25" gradientTransform="matrix(-0.03, -1, -1, 0.03, -1469.83, -1728.46)" xlink:href="#radial-gradient-42"/><radialGradient id="radial-gradient-58" cx="-1903.44" cy="-1649.96" r="3.46" gradientTransform="matrix(-0.03, -1, -1, 0.03, -1469.83, -1728.46)" xlink:href="#radial-gradient-42"/><radialGradient id="radial-gradient-59" cx="-1903.98" cy="-1656.31" r="3.79" gradientTransform="matrix(-0.03, -1, -1, 0.03, -1469.83, -1728.46)" xlink:href="#radial-gradient-42"/><radialGradient id="radial-gradient-60" cx="-1903.73" cy="-1648.81" r="2" gradientTransform="matrix(-0.03, -1, -1, 0.03, -1469.83, -1728.46)" xlink:href="#radial-gradient-42"/><radialGradient id="radial-gradient-61" cx="-1895.48" cy="-1652.42" r="2.26" gradientTransform="matrix(-0.03, -1, -1, 0.03, -1469.83, -1728.46)" xlink:href="#radial-gradient-42"/><radialGradient id="radial-gradient-62" cx="-1896.93" cy="-1653.35" r="3.41" gradientTransform="matrix(-0.03, -1, -1, 0.03, -1469.83, -1728.46)" xlink:href="#radial-gradient-42"/><radialGradient id="radial-gradient-63" cx="-1898.56" cy="-1658.3" r="1.14" gradientTransform="matrix(-0.03, -1, -1, 0.03, -1469.83, -1728.46)" xlink:href="#radial-gradient-42"/><radialGradient id="radial-gradient-64" cx="-1898.74" cy="-1651.44" r="2.67" gradientTransform="matrix(-0.03, -1, -1, 0.03, -1469.83, -1728.46)" xlink:href="#radial-gradient-42"/></defs><title>Artboard 24 copy 2</title><g class="cls-1"><g id="레이어_1" data-name="레이어 1"><rect class="cls-2" y="-0.3" width="350" height="482"/><rect class="cls-3" y="337.31" width="350" height="145"/><text class="cls-4" transform="translate(10.69 365.55)"><tspan class="cls-5">k</tspan><tspan x="9.4" y="0">-Digi</tspan><tspan class="cls-6" x="50.6" y="0">t</tspan><tspan x="57.74" y="0">al</tspan></text><text class="cls-7" transform="translate(27.18 415.4)">VR<tspan class="cls-8" x="39" y="0">/</tspan><tspan x="49.29" y="0">AR 콘텐츠 양성과정</tspan></text><text class="cls-9" transform="translate(99.4 454)">2022년 5월 17일</text><text class="cls-10" transform="translate(130.23 115.54)">ME<tspan class="cls-11" x="23.27" y="0">T</tspan><tspan class="cls-12" x="32.99" y="0">A</tspan><tspan x="43.23" y="0">VE</tspan><tspan class="cls-13" x="63.49" y="0">R</tspan><tspan class="cls-14" x="74.19" y="0">SE</tspan></text><g class="cls-15"><path class="cls-16" d="M65.56,90.6A2.56,2.56,0,1,0,68.11,88,2.56,2.56,0,0,0,65.56,90.6Z"/><path class="cls-17" d="M35.89,164.84a2.56,2.56,0,1,0,2.55-2.56A2.55,2.55,0,0,0,35.89,164.84Z"/><circle class="cls-18" cx="19.37" cy="122.86" r="2.56"/><path class="cls-19" d="M95.16,109.56A2.56,2.56,0,1,0,97.72,107,2.56,2.56,0,0,0,95.16,109.56Z"/><circle class="cls-20" cx="97.72" cy="150.91" r="3.29"/><circle class="cls-21" cx="271.09" cy="187.27" r="3.29"/><circle class="cls-22" cx="88.47" cy="181.97" r="3.29"/><circle class="cls-23" cx="206.12" cy="128.49" r="3.29"/><circle class="cls-24" cx="33" cy="92.55" r="3.29"/><circle class="cls-25" cx="285.95" cy="108.73" r="3.29"/><path class="cls-26" d="M53,184.91a3.3,3.3,0,1,0,3.29-3.29A3.29,3.29,0,0,0,53,184.91Z"/><path class="cls-27" d="M106.92,93.37a.82.82,0,1,0,.82-.82A.82.82,0,0,0,106.92,93.37Z"/><path class="cls-28" d="M178.31,108.73a.82.82,0,1,0,.82-.82A.83.83,0,0,0,178.31,108.73Z"/><path class="cls-29" d="M40.09,152.34a.82.82,0,1,0,.82-.82A.83.83,0,0,0,40.09,152.34Z"/><path class="cls-30" d="M47.91,174.21a.83.83,0,1,0,.82-.82A.83.83,0,0,0,47.91,174.21Z"/><path class="cls-31" d="M38.44,177a.83.83,0,1,0,.83-.82A.83.83,0,0,0,38.44,177Z"/><path class="cls-32" d="M143.34,134.28a.83.83,0,0,0,1.65,0,.83.83,0,0,0-1.65,0Z"/><path class="cls-33" d="M60.47,164.84a.83.83,0,1,0,.82-.83A.82.82,0,0,0,60.47,164.84Z"/><path class="cls-34" d="M333.19,171a2.56,2.56,0,1,0-2.56,2.56A2.55,2.55,0,0,0,333.19,171Z"/><circle class="cls-35" cx="312.47" cy="193.69" r="3.29"/><path class="cls-36" d="M176.54,134.28a3.3,3.3,0,1,0-3.3,3.29A3.3,3.3,0,0,0,176.54,134.28Z"/><path class="cls-37" d="M209.09,92.55a3.3,3.3,0,1,0-3.29,3.29A3.29,3.29,0,0,0,209.09,92.55Z"/><path class="cls-38" d="M144.17,102a3.3,3.3,0,1,0-3.3,3.29A3.3,3.3,0,0,0,144.17,102Z"/><circle class="cls-39" cx="283.82" cy="93.89" r="3.29"/><circle class="cls-40" cx="330.63" cy="143.04" r="3.29"/><circle class="cls-41" cx="72.26" cy="139.26" r="3.29"/><circle class="cls-42" cx="257.28" cy="129.89" r="3.29"/><circle class="cls-43" cx="279.5" cy="128.71" r="3.29"/><circle class="cls-44" cx="232.81" cy="150.91" r="3.29"/><circle class="cls-45" cx="244.87" cy="101.97" r="3.29"/><path class="cls-46" d="M308.07,214a.82.82,0,1,0-1.64,0,.82.82,0,1,0,1.64,0Z"/><path class="cls-47" d="M308.07,176.27a.82.82,0,1,0-.82.83A.82.82,0,0,0,308.07,176.27Z"/><path class="cls-48" d="M300.53,140.59a.82.82,0,1,0-1.64,0,.82.82,0,0,0,1.64,0Z"/><path class="cls-49" d="M310,137.77a.83.83,0,0,0-1.65,0,.83.83,0,0,0,1.65,0Z"/><path class="cls-50" d="M295.53,196.49a.83.83,0,1,0-.83.82A.83.83,0,0,0,295.53,196.49Z"/><path class="cls-51" d="M263.89,153.17a.83.83,0,1,0-.82.82A.83.83,0,0,0,263.89,153.17Z"/><path class="cls-52" d="M277.7,137a.82.82,0,1,0-1.64,0,.82.82,0,1,0,1.64,0Z"/><path class="cls-53" d="M263.89,112a.83.83,0,0,0-1.65,0,.83.83,0,0,0,1.65,0Z"/><path class="cls-54" d="M213.05,109.56a.82.82,0,1,0-.82.82A.83.83,0,0,0,213.05,109.56Z"/></g><path class="cls-55" d="M98.71,217.88a76.29,76.29,0,1,1,152.58,0Z"/><path class="cls-56" d="M42.41,197.36c17.43,11.38,41.82,2.52,62.5,2.86,6.63.11,13.78,1.15,19,4,2.53,1.38,4.74,3.23,7.91,3.75,4,.67,6.91-1.14,10.62-1.47,3.4-.31,6.28,1.09,9.43,1.65,6.57,1.16,13-.34,19.14-1.85,4-1,8.32-1.89,12.62-1.51s8.21,1.87,12.39,2.57c9.85,1.66,18.95,1.11,27.57-2.59,11.43-4.92,25.87-5.46,38.82-3.37,19.31,3.13,34.26,3.26,45.48-4.06,18.44-12,42.08-10.6,42.08-10.6v34.35H.32V186.76S24,185.33,42.41,197.36Z"/><circle class="cls-57" cx="85.23" cy="123.4" r="12.12" transform="translate(-61.2 155.85) rotate(-67.86)"/><path class="cls-58" d="M80.85,112.1a11.28,11.28,0,0,0-2.2,3.72,11.11,11.11,0,0,0,17.86,12A12.12,12.12,0,1,1,80.85,112.1Z"/><g class="cls-59"><path class="cls-3" d="M96.21,119A13.39,13.39,0,0,1,94,119a17.07,17.07,0,0,1-2.55-.49,18.14,18.14,0,0,1-4.47-2,8.61,8.61,0,0,1-.77-.49,6.75,6.75,0,0,1-.57-.4l-.49-.36-.47-.4c-.15-.12-.32-.28-.52-.47l-.31-.29-.34-.34a20.4,20.4,0,0,1-1.52-1.68c-.09-.1-.17-.21-.26-.32l.57-.16.11.13c.54.6,1,1.16,1.53,1.6l.33.32.32.27c.19.18.37.33.51.44l.46.38.47.36c.15.12.33.25.55.4s.45.32.73.49a17.33,17.33,0,0,0,1.92,1.08,19.84,19.84,0,0,0,2.35.94,17.55,17.55,0,0,0,2.47.57,14.91,14.91,0,0,0,2.21.15h.22l.09.24Z"/><path class="cls-3" d="M82.93,133l-1.46-.72a7.12,7.12,0,0,1-1.38-.87,2.35,2.35,0,0,1-.87-1.39,1.58,1.58,0,0,1,.07-.81,1.83,1.83,0,0,1,.42-.64,2.32,2.32,0,0,1,1.13-.6,3.52,3.52,0,0,1,.94-.05,4.35,4.35,0,0,1,.58.07l.2,0a18.44,18.44,0,0,1,2.65.81c.77.29,1.65.67,2.59,1.07s1.93.83,3,1.19a16.39,16.39,0,0,0,3,.76l.13,0-.34.33a15.47,15.47,0,0,1-3-.67c-1-.33-2.07-.74-3-1.12s-1.82-.74-2.58-1-1.41-.46-1.86-.58l-.53-.12-.18,0-.19,0c-.12,0-.29,0-.51-.07a2,2,0,0,0-1.59.44,1,1,0,0,0-.35.93,1.84,1.84,0,0,0,.67,1,5.66,5.66,0,0,0,1.25.83l1.43.76,4.92,2.64-.43.1C86.26,134.62,84.59,133.79,82.93,133Z"/><path class="cls-3" d="M86.78,133.08l-.18-.15a1.4,1.4,0,0,1-.25-.35.69.69,0,0,1-.07-.44.66.66,0,0,1,.13-.28.75.75,0,0,1,.22-.18l.12-.05.07,0a1.14,1.14,0,0,1,.33,0,2.36,2.36,0,0,1,.76.15c.54.19,1.24.46,1.92.77a18.31,18.31,0,0,1,2,1l-.23.15c-.53-.21-1.25-.5-2-.76s-1.41-.47-1.93-.61a1.6,1.6,0,0,0-.57-.09l-.13,0h-.11s0,0,0,0a.92.92,0,0,0,.12.18l.1.11.15.12c.43.35,1,.76,1.54,1.13.38.26.76.5,1.1.71l-.4.15c-.3-.14-.62-.3-.93-.48a17.19,17.19,0,0,1-1.66-1Z"/><path class="cls-3" d="M87.74,128.42a21.47,21.47,0,0,1-2.94-1.35c-.83-.46-1.5-.87-2-1.18s-.72-.49-.72-.49-1-.72-2.47-1.92c-.72-.61-1.55-1.32-2.41-2.12s-1.76-1.67-2.63-2.57l-.41-.43c.06-.15.14-.29.21-.44l.54.54c.88.87,1.79,1.72,2.66,2.49s1.7,1.47,2.42,2c1.45,1.17,2.47,1.86,2.47,1.86s.25.19.7.49,1.09.72,1.89,1.19a21.44,21.44,0,0,0,2.83,1.36,15.61,15.61,0,0,0,3.48.92,14,14,0,0,0,3.59,0c.39,0,.76-.09,1.12-.16-.06.13-.12.26-.19.39l-.88.14a14.71,14.71,0,0,1-3.7.06A16.57,16.57,0,0,1,87.74,128.42Z"/><path class="cls-3" d="M74,126.88a7.56,7.56,0,0,0,.71.3,3.58,3.58,0,0,0,.73.19.64.64,0,0,0,.55-.16,1.18,1.18,0,0,0,.23-.58,3.14,3.14,0,0,0,0-1.27,4.26,4.26,0,0,0-.32-.86,2.69,2.69,0,0,0-.16-.31l-.17-.31a8,8,0,0,0-.55-.79c-.41-.55-1-1.23-1.61-2,0-.2.08-.41.14-.61.66.83,1.42,1.59,2,2.23a6.8,6.8,0,0,1,.82,1.16s.07.13.18.36a5.13,5.13,0,0,1,.32,1,3.51,3.51,0,0,1,0,1.51,1.55,1.55,0,0,1-.41.83,1,1,0,0,1-.47.26,1.68,1.68,0,0,1-.5,0,3.76,3.76,0,0,1-.82-.27,7.08,7.08,0,0,1-.73-.36l-.09,0c0-.16-.1-.32-.14-.49Z"/><path class="cls-3" d="M93,115.16a12.31,12.31,0,0,1-2.91,0,7.3,7.3,0,0,1-1-.2l-.35-.12-.35-.15a5.89,5.89,0,0,1-.85-.51,5.3,5.3,0,0,1-1.85-2.33,2.37,2.37,0,0,1-.14-.57l.45,0a2.84,2.84,0,0,0,.13.38,4.39,4.39,0,0,0,.8,1.18,4.92,4.92,0,0,0,1,.81,4.43,4.43,0,0,0,1.08.55l.32.12a8.24,8.24,0,0,0,.87.22,12.69,12.69,0,0,0,2.78.12l.61,0,.39.39Z"/><path class="cls-3" d="M79.19,133.38a15.21,15.21,0,0,1-1.33-1.46,6,6,0,0,1-.52-.76,2.31,2.31,0,0,1-.11-.24,3.6,3.6,0,0,1-.23-.65,3.28,3.28,0,0,1-.1-1,2.58,2.58,0,0,1,.27-1.1,3.51,3.51,0,0,1,1.46-1.4,2,2,0,0,1,.84-.32s-.28.23-.7.54a3.49,3.49,0,0,0-1.17,1.38,2.57,2.57,0,0,0,0,1.71,3.33,3.33,0,0,0,.23.54c.06.13.1.2.1.2a5.54,5.54,0,0,0,.43.72c.29.42.73,1,1.18,1.5.58.69,1.21,1.34,1.56,1.73a6.44,6.44,0,0,1-.61-.24C80.09,134.23,79.63,133.82,79.19,133.38Z"/><path class="cls-3" d="M82.88,116.36A7.13,7.13,0,0,1,84,117.58a3.3,3.3,0,0,1,.25.39l.08.14a1.15,1.15,0,0,1,.07.15,2.79,2.79,0,0,1,.18.43,2.72,2.72,0,0,1,.19.74,1.64,1.64,0,0,1,0,.53,1.13,1.13,0,0,1-.32.53,1.7,1.7,0,0,1-1.14.45,2.77,2.77,0,0,1-1.26-.23,9.57,9.57,0,0,1-2.14-1.47c-1.32-1.1-2.65-2.2-3.63-3l-.44-.37c0-.06.09-.12.14-.17l.46.34c1,.77,2.4,1.82,3.77,2.87a9.41,9.41,0,0,0,2.05,1.33,2.16,2.16,0,0,0,1,.16,1.21,1.21,0,0,0,.75-.3c.3-.3.12-.82,0-1.14a2.87,2.87,0,0,0-.16-.37l-.07-.13-.07-.12a2.63,2.63,0,0,0-.21-.36,6.71,6.71,0,0,0-1-1.13,20.4,20.4,0,0,0-1.66-1.41c-.63-.5-1.32-1-2-1.65-.13-.13-.27-.26-.4-.4l.39-.25.33.31a23.47,23.47,0,0,0,2,1.55A21.58,21.58,0,0,1,82.88,116.36Z"/><path class="cls-3" d="M96.73,122.7a11.69,11.69,0,0,0-2.19.33l-.21,0-.17.07-.29.11-.23.11h0l0,0,.16.11a4.58,4.58,0,0,0,2,.65,9.16,9.16,0,0,0,1.48,0l0,.35a8.73,8.73,0,0,1-1.48.11,4.93,4.93,0,0,1-2.31-.6c-.07,0-.13-.07-.21-.13l-.11-.09a.86.86,0,0,1-.13-.14.58.58,0,0,1-.08-.57.61.61,0,0,1,.26-.3l.09,0h0l.28-.12a3.17,3.17,0,0,1,.33-.11l.2-.06.23,0a11.49,11.49,0,0,1,2.31-.2l.59,0,0,.43Z"/><path class="cls-3" d="M73.94,123.56c.06.13.13.24.19.36a2.32,2.32,0,0,1,.16.36,1.69,1.69,0,0,1,.11.62.9.9,0,0,1,0,.28l0,.08a.94.94,0,0,1-.12.2.91.91,0,0,1-.28.22,1,1,0,0,1-.4.11h-.19c0-.2-.07-.4-.1-.6l.22,0a.28.28,0,0,0,.23-.12.15.15,0,0,0,0-.08.28.28,0,0,0,0-.11,1.16,1.16,0,0,0,0-.41,1.43,1.43,0,0,0-.1-.29l-.15-.35c-.11-.22-.22-.45-.34-.67a6.62,6.62,0,0,1,0-.77,5.15,5.15,0,0,1,.32.45C73.64,123.07,73.8,123.32,73.94,123.56Z"/><path class="cls-3" d="M80.35,116.15a1.26,1.26,0,0,1,.35.37.56.56,0,0,1,.06.49.6.6,0,0,1-.17.27l-.1.07-.11,0a.29.29,0,0,1-.14,0,.57.57,0,0,1-.18,0h-.17l-.16,0-.37-.09a5.79,5.79,0,0,1-1.77-.92,10.32,10.32,0,0,1-1.31-1.15l.2-.21a13.53,13.53,0,0,0,1.37,1,5.92,5.92,0,0,0,1.67.72l.33.06.13,0h.12s0-.07-.13-.14l-1.46-1.25c-.45-.39-.89-.78-1.25-1.11l.23-.19,1.31.93Z"/><path class="cls-3" d="M97,121.15a11.72,11.72,0,0,1-2.37.27,25.36,25.36,0,0,1-2.72-.13c-.92-.09-1.83-.22-2.67-.26a9.84,9.84,0,0,0-1.21,0,4.63,4.63,0,0,0-.55.06,3.59,3.59,0,0,0-.47.09.38.38,0,0,0-.2.15.54.54,0,0,0,0,.26,1.25,1.25,0,0,0,.08.32,3,3,0,0,0,.11.29,3.16,3.16,0,0,0,.26.53,4.38,4.38,0,0,0,.32.49,5.22,5.22,0,0,0,1.11,1.12,6.76,6.76,0,0,0,2,1,10.25,10.25,0,0,0,2.59.48,36.8,36.8,0,0,0,3.8,0c0,.11,0,.22-.07.33a29.8,29.8,0,0,1-3.76.16,10.59,10.59,0,0,1-2.72-.42,7.05,7.05,0,0,1-2.2-1.07,6.42,6.42,0,0,1-1.26-1.21,4.89,4.89,0,0,1-.38-.56,3.81,3.81,0,0,1-.28-.61,2.69,2.69,0,0,1-.12-.34,2.21,2.21,0,0,1-.1-.44,1,1,0,0,1,.09-.62.91.91,0,0,1,.55-.44,2.69,2.69,0,0,1,.59-.12l.6,0a9.27,9.27,0,0,1,1.28,0c.87.07,1.78.23,2.69.34a24.84,24.84,0,0,0,2.67.22A11.84,11.84,0,0,0,97,120.9l.09,0c0,.09,0,.17,0,.25Z"/></g><path class="cls-60" d="M68.42,113.87c.93-1.62,4.52-1.48,9.27.06-.35.27-1.08.95-1.4,1.24-2.51-.58-3.91-.88-4.44,0-1.15,2,4,7.11,11.52,11.39s14.52,6.14,15.67,4.13c.53-.93-.4-2-2.18-3.87.09-.43.25-1.4.28-1.84,3.77,3.31,5.73,6.35,4.8,8-1.53,2.68-10.28.57-19.54-4.72S66.89,116.56,68.42,113.87Z"/><path class="cls-61" d="M68.42,113.87c.93-1.62,4.52-1.48,9.27.06-.35.27-1.08.95-1.4,1.24-2.51-.58-3.91-.88-4.44,0-1.15,2,4,7.11,11.52,11.39s14.52,6.14,15.67,4.13c.53-.93-.4-2-2.18-3.87.09-.43.25-1.4.28-1.84,3.77,3.31,5.73,6.35,4.8,8-1.53,2.68-10.28.57-19.54-4.72S66.89,116.56,68.42,113.87Z"/><circle class="cls-62" cx="283.82" cy="156.24" r="18.55" transform="translate(30.86 358.67) rotate(-67.5)"/><circle class="cls-63" cx="283.82" cy="156.24" r="18.55" transform="translate(30.86 358.67) rotate(-67.5)"/><path class="cls-64" d="M296.43,165.21a16.56,16.56,0,0,0-29.06-10.88,16.56,16.56,0,1,1,28.94,12.79A17.33,17.33,0,0,0,296.43,165.21Z"/><path class="cls-65" d="M276.69,139.11a15.16,15.16,0,0,0-1.78,7.16,15.32,15.32,0,0,0,27.45,9.34c0,.21,0,.42,0,.63a18.55,18.55,0,1,1-25.68-17.13Z"/><circle class="cls-66" cx="292.51" cy="148.67" r="1.98"/><path class="cls-67" d="M287.47,142.8a1,1,0,1,0,1-1A1,1,0,0,0,287.47,142.8Z"/><circle class="cls-68" cx="283.46" cy="152.5" r="3.51" transform="translate(-24.81 245.1) rotate(-45)"/><circle class="cls-69" cx="296.34" cy="159.9" r="3.38"/><path class="cls-70" d="M288.49,158.88a1.34,1.34,0,1,0,1.34-1.34A1.34,1.34,0,0,0,288.49,158.88Z"/><path class="cls-71" d="M285.43,169a2,2,0,1,0,2-2A2,2,0,0,0,285.43,169Z"/><path class="cls-72" d="M279.18,163.6a1.09,1.09,0,1,0,1.09-1.09A1.08,1.08,0,0,0,279.18,163.6Z"/><circle class="cls-73" cx="272.93" cy="159.2" r="2.04"/><path class="cls-74" d="M296.79,150.33a1,1,0,1,0,.95-1A1,1,0,0,0,296.79,150.33Z"/><path class="cls-75" d="M275.74,144.53a2.42,2.42,0,1,0,2.42-2.43A2.42,2.42,0,0,0,275.74,144.53Z"/><path class="cls-76" d="M269.49,150.2a1.72,1.72,0,1,0,1.72-1.72A1.73,1.73,0,0,0,269.49,150.2Z"/><path class="cls-77" d="M136.18,175.65l2.95,2.42,3.47-4.46a2.91,2.91,0,0,1-1.39-1.47,3.41,3.41,0,0,0-1.9-1.82c-.48-.77-.84-1.6-1.3-2.38a.48.48,0,0,0-.19-.21.4.4,0,0,0-.3,0,1.17,1.17,0,0,0-.66,1.39,3.62,3.62,0,0,0,.35.93,4.15,4.15,0,0,0,.41.77l-4.39-3.37a.82.82,0,0,0-1.16.05.67.67,0,0,0-.12.58,1,1,0,0,0,.18.38l0,0C129.23,170.64,136.18,175.65,136.18,175.65Zm1.51-4.76Z"/><path class="cls-78" d="M137.53,173.39a.22.22,0,0,0,.15-.06.23.23,0,0,0,0-.32,1.52,1.52,0,0,1-.1-2.06.22.22,0,0,0,0-.32.24.24,0,0,0-.33,0,2,2,0,0,0,.1,2.67A.23.23,0,0,0,137.53,173.39Z"/><path class="cls-79" d="M132,168.54a13.44,13.44,0,0,0,1.37,1.55,6.61,6.61,0,0,0,.8.69,3.41,3.41,0,0,0,1,.52.21.21,0,0,0,.28-.14.23.23,0,0,0-.14-.29h0a3,3,0,0,1-.85-.43,7.46,7.46,0,0,1-.78-.61,13.8,13.8,0,0,1-1.4-1.46h0a.13.13,0,0,0-.19,0A.15.15,0,0,0,132,168.54Z"/><path class="cls-79" d="M131.42,169.09a2.78,2.78,0,0,0,.51,1,5.4,5.4,0,0,0,.72.79,9,9,0,0,0,.84.66,10.4,10.4,0,0,0,.9.56.22.22,0,1,0,.22-.39h0c-.3-.16-.6-.32-.89-.5a8.08,8.08,0,0,1-.81-.6,5.37,5.37,0,0,1-.72-.71,2.64,2.64,0,0,1-.48-.84v0a.15.15,0,0,0-.18-.09A.14.14,0,0,0,131.42,169.09Z"/><path class="cls-79" d="M131.36,170.24a7.24,7.24,0,0,0,1,1.47,3.82,3.82,0,0,0,.64.63,2.3,2.3,0,0,0,.85.44.23.23,0,1,0,.11-.44h0a2.83,2.83,0,0,1-1.33-.87,7.92,7.92,0,0,1-1-1.35h0a.13.13,0,0,0-.18,0A.13.13,0,0,0,131.36,170.24Z"/><path class="cls-80" d="M182.21,153.52a3,3,0,0,1-.84-3.51,2.28,2.28,0,0,1-2.64-2.33,4,4,0,0,1-3.59-.43h0a2.55,2.55,0,0,1-3.59.32,2.59,2.59,0,0,1-.49-.56,2.52,2.52,0,0,1,2.42-3.91,3.9,3.9,0,0,1,.82-1.67,4,4,0,0,1,5.56-.49l.05,0a3.75,3.75,0,0,1,4.67.1,3.79,3.79,0,0,1,1.28,2.11,4.38,4.38,0,0,1,3.54,7.16l-.11.12a2.53,2.53,0,0,1-3.37,3.77,2.65,2.65,0,0,1-.37-.38,3,3,0,0,1-3.33-.35Z"/><path class="cls-81" d="M166.5,272.46S157.34,285,156.76,287s6.94.48,11.18-2.41,8.39-4.82,7.72-7-1.55-5.78-1.55-5.78"/><path class="cls-82" d="M184.46,250.17s4.35,14.9,5.61,16.59,4.61-5.21,4.9-10.33,1.29-9.59-.88-10.41-5.52-2.3-5.52-2.3"/><path class="cls-83" d="M190,243.39l-5.07,10.06-1.17-.65-18.17-10.07-8.16-4.52a5.62,5.62,0,0,1-2.14-7.73l16-27.73,7-3.67,8.89,5.12-6,12.07-11,13.53,14.68,10.08Z"/><path class="cls-84" d="M184.85,239.88a129.55,129.55,0,0,1-1.13,12.92l-18.17-10.07c1-5.4,3.91-11,4.62-12.93Z"/><path class="cls-84" d="M175.63,218.44c-2.14-3-5.54-2.6-5.18-1.66s2,7.95,1.78,11.57,6.39-2.08,6.39-2.08"/><path class="cls-85" d="M179.32,203.33s-8.08,25.16-10,30.95S165,271.59,165.1,272.9s10.65,1.48,10.53.74,5.18-35.17,6.07-36.61,13.92-22.68,13.34-33"/><path class="cls-86" d="M167.78,205.61c.41-1.51.63-13.32-.7-15.46a7.94,7.94,0,0,1-.72-1.5,12.73,12.73,0,0,1-.58-2.38,12.16,12.16,0,0,1-.13-1.21l-5.36,7.52a5.21,5.21,0,0,1-7.23,1.25c-4.68-3.29-10-12.88-13.93-15.76l3.69-4.74c3,2.86,12.86,12.13,12.86,12.13s6.59-12.33,8.85-15.16c1.44-1.8,6.42-3.56,11.27-4.6a39.47,39.47,0,0,1,7.55-1,18.87,18.87,0,0,1,3.06.29c5.87,1,14.12,4.7,15.33,12.32,0,0-2.57,3.4-4.55,6.7a15.26,15.26,0,0,0-2.22,5c-.29,3.12,2.11,16.68,2.22,18.28Z"/><path class="cls-3" d="M180.51,170.76c5,.32,5.78-3.87,5.9-5.73a18.87,18.87,0,0,0-3.06-.29,39.47,39.47,0,0,0-7.55,1C175.74,167.67,176.38,170.5,180.51,170.76Z"/><path class="cls-87" d="M181,169c-3.3,0-3.95-2.21-3.95-2.21l-.29-1.39-.69-3.3,7.41-3.48.29,1.38c.38,1.77,1,4.68,1.14,5A4,4,0,0,1,181,169Z"/><path class="cls-79" d="M183.78,160c-1,3-4,5.58-7,5.4l-.69-3.3,7.41-3.48Z"/><path class="cls-88" d="M172.34,152.84a28.26,28.26,0,0,0-1,4.55c0,1.25,1.18,4.46,3.75,5s6.29-.88,8.14-2.42a14.42,14.42,0,0,0,3.18-4.85l-6.74-3.06"/><g class="cls-15"><path class="cls-89" d="M175,160.9a.2.2,0,0,1-.13-.09.25.25,0,0,1,0-.34,1.33,1.33,0,0,1,1.5,0,.24.24,0,0,1-.28.4.82.82,0,0,0-.93,0A.23.23,0,0,1,175,160.9Z"/><path class="cls-89" d="M175.76,156.53a1.59,1.59,0,0,1-1.31-1.28.55.55,0,0,1,.1-.4l2.17-2.91a.24.24,0,0,1,.39.29l-2.17,2.91c0,.27.21.81,1.25,1a.24.24,0,1,1-.08.48Z"/><path class="cls-3" d="M175.1,159.49l.91.13a2,2,0,0,0,2.33-1.72l0-.11-3.45-.52-.24,1.64A.51.51,0,0,0,175.1,159.49Z"/></g><rect class="cls-90" x="182.97" y="152.85" width="6.08" height="5.79" rx="0.91" transform="translate(94.43 -68.91) rotate(27.88)"/><path class="cls-91" d="M179.85,157.58c2.85,1.23,3.69,2.15,5.57.91s4.46-6-1-8.07-2.1,4.48-2.1,4.48"/><path class="cls-92" d="M170,152.35c1.05-4.67,2.43-5.75,3.56-5.81s10.25,3,11.37,4.31-2.05,6.8-3.61,6.91a7.14,7.14,0,0,1-4.11-1.56c-.75-.55-1-1.24-1.68-1.27a18.81,18.81,0,0,1-2.43-.23C171.94,154.51,169.66,153.77,170,152.35Z"/><path class="cls-93" d="M180.93,155.51a1.09,1.09,0,0,1-1.12.33,7.6,7.6,0,0,1-2.17-1.13,3.3,3.3,0,0,1-.48-.45,3.06,3.06,0,0,0-2.13-1.15h-.14a15.62,15.62,0,0,1-2.09-.2,4.68,4.68,0,0,1-.67-.16,1.1,1.1,0,0,1-.74-1.35,10.1,10.1,0,0,1,1.09-2.67,1.06,1.06,0,0,1,1.18-.46,58.82,58.82,0,0,1,8.42,3,1.1,1.1,0,0,1,.53,1.4A11.33,11.33,0,0,1,180.93,155.51Z"/><path class="cls-94" d="M186.31,156.19a.75.75,0,0,1-1,.41.77.77,0,0,1-.22-1,.68.68,0,1,1,1.19.62Z"/><circle class="cls-95" cx="149.9" cy="175.36" r="15.02" transform="translate(-56.6 72.5) rotate(-23)"/><path class="cls-96" d="M149.9,160.34h.22a12,12,0,1,0,14.43,18.32,15,15,0,1,1-14.65-18.32Z"/><path class="cls-97" d="M150.31,161.29a11.18,11.18,0,0,0-3.57,2.5,11.21,11.21,0,0,1,2.06-2.44c.43,0,.86-.07,1.3-.07Z"/><path class="cls-98" d="M139.87,165.77a13.92,13.92,0,0,0,21.9,17,13.92,13.92,0,1,1-21.9-17Z"/><path class="cls-99" d="M161.16,169.82a11.77,11.77,0,0,1-3.6,1.52,5.23,5.23,0,0,1-1.3.14,2.6,2.6,0,0,1-.51,0,2.19,2.19,0,0,1-.5-.11,3.39,3.39,0,0,1-1.18-.64,5.07,5.07,0,0,1-1.71-3.51,9.51,9.51,0,0,1,.66-3.82c.18-.5.35-.9.47-1.19a2.48,2.48,0,0,1,.21-.43s-.2.67-.51,1.67a9.66,9.66,0,0,0-.51,3.74,4.67,4.67,0,0,0,1.65,3.21,2.83,2.83,0,0,0,1,.54,1.9,1.9,0,0,0,.44.1,3.33,3.33,0,0,0,.45,0,5.35,5.35,0,0,0,1.21-.11,11.51,11.51,0,0,0,3.51-1.39,20.88,20.88,0,0,0,2.08-1.39c0,.06.08.14.12.21A20.79,20.79,0,0,1,161.16,169.82Z"/><path class="cls-100" d="M148.62,183.56a9.72,9.72,0,0,1,1.7-1.59c.23-.17.41-.29.54-.37l.2-.12.2-.12.58-.3a14.14,14.14,0,0,1,2.17-.81,65.41,65.41,0,0,1,6.83-1.3,20.44,20.44,0,0,0,3.54-1,3.27,3.27,0,0,0,.33-.14,2.5,2.5,0,0,1-.05.29l-.18.09a20,20,0,0,1-3.57,1.06c-1.25.25-2.5.44-3.65.66a26.53,26.53,0,0,0-3.13.73,13.72,13.72,0,0,0-2.09.81l-.56.29-.19.12-.19.11c-.12.07-.3.19-.52.35a9,9,0,0,0-1.65,1.5,12.91,12.91,0,0,0-2.77,6.07l-.31-.08a15,15,0,0,1,1-3.48A11.39,11.39,0,0,1,148.62,183.56Z"/><path class="cls-101" d="M159.44,176.28l-3.78,1.11-1.74.51a8.09,8.09,0,0,1-1.63.36,2.5,2.5,0,0,1-1.44-.31,3.42,3.42,0,0,1-.86-.71,5,5,0,0,1-.58-.76,6,6,0,0,1-.45-.84,8.67,8.67,0,0,1-.69-2.38,12,12,0,0,1-.13-1.65,14.27,14.27,0,0,1,.05-1.83,19.44,19.44,0,0,1,.74-3.89,34.24,34.24,0,0,1,2.21-5.5l.23,0a34.25,34.25,0,0,0-2.13,5.57,18.82,18.82,0,0,0-.68,3.83,15.45,15.45,0,0,0,0,1.79,12.64,12.64,0,0,0,.15,1.59,8.27,8.27,0,0,0,.68,2.26,5,5,0,0,0,.43.78,4.51,4.51,0,0,0,.53.71,2.27,2.27,0,0,0,2,.9,7.57,7.57,0,0,0,1.54-.32l1.74-.49,3.8-1.06,5.54-1.52c0,.07,0,.14,0,.21Z"/><path class="cls-102" d="M150.8,190.22c.42-1,.76-1.69.76-1.69s.08-.17.24-.45.39-.69.69-1.16a8.89,8.89,0,0,1,2.9-2.9,10.9,10.9,0,0,1,3.89-1.2c.55-.08,1-.12,1.33-.15a3.88,3.88,0,0,1,.51,0,1.74,1.74,0,0,1-.5.11l-1.31.23a11.14,11.14,0,0,0-3.76,1.31,8.71,8.71,0,0,0-2.71,2.84c-.29.46-.5.86-.65,1.15l-.23.44s-.33.62-.75,1.58l-.46,0A.69.69,0,0,1,150.8,190.22Z"/><path class="cls-103" d="M135.5,171.1a33.61,33.61,0,0,1,1.56,3.43,29.84,29.84,0,0,1,1.25,4.6c.14.64.18,1.18.24,1.56l.08.59,0,.59c0,.38.08.92.06,1.57s0,1.22,0,1.91l-.36-.42c0-.53,0-1,0-1.48,0-.64-.08-1.17-.09-1.54l0-.59-.07-.58c-.05-.37-.08-.91-.21-1.54a31.53,31.53,0,0,0-1.14-4.56,34.2,34.2,0,0,0-1.35-3.23Z"/><path class="cls-104" d="M140.88,184.3c.22-1,.4-1.88.5-2.66.05-.39.09-.75.12-1.07s.06-.6.07-.83c0-.47,0-.73,0-.73l0-.72q0-.34,0-.84c0-.32,0-.68,0-1.07a26.75,26.75,0,0,0-.27-2.7,29.76,29.76,0,0,0-.63-3c-.28-1-.61-2-1-3s-.7-1.66-1-2.33l.13-.15c.38.69.76,1.5,1.14,2.39a29.32,29.32,0,0,1,1,3,30.48,30.48,0,0,1,.69,3.07,25.51,25.51,0,0,1,.31,2.72c0,.4.05.77.05,1.1s0,.61,0,.84V179l-.05.74c0,.23,0,.51-.08.84s-.08.69-.14,1.09c-.11.79-.3,1.71-.54,2.69s-.5,1.74-.82,2.62l-.27-.23C140.44,185.94,140.69,185.1,140.88,184.3Z"/><path class="cls-105" d="M144.87,161.31l-.11.28-.1.28c-.06.18-.17.43-.26.74a18.89,18.89,0,0,0-.6,2.3,20,20,0,0,0-.3,2.36,9.54,9.54,0,0,1-.09,1.09,4.3,4.3,0,0,1-.09-1.09,18.31,18.31,0,0,1,.16-2.41,19.08,19.08,0,0,1,.52-2.37c.08-.33.19-.58.24-.77l.1-.29v0l.57-.21Z"/><path class="cls-106" d="M144.07,186.56c.29-1.16.45-1.94.45-1.94s.18-.78.37-2a32.42,32.42,0,0,0,.42-4.37,27.78,27.78,0,0,0-.23-4.39c-.08-.6-.17-1.09-.23-1.44a3.76,3.76,0,0,1-.08-.55,2.19,2.19,0,0,1,.17.53c.09.34.21.83.31,1.43a24.6,24.6,0,0,1,.38,4.42,31.11,31.11,0,0,1-.33,4.43c-.17,1.2-.34,2-.34,2s-.17.79-.49,2c-.18.69-.43,1.52-.72,2.38-.11-.05-.23-.09-.34-.15C143.67,188.05,143.9,187.24,144.07,186.56Z"/><path class="cls-107" d="M164.92,186.32l19,12.55a4.31,4.31,0,0,0,5.82-1c3.56-4.8,9.94-13.6,11.53-17.3,2.25-5.23-3.17-11.12-7.87-4.35l-8.52,13.55-17.47-7.69Z"/><path class="cls-108" d="M165.5,181a2.6,2.6,0,0,0-.9-1.74c-1.73-1.49-3-2-3.41-1.23-.19.38.79,1,1.09,1.28.14.15,0,.3-.22.47l-4-1.82a.5.5,0,0,0-.66.31l-.07.16a.56.56,0,0,0,.25.72l3.91,1.78-4.17-1.9a.51.51,0,0,0-.66.31l-.07.16a.56.56,0,0,0,.25.72l3.31,1.5-2.87-1.3a.51.51,0,0,0-.66.31l-.07.17a.55.55,0,0,0,.25.71l3.74,1.7-3.34-1.51a.45.45,0,0,0-.59.27l0,.15a.47.47,0,0,0,.22.63l3.34,1.52a9.07,9.07,0,0,0,4.18,1.53l.63.43,2.38-4.06Z"/><path class="cls-79" d="M157.52,179.11v0a.11.11,0,0,1,.14-.05l2.2,1a.1.1,0,0,1-.08.18l-2.21-1A.1.1,0,0,1,157.52,179.11Z"/><path class="cls-79" d="M157.17,180.36v0a.1.1,0,0,1,.13-.05l2.2,1a.1.1,0,1,1-.08.18l-2.2-1A.1.1,0,0,1,157.17,180.36Z"/><path class="cls-79" d="M157,181.7h0a.09.09,0,0,1,.13-.05l2.2,1a.09.09,0,0,1,0,.13.1.1,0,0,1-.13,0l-2.2-1A.1.1,0,0,1,157,181.7Z"/><line class="cls-109" x1="68.45" y1="192.19" x2="84.55" y2="208.28"/><line class="cls-110" x1="268.2" y1="189.41" x2="295.59" y2="216.8"/><line class="cls-111" x1="93.23" y1="95.04" x2="120.62" y2="122.43"/><line class="cls-112" x1="246.54" y1="93.3" x2="273.93" y2="120.69"/><rect class="cls-113" x="72.26" y="157.32" width="62.74" height="38.9" rx="3.88"/><rect class="cls-114" x="81.12" y="168.3" width="45.02" height="17.73" rx="3.14" transform="translate(207.26 354.34) rotate(180)"/><rect class="cls-115" x="104.51" y="179.94" width="2.9" height="0.93" transform="translate(211.92 360.8) rotate(180)"/><rect class="cls-116" x="99.85" y="179.94" width="2.9" height="0.93" transform="translate(202.6 360.8) rotate(180)"/><path class="cls-117" d="M112.87,166.8h7.43a0,0,0,0,1,0,0v1a.55.55,0,0,1-.55.55h-6.34a.55.55,0,0,1-.55-.55v-1A0,0,0,0,1,112.87,166.8Z" transform="translate(233.18 335.1) rotate(180)"/><path class="cls-118" d="M87,166.8h7.43a0,0,0,0,1,0,0v1a.55.55,0,0,1-.55.55H87.5a.55.55,0,0,1-.55-.55v-1A0,0,0,0,1,87,166.8Z" transform="translate(181.34 335.1) rotate(180)"/><circle class="cls-119" cx="90.67" cy="176.87" r="4.79"/><circle class="cls-120" cx="116.59" cy="176.87" r="4.79"/><polygon class="cls-121" points="113.18 177.74 115.73 177.74 115.73 180.28 117.46 180.28 117.46 177.74 120 177.74 120 176.02 117.46 176.02 117.46 173.47 115.73 173.47 115.73 176.02 113.18 176.02 113.18 177.74"/><path class="cls-122" d="M90.67,173.5a1.17,1.17,0,1,0,1.17,1.16A1.16,1.16,0,0,0,90.67,173.5Z"/><path class="cls-123" d="M92.88,178a1.17,1.17,0,1,0-1.16-1.17A1.16,1.16,0,0,0,92.88,178Z"/><path class="cls-124" d="M90.67,180.25a1.17,1.17,0,1,0-1.16-1.17A1.17,1.17,0,0,0,90.67,180.25Z"/><path class="cls-125" d="M88.46,178a1.17,1.17,0,1,0-1.16-1.17A1.17,1.17,0,0,0,88.46,178Z"/><rect class="cls-126" x="206.5" y="139.5" width="51.48" height="75.08" rx="1.6"/><path class="cls-127" d="M212.58,164.2a19.81,19.81,0,0,0,16.13,19.35,19.56,19.56,0,0,0,3.41.3,19.65,19.65,0,1,0-19.54-19.65Zm16.53-15.35a14.87,14.87,0,0,1,3-.31,15.64,15.64,0,1,1-3,.31Z"/><path class="cls-128" d="M222.1,176.75c8.92,7.07,22.54,2.84,25.65-8.16,2.9-10.27-5-20.31-15.51-20.49-2,0-2-3.14,0-3.11,12.7.22,22.26,12.66,18.34,25-4.15,13.05-20.15,17.31-30.67,9-1.57-1.24.64-3.42,2.19-2.19Z"/><circle class="cls-129" cx="232.24" cy="164.11" r="7.79"/><path class="cls-130" d="M218.1,189.5h28.25a.83.83,0,0,0,.83-.83h0a.83.83,0,0,0-.83-.83H218.1a.83.83,0,0,0-.83.83h0A.83.83,0,0,0,218.1,189.5Z"/><path class="cls-131" d="M218.1,193h28.25a.83.83,0,0,0,.83-.83h0a.83.83,0,0,0-.83-.83H218.1a.83.83,0,0,0-.83.83h0A.83.83,0,0,0,218.1,193Z"/><path class="cls-132" d="M218.1,196.45h28.25a.83.83,0,0,0,.83-.83h0a.83.83,0,0,0-.83-.83H218.1a.83.83,0,0,0-.83.83h0A.83.83,0,0,0,218.1,196.45Z"/><path class="cls-133" d="M252.38,206.9a1,1,0,1,0,1-1A1,1,0,0,0,252.38,206.9Z"/><path class="cls-134" d="M235,207.24h15.63a.34.34,0,0,0,.34-.34h0a.35.35,0,0,0-.34-.34H235a.34.34,0,0,0-.34.34h0A.34.34,0,0,0,235,207.24Z"/><path class="cls-135" d="M227.92,206.9a1,1,0,1,0,1-1A1,1,0,0,0,227.92,206.9Z"/><path class="cls-136" d="M210.52,207.24h15.62a.34.34,0,0,0,.34-.34h0a.34.34,0,0,0-.34-.34H210.52a.34.34,0,0,0-.34.34h0A.34.34,0,0,0,210.52,207.24Z"/><path class="cls-137" d="M165.58,135.61H133.15a1.23,1.23,0,0,0-1.23,1.22h0a1.23,1.23,0,0,0,1.23,1.23h32.43a1.23,1.23,0,0,0,1.22-1.23h0A1.22,1.22,0,0,0,165.58,135.61Z"/><path class="cls-138" d="M152.8,135.61H133.15a1.23,1.23,0,0,0-1.23,1.22h0a1.23,1.23,0,0,0,1.23,1.23H152.8a1.23,1.23,0,0,0,1.23-1.23h0A1.23,1.23,0,0,0,152.8,135.61Z"/><path class="cls-139" d="M165.58,140.34H133.15a1.23,1.23,0,0,0-1.23,1.22h0a1.23,1.23,0,0,0,1.23,1.23h32.43a1.23,1.23,0,0,0,1.22-1.23h0A1.22,1.22,0,0,0,165.58,140.34Z"/><path class="cls-140" d="M159.33,140.34H133.15a1.23,1.23,0,0,0-1.23,1.22h0a1.23,1.23,0,0,0,1.23,1.23h26.18a1.22,1.22,0,0,0,1.22-1.23h0A1.22,1.22,0,0,0,159.33,140.34Z"/><rect class="cls-141" x="107.38" y="135.58" width="21.95" height="19.17" rx="1.78"/><g class="cls-142"><path class="cls-143" d="M115.4,146.29a5.08,5.08,0,0,0,5.92,0l1.87.48a2.72,2.72,0,0,1,1.93,1.89v1.54a1.21,1.21,0,0,1-.4.93,1.34,1.34,0,0,1-.89.34h-11a1.22,1.22,0,0,1-.93-.41,1.25,1.25,0,0,1-.34-.89v-1.51a2.72,2.72,0,0,1,1.93-1.89Zm-.05-7.11a4.28,4.28,0,0,0-1.2,3.34,4,4,0,0,0,.4,1.47,4.36,4.36,0,0,0,2.69,2.28h0a4.34,4.34,0,0,0,4.11-1.1h0a4.24,4.24,0,0,0-6-6Z"/></g><circle class="cls-144" cx="244.99" cy="117.77" r="6.56" transform="translate(-8.45 216.05) rotate(-46.87)"/><path class="cls-145" d="M251.55,117.56s0,.06,0,.09a5.27,5.27,0,1,0-7.8,6.57,6.56,6.56,0,1,1,7.79-6.66Z"/><path class="cls-146" d="M251.14,117.75a4.75,4.75,0,0,0-1.14-1.52,4.6,4.6,0,0,1,1.1.86,5.46,5.46,0,0,1,0,.57A.27.27,0,0,1,251.14,117.75Z"/><path class="cls-147" d="M249,113.25a6.08,6.08,0,0,0-7.13,9.81,6.09,6.09,0,1,1,7.13-9.81Z"/><path class="cls-148" d="M247.57,122.61a5.16,5.16,0,0,1-.71-1.55,2.33,2.33,0,0,1-.08-.57.77.77,0,0,1,0-.22.89.89,0,0,1,0-.22,1.82,1.82,0,0,1,.26-.53,2.23,2.23,0,0,1,1.51-.79,4.12,4.12,0,0,1,1.68.23c.22.07.4.14.52.19l.2.09s-.3-.08-.74-.2a4.07,4.07,0,0,0-1.64-.17,2.06,2.06,0,0,0-1.38.76,1.36,1.36,0,0,0-.22.47c0,.12,0,.19,0,.19a1.57,1.57,0,0,0,0,.2,2.36,2.36,0,0,0,.06.53,5.22,5.22,0,0,0,.66,1.51,9.28,9.28,0,0,0,.64.89l-.09,0A7.78,7.78,0,0,1,247.57,122.61Z"/><path class="cls-149" d="M241.39,117.33a3.71,3.71,0,0,1,.72.72l.17.23.05.09.06.08.14.25a6.73,6.73,0,0,1,.39.94c.27.79.43,1.89.66,3a8.82,8.82,0,0,0,.48,1.53l.07.15-.13,0s0-.05,0-.08a8.53,8.53,0,0,1-.51-1.55c-.13-.54-.23-1.08-.34-1.58a11.43,11.43,0,0,0-.37-1.36,6.57,6.57,0,0,0-.38-.9l-.14-.24-.05-.08,0-.08-.16-.22a3.59,3.59,0,0,0-.68-.7,5.63,5.63,0,0,0-2.69-1.13l0-.13a6.37,6.37,0,0,1,1.53.4A4.88,4.88,0,0,1,241.39,117.33Z"/><path class="cls-150" d="M244.73,122c-.19-.56-.37-1.11-.54-1.64l-.25-.75a3.14,3.14,0,0,1-.18-.7,1.12,1.12,0,0,1,.11-.64,1.57,1.57,0,0,1,.3-.38,2.28,2.28,0,0,1,.33-.27,2.58,2.58,0,0,1,.36-.21,3.77,3.77,0,0,1,1-.33,4,4,0,0,1,.71-.08,7.09,7.09,0,0,1,.8,0,8.77,8.77,0,0,1,1.72.27,15.62,15.62,0,0,1,2.43.89.34.34,0,0,1,0,.1,14.74,14.74,0,0,0-2.46-.85,7.65,7.65,0,0,0-1.68-.24,6.88,6.88,0,0,0-.79,0,4.8,4.8,0,0,0-.69.09,3.86,3.86,0,0,0-1,.32,3.33,3.33,0,0,0-.33.2,2.57,2.57,0,0,0-.3.25,1,1,0,0,0-.37.86,3.14,3.14,0,0,0,.17.67l.23.75c.17.53.34,1.09.52,1.65l.74,2.39h-.09C245.27,123.6,245,122.78,244.73,122Z"/><path class="cls-151" d="M238.51,118.37c.46.17.75.31.75.31l.2.1c.13.07.31.16.52.29a3.91,3.91,0,0,1,1.31,1.22,4.93,4.93,0,0,1,.58,1.69c0,.23.07.43.08.57a2,2,0,0,1,0,.23.78.78,0,0,1-.06-.22l-.12-.57a4.83,4.83,0,0,0-.62-1.62,3.8,3.8,0,0,0-1.28-1.15c-.21-.12-.39-.2-.51-.26l-.2-.1s-.27-.13-.7-.3a1.49,1.49,0,0,1,0-.21Z"/><path class="cls-152" d="M246.65,111.42a14.59,14.59,0,0,1-1.48.73,11.86,11.86,0,0,1-2,.61c-.28.07-.51.1-.68.13l-.25,0-.26,0c-.17,0-.4.05-.69.05s-.53,0-.83,0l.18-.17.64,0c.28,0,.51,0,.68-.07l.25,0,.25,0c.17,0,.4,0,.67-.12a12.44,12.44,0,0,0,2-.56,14,14,0,0,0,1.39-.64Z"/><path class="cls-153" d="M241,114c.42.08.82.15,1.17.18l.47,0H244l.47,0a11.59,11.59,0,0,0,1.17-.16,13.22,13.22,0,0,0,1.32-.31c.44-.14.88-.3,1.28-.47s.71-.33,1-.49l.07.06c-.3.17-.65.35-1,.53a13.65,13.65,0,0,1-1.28.5c-.44.14-.9.26-1.33.35s-.83.14-1.18.17l-.48,0h-1l-.36,0-.48,0c-.35,0-.76-.11-1.19-.2a11.1,11.1,0,0,1-1.15-.32l.09-.12C240.23,113.79,240.6,113.89,241,114Z"/><path class="cls-154" d="M251.06,115.37l-.13,0-.12,0c-.08,0-.19-.07-.33-.1a6.93,6.93,0,0,0-1-.23,8.62,8.62,0,0,0-1-.1,2.14,2.14,0,0,1-.47,0,2,2,0,0,1,.47,0,8,8,0,0,1,1.06,0,7.82,7.82,0,0,1,1,.19l.34.09.13,0h0a2.44,2.44,0,0,1,.1.24Z"/><path class="cls-155" d="M240,115.38c.52.12.86.17.86.17s.34.07.86.14a15.16,15.16,0,0,0,1.92.12,12.65,12.65,0,0,0,1.91-.17c.26,0,.48-.08.63-.12a1,1,0,0,1,.23,0s-.08,0-.22.08-.36.1-.62.16a11.23,11.23,0,0,1-1.93.23,14.41,14.41,0,0,1-1.94-.08c-.53-.06-.87-.13-.87-.13s-.35-.06-.87-.18l-1.05-.28.06-.15C239.36,115.23,239.72,115.32,240,115.38Z"/><rect class="cls-156" x="8.67" y="76.38" width="332.65" height="221.77" transform="translate(350 374.54) rotate(180)"/></g></g></svg>