<svg xmlns="http://www.w3.org/2000/svg" xmlns:xlink="http://www.w3.org/1999/xlink" viewBox="0 0 350 482"><defs><style>.cls-1,.cls-13,.cls-2,.cls-8{fill:none;}.cls-2{stroke:#755d69;stroke-width:0.45px;}.cls-13,.cls-19,.cls-2,.cls-27,.cls-8{stroke-miterlimit:10;}.cls-3{isolation:isolate;}.cls-4{fill:#fac557;}.cls-5{opacity:0.35;mix-blend-mode:overlay;}.cls-32,.cls-6{fill:#fff;}.cls-6{opacity:0.42;}.cls-7{fill:#be4427;}.cls-13,.cls-8{stroke:#010100;}.cls-8{stroke-width:0.43px;}.cls-9{fill:#f7bc9d;}.cls-10{fill:#010100;}.cls-11{fill:#403e53;}.cls-12{fill:#cfd6e3;}.cls-13{stroke-linecap:round;stroke-width:0.7px;}.cls-14{fill:#fcfaf1;}.cls-15{fill:url(#Motivo_nuevo_5);}.cls-16{fill:#b67873;}.cls-17{fill:#f4ac8c;}.cls-18{fill:#e94417;}.cls-19{fill:#2f3049;stroke:#2f3049;stroke-width:0.37px;}.cls-20{fill:#ef9871;}.cls-21{fill:#5f462c;}.cls-22{fill:#f3e7a4;}.cls-23{fill:#82b1ab;}.cls-24{fill:#9eb17d;}.cls-25{fill:#06663c;}.cls-26{fill:#a0d6da;}.cls-27{fill:#060706;stroke:#060706;}.cls-28{fill:#67403d;}.cls-29,.cls-31{fill:#941e23;}.cls-30{fill:#cf221e;}.cls-31,.cls-36,.cls-48{opacity:0.75;}.cls-31,.cls-36,.cls-46{mix-blend-mode:multiply;}.cls-33,.cls-45{fill:#f3a08f;}.cls-33{opacity:0.45;}.cls-34{clip-path:url(#clip-path);}.cls-35,.cls-36{fill:#9a2424;}.cls-37{fill:#dc5631;}.cls-38{fill:#e94a4c;}.cls-39{fill:#ed7c81;}.cls-40{fill:#3a7837;}.cls-41{fill:#73a22f;}.cls-42{fill:#8bbc23;}.cls-43{fill:#f8e989;}.cls-44,.cls-46,.cls-50{fill:#f1e4db;}.cls-47{fill:#efac28;}.cls-48{fill:#f29427;}.cls-49{fill:#ed7455;}.cls-50{opacity:0.5;}.cls-51{fill:#a4cc39;}.cls-52{fill:#f6e2a8;}.cls-53{font-size:30px;}.cls-53,.cls-55{fill:#231916;font-family:NotoSansKR-Bold-KSCpc-EUC-H, Noto Sans KR;}.cls-54{font-size:21px;fill:#828182;font-family:NotoSansKR-Medium-KSCpc-EUC-H, Noto Sans KR;}.cls-55{font-size:18px;}</style><pattern id="Motivo_nuevo_5" data-name="Motivo nuevo 5" width="80" height="80" patternTransform="translate(107.38 75.22) scale(0.62)" patternUnits="userSpaceOnUse" viewBox="0 0 80 80"><rect class="cls-1" width="80" height="80"/><line class="cls-2" x1="52.95" y1="78.04" x2="52.95" y2="173.4"/><line class="cls-2" x1="30.18" y1="78.04" x2="30.18" y2="173.4"/><line class="cls-2" x1="18.79" y1="78.04" x2="18.79" y2="173.4"/><line class="cls-2" x1="7.4" y1="78.04" x2="7.4" y2="173.4"/><line class="cls-2" x1="75.72" y1="78.04" x2="75.72" y2="173.4"/><line class="cls-2" x1="64.33" y1="78.04" x2="64.33" y2="173.4"/><line class="cls-2" x1="41.56" y1="78.04" x2="41.56" y2="173.4"/><line class="cls-2" x1="73.88" y1="34.34" x2="169.24" y2="34.34"/><line class="cls-2" x1="73.88" y1="57.11" x2="169.24" y2="57.11"/><line class="cls-2" x1="73.88" y1="68.49" x2="169.24" y2="68.49"/><line class="cls-2" x1="73.88" y1="79.88" x2="169.24" y2="79.88"/><line class="cls-2" x1="73.88" y1="11.57" x2="169.24" y2="11.57"/><line class="cls-2" x1="73.88" y1="22.95" x2="169.24" y2="22.95"/><line class="cls-2" x1="73.88" y1="45.72" x2="169.24" y2="45.72"/><line class="cls-2" x1="-6.12" y1="34.34" x2="89.24" y2="34.34"/><line class="cls-2" x1="-6.12" y1="57.11" x2="89.24" y2="57.11"/><line class="cls-2" x1="-6.12" y1="68.49" x2="89.24" y2="68.49"/><line class="cls-2" x1="-6.12" y1="79.88" x2="89.24" y2="79.88"/><line class="cls-2" x1="-6.12" y1="11.57" x2="89.24" y2="11.57"/><line class="cls-2" x1="-6.12" y1="22.95" x2="89.24" y2="22.95"/><line class="cls-2" x1="-6.12" y1="45.72" x2="89.24" y2="45.72"/><line class="cls-2" x1="52.95" y1="-1.96" x2="52.95" y2="93.4"/><line class="cls-2" x1="30.18" y1="-1.96" x2="30.18" y2="93.4"/><line class="cls-2" x1="18.79" y1="-1.96" x2="18.79" y2="93.4"/><line class="cls-2" x1="7.4" y1="-1.96" x2="7.4" y2="93.4"/><line class="cls-2" x1="75.72" y1="-1.96" x2="75.72" y2="93.4"/><line class="cls-2" x1="64.33" y1="-1.96" x2="64.33" y2="93.4"/><line class="cls-2" x1="41.56" y1="-1.96" x2="41.56" y2="93.4"/><line class="cls-2" x1="-86.12" y1="34.34" x2="9.24" y2="34.34"/><line class="cls-2" x1="-86.12" y1="57.11" x2="9.24" y2="57.11"/><line class="cls-2" x1="-86.12" y1="68.49" x2="9.24" y2="68.49"/><line class="cls-2" x1="-86.12" y1="79.88" x2="9.24" y2="79.88"/><line class="cls-2" x1="-86.12" y1="11.57" x2="9.24" y2="11.57"/><line class="cls-2" x1="-86.12" y1="22.95" x2="9.24" y2="22.95"/><line class="cls-2" x1="-86.12" y1="45.72" x2="9.24" y2="45.72"/><line class="cls-2" x1="73.88" y1="-0.12" x2="169.24" y2="-0.12"/><line class="cls-2" x1="-6.12" y1="-0.12" x2="89.24" y2="-0.12"/><line class="cls-2" x1="52.95" y1="-81.96" x2="52.95" y2="13.4"/><line class="cls-2" x1="30.18" y1="-81.96" x2="30.18" y2="13.4"/><line class="cls-2" x1="18.79" y1="-81.96" x2="18.79" y2="13.4"/><line class="cls-2" x1="7.4" y1="-81.96" x2="7.4" y2="13.4"/><line class="cls-2" x1="75.72" y1="-81.96" x2="75.72" y2="13.4"/><line class="cls-2" x1="64.33" y1="-81.96" x2="64.33" y2="13.4"/><line class="cls-2" x1="41.56" y1="-81.96" x2="41.56" y2="13.4"/><line class="cls-2" x1="-86.12" y1="-0.12" x2="9.24" y2="-0.12"/></pattern><clipPath id="clip-path"><path class="cls-1" d="M259.07,127.87a47.92,47.92,0,0,0,7.14,1.09c1.3.09,5.08.11,6,.08a17.06,17.06,0,0,0,4.74-.95,10.06,10.06,0,0,0,3.52-1.84,4.52,4.52,0,0,0,1.64-3.49,5.82,5.82,0,0,0-.61-2.07,8.3,8.3,0,0,0-2-2.82c-.68-.61-3.21-2.56-3.76-3s-3.86-2.74-13.34-5.43a46.89,46.89,0,0,0-11-1.78,23.89,23.89,0,0,0-10.41,1.84,6.14,6.14,0,0,0-2.52,1.78,4.57,4.57,0,0,0-.53,4.07,8.52,8.52,0,0,0,2.37,3.5,28.53,28.53,0,0,0,8.14,5.29A85.26,85.26,0,0,0,259.07,127.87Z"/></clipPath></defs><title>Artboard 24 copy 12</title><g class="cls-3"><g id="레이어_1" data-name="레이어 1"><rect class="cls-4" x="-0.09" y="0.75" width="350" height="482"/><g class="cls-5"><path class="cls-6" d="M247.53,181.46c.41-9.18,6.38-17,11.1-24.87s8.36-17.9,4-26c-9.59-17.93-42.18-4.39-54.93-20.24-5.66-7-4.88-17.18-8.15-25.61-4.27-11-15.44-18.25-27-20.41s-23.57.06-34.87,3.45c-20.34,6.12-41,17.69-48.8,37.47-6,15.31-3,32.88,3.74,47.88,4.82,10.76,11.6,21.09,12.5,32.85,1.08,14-6.38,27.08-11.16,40.32-6.68,18.51-8.16,39.36-1.34,57.82s22.7,34,42,37.77c15.79,3.09,33.31-2.81,43.54-14.9a52.28,52.28,0,0,0,45.62,2c21.58-9.68,35.43-31.84,41.2-54.77,2.8-11.08,3.94-23-.07-33.75C259.85,206.94,246.88,195.87,247.53,181.46Z"/></g><path class="cls-7" d="M106.9,169.83a11.28,11.28,0,0,1-.36,2.56,6.68,6.68,0,0,1-12.15,1.72,9.22,9.22,0,0,1-1.19-4.28Z"/><path class="cls-8" d="M105.11,160.27l-9.92.08s-3.92,8.49-.8,13.76a6.68,6.68,0,0,0,12.15-1.72C107.23,169.78,107.09,165.94,105.11,160.27Z"/><line class="cls-8" x1="99.91" y1="177.35" x2="99.91" y2="192.08"/><line class="cls-8" x1="103.87" y1="192.08" x2="95.39" y2="192.08"/><path class="cls-9" d="M157,317.32a54.64,54.64,0,0,0,0,11l-8.8-.24q-1-5.35-1.71-10.84C150,317.32,153.51,317.36,157,317.32Z"/><path class="cls-10" d="M157.16,325l-9.58.37.59,4.64s-11.36,1.34-12,6.13l21.55-.37Z"/><path class="cls-9" d="M180.54,317c1.66,6.72,3,11,3,11l8.81-.24c-.45-3.87-.79-6.7-1.28-10.85Q185.81,317,180.54,317Z"/><path class="cls-10" d="M182.23,325l10.2.37,1.5,5s10,1,10.6,5.79l-20-.31Z"/><path class="cls-11" d="M195.22,313.4a29.45,29.45,0,0,1-19.38-.17A687.46,687.46,0,0,1,163.29,222l-2-.09c-1.93,28.91-.19,94.15-.19,94.15-8.09,2.85-19.36-.38-19.36-.38-13.95-97,2.79-127.84,2.79-127.84l39.46.87C189.1,198.17,195.22,313.4,195.22,313.4Z"/><path class="cls-12" d="M163.08,319.72q-10.7.9-21.47,1.14l-.18-7.71q10.81-.22,21.58-1.14Q163.06,315.87,163.08,319.72Z"/><path class="cls-13" d="M160.25,193.48s-1.09,20.82,1.39,28.22"/><path class="cls-13" d="M173.83,192.8s-.44,15.84,10.56,18.48"/><path class="cls-13" d="M148,193.39s-1.47,20-9.68,20"/><path class="cls-13" d="M182.24,194.25s5.31,33.81,5.87,46.67c.92,21.05,3.19,55.31,5.1,72.78"/><path class="cls-12" d="M174.84,319.05q10.54.45,21.09.26l.3-6.92q-10.9-.24-21.74-1.17Q174.65,315.14,174.84,319.05Z"/><path class="cls-14" d="M139.93,196s-.53,46.56,2.16,59.68l50.45,1L187,196.05Z"/><path class="cls-15" d="M139.93,196s-.53,46.56,2.16,59.68l50.45,1L187,196.05Z"/><polygon class="cls-9" points="118.53 142 121.59 132.5 128.67 134.91 128.35 143.12 118.53 142"/><path class="cls-10" d="M165.71,117.85l16.81-.13s3.85-8.5-.77-12.3-3.47-17.66-16.68-16.87S165.71,117.85,165.71,117.85Z"/><path class="cls-9" d="M152.53,101c.82-5.19,6-13.87,15.17-8.53,2.89,1.68,4.12,4.74,4.71,7.93.41,2.22-.38,24-.38,24-.78,8.74-13.91,10.81-14.36.17l.54-7.29C151.56,115.17,151.6,106.81,152.53,101Z"/><path class="cls-16" d="M158.21,117.3s3.76,1.26,10.85-3.14a24.09,24.09,0,0,1-11.2,8.11Z"/><circle class="cls-17" cx="166.41" cy="108.16" r="3.83"/><path class="cls-17" d="M156.45,105.53a3.82,3.82,0,0,0-3.83-3.83h-.2a27.39,27.39,0,0,0-.11,7.63h.31A3.82,3.82,0,0,0,156.45,105.53Z"/><path class="cls-9" d="M176.62,103.59a2.82,2.82,0,1,1-3.41-2.08A2.83,2.83,0,0,1,176.62,103.59Z"/><path class="cls-10" d="M172.57,105a1.62,1.62,0,0,1,1-1.42,1.2,1.2,0,0,1,1,.08,1.17,1.17,0,0,1,.57.71,2,2,0,0,0-1.33-.1A9.76,9.76,0,0,0,172.57,105Z"/><path class="cls-10" d="M159.43,98.06a2.44,2.44,0,0,1-.05,1.17,5.07,5.07,0,0,1-.43,1.08,8.36,8.36,0,0,1-1.33,1.85l-.05-.44a19.22,19.22,0,0,1,1.8,1.81,19.08,19.08,0,0,1-2.17-1.33L157,102l.18-.27,1.21-1.81A9,9,0,0,0,159.43,98.06Z"/><path class="cls-10" d="M162.4,99.56a9.67,9.67,0,0,0,.1,1.44c.07.46.26.85.47.88s.55-.11.87-.44a9.41,9.41,0,0,0,.93-1.11h0a.29.29,0,0,1,.41-.06.31.31,0,0,1,.1.34,4.78,4.78,0,0,1-.82,1.43,2.34,2.34,0,0,1-.69.58,1.31,1.31,0,0,1-1.11.13,1.42,1.42,0,0,1-.78-.76,2.46,2.46,0,0,1-.19-.89,4.6,4.6,0,0,1,.22-1.62.25.25,0,0,1,.31-.17.25.25,0,0,1,.17.24Z"/><path class="cls-10" d="M154.57,98.67c0,.46,0,.94.05,1.38a3.07,3.07,0,0,0,.12.59c.06.18.14.23.15.22a.45.45,0,0,0,.24-.12,3.08,3.08,0,0,0,.42-.45c.27-.34.53-.74.78-1.12v0a.3.3,0,0,1,.41-.08.31.31,0,0,1,.12.33,5.38,5.38,0,0,1-.62,1.39,2.83,2.83,0,0,1-.54.63,1,1,0,0,1-1.81-.52,2.68,2.68,0,0,1-.09-.83,5,5,0,0,1,.28-1.49.25.25,0,0,1,.48.08Z"/><path class="cls-18" d="M157.82,107.31s.49-1,1.09-.41c0,0,.67-1,1.45.12a1.52,1.52,0,0,1-1.19,1.78C157.83,109,157.82,107.31,157.82,107.31Z"/><path class="cls-10" d="M157.23,106.73c.38.13.68.3,1,.41a2.25,2.25,0,0,0,.79.17,3.85,3.85,0,0,0,1.69-.65,1.72,1.72,0,0,1-.51,1,1.66,1.66,0,0,1-1.18.52,1.69,1.69,0,0,1-1.18-.5A1.93,1.93,0,0,1,157.23,106.73Z"/><path class="cls-10" d="M154.67,95.15a18.12,18.12,0,0,0,12.82-2.29s-2.09,12.91,5,9a2.87,2.87,0,0,1,2.31-.21S177,90.43,168,88.66C160.38,87.16,154.67,95.15,154.67,95.15Z"/><path class="cls-10" d="M124.65,159.76c-.21-.06.54-3.74,1.9-8.17s2.77-7.92,3-7.85-.87,3.66-2.21,8.08S124.87,159.81,124.65,159.76Z"/><path class="cls-9" d="M240.6,173a16,16,0,0,1,2.49.64c1,.39,2.54.32,2.48-.13-.16-1.22-7.53-3-7.53-3s-.79-.14,1.33-1.09,1.46-1.79,1.46-1.79a45.29,45.29,0,0,1-4.87.67c-.58,0-4.49,0-4.49,0h0c-2.51-.28-23.17-.55-24.74-.76-1.08,2.91-2.29,5.77-3.57,8.6,10.69,3.1,26.71.64,28.86.5,4.45.1,8.57,2.39,9.25,2s-3.11-2.37-3.11-2.37c1.42.16,6.31,2.86,6.46,1.85.09-.6-4.73-3.28-4.73-3.28a31.52,31.52,0,0,1,4.38,1.62c1.71.77,1.85.14,1.85.14C246.25,175.29,240.6,173,240.6,173Z"/><path class="cls-19" d="M237.43,170a1.81,1.81,0,0,1-.37,1.07,3.56,3.56,0,0,1-2.21,1.58l.05-.33h0a4.22,4.22,0,0,1,1.8,2.06,2,2,0,0,1,.21,1.12c-.06,0-.14-.41-.44-1a4.46,4.46,0,0,0-1.75-1.85l0,0-.39-.23.44-.1a3.63,3.63,0,0,0,2.08-1.38C237.25,170.37,237.37,170,237.43,170Z"/><path class="cls-18" d="M197.23,156.67s-14.16-25.54-21.86-31.78a6.38,6.38,0,0,0-3-1c-1.28,1.1-4.26,2.33-9.48,2-6-.32-5.17-1.75-5.22-1.76a14.28,14.28,0,0,0-12.07,4.72c-1.65,1.73-9.37,10.66-18.38,22.34l2.25-8-12.26-1.5c-9.75,18.57-5.44,33,.35,33,6.12,0,14.36-5.58,21.8-12-.49,3.57-.73,6.07-.81,6.63-.75,5.5-1,24.15,1.39,29.14,0,0,25.29-1.47,36.28-1.06,4,.15,7.21,2.94,10.8,1.12,2.24-5.46,2.12-21.22.82-26.64,2.76,3,16,9.79,30.53,9.4,1.16-2.36,1.81-12.36,3.13-15.27C201.92,161.37,197.23,156.67,197.23,156.67Z"/><path class="cls-10" d="M139.53,163.18c-.22-.05-.06-1.72.36-3.74s.93-3.63,1.15-3.59.06,1.72-.36,3.75S139.75,163.22,139.53,163.18Z"/><path class="cls-10" d="M187.81,177.78c-.23,0-.58-4.91-1.14-10.95s-1.11-10.94-.89-11a12.34,12.34,0,0,1,.72,3.16c.33,2,.69,4.71,1,7.74s.42,5.79.46,7.79A13.07,13.07,0,0,1,187.81,177.78Z"/><path class="cls-20" d="M127.24,124.88c.58-.61,2.28-2.46,2.28-3.29,0-1.47-2.48,1.17-3.56,2.38A13.89,13.89,0,0,1,127.24,124.88Z"/><path class="cls-21" d="M116.77,112.83a1.2,1.2,0,0,1,2-.32,122.67,122.67,0,0,1,11.69,14.87c4.28,6.88,7.11,11.4,7.11,11.4l12.52,10.81a9,9,0,0,1-10-1.31c-3.56-3.18-5.21-8.8-5.21-8.8S124,119.91,117.09,114.24a1.2,1.2,0,0,1-.32-1.41Z"/><path class="cls-9" d="M121.73,137.46a53.16,53.16,0,0,1-.86-10,3,3,0,0,1,1.73-2.76c2.85-1.65,8.65-2.84,8.86-2s-4.82,2.29-4.82,2.29,6.22-1,5,.39c-.66.76-4.16,1-4.16,1s3.8.4,3.51,1c-.51,1-3.64.85-3.64.85a7.26,7.26,0,0,1,1.94,4.46c.32,2.33-4.45,6.95-4.45,6.95Z"/><path class="cls-10" d="M124.37,128.92c0-.14.64-.42,1.51-.49.43,0,.83,0,1.06-.05s.34-.1.42-.07,0,.3-.31.44a4,4,0,0,1-1.12.21C125.09,129,124.4,129.07,124.37,128.92Z"/><path class="cls-22" d="M166.61,168.59c-3.82-3-6.69-1.42-12.32,0-2.59.65-11.19,3.15-12.38,3.94-1.64.57-3,1.49-3.44,2.91-.92,3.22,2.58,4.66,5.1,5.1a46.37,46.37,0,0,0,16.28,0c3.36-.64,7.74-1.58,8.93-5.3A5.64,5.64,0,0,0,166.61,168.59Z"/><path class="cls-23" d="M130.28,173c.45,10.3,10.08,18.54,21.93,18.54s21.47-8.24,21.93-18.54Z"/><rect class="cls-23" x="143.82" y="190.11" width="16.78" height="2.15"/><path class="cls-24" d="M223.4,179.46s10.37-11.14,3.46-12.07-10.38,5.88-10.38,5.88,7.49-10.83.87-12.07-5.48,19.5-5.48,19.5Z"/><path class="cls-25" d="M212,178.53s3.17-20.12-4.61-19.5-5.48,9.6-5.48,9.6-2.59-12.07-7.49-9,2.31,12.69,2.31,12.69-9.8-5-8.36-.62,9.8,9,9.8,9Z"/><path class="cls-26" d="M190.51,178.24l37.24-.1-.93,2.26a19.17,19.17,0,0,1-17.71,11.86h0a19.14,19.14,0,0,1-17.68-11.81Z"/><line class="cls-27" x1="101.03" y1="205.06" x2="244.67" y2="205.06"/><rect class="cls-28" x="90.89" y="192.24" width="161.31" height="4.06"/><polygon class="cls-28" points="86.17 335.46 96.62 193.36 106.81 194.38 88.85 335.73 86.17 335.46"/><polygon class="cls-28" points="255.72 335.73 237.76 194.38 247.95 193.36 258.4 335.46 255.72 335.73"/><line class="cls-27" x1="76.6" y1="335.73" x2="266.47" y2="335.73"/><path class="cls-29" d="M282.4,126a5.68,5.68,0,0,0,.51-4.19,7.28,7.28,0,0,0-1.59-2.94,25.43,25.43,0,0,0-8.21-6.56A51.39,51.39,0,0,0,263,108.7c-6.51-1.8-13.49-2.71-20-.9a12.49,12.49,0,0,0-2.17.79,13.3,13.3,0,0,0-2.32,1.53,4.44,4.44,0,0,0-1.75,2.44,7.13,7.13,0,0,0,.21,4.33c1.61,4.4,3.64,8.73,7.2,11.78a25.19,25.19,0,0,0,6.24,3.66c5.31,2.35,11.28,3.78,16.9,2.9a27.15,27.15,0,0,0,10.26-4.46A13.85,13.85,0,0,0,282.4,126Z"/><path class="cls-30" d="M240.21,120.16a12.53,12.53,0,0,1-2.55-3.29c-.07-.13-.28,0-.21.12a13.09,13.09,0,0,0,2.59,3.33C240.15,120.43,240.32,120.26,240.21,120.16Z"/><path class="cls-30" d="M268.34,130.3a52.65,52.65,0,0,1-5.48-.52,54.4,54.4,0,0,1-5.37-1.11,50.46,50.46,0,0,1-5.23-1.67,52.42,52.42,0,0,1-5-2.24,50.79,50.79,0,0,1-4.74-2.75l-.56-.38c-.13-.08-.24.13-.12.21a50.08,50.08,0,0,0,4.73,2.83,51.47,51.47,0,0,0,5,2.3,50.93,50.93,0,0,0,5.23,1.75,49.67,49.67,0,0,0,5.41,1.19,52.17,52.17,0,0,0,5.45.59l.7,0C268.5,130.54,268.49,130.3,268.34,130.3Z"/><path class="cls-30" d="M280.17,128a14.92,14.92,0,0,1-7.72,2c-.16,0-.15.23,0,.23a14.85,14.85,0,0,0,6.24-1.21,14,14,0,0,0,1.6-.8A.12.12,0,0,0,280.17,128Z"/><path class="cls-31" d="M271.35,132.62a24.34,24.34,0,0,1-3.08,0c-.15,0-.14.22,0,.23a21.12,21.12,0,0,0,3.08,0C271.51,132.84,271.5,132.6,271.35,132.62Z"/><path class="cls-31" d="M269.78,133.6a.12.12,0,0,0-.12-.12l-.82.07a.13.13,0,0,0-.11.12.11.11,0,0,0,.12.12l.82-.07A.13.13,0,0,0,269.78,133.6Z"/><path class="cls-31" d="M267.68,134.48a.12.12,0,0,0-.12-.11l-.47,0a.12.12,0,1,0,0,.24l.47,0C267.62,134.61,267.68,134.54,267.68,134.48Z"/><path class="cls-31" d="M248.3,128.78a34.15,34.15,0,0,1-5.85-3.62c-.12-.09-.29.08-.17.17a34.49,34.49,0,0,0,5.9,3.65C248.32,129.05,248.44,128.84,248.3,128.78Z"/><path class="cls-31" d="M247.08,129.5a16.7,16.7,0,0,1-2.63-1.79c-.11-.09-.28.08-.16.17A17.23,17.23,0,0,0,247,129.7.12.12,0,0,0,247.08,129.5Z"/><path class="cls-32" d="M259.07,127.87a47.92,47.92,0,0,0,7.14,1.09c1.3.09,5.08.11,6,.08a17.06,17.06,0,0,0,4.74-.95,10.06,10.06,0,0,0,3.52-1.84,4.52,4.52,0,0,0,1.64-3.49,5.82,5.82,0,0,0-.61-2.07,8.3,8.3,0,0,0-2-2.82c-.68-.61-3.21-2.56-3.76-3s-3.86-2.74-13.34-5.43a46.89,46.89,0,0,0-11-1.78,23.89,23.89,0,0,0-10.41,1.84,6.14,6.14,0,0,0-2.52,1.78,4.57,4.57,0,0,0-.53,4.07,8.52,8.52,0,0,0,2.37,3.5,28.53,28.53,0,0,0,8.14,5.29A85.26,85.26,0,0,0,259.07,127.87Z"/><path class="cls-33" d="M242.46,109.2c-1.72.65-3.53,1.47-4.48,3.14a4,4,0,0,0-.5,1.45c0,.15.21.21.23.06.24-1.85,1.8-3.09,3.39-3.83.47-.22,1-.41,1.43-.59C242.67,109.38,242.61,109.15,242.46,109.2Z"/><path class="cls-33" d="M243.08,109.91a7.94,7.94,0,0,0-4.63,2.7c-.1.12.07.29.17.17a7.82,7.82,0,0,1,4.52-2.65C243.29,110.11,243.23,109.88,243.08,109.91Z"/><path class="cls-33" d="M245.69,108.73l-1.87.35c-.15,0-.09.26.06.23l1.88-.35C245.91,108.93,245.84,108.7,245.69,108.73Z"/><path class="cls-33" d="M281.18,124a9.46,9.46,0,0,0-5.09-7.1c-.14-.07-.26.14-.12.2a9.14,9.14,0,0,1,5,6.9C281,124.14,281.2,124.14,281.18,124Z"/><path class="cls-33" d="M281.73,122.74a10.48,10.48,0,0,0-2.88-5,10.3,10.3,0,0,0-1.26-1c-.13-.09-.24.12-.12.2a10.27,10.27,0,0,1,3.53,4.35,10,10,0,0,1,.5,1.52A.12.12,0,0,0,281.73,122.74Z"/><path class="cls-33" d="M276,115.65a13.43,13.43,0,0,0-1.74-1.15c-.13-.07-.25.14-.11.21a11.72,11.72,0,0,1,1.69,1.11C275.92,115.91,276.08,115.74,276,115.65Z"/><g class="cls-34"><path class="cls-30" d="M238.32,114.06a7.07,7.07,0,0,1,4.17-3.09,18.07,18.07,0,0,1,5.3-1,34.33,34.33,0,0,1,5.16.35l4,.48a30.39,30.39,0,0,1,6.64,1.31c1.65.59,3.18,1.46,4.83,2.06a52.53,52.53,0,0,1,5.08,1.76,14.51,14.51,0,0,1,3.61,2.67,12.77,12.77,0,0,1,2.9,3.78,5.85,5.85,0,0,1,.25,4.58,2.52,2.52,0,0,1-1.08,1.3c-.32.17-.8,1-1.16,1-7.82,1.35-15.78.92-23.66-.29a30.38,30.38,0,0,1-6-1.43,39.86,39.86,0,0,1-4.84-2.33,9.58,9.58,0,0,1-3.47-2.63,9.78,9.78,0,0,1-.86-1.71A13.76,13.76,0,0,1,238,117.5,8.69,8.69,0,0,1,238.32,114.06Z"/><path class="cls-35" d="M262.59,112.31a.33.33,0,0,1,0-.17.37.37,0,0,1,.2-.09,4.12,4.12,0,0,1,1.4,0,36.47,36.47,0,0,1,4.48,1,.46.46,0,0,1,.28.17.42.42,0,0,1,0,.25,19.5,19.5,0,0,1-.36,2.14.87.87,0,0,1-.11.32.83.83,0,0,1-.73.24c-.44,0-.87-.08-1.29-.14-1.11-.17-2.2-.36-3.3-.56a1.29,1.29,0,0,1-.47-.15.84.84,0,0,1-.35-.66A14.2,14.2,0,0,1,262.59,112.31Z"/><path class="cls-36" d="M266.52,114.12a17.11,17.11,0,0,0-2.93-.35.12.12,0,0,0,0,.24,16.19,16.19,0,0,1,2.87.34A.12.12,0,0,0,266.52,114.12Z"/><path class="cls-36" d="M266.05,114.5l-.77-.1a.13.13,0,0,0-.14.09.12.12,0,0,0,.09.14l.76.1a.12.12,0,0,0,.14-.09A.12.12,0,0,0,266.05,114.5Z"/><path class="cls-36" d="M267.59,113.69a.12.12,0,0,0-.12-.12l-.49,0c-.06,0-.12.06-.12.12a.12.12,0,0,0,.12.11l.5,0A.12.12,0,0,0,267.59,113.69Z"/><path class="cls-37" d="M268.89,112.94a19.2,19.2,0,0,0-6.29-1c-.15,0-.14.23,0,.23a18.83,18.83,0,0,1,6.22,1C269,113.22,269,113,268.89,112.94Z"/><path class="cls-37" d="M266.31,112.83l-2.43-.44c-.15,0-.21.21-.06.23l2.43.44C266.4,113.08,266.46,112.86,266.31,112.83Z"/><path class="cls-37" d="M265.25,113.19l-.48-.09a.13.13,0,0,0-.15.08.13.13,0,0,0,.09.15l.48.09a.12.12,0,0,0,.14-.09A.12.12,0,0,0,265.25,113.19Z"/><path class="cls-35" d="M265.56,115.52a24.67,24.67,0,0,0,2.81-1.54c.17-.11.39,0,.58,0a27.22,27.22,0,0,1,4.26,1.57,7.91,7.91,0,0,1-1.79,2.16.93.93,0,0,1-.41.23,1,1,0,0,1-.41-.06,24.11,24.11,0,0,1-4.7-1.94A.91.91,0,0,1,265.56,115.52Z"/><path class="cls-36" d="M271.79,115.53l-.93-.32a.12.12,0,0,0-.14.09.11.11,0,0,0,.08.14l.93.32a.12.12,0,0,0,.14-.09A.11.11,0,0,0,271.79,115.53Z"/><path class="cls-36" d="M270.57,116.24l-1.65-.68a.11.11,0,0,0-.16,0c0,.05,0,.14,0,.16l1.66.68a.13.13,0,0,0,.16,0A.12.12,0,0,0,270.57,116.24Z"/><path class="cls-37" d="M272.34,115.07a12.86,12.86,0,0,0-3.87-1.23,0,0,0,0,0,0,0h-.06a26.13,26.13,0,0,1-2.39,1.29c-.14.06,0,.26.12.2a24.55,24.55,0,0,0,2.37-1.27,13.2,13.2,0,0,1,3.76,1.2C272.36,115.34,272.48,115.14,272.34,115.07Z"/><path class="cls-37" d="M269.89,114.83l-1.08-.35a.12.12,0,0,0-.05.23l1.07.35a.12.12,0,1,0,.06-.23Z"/><path class="cls-37" d="M268.29,115a.11.11,0,0,0-.06-.07l-.14-.07H268l0,0,0,0a.14.14,0,0,0,0,.09.13.13,0,0,0,.05.07l.14.07h.1l0,0s0,0,0,0A.1.1,0,0,0,268.29,115Z"/><path class="cls-35" d="M271.75,117.33l1.13-2.2a2.74,2.74,0,0,1,1.75.49,24.31,24.31,0,0,0,3.9,1.83,7.77,7.77,0,0,1-.78,2.26.47.47,0,0,1-.14.17.41.41,0,0,1-.29,0,16.27,16.27,0,0,1-5.08-1.69,1.06,1.06,0,0,1-.45-.36A.54.54,0,0,1,271.75,117.33Z"/><path class="cls-37" d="M278.67,117.48a.11.11,0,0,0-.07-.13h0c-1.83-.9-3.69-1.73-5.57-2.51a.13.13,0,0,0-.18.12.1.1,0,0,0-.08,0,6.42,6.42,0,0,0-.71,1.61.12.12,0,0,0,.23.06,6.17,6.17,0,0,1,.69-1.55l0-.05q2.75,1.14,5.43,2.45a6.16,6.16,0,0,1-.42,1.3c-.06.13.15.25.21.11A6.12,6.12,0,0,0,278.67,117.48Z"/><path class="cls-37" d="M276.38,116.89l-3.07-1.26c-.14-.06-.26.14-.12.2l3.07,1.26C276.4,117.15,276.52,116.94,276.38,116.89Z"/><path class="cls-37" d="M274.58,116.76l-.33-.09h0l0,0-.08,0-.15-.09a.12.12,0,0,0-.12.2,1.74,1.74,0,0,0,.69.28.12.12,0,0,0,.05-.23Z"/><path class="cls-36" d="M277.48,118a4.52,4.52,0,0,0-1.07-.37c-.14,0-.2.2-.05.23a4,4,0,0,1,1,.35.13.13,0,0,0,.16-.05A.12.12,0,0,0,277.48,118Z"/><path class="cls-36" d="M277.2,118.7a1.12,1.12,0,0,0-.62-.27.1.1,0,0,0-.09,0s-.05,0-.05.07,0,.14.08.15l.15,0,.07,0,0,0h0l.14.07.06,0,0,0h0a.11.11,0,1,0,.16-.16Z"/><path class="cls-35" d="M278.84,119.66a.42.42,0,0,1,.29.14.37.37,0,0,1,0,.31c-.12.55-.25,1.1-.38,1.65a.32.32,0,0,1-.1.19.35.35,0,0,1-.25,0c-1.15-.21-2.3-.46-3.44-.74-.21-.06-.46-.13-.55-.34a.69.69,0,0,1,0-.35c0-.33,0-1,.28-1.21s.81-.1,1.13-.07C276.82,119.36,277.83,119.49,278.84,119.66Z"/><path class="cls-36" d="M278,120.16l-1.64-.19a.12.12,0,0,0-.15.08c0,.06,0,.14.09.14l1.65.19a.11.11,0,0,0,.14-.08C278.06,120.24,278,120.16,278,120.16Z"/><path class="cls-36" d="M277.45,120.72l-1.88-.14c-.16,0-.15.22,0,.24l1.88.14C277.6,121,277.6,120.73,277.45,120.72Z"/><path class="cls-37" d="M279.06,120.75a.73.73,0,0,1,.08-.48.67.67,0,0,0,0-.42c-.1-.33-.52-.33-.8-.37-.82-.11-1.64-.2-2.47-.26-.15,0-.15.23,0,.24.74.05,1.49.13,2.23.23l.53.07c.16,0,.3.08.28.27s-.23.49-.13.78C278.88,121,279.1,120.89,279.06,120.75Z"/><path class="cls-35" d="M268.55,118l1.61-1.53a.88.88,0,0,1,.45-.29.82.82,0,0,1,.38,0,11.52,11.52,0,0,1,1.37.55l3.47,1.61a1.59,1.59,0,0,1-.13,1.58l-.71,1.43c0,.06-.06.12-.12.14a.25.25,0,0,1-.15,0,11.32,11.32,0,0,1-5.39-1.87,2.47,2.47,0,0,1-.73-.67C268.42,118.72,268.31,118.21,268.55,118Z"/><path class="cls-37" d="M276.06,118.27l-2.73-1.18-1.39-.59a3.7,3.7,0,0,0-1.27-.44.84.84,0,0,0-.89.63c0,.15.21.21.23.06a.55.55,0,0,1,.46-.44,1.38,1.38,0,0,1,.77.14c.53.21,1,.45,1.56.67l3.14,1.36C276.08,118.54,276.2,118.33,276.06,118.27Z"/><path class="cls-37" d="M276.07,119a.12.12,0,0,0-.23,0,3.67,3.67,0,0,1-.66,1.71c-.09.13.12.24.21.12A3.81,3.81,0,0,0,276.07,119Z"/><path class="cls-37" d="M274.64,118.31,271.29,117c-.14,0-.25.15-.11.21l3.34,1.35C274.66,118.57,274.78,118.37,274.64,118.31Z"/><path class="cls-36" d="M273.32,119.16l-2.11-.74c-.14,0-.2.18-.06.23l2.11.73C273.4,119.43,273.46,119.21,273.32,119.16Z"/><path class="cls-36" d="M272.76,119.63l-1.52-.61a.12.12,0,0,0-.14.09.12.12,0,0,0,.09.14l1.51.61a.12.12,0,0,0,.14-.09A.11.11,0,0,0,272.76,119.63Z"/><path class="cls-38" d="M271,119.87c.95.11,1.87.44,2.82.51a8,8,0,0,1,1.47.14,10.9,10.9,0,0,0,2,.76c.46,0,1-.11,1.34.17a4.79,4.79,0,0,1,.36.41c.33.36.91.51,1.07,1s-.06.76.09,1.1a4,4,0,0,0,.35.49,1.79,1.79,0,0,1-.15,1.58,2,2,0,0,1-.35.6,3.89,3.89,0,0,1-.78.48c-.45.28-.75.76-1.2,1a2.51,2.51,0,0,1-.83.34,4.57,4.57,0,0,1-4.57-1.64c-.33-.43-.58-.93-.89-1.38-.92-1.33-2.35-2.27-3.17-3.67C267.62,120.14,269.82,119.73,271,119.87Z"/><path class="cls-30" d="M277.53,126.78a4.1,4.1,0,0,1-3.9-.54c-.12-.09-.24.12-.12.21a4.32,4.32,0,0,0,4.08.56C277.73,127,277.67,126.73,277.53,126.78Z"/><path class="cls-30" d="M279.33,125.16a3.76,3.76,0,0,1-2.21.91c-.15,0-.15.25,0,.24a4,4,0,0,0,2.37-1C279.61,125.22,279.44,125.06,279.33,125.16Z"/><path class="cls-30" d="M276.39,125.54a.12.12,0,0,0-.15-.08,5.14,5.14,0,0,1-1.11.05.12.12,0,0,0-.12.12.13.13,0,0,0,.12.12,5.8,5.8,0,0,0,1.18-.06A.12.12,0,0,0,276.39,125.54Z"/><path class="cls-30" d="M278.86,124.6a.12.12,0,0,0-.15-.08l-1.1.42a.11.11,0,0,0-.08.14.1.1,0,0,0,.14.08l1.11-.41A.13.13,0,0,0,278.86,124.6Z"/><path class="cls-30" d="M274.88,124.38h-1a.12.12,0,1,0,0,.23h1C275,124.62,275,124.38,274.88,124.38Z"/><path class="cls-30" d="M273.46,122.81l-1.31-.17a.12.12,0,0,0-.14.09.11.11,0,0,0,.08.14l1.31.17a.12.12,0,0,0,.14-.08A.12.12,0,0,0,273.46,122.81Z"/><path class="cls-30" d="M271.44,121.24l-.82-.11c-.07,0-.13,0-.15.09s0,.14.09.14l.82.11a.12.12,0,0,0,.14-.09A.11.11,0,0,0,271.44,121.24Z"/><path class="cls-39" d="M275.75,121.16c-1.34-.64-2.93-.12-4.24-.81-.13-.07-.25.13-.11.2,1.31.7,2.9.17,4.23.81C275.77,121.43,275.88,121.23,275.75,121.16Z"/><path class="cls-39" d="M278,122a6.55,6.55,0,0,1-1.28-.34.12.12,0,0,0-.14.09.11.11,0,0,0,.08.14,5.82,5.82,0,0,0,1.29.33.12.12,0,0,0,.14-.08C278.07,122,278,122,278,122Z"/><path class="cls-39" d="M275.31,121.77a5.4,5.4,0,0,0-1.83-.25c-.15,0-.15.24,0,.23a5.3,5.3,0,0,1,1.77.25C275.4,122,275.45,121.81,275.31,121.77Z"/><path class="cls-39" d="M278.48,123.22a8.52,8.52,0,0,1-2.09-.74c-.14-.07-.25.14-.12.21a9,9,0,0,0,2.15.76C278.57,123.48,278.63,123.25,278.48,123.22Z"/><path class="cls-39" d="M275.68,123.11l-.71-.34a.12.12,0,1,0-.12.2l.72.35a.12.12,0,0,0,.16,0A.13.13,0,0,0,275.68,123.11Z"/><path class="cls-40" d="M259.15,128.42a1,1,0,0,1,.16-1.08c.17-.19.45-.39.35-.63,0-.08-.1-.14-.13-.21-.12-.27.21-.51.3-.79s-.11-.6-.05-.89.49-.57.54-.92-.21-.57-.25-.87.32-.79.47-1.21.07-1,.38-1.36a1.26,1.26,0,0,1,1.11-.33,6.11,6.11,0,0,0,1.2.12,6.39,6.39,0,0,0,1.69-.71,3.44,3.44,0,0,1,3.59.75,7.49,7.49,0,0,0,.85.84c.72.53,1.71.53,2.48,1a4.68,4.68,0,0,1,1.24,1.19.91.91,0,0,1,.21.37c.06.28-.15.55-.14.83s.44.69.54,1.09-.08.66,0,1a1.24,1.24,0,0,0,.64.78,5,5,0,0,1,.87.56.77.77,0,0,1,.26.46c0,.44-.48.7-.91.8-1.81.42-3.73.13-5.54.56a2.76,2.76,0,0,1-.65.11,2.9,2.9,0,0,1-.75-.17,6.66,6.66,0,0,0-2.43-.3,8.36,8.36,0,0,1-1.87,0c-.37-.07-.72-.22-1.08-.31a8.31,8.31,0,0,0-1.93-.09A1.19,1.19,0,0,1,259.15,128.42Z"/><path class="cls-41" d="M262.7,128.09a2.29,2.29,0,0,1-.11-.67c0-.47.52-.82.53-1.29,0-.28-.16-.55-.13-.83s.2-.45.23-.7-.29-.67-.33-1a2,2,0,0,1,.27-.94,2.72,2.72,0,0,0,.13-1.57,1.63,1.63,0,0,1-.08-.53.69.69,0,0,1,.48-.57.67.67,0,0,1,.7.24,1.12,1.12,0,0,1,.1.93,6.47,6.47,0,0,0-.28,1.29c0,.54.24,1.06.19,1.59,0,.35-.19.68-.22,1a2.32,2.32,0,0,0,.08.87,9.54,9.54,0,0,0,.58,1.81,1.56,1.56,0,0,1,.18.59,1.36,1.36,0,0,1-.09.48l-.15.51a.4.4,0,0,1-.12.21.43.43,0,0,1-.2.06l-1.91.15c-.57,0-.09-.35,0-.62A1.82,1.82,0,0,0,262.7,128.09Z"/><path class="cls-41" d="M266.62,128.11a3.48,3.48,0,0,1-.39-1.5c0-.27.13-.53.15-.8.07-.82-.61-1.54-.72-2.36a7.79,7.79,0,0,1,0-1.08,3.17,3.17,0,0,0-.75-2c-.07-.08-.15-.19-.1-.28a.18.18,0,0,1,.24-.06.52.52,0,0,1,.19.2,5.77,5.77,0,0,1,.94,2,9.83,9.83,0,0,0,.28,2.05c.14.32.37.6.51.92a2.1,2.1,0,0,1,.07,1.29,1.92,1.92,0,0,0-.11.78,2.24,2.24,0,0,0,.26.54,3.83,3.83,0,0,1,.32,1.46.33.33,0,0,1,0,.22.24.24,0,0,1-.14.1c-.46.17-.55.05-.53-.37A2.42,2.42,0,0,0,266.62,128.11Z"/><path class="cls-41" d="M269.82,128.79a3,3,0,0,1-.4-1c0-.3.07-.61.06-.92a3.54,3.54,0,0,0-.81-1.73,6.62,6.62,0,0,1-.74-1.65.85.85,0,0,1,.05-.75.6.6,0,0,1,.75-.07,1.61,1.61,0,0,1,.52.63,8.62,8.62,0,0,0,1.92,2.61,3,3,0,0,1,.5.44c.43.59.07,1.51.49,2.11.16.22.43.45.33.7a.53.53,0,0,1-.3.25,6.56,6.56,0,0,1-1.72.52c-.37.05-.4.06-.45-.28A2.66,2.66,0,0,0,269.82,128.79Z"/><path class="cls-42" d="M262.67,123.25c0-.16-.22-.15-.23,0-.14,1.63-.36,3.26-.66,4.87,0,.15.2.21.23.06A48.22,48.22,0,0,0,262.67,123.25Z"/><path class="cls-42" d="M261.93,123.05c0-.15-.25-.15-.24,0a9.64,9.64,0,0,1-.16,2.34c0,.15.2.21.23.06A9.68,9.68,0,0,0,261.93,123.05Z"/><path class="cls-42" d="M264.42,128.73a10.06,10.06,0,0,0-.48-2.66c0-.15-.27-.08-.22.06a10.51,10.51,0,0,1,.46,2.61A.12.12,0,0,0,264.42,128.73Z"/><path class="cls-42" d="M265.8,125.5a16,16,0,0,1-.68-3.62c0-.15-.24-.15-.23,0a16,16,0,0,0,.68,3.69A.12.12,0,0,0,265.8,125.5Z"/><path class="cls-42" d="M271.65,122.66c-1.17-.72-2.83-.85-3.63-2.08a.12.12,0,0,0-.2.12c.84,1.28,2.5,1.41,3.72,2.16C271.67,122.94,271.78,122.74,271.65,122.66Z"/><path class="cls-42" d="M272.68,125.79a3.1,3.1,0,0,0-2.11-3,.12.12,0,0,0-.06.23,2.84,2.84,0,0,1,1.93,2.76C272.44,126,272.67,126,272.68,125.79Z"/><path class="cls-42" d="M271.73,125.2l-.4-.59a.12.12,0,1,0-.2.12l.39.59a.13.13,0,0,0,.17,0A.13.13,0,0,0,271.73,125.2Z"/><path class="cls-42" d="M273.37,127.91l-.29-.53a.14.14,0,0,0-.17,0,.13.13,0,0,0,0,.16l.3.53a.13.13,0,0,0,.16,0A.13.13,0,0,0,273.37,127.91Z"/><path class="cls-42" d="M270.91,126.11a13,13,0,0,1-2.22-2.52c-.09-.13-.29,0-.2.12a13.1,13.1,0,0,0,2.25,2.57C270.86,126.38,271,126.21,270.91,126.11Z"/><path class="cls-42" d="M270.74,127.32a1.36,1.36,0,0,0-.3-.72.12.12,0,0,0-.16,0,.12.12,0,0,0,0,.17h0l0,0,0,.07a.3.3,0,0,1,0,.08l0,0h0a.75.75,0,0,1,.05.16s0,0,0,.08v0h0v0a.12.12,0,0,0,.12.12A.11.11,0,0,0,270.74,127.32Z"/><path class="cls-42" d="M268.93,128.23a2.61,2.61,0,0,1-.25-1c0-.41-.08-.82-.13-1.23,0-.15-.25-.14-.23,0,0,.43.09.87.13,1.31a2.66,2.66,0,0,0,.28,1.07A.12.12,0,1,0,268.93,128.23Z"/><path class="cls-42" d="M267.8,124.47a6.92,6.92,0,0,1-.53-1.71.13.13,0,0,0-.15-.09.12.12,0,0,0-.08.15,7.3,7.3,0,0,0,.56,1.77.12.12,0,0,0,.16,0A.11.11,0,0,0,267.8,124.47Z"/><path class="cls-43" d="M268.71,122a.32.32,0,0,0,0-.09l-.06-.06a.17.17,0,0,0-.17,0,1.11,1.11,0,0,0-.16.11l-.05.06-.05.06,0,0a.06.06,0,0,0,0,0,.11.11,0,0,0,0,.08l0,0h.09l.08,0,.07,0a.53.53,0,0,0,.17-.08A.19.19,0,0,0,268.71,122Z"/><path class="cls-43" d="M267,121.29a.13.13,0,0,0-.14-.08.16.16,0,0,0-.09,0h0a.18.18,0,0,0-.07,0l-.07.06-.07.07,0,0,0,0a.12.12,0,0,0,0,.09v0a.07.07,0,0,0,.05.09h.13l0,0,.11,0,.1,0,0,0,.05,0a.23.23,0,0,0,.07-.07A.18.18,0,0,0,267,121.29Z"/><path class="cls-43" d="M265.65,126a.16.16,0,0,0-.08-.1.18.18,0,0,0-.14,0h0a.09.09,0,0,0-.07,0l-.07,0-.13.06L265,126l-.07,0a.1.1,0,0,0,0,.14s.11,0,.17,0l.13,0h.14l.07,0h.1a.18.18,0,0,0,.1-.09A.19.19,0,0,0,265.65,126Z"/><path class="cls-43" d="M270,126a.31.31,0,0,0-.09-.11.29.29,0,0,0-.11-.06h-.42a.34.34,0,0,0-.24.06.18.18,0,0,0,0,.2c0,.08.13.1.21.13l.14,0,.14,0,.13,0a.24.24,0,0,0,.12,0,.21.21,0,0,0,.16-.18A.2.2,0,0,0,270,126Z"/><path class="cls-43" d="M267.63,124.2a.27.27,0,0,0-.09-.12.22.22,0,0,0-.18,0h0l-.09,0-.12.05-.07,0,0,0,0,0h0a.12.12,0,0,0-.05.12.12.12,0,0,0,.1.08h.43a.25.25,0,0,0,.14-.06l0-.06A.23.23,0,0,0,267.63,124.2Z"/><path class="cls-43" d="M263.87,123.16a.11.11,0,0,0-.05-.09.11.11,0,0,0-.11,0,.11.11,0,0,0-.09,0l0,.05-.08.1,0,0,0,.06-.05.11a.08.08,0,0,0,0,.1.08.08,0,0,0,.09,0l.11-.07.1-.09.08-.09,0,0a.1.1,0,0,0,0-.05A.19.19,0,0,0,263.87,123.16Z"/><path class="cls-43" d="M262.46,127.05s0,0-.06,0a.11.11,0,0,0-.08,0l-.09,0,0,0,0,0a.48.48,0,0,0-.11.09l-.08.08,0,0a.16.16,0,0,0,0,.07v0a.15.15,0,0,0,0,.09.12.12,0,0,0,.09,0h0l.08,0,.05,0,.1-.06a.42.42,0,0,0,.12-.08.32.32,0,0,0,.1-.1A.18.18,0,0,0,262.46,127.05Z"/><path class="cls-43" d="M268.6,128a.16.16,0,0,0,0-.16l0,0h-.07l-.05,0-.09,0-.1,0h0a.14.14,0,0,0-.11,0,.1.1,0,0,0-.05.12.15.15,0,0,0,.06.09l0,0,.08,0,.08,0a.29.29,0,0,0,.13.05.14.14,0,0,0,.11,0,.17.17,0,0,0,.08-.07,0,0,0,0,0,0,0h0Z"/><path class="cls-43" d="M272.69,127.37a.16.16,0,0,0-.1-.08h-.23c-.09,0-.2,0-.26.06a.11.11,0,0,0,0,.12l.06,0,.08,0,.11,0,.1,0h.12a.17.17,0,0,0,.12-.05.12.12,0,0,0,0-.1A.12.12,0,0,0,272.69,127.37Z"/><path class="cls-43" d="M270.85,123.81a.17.17,0,0,0-.16-.11h-.05a.19.19,0,0,0-.1,0l0,0-.11,0-.09.06-.05,0-.05,0,0,0h0a.13.13,0,0,0,0,.13.09.09,0,0,0,0,0l.07,0,.06,0h.11l.12,0,.11,0h.05a.5.5,0,0,0,.12-.08l0,0v0A.17.17,0,0,0,270.85,123.81Z"/><path class="cls-44" d="M262.14,111.16a1.25,1.25,0,0,1,.54.15.56.56,0,0,1,.28.45c0,.17-.11.32-.1.48a2.11,2.11,0,0,0,.09.36c0,.32-.24.58-.44.83a1.55,1.55,0,0,1-.33.39,1,1,0,0,1-.68.13,1.39,1.39,0,0,1-1.18-.55,1.7,1.7,0,0,1,0-1.22,1.1,1.1,0,0,1,.62-.88A2.58,2.58,0,0,1,262.14,111.16Z"/><path class="cls-45" d="M263.1,112.52a2.46,2.46,0,0,0-.09-.39c0-.15.08-.27.1-.41a.44.44,0,0,0-.1-.36,1.15,1.15,0,0,0-.78-.3,3.93,3.93,0,0,0-1,0,.13.13,0,0,0-.11.12.12.12,0,0,0,.12.12,3.29,3.29,0,0,1,.77,0,2.47,2.47,0,0,1,.38,0,.86.86,0,0,1,.35.12.24.24,0,0,1,.1.26,3.18,3.18,0,0,0-.1.33.78.78,0,0,0,.07.33c0,.07.06.22,0,.27s0,.3.12.2A.38.38,0,0,0,263.1,112.52Z"/><path class="cls-46" d="M262.38,112a2.53,2.53,0,0,0-.63-.5.11.11,0,0,0-.16,0,.12.12,0,0,0,0,.16,2,2,0,0,1,.58.46.11.11,0,0,0,.17,0A.12.12,0,0,0,262.38,112Z"/><path class="cls-44" d="M258,111c.22-.08.46-.09.68-.15a5.72,5.72,0,0,0,.57-.24,2.24,2.24,0,0,1,.93-.14c.29,0,.64.16.68.46s-.25.52-.26.81c0,.11,0,.23,0,.35,0,.48-.69.69-.77,1.17a2.69,2.69,0,0,1,0,.4.5.5,0,0,1-.34.31,1.29,1.29,0,0,1-.48,0,1.87,1.87,0,0,1-.78-.19.73.73,0,0,1-.4-.66c0-.2.14-.41.07-.61a1.43,1.43,0,0,0-.24-.31A.85.85,0,0,1,258,111Z"/><path class="cls-45" d="M259.34,110.55a1.3,1.3,0,0,1-.82.33,1.56,1.56,0,0,0-.85.18c-.12.08,0,.29.12.2a1.76,1.76,0,0,1,.85-.15,1.58,1.58,0,0,0,.87-.39C259.62,110.61,259.45,110.45,259.34,110.55Z"/><path class="cls-45" d="M260.77,111.84a.3.3,0,0,1,0-.34,1,1,0,0,0,.23-.32.6.6,0,0,0-.22-.66,1,1,0,0,0-.86-.11c-.15,0-.08.26.07.22a.77.77,0,0,1,.66.09.35.35,0,0,1,.08.48,1.5,1.5,0,0,0-.2.24.4.4,0,0,0,0,.32c0,.09.06.18.08.28s0,.16-.05.18-.08.27.06.22S260.84,112.06,260.77,111.84Z"/><path class="cls-46" d="M260.07,111.1a.11.11,0,0,0-.16,0l-.8.39a.12.12,0,1,0,.12.2l.8-.39A.11.11,0,0,0,260.07,111.1Z"/><path class="cls-46" d="M260.14,111.54a.1.1,0,0,0-.05-.07.14.14,0,0,0-.09,0l-.26.1a.11.11,0,0,0-.07.06.09.09,0,0,0,0,.09.12.12,0,0,0,0,.07.14.14,0,0,0,.09,0l.26-.1a.13.13,0,0,0,.07,0A.12.12,0,0,0,260.14,111.54Z"/><path class="cls-44" d="M257.05,109.84a.73.73,0,0,1,.32.09.7.7,0,0,1,.16.91.36.36,0,0,0-.07.18c0,.13.16.2.28.23s.28,0,.34.17,0,.3,0,.44.31.2.39.36-.23.48-.25.76c0,.13,0,.27,0,.37a.29.29,0,0,1-.13.08,2.24,2.24,0,0,1-1.18.06c-.35,0-.75-.13-.9-.44s0-.72-.19-1-.65-.33-.86-.65,0-.54.17-.77A2.24,2.24,0,0,1,257.05,109.84Z"/><path class="cls-45" d="M258.53,112c-.09-.11-.23-.14-.34-.22s0-.26,0-.39a.31.31,0,0,0-.2-.3c-.1,0-.29,0-.37-.1s.07-.34.1-.45a.7.7,0,0,0,0-.43.67.67,0,0,0-.87-.36c-.14.06-.07.29.07.23a.43.43,0,0,1,.57.57.63.63,0,0,0-.1.48.4.4,0,0,0,.33.24.65.65,0,0,1,.21,0c.07,0,0,.12,0,.18a.47.47,0,0,0,.06.43c.11.11.29.12.37.25a.27.27,0,0,1-.05.37c-.11.1.06.26.17.16A.51.51,0,0,0,258.53,112Z"/><path class="cls-46" d="M256.84,110.66a.51.51,0,0,0-.29-.27.42.42,0,0,0-.36,0,.11.11,0,0,0,0,.16.12.12,0,0,0,.16,0l0,0s0,0,0,0h.1l.06,0h0l0,0h0l0,0h0v0h0a.12.12,0,0,0,.14.07A.12.12,0,0,0,256.84,110.66Z"/><path class="cls-46" d="M257.28,111.52a.13.13,0,0,0-.16,0,.13.13,0,0,0-.05.17s0,0,0,.06h0v0l0,0s0,.1,0,.15h0v0a.22.22,0,0,1,0,.08v.13a.12.12,0,0,0,.09.14.11.11,0,0,0,.14-.08A1.25,1.25,0,0,0,257.28,111.52Z"/><path class="cls-44" d="M252.52,109.91a1.79,1.79,0,0,1,1.4-.09c.1,0,.21.1.22.2s-.08.22-.08.33.23.27.42.3l.82.13a.46.46,0,0,1,.32.15.9.9,0,0,1,.06.22c.1.28.46.33.71.49a.25.25,0,0,1,.12.11c.1.19-.15.38-.19.59s.24.57.09.79-.3.14-.46.13a6.68,6.68,0,0,1-1.27-.15,6,6,0,0,1-2.59-1.74c-.31-.3-.54-.31-.3-.75A1.78,1.78,0,0,1,252.52,109.91Z"/><path class="cls-45" d="M255.52,110.8l-.77-.18-.37-.08c-.07,0-.19,0-.2-.13s.06-.19.06-.29a.42.42,0,0,0-.1-.26.82.82,0,0,0-.62-.24c-.15,0-.14.22,0,.24s.53.06.46.33a.59.59,0,0,0,0,.29.35.35,0,0,0,.14.2,1.79,1.79,0,0,0,.6.17l.77.18C255.61,111.06,255.66,110.83,255.52,110.8Z"/><path class="cls-45" d="M256.53,112.78a.38.38,0,0,1,0-.4.92.92,0,0,0,.11-.56c-.09-.39-.5-.52-.83-.61a.12.12,0,0,0-.06.23c.26.06.7.19.67.54a3.9,3.9,0,0,1-.17.48.52.52,0,0,0,.06.44.12.12,0,0,0,.21-.12Z"/><path class="cls-46" d="M255.72,112.08l-.13-.23a.18.18,0,0,0-.07,0,.12.12,0,0,0-.15.08s0,.07,0,.09l.13.23a.13.13,0,0,0,.07,0,.13.13,0,0,0,.09,0s0,0,0-.07S255.74,112.1,255.72,112.08Z"/><path class="cls-46" d="M253.43,110.36a.13.13,0,0,0-.07-.06l-.16,0a.15.15,0,0,0-.09,0l0,0a.05.05,0,0,0,0,0,.1.1,0,0,0,0,.09s0,0,.07,0l.16,0a.1.1,0,0,0,.09,0l0,0a.08.08,0,0,0,0,0A.13.13,0,0,0,253.43,110.36Z"/><path class="cls-44" d="M249,109.72c.12,0,.24,0,.35-.08a2.71,2.71,0,0,0,.41-.28,1.08,1.08,0,0,1,1-.11.38.38,0,0,1,.14.11c.08.13-.06.3,0,.45.06.36.76.17.88.51l0,.12a.35.35,0,0,0,.22.15,2.77,2.77,0,0,1,.81.51,1.2,1.2,0,0,0,.69.42c.12,0,.25,0,.38,0s.27.08.28.2a1.23,1.23,0,0,1,0,.2c0,.19.24.26.38.38a.56.56,0,0,1-.05.81,1,1,0,0,1-.87.15,5.2,5.2,0,0,1-.85-.34c-.55-.24-1.15-.36-1.7-.59a8.71,8.71,0,0,1-.91-.48l-.83-.48c-.21-.13-.7-.3-.83-.52S248.61,109.82,249,109.72Z"/><path class="cls-45" d="M251,109.38c0-.13-.15-.2-.27-.24a1.59,1.59,0,0,0-.39-.07,1.38,1.38,0,0,0-.74.21.12.12,0,0,0,.12.2,1.06,1.06,0,0,1,.57-.17,1.53,1.53,0,0,1,.3,0s.17,0,.19.11S251.07,109.53,251,109.38Z"/><path class="cls-45" d="M253.1,111.28a2.88,2.88,0,0,0-1-.7c-.37-.25-.63-.75-1.15-.7-.15,0-.14.25,0,.23a.73.73,0,0,1,.57.28,4.4,4.4,0,0,0,.46.4c.29.19.68.31.89.62C253,111.53,253.19,111.41,253.1,111.28Z"/><path class="cls-45" d="M254.47,112.18c-.1,0-.13-.16-.16-.25a.84.84,0,0,0-.18-.35.59.59,0,0,0-.67-.1c-.06,0-.07.11,0,.16a.11.11,0,0,0,.16,0,.35.35,0,0,1,.44.14,3.4,3.4,0,0,1,.12.34.41.41,0,0,0,.28.25C254.56,112.45,254.62,112.22,254.47,112.18Z"/><path class="cls-46" d="M250.34,110.07a.11.11,0,0,0-.06-.07.14.14,0,0,0-.09,0h0a.17.17,0,0,1-.1,0l-.1,0h0l0,0h0a.09.09,0,0,0-.07,0,.1.1,0,0,0,0,.09.11.11,0,0,0,.06.07l.1,0h.09a.55.55,0,0,0,.18,0,.12.12,0,0,0,.08-.15Z"/><path class="cls-46" d="M252.54,111.6a4.57,4.57,0,0,0-.69-.54.11.11,0,1,0-.11.2,4.48,4.48,0,0,1,.64.51.11.11,0,0,0,.16,0A.12.12,0,0,0,252.54,111.6Z"/><path class="cls-47" d="M245.66,110.77a1.66,1.66,0,0,1,1.16-1c2.26,1,4.53,2,6.78,2.94a.51.51,0,0,1-.39.41,1.48,1.48,0,0,1-.59,0A46.73,46.73,0,0,1,245.66,110.77Z"/><path class="cls-4" d="M242.68,111.18a1,1,0,0,1,.36-.66,1.65,1.65,0,0,1,1-.42,2.78,2.78,0,0,1,1,.28c2.5.74,5,1.33,7.46,2.2a.67.67,0,0,1-.31.84,1.16,1.16,0,0,1-.64,0A63.8,63.8,0,0,1,242.68,111.18Z"/><path class="cls-47" d="M240.87,112.58a1.35,1.35,0,0,1,.48-1.68c.29-.2,2.37.23,3.46.5,2.24.57,4.56.86,6.76,1.58a.81.81,0,0,1-.44,1.11,1.49,1.49,0,0,1-.63,0C247.3,113.65,244,113.18,240.87,112.58Z"/><path class="cls-4" d="M239.56,112.25a1.06,1.06,0,0,1,.47,0c.53.07,1.05.19,1.58.29,1,.2,2.12.31,3.18.43l5.35.59a1.21,1.21,0,0,1,.72.25.42.42,0,0,1,0,.66.74.74,0,0,1-.26,0l-4,0a38.7,38.7,0,0,1-5.7-.36c-.43-.07-1.52-.08-1.77-.51A1,1,0,0,1,239.56,112.25Z"/><path class="cls-47" d="M238.28,114.63a1.28,1.28,0,0,1,.05-1.13,8.33,8.33,0,0,1,2.77.09c3.13.46,6.31.3,9.46.63a.66.66,0,0,1,.44.38,1.69,1.69,0,0,1,.12.54.26.26,0,0,1,0,.21s-.09.05-.14.07a5.65,5.65,0,0,1-1.59.07c-3.61-.17-7.21-.43-10.81-.68A.37.37,0,0,1,238.28,114.63Z"/><path class="cls-43" d="M248.94,114l-7.77-.52-2.2-.15c-.15,0-.15.22,0,.23l7.76.53,2.2.15C249.09,114.28,249.09,114,248.94,114Z"/><path class="cls-43" d="M243.83,112.69c-1.12-.09-2.23-.24-3.34-.44-.15,0-.21.2-.06.23,1.13.21,2.26.35,3.41.45C244,112.94,244,112.7,243.83,112.69Z"/><path class="cls-43" d="M248.81,113.33l-3.91-.45c-.15,0-.21.21-.06.23l3.92.45C248.9,113.58,249,113.35,248.81,113.33Z"/><path class="cls-43" d="M250.08,112.44l-4.85-1c-.15,0-.21.2-.06.23l4.85,1C250.17,112.7,250.23,112.47,250.08,112.44Z"/><path class="cls-43" d="M251.49,112.18l-5.36-1.64c-.14-.05-.2.18-.06.22l5.36,1.65C251.58,112.45,251.63,112.22,251.49,112.18Z"/><path class="cls-43" d="M251.07,111.38l-3.74-1.53c-.14-.06-.26.14-.12.2l3.74,1.53C251.09,111.64,251.21,111.43,251.07,111.38Z"/><path class="cls-32" d="M250.74,113.06a1.59,1.59,0,0,0-1.09.85,1.57,1.57,0,0,0,.6,1.42,8.73,8.73,0,0,0,3.81,2.21c.65.18,1.33.29,2,.5a22.45,22.45,0,0,1,3.82,2.07,5.52,5.52,0,0,0,4.15.83,19.37,19.37,0,0,1,2.09-.77,7.33,7.33,0,0,1,2.45.3,2.57,2.57,0,0,0,2.34-.47,2,2,0,0,0-.1-2.6,5.17,5.17,0,0,0-2.41-1.44,34.23,34.23,0,0,0-4.57-1.23,27,27,0,0,1-3.32-.76C257.26,112.92,254.11,111.94,250.74,113.06Z"/><path class="cls-44" d="M254.15,116.67a6.36,6.36,0,0,1-3.31-2.13c-.09-.12-.26,0-.16.17a6.57,6.57,0,0,0,3.41,2.19A.12.12,0,0,0,254.15,116.67Z"/><path class="cls-44" d="M253.51,115.75a2,2,0,0,1-1-.48c-.12-.11-.28.06-.17.16a2.13,2.13,0,0,0,1.09.54.11.11,0,0,0,.06-.22Z"/><path class="cls-44" d="M269.23,119.77a8,8,0,0,0-4.82,0,8.42,8.42,0,0,0-1.28.53c-.14.07,0,.27.12.2a7.76,7.76,0,0,1,5.92-.49C269.32,120,269.37,119.81,269.23,119.77Z"/><path class="cls-44" d="M268,118.77h-2a.12.12,0,0,0,0,.23h2A.12.12,0,0,0,268,118.77Z"/><path class="cls-44" d="M260.5,119.14l-1.93-.93c-.13-.06-.25.14-.11.21l1.92.92C260.52,119.41,260.64,119.21,260.5,119.14Z"/><path class="cls-44" d="M270.51,118.2a1.3,1.3,0,0,0-.59-1,.13.13,0,0,0-.16,0,.12.12,0,0,0,.05.16.1.1,0,0,0,.05,0h0l0,0,.09.09s0,0,.05,0v0a1,1,0,0,1,.08.11l0,.06v0s0,0,0,0v.05a.14.14,0,0,1,0,.06.31.31,0,0,1,0,.13v0a.13.13,0,0,0,0,.06.12.12,0,0,0,.12.12A.11.11,0,0,0,270.51,118.2Z"/><path class="cls-44" d="M265.2,117.11a8.06,8.06,0,0,1-5.29.14c-.14,0-.2.18-.05.22a8.2,8.2,0,0,0,5.4-.13C265.4,117.29,265.34,117.06,265.2,117.11Z"/><path class="cls-4" d="M256.67,115.68a1.6,1.6,0,0,1-.66-.75,1.19,1.19,0,0,1,0-.62,2.64,2.64,0,0,1,1.7-1.74,5.9,5.9,0,0,1,6.33,1.14,3.19,3.19,0,0,1,.83,1.14,1.7,1.7,0,0,1,0,1.38,1.8,1.8,0,0,1-1.05.84,4,4,0,0,1-1.37.14,14.88,14.88,0,0,1-3.17-.52A8.16,8.16,0,0,1,256.67,115.68Z"/><path class="cls-48" d="M264.83,116.23a1.7,1.7,0,0,0,0-1.38,3.19,3.19,0,0,0-.83-1.14c-.14-.13-.29-.25-.44-.37.13.17.27.34.39.51a1.71,1.71,0,0,1,.34,1.76c-.33.58-1.12.66-1.79.65a9.41,9.41,0,0,1-5.85-1.68,1.52,1.52,0,0,1-.54-.69,1.88,1.88,0,0,0-.14.42,1.19,1.19,0,0,0,0,.62,1.6,1.6,0,0,0,.66.75,8.16,8.16,0,0,0,2.57,1,14.88,14.88,0,0,0,3.17.52,4,4,0,0,0,1.37-.14A1.8,1.8,0,0,0,264.83,116.23Z"/><path class="cls-43" d="M260.1,112.75a1.39,1.39,0,0,1,1-.11.76.76,0,0,1,.45.26.27.27,0,0,1,.06.17.26.26,0,0,1-.16.21.62.62,0,0,1-.27,0,1.94,1.94,0,0,1-.59,0C260.39,113.25,259.72,113,260.1,112.75Z"/><path class="cls-43" d="M258.53,113.11a.63.63,0,0,1,.43-.19.36.36,0,0,1,.25,0,.18.18,0,0,1,.05.07.12.12,0,0,1-.05.12.24.24,0,0,1-.11.06,1,1,0,0,1-.28.07C258.73,113.3,258.38,113.26,258.53,113.11Z"/><path class="cls-32" d="M263.09,112.92a5.48,5.48,0,0,0-6.73.41c-.11.1.06.26.17.16a5.28,5.28,0,0,1,5-1.07,5.74,5.74,0,0,1,1.48.7C263.1,113.21,263.22,113,263.09,112.92Z"/><path class="cls-44" d="M259.57,120.84a.56.56,0,0,1,.36.83,3.76,3.76,0,0,1-.86,1.55.94.94,0,0,1-.38.28,1.05,1.05,0,0,1-.75-.14c-.91-.43-1.79-.9-2.65-1.41a.94.94,0,0,1-.39-.35.91.91,0,0,1,0-.63,2.4,2.4,0,0,1,.63-1.16,1.16,1.16,0,0,1,.92-.32c.27.05.48.29.74.4C258,120.23,258.77,120.52,259.57,120.84Z"/><path class="cls-46" d="M258.34,122.44l-1.86-.6c-.15,0-.21.19-.06.24l1.86.6C258.43,122.73,258.49,122.49,258.34,122.44Z"/><path class="cls-46" d="M258.58,122l-1.85-.67c-.15,0-.21.18-.06.23l1.85.67C258.67,122.27,258.73,122,258.58,122Z"/><path class="cls-46" d="M257.68,121l-.59-.18a.12.12,0,0,0-.06.24l.59.18a.12.12,0,0,0,.14-.09A.12.12,0,0,0,257.68,121Z"/><path class="cls-37" d="M258.19,121.72a3.33,3.33,0,0,1,2-1.74,2,2,0,0,1,1.12,0,1.78,1.78,0,0,1,1.06,1,3.18,3.18,0,0,1,.19,1.5,3,3,0,0,1-1.39,2.55,2.18,2.18,0,0,1-.76.24,2.68,2.68,0,0,1-2.5-.89A3.4,3.4,0,0,1,258.19,121.72Z"/><path class="cls-45" d="M261,119.66a2.55,2.55,0,0,0-1.85.75,6.8,6.8,0,0,0-1.31,2.07c-.06.14.15.27.21.12.56-1.19,1.39-2.8,3-2.69C261.12,119.92,261.12,119.67,261,119.66Z"/><path class="cls-45" d="M259.76,121a.14.14,0,0,0-.17,0,1.51,1.51,0,0,0-.66.73.13.13,0,0,0,.22.12,1.28,1.28,0,0,1,.23-.37,1.31,1.31,0,0,1,.34-.27A.14.14,0,0,0,259.76,121Z"/><path class="cls-45" d="M260.06,122a.12.12,0,0,0,0-.1s0,0-.07,0a.16.16,0,0,0-.1,0,1.07,1.07,0,0,0-.39.34.18.18,0,0,0,0,.1.11.11,0,0,0,.06.07.16.16,0,0,0,.1,0,.1.1,0,0,0,.06,0h0l.16-.16.16-.1A.12.12,0,0,0,260.06,122Z"/><path class="cls-44" d="M245.9,115.55a1.46,1.46,0,0,1,.51.07.93.93,0,0,1,.5.65,2.63,2.63,0,0,1,0,.84.7.7,0,0,1-.11.41.73.73,0,0,1-.51.2c-1.11.11-2.22.19-3.33.25a.3.3,0,0,1-.21,0,.34.34,0,0,1-.09-.22c-.08-.56-.2-1.87.45-2.17a3.8,3.8,0,0,1,1.26,0Z"/><path class="cls-46" d="M245.9,117.28a14,14,0,0,1-2.58.15c-.16,0-.15.24,0,.24a13.62,13.62,0,0,0,2.63-.15C246.12,117.49,246.05,117.26,245.9,117.28Z"/><path class="cls-46" d="M245.25,117a.13.13,0,0,0-.12-.12l-.79.08a.12.12,0,0,0-.12.12c0,.06.06.13.13.12l.78-.07C245.19,117.08,245.26,117,245.25,117Z"/><path class="cls-37" d="M240,114.83a2.09,2.09,0,0,1,2.5-.49,2.55,2.55,0,0,1,.76.74,3.11,3.11,0,0,1,.58,1.11,4.23,4.23,0,0,1-.09,1.73,2.52,2.52,0,0,1-.49,1.23,1.71,1.71,0,0,1-1.32.46A2.87,2.87,0,0,1,240,114.83Z"/><path class="cls-45" d="M241.11,114.63a2.61,2.61,0,0,0-1.28,2c0,.16.23.15.24,0a2.35,2.35,0,0,1,1.17-1.8A.12.12,0,0,0,241.11,114.63Z"/><path class="cls-45" d="M241.14,115.66a.25.25,0,0,0,0-.09.14.14,0,0,0-.09,0,.09.09,0,0,0-.08,0l-.21.22a.12.12,0,0,0,0,.09.11.11,0,0,0,0,.08.18.18,0,0,0,.09,0,.25.25,0,0,0,.09,0l.2-.22A.18.18,0,0,0,241.14,115.66Z"/><path class="cls-45" d="M242.14,117.92a.13.13,0,0,0-.06-.07.14.14,0,0,0-.09,0l-.23.07a.11.11,0,0,0-.07.06.16.16,0,0,0,0,.09.16.16,0,0,0,.06.08.16.16,0,0,0,.1,0l.22-.08a.14.14,0,0,0,.08,0A.17.17,0,0,0,242.14,117.92Z"/><path class="cls-45" d="M239.86,114.79a2.27,2.27,0,0,0-.68,2.23c0,.15.27.09.24-.07a2,2,0,0,1,.62-2C240.15,114.85,240,114.68,239.86,114.79Z"/><path class="cls-45" d="M242.21,114.09a2.06,2.06,0,0,0-1.82.24c-.13.09,0,.3.12.21a1.84,1.84,0,0,1,1.64-.22C242.3,114.37,242.36,114.14,242.21,114.09Z"/><path class="cls-37" d="M245.62,117.4a3.43,3.43,0,0,1,.08-1,2.82,2.82,0,0,1,.6-1.34,2.28,2.28,0,0,1,1.31-.63,3.07,3.07,0,0,1,2,.29,2.26,2.26,0,0,1,1.15,1.62,2.81,2.81,0,0,1,0,1,1.88,1.88,0,0,1-1.24,1.62,4.11,4.11,0,0,1-1.51.48A2.32,2.32,0,0,1,245.62,117.4Z"/><path class="cls-45" d="M249.37,114.58a3.58,3.58,0,0,0-2.73.1,2.73,2.73,0,0,0-1.1,2.33c0,.15.23.15.24,0a2.47,2.47,0,0,1,1-2.13,3.35,3.35,0,0,1,2.51-.05A.12.12,0,0,0,249.37,114.58Z"/><path class="cls-45" d="M247.58,115.05a.13.13,0,0,0-.15-.09,2,2,0,0,0-1.13,1.16.12.12,0,0,0,.08.15.12.12,0,0,0,.15-.09,1.78,1.78,0,0,1,1-1C247.55,115.17,247.6,115.11,247.58,115.05Z"/><path class="cls-49" d="M248.41,119a1.43,1.43,0,0,1-1.16-.64,1.79,1.79,0,0,1-.11-1.19,2.75,2.75,0,0,1,.49-1.24,1.7,1.7,0,0,1,1.51-.61,1.3,1.3,0,0,1,.6.23,1.34,1.34,0,0,1,.46.9,3.27,3.27,0,0,1-.12,1C249.88,118.24,249.29,119.05,248.41,119Z"/><path class="cls-44" d="M248.26,116.72a1.2,1.2,0,0,0-.14,1.4,1.57,1.57,0,0,0,.87.46l3.63,1a2.93,2.93,0,0,0,1.21.16,1,1,0,0,0,.84-.77c.05-.51-.45-.9-.89-1.16a15.34,15.34,0,0,0-3.09-1.4C249.77,116.16,248.94,115.82,248.26,116.72Z"/><path class="cls-46" d="M252.54,118.88a29.07,29.07,0,0,1-3.91-.88c-.15,0-.21.19-.06.24a30.69,30.69,0,0,0,3.91.88C252.63,119.14,252.7,118.91,252.54,118.88Z"/><path class="cls-46" d="M252.65,118.4l-2.34-.5c-.15,0-.21.21-.06.24l2.34.49C252.74,118.66,252.8,118.43,252.65,118.4Z"/><path class="cls-37" d="M252,118.82a3,3,0,0,1,2.27-1,3.18,3.18,0,0,1,1.94.55,2.37,2.37,0,0,1,1,1.7,3.22,3.22,0,0,1-.14,1.19,2.54,2.54,0,0,1-1,1.51,2.21,2.21,0,0,1-1.1.3,3.81,3.81,0,0,1-2.07-.48C251.71,121.89,250.94,120.07,252,118.82Z"/><path class="cls-45" d="M256.76,118.88a3,3,0,0,0-2.53-1.09,3.06,3.06,0,0,0-2.34.92,2,2,0,0,0-.5,1.3.12.12,0,0,0,.24,0,2.12,2.12,0,0,1,1.93-1.92,3.09,3.09,0,0,1,3,.91C256.65,119.13,256.86,119,256.76,118.88Z"/><path class="cls-45" d="M254.7,118.48a2.38,2.38,0,0,0-2.15.61.12.12,0,0,0,.17.17,2.16,2.16,0,0,1,1.92-.55A.12.12,0,1,0,254.7,118.48Z"/><path class="cls-49" d="M252.34,120.88a2.67,2.67,0,0,1,.56-.81,3,3,0,0,1,.8-.62,2.3,2.3,0,0,1,2.16.11,1.21,1.21,0,0,1,.43.41,1.34,1.34,0,0,1,.13.4,2.94,2.94,0,0,1-.37,2,1.32,1.32,0,0,1-1.37.73,3.43,3.43,0,0,1-1.09-.23C252.73,122.55,251.94,121.85,252.34,120.88Z"/><path class="cls-44" d="M254.72,119.9a1.25,1.25,0,0,1,.88.24c.46.39.39,1.11.27,1.7l-.37,1.92a2.28,2.28,0,0,1-.26.8,1.36,1.36,0,0,1-1.65.46,2,2,0,0,1-1.09-1.41C252.18,122.11,253,120,254.72,119.9Z"/><path class="cls-46" d="M253.52,121.25c0-.15-.21-.21-.24-.06-.1.57-.2,1.14-.29,1.71,0,.15.21.22.23.06Z"/><path class="cls-46" d="M254.24,121.37c0-.15-.2-.21-.23-.06-.18.82-.31,1.66-.41,2.49,0,.16.23.15.25,0A24.59,24.59,0,0,1,254.24,121.37Z"/><path class="cls-46" d="M255.58,121.94a.13.13,0,0,0-.09-.15.12.12,0,0,0-.14.09l-.18,1.09a.13.13,0,0,0,.09.15.12.12,0,0,0,.14-.09Z"/><path class="cls-44" d="M249.62,118.72a2.4,2.4,0,0,1,1.22,0,1.65,1.65,0,0,1,.84,1.71.51.51,0,0,1-.09.27.53.53,0,0,1-.32.17,24.6,24.6,0,0,1-4.22,1,.63.63,0,0,1-.86-.52c-.15-.57-.47-1.88.27-2.16A7.77,7.77,0,0,1,248,119Z"/><path class="cls-46" d="M251,120l-3.49.76c-.15,0-.09.27.07.23l3.49-.76C251.18,120.17,251.11,119.94,251,120Z"/><path class="cls-46" d="M249.77,119.8a.12.12,0,0,0-.15-.08l-.56.11a.14.14,0,0,0-.08.16.13.13,0,0,0,.15.08l.56-.12A.12.12,0,0,0,249.77,119.8Z"/><path class="cls-46" d="M250.81,119.6a.09.09,0,0,0,0-.08.09.09,0,0,0-.09,0l-.48.07a.14.14,0,0,0-.09,0,.1.1,0,0,0,0,.09.11.11,0,0,0,0,.08.18.18,0,0,0,.09,0l.49-.07s.06,0,.08,0A.13.13,0,0,0,250.81,119.6Z"/><path class="cls-37" d="M243.39,118.6a3.09,3.09,0,0,1,2.8-.2,2.67,2.67,0,0,1,1.58,1.09,2.29,2.29,0,0,1,.16,1.61,2.18,2.18,0,0,1-.68,1.27,2.31,2.31,0,0,1-.6.32,3.17,3.17,0,0,1-2.23-.06C243,122,241.8,119.79,243.39,118.6Z"/><path class="cls-45" d="M247.78,119.32a2.74,2.74,0,0,0-2-1.25,3.59,3.59,0,0,0-2.47.45,1.72,1.72,0,0,0-.73,1.11c0,.15.21.22.23.06.18-1,1.33-1.38,2.25-1.41a2.77,2.77,0,0,1,2.55,1.16A.12.12,0,0,0,247.78,119.32Z"/><path class="cls-45" d="M246,118.92a3,3,0,0,0-2.51.45c-.12.09,0,.3.13.21a2.67,2.67,0,0,1,2.32-.42A.12.12,0,0,0,246,118.92Z"/><path class="cls-45" d="M245.41,119.53a.11.11,0,0,0-.06-.07h0a.06.06,0,0,0-.06,0l-.22,0a.11.11,0,0,0-.07.06.09.09,0,0,0,0,.09s0,.06,0,.07l0,0h.07l.22,0a.09.09,0,0,0,.07-.06A.13.13,0,0,0,245.41,119.53Z"/><path class="cls-37" d="M247.41,121.75a3.33,3.33,0,0,1,1.65-1.18,4,4,0,0,1,3.16.25,2.27,2.27,0,0,1,1,1,2.43,2.43,0,0,1,.23,1.14,2.7,2.7,0,0,1-.4,1.57,2.29,2.29,0,0,1-1.34.91,3.78,3.78,0,0,1-1.64,0,5.06,5.06,0,0,1-2.56-1.2,1.28,1.28,0,0,1-.55-1.13A2.44,2.44,0,0,1,247.41,121.75Z"/><path class="cls-45" d="M252,120.54a4,4,0,0,0-4.6,1.06,3.14,3.14,0,0,0-.59,1.2.12.12,0,1,0,.23.06,3.19,3.19,0,0,1,1.88-2.12,4.09,4.09,0,0,1,3,0C252.09,120.83,252.15,120.6,252,120.54Z"/><path class="cls-45" d="M250.17,120.82a3,3,0,0,0-1.5.37.12.12,0,0,0,.12.21,2.91,2.91,0,0,1,1.38-.34A.12.12,0,1,0,250.17,120.82Z"/><path class="cls-45" d="M252.86,122a.93.93,0,0,0-.21-.33.12.12,0,0,0-.09,0,.13.13,0,0,0-.08,0s0,.06,0,.09a.16.16,0,0,0,0,.09s0,0,.05.05a1.19,1.19,0,0,1,.09.15h0a.24.24,0,0,0,.06.08.17.17,0,0,0,.1,0,.19.19,0,0,0,.07-.06A.14.14,0,0,0,252.86,122Z"/><path class="cls-49" d="M247.83,123.22a2.42,2.42,0,0,1,.65-1.22,2.39,2.39,0,0,1,.68-.5,3.21,3.21,0,0,1,.8-.19,2.55,2.55,0,0,1,1.55.16,2.3,2.3,0,0,1,.67.65,1.45,1.45,0,0,1,.27.54,1.36,1.36,0,0,1,0,.6,3.4,3.4,0,0,1-.24.7,2.41,2.41,0,0,1-1.9,1.26,2.94,2.94,0,0,1-1.9-.54A1.4,1.4,0,0,1,247.83,123.22Z"/><path class="cls-44" d="M248.54,123.15a2,2,0,0,1,1.88-.86,1.28,1.28,0,0,1,.72.37,1.74,1.74,0,0,1,.27,1.48,5.55,5.55,0,0,1-.54,1.64,1.29,1.29,0,0,1-.37.48,1.09,1.09,0,0,1-.49.16,2.85,2.85,0,0,1-1.39-.15C247.36,125.8,247.93,124,248.54,123.15Z"/><path class="cls-46" d="M250.94,123.7a7,7,0,0,1-.81,2c-.08.13.13.25.21.12a7,7,0,0,0,.84-2.07A.12.12,0,0,0,250.94,123.7Z"/><path class="cls-46" d="M248.32,125.25a2.07,2.07,0,0,1,.16-.85.13.13,0,0,0-.09-.15c-.07,0-.12,0-.15.09a2.38,2.38,0,0,0-.16.92.12.12,0,0,0,.12.12A.12.12,0,0,0,248.32,125.25Z"/><path class="cls-46" d="M248.71,123.45a.13.13,0,0,0-.17,0,1.78,1.78,0,0,0-.17.4.14.14,0,0,0,.09.15.13.13,0,0,0,.15-.09s0-.09,0-.14.07-.13.1-.2A.11.11,0,0,0,248.71,123.45Z"/><path class="cls-37" d="M253.81,126.8a2.2,2.2,0,0,1-.56-2.88,2.72,2.72,0,0,1,.89-.83,3.78,3.78,0,0,1,3.68-.23,2.64,2.64,0,0,1,.81.64,2.48,2.48,0,0,1,.09,2.88,3,3,0,0,1-2.68,1.25A4.26,4.26,0,0,1,253.81,126.8Z"/><path class="cls-45" d="M257.35,122.53a4.68,4.68,0,0,0-2.84.24,3.06,3.06,0,0,0-1.72,1.92c0,.15.19.21.23.06a2.88,2.88,0,0,1,1.61-1.77,4.4,4.4,0,0,1,2.66-.21C257.44,122.8,257.5,122.56,257.35,122.53Z"/><path class="cls-45" d="M255.68,123.35a.12.12,0,0,0-.12-.12,2.1,2.1,0,0,0-1.26.53.12.12,0,1,0,.17.17,1.85,1.85,0,0,1,1.1-.46A.11.11,0,0,0,255.68,123.35Z"/><path class="cls-45" d="M255.52,123.9a3.23,3.23,0,0,0-1.1.62,1.47,1.47,0,0,0-.5,1.09.13.13,0,0,0,.25,0c0-.8.77-1.23,1.41-1.48C255.73,124.08,255.66,123.84,255.52,123.9Z"/><path class="cls-45" d="M255.71,124.61a.14.14,0,0,0-.16-.08.88.88,0,0,0-.41.25.13.13,0,0,0,0,.09.12.12,0,0,0,0,.08.15.15,0,0,0,.09,0l.08,0,.08-.07.14-.08.09,0A.13.13,0,0,0,255.71,124.61Z"/></g><path class="cls-32" d="M111.3,87.63s-.21-.1-.18-.11c-11.8,1.8-23.5,4.17-35.2,6.55-2.34.47-5,.32-6.82,1.85q-13.59,11.22-26.39,23.36a.25.25,0,0,0,0,.09h0a3.94,3.94,0,0,0,2.67,1.05,58,58,0,0,0,12.49.06c2.64-.28,5.27-.74,7.88-1.19l9.07-1.59a168.45,168.45,0,0,0,18.77-4,8,8,0,0,0,3.21-1.88c6.1-5.56,10.36-12.82,14.2-20.13a15.25,15.25,0,0,0,1-2.17,1.57,1.57,0,0,0,.08-1A3.47,3.47,0,0,0,111.3,87.63Z"/><path class="cls-50" d="M112,89.49a1.57,1.57,0,0,0,.08-1,1.49,1.49,0,0,0-.27-.35,151,151,0,0,1-17.82,23c-3.31.55-20.22,4.11-22,4.54-1,.24-2.06.43-3.1.61q-12,2.09-24.26,3.14a5.16,5.16,0,0,1-1.92-.13.08.08,0,0,1,0,0h0a3.94,3.94,0,0,0,2.67,1.05,58,58,0,0,0,12.49.06c2.64-.28,5.27-.74,7.88-1.19l9.07-1.59a168.45,168.45,0,0,0,18.77-4,8,8,0,0,0,3.21-1.88c6.1-5.56,10.36-12.82,14.2-20.13A15.25,15.25,0,0,0,112,89.49Z"/><path class="cls-44" d="M61.9,103.7l-9.35,8.74-2.63,2.46c-.16.14,0,.41.19.26l9.35-8.73L62.1,104C62.25,103.82,62.05,103.55,61.9,103.7Z"/><path class="cls-44" d="M106.72,90.24l-12.13,2.6-3.46.74c-.21,0-.09.35.11.31l12.13-2.6,3.46-.74C107,90.5,106.92,90.19,106.72,90.24Z"/><path class="cls-35" d="M55.55,112.75c-.28.4-.51,1-.13,1.29a.78.78,0,0,0,.56.12,10,10,0,0,0,1.74-.55,1.34,1.34,0,0,1,1.6.47c.12.25.13.57.37.7a.68.68,0,0,0,.56,0c2.28-.7,4.47-2,6.84-1.88a1.27,1.27,0,0,1,1.11.5,5.37,5.37,0,0,0,.21.56.91.91,0,0,0,1.2.16,8.38,8.38,0,0,0,1-.86c1-.76,2.26-.8,3.44-1.09,2.85-.7,5.14-3,8-3.55,3.12-.66,6.42.74,9.49-.13a1.94,1.94,0,0,0,1.14-.7A3.44,3.44,0,0,0,93,107c.59-1.67,2.78-2.14,4-3.45a1.82,1.82,0,0,0,.53-1,7,7,0,0,0,0-.79,3.1,3.1,0,0,1,1.9-2.35,8.22,8.22,0,0,0,2.68-1.68c.22-.26.39-.65.19-.93s-.75-.23-1.05-.47c-.47-.38-.07-1.15.4-1.54s1.07-.89.92-1.47-1.14-.69-1.82-.52c-1.59.41-3.09,1.09-4.64,1.62-3.09,1-6.36,1.44-9.5,2.35C82,98.1,77.81,100.5,73.28,102c-4.71,1.6-9.92,2.35-13.74,5.52a1.42,1.42,0,0,0-.54.7.58.58,0,0,0,.38.67C58.31,110.44,56.66,111.23,55.55,112.75Z"/><path class="cls-36" d="M55.55,112.75c-.28.4-.51,1-.13,1.29a.78.78,0,0,0,.56.12,10,10,0,0,0,1.74-.55,1.34,1.34,0,0,1,1.6.47c.12.25.13.57.37.7a.68.68,0,0,0,.56,0c2.28-.7,4.47-2,6.84-1.88a1.27,1.27,0,0,1,1.11.5,5.37,5.37,0,0,0,.21.56.91.91,0,0,0,1.2.16,8.38,8.38,0,0,0,1-.86c1-.76,2.26-.8,3.44-1.09,2.85-.7,5.14-3,8-3.55,3.12-.66,6.42.74,9.49-.13a1.94,1.94,0,0,0,1.14-.7A3.44,3.44,0,0,0,93,107c.59-1.67,2.78-2.14,4-3.45a1.82,1.82,0,0,0,.53-1,7,7,0,0,0,0-.79,3.1,3.1,0,0,1,1.9-2.35,8.22,8.22,0,0,0,2.68-1.68c.22-.26.39-.65.19-.93s-.75-.23-1.05-.47c-.47-.38-.07-1.15.4-1.54s1.07-.89.92-1.47-1.14-.69-1.82-.52c-1.59.41-3.09,1.09-4.64,1.62-3.09,1-6.36,1.44-9.5,2.35C82,98.1,77.81,100.5,73.28,102c-4.71,1.6-9.92,2.35-13.74,5.52a1.42,1.42,0,0,0-.54.7.58.58,0,0,0,.38.67C58.31,110.44,56.66,111.23,55.55,112.75Z"/><path class="cls-35" d="M66.71,101c-.85-1.87-1.64-3.77-2.38-5.68a3.08,3.08,0,0,1,1.42-1.74,26.87,26.87,0,0,1,3.75-1.79L76.19,89a.65.65,0,0,1,.45-.07.66.66,0,0,1,.27.28,14.29,14.29,0,0,1,.81,1.67l2,4.75a.58.58,0,0,1,.05.54.66.66,0,0,1-.27.19c-3.93,1.85-7.9,3.6-11.88,5.34a.52.52,0,0,1-.36.06.48.48,0,0,1-.2-.2A3,3,0,0,1,66.71,101Z"/><path class="cls-36" d="M74,96.1c-2.06.84-4.09,1.77-6.07,2.79-.19.09-.07.4.12.31q3-1.53,6.08-2.79A.17.17,0,0,0,74,96.1Z"/><path class="cls-36" d="M73,95.47a8.26,8.26,0,0,0-2.4,1.09c-.17.12,0,.38.2.26a8.24,8.24,0,0,1,2.32-1C73.31,95.72,73.18,95.41,73,95.47Z"/><path class="cls-36" d="M68.5,96.73l-1.29.55a.17.17,0,0,0,.13.31L68.62,97A.16.16,0,1,0,68.5,96.73Z"/><path class="cls-36" d="M77.09,92.47c-1,.39-1.89.83-2.81,1.31-.19.09-.07.4.12.3.92-.47,1.86-.91,2.81-1.31A.16.16,0,0,0,77.09,92.47Z"/><path class="cls-36" d="M77.45,93.83A9.05,9.05,0,0,0,74.83,95c-.18.12,0,.38.19.26a8.79,8.79,0,0,1,2.55-1.16C77.78,94.08,77.65,93.77,77.45,93.83Z"/><path class="cls-37" d="M77.63,90.36c-.16-.35-.29-.71-.47-1a.86.86,0,0,0-.62-.51,2,2,0,0,0-1,.24l-1.14.46-2.34.93c-1.54.61-3.07,1.25-4.56,2a18.82,18.82,0,0,0-2,1.11,2.52,2.52,0,0,0-1.19,1.38c-.48,1.67,1.25,2.88,1.5,4.41,0,.21.36.18.32,0-.21-1.36-1.46-2.33-1.56-3.71A1.8,1.8,0,0,1,65.4,94,12.75,12.75,0,0,1,67.23,93c2.74-1.41,5.65-2.48,8.51-3.62.32-.12.75-.37,1,0a4.33,4.33,0,0,1,.51,1.06l1.08,2.42a.16.16,0,1,0,.3-.12Z"/><path class="cls-37" d="M75.3,90l-9.43,4.33c-.19.09-.07.4.12.31l9.43-4.33C75.62,90.24,75.5,89.93,75.3,90Z"/><path class="cls-37" d="M74.38,91.5l-2.3,1c-.19.08-.07.39.12.31l2.31-1A.17.17,0,0,0,74.38,91.5Z"/><path class="cls-37" d="M68.74,94.44l-2.86,1.19a.17.17,0,0,0,.12.31l2.86-1.19A.17.17,0,0,0,68.74,94.44Z"/><path class="cls-35" d="M79.09,98.84q-1.49-2-2.81-4.17a2.41,2.41,0,0,1,1-1.44c2.66-2.13,5.42-4.15,8.24-6.07a.85.85,0,0,1,.84.08,2.28,2.28,0,0,1,.54.61L90,92.35a7.83,7.83,0,0,1-1.26,1.11L85.9,95.62l-2.2,1.66c-1,.8-2.11,1.6-3.23,2.31a.65.65,0,0,1-.45.15.55.55,0,0,1-.28-.17A5,5,0,0,1,79.09,98.84Z"/><path class="cls-36" d="M88,92.33a38.09,38.09,0,0,1-5.93,4.24c-.18.11,0,.37.2.27a38.82,38.82,0,0,0,5.93-4.25C88.39,92.45,88.19,92.19,88,92.33Z"/><path class="cls-36" d="M87,91.77l-2,1.44c-.17.12,0,.39.2.26l2-1.44C87.32,91.91,87.12,91.65,87,91.77Z"/><path class="cls-36" d="M82.15,94.64a8.59,8.59,0,0,0-2.25,1.57.17.17,0,0,0,0,.23.16.16,0,0,0,.23,0,9,9,0,0,1,2.18-1.54C82.46,94.85,82.34,94.54,82.15,94.64Z"/><path class="cls-36" d="M86.29,90.89A6.08,6.08,0,0,0,84.79,92a.17.17,0,0,0,0,.23.15.15,0,0,0,.23,0,6.18,6.18,0,0,1,1.43-1A.16.16,0,0,0,86.5,91,.17.17,0,0,0,86.29,90.89Z"/><path class="cls-37" d="M82.24,89.32,78.77,91.8c-.54.39-1.09.76-1.62,1.17a2.36,2.36,0,0,0-1,1.25,1.26,1.26,0,0,0,.47,1.39c.18.11.39-.15.21-.26a1.07,1.07,0,0,1-.1-1.58,7.66,7.66,0,0,1,1.69-1.35l4-2.83A.17.17,0,0,0,82.24,89.32Z"/><path class="cls-37" d="M89.27,91l-1.41-1.88c-.43-.57-.83-1.19-1.31-1.73a.92.92,0,0,0-.63-.38,1.19,1.19,0,0,0-.78.28c-.65.44-1.28.89-1.92,1.34-.17.12,0,.38.2.26l1.7-1.18c.22-.16.52-.43.81-.37s.45.35.6.56L89,91.15A.16.16,0,0,0,89.27,91Z"/><path class="cls-37" d="M85,88.76l-6.83,4.77c-.17.12,0,.39.2.26L85.18,89C85.36,88.9,85.16,88.64,85,88.76Z"/><path class="cls-37" d="M84.8,90.15l-1.41,1.06c-.17.12,0,.39.2.26L85,90.41C85.17,90.29,85,90,84.8,90.15Z"/><path class="cls-37" d="M80.38,93.82a.17.17,0,0,0-.23,0,3.24,3.24,0,0,1-1,.67.18.18,0,0,0-.09.22.17.17,0,0,0,.21.09,3.77,3.77,0,0,0,1.11-.78A.15.15,0,0,0,80.38,93.82Z"/><path class="cls-35" d="M84.18,94.7a4.13,4.13,0,0,1,.41-1.91A4.21,4.21,0,0,1,87,91.18a40.62,40.62,0,0,1,5.42-1.49,3.63,3.63,0,0,1,.73-.08,1.61,1.61,0,0,1,1.31.81,3.13,3.13,0,0,1,.32,1.13c.17,1.24.35,2.48.53,3.72a.7.7,0,0,1-.57.94,42.16,42.16,0,0,1-7,2c-.84.19-2.81.79-3.49,0-.31-.36-.17-1.07-.16-1.51C84.12,96,84.14,95.36,84.18,94.7Z"/><path class="cls-36" d="M93.42,93.66a13.51,13.51,0,0,0-4.24,1.08c-.19.09-.07.4.12.31A13,13,0,0,1,93.46,94C93.67,94,93.63,93.65,93.42,93.66Z"/><path class="cls-36" d="M92.77,92.63l-2,.56a.17.17,0,0,0-.09.22.16.16,0,0,0,.21.09l2-.57a.16.16,0,0,0,.1-.21A.17.17,0,0,0,92.77,92.63Z"/><path class="cls-36" d="M93,91.63l-1.09.25a.16.16,0,0,0-.15.18.16.16,0,0,0,.18.14L93,92a.17.17,0,0,0,.15-.18C93.15,91.7,93.06,91.61,93,91.63Z"/><path class="cls-37" d="M91.86,90.68,86.7,92.19c-.2.06-.08.36.13.3L92,91C92.19,90.93,92.07,90.62,91.86,90.68Z"/><path class="cls-37" d="M88.26,92.72a.17.17,0,0,0-.12,0l-.59.14a.19.19,0,0,0-.11.07.17.17,0,0,0,0,.12.17.17,0,0,0,.06.11.17.17,0,0,0,.12,0l.58-.14a.17.17,0,0,0,.12-.06.17.17,0,0,0,0-.12A.2.2,0,0,0,88.26,92.72Z"/><path class="cls-37" d="M86.67,94.63a2.86,2.86,0,0,1-1,.27.18.18,0,0,0-.15.19.16.16,0,0,0,.18.14,3.11,3.11,0,0,0,1.12-.3.15.15,0,0,0,.09-.21A.16.16,0,0,0,86.67,94.63Z"/><path class="cls-37" d="M87.54,90.81a3.85,3.85,0,0,0-3.05,2.25,8.47,8.47,0,0,0-.42,3.84c0,.21.33.18.32,0a8.52,8.52,0,0,1,.35-3.55,3.52,3.52,0,0,1,2.84-2.17C87.79,91.12,87.75,90.79,87.54,90.81Z"/><path class="cls-37" d="M94.54,90.12A1.59,1.59,0,0,0,93,89.5a9.18,9.18,0,0,0-1,.23L90.78,90l-2.29.56c-.21.05-.17.37,0,.32l4.1-1a2.1,2.1,0,0,1,.93-.08,1.31,1.31,0,0,1,.69.44,3.31,3.31,0,0,1,.57,1.84c0,.21.35.17.33,0A3.79,3.79,0,0,0,94.54,90.12Z"/><path class="cls-35" d="M75.85,100.75a1.89,1.89,0,0,1,0-.75,1.5,1.5,0,0,1,.73-.78,7.18,7.18,0,0,1,1.19-.47q6-2,12.17-3.5a2.75,2.75,0,0,1,2.37.16,2.49,2.49,0,0,1,.65,1,11.52,11.52,0,0,1,.76,4,2.19,2.19,0,0,1-.13,1,2.58,2.58,0,0,1-1.26,1.15,79.5,79.5,0,0,1-12.17,5.16c-.78.28-1.73.54-2.37,0-.8-.68-1-2.15-1.26-3.1A30.23,30.23,0,0,1,75.85,100.75Z"/><path class="cls-36" d="M83.53,101.36l-5.19,1.19c-.21,0-.17.37,0,.33l5.19-1.19C83.77,101.64,83.73,101.31,83.53,101.36Z"/><path class="cls-36" d="M86.36,99.85l-3,.77c-.2,0-.08.36.13.31l3-.78C86.68,100.1,86.56,99.79,86.36,99.85Z"/><path class="cls-37" d="M91.43,95a6,6,0,0,0-1.4.21q-.75.15-1.5.33c-2,.48-4,1-6,1.64l-3.4,1c-.2.07-.08.37.12.31a111.24,111.24,0,0,1,11.31-3.09,3.22,3.22,0,0,1,1.38-.06,1.11,1.11,0,0,1,.88.9.17.17,0,0,0,.33,0A1.56,1.56,0,0,0,91.43,95Z"/><path class="cls-37" d="M90.57,96.17l-5.71,1.4c-.2.05-.17.37,0,.32l5.71-1.39C90.81,96.45,90.78,96.12,90.57,96.17Z"/><path class="cls-37" d="M82.77,98.29a20.31,20.31,0,0,0-3.24.93.16.16,0,0,0,.12.3,20.38,20.38,0,0,1,3.16-.91C83,98.57,83,98.25,82.77,98.29Z"/><path class="cls-37" d="M85.74,98.73c-1.48.29-2.94.65-4.38,1.07-.2.06-.08.37.12.31q2.13-.63,4.29-1C86,99,85.94,98.69,85.74,98.73Z"/><path class="cls-35" d="M75.17,95.94a2.16,2.16,0,0,1,2-.35,2,2,0,0,1,.5.42,12.13,12.13,0,0,1,2.59,4.32,1.94,1.94,0,0,1,.14,1,2.12,2.12,0,0,1-.81,1.09,30.08,30.08,0,0,1-9.72,5.45,1.21,1.21,0,0,1-.59.1,1.23,1.23,0,0,1-.73-.48,14.41,14.41,0,0,1-2.68-5.38,1.34,1.34,0,0,1,.68-1.86c1-.48,2-.91,2.94-1.38Q72.34,97.48,75.17,95.94Z"/><path class="cls-36" d="M78.24,100.23l-2.64,1.65c-.18.11,0,.37.2.26l2.64-1.65C78.62,100.38,78.42,100.12,78.24,100.23Z"/><path class="cls-36" d="M78.61,101.3l-2.35,1.55c-.18.11,0,.38.2.26l2.35-1.55C79,101.45,78.79,101.18,78.61,101.3Z"/><path class="cls-36" d="M71.88,100.54c-.75.41-1.5.82-2.26,1.22a.18.18,0,0,0-.09.22.17.17,0,0,0,.21.09L72,100.85a.17.17,0,0,0,.09-.22A.17.17,0,0,0,71.88,100.54Z"/><path class="cls-36" d="M77.3,99l-1.57.87a.16.16,0,0,0-.09.21.16.16,0,0,0,.21.1l1.58-.87a.2.2,0,0,0,.09-.22A.18.18,0,0,0,77.3,99Z"/><path class="cls-37" d="M76.77,95.4a3.7,3.7,0,0,0-2.14.68,47,47,0,0,1-4.71,2.48c-.91.4-1.83.77-2.77,1.1-.2.07-.08.38.12.31A40.76,40.76,0,0,0,71.78,98c.74-.37,1.46-.76,2.16-1.18a8.72,8.72,0,0,1,2.13-1.08,1.61,1.61,0,0,1,1.87.7.16.16,0,1,0,.3-.12A1.74,1.74,0,0,0,76.77,95.4Z"/><path class="cls-37" d="M78.94,97.22c-.09-.19-.4-.07-.31.12.58,1.18,1.8,2.52,1.31,3.94s-2,1.88-3,2.73c-.16.14,0,.4.2.26,1.07-.91,2.67-1.46,3.14-2.92S79.56,98.5,78.94,97.22Z"/><path class="cls-37" d="M71.66,98.72a29.29,29.29,0,0,1-3.79,1.71c-.2.07-.08.38.12.31A28.06,28.06,0,0,0,71.78,99C72,98.92,71.85,98.62,71.66,98.72Z"/><path class="cls-37" d="M76.17,96l-2.62,1.58c-.18.11,0,.37.2.26l2.61-1.58C76.55,96.18,76.35,95.92,76.17,96Z"/><path class="cls-37" d="M74.83,98.08a.17.17,0,0,0-.23,0l-1.53,1a.17.17,0,0,0,0,.24.17.17,0,0,0,.23,0l1.54-1A.17.17,0,0,0,74.83,98.08Z"/><path class="cls-35" d="M56.21,111.31a2.26,2.26,0,0,1-1.15-1.6,2.81,2.81,0,0,1,.57-1.6,65.53,65.53,0,0,1,6.57-9.27,2.43,2.43,0,0,1,.63-.57,2.38,2.38,0,0,1,1.76,0,6.38,6.38,0,0,1,1.63.65,7.22,7.22,0,0,1,1.6,1.57,9.85,9.85,0,0,1,1.73,2.62,1.12,1.12,0,0,1,.1.65,1.4,1.4,0,0,1-.29.48,41.87,41.87,0,0,1-5.11,4.85c-1.14,1-2.37,2.47-3.85,2.85A5.32,5.32,0,0,1,56.21,111.31Z"/><path class="cls-36" d="M67.48,102.22l-2.78,2.5c-.15.15,0,.41.2.27l2.77-2.51C67.83,102.34,67.63,102.08,67.48,102.22Z"/><path class="cls-36" d="M66.33,101.75a10.56,10.56,0,0,0-1.64,1.49c-.14.16.11.36.26.21A10.32,10.32,0,0,1,66.53,102C66.7,101.89,66.5,101.63,66.33,101.75Z"/><path class="cls-36" d="M65.38,101.28a.18.18,0,0,0-.23,0l-.66.66a.16.16,0,0,0,.26.2l.66-.66A.16.16,0,0,0,65.38,101.28Z"/><path class="cls-36" d="M62.38,104.92a19.25,19.25,0,0,0-3.73,5c-.1.19.2.32.3.13a18.65,18.65,0,0,1,3.63-4.87C62.73,105,62.54,104.78,62.38,104.92Z"/><path class="cls-36" d="M63.76,104.91a.16.16,0,0,0-.23,0l-1.08,1.17a.16.16,0,0,0,.26.2l1.08-1.17A.16.16,0,0,0,63.76,104.91Z"/><path class="cls-37" d="M62.62,100A32.22,32.22,0,0,0,60,103.16c-.12.17.14.38.26.2a32.22,32.22,0,0,1,2.58-3.15C63,100.06,62.76,99.85,62.62,100Z"/><path class="cls-37" d="M63.27,101.13a.17.17,0,0,0-.23,0l-.33.45a.27.27,0,0,0,0,.12.15.15,0,0,0,.06.11.17.17,0,0,0,.23,0l.33-.45a.18.18,0,0,0,0-.12A.15.15,0,0,0,63.27,101.13Z"/><path class="cls-37" d="M58.32,105.89a8.66,8.66,0,0,0-1.16,2,8.42,8.42,0,0,0-.35,1.11,1.28,1.28,0,0,0,.07,1.13c.13.16.4,0,.26-.2s0-.73,0-1a7.22,7.22,0,0,1,.35-1,8.41,8.41,0,0,1,1-1.82C58.7,105.93,58.44,105.72,58.32,105.89Z"/><path class="cls-37" d="M58.6,107.64a.18.18,0,0,0-.22.08c-.08.21-.17.41-.26.61a.17.17,0,0,0,.09.22.16.16,0,0,0,.21-.09l.27-.61A.17.17,0,0,0,58.6,107.64Z"/><path class="cls-37" d="M57.75,104.55a25.76,25.76,0,0,0-2.38,4,2,2,0,0,0-.15,1.93,3.47,3.47,0,0,0,1.65,1.32c.19.09.32-.21.13-.3a3,3,0,0,1-1.55-1.29,2.24,2.24,0,0,1,.39-1.87A26.37,26.37,0,0,1,58,104.75C58.13,104.58,57.87,104.38,57.75,104.55Z"/><path class="cls-37" d="M65.7,98.54a3.6,3.6,0,0,0-2.55-.36,5,5,0,0,0-2.27,1.95c-.81,1-1.6,2-2.36,3.1-.13.17.13.37.25.2.63-.86,1.27-1.71,1.93-2.54.32-.42.65-.83,1-1.23a3.9,3.9,0,0,1,1.1-1c1.67-.92,3.65.5,4.76,1.68a8.42,8.42,0,0,1,1.7,2.73c.07.19.38.07.3-.13A8.27,8.27,0,0,0,65.7,98.54Z"/><path class="cls-35" d="M62.63,114.25a5.39,5.39,0,0,1-2.26-3.56,3.8,3.8,0,0,1,.09-1.71c.34-1.07,1.64-1.54,2.61-2.1L66,105.17l4.39-2.56,3-1.75c.57-.33,1.28.34,1.73.82a8.53,8.53,0,0,1,1.3,2.25,24,24,0,0,0,1.41,2.53,1.88,1.88,0,0,1-.8,1c-4,2.75-8.11,5.42-12.74,6.82A1.87,1.87,0,0,1,62.63,114.25Z"/><path class="cls-36" d="M75.46,106.75a38.28,38.28,0,0,1-8.37,5.2q-1.29.58-2.61,1.08c-.19.07-.07.38.13.3a39,39,0,0,0,8.81-4.62c.77-.54,1.51-1.11,2.24-1.7C75.83,106.88,75.63,106.61,75.46,106.75Z"/><path class="cls-36" d="M73.33,107.56l-5.18,2.85c-.18.1-.06.41.12.31l5.18-2.86C73.64,107.76,73.52,107.45,73.33,107.56Z"/><path class="cls-36" d="M66.34,110.36a.16.16,0,0,0-.23,0l-1.44.85a.16.16,0,1,0,.2.26l1.44-.85A.17.17,0,0,0,66.34,110.36Z"/><path class="cls-37" d="M62.31,113.69a4.37,4.37,0,0,1-1.82-4.31.17.17,0,0,0-.33,0,4.68,4.68,0,0,0,2,4.62C62.28,114.07,62.49,113.81,62.31,113.69Z"/><path class="cls-37" d="M75.59,101.91a2.66,2.66,0,0,0-1.16-1.09,2.09,2.09,0,0,0-1.69.21c-.66.32-1.3.68-1.94,1l-2,1.08c-1.3.74-2.6,1.5-3.88,2.27-1.46.88-2.9,1.78-4.34,2.7-.17.12,0,.38.2.27q3.62-2.33,7.34-4.47c1.25-.72,2.51-1.42,3.79-2.11a5.4,5.4,0,0,1,1.74-.76,1.59,1.59,0,0,1,1.42.76,13.23,13.23,0,0,1,1.2,1.93,19.14,19.14,0,0,1,1,2.17.16.16,0,0,0,.3-.12A17.6,17.6,0,0,0,75.59,101.91Z"/><path class="cls-37" d="M68.73,104.46l-6.73,4c-.18.11,0,.37.2.26l6.73-4C69.11,104.61,68.91,104.35,68.73,104.46Z"/><path class="cls-37" d="M72.73,102.26a.16.16,0,0,0-.23,0l-1.89,1.12a.17.17,0,0,0,0,.23.18.18,0,0,0,.23,0l1.89-1.12A.17.17,0,0,0,72.73,102.26Z"/><path class="cls-37" d="M63.62,109.71a.17.17,0,0,0-.23,0l-1.38.91a.16.16,0,0,0,.2.26l1.38-.91A.17.17,0,0,0,63.62,109.71Z"/><path class="cls-35" d="M71.34,111.11a4.79,4.79,0,0,1-.15-1.31,6.26,6.26,0,0,1,.36-2.69,4.6,4.6,0,0,1,2.68-2.28,21.79,21.79,0,0,1,3.51-.8c2.77-.54,5.43-1.53,8.2-2.07a2.06,2.06,0,0,1,1.3,0,2,2,0,0,1,.87,1.24,8.15,8.15,0,0,1,.27,3.92.81.81,0,0,1-.56.74,47.6,47.6,0,0,1-10.16,3.53,15.92,15.92,0,0,0-2.28.6C73.8,112.62,72,113.32,71.34,111.11Z"/><path class="cls-37" d="M70.85,109a4.94,4.94,0,0,0,.67,3c.11.18.37,0,.27-.2a4.5,4.5,0,0,1-.61-2.73C71.2,108.79,70.87,108.74,70.85,109Z"/><path class="cls-37" d="M87.1,101.75a4.14,4.14,0,0,0-1.85.18l-4.18,1-4.22,1a12.54,12.54,0,0,0-3.91,1.36,3.69,3.69,0,0,0-1.79,2.87c0,.21.32.26.32,0a3.32,3.32,0,0,1,1.45-2.5,9.9,9.9,0,0,1,3.61-1.37l7.8-1.91a15.8,15.8,0,0,1,2-.45,1.4,1.4,0,0,1,1.55.77c.06.2.37.08.3-.12A1.51,1.51,0,0,0,87.1,101.75Z"/><path class="cls-37" d="M88.06,103.39a7.19,7.19,0,0,1,.1,3.23c0,.2.28.25.32,0a7.51,7.51,0,0,0-.11-3.4C88.32,103.06,88,103.19,88.06,103.39Z"/><path class="cls-37" d="M77.05,105.18a7.49,7.49,0,0,0-3.5,1.12A3.51,3.51,0,0,0,72,108.78c0,.21.3.26.32,0a3.23,3.23,0,0,1,1.46-2.3,7.06,7.06,0,0,1,3.29-1A.17.17,0,0,0,77.05,105.18Z"/><path class="cls-37" d="M84.27,103l-5.35,1.57c-.21.06-.09.37.12.31l5.36-1.58C84.6,103.26,84.48,103,84.27,103Z"/><path class="cls-37" d="M78.92,105.62a19.23,19.23,0,0,0-3.34.93.16.16,0,0,0,.12.3A18.2,18.2,0,0,1,79,106C79.16,105.91,79.12,105.58,78.92,105.62Z"/><path class="cls-36" d="M85.53,107.69q-4.45,1.57-9,2.74c-.88.22-1.77.43-2.65.63-.21,0-.17.38,0,.33q4.65-1,9.18-2.52c.87-.28,1.73-.57,2.59-.87C85.85,107.93,85.73,107.62,85.53,107.69Z"/><path class="cls-36" d="M86.19,106.24q-2.75,1-5.57,1.86c-.2.06-.08.36.12.31q2.82-.81,5.57-1.86A.17.17,0,0,0,86.19,106.24Z"/><path class="cls-36" d="M77.67,109.19l-1.11.43a.18.18,0,0,0-.09.22.17.17,0,0,0,.22.09l1.1-.44a.16.16,0,0,0-.12-.3Z"/><path class="cls-36" d="M82.91,106.15l-1.87.7a.16.16,0,0,0,.12.3l1.87-.69A.17.17,0,0,0,82.91,106.15Z"/><path class="cls-35" d="M91.48,105.59a24.15,24.15,0,0,1-3.25-3.81,2.06,2.06,0,0,1-.47-1.19,2.12,2.12,0,0,1,.88-1.39c2.72-2.42,5.82-4.44,8.2-7.19a1.39,1.39,0,0,1,1.26-.43,2.59,2.59,0,0,1,1.12.67,26,26,0,0,1,1.93,2,5.75,5.75,0,0,1,1.07,1.49.72.72,0,0,1,.08.35.78.78,0,0,1-.21.36c-1.51,1.75-3.16,3.39-4.81,5a35.86,35.86,0,0,1-4.77,4.2,1.16,1.16,0,0,1-.49.23C91.83,105.92,91.62,105.72,91.48,105.59Z"/><path class="cls-37" d="M94.12,94.32l-3.76,3.25-1.83,1.58a2,2,0,0,0-.88,1.52,3,3,0,0,0,1,1.83c.14.16.41,0,.27-.19a3.07,3.07,0,0,1-.92-1.53c-.08-.67.46-1.11.92-1.51l3.45-3,2-1.71C94.48,94.45,94.28,94.18,94.12,94.32Z"/><path class="cls-37" d="M100.42,93.42c-.89-.53-1.34-1.85-2.52-1.89s-1.84,1.37-2.78,2c-.18.11,0,.38.2.26a6.25,6.25,0,0,0,1.17-1.13,1.92,1.92,0,0,1,1.41-.77,1.82,1.82,0,0,1,1.2.73,5,5,0,0,0,1.12,1.09C100.4,93.79,100.61,93.53,100.42,93.42Z"/><path class="cls-37" d="M96.68,93.38,89.5,99.72c-.16.14,0,.4.2.26l7.18-6.34C97,93.5,96.84,93.24,96.68,93.38Z"/><path class="cls-37" d="M92.23,98.91a.16.16,0,0,0-.23,0l-1,.86a.16.16,0,1,0,.2.26l1-.86A.17.17,0,0,0,92.23,98.91Z"/><path class="cls-36" d="M100.52,96.67a47.91,47.91,0,0,1-6,5.7c-.61.49-1.23,1-1.86,1.42a.17.17,0,0,0,.2.27,50,50,0,0,0,6.27-5.44c.55-.57,1.08-1.15,1.61-1.74C100.92,96.72,100.66,96.52,100.52,96.67Z"/><path class="cls-36" d="M99,96.82a.17.17,0,0,0-.23,0L97,98.57a.16.16,0,0,0,0,.23.15.15,0,0,0,.23,0L99,97.05A.17.17,0,0,0,99,96.82Z"/><path class="cls-36" d="M93.43,101.36a.17.17,0,0,0-.23,0l-.9.85a.17.17,0,0,0,0,.23.16.16,0,0,0,.23,0l.89-.86A.17.17,0,0,0,93.43,101.36Z"/><path class="cls-36" d="M99.25,94.69a32.6,32.6,0,0,0-2.61,2.51c-.15.15.11.36.26.2A31.09,31.09,0,0,1,99.45,95C99.6,94.81,99.41,94.55,99.25,94.69Z"/><path class="cls-51" d="M77.66,99.87a2.14,2.14,0,0,0-.75-.25,7.17,7.17,0,0,0-1.31-.12,3.09,3.09,0,0,0-1.34.24,1.39,1.39,0,0,0-.8,1c-.2,1.74,3.06,1.24,3.9.78.4-.22.8-.6.75-1.06A.91.91,0,0,0,77.66,99.87Zm-.29.86a.34.34,0,0,1-.16.13,3.27,3.27,0,0,1-2.71.31c-.14-.06-.3-.15-.33-.3a.34.34,0,0,1,0-.24.71.71,0,0,1,.49-.33,2.09,2.09,0,0,1,.61,0l1.56.06a.77.77,0,0,1,.37.07A.27.27,0,0,1,77.37,100.73Z"/><path class="cls-41" d="M69.77,105.49a1.21,1.21,0,0,0-.49.11,4.56,4.56,0,0,0-2.08,1.48,1.85,1.85,0,0,0-.46,1.31c.22,2,2.49.29,3.08-.39a2.58,2.58,0,0,0,.76-1.36A1,1,0,0,0,69.77,105.49Zm.06.94a1.11,1.11,0,0,1-.12.5,5.52,5.52,0,0,1-.9,1.39c-.26.3-1,.72-1.32.2a.81.81,0,0,1,0-.68,3,3,0,0,1,1.7-1.74.57.57,0,0,1,.31-.06A.42.42,0,0,1,69.83,106.43Z"/><path class="cls-51" d="M61,101.72a1,1,0,0,0-.45.28,3.08,3.08,0,0,0-.93,1.58c-.23,1.1.57,3,1.85,1.82a2.07,2.07,0,0,0,.55-1,3,3,0,0,0-.11-2C61.7,102,61.35,101.64,61,101.72Zm.58,2.69a1.18,1.18,0,0,1-.29.54.61.61,0,0,1-.58.17.61.61,0,0,1-.36-.31,1.8,1.8,0,0,1-.22-.91,1.77,1.77,0,0,1,.56-1.52.54.54,0,0,1,.51-.11.67.67,0,0,1,.3.34A2.54,2.54,0,0,1,61.53,104.41Z"/><path class="cls-41" d="M72.56,91.49a.87.87,0,0,0-.61.08,4.66,4.66,0,0,0-2.63,2.21,1.38,1.38,0,0,0-.13.82.65.65,0,0,0,1,.47,7.07,7.07,0,0,0,1.89-1.3,2.62,2.62,0,0,0,.88-1.48C73,92,72.86,91.59,72.56,91.49Zm-.15.78a.82.82,0,0,1-.21.5,6.59,6.59,0,0,1-1.35,1.39c-.24.17-1.17.59-1.23.09a.94.94,0,0,1,.25-.62,7.37,7.37,0,0,1,1.83-1.5A1.2,1.2,0,0,1,72,92a.38.38,0,0,1,.31.06A.37.37,0,0,1,72.41,92.27Z"/><path class="cls-51" d="M83.7,90.44a1,1,0,0,0-.48.06A4.44,4.44,0,0,0,81,92.18a2,2,0,0,0-.4,1.09c0,1.7,1.91.55,2.46-.1A8.14,8.14,0,0,0,83.88,92a1.92,1.92,0,0,0,.32-.88A.71.71,0,0,0,83.7,90.44Zm-.07,1a3.51,3.51,0,0,1-1.6,2,1.11,1.11,0,0,1-.39.16.41.41,0,0,1-.38-.13c-.16-.19-.05-.47.08-.68A4.13,4.13,0,0,1,83.24,91a.35.35,0,0,1,.28,0C83.66,91,83.66,91.24,83.63,91.39Z"/><path class="cls-41" d="M90,93.11a1.58,1.58,0,0,0-.67.14,2.52,2.52,0,0,0-.56.3c-.95.8.79,1,1.35.65.24-.16.47-.43.4-.7A.57.57,0,0,0,90,93.11Zm.15.7c-.22.34-.79.33-1.13.26a.44.44,0,0,1-.15,0,.16.16,0,0,1-.06-.14.47.47,0,0,1,.06-.09,1.46,1.46,0,0,1,1.1-.43l.12,0a.2.2,0,0,1,.09.12A.34.34,0,0,1,90.12,93.81Z"/><path class="cls-41" d="M87.74,96.23a1.86,1.86,0,0,0-.89.22,4.21,4.21,0,0,0-1.64,1.21,1.1,1.1,0,0,0-.27,1.13.87.87,0,0,0,.55.44c1,.27,2-.88,2.6-1.53a1.07,1.07,0,0,0,.36-1A.8.8,0,0,0,87.74,96.23Zm.18.9a1.55,1.55,0,0,1-.6.74,10.79,10.79,0,0,1-1,.66,1.12,1.12,0,0,1-.49.18.4.4,0,0,1-.42-.23.6.6,0,0,1,.19-.55,4.3,4.3,0,0,1,1.69-1.2.52.52,0,0,1,.56,0A.36.36,0,0,1,87.92,97.13Z"/><path class="cls-51" d="M96.9,96.83a2.26,2.26,0,0,0-.88-.31,3.34,3.34,0,0,0-1.8.16,2.34,2.34,0,0,0-1.28,1.23,1.22,1.22,0,0,0-.08.68,1.59,1.59,0,0,0,.42.73,3.73,3.73,0,0,0,1,.86,2.44,2.44,0,0,0,3.18-1.07A1.87,1.87,0,0,0,96.9,96.83Zm.19,1.31a1.71,1.71,0,0,1-.27,1.1c-.78,1.09-2.45.46-3-.48a1,1,0,0,1-.18-.65c.06-.35.42-.57.75-.71a2.69,2.69,0,0,1,2.2-.09,1,1,0,0,1,.35.26A1.05,1.05,0,0,1,97.09,98.14Z"/><path class="cls-51" d="M86,104.17a1,1,0,0,0-.94-.23,2.19,2.19,0,0,0-.88.49,3.77,3.77,0,0,0-1.51,2.3.91.91,0,0,0,.08.61.79.79,0,0,0,.35.27c1.38.64,2.86-1.14,3.1-2.35A1.22,1.22,0,0,0,86,104.17Zm-1.33,2.58a1.42,1.42,0,0,1-.84.43.55.55,0,0,1-.48-.21.8.8,0,0,1,.07-.73,3.53,3.53,0,0,1,1.63-1.85.55.55,0,0,1,.58,0,.41.41,0,0,1,.13.23C86,105.42,85.19,106.26,84.67,106.75Z"/><path class="cls-52" d="M65.59,102.19a.15.15,0,0,0-.17,0,.34.34,0,0,0-.08.09l-.06.07-.1.15-.09.15,0,.08a.49.49,0,0,0,0,.11s0,.09,0,.11a.1.1,0,0,0,.12,0l.09-.07.06-.08.11-.13a1.71,1.71,0,0,1,.11-.14,1.74,1.74,0,0,0,.11-.18A.15.15,0,0,0,65.59,102.19Z"/><path class="cls-52" d="M64.39,100.42h0S64.4,100.4,64.39,100.42Z"/><path class="cls-52" d="M64.94,100h-.09a.33.33,0,0,0-.13.07l-.12.08-.12.12,0,0,0,0a.08.08,0,0,1,0,0,.11.11,0,0,0,.12.15h.09l.06,0,.16-.08.11-.08a.27.27,0,0,0,.1-.11l0-.08A.15.15,0,0,0,64.94,100Z"/><path class="cls-52" d="M69.33,97.09a.38.38,0,0,0-.13,0,.82.82,0,0,0-.29.18.62.62,0,0,0-.14.14.56.56,0,0,0,0,.08.15.15,0,0,0,0,.11s0,.06.07,0l.09,0,0,0h0s0,0,0,0,0,0,0,0h0l0,0,0,0h0l.14-.06.08,0h0l0,0h0s.07,0,.09,0a.19.19,0,0,0,.07-.2A.23.23,0,0,0,69.33,97.09Z"/><path class="cls-52" d="M74.75,93.6a.51.51,0,0,0-.17,0l-.13,0-.12.06-.06,0-.06,0,0,0a.09.09,0,0,0,0,.13.12.12,0,0,0,.1,0h.07l.14,0a1,1,0,0,0,.3-.12.14.14,0,0,0,.05-.16A.16.16,0,0,0,74.75,93.6Z"/><path class="cls-52" d="M75.66,97.09a.17.17,0,0,0-.1,0h0l-.07,0-.15.08-.24.17a.11.11,0,0,0,0,.15.13.13,0,0,0,.15.06l.26-.13.15-.09a.34.34,0,0,0,.13-.16A.12.12,0,0,0,75.66,97.09Z"/><path class="cls-52" d="M82,100.73s0-.07-.09-.08a.1.1,0,0,0-.14,0,.15.15,0,0,0,0,.09.22.22,0,0,0,0,.11,1,1,0,0,1,0,.17v.06h0a.45.45,0,0,0,0,.11v.06h0v0a.1.1,0,0,0,0,.07h0a.1.1,0,0,0,.16,0,.08.08,0,0,0,0,0l0-.05,0-.07,0-.12V101a.55.55,0,0,0,0-.18A.24.24,0,0,0,82,100.73Z"/><path class="cls-52" d="M82.94,98.59a.57.57,0,0,0-.18-.12.66.66,0,0,0-.2-.06l-.18,0h-.12l-.12,0a.12.12,0,0,0-.08.13.13.13,0,0,0,.11.12l.08,0h.08l.09,0h0l.15.07.16.07a.16.16,0,0,0,.2-.07A.17.17,0,0,0,82.94,98.59Z"/><path class="cls-52" d="M80.88,105.09h-.14a.31.31,0,0,0-.13,0,.46.46,0,0,0-.21.18s0,.06,0,.09a.12.12,0,0,0,0,.1.14.14,0,0,0,.19,0h0l.05,0,.08,0h.11a.14.14,0,0,0,.16-.12A.15.15,0,0,0,80.88,105.09Z"/><path class="cls-52" d="M77.64,108.06a.66.66,0,0,0-.2,0l-.18.06-.3.09a.15.15,0,0,0-.08.16.14.14,0,0,0,.15.1l.31,0,.18,0c.06,0,.14,0,.18-.11A.14.14,0,0,0,77.64,108.06Z"/><path class="cls-52" d="M72.27,104a.08.08,0,0,0-.09,0,.32.32,0,0,0-.09,0L72,104s0,0,0,0l-.06.06a1.09,1.09,0,0,1-.1.11l-.1.13a.12.12,0,0,0,0,.15.14.14,0,0,0,.15,0l.13-.1.11-.09.06-.06a.23.23,0,0,0,.08-.09.32.32,0,0,0,0-.09A.1.1,0,0,0,72.27,104Z"/><path class="cls-52" d="M65.37,108.08h0a.11.11,0,0,0-.11.06.25.25,0,0,1,0,.07s0,0,0,.08l0,.14-.06.28a.1.1,0,0,0,.08.11.11.11,0,0,0,.12-.06l.08-.27,0-.13v0a.22.22,0,0,0,0-.08v-.07A.1.1,0,0,0,65.37,108.08Z"/><path class="cls-52" d="M92.19,101.2Z"/><path class="cls-52" d="M92.67,101.06a.41.41,0,0,0-.11-.07.58.58,0,0,0-.22-.08h-.09a.57.57,0,0,0-.13,0,.7.7,0,0,0-.2.08s-.08.06-.06.11a.1.1,0,0,0,.1.08h.11l.11,0h0l.05,0,.09,0,.08,0,.07.06,0,0a.17.17,0,0,0,.18,0,.16.16,0,0,0,0-.18A.28.28,0,0,0,92.67,101.06Z"/><path class="cls-52" d="M86.93,100.27a.1.1,0,0,0-.1,0l-.07,0-.05,0-.08.07-.17.16a.06.06,0,0,0,0,.06.09.09,0,0,0,0,.07.09.09,0,0,0,.13,0l.19-.13.09-.06s.05,0,.06-.06,0,0,0-.06A.08.08,0,0,0,86.93,100.27Z"/><path class="cls-52" d="M92.77,92.53a.2.2,0,0,0-.08,0,.54.54,0,0,0-.12.09l-.12.15a.66.66,0,0,0-.09.19,1.17,1.17,0,0,0,0,.2.12.12,0,0,0,.08.12.11.11,0,0,0,.12-.06.59.59,0,0,1,0-.08l0,0h0l0,0a.08.08,0,0,0,0,0h0l0-.07.06-.07,0,0h0l.09-.08,0-.07a.11.11,0,0,0,0-.15A.12.12,0,0,0,92.77,92.53Z"/><path class="cls-52" d="M92.75,92.88h0Z"/><path class="cls-52" d="M81.45,95.45a.69.69,0,0,0-.13-.11,1.19,1.19,0,0,0-.15-.09l-.16,0-.09,0-.08,0a.09.09,0,0,0-.07.06.11.11,0,0,0,0,.09l.06,0h.06l.13,0,0,0h0l.06,0,.11.1a.14.14,0,0,0,.16,0A.12.12,0,0,0,81.45,95.45Z"/><path class="cls-52" d="M85.65,89.05a.11.11,0,0,0-.08,0h-.11l-.08,0a.24.24,0,0,0-.08.09.47.47,0,0,0-.09.22.22.22,0,0,0,0,.14.29.29,0,0,0,.12.07.18.18,0,0,0,.13,0,.23.23,0,0,0,.07-.1h0l0-.06,0-.05,0,0h0l.06-.06a.18.18,0,0,0,0-.07.16.16,0,0,0,0-.15A.1.1,0,0,0,85.65,89.05Z"/><path class="cls-52" d="M75.84,91.19a.11.11,0,0,0-.07,0l-.09,0a.19.19,0,0,0-.1.08l-.1.12-.17.27a.11.11,0,0,0,0,.13.08.08,0,0,0,.12,0l.24-.21.12-.13a.3.3,0,0,0,.06-.11.22.22,0,0,0,0-.08A.1.1,0,0,0,75.84,91.19Z"/><rect class="cls-32" y="337.31" width="350" height="145"/><text class="cls-53" transform="translate(50.8 415.4)">한식조리기능사과정</text><text class="cls-54" transform="translate(105.39 454)">2022년 4월 5일</text><text class="cls-55" transform="translate(10.69 365.55)">과정평가형자격</text></g></g></svg>