<svg id="레이어_1" data-name="레이어 1" xmlns="http://www.w3.org/2000/svg" viewBox="0 0 350 482"><defs><style>.cls-1{fill:#d7e7e5;}.cls-2{fill:#fff;}.cls-3{fill:#b5d1d7;}.cls-4{fill:#ea9d6d;}.cls-5{fill:#cf866a;}.cls-6{fill:#bc6f53;}.cls-7{fill:#85b6cc;}.cls-8{fill:#341932;}.cls-9{fill:#366b89;}.cls-10{opacity:0.6;}.cls-11{fill:#e2815b;}.cls-12{fill:#e37d60;}.cls-13{fill:#f3ac7c;}.cls-14{fill:#0d1630;}.cls-15{fill:#030202;}.cls-16{opacity:0.3;}.cls-17{fill:#724474;}.cls-18{fill:#285d76;}.cls-19{fill:#669ab6;}.cls-20{fill:#bddbd6;}.cls-21{opacity:0.5;}.cls-22{fill:#bbd4cf;}.cls-23{fill:#e1a798;}.cls-24{fill:#8e9dcf;}.cls-25{fill:#b5c5e5;}.cls-26{fill:#d79683;}.cls-27{fill:#c6785f;}.cls-28{fill:#c47d66;}.cls-29{fill:#e4937c;}.cls-30{font-size:18px;}.cls-30,.cls-31{fill:#231916;font-family:NotoSansKR-Bold-KSCpc-EUC-H, Noto Sans KR;}.cls-31{font-size:30px;}.cls-32{font-size:21px;fill:#828182;font-family:NotoSansKR-Medium-KSCpc-EUC-H, Noto Sans KR;}</style></defs><title>Artboard 24</title><rect class="cls-1" width="350" height="482"/><rect class="cls-2" y="336.61" width="350" height="145"/><ellipse class="cls-3" cx="176.32" cy="281.18" rx="172.38" ry="17.77"/><path class="cls-4" d="M166.6,184.69l-4.07-5.52A89.58,89.58,0,0,0,182.84,143s.15-1.15,5-.4,5.17,2.53,5.17,2.53C189.42,167.56,166.82,184.39,166.6,184.69Z"/><rect class="cls-5" x="139.51" y="134.97" width="17.26" height="73.34" transform="translate(-58.62 264.68) rotate(-73.43)"/><path class="cls-6" d="M118,159.54c3.81-.72,6.92,2.63,10.52,3.16,4.34.65,7.67.65,11.62,3a.45.45,0,0,0,.45-.77c-4-2.3-7.57-2.42-11.94-3.13-3.92-.64-6.76-3.85-10.89-3.07-.56.11-.32,1,.24.86Z"/><path class="cls-6" d="M137.49,167c-2.46-1.3-5.84-2.58-8.67-1.87-1.54.39-2.69,1.5-1.08,2.65a14,14,0,0,0,4.42,1.76c1.19.32,2.83.83,4.05.51,2-.54,1.6-2.44.27-3.55-.43-.36-1.06.27-.62.63.87.48.77,1.18-.31,2.1l-1.2-.13a18.27,18.27,0,0,1-1.95-.42c-.64-.17-1.28-.37-1.9-.6a9.49,9.49,0,0,1-2.31-1.07c-1.08-1.58,3.64-1,4.21-.91a16.85,16.85,0,0,1,4.64,1.67c.5.27,1-.5.45-.77Z"/><path class="cls-6" d="M115.19,166.9c3.53.32,6.09,2.66,9.27,3.85,3.88,1.45,8.62,2.31,12.58,3.49,2.67.79,5.34.64,8,1.36,3.47.93,6,3,9.67,3.52.56.07.8-.78.23-.86-3.55-.49-6.3-2.58-9.67-3.52s-6.69-1.34-10.09-2.34c-3.83-1.13-7.79-1.47-11.45-3.06-3.19-1.38-5.16-3-8.55-3.33-.57,0-.57.84,0,.89Z"/><path class="cls-6" d="M178,176.25c-4.36-2.1-11.05-4.22-15.93-2.66-2.25.72-2.2,2.08-.23,3.33s5,1.81,7.41,2.37c2.12.49,5.3,1.74,7.5,1.19,2-.5,3-2.71.89-3.83-.5-.26-.95.5-.45.77q-1.27,2.55-3.3,1.92L172,179c-.84-.17-1.68-.35-2.51-.54-1.25-.29-2.49-.61-3.71-1s-2.46-.3-2.45-2,.85-1.25,2.46-1.26a26.15,26.15,0,0,1,3.65.28,27.32,27.32,0,0,1,8.11,2.53c.51.25,1-.52.45-.77Z"/><path class="cls-6" d="M163.13,171.07c-2.91-.53-9.27-.74-7.15,4.12.84,1.91,2.86,3.05,4.64,3.91a51.83,51.83,0,0,0,9.64,3.47.45.45,0,0,0,.24-.86,48.35,48.35,0,0,1-9.77-3.54c-1.17-.59-3.21-1.5-3.63-2.79l.75-3.54,1.18-.2a14.36,14.36,0,0,1,3.87.29c.56.1.8-.76.23-.86Z"/><path class="cls-6" d="M180,175.27c1.57,1.74,2.61,4.47.43,6.19a12.13,12.13,0,0,1-4.83,2c-.56.12-.32,1,.24.85,2-.44,5.52-1.5,6.53-3.52s-.43-4.75-1.74-6.2c-.38-.42-1,.21-.63.63Z"/><path class="cls-7" d="M155.75,183.85c.66,2.18,3,7.2,1.64,7s-2.39-2.58-2-1.2c.1.34.27.81.46,1.34H139.44a2.61,2.61,0,0,1-1.38.4,2.34,2.34,0,0,1-.38,0,2.58,2.58,0,0,1-1-.37H118.85c-.06-.37.12-.55.67-.39,2,.59-1.54-3.74-.86-5.37s1.65,2.79,1.31-1.93.18-7.1.75-5.75.63.53,1.38-3,1.33-2.82,1.29-1.42,3.07-6.19,4.23-6.06-.93,2.3.49,1.7,4.11-4.28,5-3.83-.86,1.63.33,1.16,6.05-2.47,5.16-1.63-1.39,1.36.11,1.15,5.82-.33,4.93.16-1.66.67-.44.85,4.57,1.25,4.46,1.56-1.58-.49-1,.11,4.58,1.78,4.42,2.27-2.31-.16-1.51.36,4.47,2.69,3.85,3.09-2-.72-1.47.13,4.46,3.52,3.48,3.74-2-.56-1.34.24,4.6,4.65,3.76,5.9S155.08,181.67,155.75,183.85Z"/><path class="cls-7" d="M155.42,187a25.17,25.17,0,0,1-.32,4H139.44a2.61,2.61,0,0,1-1.38.4,2.34,2.34,0,0,1-.38,0,2.58,2.58,0,0,1-1-.37H120.29a25.17,25.17,0,0,1-.32-4c0-11.72,7.94-21.22,17.73-21.22S155.42,175.23,155.42,187Z"/><path class="cls-8" d="M141.38,187a4.64,4.64,0,0,1-1.94,4,2.61,2.61,0,0,1-1.38.4,2.34,2.34,0,0,1-.38,0,2.58,2.58,0,0,1-1-.37,4.65,4.65,0,0,1-2-4c0-2.27,1.29-4.13,3-4.39a2.34,2.34,0,0,1,.38,0C139.9,182.53,141.38,184.51,141.38,187Z"/><path class="cls-9" d="M140.62,187a4.65,4.65,0,0,1-2,4,1.52,1.52,0,0,1-2,0,4.65,4.65,0,0,1-2-4c0-2.27,1.29-4.13,3-4.39C139.33,182.82,140.62,184.69,140.62,187Z"/><g class="cls-10"><path class="cls-1" d="M144,169.62s-1.49-2.68-4.15-2.68-4.74,1.18-1.3,2.44S145.68,172.55,144,169.62Z"/></g><path class="cls-8" d="M201.33,266.73s-.08,3.21-2.25,4.12-8.48,1.73-6.12,3.79c1.35,1.19,7.71.42,9.51.42s3.49.78,4.82-.42,0-7.91,0-7.91a7.11,7.11,0,0,1-2.94.77A5.75,5.75,0,0,1,201.33,266.73Z"/><path class="cls-8" d="M238.81,266.83s.9,3.08-.89,4.61-7.54,4.23-4.67,5.48c1.65.71,7.48-2,9.19-2.51s3.56-.32,4.46-1.87c1-1.71-2.42-7.54-2.42-7.54a7.14,7.14,0,0,1-2.57,1.64A5.79,5.79,0,0,1,238.81,266.83Z"/><path class="cls-11" d="M205.76,201.38a1.36,1.36,0,0,1-.54-.12,2.49,2.49,0,0,1-1.21-1.41c-.42-1.12-.14-2.23.64-2.54a1.26,1.26,0,0,1,.95.05,2.49,2.49,0,0,1,1.21,1.41c.42,1.11.14,2.23-.64,2.54A1.14,1.14,0,0,1,205.76,201.38Zm-.7-3.74a.58.58,0,0,0-.26.05c-.56.21-.75,1.14-.42,2a2.07,2.07,0,0,0,1,1.18.8.8,0,0,0,.64,0c.56-.21.75-1.14.42-2h0a2.07,2.07,0,0,0-1-1.18A.92.92,0,0,0,205.06,197.64Z"/><path class="cls-9" d="M190.93,190c.56,6.15,2.25,20.16,3.86,29.85,3.1,18.63,6.76,37.41,8.56,46.41a7,7,0,0,0,6.56,5.7l1.72.07a5.9,5.9,0,0,0,6-6.39l-4-56.43-.32-4.46-.78-14.46c-2.66.85,5.86-3.13,4-1.3l3.91-3.44S197.28,182.81,190.93,190Z"/><path class="cls-9" d="M205.36,190.31l8.27,18.85,24.9,56.8a7.79,7.79,0,0,0,7.85,4.7l1.45-.13a5.52,5.52,0,0,0,4.67-7.14s-19.85-77.73-20.77-80.51a165.51,165.51,0,0,0-18.47,4.3C210.59,188,207.18,188.49,205.36,190.31Z"/><path class="cls-12" d="M216.83,138.3s-5.67-8.3-18.37-5.46c-14,3.12-14.92,10.71-13.26,25.28,1.05,9.23,4.2,26.49,6.55,39.55,0,0,12.3-14.92,35.75-28.76C227.5,168.91,222.14,146,216.83,138.3Z"/><path class="cls-12" d="M227.08,167.19s-2.34,3-8.77,0c-7.62-3.56-22.87-11.24-29.09-10.76s-10.8-6.22-10.8-6.22S182.63,139,193,134.54c1-.41,2-.79,3.08-1.13a48.37,48.37,0,0,1,5.5-1.23C224.09,128.11,227.08,167.19,227.08,167.19Z"/><path class="cls-13" d="M199.38,134.05c.3-1.34-.74-1.06-1.46-2l-2.23-3-.65-.87L191.21,123l1.79,5.83,1.07,3.5.34,1.11c.23.75.07.92-.26,1.76-.13.34-.59,1.69.68,1.81S199,135.76,199.38,134.05Z"/><path class="cls-8" d="M196.49,127.24s4.9-4,2.51-7.92-3.72,5.68-3.72,5.68l.58,2.27Z"/><path class="cls-8" d="M195.67,128.91s0,.07,0,.1c.29,2-1.6,3.32-1.6,3.32h0l-1.07-3.5a3.19,3.19,0,0,1,2-.68A.85.85,0,0,1,195.67,128.91Z"/><ellipse class="cls-13" cx="191.36" cy="124.66" rx="5.37" ry="6.47" transform="translate(-22.89 45.56) rotate(-12.82)"/><path class="cls-8" d="M195.66,122.91a2.47,2.47,0,0,1-2.7,0c-1.16-1-2-1.88-4.81-.71s-5.79.35-6.24-1.23,1-2.66,2.66-2.47-.3-.88,1-2.41,4.24.35,5.8-.35,7-1,7.62,3.61Z"/><path class="cls-13" d="M196.74,123.9a1,1,0,1,1-.12-1.56A1.12,1.12,0,0,1,196.74,123.9Z"/><path class="cls-2" d="M185.09,120.56a1.2,1.2,0,0,1-.38,0c-.57-.19-.71-.49-.66-.7a.68.68,0,0,1,.7-.41l.21,0a2.31,2.31,0,0,0,1.33-.11l0,.06a2.21,2.21,0,0,1-1.37.12c-.45-.08-.77.11-.83.33s.09.45.61.62a1.36,1.36,0,0,0,.36,0,6.07,6.07,0,0,0,2.69-1.23l.05,0A5.94,5.94,0,0,1,185.09,120.56Z"/><path class="cls-2" d="M190.26,117.09a4.52,4.52,0,0,1-2.38-.72l.06,0,0,0,0,0a4.28,4.28,0,0,0,3.17.56,12.54,12.54,0,0,0,1.32-.51,3.48,3.48,0,0,1,2.31-.47l0,.07a3.44,3.44,0,0,0-2.26.47,12.74,12.74,0,0,1-1.33.51A2.91,2.91,0,0,1,190.26,117.09Z"/><path class="cls-2" d="M197.65,118.92c-.24,0-.76-.47-.89-.77s0-.23.05-.26c.39-.2.94.71,1,.75h0c0,.19,0,.25-.09.27Zm-.72-1a.11.11,0,0,0-.08,0s-.07,0,0,.16a1.55,1.55,0,0,0,.81.73h0c.05,0,.05-.11,0-.18C197.57,118.44,197.2,117.94,196.93,117.94Z"/><path class="cls-14" d="M190.32,124.76a.16.16,0,0,1-.08-.06.12.12,0,0,1,0-.15,1.2,1.2,0,0,1,1.43.24.11.11,0,0,1,0,.15.12.12,0,0,1-.15,0,1.91,1.91,0,0,0-1.18-.19Z"/><path class="cls-14" d="M191.25,125.9a.43.43,0,0,1-.3.5c-.19,0-.36-.18-.38-.44a.42.42,0,0,1,.29-.5C191.05,125.45,191.22,125.64,191.25,125.9Z"/><path class="cls-14" d="M186.43,125.85a.09.09,0,0,1-.07,0,.12.12,0,0,1,0-.15.76.76,0,0,1,1.09-.27.12.12,0,0,1,0,.14.07.07,0,0,1-.1.06,1.13,1.13,0,0,0-.9.22S186.45,125.85,186.43,125.85Z"/><path class="cls-14" d="M187.75,126.55a.36.36,0,1,1-.52-.26C187.4,126.2,187.63,126.32,187.75,126.55Z"/><path class="cls-15" d="M190.89,129.5a3.32,3.32,0,0,1-.88-.12.09.09,0,0,1,0-.1.08.08,0,0,1,.1-.05,2.45,2.45,0,0,0,2.78-.88.08.08,0,0,1,.11,0,.08.08,0,0,1,0,.1A2.38,2.38,0,0,1,190.89,129.5Z"/><path class="cls-15" d="M193.11,128.71a.07.07,0,0,1-.07-.06.91.91,0,0,0-.4-.46h0a.08.08,0,0,1,0-.11.08.08,0,0,1,.11,0,1,1,0,0,1,.48.56.08.08,0,0,1-.06.09Z"/><path class="cls-2" d="M187,130.17a1.84,1.84,0,0,1-.33,0,3.41,3.41,0,0,1-2.11-2c-.85-1.74-.75-3.82.23-4.65a1.45,1.45,0,0,1,1.28-.33,3.41,3.41,0,0,1,2.11,2h0c.85,1.74.75,3.82-.23,4.65A1.43,1.43,0,0,1,187,130.17Zm-1.25-6.78a1.22,1.22,0,0,0-.81.31c-.91.77-1,2.73-.18,4.37a3.17,3.17,0,0,0,1.95,1.84,1.22,1.22,0,0,0,1.09-.27c.91-.77,1-2.73.18-4.37h0a3.14,3.14,0,0,0-1.95-1.84A1,1,0,0,0,185.74,123.39Z"/><g class="cls-16"><ellipse class="cls-2" cx="191.79" cy="124.47" rx="2.31" ry="3.4" transform="translate(-17.61 32.66) rotate(-9.31)"/></g><g class="cls-16"><path class="cls-2" d="M188.24,125.3c.67,1.72.42,3.73-.56,4.48s-2.31,0-3-1.73-.42-3.72.56-4.48S187.57,123.59,188.24,125.3Z"/></g><path class="cls-2" d="M191.92,127.93a2.06,2.06,0,0,1-.59-.09,3.36,3.36,0,0,1-2-2.08c-.72-1.82-.31-4,.91-4.79a1.88,1.88,0,0,1,1.63-.23,3.36,3.36,0,0,1,2,2.08c.72,1.82.31,4-.91,4.79A1.9,1.9,0,0,1,191.92,127.93Zm-.6-7.05a1.65,1.65,0,0,0-.92.28c-1.14.76-1.51,2.79-.82,4.52a3.17,3.17,0,0,0,1.82,1.94,1.61,1.61,0,0,0,1.43-.2c1.15-.76,1.52-2.79.83-4.52a3.17,3.17,0,0,0-1.82-1.94A1.57,1.57,0,0,0,191.32,120.88Z"/><path class="cls-2" d="M188.07,126a.24.24,0,0,1-.14,0,.22.22,0,0,1,0-.3,2.42,2.42,0,0,1,1.79-.63.21.21,0,0,1,.2.22.2.2,0,0,1-.22.2,1.9,1.9,0,0,0-1.45.49A.2.2,0,0,1,188.07,126Z"/><path class="cls-8" d="M199.05,119.36l-.09-.08a1.29,1.29,0,0,0,.12-1.54l.1-.06A1.4,1.4,0,0,1,199.05,119.36Z"/><path class="cls-8" d="M200.07,120.33a2.34,2.34,0,0,0-1.09-.44h-.11v-.11H199a2.44,2.44,0,0,1,1.17.47Z"/><ellipse class="cls-8" cx="214.93" cy="146.53" rx="2.75" ry="7.51" transform="translate(-40.38 196.33) rotate(-45.32)"/><path class="cls-9" d="M192.11,200.69s-8-36.91-8.06-40.83-1.48-9.53,8.06-11.3,12.74-2.64,14.48,1.79,5.68,14.13,13.28,14.09,9.18,5.15,9.18,5.15l6.68,28.49Z"/><path class="cls-15" d="M213.44,209.23l-2.39-5.74c-1.52-3.61-2.52-5.35-5.77-6.89l.17-.37c3.37,1.59,4.45,3.47,6,7.1l2.39,5.74Z"/><path class="cls-9" d="M190.91,134.82s-3.63,12.08-3.47,17l3-.54s2.2-14.26,2.61-16.72C193,134.54,191.2,133.81,190.91,134.82Z"/><path class="cls-9" d="M200.3,148.7c-.06-.33-1.61-10.46.55-16.28a2,2,0,0,1,2.06-.53s-2.51,12-.27,16.81H200.3Z"/><path class="cls-8" d="M189.92,152.16s.93-.85.59-1.52a1.11,1.11,0,0,0-1.46-.61c-.54.22-.6,1.12-.42,1.56S189.6,152.53,189.92,152.16Z"/><path class="cls-8" d="M202.42,149.24s-.45-.92-1.11-1.1a.94.94,0,0,0-1.14,1.1,1,1,0,0,0,1.14,1C202,150.17,202.56,149.8,202.42,149.24Z"/><path class="cls-12" d="M85.06,209.58l1.25,11.09a2.18,2.18,0,0,0,2.15,2h34a2.18,2.18,0,0,0,2.16-2.07l.68-11.52a2.19,2.19,0,0,0-2.19-2.33l-35.95.43A2.18,2.18,0,0,0,85.06,209.58Z"/><path class="cls-8" d="M98.06,205.24l-1.85-.53,1-3.41a3.76,3.76,0,0,1,3.59-2.73h9.12a3.75,3.75,0,0,1,3.7,3.27l.4,3-1.91.25-.4-3a1.83,1.83,0,0,0-1.79-1.61h-9.12A1.82,1.82,0,0,0,99,201.82Z"/><path class="cls-17" d="M82.55,206.27v1.35a2.1,2.1,0,0,0,2.06,2.11l40.31.52a2.1,2.1,0,0,0,2.12-2.12v-1.42a2.1,2.1,0,0,0-2.07-2.12l-40.31-.44A2.11,2.11,0,0,0,82.55,206.27Z"/><path class="cls-8" d="M195.79,194.1H51.41A3.13,3.13,0,0,1,48.28,191h0a3.13,3.13,0,0,1,3.13-3.12H195.79a3.12,3.12,0,0,1,3.12,3.12h0A3.13,3.13,0,0,1,195.79,194.1Z"/><path class="cls-8" d="M62,281.18h0a1.09,1.09,0,0,1-1.08-1.05l-2.08-88A1.08,1.08,0,0,1,59.89,191H62a1.08,1.08,0,0,1,1.08,1.08V280.1A1.08,1.08,0,0,1,62,281.18Z"/><path class="cls-8" d="M179.88,281.18h0a1.08,1.08,0,0,0,1.08-1.05l2.09-88A1.09,1.09,0,0,0,182,191h-2.09a1.08,1.08,0,0,0-1.08,1.08V280.1A1.08,1.08,0,0,0,179.88,281.18Z"/><rect class="cls-9" x="73.77" y="172.45" width="7.92" height="15.4" rx="2.37"/><rect class="cls-18" x="79.54" y="172.45" width="15.4" height="15.4" rx="3.3"/><circle class="cls-19" cx="93.94" cy="164.95" r="14.55"/><polygon class="cls-19" points="88.32 150.4 93.94 150.4 93.94 179.5 88.51 179.5 88.32 150.98 88.32 150.4"/><circle class="cls-7" cx="88.32" cy="164.95" r="14.55" transform="translate(-88.65 225.71) rotate(-80.78)"/><ellipse class="cls-9" cx="87.24" cy="164.95" rx="14.84" ry="14.55"/><polygon class="cls-9" points="81.51 150.41 87.24 150.41 87.24 179.5 81.71 179.5 81.51 150.99 81.51 150.41"/><circle class="cls-19" cx="75.93" cy="164.96" r="18.43"/><polygon class="cls-19" points="68.81 146.53 75.93 146.53 75.93 183.38 69.06 183.38 68.81 147.26 68.81 146.53"/><circle class="cls-7" cx="68.81" cy="164.96" r="18.43" transform="translate(-107.54 194.03) rotate(-76.72)"/><circle class="cls-9" cx="68.96" cy="164.96" r="4.43"/><polygon class="cls-9" points="67.25 160.52 68.96 160.52 68.96 169.39 67.3 169.39 67.25 160.7 67.25 160.52"/><circle class="cls-19" cx="67.24" cy="164.96" r="4.43"/><g class="cls-10"><path class="cls-1" d="M80.18,153.58s-3.1-3.89-7.23-5.1-7.6,1.42-6.65,2.55,7.12,2.31,10,5.4S81.85,156.67,80.18,153.58Z"/></g><rect class="cls-19" x="66.78" y="185.92" width="30.91" height="1.93"/><rect class="cls-18" x="76.68" y="185.92" width="30.91" height="1.93"/><path class="cls-13" d="M177.76,174.76l2.53,9c19.48-10,34.38-26.17,37.62-30.27a2.36,2.36,0,0,0,.42-2.13,11.28,11.28,0,0,0-2.52-4.53,27,27,0,0,0-3.53-3.3,1.4,1.4,0,0,0-1.94.23C206.84,148.1,194.57,166.11,177.76,174.76Z"/><rect class="cls-13" x="172.9" y="180.39" width="2.12" height="7.74" rx="0.98" transform="translate(125.81 433.04) rotate(-125.69)"/><rect class="cls-13" x="170.98" y="178.01" width="2.12" height="8.58" rx="0.98" transform="translate(124.28 428.37) rotate(-125.67)"/><rect class="cls-13" x="172.73" y="170.9" width="2.94" height="10.34" rx="1.36" transform="matrix(0.05, -1, 1, 0.05, -10.22, 341.41)"/><rect class="cls-13" x="169.71" y="175.97" width="2.12" height="7.81" rx="0.98" transform="translate(124.22 423.49) rotate(-125.67)"/><path class="cls-13" d="M182.35,180.49s-2.45,5.53-6.61,6.58c-1.45.37-7.48-5-6.69-6.49s7.11-5.44,7.11-5.44Z"/><rect class="cls-13" x="175.18" y="182.93" width="2.11" height="6" rx="0.98" transform="matrix(-0.58, -0.81, 0.81, -0.58, 127.94, 437.52)"/><path class="cls-5" d="M149.1,166.42a108.26,108.26,0,0,0-1.63,13.68l11.72,3.83-6-14.11Z"/><path class="cls-12" d="M169.59,281.68H141.51a2.44,2.44,0,0,1-2.43-2.21l-2.24-23.4a2.44,2.44,0,0,1,2.43-2.67h32.25A2.44,2.44,0,0,1,174,256L172,279.43A2.44,2.44,0,0,1,169.59,281.68Z"/><path class="cls-1" d="M162.24,259.22H148.55a1.38,1.38,0,0,1-1.37-1.37h0a1.38,1.38,0,0,1,1.37-1.37h13.69a1.37,1.37,0,0,1,1.36,1.37h0A1.37,1.37,0,0,1,162.24,259.22Z"/><path class="cls-12" d="M223.9,79.46c0,1-7.39,1.79-16.51,1.79s-16.48,1.42-16.48.44c0-7.06,7.36-13.69,16.48-13.69S223.9,73.13,223.9,79.46Z"/><path class="cls-20" d="M223.87,79.56c0,.69-3.52,1.52-8.78,2.16l-.93.11c-2,.23-4.29.43-6.66.58-2,.13-3.95.21-5.74.26l-1.88,0c-5.29,0-8.93-.32-9-1s2.61-1.3,6.72-1.89l1-.14c1.74-.23,3.7-.44,5.8-.61q1.38-.12,2.85-.21l2-.12c2.78-.14,5.35-.19,7.53-.17H217C221.11,78.61,223.83,79,223.87,79.56Z"/><path class="cls-2" d="M216.81,78.55a10.64,10.64,0,0,1-1.81,2.5,10.59,10.59,0,0,1-7.62,3.23,10.6,10.6,0,0,1-5.62-1.61,10.8,10.8,0,0,1-2-1.63,10.13,10.13,0,0,1-1.13-1.38c1.74-.23,3.7-.44,5.8-.61q1.38-.12,2.85-.21l2-.12C212.06,78.58,214.63,78.53,216.81,78.55Z"/><path class="cls-12" d="M207.39,69.18h0a.71.71,0,0,1-.71-.71V56.78a.71.71,0,0,1,.71-.71h0a.71.71,0,0,1,.71.71V68.47A.71.71,0,0,1,207.39,69.18Z"/><ellipse class="cls-12" cx="207.39" cy="68.31" rx="2.06" ry="2.08"/><g class="cls-21"><path class="cls-19" d="M264.66,103.76a13.4,13.4,0,0,0-13.08-12.4c-9.53,0-12.65,7.3-13,14-.39,7,5.76,11.75,12.49,11.75S265,112.11,264.66,103.76Z"/><path class="cls-22" d="M262.29,104.46c0-5.35-5.34-11-10.69-11.22-7.91-.25-11.12,7.78-11.12,13.13s5.53,8.54,10.88,8.54S262.29,109.81,262.29,104.46Z"/><path class="cls-19" d="M252.75,104.28a1.53,1.53,0,0,0-1.58-1.21,1.77,1.77,0,0,0-1.52,1.61,1.51,1.51,0,0,0,1.52,1.34A1.46,1.46,0,0,0,252.75,104.28Z"/><path class="cls-19" d="M251.17,105h-.27a.26.26,0,0,1-.26-.26c0-.15-.34-.64-.19-.64l.15-.31.32-7.23-.33.2a.27.27,0,0,1-.44-.3l.81-1.17a.28.28,0,0,1,.3-.11.27.27,0,0,1,.18.26l.44,9.28C251.88,104.81,251.31,105,251.17,105Z"/><path class="cls-19" d="M252.08,96.75a.26.26,0,0,1-.21-.1l-1-.71a1,1,0,0,1,.14-.76.28.28,0,0,1,.38,0l.89,1.1a.26.26,0,0,1,0,.37A.23.23,0,0,1,252.08,96.75Z"/><path class="cls-19" d="M246.39,105.81a.27.27,0,0,1-.19-.08l-.79-.82a.26.26,0,0,1,.19-.44h0l6.23-.33c.14,0,.23.46.23.61V105a.27.27,0,0,1-.27.27c-.14,0-.47.13-.47,0l.21-.25h-5.3l.35.36a.26.26,0,0,1,0,.37A.27.27,0,0,1,246.39,105.81Z"/><path class="cls-19" d="M245.6,105a.27.27,0,0,1-.16-.06.27.27,0,0,1,0-.38l.73-.89a.26.26,0,1,1,.41.33l-.29.67A2.34,2.34,0,0,1,245.6,105Z"/></g><path class="cls-23" d="M168.13,134.29H64.75a2.3,2.3,0,0,1-2.25-2.19L58.44,76.76a2.33,2.33,0,0,1,2.25-2.57H168.13a2.32,2.32,0,0,1,2.25,2.38v55.34A2.32,2.32,0,0,1,168.13,134.29Z"/><path class="cls-5" d="M63.26,91c16.53-1.41,33,1,49.54.18,15.76-.81,31.27-.14,47.05.47.6,0,.6-.91,0-.93-15.76-.62-31.3-1.33-47-.48-16.54.89-33-1.59-49.54-.18-.59,0-.6,1,0,.94Z"/><path class="cls-5" d="M114.44,79c-.91-.1-4.25-.28-4.2,1.26.06,1.7,3.12,1.84,4.24,1.88.91,0,3.93.23,3.4-1.53s-3.19-1.88-4.55-1.82c-.6,0-.61,1,0,.93a4.53,4.53,0,0,1,2.79.49c.51.09.55.4.11.94l-.5,0a6.27,6.27,0,0,1-1.5,0c-.21,0-2.91-.22-2.88-.77.05-.8,2.59-.55,3.09-.49s.6-.88,0-.94Z"/><path class="cls-5" d="M114.08,76.9a51.58,51.58,0,0,0-6.46.33,4,4,0,0,0-3.22,2.1c-1.54,3.5,3.45,3.82,5.42,4.6.56.22.81-.69.25-.9a29.82,29.82,0,0,0-3-.75l-.86-.31c-.82-.28-1-.84-.65-1.69.08-1.35.3-1.67,1.66-2,2.12-.56,4.64-.33,6.82-.42.6,0,.6-1,0-.93Z"/><path class="cls-5" d="M65.43,106.66c16-2.78,32.52.5,48.71-.33a136.73,136.73,0,0,1,19.83-.09c8.92.83,18.38.29,27.17,1.5.59.08.84-.82.25-.91-7.82-1.07-15.63-.17-23.52-1a149.24,149.24,0,0,0-23.73-.43c-16.29.84-32.83-2.43-49,.37-.59.1-.34,1,.25.9Z"/><path class="cls-5" d="M67.54,122.8c7.95-1,15.53-.22,23.47.32s15.38-.61,23.15-.53c14.75.14,29.35.45,44.12,0a.47.47,0,0,0,0-.93c-14.77.42-29.37.22-44.12,0-7.79-.12-15.32,1-23.15.53s-15.5-1.33-23.47-.31c-.59.08-.6,1,0,.93Z"/><path class="cls-5" d="M96.92,109.81a9.26,9.26,0,0,0-3.52,0c-.78.15-2.43.52-3,1.22-1,1.28,1.21,1.76,2.06,1.86,1.66.18,5.88.54,7-1.16s-2.55-2.06-3.48-2.12c-.6,0-.6.89,0,.93.32,0,2.26.07,2.4.39.3.66-.94.79-1.42.9a12.7,12.7,0,0,1-3.64.19,5.84,5.84,0,0,1-1.62-.18c-1-.38.15-.62.82-.85a8,8,0,0,1,4.08-.25c.59.11.85-.79.25-.9Z"/><path class="cls-5" d="M153.25,114.84c-1.72-.21-7.33-.45-8.21,1.78-.58,1.51,2.27,2,3.17,2.15a19,19,0,0,0,4.77.16c1.48-.09,4.49-.2,5.63-1.19.87-.76.81-1.2-.36-1.79-.28-.13-.52.28-.24.42.72.36-1.18,1.44-1.33,1.51a9.2,9.2,0,0,1-2.75.49,21.76,21.76,0,0,1-4.27.08c-1.35-.12-2.06-.11-2.89-1.24-1-1.4.13-1.31,1.47-1.65a13,13,0,0,1,5-.24c.31,0,.3-.44,0-.48Z"/><path class="cls-5" d="M82.07,125.85c-1.72-.22-7.34-.46-8.21,1.78-.58,1.5,2.27,2,3.16,2.15a19.6,19.6,0,0,0,4.78.16c1.48-.1,4.49-.2,5.63-1.19.87-.76.81-1.2-.36-1.79-.28-.14-.52.28-.24.42.72.36-1.18,1.44-1.33,1.51a9.52,9.52,0,0,1-2.75.49,22.56,22.56,0,0,1-4.27.08c-1.35-.12-2.06-.11-2.89-1.24-1-1.41.13-1.31,1.47-1.66a13.2,13.2,0,0,1,5-.23c.3,0,.3-.45,0-.48Z"/><path class="cls-5" d="M109,110.23a5.41,5.41,0,0,1,1.08.53,1.77,1.77,0,0,1,1,1.44,1.29,1.29,0,0,1-.57,1.46,3.84,3.84,0,0,1-1.4.8c-.56.19-.32,1.1.25.9,1.26-.43,3-1.6,3-3.12s-1.9-2.48-3.06-2.92c-.56-.21-.81.69-.25.91Z"/><path class="cls-5" d="M98.3,76.64c-3.94.29-7.9-.38-11.83.06-1.08.12-4.46.43-5,1.89C80.21,82.46,91.92,82,93.7,81.81c.51,0,.51-.84,0-.8a27.26,27.26,0,0,1-6.93-.17c-.74-.12-2.29-.15-2.81-.64q-1.26-.08,0-1.26a1.3,1.3,0,0,1,1.57-1.31c1.65-.64,4.14-.28,5.88-.22a60.91,60.91,0,0,0,6.89,0c.51,0,.51-.83,0-.8Z"/><path class="cls-5" d="M150.23,79.3c3.39.26,8.09-.17,11.15,1.46l1.24.9c1.53,1.73,1.49,3-.14,3.81-1.23,1-2.2,1-3.72,1.16a52.47,52.47,0,0,1-6.27,0c-.6,0-.6.9,0,.93,3.08.15,13.06,1.42,12-4.39-1-5.45-10.41-4.55-14.26-4.84-.61-.05-.6.89,0,.93Z"/><path class="cls-5" d="M116.09,98.5a54.77,54.77,0,0,1,5.73-.06c.67,0,4.26-.23,1.71,1.76-.44.34-2.28,0-2.8,0a29.07,29.07,0,0,0-4.47.26,16.14,16.14,0,0,1-2.09.27l-1.12-1.52c.09-.24,2.8-.38,3-.41.6-.08.35-1-.24-.9-1.29.17-5.66.08-4.32,2.53a3.18,3.18,0,0,0,2.66,1.24c2.35.1,4.73-.56,7.12-.52,1,0,7,.56,5.71-2.4-.31-.72-1.11-.75-1.75-.93-2.77-.76-6.33-.37-9.16-.21-.6,0-.6,1,0,.94Z"/><path class="cls-5" d="M124,96.84c1.64.12,4.35-.29,5.82.39l1,.24.91,4.3c-.29.59-3.45.51-4,.56a91.78,91.78,0,0,1-10.09.12.42.42,0,0,0,0,.84,76.86,76.86,0,0,0,11.85-.3c1.5-.2,4.35-.23,5-2.09,1.61-5-8.18-4.74-10.44-4.91-.54,0-.54.81,0,.85Z"/><path class="cls-19" d="M168.13,135.14H64.75a3.18,3.18,0,0,1-3.1-3l-4-55.34a3.28,3.28,0,0,1,.86-2.49,3,3,0,0,1,2.23-1H168.13a3.16,3.16,0,0,1,3.1,3.22v55.34A3.17,3.17,0,0,1,168.13,135.14ZM60.69,75a1.32,1.32,0,0,0-1,.45,1.61,1.61,0,0,0-.42,1.21L63.34,132a1.46,1.46,0,0,0,1.41,1.41H168.13a1.48,1.48,0,0,0,1.41-1.54V76.57A1.48,1.48,0,0,0,168.13,75Z"/><path class="cls-24" d="M155.08,98.18l-5.66,8.55-5.2-3.44-10-6.6-8.37-5.54-8.72-5.76a.77.77,0,0,1,.11-1.34L122,81.92a4,4,0,0,1,3.43.06l.16.08,8.26,4.52,9.58,5.24h0Z"/><path class="cls-25" d="M125.88,91.15l-8.72-5.76a.77.77,0,0,1,.11-1.34L122,81.92a4,4,0,0,1,3.43.06C125.55,84.28,125.72,88,125.88,91.15Z"/><polygon class="cls-25" points="144.22 103.29 134.25 96.69 133.88 86.58 143.46 91.82 143.46 91.82 144.22 103.29"/><path class="cls-26" d="M123.12,83.21a.66.66,0,1,1,.19.91A.65.65,0,0,1,123.12,83.21Z"/><rect class="cls-8" x="151.75" y="104.56" width="12.83" height="2.76" transform="translate(-4.36 205.06) rotate(-65.19)"/><path class="cls-12" d="M156.27,113.67l-7.14-4.73a1.15,1.15,0,0,1-.41-1.43l5.16-11.41a1.15,1.15,0,0,1,1.68-.48l8.8,5.82a1.15,1.15,0,0,1,.32,1.59h0a1.15,1.15,0,0,1-1.59.33L156.54,99a1.15,1.15,0,0,0-1.68.49l-3.24,7.17a1.15,1.15,0,0,0,.41,1.43l5.51,3.64a1.14,1.14,0,0,1,.32,1.59h0A1.15,1.15,0,0,1,156.27,113.67Z"/><path class="cls-24" d="M93.87,115.76l-4,6-3.67-2.43-7.06-4.67-5.93-3.92L67,106.7a.54.54,0,0,1,.08-.94l3.37-1.51a2.87,2.87,0,0,1,2.43,0l.11.06,5.84,3.2,6.79,3.71h0Z"/><path class="cls-25" d="M73.2,110.79,67,106.7a.54.54,0,0,1,.08-.94l3.37-1.51a2.87,2.87,0,0,1,2.43,0C73,105.92,73.09,108.55,73.2,110.79Z"/><polygon class="cls-25" points="86.19 119.38 79.13 114.71 78.86 107.55 85.65 111.26 85.65 111.26 86.19 119.38"/><path class="cls-26" d="M71.25,105.16a.47.47,0,1,1,.13.65A.48.48,0,0,1,71.25,105.16Z"/><rect class="cls-8" x="91.52" y="120.27" width="9.08" height="1.95" transform="translate(-54.31 157.57) rotate(-65.19)"/><path class="cls-12" d="M94.71,126.72l-5-3.34a.83.83,0,0,1-.29-1L93,114.29a.81.81,0,0,1,1.19-.34l6.23,4.12a.81.81,0,0,1,.23,1.12h0a.81.81,0,0,1-1.13.23l-4.64-3.06a.81.81,0,0,0-1.19.34l-2.29,5.07a.83.83,0,0,0,.29,1l3.9,2.57a.81.81,0,0,1,.23,1.13h0A.82.82,0,0,1,94.71,126.72Z"/><path class="cls-9" d="M72.78,93.1l-5.14-7.94a3,3,0,0,1-2.76-1.74c-.9-1.87.6-1.51,1.35-.88A1,1,0,0,0,68,82c.07-.77-.53-2.11.5-2.13s2.11,2.25,1,4.07l5,7.74s4.33-.55,4.34,3.28c0,0-.83,1.15-1.38.12S76,92.82,74.7,93.79s-1.27,1.36-.85,2.12,1.5,1.37.82,1.87-1.4.38-2-.73S71.81,93.82,72.78,93.1Z"/><path class="cls-9" d="M82.46,93.69,77.89,87.4a2.46,2.46,0,0,1-2.35-1.3c-.83-1.5.43-1.26,1.07-.78A.85.85,0,0,0,78,84.8c0-.64-.53-1.71.31-1.77s1.83,1.75,1,3.3l4.47,6.13s3.53-.65,3.71,2.49c0,0-.63,1-1.12.17s-1.31-1.8-2.3-1-1,1.17-.6,1.78,1.29,1.06.76,1.5-1.13.38-1.72-.51S81.7,94.33,82.46,93.69Z"/><path class="cls-9" d="M92.93,93.45l-4.85-5.39a2.29,2.29,0,0,1-2.3-1c-.91-1.31.27-1.21.91-.83s1.32,0,1.28-.61-.66-1.54.12-1.68,1.87,1.45,1.21,3L94,92.18s3.21-.94,3.69,1.95c0,0-.5,1-1,.27s-1.39-1.54-2.23-.66-.79,1.18-.38,1.71,1.3.86.85,1.31-1,.46-1.64-.3S92.29,94.11,92.93,93.45Z"/><path class="cls-9" d="M103.18,94,99,89.37a2,2,0,0,1-2-.85c-.78-1.13.23-1,.78-.7s1.12,0,1.08-.52-.56-1.32.1-1.43,1.6,1.25,1,2.55l4.08,4.52s2.73-.78,3.16,1.7c0,0-.41.83-.88.22s-1.2-1.33-1.9-.58-.67,1-.32,1.46,1.12.74.74,1.13-.87.38-1.4-.28S102.63,94.58,103.18,94Z"/><path class="cls-9" d="M111.9,94.28l-3.55-3.93a1.66,1.66,0,0,1-1.67-.73c-.67-1,.19-.87.66-.59s1,0,.92-.44-.48-1.12.08-1.21,1.35,1.06.89,2.16l3.45,3.83s2.32-.66,2.68,1.44c0,0-.35.7-.74.19s-1-1.13-1.61-.5-.57.86-.27,1.24,1,.63.62,1-.73.33-1.18-.23S111.43,94.76,111.9,94.28Z"/><path class="cls-14" d="M110.18,119.71h0a.33.33,0,0,1-.45-.1l-6.8-10.89a.33.33,0,0,1,.1-.45h0a.34.34,0,0,1,.45.11l6.81,10.88A.34.34,0,0,1,110.18,119.71Z"/><rect class="cls-12" x="110.81" y="115.85" width="3.63" height="15.52" rx="1.68" transform="translate(-48.41 78.53) rotate(-32.02)"/><path class="cls-8" d="M151.94,83h0a.19.19,0,0,1-.17.21l-7.53.7a.19.19,0,0,1-.21-.17h0a.19.19,0,0,1,.17-.21l7.53-.7A.19.19,0,0,1,151.94,83Z"/><rect class="cls-12" x="153.58" y="78.22" width="2.14" height="9.15" rx="0.99" transform="translate(86.45 244.41) rotate(-95.29)"/><path class="cls-8" d="M139.05,83.76c.11,0,7.73-1,7.73-1l1.5.62-1.36,1-7.87.61Z"/><path class="cls-14" d="M129.76,119.71h0a.33.33,0,0,1-.45-.1l-6.8-10.89a.33.33,0,0,1,.1-.45h0a.34.34,0,0,1,.45.11l6.8,10.88A.33.33,0,0,1,129.76,119.71Z"/><rect class="cls-12" x="130.39" y="115.85" width="3.63" height="15.52" rx="1.68" transform="matrix(0.85, -0.53, 0.53, 0.85, -45.42, 88.87)"/><path class="cls-14" d="M120.23,108.5l2.72,3.38a.36.36,0,0,0,.26.12l2,1c.14,0,1.26.5.54-.36l-.34-2.09a.33.33,0,0,0-.05-.29L122.88,107a.34.34,0,0,0-.42-.1L120.33,108A.33.33,0,0,0,120.23,108.5Z"/><path class="cls-8" d="M137.5,109.22s-3.09,1.85-3,2.47-1.5.62-1.5,1.18.75,1.59,1.31,1.54.71-1.17,1.27-1.07,1.77-1.36,2.34-1.52,2.52-1.24,4.58-.68l.42-.56S140,108.61,137.5,109.22Z"/><polygon class="cls-8" points="136.38 111.76 145.61 124.84 146.48 123.85 137.13 110.91 136.38 111.76"/><rect class="cls-12" x="144.1" y="117.82" width="2.12" height="10.26" rx="0.98" transform="translate(-44.76 112.14) rotate(-37.01)"/><path class="cls-14" d="M117.4,116.81h0a.23.23,0,0,1-.32-.07l-4.93-7.88a.24.24,0,0,1,.08-.32h0a.23.23,0,0,1,.32.07l4.93,7.88A.24.24,0,0,1,117.4,116.81Z"/><rect class="cls-12" x="117.85" y="114.02" width="2.63" height="11.23" rx="1.22" transform="translate(-45.28 81.29) rotate(-31.99)"/><polygon class="cls-27" points="284.55 271.81 265.85 273.85 251.6 162.32 270.31 160.28 284.55 271.81"/><polygon class="cls-28" points="281.8 272.1 263.09 274.14 248.85 162.61 267.55 160.57 281.8 272.1"/><path class="cls-6" d="M255,177.88c-.56-3.2-1.32-5.83.58-8.88a19.43,19.43,0,0,1,3.15-3.19c2.65-.6,3.84,1.58,4.14,3.7a27.2,27.2,0,0,1-.35,6.55c-.08.78.17,2.29-.19,3l-5.8,3.34a6.41,6.41,0,0,1-1.39-4.42c0-.53-.86-.53-.83,0,.21,3.25,1.86,7.24,5.89,6a4.26,4.26,0,0,0,2.87-3.72,56.68,56.68,0,0,0,.75-9.19c0-2.46-1.23-8.22-4.83-6.55-1.1.52-2.1,2-2.94,2.85s-2.46,2-2.87,3.17c-.71,2,.68,5.57,1,7.58.09.52.89.3.79-.22Z"/><path class="cls-6" d="M256.49,171.84a12.72,12.72,0,0,0,.09,3.43,5,5,0,0,0,.66,2.5c.85,1,2.32.19,2.56-.89a8.89,8.89,0,0,0-.27-3c-.11-.77-.09-1.86-.68-2.46s-2.16-.33-2,.77c.07.52.87.3.79-.22.48-.1.74,0,.79.4a1.46,1.46,0,0,1,.12.51c.08.4.12.81.18,1.22s.11.81.17,1.22a4.93,4.93,0,0,1,.11.94c.09.57-.36.77-1.32.61-.34-.36-.35-1.93-.4-2.39a11.19,11.19,0,0,1,0-2.65c.06-.53-.76-.52-.83,0Z"/><path class="cls-6" d="M253.65,185.18c1.2,1.71,1.95,3.94,4.1,4.68,1.87.65,3.92-.19,5.57-1.08a4.72,4.72,0,0,0,2.87-3.48c.53-2.44,1.83-4.49,1.24-7-.12-.51-.92-.29-.8.22.44,1.87-.36,3.07-.88,4.81s-.2,3-2.18,4.41a9.41,9.41,0,0,1-1.47.78c-1.24.56-3.43,1-4.68.34-1.44-.8-2.15-2.76-3.06-4-.3-.43-1,0-.71.41Z"/><path class="cls-6" d="M259,218.68c.64-4.74-1.28-9-1.07-13.73l.72-4.52q0-4.94,4.69-.59,7.14.74,4.33,8.31a29.6,29.6,0,0,0-.61,3.09,21,21,0,0,0,.74,8.24c.38,1.52,2.6,5.74,2,6.94L261,229.7a24.81,24.81,0,0,1-1.51-7.38c0-.53-.86-.53-.82,0,.34,4.36,2.91,16.76,10,11.4,1.9-1.43,2.23-3.42,2.22-5.65,0-3-1.61-5.9-2.25-8.8-1-4.57-.05-8.52.19-13,.19-3.64-2.44-15.4-8.64-11.38-6.36,4.12-1.25,18.46-2,23.76-.07.53.75.52.82,0Z"/><path class="cls-6" d="M260.41,205.13c-.72,2.67,1.07,4.71,1.13,7.39.06,2.94-.21,5.43.69,8.32.42,1.33,1.52,4.52,2.79,2.15s.3-7.46.09-10.11c-.16-2.15-.12-5.53-1.37-7.36-1-1.4-3.4-1.78-3.1.46.07.52.86.3.79-.22,1.44,0,2.16.7,2.17,2l.27,1.29a44.11,44.11,0,0,1,.51,5.13c.09,1.45.2,2.9.18,4.35s.51,6.1-1.11,3.17c-1.41-2.54-1.27-5.89-1.13-8.67.12-2.58-1.79-5.21-1.11-7.69a.42.42,0,0,0-.8-.22Z"/><path class="cls-6" d="M260.36,239.35c1.11,1.44,2.5,4.34,4.23,5.08,1.16.5,3.22-.19,4.34-.37,4.45-.75,5.65-3.6,6.44-7.87.1-.51-.69-.74-.79-.21a20.41,20.41,0,0,1-1,3.68,5.76,5.76,0,0,1-4.88,3.6c-1.67.28-3.4.5-4.77-.61-1.14-.93-2.1-2.71-3-3.88-.32-.42-.9.17-.58.58Z"/><path class="cls-6" d="M261.08,247.9a61.21,61.21,0,0,1,6.07,10.3c.88,1.92,1.59,3.37,3.9,3.41,6,.1,6.26-7.59,6.61-11.88,0-.53-.77-.52-.82,0a34.18,34.18,0,0,1-1,7c-1,3.49-5.65,6.2-7.76,1.57a61.85,61.85,0,0,0-6.28-10.79c-.31-.42-1,0-.71.42Z"/><rect class="cls-27" x="273.31" y="154.44" width="16.81" height="119.15" transform="translate(45.05 -48.96) rotate(10.79)"/><rect class="cls-5" x="270.88" y="153.97" width="16.81" height="119.15" transform="translate(44.92 -48.51) rotate(10.79)"/><path class="cls-6" d="M282.72,170.76c.39-2.64.3-5.76,2.11-7.74.84-.91,2.27-2.49,3.59-2.82q1.62-1.9,2.49.81a2.93,2.93,0,0,1,.88,4.19,52.3,52.3,0,0,1-2.44,6.33c-.24.62-1,3.51-1.41,3.85l-5.65-1.25a13.25,13.25,0,0,1,.54-3.37.4.4,0,0,0-.78-.21c-.68,2.76-1,8,3.36,7.69a4.06,4.06,0,0,0,3.22-2.45,66.49,66.49,0,0,0,3.3-8.44c.72-2,2.6-9.77-1.7-9.13-1.67.25-5.28,2.8-6.41,4.1-1.68,1.94-1.5,5.73-1.87,8.23-.08.5.69.72.77.21Z"/><path class="cls-6" d="M285.84,164.85a14.82,14.82,0,0,0-.95,3.19,9.29,9.29,0,0,0-.36,2.72c.18,1.38,1.76,1.39,2.46.4a7.31,7.31,0,0,0,.76-2.94,6.38,6.38,0,0,0,.28-2.87c-.31-.95-1.83-1.17-2,0-.08.5.69.72.77.21a1.1,1.1,0,0,1,.43,1.18l-.12.66-.19,1.1c-.07.37-.12.74-.2,1.1a5.6,5.6,0,0,1-.12.59c-.07.51-.49.59-1.25.24-.2-.42.27-1.86.37-2.34a13.57,13.57,0,0,1,.83-2.79c.2-.46-.49-.87-.69-.4Z"/><path class="cls-6" d="M279.28,177.67c.47,2,.35,4.52,2.1,5.9,1.43,1.12,3.43.85,5.06.42a4.7,4.7,0,0,0,3.53-2.76c1.18-2.33,2.92-4,3.19-6.73.06-.51-.75-.51-.8,0-.19,1.92-1.14,2.94-2.12,4.44-1.07,1.65-1.13,3.22-3.33,4.09a9.3,9.3,0,0,1-1.38.35c-1.81.36-2.38.28-3.66-1-1.49-1.54-1.34-2.9-1.82-4.89-.12-.5-.89-.28-.77.22Z"/><path class="cls-6" d="M273.54,213.23c1.7-3.92,1.63-7.87,2.65-12,.46-1.8,2-8.38,3.91-8.93,10.17-3,4.67,10.94,3.51,13.54a28.54,28.54,0,0,0-2.76,9.27c-.27,2.63.31,6-.63,8.51q.3,6.39-8.4,1.19a30.28,30.28,0,0,1,1-7.92c.11-.5-.66-.71-.78-.21-.79,3.41-3.12,17.79,5.07,14.32,2.11-.89,3-2.95,3.6-5,.7-2.26.52-4.82.71-7.13a44.64,44.64,0,0,1,3.39-13.64c1.27-3.3,5-14.23-.89-15.83-8.14-2.22-9.5,19.71-11.07,23.35-.2.47.49.88.69.41Z"/><path class="cls-6" d="M278.85,199.81a7,7,0,0,0-.9,3.94c0,2.81-1,5-1.71,7.65-.47,1.89-1.79,6.82-.14,8.33a.4.4,0,0,0,.39.1c1.46-.52,1.9-3.14,2.32-4.44A60,60,0,0,0,281.47,204c.13-1.15.69-3.7-.71-4.47-1-.57-1.76,0-1.95,1-.1.5.68.72.77.21a1.79,1.79,0,0,1,1.17,2.54l-.39,2.65c-.25,1.37-.6,2.73-.94,4.09s-.62,2.56-1,3.82c-.24.85-.5,1.68-.8,2.51q-.86,3.9-1.12,1.61c-1.11-2.73.69-7.08,1.6-9.71s.07-5.74,1.44-8.11a.4.4,0,0,0-.69-.4Z"/><path class="cls-6" d="M268.24,234.36l1.12,4a5.47,5.47,0,0,0,.89,2.36c.81.79,2.49.72,3.55.86,1.71.21,3.37.33,4.78-.84,1.57-1.3,2.61-3.49,3.47-5.28.23-.46-.46-.87-.69-.4a24.22,24.22,0,0,1-1.84,3.25c-1.49,2.17-3,2.8-5.62,2.47-1.78-.22-2.88-.33-3.64-2.19a43.8,43.8,0,0,1-1.25-4.42.4.4,0,0,0-.77.22Z"/><path class="cls-6" d="M266.24,243.32a117.08,117.08,0,0,1,2.06,13.54c.21,1.63.86,2.8,2.56,3.23,5.31,1.34,7.6-6.73,9-10.29.18-.48-.59-.69-.77-.21a48.59,48.59,0,0,1-2.78,6.36,7.15,7.15,0,0,1-2.67,3c-3.09,1.48-4.11-1.48-4.6-3.74-.88-4-1-8.12-2-12.14a.4.4,0,0,0-.77.21Z"/><polygon class="cls-27" points="281.13 273.08 264.33 272.77 264.32 172.36 281.12 172.67 281.13 273.08"/><polygon class="cls-29" points="278.66 273.03 261.86 272.72 261.85 172.31 278.65 172.61 278.66 273.03"/><path class="cls-6" d="M265.58,186.59c-.1-2.05-.91-5.36.49-7.07a13.1,13.1,0,0,1,2.52-2q1.14-1.47,2.79,0c1.8,0,2.52.77,2.15,2.46,0,2.48-1,5-1.44,7.39a10,10,0,0,1-.5,2.3q-.78,3.44-5.81-.25a9.81,9.81,0,0,1-.1-2.86c0-.48-.7-.47-.73,0-.19,2.92,1.11,7.09,5,5.84a3.87,3.87,0,0,0,2.49-2.86,53.86,53.86,0,0,0,1.66-7.66c.33-2.14.08-7.92-3.47-6.77-1.5.49-5.08,3.28-5.8,4.64-.86,1.59-.06,5,0,6.82,0,.47.76.47.74,0Z"/><path class="cls-6" d="M267.59,181.29a11.19,11.19,0,0,0-.33,3.05,5.08,5.08,0,0,0,.25,2.23,1.35,1.35,0,0,0,2.41-.34,7.48,7.48,0,0,0,.12-2.67,4.17,4.17,0,0,0-.3-2.27c-.5-.71-1.91-.64-1.89.37a.37.37,0,0,0,.74,0c.48.09.71.32.69.67,0,.19,0,.38,0,.57s0,.58,0,.88c0,.55.13,3.43-.93,2.3-.86-.91-.38-3.45-.09-4.59.12-.46-.59-.65-.7-.2Z"/><path class="cls-6" d="M263.57,192.89c.84,1.65,1.33,3.76,3.16,4.61s3.93.14,5.56-.61a3.87,3.87,0,0,0,2.36-2.52c.77-2,2.12-3.8,1.89-6-.05-.47-.79-.47-.74,0,.17,1.65-.62,2.74-1.3,4.16-.59,1.25-.54,2.49-1.89,3.44a7.83,7.83,0,0,1-4.21,1.19c-2.59-.5-3.19-2.63-4.2-4.6-.21-.42-.85-.05-.63.37Z"/><path class="cls-6" d="M264.53,223.19c.85-3.2.3-6,.36-9.3,0-1.6,0-5.73,1.41-7,9.18-8.15,7.74,5.44,7.09,8-.81,3.15-1.46,5.31-1.32,8.69.07,1.79,1.68,7,1.13,7.64l-8.21,1.9a18.26,18.26,0,0,1-.49-6.7c0-.48-.71-.48-.74,0-.18,3.85.69,15.23,7.64,11.17,1.83-1.08,2.31-2.76,2.56-4.69.3-2.25-.52-4.66-.8-6.88-.62-5,.61-8.07,1.45-12.73.59-3.27.21-11.78-5.07-11.33-7.4.64-4.63,17-5.72,21.09a.37.37,0,0,0,.71.2Z"/><path class="cls-6" d="M267.27,211.33c-1,2.43.42,4.91,0,7.48a17.79,17.79,0,0,0,.06,7.55c.5,1.9,1.32,2.69,2.19.68s.85-5,1-7.23.74-5.65-.3-7.76c-.65-1.32-2.83-2.06-2.81,0a.37.37,0,0,0,.73,0q2.42.53,1.78,3.09l0,1.18c0,1.17-.08,2.36-.15,3.53-.09,1.39,0,7.35-1.74,6.36-.65-.37-.45-4.16-.4-4.82.07-1.13.45-2.23.55-3.34.19-2.1-1-4.51-.2-6.48.18-.44-.53-.63-.71-.2Z"/><path class="cls-6" d="M263.34,241.56c.82,1.4,1.73,4.11,3.16,5,1,.61,2.86.24,3.95.19,4-.18,5.42-2.62,6.59-6.28.14-.45-.57-.64-.71-.19a12.41,12.41,0,0,1-1.69,3.81c-1.55,2-3.2,1.9-5.35,2a3.31,3.31,0,0,1-3.34-1.49,29.48,29.48,0,0,1-2-3.35.37.37,0,0,0-.63.37Z"/><path class="cls-6" d="M263.06,249.29a72.89,72.89,0,0,1,4.45,10.64c.53,1.49,1.21,2.39,2.89,2.61,5.22.68,6.33-6.07,7.11-9.74.1-.46-.61-.66-.71-.2a33.86,33.86,0,0,1-1.61,5.88c-1.22,2.95-5.09,5.17-7,1.25-.81-1.69-1.18-3.7-1.91-5.45a58.91,58.91,0,0,0-2.61-5.36c-.23-.42-.86,0-.63.37Z"/><path class="cls-19" d="M287.41,277.56H263.13a4,4,0,0,1-4-3.65l-3.51-41.86a4,4,0,0,1,4-4.31h30.2a4,4,0,0,1,4,4.2l-2.4,41.87A4,4,0,0,1,287.41,277.56Z"/><path class="cls-19" d="M127.59,281.71h-40A3.92,3.92,0,0,1,83.62,278l-2.84-51.68a3.93,3.93,0,0,1,3.92-4.14h45.15a3.92,3.92,0,0,1,3.92,4.1L131.52,278A3.93,3.93,0,0,1,127.59,281.71Z"/><path class="cls-8" d="M123.94,278.43H91.09a3.48,3.48,0,0,1-3.39-3.38l-2.32-44.71a3.69,3.69,0,0,1,1-2.72,3.27,3.27,0,0,1,2.4-1.05h37a3.32,3.32,0,0,1,2.39,1,3.65,3.65,0,0,1,1,2.7L127.33,275A3.47,3.47,0,0,1,123.94,278.43ZM88.77,226.92a3,3,0,0,0-2.15.93,3.37,3.37,0,0,0-.9,2.47L88.05,275a3.13,3.13,0,0,0,3,3h32.85a3.13,3.13,0,0,0,3-3.09l1.85-44.71a3.31,3.31,0,0,0-.91-2.45,2.92,2.92,0,0,0-2.14-.92Z"/><path class="cls-8" d="M107.94,278.26c0-.13-.35-13-.63-25.78-.56-25.94-.3-26-.1-26.12l.13.32-.07-.16.15.09c-.39,1.07.4,34.25.87,51.64Z"/><path class="cls-8" d="M103.43,253.22a.83.83,0,1,1,.83.83A.83.83,0,0,1,103.43,253.22Z"/><path class="cls-8" d="M110,253.22a.83.83,0,1,1,.83.83A.83.83,0,0,1,110,253.22Z"/><path class="cls-12" d="M300.84,280.66H286.31a4.58,4.58,0,0,1-4.57-4.28l-1.37-20.63h26.85l-1.93,20.85A4.47,4.47,0,0,1,300.84,280.66Z"/><path class="cls-8" d="M306.41,255.15c-.2,3.48-3.09,10.09-12.66,10.18h-.19c-11.8,0-12.38-10.09-12.39-10.19l1,0c.56,2.75,2.78,8.9,11.38,8.9h.18c7.92-.08,10.95-5.29,11.66-8.9Z"/><path class="cls-8" d="M307.43,255.75H280.15a.67.67,0,0,1-.67-.67h0a.67.67,0,0,1,.67-.66h27.28a.67.67,0,0,1,.67.66h0A.67.67,0,0,1,307.43,255.75Z"/><text class="cls-30" transform="translate(10.69 365.55)">스마트훈련</text><text class="cls-31" transform="translate(33.6 415.4)">가구설계제작 양성과정</text><text class="cls-32" transform="translate(105.39 454)">2022년 4월 4일</text></svg>