<?xml version="1.0" encoding="utf-8"?>
<!-- Generator: Adobe Illustrator 24.0.1, SVG Export Plug-In . SVG Version: 6.00 Build 0)  -->
<svg version="1.1" id="레이어_1" xmlns="http://www.w3.org/2000/svg" xmlns:xlink="http://www.w3.org/1999/xlink" x="0px"
	 y="0px" viewBox="0 0 120 120" style="enable-background:new 0 0 120 120;" xml:space="preserve">
<style type="text/css">
	.st0{fill:#F3F5FA;}
	.st1{fill:none;stroke:#231815;stroke-width:1.5;stroke-miterlimit:10;}
</style>
<title>무제-1</title>
<circle class="st0" cx="60" cy="60" r="60"/>
<path class="st1" d="M39.8,41.9c-1.9,1.1-3.1,3-3.3,5.1c-0.2,3,0.4,6.1,1.6,8.8c0,0,6.5,17.3,28,27.7c1,0.5,2.1,0.8,3.2,1
	c2.8,0.5,7.9,0.9,9.7-2.4l2.5-4c0.4-0.7,0.2-1.7-0.5-2.1l-9.7-6.6c-0.8-0.5-1.8-0.4-2.4,0.4l-2.7,3.5c-0.7,0.9-1.9,1.1-2.8,0.6
	c-3.7-2-11.9-8.2-15.8-15.7c-0.4-0.9-0.2-2,0.6-2.6l3.4-2.6c0.9-0.8,1.1-2.1,0.4-3.1l-6.3-9.1c-0.6-0.9-1.8-1.2-2.8-0.6L39.8,41.9z"
	/>
<path class="st1" d="M62.1,55.3c0,0,4.6,0.2,4.7,4.8"/>
<path class="st1" d="M62.1,50.7c0,0,9-0.3,9.6,9.5"/>
<path class="st1" d="M62.1,45.8c0,0,13.7,0.5,14.1,14.4"/>
</svg>
