<?xml version="1.0" encoding="utf-8"?>
<!-- Generator: Adobe Illustrator 24.0.1, SVG Export Plug-In . SVG Version: 6.00 Build 0)  -->
<svg version="1.1" id="Layer_1" xmlns="http://www.w3.org/2000/svg" xmlns:xlink="http://www.w3.org/1999/xlink" x="0px" y="0px"
	 viewBox="0 0 773.6 534.2" style="enable-background:new 0 0 773.6 534.2;" xml:space="preserve">
<style type="text/css">
	.st0{clip-path:url(#SVGID_2_);fill:#F7D5F7;}
	.st1{clip-path:url(#SVGID_2_);}
	.st2{fill:#3A1010;}
	.st3{fill:#FFCFCA;}
	.st4{fill:#F9BFBB;}
	.st5{opacity:0.3;fill:#F9BFBB;}
	.st6{fill:#F7B2B0;}
	.st7{fill:#603813;}
	.st8{fill:#562F0F;}
	.st9{fill:#534741;}
	.st10{fill:#397272;}
	.st11{fill:#306664;}
	.st12{fill:#211A17;}
	.st13{fill:#CE7872;}
	.st14{fill:#FFFFFF;}
	.st15{fill:#EA8C8B;}
	.st16{fill:#E8A6E8;}
</style>
<g>
	<defs>
		<circle id="SVGID_1_" cx="382.1" cy="267.5" r="226.7"/>
	</defs>
	<clipPath id="SVGID_2_">
		<use xlink:href="#SVGID_1_"  style="overflow:visible;"/>
	</clipPath>
	<circle class="st0" cx="382.1" cy="267.5" r="226.7"/>
	<g class="st1">
		<g>
			<path class="st2" d="M681.9,1458c-0.4-1.2-1-2.3-1.7-3.2c-3.3-3.9-9.6-5.2-14-7.3c-1.5-0.7-3-1.4-4.5-2.2c-6.3-3-12.6-6-18.9-9
				l-34.1-17.5l-37.8-21.9l-56.2,5.8l-7.6,21.8c-2.3,6.4-3.4,11.1-5.7,17.5c-1.3,3.5-2.6,7.1-2.7,10.8c-0.1,0.9,0,1.8,0.1,2.7
				c0.4,2.6,1.4,5.1,2.9,7.3c2.4,3.6,5.9,6.5,9.9,8.2c5.1,2.1,10.8,2.3,16.3,2.5c34.7,0.9,69.3,1.8,104,1c12.1-0.3,24.9,0.4,36.9-2
				C676.3,1471.2,684.7,1467.1,681.9,1458z"/>
			<path class="st2" d="M264.7,1482.7c3.3,2.4,7.3,3.5,11.5,4.1h79.1c4.2-0.6,8.2-1.8,11.5-4.1c4-2.9,6.7-7.4,7.7-12.7
				c0.6-3.1,0.6-6.5-0.3-9.9c-0.3-1.2-0.7-2.3-1.1-3.4c-1.7-4.3-4.5-4.3-7.1-7.9c-4.4-6.3-6.9-14.7-10.8-20.2l-10.9-15.9h-57.2
				l-10.9,15.9c-3.9,5.5-6.3,13.9-10.8,20.2c-2.6,3.7-5.4,3.6-7.1,7.9c-0.5,1.1-0.8,2.2-1.1,3.4c-0.8,3.4-0.9,6.8-0.3,9.9
				C258,1475.3,260.7,1479.8,264.7,1482.7z"/>
			<g>
				<path class="st3" d="M669.1,794.1c3-3.7,5.9-7.6,8.5-11.7c0,0,0,0,0,0c0.2-0.3,0.4-0.6,0.6-1c2.1-3.3,4.1-6.8,5.9-10.3
					c-0.5-0.9-1-1.8-1.5-2.7c-2.3-4.1-4.5-8.2-6.7-12.4c-0.6,1.9-1.1,3.8-1.4,4.5c-1,2.5-2,5-3.1,7.5c-2.4,5.4-5.2,10.7-8.2,15.7
					c-1.5,2.4-3,5-3,7.8c0,0.5,0.1,1.1,0.3,1.6c0.3,1,0.9,1.9,1.7,2.6c0.1,0.1,0.1,0.1,0.2,0.2c0.1,0.1,0.2,0.2,0.4,0.3
					c0.8,0.5,1.8,0.8,2.7,0.6c0.1,0,0.3-0.1,0.4-0.1l0,0c1-0.3,1.7-1,2.5-1.8C668.6,794.7,668.8,794.4,669.1,794.1z"/>
				<path class="st4" d="M662.7,796.3c-0.1-0.1-0.3-0.2-0.4-0.3c-0.1,0-0.1-0.1-0.2-0.2c-0.8-0.7-1.4-1.6-1.7-2.6
					c0.5-0.7,1-1.4,1.5-2.1c3.1-4.6,6.2-9.1,9.3-13.7c0.7-1,2.1-4.4,3.6-4.4c2.3,0,2,4,1.4,5.3c-0.3,0.8-0.8,1.6-1.3,2.3
					C671.2,786.1,667.4,791.7,662.7,796.3z"/>
				<path class="st3" d="M669.6,803.2c0.6-0.7,1.2-1.5,1.8-2.3c1.2-1.5,2.4-3.1,3.5-4.7c2-2.8,3.8-5.6,5.6-8.5
					c1.4-2.2,2.6-4.5,3.9-6.8c0.9-1.6,1.7-3.3,2.5-5c-1.4-2.5-2.9-4.9-4.3-7.4c-1.5-2.6-2.9-5.2-4.3-7.9c-1.5,2.5-2.6,7.7-3.2,9.1
					c-0.4,0.9-0.7,1.8-1.1,2.8c-2.9,7.1-6.3,13.9-10.3,20.5c-0.6,0.9-1.2,1.9-1.7,2.9c-0.8,1.5-1.4,3.2-1.3,4.9
					c0,2.8,2.5,5.8,5.2,5.2c1.2-0.3,2.1-1,2.9-1.9C669.2,803.7,669.4,803.4,669.6,803.2z"/>
				<path class="st4" d="M671.4,800.9c0.5-2.6,1.1-5.3,1.9-7.8c2.1-6.5,5.5-12.5,7.1-19.1l-0.1,0.9c0.1-0.1,0.3-0.2,0.5-0.2
					c0.6,0,1.1,0.5,1.5,1.1c1,1.5,1.6,3.3,2.1,5.2c-1.2,2.3-2.5,4.6-3.9,6.8c-1.7,2.9-3.6,5.7-5.6,8.5
					C673.8,797.8,672.7,799.3,671.4,800.9z"/>
				<path class="st3" d="M680,816c0.3-0.5,0.6-1.1,0.9-1.7c1.9-3.8,3.5-7.8,4.8-11.8c2-6,3.4-12.1,4.6-18.3c0.1-0.6,0.2-1.2,0.3-1.8
					c-2.7-4.6-5.4-9.2-8.1-13.9c-1.3-2.4-2.6-4.7-3.9-7.1c-0.2,0.4-0.4,0.8-0.5,1.2c-0.6,2-0.4,4.2-0.3,6.3
					c0.2,3.8,0.2,7.6-0.1,11.5c-0.1,0.7-0.1,1.4-0.2,2c0,0,0,0,0,0c-0.4,4.2-1.2,8.3-2.2,12.4c-0.1,0.4-0.2,0.9-0.4,1.4
					c-1.5,5.5-3.4,11-3.3,16.7c0.1,2.4,0.9,5.3,3.2,5.9c1.3,0.3,2.7-0.2,3.7-1.2C679.2,817.1,679.6,816.6,680,816z"/>
				<path class="st5" d="M690.6,782.4c-2.7-4.6-5.4-9.2-8.1-13.9c-2.3-4.1-4.5-8.2-6.7-12.4c-0.6,1.9-1.1,3.8-1.4,4.5
					c-0.6,1.5-1.2,3.1-1.9,4.6c3.5,6.3,5.8,13.4,7.9,20.2c1.3,4.2,2.4,8.4,3.5,12.6c0.5,1.5,1,3,1.6,4.5c2-6,3.4-12.1,4.6-18.3
					C690.4,783.6,690.5,783,690.6,782.4z"/>
				<path class="st3" d="M708.5,807.9c-5.6-13.9-11.1-27.9-16.7-41.8c-5.3-13.4-10-24.9-17-37.5c-2.9-5.2-6.8-11.9-10.1-17.1
					c-15.6-28.8-31.3-57.5-46.9-86.3c-9.9-18.2-19.8-36.4-29.7-54.6c-6.5-11.9-13-23.9-18-36.6c-6.1-15.7-9.8-32.2-13.1-48.8
					c-2.4-12.2-4.7-24.4-7.2-36.5c-7.1,3.2-14.2,6.4-21.3,9.7c-15.2,7.1-30.3,14.5-45.5,21.4c11.6,33.7,24.2,67,41.6,98.1
					c31.1,55.5,77.2,99.3,114.8,150.6c1.4,1.9,0.8,7.4,0.9,9.8c0.4,7.7-0.2,15.4,0.7,23c1,7.7,2.7,15.4,5.4,22.7
					c1.2,3.3,4.4,6.4,7.8,3.4c0.3-0.2,0.6-0.4,0.9-0.7c3.4-3.6,3.4-8.5,3.2-13.1c-0.2-5.2,0-10.2,2.3-15c0.6-1.3,1.7-2.5,3.1-2.8
					c0.9-0.2,1.8,0,2.6,0.3c2.8,1,4.9,2.7,6.6,4.8c0.9,1.1,1.7,2.4,2.4,3.7c0.7,1.2,1.3,2.5,1.9,3.8c0.7,1.6,1.4,3.2,2.2,4.7
					c0.1,0.3,0.3,0.6,0.5,0.9c0.1,0.3,0.3,0.6,0.4,0.8c0.9,1.8,1.8,3.6,2.7,5.3c1.6,3.2,3.3,6.5,4.9,9.7c1.4,2.8,2.9,5.7,4.3,8.5
					c2.5,4.9,5.2,10.5,9.6,14C705,815.2,710.3,812.5,708.5,807.9z"/>
			</g>
			<g>
				<g>
					<path class="st6" d="M52.4,737.7c-0.6,2-1.1,4.1-1.5,6.1c-1.1,5.5-2,11.1-3.2,16.7c-0.5,2.4-1.1,4.8-2.3,6.9
						c-1.2,2.1-3.1,4-5.5,4.5c-2.4,0.6-5.3-0.4-6.4-2.6c-1-1.9-0.5-4.2,0.1-6.3c0.7-2.7,1.4-5.5,2.1-8.2c0.9-3.7,1.9-7.4,3-11
						c2.3-7.4,5.5-14.9,11.5-19.8c1.9-1.5,10.2-4.8,9,0.7c-0.5,2.1-2.7,4.1-3.8,5.9C54.2,732.9,53.1,735.3,52.4,737.7z"/>
				</g>
				<g>
					<path class="st4" d="M47.2,740.3c-0.6,2-1.1,4.1-1.5,6.1c-1.1,5.5-2,11.1-3.2,16.7c-0.5,2.4-1.1,4.8-2.3,6.9
						c-1.2,2.1-3.1,4-5.5,4.5c-2.4,0.6-5.3-0.4-6.4-2.6c-1-1.9-0.5-4.2,0.1-6.3c0.7-2.7,1.4-5.5,2.1-8.2c0.9-3.7,1.9-7.4,3-11
						c2.3-7.4,5.5-14.9,11.5-19.8c1.9-1.5,10.2-4.8,9,0.7c-0.5,2.1-2.7,4.1-3.8,5.9C49,735.4,48,737.8,47.2,740.3z"/>
				</g>
				<path class="st3" d="M291.4,362.8c-49.9,0-97.7,157.5-98.9,159.5c-1,1.8-100.3,147.9-100.6,148.2c0,0-33.7,33.9-41.9,44.1
					c-5.5,6.9-11.3,14.1-14.9,22.2c-3.8,8.6-6.1,17.8-8.5,26.8c-0.4,1.4-0.8,2.9-0.6,4.3c0.3,2.6,3.2,4.9,5.8,3.7
					c5.7-2.6,7.7-10.1,9.4-15.5c1.6-5.1,2.8-10.3,5.2-15.1c2.4-4.7,5.9-8.1,10.1-11.3c3-2.3,5.9-4.6,9-6.8c1.2-0.8,2.4-1.7,3.7-2.3
					c1.8-0.9,3.6-1.5,5.6-1.4c1.7,0.1,4.1,0.9,5,2.4c1.1,1.6-0.1,3.5-0.8,4.9c-0.8,1.7-2,3.3-3.2,4.8c-2.1,2.6-4.4,5.1-5.7,8.1
					c-0.2,0.5-0.4,1-0.5,1.6c-1.5,5.8,2.9,14.3,9.4,9c1.4-1.1,2.5-2.6,3.6-4c5.3-6.8,12-12.5,15.9-20.1c2.5-4.9,4.5-10,6.4-15.1
					c3.7-9.5,5.2-15.3,5.9-19.9l0,0l0.1-0.2c0.8-0.6,91.1-81.6,144.4-154.2c12.5-17,43.1-83.9,57.9-132.5
					C316.6,394.2,300.7,372.5,291.4,362.8z"/>
				<g>
					<path class="st4" d="M69.3,720.7c0.9-0.9,1.9-1.7,3-2.5c1.9-1.4,3.9-2.6,6.2-2.8c2.3-0.3,4.9,0.7,6,2.7c0.9,1.7,0.7,3.8,0,5.6
						c-1.7,4.4-5.6,7.5-9.1,10.6c-1.8,1.6-3.6,3.3-5,5.3c1.2-3.1,3.6-5.6,5.7-8.1c1.2-1.5,2.4-3.1,3.2-4.8c0.7-1.5,1.8-3.3,0.8-4.9
						c-1-1.5-3.4-2.3-5-2.4C73,719.2,71.1,719.8,69.3,720.7z"/>
				</g>
				<path class="st4" d="M114.4,688.3c-1.2,1.1-2.3,2-3.1,2.6l-0.1,0.2l0,0c-1.5-2.7-4.1-4.9-7-6
					C107.8,685.2,111.4,686.3,114.4,688.3z"/>
			</g>
			<path class="st7" d="M590.5,1399.2l-85.8,15c-25.9-119-66.9-284.8-80.1-379.3c-1.4-9.9-2.5-19-3.2-27.2
				c-12.7-36.8-23.2-75.4-48.9-164c-1.8-6.2-3.7-12.7-5.6-19.4C346.6,755,346.6,736,347.4,680c39.1-13.8,98.1-23.6,148.4-29.5
				c15.6,38,48.9,327.2,53.1,357.6C565.7,1128.5,568.4,1212.5,590.5,1399.2z"/>
			<path class="st8" d="M438.1,958.3c-1.1,14.2-2.8,28.3-4.6,42.4c-1.3,9.5-1.3,21.5-5.9,30.1c-0.8,1.6-1.8,3-2.9,4.2
				c-1.4-9.9-2.5-19-3.2-27.2c-12.7-36.8-23.2-75.4-48.9-164c10.4-18.9,21.4-37.6,31.5-56.7c23.9,35.7,33.8,79.2,35.4,122.1
				C439.9,925.7,439.3,942,438.1,958.3z"/>
			<path class="st7" d="M439.6,672.6c-50.2-6.2-109.8-10.7-151.1-6.5c-14,54.2-18.6,72.6-15.4,145c4.7,106.7,5.7,149.6,9.5,191.1
				c-13,83.6-5.6,246.5-9.8,413.1l88.5,4.4c22.7-186.6,32.9-266.1,45.1-387C409.5,1002,445.7,713.1,439.6,672.6z"/>
			<path class="st3" d="M363.3,250.5c15.1,7.7,30.4,14.8,45.9,21.8c4.7,2.1,9.4,4.2,14.3,5.2l1,28.2l0.9,24.2
				c-0.9,0.6-1.9,1.1-2.9,1.5c-4.6,11.6-15.9,19.8-29.1,19.8c-14.2,0-26.2-9.5-30-22.5c-0.3-0.1-0.6-0.2-0.9-0.3c0-1.2,0-2.4,0-3.7
				c-0.2-1.6-0.4-3.2-0.4-4.8c0-1.5,0.1-3.1,0.3-4.5c0-2.1,0-4.2,0-6.3c0-8.1-0.1-16.1-0.9-24.2c-0.3-2.5-0.6-4.9-1-7.3
				c-0.9-6.1-2.2-12.1-3.5-18.1c-1.1-4.9-2.1-9.9-3.2-14.8C356.9,247.3,359.7,248.7,363.3,250.5z"/>
			<path class="st9" d="M454.7,201.9c-1.6,19.6-10.2,38.7-24.2,52.5c-6.4,6.3-13.9,11.6-22.3,14.8c-9.2,3.6-19.2,4.7-29.1,4.2
				c-5.8-0.3-11.7-1.2-17-3.5c-6.4-2.8-11.8-7.5-16.8-12.4c-8.5-8.4-16.4-17.5-22.2-28c-5.8-10.4-9.6-22.2-9.5-34.1
				c0-4.1,0.5-8.2,2-11.9c2.1-5,6-9,10-12.6c13.2-12,28.7-21.9,45.8-26.6c17.8-4.9,36.6-4.3,55-3.6c4.7,0.2,8.9,1.1,12.7,4
				c3.1,2.4,4.7,6.4,6.4,9.9c4.6,9.4,7.7,19.6,8.9,30C455,190.3,455.2,196.2,454.7,201.9z"/>
			<g>
				<path class="st4" d="M424.6,305.7c-17.3-3.9-34-10.2-49.2-19c-4.9-2.8-9.9-5.8-14.7-9.1c-0.9-6.1-2.2-12.1-3.5-18.1
					c-1.1-4.9-2.1-9.9-3.2-14.8c3,2.7,5.7,4,9.3,5.9c15.1,7.7,30.4,14.8,45.9,21.8c4.7,2.1,9.4,4.2,14.3,5.2L424.6,305.7z"/>
			</g>
			<path class="st3" d="M452.6,192.7c-1.1-4.4-2.4-8.7-3.9-12.8c-4.8-13.2-13.7-25.3-25.6-33.4c-22.8-15.4-54.7-11.6-73.1,8.6
				c-4.4,4.8-7.9,10.3-10.4,16.2c-6.2,14.5-6.5,30.1-3.1,45.2c3,13.3,8.8,26.1,16,37.4c4.4,6.9,9.6,13.4,15.7,19
				c3.5,3.2,7.3,6.1,11.5,8.6c8.3,5,17.6,8.1,27.2,8.5c8.7,0.3,17.6-2,25-6.6c8.3-5.2,13.3-13.2,16.9-21.9
				C457.7,239.9,458.2,215.3,452.6,192.7z"/>
			<g>
				<g>
					<path class="st3" d="M356.5,249.3c-8.3,4.2-18.8,3.5-26.5-1.6c-6.5-4.4-10.8-11.9-11.4-19.7c-0.1-1.4-0.1-2.8,0-4.3
						c0.2-2.5,0.9-5,2.1-7.2c3-5.4,9.4-8.6,15.5-8.1c6.2,0.5,11.8,4.5,14.8,9.9l2.1,11.9L356.5,249.3z"/>
				</g>
			</g>
			<path class="st9" d="M382.6,176.2c13.9-2.6,27.9-5.7,41.1-10.7c10.7-4,22.6-11.7,25.5-23.3c3.6-14.5-8.6-25.6-20.7-31.3
				c-23.7-11.1-53-9.1-74.6,5.8c-13.1,9.1-23,22.6-27.5,37.7c-2.6,8.6-3.7,21.7,6.5,25.7c11.8,4.7,26.5,0.3,38.5-1.8
				C374.9,177.6,378.7,177,382.6,176.2z"/>
			<path class="st9" d="M302.6,179.3c1.2-9,5.2-17.3,12.5-21.9c10.6-6.8,26.7-4.9,33.1,6.7c4.2,7.5,4.3,17.2,3.1,25.5
				c-0.5,3.9-1.6,7.8-3.7,11.2c-1.4,2.3-6.1,8.1-9.3,7.7c-1.1-0.2-2.2-0.3-3.1-0.4c-0.2,0-0.4,0-0.5,0c-3.2,0-6.3,0.8-9.1,2.4
				c-2.1,1.1-3.8,2.7-5,4.6c-4,4.3-10-3.2-12.1-6.3C303.5,201.1,301.2,189.7,302.6,179.3z"/>
			<path class="st10" d="M509.8,505.2c-0.1,0.1-0.2,0.1-0.4,0.2c3.8,63.8,6.1,191.1,10.9,244.8c-74.5-4.6-184.7-0.4-250.2-8.4
				c-1.8-32.7,0-110.2,9-212.6c0.9-10.1,1.9-20.4,3.1-31c0-0.3,0.1-0.7,0.1-1c0,0-0.1-0.1-0.1-0.1c-9.7-6.6-20.5-12.6-31.4-18.4
				c-15.1-8.2-30.3-16.1-42.6-25.4c-1.1-0.8,14.3-27.3,15-28.7c21-43.8,57.3-90.2,107.3-100.9c2.9-0.6,31.7-3.9,31.7-5.2
				c0,0.4,0,0.9,0,1.3c0,17.3,14,31.3,31.3,31.3c17.3,0,31.3-14,31.3-31.3c0-0.4,0-0.8,0-1.2c26.2,5.3,51.2,17.2,71.5,34.4
				c18.4,15.7,33.1,35.6,42.8,57.8c1.8,4.1,3.5,8.3,5,12.5c6.5,17.5,11.5,35.4,17,53.2c-6.5,4.8-13.8,9.5-21.4,13.9
				C530.2,495.9,520,500.9,509.8,505.2z"/>
			<path class="st11" d="M509,446.6c1.1,19.5-0.2,39.1,0.8,58.6c10.2-4.3,20.4-9.4,29.9-14.8c-4.6-4.8-8.6-10.2-11.8-16
				c-7.7-14-10.9-29.9-15.1-45.2c-4.3-15.4-9.8-30-21.3-41.1C503.4,404.9,507.8,426,509,446.6z"/>
			<g>
				<g>
					<path class="st12" d="M390.7,189.4c1.2-0.1,2.5,0,3.7,0.1c2.2,0.2,4.4,0.4,6.6,0.5c0.7,0.1,1.6,0,1.9-0.6c0.2-0.3,0.1-0.7,0-1
						c-0.5-1.3-2.1-1.7-3.4-1.9c-3.4-0.4-6.9-0.2-10.1,1.1c-0.6,0.3-4.1,1.9-3.9,2.7C385.7,191.1,390,189.5,390.7,189.4z"/>
					<path class="st12" d="M438.4,188c-1.2,0-2.5,0.2-3.7,0.3c-2.2,0.3-4.3,0.7-6.5,1c-0.7,0.1-1.6,0.1-2-0.5c-0.2-0.3-0.2-0.7,0-1
						c0.4-1.3,2-1.8,3.3-2.1c3.3-0.7,6.9-0.7,10.1,0.4c0.6,0.2,4.3,1.6,4.1,2.4C443.5,189.2,439.1,188,438.4,188z"/>
					<g>
						<path class="st13" d="M434.5,245.5c-2.5,6.4-7,10.8-12.4,11.2c-5.3,0.4-10.3-2.9-13.7-8.4c-2.4-3.8-4-8.6-4.5-14l1-0.1
							l30.5-2.5l1.1-0.1C436.8,236.7,436,241.5,434.5,245.5z"/>
						<path class="st14" d="M435.3,231.8c-3.4,5.1-8.6,8.6-14.6,9.1s-11.7-2.1-15.9-6.6L435.3,231.8z"/>
						<path class="st15" d="M434.5,245.5c-2.5,6.4-7,10.8-12.4,11.2c-5.3,0.4-10.3-2.9-13.7-8.4c1.5-1,3-1.8,4.7-2.6
							c4.7-2.1,10-3,15-2.2C430.3,243.9,432.4,244.6,434.5,245.5z"/>
					</g>
					<g>
						<path class="st12" d="M402.8,209.2c0.1,4.2-2.1,7.6-5.1,7.7s-5.4-3.2-5.5-7.4c-0.1-4.2,2.1-7.6,5.1-7.7
							C400.2,201.7,402.6,205,402.8,209.2z"/>
						<path class="st14" d="M398.9,206.8c-1.7,0.1-1.6,2.7,0.1,2.7C400.7,209.4,400.6,206.7,398.9,206.8z"/>
					</g>
					<g>
						<path class="st12" d="M431.1,208.3c0.1,4.2,2.6,7.4,5.5,7.4c2.9-0.1,5.2-3.5,5.1-7.7c-0.1-4.2-2.6-7.4-5.5-7.4
							C433.2,200.7,430.9,204.2,431.1,208.3z"/>
						<path class="st14" d="M437.9,204.8c-1.7,0.1-1.6,2.7,0.1,2.7C439.7,207.4,439.6,204.8,437.9,204.8z"/>
					</g>
					<path class="st13" d="M422,217.7c-1.7-1.3-4.4-1.3-6.1,0.2l4.7,8.2c1.3-0.1,2.4-1.2,2.9-2.4C424.4,221.5,423.7,219,422,217.7z"
						/>
				</g>
				<g>
					<path class="st4" d="M380.2,218.1c-7.8,0.5-13.8,6.1-13.3,12.5c0.4,6.3,7.1,11,14.9,10.5c7.8-0.5,13.8-6.1,13.3-12.5
						C394.7,222.3,388,217.6,380.2,218.1z"/>
					<path class="st4" d="M455.3,222c-0.2-3.6-4-6.2-8.4-5.9c-4.4,0.3-7.7,3.4-7.5,7c0.2,3.6,4,6.2,8.4,5.9
						C452.2,228.6,455.5,225.5,455.3,222z"/>
				</g>
			</g>
			<path class="st11" d="M294.2,420.5c-5.9,25.2-9.9,50.9-12,76.7c-9.7-6.6-20.5-12.6-31.4-18.4c3.2-2.2,6.4-4.6,9.4-7.1
				c10.8-9,20.3-20,25.8-33C288.7,432.3,289.9,425.9,294.2,420.5z"/>
		</g>
	</g>
</g>
<g>
	<path class="st16" d="M382,510.2c-0.7,0-1.3-0.6-1.3-1.3s0.6-1.3,1.3-1.3c2.3,0,4.6,0,6.9-0.1c0.7-0.1,1.3,0.5,1.3,1.3
		c0,0.7-0.5,1.3-1.3,1.3C386.6,510.2,384.3,510.2,382,510.2z M375.1,510.1C375.1,510.1,375.1,510.1,375.1,510.1
		c-2.3-0.1-4.7-0.2-7-0.3c-0.7,0-1.3-0.6-1.2-1.4c0-0.7,0.6-1.3,1.4-1.2c2.3,0.1,4.6,0.2,6.9,0.3c0.7,0,1.3,0.6,1.3,1.3
		C376.4,509.6,375.8,510.1,375.1,510.1z M395.8,509.8c-0.7,0-1.2-0.5-1.3-1.2c0-0.7,0.5-1.3,1.2-1.4c2.3-0.1,4.6-0.3,6.8-0.5
		c0.7-0.1,1.3,0.5,1.4,1.2c0.1,0.7-0.5,1.3-1.2,1.4C400.5,509.5,398.2,509.7,395.8,509.8C395.9,509.8,395.8,509.8,395.8,509.8z
		 M361.3,509.3c0,0-0.1,0-0.1,0c-2.3-0.2-4.6-0.4-6.9-0.7c-0.7-0.1-1.2-0.7-1.1-1.4c0.1-0.7,0.7-1.2,1.4-1.1
		c2.3,0.3,4.6,0.5,6.8,0.7c0.7,0.1,1.2,0.7,1.2,1.4C362.6,508.8,362,509.3,361.3,509.3z M409.6,508.6c-0.6,0-1.2-0.5-1.3-1.1
		c-0.1-0.7,0.4-1.3,1.1-1.4c2.3-0.3,4.5-0.6,6.8-0.9c0.7-0.1,1.4,0.4,1.5,1.1c0.1,0.7-0.4,1.4-1.1,1.5c-2.3,0.3-4.6,0.6-6.9,0.9
		C409.7,508.6,409.6,508.6,409.6,508.6z M347.6,507.8c-0.1,0-0.1,0-0.2,0c-2.3-0.3-4.6-0.7-6.9-1.1c-0.7-0.1-1.2-0.8-1.1-1.5
		c0.1-0.7,0.8-1.2,1.5-1.1c2.2,0.4,4.5,0.7,6.8,1.1c0.7,0.1,1.2,0.8,1.1,1.5C348.8,507.3,348.3,507.8,347.6,507.8z M423.2,506.7
		c-0.6,0-1.2-0.4-1.3-1.1c-0.1-0.7,0.4-1.4,1.1-1.5c2.2-0.4,4.5-0.8,6.7-1.3c0.7-0.1,1.4,0.3,1.5,1c0.1,0.7-0.3,1.4-1,1.5
		c-2.3,0.5-4.6,0.9-6.8,1.3C423.4,506.7,423.3,506.7,423.2,506.7z M334,505.5c-0.1,0-0.2,0-0.3,0c-2.3-0.5-4.5-0.9-6.8-1.5
		c-0.7-0.2-1.1-0.9-1-1.5c0.2-0.7,0.8-1.1,1.5-1c2.2,0.5,4.5,1,6.7,1.4c0.7,0.1,1.2,0.8,1,1.5C335.2,505,334.6,505.5,334,505.5z
		 M436.7,504c-0.6,0-1.1-0.4-1.3-1c-0.2-0.7,0.3-1.4,1-1.5c2.2-0.5,4.4-1.1,6.7-1.6c0.7-0.2,1.4,0.2,1.6,0.9
		c0.2,0.7-0.2,1.4-0.9,1.6c-2.2,0.6-4.5,1.1-6.7,1.7C436.9,504,436.8,504,436.7,504z M320.6,502.4c-0.1,0-0.2,0-0.3,0
		c-2.2-0.6-4.5-1.2-6.7-1.9c-0.7-0.2-1.1-0.9-0.9-1.6c0.2-0.7,0.9-1.1,1.6-0.9c2.2,0.6,4.4,1.3,6.6,1.8c0.7,0.2,1.1,0.9,0.9,1.6
		C321.7,502,321.2,502.4,320.6,502.4z M450.1,500.5c-0.6,0-1.1-0.4-1.2-0.9c-0.2-0.7,0.2-1.4,0.9-1.6c2.2-0.6,4.4-1.3,6.6-2
		c0.7-0.2,1.4,0.2,1.6,0.8c0.2,0.7-0.2,1.4-0.8,1.6c-2.2,0.7-4.4,1.4-6.6,2C450.3,500.4,450.2,500.5,450.1,500.5z M307.3,498.5
		c-0.1,0-0.3,0-0.4-0.1c-2.2-0.7-4.4-1.5-6.6-2.2c-0.7-0.2-1-1-0.8-1.6c0.2-0.7,1-1,1.6-0.8c2.2,0.8,4.3,1.5,6.5,2.2
		c0.7,0.2,1,0.9,0.8,1.6C308.4,498.1,307.9,498.5,307.3,498.5z M463.2,496.2c-0.5,0-1-0.3-1.2-0.9c-0.2-0.7,0.1-1.4,0.8-1.6
		c2.1-0.8,4.3-1.6,6.4-2.4c0.7-0.3,1.4,0.1,1.7,0.7c0.3,0.7-0.1,1.4-0.7,1.7c-2.2,0.8-4.3,1.7-6.5,2.4
		C463.5,496.2,463.4,496.2,463.2,496.2z M294.3,493.8c-0.2,0-0.3,0-0.5-0.1c-2.1-0.8-4.3-1.7-6.4-2.6c-0.7-0.3-1-1-0.7-1.7
		c0.3-0.7,1-1,1.7-0.7c2.1,0.9,4.3,1.8,6.4,2.6c0.7,0.3,1,1,0.7,1.7C295.3,493.5,294.8,493.8,294.3,493.8z M476.1,491.2
		c-0.5,0-1-0.3-1.2-0.8c-0.3-0.7,0-1.4,0.7-1.7c2.1-0.9,4.2-1.8,6.3-2.8c0.6-0.3,1.4,0,1.7,0.6c0.3,0.6,0,1.4-0.6,1.7
		c-2.1,1-4.2,1.9-6.3,2.8C476.4,491.2,476.2,491.2,476.1,491.2z M281.5,488.5c-0.2,0-0.4,0-0.5-0.1c-2.1-1-4.2-2-6.3-3
		c-0.6-0.3-0.9-1.1-0.6-1.7c0.3-0.6,1.1-0.9,1.7-0.6c2.1,1,4.1,2,6.2,2.9c0.6,0.3,0.9,1.1,0.6,1.7
		C282.5,488.2,282,488.5,281.5,488.5z M488.6,485.5c-0.5,0-0.9-0.3-1.2-0.7c-0.3-0.6-0.1-1.4,0.6-1.7c2-1,4.1-2.1,6.1-3.1
		c0.6-0.3,1.4-0.1,1.7,0.5c0.3,0.6,0.1,1.4-0.5,1.7c-2,1.1-4.1,2.1-6.2,3.1C488.9,485.4,488.8,485.5,488.6,485.5z M269.1,482.3
		c-0.2,0-0.4,0-0.6-0.1c-2-1.1-4.1-2.2-6.1-3.3c-0.6-0.4-0.8-1.1-0.5-1.8c0.4-0.6,1.1-0.8,1.8-0.5c2,1.1,4,2.2,6,3.3
		c0.6,0.3,0.9,1.1,0.5,1.7C270.1,482.1,269.6,482.3,269.1,482.3z M500.7,479c-0.4,0-0.9-0.2-1.1-0.7c-0.4-0.6-0.1-1.4,0.5-1.8
		c2-1.1,4-2.3,5.9-3.5c0.6-0.4,1.4-0.2,1.8,0.4c0.4,0.6,0.2,1.4-0.4,1.8c-2,1.2-4,2.4-6,3.5C501.2,479,500.9,479,500.7,479z
		 M257.1,475.5c-0.2,0-0.5-0.1-0.7-0.2c-2-1.2-3.9-2.4-5.9-3.7c-0.6-0.4-0.8-1.2-0.4-1.8c0.4-0.6,1.2-0.8,1.8-0.4
		c1.9,1.2,3.9,2.5,5.8,3.6c0.6,0.4,0.8,1.2,0.4,1.8C258,475.3,257.5,475.5,257.1,475.5z M512.5,471.9c-0.4,0-0.8-0.2-1.1-0.6
		c-0.4-0.6-0.2-1.4,0.4-1.8c1.9-1.2,3.8-2.5,5.7-3.8c0.6-0.4,1.4-0.3,1.8,0.3c0.4,0.6,0.3,1.4-0.3,1.8c-1.9,1.3-3.9,2.6-5.8,3.8
		C513,471.8,512.8,471.9,512.5,471.9z M245.5,468.1c-0.3,0-0.5-0.1-0.7-0.2c-1.9-1.3-3.8-2.6-5.7-4c-0.6-0.4-0.7-1.2-0.3-1.8
		c0.4-0.6,1.2-0.7,1.8-0.3c1.9,1.3,3.7,2.7,5.6,4c0.6,0.4,0.7,1.2,0.3,1.8C246.3,467.9,245.9,468.1,245.5,468.1z M523.9,464.1
		c-0.4,0-0.8-0.2-1-0.5c-0.4-0.6-0.3-1.4,0.3-1.8c1.8-1.3,3.7-2.7,5.5-4.1c0.6-0.4,1.4-0.3,1.8,0.2c0.4,0.6,0.3,1.4-0.2,1.8
		c-1.8,1.4-3.7,2.8-5.5,4.2C524.4,464,524.2,464.1,523.9,464.1z M234.3,459.9c-0.3,0-0.6-0.1-0.8-0.3c-1.8-1.4-3.7-2.9-5.4-4.3
		c-0.6-0.5-0.6-1.3-0.2-1.8c0.5-0.6,1.3-0.6,1.8-0.2c1.8,1.4,3.6,2.9,5.4,4.3c0.6,0.4,0.7,1.2,0.2,1.8
		C235.1,459.8,234.7,459.9,234.3,459.9z M534.8,455.7c-0.4,0-0.7-0.2-1-0.5c-0.5-0.6-0.4-1.4,0.2-1.8c1.8-1.4,3.5-2.9,5.2-4.4
		c0.5-0.5,1.4-0.4,1.8,0.1c0.5,0.5,0.4,1.4-0.1,1.8c-1.7,1.5-3.5,3-5.3,4.5C535.4,455.6,535.1,455.7,534.8,455.7z M223.6,451.2
		c-0.3,0-0.6-0.1-0.8-0.3c-1.7-1.5-3.5-3.1-5.2-4.6c-0.5-0.5-0.6-1.3-0.1-1.8c0.5-0.5,1.3-0.6,1.8-0.1c1.7,1.5,3.4,3.1,5.1,4.6
		c0.5,0.5,0.6,1.3,0.1,1.8C224.4,451,224,451.2,223.6,451.2z M545.2,446.7c-0.3,0-0.7-0.1-1-0.4c-0.5-0.5-0.4-1.3,0.1-1.8
		c1.7-1.5,3.4-3.1,5-4.7c0.5-0.5,1.3-0.5,1.8,0c0.5,0.5,0.5,1.3,0,1.8c-1.7,1.6-3.4,3.2-5,4.8C545.9,446.6,545.5,446.7,545.2,446.7z
		 M213.5,441.9c-0.3,0-0.6-0.1-0.9-0.4c-1.6-1.6-3.3-3.2-4.9-4.9c-0.5-0.5-0.5-1.3,0-1.8c0.5-0.5,1.3-0.5,1.8,0
		c1.6,1.6,3.2,3.3,4.9,4.9c0.5,0.5,0.5,1.3,0,1.8C214.1,441.7,213.8,441.9,213.5,441.9z M555.1,437.1c-0.3,0-0.6-0.1-0.9-0.4
		c-0.5-0.5-0.5-1.3,0-1.8c1.6-1.6,3.2-3.3,4.7-5c0.5-0.5,1.3-0.6,1.8-0.1c0.5,0.5,0.6,1.3,0.1,1.8c-1.6,1.7-3.2,3.4-4.8,5
		C555.8,436.9,555.5,437.1,555.1,437.1z M203.9,432c-0.3,0-0.7-0.1-0.9-0.4c-1.5-1.7-3.1-3.4-4.6-5.2c-0.5-0.5-0.4-1.4,0.1-1.8
		c0.5-0.5,1.4-0.4,1.8,0.1c1.5,1.7,3,3.5,4.6,5.1c0.5,0.5,0.4,1.3-0.1,1.8C204.5,431.8,204.2,432,203.9,432z M564.5,426.9
		c-0.3,0-0.6-0.1-0.8-0.3c-0.5-0.5-0.6-1.3-0.1-1.8c1.5-1.7,3-3.5,4.4-5.2c0.5-0.6,1.3-0.6,1.8-0.2c0.6,0.5,0.6,1.3,0.2,1.8
		c-1.5,1.8-3,3.6-4.5,5.3C565.2,426.7,564.8,426.9,564.5,426.9z M194.8,421.5c-0.4,0-0.7-0.2-1-0.5c-1.5-1.8-2.9-3.6-4.3-5.4
		c-0.4-0.6-0.3-1.4,0.2-1.8c0.6-0.4,1.4-0.3,1.8,0.2c1.4,1.8,2.8,3.6,4.3,5.4c0.5,0.6,0.4,1.4-0.2,1.8
		C195.4,421.4,195.1,421.5,194.8,421.5z M573.2,416.2c-0.3,0-0.6-0.1-0.8-0.3c-0.6-0.4-0.7-1.2-0.2-1.8c1.4-1.8,2.8-3.6,4.1-5.5
		c0.4-0.6,1.2-0.7,1.8-0.3c0.6,0.4,0.7,1.2,0.3,1.8c-1.4,1.9-2.8,3.7-4.2,5.6C574,416,573.6,416.2,573.2,416.2z M186.4,410.6
		c-0.4,0-0.8-0.2-1-0.5c-1.3-1.8-2.7-3.7-4-5.7c-0.4-0.6-0.3-1.4,0.3-1.8c0.6-0.4,1.4-0.3,1.8,0.3c1.3,1.9,2.6,3.8,4,5.6
		c0.4,0.6,0.3,1.4-0.3,1.8C186.9,410.6,186.7,410.6,186.4,410.6z M581.4,405c-0.3,0-0.5-0.1-0.7-0.2c-0.6-0.4-0.7-1.2-0.3-1.8
		c1.3-1.9,2.6-3.8,3.8-5.7c0.4-0.6,1.2-0.8,1.8-0.4c0.6,0.4,0.8,1.2,0.4,1.8c-1.2,1.9-2.5,3.9-3.8,5.8
		C582.2,404.9,581.8,405,581.4,405z M178.6,399.3c-0.4,0-0.8-0.2-1.1-0.6c-1.2-1.9-2.5-3.9-3.7-5.9c-0.4-0.6-0.2-1.4,0.4-1.8
		c0.6-0.4,1.4-0.2,1.8,0.4c1.2,1.9,2.4,3.9,3.6,5.8c0.4,0.6,0.2,1.4-0.4,1.8C179.1,399.2,178.8,399.3,178.6,399.3z M588.8,393.4
		c-0.2,0-0.5-0.1-0.7-0.2c-0.6-0.4-0.8-1.2-0.4-1.8c1.2-2,2.3-3.9,3.5-5.9c0.4-0.6,1.1-0.8,1.8-0.5c0.6,0.4,0.8,1.1,0.5,1.8
		c-1.1,2-2.3,4-3.5,6C589.7,393.2,589.3,393.4,588.8,393.4z M171.5,387.5c-0.4,0-0.9-0.2-1.1-0.7c-1.1-2-2.3-4-3.3-6.1
		c-0.3-0.6-0.1-1.4,0.5-1.7c0.6-0.3,1.4-0.1,1.7,0.5c1.1,2,2.2,4,3.3,6c0.4,0.6,0.1,1.4-0.5,1.8
		C171.9,387.4,171.7,387.5,171.5,387.5z M595.6,381.4c-0.2,0-0.4,0-0.6-0.1c-0.6-0.3-0.9-1.1-0.5-1.7c1.1-2,2.1-4.1,3.1-6.1
		c0.3-0.6,1.1-0.9,1.7-0.6c0.6,0.3,0.9,1.1,0.6,1.7c-1,2.1-2.1,4.1-3.2,6.2C596.6,381.2,596.1,381.4,595.6,381.4z M165,375.3
		c-0.5,0-0.9-0.3-1.2-0.7c-1-2-2-4.2-3-6.2c-0.3-0.6,0-1.4,0.6-1.7c0.6-0.3,1.4,0,1.7,0.6c1,2.1,1.9,4.2,2.9,6.2
		c0.3,0.6,0.1,1.4-0.6,1.7C165.4,375.3,165.2,375.3,165,375.3z M601.8,369c-0.2,0-0.4,0-0.5-0.1c-0.6-0.3-0.9-1.1-0.6-1.7
		c1-2.1,1.9-4.2,2.8-6.3c0.3-0.7,1-1,1.7-0.7c0.7,0.3,1,1,0.7,1.7c-0.9,2.1-1.8,4.3-2.8,6.4C602.7,368.7,602.3,369,601.8,369z
		 M159.3,362.8c-0.5,0-1-0.3-1.2-0.8c-0.9-2.1-1.8-4.3-2.6-6.4c-0.3-0.7,0.1-1.4,0.7-1.7c0.7-0.3,1.4,0.1,1.7,0.7
		c0.8,2.1,1.7,4.2,2.6,6.3c0.3,0.7,0,1.4-0.7,1.7C159.6,362.8,159.5,362.8,159.3,362.8z M607.2,356.3c-0.2,0-0.3,0-0.5-0.1
		c-0.7-0.3-1-1-0.7-1.7c0.8-2.1,1.6-4.3,2.4-6.5c0.2-0.7,1-1,1.6-0.8c0.7,0.2,1,1,0.8,1.6c-0.8,2.2-1.6,4.4-2.4,6.5
		C608.2,355.9,607.7,356.3,607.2,356.3z M154.3,350c-0.5,0-1-0.3-1.2-0.9c-0.8-2.2-1.5-4.4-2.2-6.6c-0.2-0.7,0.2-1.4,0.8-1.6
		c0.7-0.2,1.4,0.2,1.6,0.8c0.7,2.2,1.4,4.3,2.2,6.5c0.2,0.7-0.1,1.4-0.8,1.6C154.6,349.9,154.4,350,154.3,350z M611.8,343.2
		c-0.1,0-0.3,0-0.4-0.1c-0.7-0.2-1-0.9-0.8-1.6c0.7-2.2,1.4-4.4,2-6.6c0.2-0.7,0.9-1.1,1.6-0.9c0.7,0.2,1.1,0.9,0.9,1.6
		c-0.7,2.2-1.3,4.4-2,6.6C612.9,342.9,612.4,343.2,611.8,343.2z M150,336.8c-0.6,0-1.1-0.4-1.2-0.9c-0.7-2.2-1.3-4.5-1.9-6.7
		c-0.2-0.7,0.2-1.4,0.9-1.6c0.7-0.2,1.4,0.2,1.6,0.9c0.6,2.2,1.2,4.4,1.8,6.6c0.2,0.7-0.2,1.4-0.9,1.6
		C150.3,336.8,150.1,336.8,150,336.8z M615.7,330c-0.1,0-0.2,0-0.3,0c-0.7-0.2-1.1-0.9-0.9-1.6c0.6-2.2,1.1-4.4,1.6-6.7
		c0.2-0.7,0.9-1.1,1.5-1c0.7,0.2,1.1,0.9,1,1.5c-0.5,2.2-1.1,4.5-1.7,6.7C616.8,329.6,616.3,330,615.7,330z M146.5,323.5
		c-0.6,0-1.1-0.4-1.3-1c-0.5-2.2-1-4.5-1.5-6.8c-0.1-0.7,0.3-1.4,1-1.5c0.7-0.1,1.4,0.3,1.5,1c0.5,2.2,0.9,4.5,1.5,6.7
		c0.2,0.7-0.3,1.4-1,1.5C146.7,323.5,146.6,323.5,146.5,323.5z M618.8,316.5c-0.1,0-0.2,0-0.3,0c-0.7-0.1-1.2-0.8-1-1.5
		c0.4-2.2,0.9-4.5,1.3-6.7c0.1-0.7,0.8-1.2,1.5-1.1c0.7,0.1,1.2,0.8,1.1,1.5c-0.4,2.3-0.8,4.6-1.3,6.8
		C619.9,316.1,619.4,316.5,618.8,316.5z M143.8,310c-0.6,0-1.2-0.4-1.3-1.1c-0.4-2.3-0.8-4.6-1.1-6.9c-0.1-0.7,0.4-1.4,1.1-1.5
		c0.7-0.1,1.4,0.4,1.5,1.1c0.3,2.2,0.7,4.5,1.1,6.8c0.1,0.7-0.4,1.4-1.1,1.5C143.9,310,143.8,310,143.8,310z M621.1,302.9
		c-0.1,0-0.1,0-0.2,0c-0.7-0.1-1.2-0.8-1.1-1.5c0.3-2.3,0.6-4.6,0.9-6.8c0.1-0.7,0.7-1.2,1.4-1.1c0.7,0.1,1.2,0.7,1.1,1.4
		c-0.3,2.3-0.6,4.6-0.9,6.9C622.3,302.5,621.8,302.9,621.1,302.9z M141.8,296.3c-0.6,0-1.2-0.5-1.3-1.1c-0.3-2.3-0.5-4.6-0.7-6.9
		c-0.1-0.7,0.5-1.3,1.2-1.4c0.7-0.1,1.3,0.5,1.4,1.2c0.2,2.3,0.4,4.6,0.7,6.8c0.1,0.7-0.4,1.3-1.1,1.4
		C141.9,296.3,141.9,296.3,141.8,296.3z M622.7,289.2c0,0-0.1,0-0.1,0c-0.7-0.1-1.2-0.7-1.2-1.4c0.2-2.3,0.4-4.6,0.5-6.8
		c0-0.7,0.7-1.2,1.4-1.2c0.7,0,1.3,0.6,1.2,1.4c-0.1,2.3-0.3,4.6-0.5,6.9C623.9,288.7,623.4,289.2,622.7,289.2z M140.6,282.6
		c-0.7,0-1.2-0.5-1.3-1.2c-0.1-2.3-0.2-4.6-0.3-6.9c0-0.7,0.5-1.3,1.3-1.3c0,0,0,0,0,0c0.7,0,1.3,0.6,1.3,1.3
		c0.1,2.3,0.2,4.6,0.3,6.9C142,281.9,141.4,282.5,140.6,282.6C140.7,282.6,140.7,282.6,140.6,282.6z M623.5,275.4
		C623.5,275.4,623.4,275.4,623.5,275.4c-0.7,0-1.3-0.6-1.3-1.3c0.1-2.3,0.1-4.6,0.1-6.9v-0.5c0-0.7,0.6-1.3,1.3-1.3s1.3,0.6,1.3,1.3
		v0.5c0,2.3,0,4.6-0.1,6.9C624.7,274.9,624.2,275.4,623.5,275.4z M140.2,268.8c-0.7,0-1.3-0.6-1.3-1.3v-0.2c0-2.2,0-4.5,0.1-6.7
		c0-0.7,0.6-1.3,1.3-1.3c0.7,0,1.3,0.6,1.3,1.3c-0.1,2.2-0.1,4.4-0.1,6.6v0.2C141.5,268.2,140.9,268.8,140.2,268.8z M623.5,261.2
		c-0.7,0-1.3-0.6-1.3-1.3c-0.1-2.3-0.2-4.6-0.3-6.9c0-0.7,0.5-1.3,1.2-1.4c0.7-0.1,1.3,0.5,1.4,1.2c0.1,2.3,0.2,4.6,0.3,6.9
		C624.8,260.6,624.2,261.2,623.5,261.2C623.5,261.2,623.5,261.2,623.5,261.2z M140.6,255C140.6,255,140.6,255,140.6,255
		c-0.8,0-1.3-0.7-1.3-1.4c0.1-2.3,0.3-4.6,0.5-6.9c0.1-0.7,0.7-1.2,1.4-1.2c0.7,0.1,1.2,0.7,1.2,1.4c-0.2,2.3-0.3,4.6-0.5,6.8
		C141.9,254.4,141.3,255,140.6,255z M622.7,247.4c-0.7,0-1.2-0.5-1.3-1.2c-0.2-2.3-0.4-4.6-0.7-6.8c-0.1-0.7,0.4-1.3,1.1-1.4
		c0.7-0.1,1.3,0.4,1.4,1.1c0.3,2.3,0.5,4.6,0.7,6.9c0.1,0.7-0.5,1.3-1.2,1.4C622.7,247.4,622.7,247.4,622.7,247.4z M141.8,241.2
		c0,0-0.1,0-0.1,0c-0.7-0.1-1.2-0.7-1.1-1.4c0.3-2.3,0.6-4.6,0.9-6.9c0.1-0.7,0.8-1.2,1.5-1.1c0.7,0.1,1.2,0.8,1.1,1.5
		c-0.3,2.3-0.6,4.5-0.9,6.8C143,240.7,142.4,241.2,141.8,241.2z M621.1,233.7c-0.6,0-1.2-0.5-1.3-1.1c-0.3-2.3-0.7-4.5-1.1-6.8
		c-0.1-0.7,0.3-1.4,1-1.5c0.7-0.1,1.4,0.3,1.5,1c0.4,2.3,0.8,4.6,1.1,6.9c0.1,0.7-0.4,1.4-1.1,1.5
		C621.2,233.7,621.1,233.7,621.1,233.7z M143.7,227.6c-0.1,0-0.1,0-0.2,0c-0.7-0.1-1.2-0.8-1.1-1.5c0.4-2.3,0.8-4.6,1.3-6.8
		c0.1-0.7,0.8-1.1,1.5-1c0.7,0.1,1.2,0.8,1,1.5c-0.4,2.2-0.9,4.5-1.3,6.7C144.9,227.1,144.3,227.6,143.7,227.6z M618.7,220.1
		c-0.6,0-1.1-0.4-1.3-1c-0.5-2.2-0.9-4.5-1.5-6.7c-0.2-0.7,0.3-1.4,1-1.5c0.7-0.2,1.4,0.3,1.5,1c0.5,2.3,1,4.5,1.5,6.8
		c0.1,0.7-0.3,1.4-1,1.5C618.9,220.1,618.8,220.1,618.7,220.1z M146.4,214c-0.1,0-0.2,0-0.3,0c-0.7-0.2-1.1-0.9-1-1.5
		c0.5-2.2,1.1-4.5,1.7-6.7c0.2-0.7,0.9-1.1,1.6-0.9c0.7,0.2,1.1,0.9,0.9,1.6c-0.6,2.2-1.1,4.5-1.6,6.7
		C147.5,213.6,147,214,146.4,214z M615.6,206.7c-0.6,0-1.1-0.4-1.2-1c-0.6-2.2-1.2-4.4-1.8-6.6c-0.2-0.7,0.2-1.4,0.9-1.6
		c0.7-0.2,1.4,0.2,1.6,0.9c0.6,2.2,1.3,4.4,1.9,6.7c0.2,0.7-0.2,1.4-0.9,1.6C615.8,206.7,615.7,206.7,615.6,206.7z M149.9,200.7
		c-0.1,0-0.2,0-0.4-0.1c-0.7-0.2-1.1-0.9-0.9-1.6c0.6-2.2,1.3-4.4,2-6.6c0.2-0.7,0.9-1,1.6-0.8c0.7,0.2,1,0.9,0.8,1.6
		c-0.7,2.2-1.4,4.4-2,6.6C151,200.3,150.5,200.7,149.9,200.7z M611.7,193.4c-0.5,0-1-0.3-1.2-0.9c-0.7-2.2-1.5-4.3-2.2-6.5
		c-0.2-0.7,0.1-1.4,0.8-1.7c0.7-0.2,1.4,0.1,1.7,0.8c0.8,2.2,1.5,4.4,2.2,6.6c0.2,0.7-0.1,1.4-0.8,1.6
		C611.9,193.4,611.8,193.4,611.7,193.4z M154.1,187.5c-0.1,0-0.3,0-0.4-0.1c-0.7-0.2-1-1-0.8-1.6c0.8-2.2,1.6-4.4,2.4-6.5
		c0.3-0.7,1-1,1.7-0.7c0.7,0.3,1,1,0.7,1.7c-0.8,2.1-1.6,4.3-2.4,6.5C155.2,187.2,154.7,187.5,154.1,187.5z M607,180.5
		c-0.5,0-1-0.3-1.2-0.8c-0.8-2.1-1.7-4.2-2.6-6.3c-0.3-0.7,0-1.4,0.7-1.7c0.7-0.3,1.4,0,1.7,0.7c0.9,2.1,1.8,4.3,2.6,6.4
		c0.3,0.7-0.1,1.4-0.7,1.7C607.3,180.4,607.2,180.5,607,180.5z M159.2,174.6c-0.2,0-0.3,0-0.5-0.1c-0.7-0.3-1-1-0.7-1.7
		c0.9-2.1,1.8-4.3,2.8-6.4c0.3-0.6,1.1-0.9,1.7-0.6c0.6,0.3,0.9,1.1,0.6,1.7c-0.9,2.1-1.9,4.2-2.8,6.3
		C160.1,174.3,159.7,174.6,159.2,174.6z M601.6,167.8c-0.5,0-1-0.3-1.2-0.8c-0.9-2.1-1.9-4.1-2.9-6.2c-0.3-0.6-0.1-1.4,0.6-1.7
		c0.6-0.3,1.4-0.1,1.7,0.6c1,2.1,2,4.2,3,6.2c0.3,0.6,0,1.4-0.6,1.7C602,167.8,601.8,167.8,601.6,167.8z M164.9,162
		c-0.2,0-0.4,0-0.6-0.1c-0.6-0.3-0.9-1.1-0.6-1.7c1-2.1,2.1-4.2,3.2-6.2c0.3-0.6,1.1-0.9,1.7-0.5c0.6,0.3,0.9,1.1,0.5,1.7
		c-1.1,2-2.1,4.1-3.1,6.1C165.8,161.8,165.4,162,164.9,162z M595.5,155.5c-0.5,0-0.9-0.2-1.1-0.7c-1.1-2-2.2-4-3.3-6
		c-0.4-0.6-0.1-1.4,0.5-1.8c0.6-0.4,1.4-0.1,1.8,0.5c1.1,2,2.2,4,3.3,6.1c0.3,0.6,0.1,1.4-0.5,1.7
		C595.9,155.4,595.7,155.5,595.5,155.5z M171.4,149.8c-0.2,0-0.4-0.1-0.6-0.2c-0.6-0.4-0.8-1.1-0.5-1.8c1.1-2,2.3-4,3.5-6
		c0.4-0.6,1.2-0.8,1.8-0.4c0.6,0.4,0.8,1.2,0.4,1.8c-1.2,1.9-2.3,3.9-3.5,5.9C172.2,149.6,171.8,149.8,171.4,149.8z M588.7,143.5
		c-0.4,0-0.9-0.2-1.1-0.6c-1.2-1.9-2.4-3.9-3.6-5.8c-0.4-0.6-0.2-1.4,0.4-1.8c0.6-0.4,1.4-0.2,1.8,0.4c1.2,1.9,2.5,3.9,3.7,5.9
		c0.4,0.6,0.2,1.4-0.4,1.8C589.2,143.4,589,143.5,588.7,143.5z M178.5,138c-0.2,0-0.5-0.1-0.7-0.2c-0.6-0.4-0.8-1.2-0.4-1.8
		c1.3-1.9,2.5-3.9,3.8-5.8c0.4-0.6,1.2-0.7,1.8-0.3c0.6,0.4,0.7,1.2,0.3,1.8c-1.3,1.9-2.6,3.8-3.8,5.7
		C179.3,137.8,178.9,138,178.5,138z M581.3,131.9c-0.4,0-0.8-0.2-1.1-0.6c-1.3-1.9-2.6-3.8-4-5.6c-0.4-0.6-0.3-1.4,0.3-1.8
		c0.6-0.4,1.4-0.3,1.8,0.3c1.4,1.9,2.7,3.8,4,5.7c0.4,0.6,0.3,1.4-0.3,1.8C581.8,131.8,581.5,131.9,581.3,131.9z M186.3,126.6
		c-0.3,0-0.5-0.1-0.8-0.2c-0.6-0.4-0.7-1.2-0.3-1.8c1.4-1.9,2.8-3.7,4.2-5.6c0.4-0.6,1.2-0.7,1.8-0.2c0.6,0.4,0.7,1.2,0.2,1.8
		c-1.4,1.8-2.8,3.6-4.1,5.5C187.1,126.4,186.7,126.6,186.3,126.6z M573.1,120.8c-0.4,0-0.8-0.2-1-0.5c-1.4-1.8-2.8-3.6-4.3-5.4
		c-0.5-0.6-0.4-1.4,0.2-1.8c0.5-0.5,1.4-0.4,1.8,0.2c1.5,1.8,2.9,3.6,4.3,5.4c0.4,0.6,0.3,1.4-0.2,1.8
		C573.7,120.7,573.4,120.8,573.1,120.8z M194.7,115.7c-0.3,0-0.6-0.1-0.8-0.3c-0.6-0.5-0.6-1.3-0.2-1.8c1.4-1.8,3-3.6,4.5-5.3
		c0.5-0.5,1.3-0.6,1.8-0.1c0.5,0.5,0.6,1.3,0.1,1.8c-1.5,1.7-3,3.5-4.4,5.3C195.5,115.5,195.1,115.7,194.7,115.7z M564.4,110.1
		c-0.4,0-0.7-0.2-1-0.4c-1.5-1.7-3-3.4-4.6-5.1c-0.5-0.5-0.4-1.3,0.1-1.8c0.5-0.5,1.3-0.4,1.8,0.1c1.6,1.7,3.1,3.4,4.6,5.2
		c0.5,0.5,0.4,1.4-0.1,1.8C565,110,564.7,110.1,564.4,110.1z M203.8,105.2c-0.3,0-0.6-0.1-0.9-0.3c-0.5-0.5-0.6-1.3-0.1-1.8
		c1.6-1.7,3.2-3.4,4.8-5c0.5-0.5,1.3-0.5,1.8,0c0.5,0.5,0.5,1.3,0,1.8c-1.6,1.6-3.2,3.3-4.7,5C204.5,105.1,204.1,105.2,203.8,105.2z
		 M555,100c-0.3,0-0.7-0.1-0.9-0.4c-1.6-1.6-3.2-3.3-4.9-4.8c-0.5-0.5-0.5-1.3,0-1.8c0.5-0.5,1.3-0.5,1.8,0c1.6,1.6,3.3,3.2,4.9,4.9
		c0.5,0.5,0.5,1.3,0,1.8C555.7,99.8,555.4,100,555,100z M213.4,95.3c-0.3,0-0.7-0.1-0.9-0.4c-0.5-0.5-0.5-1.3,0-1.8
		c1.6-1.6,3.3-3.2,5-4.8c0.5-0.5,1.3-0.4,1.8,0.1c0.5,0.5,0.4,1.3-0.1,1.8c-1.7,1.5-3.4,3.1-5,4.7C214,95.2,213.7,95.3,213.4,95.3z
		 M545.1,90.3c-0.3,0-0.6-0.1-0.9-0.3c-1.7-1.5-3.4-3.1-5.1-4.6c-0.5-0.5-0.6-1.3-0.1-1.8c0.5-0.5,1.3-0.6,1.8-0.1
		c1.8,1.5,3.5,3.1,5.2,4.6c0.5,0.5,0.6,1.3,0.1,1.8C545.8,90.2,545.5,90.3,545.1,90.3z M223.5,86c-0.4,0-0.7-0.2-1-0.4
		c-0.5-0.5-0.4-1.4,0.1-1.8c1.7-1.5,3.5-3,5.3-4.5c0.6-0.5,1.4-0.4,1.8,0.2c0.5,0.6,0.4,1.4-0.2,1.8c-1.8,1.4-3.5,2.9-5.2,4.4
		C224.1,85.9,223.8,86,223.5,86z M534.7,81.3c-0.3,0-0.6-0.1-0.8-0.3c-1.8-1.4-3.6-2.9-5.4-4.3c-0.6-0.4-0.7-1.2-0.2-1.8
		c0.4-0.6,1.2-0.7,1.8-0.2c1.8,1.4,3.7,2.9,5.4,4.3c0.6,0.5,0.6,1.3,0.2,1.8C535.4,81.1,535.1,81.3,534.7,81.3z M234.2,77.2
		c-0.4,0-0.8-0.2-1-0.5c-0.4-0.6-0.3-1.4,0.2-1.8c1.8-1.4,3.7-2.8,5.5-4.2c0.6-0.4,1.4-0.3,1.8,0.3c0.4,0.6,0.3,1.4-0.3,1.8
		c-1.8,1.3-3.7,2.7-5.5,4.1C234.8,77.2,234.5,77.2,234.2,77.2z M523.8,72.9c-0.3,0-0.5-0.1-0.8-0.2c-1.8-1.3-3.7-2.7-5.6-4
		c-0.6-0.4-0.7-1.2-0.3-1.8c0.4-0.6,1.2-0.7,1.8-0.3c1.9,1.3,3.8,2.7,5.7,4c0.6,0.4,0.7,1.2,0.3,1.8
		C524.6,72.7,524.2,72.9,523.8,72.9z M245.4,69.1c-0.4,0-0.8-0.2-1.1-0.6c-0.4-0.6-0.3-1.4,0.3-1.8c1.9-1.3,3.8-2.6,5.8-3.8
		c0.6-0.4,1.4-0.2,1.8,0.4c0.4,0.6,0.2,1.4-0.4,1.8c-1.9,1.2-3.8,2.5-5.7,3.8C245.9,69.1,245.6,69.1,245.4,69.1z M512.4,65.1
		c-0.2,0-0.5-0.1-0.7-0.2c-1.9-1.2-3.9-2.5-5.8-3.6c-0.6-0.4-0.8-1.2-0.4-1.8c0.4-0.6,1.2-0.8,1.8-0.4c2,1.2,3.9,2.4,5.9,3.7
		c0.6,0.4,0.8,1.2,0.4,1.8C513.2,64.9,512.8,65.1,512.4,65.1z M256.9,61.7c-0.4,0-0.9-0.2-1.1-0.6c-0.4-0.6-0.2-1.4,0.4-1.8
		c2-1.2,4-2.4,6-3.5c0.6-0.4,1.4-0.1,1.8,0.5c0.4,0.6,0.1,1.4-0.5,1.8c-2,1.1-4,2.3-5.9,3.5C257.4,61.6,257.2,61.7,256.9,61.7z
		 M500.5,57.9c-0.2,0-0.4-0.1-0.6-0.2c-2-1.1-4-2.2-6-3.3c-0.6-0.3-0.9-1.1-0.5-1.7c0.3-0.6,1.1-0.9,1.7-0.5c2,1.1,4.1,2.2,6.1,3.3
		c0.6,0.4,0.8,1.1,0.5,1.8C501.4,57.7,501,57.9,500.5,57.9z M268.9,54.9c-0.5,0-0.9-0.2-1.1-0.7c-0.3-0.6-0.1-1.4,0.5-1.7
		c2-1.1,4.1-2.1,6.2-3.2c0.6-0.3,1.4-0.1,1.7,0.6c0.3,0.6,0.1,1.4-0.6,1.7c-2,1-4.1,2-6.1,3.1C269.3,54.8,269.1,54.9,268.9,54.9z
		 M488.3,51.5c-0.2,0-0.4,0-0.6-0.1c-2.1-1-4.2-2-6.2-2.9c-0.6-0.3-0.9-1.1-0.6-1.7c0.3-0.6,1.1-0.9,1.7-0.6c2.1,1,4.2,2,6.3,3
		c0.6,0.3,0.9,1.1,0.6,1.7C489.2,51.2,488.8,51.5,488.3,51.5z M281.2,48.8c-0.5,0-1-0.3-1.2-0.8c-0.3-0.6,0-1.4,0.6-1.7
		c2.1-1,4.2-1.9,6.3-2.8c0.7-0.3,1.4,0,1.7,0.7c0.3,0.7,0,1.4-0.7,1.7c-2.1,0.9-4.2,1.8-6.3,2.8C281.6,48.7,281.4,48.8,281.2,48.8z
		 M475.7,45.8c-0.2,0-0.3,0-0.5-0.1c-2.1-0.9-4.3-1.8-6.4-2.6c-0.7-0.3-1-1-0.7-1.7c0.3-0.7,1-1,1.7-0.7c2.1,0.8,4.3,1.7,6.4,2.6
		c0.7,0.3,1,1,0.7,1.7C476.7,45.5,476.2,45.8,475.7,45.8z M293.9,43.4c-0.5,0-1-0.3-1.2-0.8c-0.3-0.7,0.1-1.4,0.7-1.7
		c2.1-0.8,4.3-1.7,6.5-2.4c0.7-0.2,1.4,0.1,1.6,0.8c0.2,0.7-0.1,1.4-0.8,1.6c-2.1,0.8-4.3,1.6-6.4,2.4
		C294.2,43.4,294.1,43.4,293.9,43.4z M462.8,40.8c-0.1,0-0.3,0-0.4-0.1c-2.1-0.8-4.3-1.5-6.5-2.2c-0.7-0.2-1-0.9-0.8-1.6
		c0.2-0.7,0.9-1,1.6-0.8c2.2,0.7,4.4,1.5,6.6,2.2c0.7,0.2,1,1,0.8,1.6C463.8,40.4,463.3,40.8,462.8,40.8z M306.9,38.7
		c-0.5,0-1-0.3-1.2-0.9c-0.2-0.7,0.1-1.4,0.8-1.6c2.2-0.7,4.4-1.4,6.6-2.1c0.7-0.2,1.4,0.2,1.6,0.9c0.2,0.7-0.2,1.4-0.9,1.6
		c-2.2,0.6-4.4,1.3-6.6,2C307.2,38.7,307,38.7,306.9,38.7z M449.7,36.5c-0.1,0-0.2,0-0.4-0.1c-2.2-0.6-4.4-1.3-6.6-1.8
		c-0.7-0.2-1.1-0.9-0.9-1.6c0.2-0.7,0.9-1.1,1.6-0.9c2.2,0.6,4.5,1.2,6.7,1.8c0.7,0.2,1.1,0.9,0.9,1.6
		C450.7,36.1,450.2,36.5,449.7,36.5z M320.1,34.8c-0.6,0-1.1-0.4-1.2-1c-0.2-0.7,0.2-1.4,0.9-1.6c2.2-0.6,4.5-1.2,6.7-1.7
		c0.7-0.2,1.4,0.3,1.5,1c0.2,0.7-0.3,1.4-1,1.5c-2.2,0.5-4.5,1.1-6.7,1.7C320.4,34.8,320.2,34.8,320.1,34.8z M436.3,33
		c-0.1,0-0.2,0-0.3,0c-2.2-0.5-4.5-1-6.7-1.4c-0.7-0.1-1.2-0.8-1-1.5c0.1-0.7,0.8-1.2,1.5-1c2.3,0.5,4.5,0.9,6.8,1.5
		c0.7,0.2,1.1,0.9,1,1.5C437.4,32.6,436.9,33,436.3,33z M333.6,31.7c-0.6,0-1.1-0.4-1.3-1c-0.1-0.7,0.3-1.4,1-1.5
		c2.2-0.5,4.5-0.9,6.8-1.3c0.7-0.1,1.4,0.4,1.5,1.1c0.1,0.7-0.3,1.4-1.1,1.5c-2.3,0.4-4.5,0.8-6.7,1.3
		C333.7,31.7,333.7,31.7,333.6,31.7z M422.8,30.3c-0.1,0-0.1,0-0.2,0c-2.2-0.4-4.5-0.7-6.8-1.1c-0.7-0.1-1.2-0.8-1.1-1.5
		c0.1-0.7,0.8-1.2,1.5-1.1c2.3,0.3,4.6,0.7,6.9,1.1c0.7,0.1,1.2,0.8,1.1,1.5C423.9,29.9,423.4,30.3,422.8,30.3z M347.2,29.4
		c-0.6,0-1.2-0.5-1.3-1.1c-0.1-0.7,0.4-1.4,1.1-1.5c2.3-0.3,4.6-0.6,6.9-0.9c0.7-0.1,1.3,0.4,1.4,1.1c0.1,0.7-0.4,1.3-1.1,1.4
		c-2.2,0.3-4.5,0.6-6.8,0.9C347.3,29.4,347.2,29.4,347.2,29.4z M409.1,28.4c0,0-0.1,0-0.1,0c-2.3-0.3-4.6-0.5-6.8-0.7
		c-0.7-0.1-1.2-0.7-1.2-1.4c0.1-0.7,0.7-1.2,1.4-1.2c2.3,0.2,4.6,0.4,6.9,0.7c0.7,0.1,1.2,0.7,1.1,1.4
		C410.3,27.9,409.8,28.4,409.1,28.4z M360.9,27.8c-0.7,0-1.2-0.5-1.3-1.2c-0.1-0.7,0.5-1.3,1.2-1.4c2.3-0.2,4.6-0.4,6.9-0.5
		c0.7,0,1.3,0.5,1.4,1.2c0,0.7-0.5,1.3-1.2,1.4c-2.3,0.1-4.6,0.3-6.8,0.5C361,27.8,360.9,27.8,360.9,27.8z M395.4,27.2
		C395.3,27.2,395.3,27.2,395.4,27.2c-2.4-0.1-4.7-0.2-6.9-0.3c-0.7,0-1.3-0.6-1.3-1.3c0-0.7,0.6-1.3,1.3-1.3
		c2.3,0.1,4.6,0.2,6.9,0.3c0.7,0,1.3,0.6,1.2,1.4C396.6,26.7,396,27.2,395.4,27.2z M374.7,27c-0.7,0-1.3-0.6-1.3-1.3
		c0-0.7,0.5-1.3,1.3-1.3c2.3-0.1,4.6-0.1,6.9-0.1c0,0,0,0,0,0c0.7,0,1.3,0.6,1.3,1.3c0,0.7-0.6,1.3-1.3,1.3
		C379.3,26.9,377,26.9,374.7,27C374.7,27,374.7,27,374.7,27z"/>
</g>
</svg>
