<?xml version="1.0" encoding="utf-8"?>
<!-- Generator: Adobe Illustrator 24.0.1, SVG Export Plug-In . SVG Version: 6.00 Build 0)  -->
<svg version="1.1" id="Layer_1" xmlns="http://www.w3.org/2000/svg" xmlns:xlink="http://www.w3.org/1999/xlink" x="0px" y="0px"
	 viewBox="0 0 773.6 534.2" style="enable-background:new 0 0 773.6 534.2;" xml:space="preserve">
<style type="text/css">
	.st0{clip-path:url(#SVGID_2_);fill:#D6E9F2;}
	.st1{clip-path:url(#SVGID_4_);}
	.st2{fill:#603813;}
	.st3{fill:#F4B9B8;}
	.st4{fill:#F9BFBB;}
	.st5{fill:#FFCFCA;}
	.st6{fill:#1E1D59;}
	.st7{fill:#151544;}
	.st8{fill:#363740;}
	.st9{fill:#FFFFFF;}
	.st10{fill:#ACDDD9;}
	.st11{fill:#C69C6D;}
	.st12{fill:#C15252;}
	.st13{fill:#AF4646;}
	.st14{fill:#1F3C49;}
	.st15{fill:#D55454;}
	.st16{fill:#F37C7C;}
	.st17{fill:#99A4CE;}
	.st18{fill:#A2CDDD;}
</style>
<g>
	<g>
		<defs>
			<circle id="SVGID_1_" cx="373.6" cy="270.6" r="226.7"/>
		</defs>
		<clipPath id="SVGID_2_">
			<use xlink:href="#SVGID_1_"  style="overflow:visible;"/>
		</clipPath>
		<circle class="st0" cx="373.6" cy="270.6" r="226.7"/>
	</g>
	<g>
		<defs>
			<circle id="SVGID_3_" cx="373.6" cy="270.6" r="226.7"/>
		</defs>
		<clipPath id="SVGID_4_">
			<use xlink:href="#SVGID_3_"  style="overflow:visible;"/>
		</clipPath>
		<g class="st1">
			<g>
				
					<ellipse transform="matrix(0.9881 -0.1539 0.1539 0.9881 -24.4988 62.5141)" class="st2" cx="391.5" cy="189.5" rx="42.5" ry="54"/>
				<g>
					<g>
						<path class="st3" d="M54.7,913.7c0,2.9,0.3,5.8,0.6,8.7c0.8,7.8,2,15.5,2.8,23.3c0.3,3.4,0.6,6.8-0.1,10.1
							c-0.7,3.3-2.4,6.5-5.3,8.3s-7,1.6-9.3-0.8c-2.1-2.1-2.3-5.4-2.5-8.3c-0.2-3.9-0.4-7.8-0.7-11.7c-0.3-5.3-0.6-10.5-0.6-15.8
							c-0.1-10.7,0.9-21.9,6.8-30.8c1.9-2.8,11.3-10.5,12-2.8c0.3,3-1.8,6.5-2.5,9.4C55,906.6,54.6,910.2,54.7,913.7z"/>
					</g>
					<g>
						<path class="st4" d="M49,919.2c0,2.9,0.3,5.8,0.6,8.7c0.8,7.8,2,15.5,2.8,23.3c0.3,3.4,0.6,6.8-0.1,10.1
							c-0.7,3.3-2.4,6.5-5.3,8.3c-2.9,1.7-7,1.6-9.3-0.8c-2.1-2.1-2.3-5.4-2.5-8.3c-0.2-3.9-0.4-7.8-0.7-11.7
							c-0.3-5.3-0.6-10.5-0.6-15.8c-0.1-10.7,0.9-21.9,6.8-30.8c1.9-2.8,11.3-10.5,12-2.8c0.3,3-1.8,6.5-2.5,9.4
							C49.4,912.1,49,915.7,49,919.2z"/>
					</g>
					<g>
						<path class="st5" d="M96.5,815.1c-7.3,0.9-14.6,2.3-21.6,4.6c-3.7,1.2-7.3,2.4-10.9,3.3c2.2,2.1,3.5,3.7,3.5,4.4
							c-0.2,2.5-1.4,4.8-2.7,7c-0.1,0.2-0.3,0.5-0.4,0.7c-8.9,15.8-15.7,32.3-22.2,49.2c-4.4,11.4-8.9,23.2-10.2,35.4
							c-1.3,12.9-0.6,25.9,0,38.9c0.1,2,0.2,4.1,1,6c1.5,3.3,6.2,5.2,9.1,2.5c6.4-5.8,5.8-16.5,5.8-24.4c-0.1-7.3-0.6-14.7,0.6-22
							c1.1-7.2,4.3-13.2,8.5-19c3-4.2,5.8-8.5,8.9-12.7c1.2-1.6,2.4-3.2,3.9-4.6c1.9-1.9,4.1-3.5,6.7-4.1c2.2-0.5,5.6-0.5,7.5,1.1
							c2,1.7,1.3,4.6,1,6.8c-0.3,2.6-1.2,5.2-2.1,7.6c-1.6,4.2-3.7,8.5-4,13.1c-0.1,0.8-0.1,1.5,0,2.3c0.4,8.3,9.6,17.6,15.9,7.9
							c1.3-2.1,2.2-4.4,3-6.8c4-11.1,10.4-21.4,12.4-33.1c1.3-7.5,1.7-15,2.1-22.6c1.5-25.9-0.8-32.1-4.1-42.7
							C104.2,814.2,100.3,814.6,96.5,815.1z"/>
					</g>
					<g>
						<path class="st4" d="M69.6,884.3c0.9-1.5,1.8-3,2.8-4.5c1.8-2.6,4-5,6.9-6.3c2.9-1.3,6.6-1.1,8.8,1.1c1.9,1.8,2.4,4.7,2.3,7.4
							c-0.4,6.5-4.2,12.2-7.5,17.8c-1.7,2.9-3.3,5.9-4.3,9.1c0.4-4.5,2.4-8.8,4-13.1c0.9-2.5,1.8-5,2.1-7.6c0.3-2.2,1-5.2-1-6.8
							c-1.9-1.5-5.3-1.6-7.5-1.1C73.8,880.8,71.6,882.4,69.6,884.3z"/>
					</g>
				</g>
				<polygon class="st5" points="193.9,1663 195,1560.6 273.2,1558.3 259.6,1670 208.4,1695.1 				"/>
				<path class="st6" d="M404,698.6c0,0-15.3,124.6-27.5,204.8c-2.9,18.7-5.6,34.9-7.9,46.7c-7.7,39.4-16.7,97.2-25.9,162.4
					C313,1324,281,1614.7,281,1614.7H180.2c0,0-12.8-548.3,12.1-736c5.3-39.7,17.4-180.1,17.4-180.1S404,698.6,404,698.6z"/>
				<path class="st7" d="M376.5,903.3c-2.9,18.7-5.6,34.9-7.9,46.7c-7.7,39.4-16.7,97.2-25.9,162.4c-18.8-22.9-30.5-55.2-30.5-91.1
					C312.3,967,339.1,920.7,376.5,903.3z"/>
				<path class="st6" d="M500.6,698.1c0,0,12.1,140.4,17.4,180.1c24.9,187.7-14.7,735.3-14.7,735.3l-99.6,4.6
					c0,0-34.4-503.4-67.2-670.4c-12.2-62-30.2-249.6-30.2-249.6H500.6z"/>
				<g>
					<path class="st8" d="M133,809.9c0,0-1.7,10.4-4.9,20.8c-0.3,1.1-0.7,2.2-1,3.3c-1.2,3.5-2.5,6.9-4,9.7c-0.6,1.1-1.2,2.1-1.8,3
						c-1.4,2.2-3,3.8-4.7,4.5c-7.9,3.3-51.6-17.4-53.8-22.5c-0.8-1.8-1.1-4.4-1-7.4c0-1.2,0.1-2.5,0.3-3.9c0.4-3.3,1.1-6.9,1.9-10.5
						c0.3-1.2,0.6-2.4,0.9-3.6c2.7-10.2,6.1-19.2,6.1-19.2L133,809.9z"/>
					<g>
						<path class="st9" d="M128.1,830.7c-0.3,1.1-0.7,2.2-1,3.3c-2.1-0.7-4.3-1.4-6.4-2.1c-12.1-4-24.1-8.5-35.7-13.9
							c-5.8-2.7-11.5-5.6-17-8.8c-1.3-0.7-2.6-1.5-3.9-2.2c0.3-1.2,0.6-2.4,0.9-3.6c2.6,1.6,5.3,3.1,7.9,4.6
							C90.4,817.7,109.1,824.7,128.1,830.7z"/>
						<path class="st9" d="M123.1,843.7c-0.6,1.1-1.2,2.1-1.8,3c-1.5-0.5-2.9-0.9-4.4-1.4c-19-6.2-38.2-13.3-55.1-24
							c0-1.2,0.1-2.5,0.3-3.9c1.5,0.9,2.9,1.9,4.4,2.7c11.2,6.7,23.2,11.8,35.4,16.3C108.9,839.1,116,841.4,123.1,843.7z"/>
					</g>
				</g>
				<polygon points="318.1,317.5 403.2,320.9 378.8,371.3 326.1,369.2 				"/>
				<path class="st5" d="M763.4,519.6c-1.7,0.2-4.2-0.1-5.7,0.7c-2.1,1.2-4,4-5.7,5.7c-4.7,4.8-9.6,9.4-14.3,14.2
					c-1.3,1.3-2.6,2.7-3.8,4c-10.8-12.3-21.5-24.7-32.1-37.2c11.5-8.8,20.4-15.4,24.3-18.2c1.9-1.3,3.8-2.7,5.8-4
					c0.4-5.3,1.3-10.6,2.7-15.8c1.8-6.3,5.1-11.5,7.5-17.6c4.1-10.5,6.1-21.8,9.4-32.6c1-3.3,2.2-6.8,4.6-9.3
					c0.1-0.1,0.2-0.2,0.3-0.3c2.4-2.3,6.3-3.5,9.3-1.9c2.3,1.3,3.5,3.9,3.8,6.5c0.5,4.6-0.5,9.6-1.4,14c-0.6,2.9-1.5,5.9-1.5,8.9
					c0,4.5,2.8,1.6,4.9-0.5c2.3-2.4,4.3-5,6.1-7.7c3.7-5.3,6.8-11.1,10.2-16.5l23.5-37.1c2.3-3.7,8.4-3.6,10.9-0.1
					c3.4,4.8-2.1,10.7-4.2,14.9c-3.6,6.9-7.2,13.8-10.7,20.7c-2.5,5-5.1,9.9-7.6,14.9c-1.5,2.9-4.1,5.4-5.6,8.3
					c-0.6,1.1-2.4,4-1.1,5.2c1.3,1.3,3.3-1.2,4.3-2c2.3-1.9,4.5-3.9,6.7-6c4.2-4,8.3-8.1,12.4-12.3c8.3-8.5,16.4-17.1,25.7-24.5
					c0.4-0.3,0.8-0.6,1.2-0.8c2.7-2.5,7.4-2.1,9.6,0.9c4.1,5.6-3.7,11.9-7,15.7c-5.3,6.2-10.9,12.1-16.2,18.3
					c-4,4.6-8,9.2-11.9,13.8c-1.4,1.6-9.5,7.5-7.5,10.3c1.7,2.4,7.6-3.3,9.1-4.1c3.6-2.1,7.2-4.2,10.8-6.4
					c7.1-4.3,14.2-8.8,21.1-13.4c0.6-0.4,1.3-0.7,2-0.9c1.9-1.4,3.8-2.8,5.7-4.2c3.4-2.5,8.5-0.7,9.7,3.4c1.7,5.9-5.3,9.1-9.1,11.9
					c-6,4.4-12.1,8.7-18.3,13c-4.3,3-8.7,6-13.1,9c-2.3,1.6-13.1,7.7-8.2,11.2c1,0.7,3.3-0.2,4.3-0.4c3.1-0.8,6-2.2,9-3.4
					c8-3.1,16-6.1,24-9c4.4-1.6,9.2,2.3,8.5,7c-1,6.8-13.1,8.4-18.3,10.2c-8.3,2.9-16.5,6-24.5,9.5c-1.4,0.6-2.8,1.2-4,2.1
					c-1.5,1.2-2.7,2.8-3.9,4.3c-11.1,13.7-28.2,23-45.4,26.5C767.7,519,765.5,519.3,763.4,519.6z"/>
				<path class="st10" d="M198.9,831.5c26.8,20.2,320.4,17.7,320.2,3.2c-0.5-35.1-5.9-73-10.9-110.2c-2.9-21-5.6-41.7-7.2-61.5
					c-3.9-46.7-17-193.7-18.8-219.7c-1.2-17-4.2-55.4-4.5-60c-2.2-1.5-4.4-3-6.6-4.4c-0.1,0-0.1-0.1-0.2-0.1c-1.6-1-3.5-2.1-5.6-3.3
					l0,0c-8.7-5.1-20.2-11.6-27.8-15.2c-19-9-38.5-14.5-59-17.5c-34.2-4.9-68,1-92.9,8c-22.3,6.2-37.4,13.3-39,14
					c-0.1,0-0.1,0.1-0.1,0.1s14.2,6.1,18,29.5c16.2,99.7-32.7,179-32.7,179s-12.4,86.8-19.6,131
					C207.5,732.6,195.2,828.6,198.9,831.5z"/>
				<g>
					<path class="st5" d="M316.6,270.5c0.9,5.2,1.8,10.3,2.8,15.5c0.1,0.3,0.1,0.6,0.2,0.9c0,0.1,0.1,0.3,0.1,0.4
						c1.2,6.8,2.4,13.7,3.3,20.5c0.3,2.8,0.6,5.5,0.8,8.3c0.2,3.1,0.3,6.2,0.4,9.3c0.1,6-0.1,11.9-0.3,17.9
						c-0.1,3.4-0.2,6.7-0.2,10.1c0,3.9-1.7,8.1-0.1,11.9c2,4.8,6.6,7.3,10.6,10.1c4.4,3.1,9.2,5.6,14.2,7.4c9.8,3.7,21,5.1,31.2,1.9
						c19.5-6,14.3-27.4,14.3-42.9v-4.3v-11.4l-0.1-16.2c-5.6-1.4-10.8-3.9-16-6.4c-17.1-8.4-34.2-17-50.9-26.2
						c-0.4-0.2-0.9-0.5-1.3-0.7C322.3,274.8,319.5,273.2,316.6,270.5z"/>
				</g>
				<g>
					<path class="st4" d="M393.8,341.9c-19.3-5-37.9-12.7-54.7-23.3c-5.4-3.3-10.9-6.9-16.2-10.8c-0.8-6.9-2.1-13.7-3.3-20.5
						c-1-5.6-2-11.2-3-16.8c3.2,3.1,6.3,4.8,10.3,7c16.7,9.2,33.7,17.8,50.9,26.2c5.2,2.5,10.4,5,16,6.4V341.9z"/>
				</g>
				<g>
					<g>
						<path class="st5" d="M326.9,274.7c-8.8,6.1-20.9,7.2-30.6,2.6c-8.2-3.9-14.3-11.8-16.3-20.6c-0.4-1.6-0.6-3.2-0.7-4.9
							c-0.1-2.9,0.2-5.8,1.2-8.6c2.5-6.7,9.3-11.5,16.4-11.9c7.1-0.5,14.3,3.2,18.6,8.9l4.4,13.3L326.9,274.7z"/>
					</g>
				</g>
				<polygon class="st5" points="484.3,1663 487.3,1582.8 418.1,1585.8 419.1,1670 470.2,1695.1 				"/>
				<path class="st11" d="M398.4,1704.1c1.8-7.3,5.9-13.8,9-20.6c1-2.2,9.4-22.3,10.7-22.2l1.6,0.2l51.9,7.5l12.7-17.5l1.8-2.4
					c8.9,4.5,17.9,9,26.8,13.5c17.8,9,35.6,17.9,53.4,26.9c13.2,6.6,26.4,13.3,39.5,19.9c3.3,1.7,5.8,4.8,6.5,8.4
					c0.7,3.7-2.9,10.9-8.3,12.2c-10.4,2.4-24.4,3.1-34.9,3.6c-21.2,0.8-40.4-0.2-61.6,0c-21.1,0.1-40.8-0.8-61.5-2
					c-8.2-0.5-16.5-1-25.1-1.5c-0.4,0-0.8-0.1-1.3-0.1c-5.7-0.3-14-1.2-18.3-5.2C395.6,1719.7,396.8,1710.7,398.4,1704.1z"/>
				<path class="st11" d="M280.3,1704.1c-1.8-7.3-5.9-13.8-9-20.6c-1-2.2-9.4-22.3-10.7-22.2l-1.6,0.2l-51.9,7.5l-12.7-17.5
					l-1.8-2.4c-8.9,4.5-17.9,9-26.8,13.5c-17.8,9-35.6,17.9-53.4,26.9c-13.2,6.6-26.4,13.3-39.5,19.9c-3.3,1.7-5.8,4.8-6.5,8.4
					c-0.7,3.7,2.9,10.9,8.3,12.2c10.4,2.4,24.4,3.1,34.9,3.6c21.2,0.8,40.4-0.2,61.6,0c21.1,0.1,40.8-0.8,61.5-2
					c8.2-0.5,16.5-1,25.1-1.5c0.4,0,0.8-0.1,1.3-0.1c5.7-0.3,14-1.2,18.3-5.2C283.1,1719.7,281.9,1710.7,280.3,1704.1z"/>
				<g>
					<path class="st8" d="M329,868.5c0,0-0.6,12.4-2.9,23.4c-0.2,1.1-0.5,2.3-0.7,3.3c-0.7,2.9-1.5,5.5-2.5,7.7
						c-0.6,1.2-1.2,2.3-1.8,3.1c-0.4,0.6-0.9,1.1-1.4,1.4c-3.9,3.1-53-7.4-78.6-17.2c-23.3-8.9-59.8-22.7-61.3-29.4
						c-0.3-1.4-0.4-3.1-0.3-5c0-1.2,0.2-2.5,0.3-3.8l0,0c0.3-2.3,0.7-4.9,1.2-7.5c0.2-1.2,0.5-2.4,0.8-3.6
						c2.4-10.9,5.9-21.5,5.9-21.5L329,868.5z"/>
					<g>
						<path class="st9" d="M322.8,902.9c-0.6,1.2-1.2,2.3-1.8,3.1c-7.4-1.7-14.8-3.5-22.1-5.4c-26-6.8-51.6-15.1-76.7-24.7
							c-12.5-4.7-24.9-9.6-36.4-16.4c-2.1-1.3-4.2-2.5-6.4-3.7c0-1.2,0.2-2.5,0.3-3.8c4.3,2.4,8.4,5,12.7,7.4
							c11.4,6.4,24,10.7,36.2,15.3c12.4,4.6,24.8,8.9,37.4,12.8C284.8,893.5,303.7,898.6,322.8,902.9z"/>
						<path class="st9" d="M326.1,891.9c-0.2,1.1-0.5,2.3-0.7,3.3c-8.5-1.9-16.9-3.9-25.3-6.1c-26-6.8-51.6-15.1-76.7-24.7
							c-12.5-4.7-24.9-9.6-36.4-16.4c-2-1.2-4-2.3-6-3.5c0.2-1.2,0.5-2.4,0.8-3.6c4,2.3,7.9,4.7,11.9,6.9
							c11.4,6.4,24,10.7,36.2,15.3c12.4,4.6,24.8,8.9,37.4,12.8C286.6,882.2,306.3,887.5,326.1,891.9z"/>
					</g>
				</g>
				<path class="st12" d="M329.6,882.1c-9.2,13.8-104.2-27.2-135.7-40.2c-23.9-9.9-15.2-24.1-12.6-42.5
					c7.5-54.5,16.7-101.3,25.7-151.5c3.4-19.1,6.8-38.7,10.1-59.4c0.1-0.9,0.3-1.7,0.4-2.5c-4,13.3-11.3,40.6-14.4,50.1
					c-17.2,54-44.8,181.7-73.6,186.3c-5,0.8-59.6-18.4-62.1-25.3c-17.2-48.3,36.2-225.4,44.8-247.2c14.9-37.9,62.2-135.6,74.7-151.8
					c24.1-31,102.5-49.3,106.4-50.4c11.3-3.2,22.7-6.1,34.2-8.6c11.4,26.9,14.1,53.4,17,82.5C360,576.6,336.8,871.3,329.6,882.1z"/>
				<g>
					<polygon class="st8" points="354.9,372.7 354,377.1 353.2,381.5 351.8,388.9 350.9,393.3 348.6,405.4 347.8,409.6 344.9,425.1 
						297.4,346.2 300.7,341.7 302.9,338.5 306.9,333 309.2,329.9 312.5,325.2 314.8,322.1 318.1,317.5 					"/>
					<g>
						<path class="st9" d="M354,377.1l-0.8,4.5c-7.5-9.5-14.8-19.1-21.9-28.8c-6.6-8.9-13.5-17.8-18.7-27.6l2.2-3.1
							c2.6,5.1,5.8,9.9,9.1,14.7C333.6,350.4,343.7,363.9,354,377.1z"/>
						<path class="st9" d="M351.8,388.9l-0.8,4.4c-8.5-10-16.8-20.1-24.7-30.6c-7.1-9.4-13.8-19.2-19.3-29.7l2.3-3.1
							c2.6,5,5.4,9.9,8.4,14.6c8.3,12.9,18.1,24.9,27.8,36.8C347.5,383.8,349.6,386.4,351.8,388.9z"/>
						<path class="st9" d="M348.6,405.4l-0.8,4.2c-9.9-10.7-18.9-22.2-27.2-34.2c-4.8-7.1-9.4-14.4-13.6-21.8
							c-2.1-3.8-4.2-7.6-6.2-11.4c-0.1-0.2-0.2-0.3-0.3-0.5l2.3-3.2c0.6,1.1,1.2,2.3,1.7,3.4c2.2,4.3,4.5,8.5,6.9,12.7
							c8.5,14.7,18.3,28.7,29.2,41.8C343.4,399.5,346,402.5,348.6,405.4z"/>
					</g>
				</g>
				<path class="st13" d="M224.9,611.9c-5,12.2-10.9,24.6-18,36c3.4-19.1,6.8-38.7,10.1-59.4c2.1-4.7,22.6-51.9,28.6-100.8
					C247.9,547.5,235.3,586.6,224.9,611.9z"/>
				<g>
					<path class="st8" d="M731.7,550.2c0,0,9-4.4,17.7-10.1c0.9-0.6,1.8-1.2,2.7-1.8c2.9-2,5.6-4.2,7.8-6.3c0.8-0.8,1.6-1.6,2.3-2.4
						c1.6-1.9,2.6-3.8,2.8-5.5c0.9-8.1-29.9-42.5-35.2-43.2c-1.9-0.3-4.3,0.2-7,1.1c-1.1,0.4-2.3,0.8-3.4,1.3
						c-2.9,1.3-6,2.9-9.1,4.6c-1,0.6-2,1.2-3,1.8c-8.6,5.2-15.9,10.8-15.9,10.8L731.7,550.2z"/>
					<g>
						<path class="st9" d="M749.5,540.1c0.9-0.6,1.8-1.2,2.7-1.8c-1.2-1.8-2.4-3.5-3.6-5.3c-7-10-14.3-19.8-22.4-28.9
							c-4-4.6-8.3-9-12.7-13.2c-1-1-2-2-3.1-2.9c-1,0.6-2,1.2-3,1.8c2.2,1.9,4.3,4,6.4,6C727.3,509.1,738.8,524.3,749.5,540.1z"/>
						<path class="st9" d="M760,532c0.8-0.8,1.6-1.6,2.3-2.4c-0.8-1.2-1.6-2.4-2.5-3.6c-10.8-15.7-22.5-31.3-36.9-43.9
							c-1.1,0.4-2.3,0.8-3.4,1.3c1.3,1.1,2.5,2.2,3.7,3.3c9.2,8.4,17.1,18,24.5,27.9C751.9,520.3,756,526.1,760,532z"/>
					</g>
				</g>
				<g>
					<path class="st8" d="M390.8,868.5c0,0,0.6,12.4,2.9,23.4c0.2,1.1,0.5,2.3,0.7,3.3c0.7,2.9,1.5,5.5,2.5,7.7
						c0.6,1.2,1.2,2.3,1.8,3.1c0.4,0.6,0.9,1.1,1.4,1.4c3.9,3.1,53-7.4,78.6-17.2c23.3-8.9,59.8-22.7,61.3-29.4
						c0.3-1.4,0.4-3.1,0.3-5c0-1.2-0.2-2.5-0.3-3.8l0,0c-0.3-2.3-0.7-4.9-1.2-7.5c-0.2-1.2-0.5-2.4-0.8-3.6
						c-2.4-10.9-5.9-21.5-5.9-21.5L390.8,868.5z"/>
					<g>
						<path class="st9" d="M397,902.9c0.6,1.2,1.2,2.3,1.8,3.1c7.4-1.7,14.8-3.5,22.1-5.4c26-6.8,51.6-15.1,76.7-24.7
							c12.5-4.7,24.9-9.6,36.4-16.4c2.1-1.3,4.2-2.5,6.4-3.7c0-1.2-0.2-2.5-0.3-3.8c-4.3,2.4-8.4,5-12.7,7.4
							c-11.4,6.4-24,10.7-36.2,15.3c-12.4,4.6-24.8,8.9-37.4,12.8C435,893.5,416.1,898.6,397,902.9z"/>
						<path class="st9" d="M393.7,891.9c0.2,1.1,0.5,2.3,0.7,3.3c8.5-1.9,16.9-3.9,25.3-6.1c26-6.8,51.6-15.1,76.7-24.7
							c12.5-4.7,24.9-9.6,36.4-16.4c2-1.2,4-2.3,6-3.5c-0.2-1.2-0.5-2.4-0.8-3.6c-4,2.3-7.9,4.7-11.9,6.9
							c-11.4,6.4-24,10.7-36.2,15.3c-12.4,4.6-24.8,8.9-37.4,12.8C433.2,882.2,413.5,887.5,393.7,891.9z"/>
					</g>
				</g>
				<path class="st12" d="M744.7,547.5c-21,29.4-175.7,196.6-223.1,98.9c-0.7-1.4-1.5-3.6-2.5-6.3c-5.1-14.2-13.3-43-16.7-54.2
					c0.1,0.9,0.3,1.7,0.4,2.5c0.3,1.7,0.5,3.3,0.8,5c3,18.8,6.2,36.8,9.3,54.4c9,50.1,18.1,97,25.7,151.5
					c2.6,18.5,11.2,32.7-12.6,42.5c-31.5,13-126.5,54-135.7,40.2c-4.6-6.9-0.9-129.3-4.4-256.4c-2-73.5-16.3-147.4-10.6-204.2
					c2.9-29.1,5.7-55.6,17-82.5c11.5,2.6,22.9,5.4,34.2,8.6c3.9,1.1,82.2,19.3,106.4,50.4c12.6,16.2,66.9,150.6,66.9,150.6
					s46.5-34.7,102.3-58.6C710.2,486.5,750.4,539.4,744.7,547.5z"/>
				<g>
					<polygon class="st8" points="365,372.7 365.8,377.1 366.6,381.5 368,388.9 368.9,393.3 371.2,405.4 372,409.6 374.9,425.1 
						422.5,346.2 419.2,341.7 416.9,338.5 412.9,333 410.7,329.9 407.3,325.2 405,322.1 401.8,317.5 					"/>
					<g>
						<path class="st9" d="M365.8,377.1l0.8,4.5c7.5-9.5,14.8-19.1,21.9-28.8c6.6-8.9,13.5-17.8,18.7-27.6l-2.2-3.1
							c-2.6,5.1-5.8,9.9-9.1,14.7C386.2,350.4,376.1,363.9,365.8,377.1z"/>
						<path class="st9" d="M368,388.9l0.8,4.4c8.5-10,16.8-20.1,24.7-30.6c7.1-9.4,13.8-19.2,19.3-29.7l-2.3-3.1
							c-2.6,5-5.4,9.9-8.4,14.6c-8.3,12.9-18.1,24.9-27.8,36.8C372.3,383.8,370.2,386.4,368,388.9z"/>
						<path class="st9" d="M371.2,405.4l0.8,4.2c9.9-10.7,18.9-22.2,27.2-34.2c4.8-7.1,9.4-14.4,13.6-21.8c2.1-3.8,4.2-7.6,6.2-11.4
							c0.1-0.2,0.2-0.3,0.3-0.5l-2.3-3.2c-0.6,1.1-1.2,2.3-1.7,3.4c-2.2,4.3-4.5,8.5-6.9,12.7c-8.5,14.7-18.3,28.7-29.2,41.8
							C376.4,399.5,373.8,402.5,371.2,405.4z"/>
					</g>
				</g>
				<g>
					<path class="st5" d="M426.9,290.3c-4.3,10.4-10.1,19.8-19.8,25.9c-8.6,5.4-18.9,8-29,7.6c-11.2-0.5-21.9-4.4-31.4-10.4
						c-4.7-3-9.2-6.5-13.2-10.3c-7-6.7-12.9-14.6-18-22.8c-8.3-13.5-14.9-28.8-18.2-44.7c-3.8-17.9-3.2-36.5,4.1-53.7
						c3-7,7.1-13.5,12.2-19.2c21.5-23.9,58.4-28,84.6-9.5c13.7,9.7,23.9,24.2,29.3,40c1.7,5,3.2,10.1,4.4,15.3
						C438.2,235.5,437.4,264.7,426.9,290.3z"/>
				</g>
				<g>
					<g>
						<g>
							<path class="st14" d="M372.6,242.3c-1.4,0.1-3.3-2.2-3.9-5.5c-0.3-1.8-0.1-3.5,0.5-4.8c0.2-0.5,0.8-1.5,1.6-1.7h0.1
								c1.4-0.1,3.3,2.2,3.9,5.5c0.3,1.8,0.1,3.5-0.5,4.8C374.1,241.1,373.5,242.1,372.6,242.3C372.7,242.2,372.6,242.2,372.6,242.3
								z"/>
							<path class="st14" d="M414.8,238.2c-1.2,0.1-3.2-1.9-3.7-5.3c-0.3-1.7-0.1-3.4,0.5-4.7c0.4-0.9,1-1.5,1.5-1.6h0.1
								c1.2-0.1,3.2,1.9,3.7,5.3c0.3,1.7,0.1,3.4-0.5,4.7C416,237.5,415.4,238.1,414.8,238.2C414.8,238.2,414.8,238.2,414.8,238.2
								L414.8,238.2z"/>
							<path class="st14" d="M393.6,245.8c1.1-1.2,3-1.7,4.7-1.4c1.8,0.3,3.4,1.6,4.3,3.2c0.9,1.6,1,3.7,0.2,5.3
								c-0.7,1.6-2.2,2.9-3.9,3.1c1.1-1.1,1.8-2.4,2-3.7c0.2-1.3,0-2.5-0.5-3.6c-0.6-1.1-1.4-2-2.6-2.5
								C396.6,245.7,395.2,245.5,393.6,245.8z"/>
						</g>
						<g>
							<path class="st14" d="M373.9,211.9c-2-1-4.2-1.6-6.5-1.7c-2.4-0.1-4.8,0.2-6.9,1.1c-1.7,0.7-2.5,2.6-1.9,4.2
								c0.3,0.9,1,1.5,1.8,1.9c0.3,0.1,0.7,0.2,1,0.2c0.5,0,0.9,0,1.4-0.2c1.3-0.5,2.8-0.7,4.2-0.7c1.4,0.1,2.8,0.4,4,1
								c0.4,0.2,0.8,0.3,1.3,0.3c1.3,0.1,2.5-0.6,3.1-1.8C376.2,214.7,375.5,212.7,373.9,211.9z"/>
							<path class="st14" d="M414.1,205.1c-0.8-0.2-1.5-0.3-2.3-0.3c-3.5-0.2-7,0.8-9.8,2.7c-1.5,1-1.9,3.1-0.9,4.6
								c0.4,0.7,1.1,1.1,1.9,1.3c0.2,0.1,0.4,0.1,0.7,0.1c0.7,0,1.4-0.2,2-0.6c1.6-1.1,3.7-1.7,5.7-1.6c0.5,0,0.9,0.1,1.3,0.2
								c0.2,0,0.3,0.1,0.5,0.1c1.6,0.1,3-1,3.4-2.6C417,207.2,415.9,205.5,414.1,205.1z"/>
						</g>
						<path class="st9" d="M371.8,232.5c-2.1-0.4-2.7,2.8-0.7,3.2C373.2,236.1,373.8,232.9,371.8,232.5z"/>
						<path class="st9" d="M414.6,228.3c-2.1-0.4-2.7,2.8-0.7,3.2C416,232,416.7,228.8,414.6,228.3z"/>
						<g>
							<path class="st15" d="M419.2,262c0.6,5.7-0.4,11.1-2.7,15.7c-3.5,7.4-10.2,12.7-18.2,13.5c-8.2,0.8-15.9-3.2-20.9-10
								c-2.9-4-4.9-8.9-5.4-14.4c0-0.2,0-0.4,0-0.6l47.1-4.8C419.1,261.6,419.2,261.8,419.2,262z"/>
							<path class="st9" d="M417.2,261.6c-4.7,6.1-12.1,10.4-20.7,11.3c-8.6,0.9-16.7-1.9-22.6-6.9L417.2,261.6z"/>
							<path class="st16" d="M416.5,277.7c-3.5,7.4-10.2,12.7-18.2,13.5c-8.2,0.8-15.9-3.2-20.9-10c7.9-2.6,16.1-4,24.4-4.3
								C406.7,276.8,411.7,277.1,416.5,277.7z"/>
						</g>
					</g>
					<g>
						<path class="st4" d="M370,255.2c0.3,5.4-5.4,10-12.7,10.4s-13.4-3.6-13.7-9c-0.3-5.4,5.4-10,12.7-10.4
							C363.5,245.8,369.7,249.8,370,255.2z"/>
						<path class="st4" d="M431.3,246.5c0.2,3.6-3.6,6.8-8.5,7c-4.9,0.3-9.1-2.5-9.2-6.1c-0.2-3.6,3.6-6.8,8.5-7
							C427,240.1,431.1,242.9,431.3,246.5z"/>
					</g>
				</g>
				<path class="st13" d="M519.1,640.1c-5.1-14.2-13.3-43-16.7-54.2c0.1,0.9,0.3,1.7,0.4,2.5c0.3,1.7,0.5,3.3,0.8,5l-1.5-8.1
					l-8.3-124.9c0,0,26.3,117.9,26.7,157.9C520.4,622.5,519.8,631.3,519.1,640.1z"/>
				<polygon class="st17" points="173.2,1569.8 173.2,1618 287,1620.4 291.6,1572.2 				"/>
				<polygon class="st17" points="395.1,1575 397.4,1622.7 509.9,1620.1 514.7,1569.8 				"/>
				<path class="st2" d="M293,167.8c-2.1-8.3,0.6-17.6,6-23.9s13.1-10,21.1-11.3c7.9-1.3,16-0.4,23.9,1.2c7.6,1.5,15.2,3.7,22.9,3.3
					c9.4-0.6,18.6-5.4,24.8-13c5.9-7.2,18.6-6.2,26.2-1.1s15.2,13.9,16.8,23.5c1.5,9.1,0.7,24.4-13.7,32.8
					c-16.9,9.9-69.9,6.4-77.1,6.2s-14.9,1.7-19.6,7.5c-9.4,11.5-11.2,28.7-11.9,44.1c-5.5-3.1-10.8-4.4-17.1-4.4
					c-2.7,0-5.7,0.2-9.1,2.7c-5.9-11.5-9.4-23.8-12.1-36.5c-1.3-6.3-2.3-12.9-1.5-19.3c0.3-2.4,0.9-4.9,2.2-6.9c2-3,5.4-4.7,8.8-5.1
					C287.2,167,289.7,166.8,293,167.8z"/>
			</g>
		</g>
	</g>
</g>
<g>
	<path class="st18" d="M373.6,513.6c-0.7,0-1.3-0.6-1.3-1.3s0.6-1.3,1.3-1.3c2.3,0,4.6,0,6.9-0.1c0.7,0,1.3,0.5,1.3,1.3
		c0,0.7-0.5,1.3-1.3,1.3C378.3,513.6,375.9,513.6,373.6,513.6z M366.7,513.5L366.7,513.5c-2.3-0.1-4.7-0.2-7-0.3
		c-0.7,0-1.3-0.6-1.2-1.4c0-0.7,0.6-1.3,1.4-1.2c2.3,0.1,4.6,0.2,6.9,0.3c0.7,0,1.3,0.6,1.3,1.3C368,513,367.4,513.5,366.7,513.5z
		 M387.4,513.2c-0.7,0-1.2-0.5-1.3-1.2c0-0.7,0.5-1.3,1.2-1.4c2.3-0.1,4.6-0.3,6.8-0.5c0.7-0.1,1.3,0.5,1.4,1.2
		c0.1,0.7-0.5,1.3-1.2,1.4C392.1,512.9,389.8,513.1,387.4,513.2C387.5,513.2,387.4,513.2,387.4,513.2z M353,512.7L353,512.7
		c-2.4-0.2-4.7-0.4-7-0.7c-0.7-0.1-1.2-0.7-1.1-1.4c0.1-0.7,0.7-1.2,1.4-1.1c2.3,0.3,4.6,0.5,6.8,0.7c0.7,0.1,1.2,0.7,1.2,1.4
		C354.2,512.2,353.6,512.7,353,512.7z M401.2,512c-0.6,0-1.2-0.5-1.3-1.1c-0.1-0.7,0.4-1.3,1.1-1.4c2.3-0.3,4.5-0.6,6.8-0.9
		c0.7-0.1,1.4,0.4,1.5,1.1c0.1,0.7-0.4,1.4-1.1,1.5C405.9,511.5,403.6,511.8,401.2,512C401.3,512,401.2,512,401.2,512z M339.2,511.2
		c-0.1,0-0.1,0-0.2,0c-2.3-0.3-4.6-0.7-6.9-1.1c-0.7-0.1-1.2-0.8-1.1-1.5c0.1-0.7,0.8-1.2,1.5-1.1c2.2,0.4,4.5,0.7,6.8,1.1
		c0.7,0.1,1.2,0.8,1.1,1.5C340.4,510.7,339.9,511.2,339.2,511.2z M414.8,510.1c-0.6,0-1.2-0.4-1.3-1.1c-0.1-0.7,0.4-1.4,1.1-1.5
		c2.2-0.4,4.5-0.8,6.7-1.3c0.7-0.1,1.4,0.3,1.5,1c0.1,0.7-0.3,1.4-1,1.5c-2.3,0.5-4.6,0.9-6.8,1.3
		C415,510.1,414.9,510.1,414.8,510.1z M325.6,508.9c-0.1,0-0.2,0-0.3,0c-2.3-0.5-4.5-0.9-6.8-1.5c-0.7-0.2-1.1-0.9-1-1.5
		c0.2-0.7,0.9-1.1,1.5-1c2.2,0.5,4.5,1,6.7,1.4c0.7,0.1,1.2,0.8,1,1.5C326.8,508.4,326.2,508.9,325.6,508.9z M428.4,507.3
		c-0.6,0-1.1-0.4-1.3-1c-0.2-0.7,0.3-1.4,1-1.5c2.2-0.5,4.5-1.1,6.7-1.6c0.7-0.2,1.4,0.2,1.6,0.9c0.2,0.7-0.2,1.4-0.9,1.6
		c-2.2,0.6-4.5,1.1-6.7,1.7C428.6,507.3,428.5,507.3,428.4,507.3z M312.2,505.8c-0.1,0-0.2,0-0.3,0c-2.2-0.6-4.5-1.2-6.7-1.9
		c-0.7-0.2-1.1-0.9-0.9-1.6c0.2-0.7,0.9-1.1,1.6-0.9c2.2,0.6,4.4,1.3,6.6,1.8c0.7,0.2,1.1,0.9,0.9,1.6
		C313.3,505.4,312.8,505.8,312.2,505.8z M441.7,503.8c-0.6,0-1.1-0.4-1.2-0.9c-0.2-0.7,0.2-1.4,0.9-1.6c2.2-0.6,4.4-1.3,6.6-2
		c0.7-0.2,1.4,0.1,1.6,0.8c0.2,0.7-0.2,1.4-0.8,1.6c-2.2,0.7-4.4,1.4-6.6,2C441.9,503.8,441.8,503.8,441.7,503.8z M298.9,501.9
		c-0.1,0-0.3,0-0.4-0.1c-2.2-0.7-4.4-1.5-6.6-2.2c-0.7-0.2-1-1-0.8-1.6c0.2-0.7,1-1,1.6-0.8c2.1,0.8,4.3,1.5,6.5,2.2
		c0.7,0.2,1,0.9,0.8,1.6C300,501.5,299.5,501.9,298.9,501.9z M454.8,499.6c-0.5,0-1-0.3-1.2-0.9c-0.2-0.7,0.1-1.4,0.8-1.6
		c2.1-0.8,4.3-1.6,6.4-2.4c0.7-0.3,1.4,0.1,1.7,0.7c0.3,0.7-0.1,1.4-0.7,1.7c-2.1,0.8-4.3,1.7-6.5,2.4
		C455.1,499.6,455,499.6,454.8,499.6z M285.9,497.2c-0.2,0-0.3,0-0.5-0.1c-2.2-0.8-4.3-1.7-6.4-2.6c-0.7-0.3-1-1-0.7-1.7
		c0.3-0.7,1-1,1.7-0.7c2.1,0.9,4.2,1.8,6.4,2.6c0.7,0.3,1,1,0.7,1.7C286.9,496.9,286.4,497.2,285.9,497.2z M467.7,494.6
		c-0.5,0-1-0.3-1.2-0.8c-0.3-0.7,0-1.4,0.7-1.7c2.1-0.9,4.2-1.8,6.3-2.8c0.6-0.3,1.4,0,1.7,0.6s0,1.4-0.6,1.7
		c-2.1,1-4.2,1.9-6.3,2.8C468,494.5,467.8,494.6,467.7,494.6z M273.2,491.8c-0.2,0-0.4,0-0.5-0.1c-2.1-1-4.2-2-6.3-3
		c-0.6-0.3-0.9-1.1-0.6-1.7c0.3-0.6,1.1-0.9,1.7-0.6c2,1,4.1,2,6.2,2.9c0.6,0.3,0.9,1.1,0.6,1.7
		C274.1,491.6,273.7,491.8,273.2,491.8z M480.2,488.8c-0.5,0-0.9-0.3-1.2-0.7c-0.3-0.6-0.1-1.4,0.6-1.7c2-1,4.1-2.1,6.1-3.1
		c0.6-0.3,1.4-0.1,1.7,0.5s0.1,1.4-0.5,1.7c-2,1.1-4.1,2.1-6.2,3.1C480.6,488.8,480.4,488.8,480.2,488.8z M260.8,485.7
		c-0.2,0-0.4,0-0.6-0.1c-2-1.1-4.1-2.2-6.1-3.3c-0.6-0.4-0.8-1.1-0.5-1.8c0.4-0.6,1.1-0.8,1.8-0.5c2,1.1,4,2.2,6,3.3
		c0.6,0.3,0.9,1.1,0.5,1.7C261.7,485.5,261.2,485.7,260.8,485.7z M492.3,482.4c-0.4,0-0.9-0.2-1.1-0.7c-0.4-0.6-0.1-1.4,0.5-1.8
		c2-1.1,4-2.3,5.9-3.5c0.6-0.4,1.4-0.2,1.8,0.4c0.4,0.6,0.2,1.4-0.4,1.8c-2,1.2-4,2.4-6,3.5C492.8,482.4,492.6,482.4,492.3,482.4z
		 M248.7,478.9c-0.2,0-0.5-0.1-0.7-0.2c-2-1.2-4-2.4-5.9-3.7c-0.6-0.4-0.8-1.2-0.4-1.8c0.4-0.6,1.2-0.8,1.8-0.4
		c1.9,1.2,3.9,2.5,5.8,3.6c0.6,0.4,0.8,1.2,0.4,1.8C249.6,478.7,249.2,478.9,248.7,478.9z M504.1,475.3c-0.4,0-0.8-0.2-1.1-0.6
		c-0.4-0.6-0.2-1.4,0.4-1.8c1.9-1.2,3.8-2.5,5.7-3.8c0.6-0.4,1.4-0.3,1.8,0.3c0.4,0.6,0.3,1.4-0.3,1.8c-1.9,1.3-3.8,2.6-5.8,3.8
		C504.6,475.2,504.4,475.3,504.1,475.3z M237.1,471.4c-0.3,0-0.5-0.1-0.7-0.2c-1.9-1.3-3.8-2.6-5.7-4c-0.6-0.4-0.7-1.2-0.3-1.8
		s1.2-0.7,1.8-0.3c1.8,1.3,3.7,2.7,5.6,4c0.6,0.4,0.7,1.2,0.3,1.8C237.9,471.3,237.5,471.4,237.1,471.4z M515.5,467.5
		c-0.4,0-0.8-0.2-1-0.5c-0.4-0.6-0.3-1.4,0.3-1.8c1.8-1.3,3.7-2.7,5.5-4.1c0.6-0.4,1.4-0.3,1.8,0.2c0.4,0.6,0.3,1.4-0.2,1.8
		c-1.8,1.4-3.7,2.8-5.5,4.2C516,467.4,515.8,467.5,515.5,467.5z M225.9,463.3c-0.3,0-0.6-0.1-0.8-0.3c-1.8-1.4-3.6-2.9-5.4-4.3
		c-0.6-0.5-0.6-1.3-0.2-1.8c0.5-0.6,1.3-0.6,1.8-0.2c1.8,1.4,3.6,2.9,5.4,4.3c0.6,0.4,0.7,1.2,0.2,1.8
		C226.7,463.1,226.3,463.3,225.9,463.3z M526.4,459.1c-0.4,0-0.7-0.2-1-0.5c-0.5-0.6-0.4-1.4,0.2-1.8c1.8-1.4,3.5-2.9,5.2-4.4
		c0.5-0.5,1.4-0.4,1.8,0.1c0.5,0.5,0.4,1.4-0.1,1.8c-1.7,1.5-3.5,3-5.3,4.5C527,459,526.7,459.1,526.4,459.1z M215.3,454.6
		c-0.3,0-0.6-0.1-0.8-0.3c-1.7-1.5-3.5-3.1-5.2-4.6c-0.5-0.5-0.6-1.3-0.1-1.8s1.3-0.6,1.8-0.1c1.7,1.5,3.4,3.1,5.1,4.6
		c0.5,0.5,0.6,1.3,0.1,1.8C216,454.4,215.6,454.6,215.3,454.6z M536.8,450.1c-0.3,0-0.7-0.1-1-0.4c-0.5-0.5-0.4-1.3,0.1-1.8
		c1.7-1.5,3.4-3.1,5-4.7c0.5-0.5,1.3-0.5,1.8,0s0.5,1.3,0,1.8c-1.6,1.6-3.3,3.2-5,4.8C537.5,449.9,537.2,450.1,536.8,450.1z
		 M205.1,445.2c-0.3,0-0.6-0.1-0.9-0.4c-1.7-1.6-3.3-3.3-4.9-4.9c-0.5-0.5-0.5-1.3,0-1.8s1.3-0.5,1.8,0c1.6,1.6,3.2,3.3,4.9,4.9
		c0.5,0.5,0.5,1.3,0,1.8C205.8,445.1,205.4,445.2,205.1,445.2z M546.7,440.4c-0.3,0-0.6-0.1-0.9-0.4c-0.5-0.5-0.5-1.3,0-1.8
		c1.6-1.6,3.2-3.3,4.7-5c0.5-0.5,1.3-0.6,1.8-0.1s0.6,1.3,0.1,1.8c-1.6,1.7-3.2,3.4-4.8,5C547.4,440.3,547.1,440.4,546.7,440.4z
		 M195.5,435.3c-0.3,0-0.7-0.1-1-0.4c-1.6-1.7-3.1-3.4-4.6-5.2c-0.5-0.5-0.4-1.4,0.1-1.8c0.5-0.5,1.4-0.4,1.8,0.1
		c1.5,1.7,3,3.4,4.6,5.1c0.5,0.5,0.4,1.3-0.1,1.8C196.1,435.2,195.8,435.3,195.5,435.3z M556.1,430.3c-0.3,0-0.6-0.1-0.8-0.3
		c-0.5-0.5-0.6-1.3-0.1-1.8c1.5-1.7,3-3.5,4.4-5.2c0.5-0.6,1.3-0.6,1.8-0.2c0.6,0.5,0.6,1.3,0.2,1.8c-1.5,1.8-3,3.6-4.5,5.3
		C556.8,430.1,556.4,430.3,556.1,430.3z M186.4,424.9c-0.4,0-0.7-0.2-1-0.5c-1.5-1.8-2.9-3.6-4.3-5.4c-0.4-0.6-0.3-1.4,0.2-1.8
		c0.6-0.4,1.4-0.3,1.8,0.2c1.4,1.8,2.8,3.6,4.3,5.4c0.5,0.6,0.4,1.4-0.2,1.8C187,424.8,186.7,424.9,186.4,424.9z M564.8,419.6
		c-0.3,0-0.6-0.1-0.8-0.3c-0.6-0.4-0.7-1.2-0.2-1.8c1.4-1.8,2.8-3.7,4.1-5.5c0.4-0.6,1.2-0.7,1.8-0.3s0.7,1.2,0.3,1.8
		c-1.4,1.9-2.8,3.7-4.2,5.6C565.6,419.4,565.2,419.6,564.8,419.6z M178,414c-0.4,0-0.8-0.2-1-0.5c-1.4-1.9-2.7-3.8-4-5.7
		c-0.4-0.6-0.3-1.4,0.3-1.8c0.6-0.4,1.4-0.3,1.8,0.3c1.3,1.9,2.6,3.8,4,5.6c0.4,0.6,0.3,1.4-0.3,1.8C178.5,413.9,178.3,414,178,414z
		 M573,408.4c-0.3,0-0.5-0.1-0.7-0.2c-0.6-0.4-0.7-1.2-0.3-1.8c1.3-1.9,2.6-3.8,3.8-5.7c0.4-0.6,1.2-0.8,1.8-0.4
		c0.6,0.4,0.8,1.2,0.4,1.8c-1.2,1.9-2.5,3.9-3.8,5.8C573.8,408.2,573.4,408.4,573,408.4z M170.2,402.6c-0.4,0-0.8-0.2-1.1-0.6
		c-1.2-1.9-2.5-3.9-3.7-5.9c-0.4-0.6-0.2-1.4,0.4-1.8c0.6-0.4,1.4-0.2,1.8,0.4c1.2,1.9,2.4,3.9,3.6,5.8c0.4,0.6,0.2,1.4-0.4,1.8
		C170.7,402.6,170.5,402.6,170.2,402.6z M580.5,396.8c-0.2,0-0.5-0.1-0.7-0.2c-0.6-0.4-0.8-1.2-0.4-1.8c1.2-1.9,2.3-3.9,3.5-5.9
		c0.4-0.6,1.1-0.8,1.8-0.5c0.6,0.4,0.8,1.1,0.5,1.8c-1.1,2-2.3,4-3.5,6C581.3,396.6,580.9,396.8,580.5,396.8z M163.1,390.9
		c-0.4,0-0.9-0.2-1.1-0.7c-1.1-2-2.3-4-3.3-6.1c-0.3-0.6-0.1-1.4,0.5-1.7c0.6-0.3,1.4-0.1,1.7,0.5c1.1,2,2.2,4,3.3,6
		c0.4,0.6,0.1,1.4-0.5,1.8C163.5,390.8,163.3,390.9,163.1,390.9z M587.3,384.8c-0.2,0-0.4,0-0.6-0.2c-0.6-0.3-0.9-1.1-0.5-1.7
		c1.1-2,2.1-4.1,3.1-6.1c0.3-0.6,1.1-0.9,1.7-0.6c0.6,0.3,0.9,1.1,0.6,1.7c-1,2.1-2.1,4.2-3.2,6.2
		C588.2,384.5,587.7,384.8,587.3,384.8z M156.7,378.7c-0.5,0-0.9-0.3-1.2-0.7c-1-2.1-2-4.2-3-6.2c-0.3-0.6,0-1.4,0.6-1.7
		c0.6-0.3,1.4,0,1.7,0.6c0.9,2.1,1.9,4.1,2.9,6.2c0.3,0.6,0.1,1.4-0.6,1.7C157,378.7,156.8,378.7,156.7,378.7z M593.4,372.4
		c-0.2,0-0.4,0-0.5-0.1c-0.6-0.3-0.9-1.1-0.6-1.7c0.9-2.1,1.9-4.2,2.8-6.3c0.3-0.7,1-1,1.7-0.7s1,1,0.7,1.7
		c-0.9,2.1-1.8,4.3-2.8,6.4C594.3,372.1,593.9,372.4,593.4,372.4z M150.9,366.2c-0.5,0-1-0.3-1.2-0.8c-0.9-2.1-1.8-4.3-2.6-6.4
		c-0.3-0.7,0.1-1.4,0.7-1.7c0.7-0.3,1.4,0.1,1.7,0.7c0.8,2.1,1.7,4.2,2.6,6.3c0.3,0.7,0,1.4-0.7,1.7
		C151.3,366.2,151.1,366.2,150.9,366.2z M598.8,359.6c-0.2,0-0.3,0-0.5-0.1c-0.7-0.3-1-1-0.7-1.7c0.8-2.1,1.6-4.3,2.4-6.4
		c0.2-0.7,1-1,1.6-0.8c0.7,0.2,1,1,0.8,1.6c-0.8,2.2-1.6,4.4-2.4,6.5C599.8,359.3,599.3,359.6,598.8,359.6z M145.9,353.4
		c-0.5,0-1-0.3-1.2-0.9c-0.8-2.2-1.5-4.4-2.2-6.6c-0.2-0.7,0.1-1.4,0.8-1.6c0.7-0.2,1.4,0.1,1.6,0.8c0.7,2.2,1.5,4.4,2.2,6.5
		c0.2,0.7-0.1,1.4-0.8,1.6C146.2,353.3,146.1,353.4,145.9,353.4z M603.4,346.6c-0.1,0-0.3,0-0.4-0.1c-0.7-0.2-1-0.9-0.8-1.6
		c0.7-2.2,1.4-4.4,2-6.6c0.2-0.7,0.9-1.1,1.6-0.9c0.7,0.2,1.1,0.9,0.9,1.6c-0.6,2.2-1.3,4.4-2,6.6
		C604.5,346.3,604,346.6,603.4,346.6z M141.6,340.2c-0.6,0-1.1-0.4-1.2-0.9c-0.6-2.2-1.3-4.5-1.9-6.7c-0.2-0.7,0.2-1.4,0.9-1.6
		c0.7-0.2,1.4,0.2,1.6,0.9c0.6,2.2,1.2,4.4,1.8,6.6c0.2,0.7-0.2,1.4-0.9,1.6C141.9,340.2,141.8,340.2,141.6,340.2z M607.3,333.4
		c-0.1,0-0.2,0-0.3,0c-0.7-0.2-1.1-0.9-0.9-1.6c0.6-2.2,1.1-4.4,1.6-6.7c0.2-0.7,0.9-1.1,1.5-1c0.7,0.2,1.1,0.9,1,1.5
		c-0.5,2.2-1.1,4.5-1.7,6.7C608.4,333,607.9,333.4,607.3,333.4z M138.1,326.9c-0.6,0-1.1-0.4-1.3-1c-0.5-2.2-1-4.5-1.5-6.8
		c-0.1-0.7,0.3-1.4,1-1.5s1.4,0.3,1.5,1c0.5,2.2,0.9,4.5,1.5,6.7c0.2,0.7-0.3,1.4-1,1.5C138.3,326.9,138.2,326.9,138.1,326.9z
		 M610.4,319.9c-0.1,0-0.2,0-0.3,0c-0.7-0.1-1.2-0.8-1-1.5c0.5-2.2,0.9-4.5,1.3-6.7c0.1-0.7,0.8-1.2,1.5-1.1s1.2,0.8,1.1,1.5
		c-0.4,2.3-0.8,4.6-1.3,6.8C611.6,319.5,611,319.9,610.4,319.9z M135.4,313.4c-0.6,0-1.2-0.4-1.3-1.1c-0.4-2.3-0.8-4.6-1.1-6.9
		c-0.1-0.7,0.4-1.4,1.1-1.5s1.4,0.4,1.5,1.1c0.3,2.3,0.7,4.5,1.1,6.8c0.1,0.7-0.3,1.4-1.1,1.5C135.5,313.4,135.5,313.4,135.4,313.4z
		 M612.8,306.3c-0.1,0-0.1,0-0.2,0c-0.7-0.1-1.2-0.8-1.1-1.5c0.3-2.3,0.6-4.5,0.9-6.8c0.1-0.7,0.7-1.2,1.4-1.1s1.2,0.7,1.1,1.4
		c-0.3,2.3-0.6,4.6-0.9,6.9C613.9,305.9,613.4,306.3,612.8,306.3z M133.4,299.7c-0.6,0-1.2-0.5-1.3-1.1c-0.3-2.3-0.5-4.6-0.7-6.9
		c-0.1-0.7,0.5-1.3,1.2-1.4s1.3,0.5,1.4,1.2c0.2,2.3,0.4,4.6,0.7,6.8c0.1,0.7-0.4,1.3-1.1,1.4C133.5,299.7,133.5,299.7,133.4,299.7z
		 M614.3,292.6L614.3,292.6c-0.8-0.1-1.3-0.7-1.3-1.4c0.2-2.3,0.4-4.6,0.5-6.8c0-0.7,0.6-1.3,1.4-1.2c0.7,0,1.3,0.6,1.2,1.4
		c-0.1,2.3-0.3,4.6-0.5,6.9C615.5,292.1,615,292.6,614.3,292.6z M132.2,286c-0.7,0-1.2-0.5-1.3-1.2c-0.1-2.3-0.2-4.6-0.3-6.9
		c0-0.7,0.5-1.3,1.3-1.3c0.7,0,1.3,0.5,1.3,1.3c0.1,2.3,0.2,4.6,0.3,6.9C133.6,285.3,133,285.9,132.2,286
		C132.3,286,132.3,286,132.2,286z M615.1,278.8L615.1,278.8c-0.7,0-1.3-0.6-1.3-1.3c0.1-2.3,0.1-4.6,0.1-6.9v-0.4
		c0-0.7,0.6-1.3,1.3-1.3s1.3,0.6,1.3,1.3v0.5c0,2.3,0,4.6-0.1,6.9C616.4,278.3,615.8,278.8,615.1,278.8z M131.8,272.2
		c-0.7,0-1.3-0.6-1.3-1.3v-0.2c0-2.2,0-4.5,0.1-6.7c0-0.7,0.7-1.3,1.3-1.3c0.7,0,1.3,0.6,1.3,1.3c-0.1,2.2-0.1,4.4-0.1,6.6v0.2
		C133.1,271.6,132.6,272.2,131.8,272.2z M615.1,264.6c-0.7,0-1.3-0.6-1.3-1.3c-0.1-2.3-0.2-4.6-0.3-6.9c0-0.7,0.5-1.3,1.2-1.4
		c0.7,0,1.3,0.5,1.4,1.2c0.1,2.3,0.2,4.6,0.3,6.9C616.4,264,615.8,264.6,615.1,264.6L615.1,264.6z M132.2,258.4L132.2,258.4
		c-0.8,0-1.3-0.6-1.3-1.4c0.1-2.3,0.3-4.6,0.5-6.9c0.1-0.7,0.7-1.2,1.4-1.2c0.7,0.1,1.2,0.7,1.2,1.4c-0.2,2.3-0.3,4.6-0.5,6.8
		C133.5,257.8,132.9,258.4,132.2,258.4z M614.3,250.8c-0.7,0-1.2-0.5-1.3-1.2c-0.2-2.3-0.4-4.6-0.7-6.8c-0.1-0.7,0.4-1.3,1.1-1.4
		c0.7-0.1,1.3,0.4,1.4,1.1c0.3,2.3,0.5,4.6,0.7,6.9C615.6,250.1,615,250.7,614.3,250.8L614.3,250.8z M133.4,244.6L133.4,244.6
		c-0.8-0.1-1.3-0.7-1.2-1.4c0.3-2.3,0.6-4.6,0.9-6.9c0.1-0.7,0.7-1.2,1.5-1.1c0.7,0.1,1.2,0.8,1.1,1.5c-0.3,2.2-0.6,4.5-0.9,6.8
		C134.6,244.1,134,244.6,133.4,244.6z M612.7,237.1c-0.6,0-1.2-0.5-1.3-1.1c-0.3-2.3-0.7-4.5-1.1-6.8c-0.1-0.7,0.3-1.4,1.1-1.5
		c0.7-0.1,1.4,0.3,1.5,1.1c0.4,2.3,0.8,4.6,1.1,6.9c0.1,0.7-0.4,1.4-1.1,1.5C612.8,237.1,612.7,237.1,612.7,237.1z M135.3,231
		c-0.1,0-0.1,0-0.2,0c-0.7-0.1-1.2-0.8-1.1-1.5c0.4-2.3,0.8-4.6,1.3-6.8c0.1-0.7,0.8-1.1,1.5-1s1.2,0.8,1,1.5
		c-0.4,2.2-0.9,4.5-1.3,6.7C136.5,230.5,135.9,231,135.3,231z M610.3,223.5c-0.6,0-1.1-0.4-1.3-1c-0.5-2.2-0.9-4.5-1.5-6.7
		c-0.2-0.7,0.3-1.4,1-1.5c0.7-0.2,1.4,0.3,1.5,1c0.5,2.2,1,4.5,1.5,6.8c0.1,0.7-0.3,1.4-1,1.5C610.5,223.5,610.4,223.5,610.3,223.5z
		 M138,217.4c-0.1,0-0.2,0-0.3,0c-0.7-0.2-1.1-0.9-1-1.5c0.5-2.3,1.1-4.5,1.7-6.7c0.2-0.7,0.9-1.1,1.6-0.9s1.1,0.9,0.9,1.6
		c-0.6,2.2-1.1,4.4-1.6,6.7C139.1,217,138.6,217.4,138,217.4z M607.2,210.1c-0.6,0-1.1-0.4-1.2-1c-0.6-2.2-1.2-4.4-1.8-6.6
		c-0.2-0.7,0.2-1.4,0.9-1.6s1.4,0.2,1.6,0.9c0.7,2.2,1.3,4.5,1.9,6.7c0.2,0.7-0.2,1.4-0.9,1.6C607.4,210,607.3,210.1,607.2,210.1z
		 M141.5,204.1c-0.1,0-0.2,0-0.4-0.1c-0.7-0.2-1.1-0.9-0.9-1.6c0.6-2.2,1.3-4.4,2-6.6c0.2-0.7,0.9-1,1.6-0.8s1,0.9,0.8,1.6
		c-0.7,2.2-1.4,4.4-2,6.6C142.6,203.7,142.1,204.1,141.5,204.1z M603.3,196.8c-0.5,0-1-0.3-1.2-0.9c-0.7-2.2-1.5-4.3-2.2-6.5
		c-0.2-0.7,0.1-1.4,0.8-1.6s1.4,0.1,1.6,0.8c0.8,2.2,1.5,4.4,2.2,6.6c0.2,0.7-0.1,1.4-0.8,1.6C603.6,196.8,603.4,196.8,603.3,196.8z
		 M145.8,190.9c-0.1,0-0.3,0-0.4-0.1c-0.7-0.2-1-1-0.8-1.6c0.8-2.2,1.6-4.4,2.4-6.5c0.3-0.7,1-1,1.7-0.7s1,1,0.7,1.7
		c-0.8,2.1-1.6,4.3-2.4,6.5C146.8,190.6,146.3,190.9,145.8,190.9z M598.6,183.8c-0.5,0-1-0.3-1.2-0.8c-0.8-2.1-1.7-4.2-2.6-6.3
		c-0.3-0.7,0-1.4,0.7-1.7c0.7-0.3,1.4,0,1.7,0.7c0.9,2.1,1.8,4.3,2.6,6.4c0.3,0.7-0.1,1.4-0.7,1.7
		C598.9,183.8,598.8,183.8,598.6,183.8z M150.8,178c-0.2,0-0.3,0-0.5-0.1c-0.7-0.3-1-1-0.7-1.7c0.9-2.1,1.8-4.3,2.8-6.4
		c0.3-0.6,1.1-0.9,1.7-0.6s0.9,1.1,0.6,1.7c-0.9,2.1-1.9,4.2-2.8,6.3C151.8,177.7,151.3,178,150.8,178z M593.2,171.2
		c-0.5,0-1-0.3-1.2-0.8c-1-2.1-1.9-4.1-2.9-6.2c-0.3-0.6-0.1-1.4,0.6-1.7c0.6-0.3,1.4-0.1,1.7,0.6c1,2.1,2,4.2,3,6.2
		c0.3,0.6,0,1.4-0.6,1.7C593.6,171.1,593.4,171.2,593.2,171.2z M156.5,165.4c-0.2,0-0.4,0-0.6-0.1c-0.6-0.3-0.9-1.1-0.6-1.7
		c1-2.1,2.1-4.2,3.2-6.2c0.3-0.6,1.1-0.9,1.7-0.5c0.6,0.3,0.9,1.1,0.5,1.7c-1.1,2-2.1,4.1-3.1,6.1
		C157.5,165.2,157,165.4,156.5,165.4z M587.1,158.8c-0.5,0-0.9-0.2-1.1-0.7c-1.1-2-2.2-4-3.3-6c-0.4-0.6-0.1-1.4,0.5-1.8
		s1.4-0.1,1.8,0.5c1.1,2,2.3,4,3.3,6.1c0.3,0.6,0.1,1.4-0.5,1.7C587.6,158.8,587.3,158.8,587.1,158.8z M163,153.2
		c-0.2,0-0.4-0.1-0.6-0.2c-0.6-0.4-0.8-1.1-0.5-1.8c1.1-2,2.3-4,3.5-6c0.4-0.6,1.2-0.8,1.8-0.4c0.6,0.4,0.8,1.2,0.4,1.8
		c-1.2,2-2.3,4-3.5,5.9C163.9,153,163.4,153.2,163,153.2z M580.3,146.9c-0.4,0-0.9-0.2-1.1-0.6c-1.2-1.9-2.4-3.9-3.6-5.8
		c-0.4-0.6-0.2-1.4,0.4-1.8c0.6-0.4,1.4-0.2,1.8,0.4c1.2,1.9,2.5,3.9,3.7,5.9c0.4,0.6,0.2,1.4-0.4,1.8
		C580.8,146.8,580.6,146.9,580.3,146.9z M170.1,141.4c-0.2,0-0.5-0.1-0.7-0.2c-0.6-0.4-0.8-1.2-0.4-1.8c1.2-1.9,2.5-3.9,3.8-5.8
		c0.4-0.6,1.2-0.7,1.8-0.3c0.6,0.4,0.7,1.2,0.3,1.8c-1.3,1.9-2.6,3.8-3.8,5.7C171,141.2,170.5,141.4,170.1,141.4z M572.9,135.3
		c-0.4,0-0.8-0.2-1.1-0.6c-1.3-1.9-2.6-3.8-4-5.6c-0.4-0.6-0.3-1.4,0.3-1.8s1.4-0.3,1.8,0.3c1.4,1.9,2.7,3.8,4,5.7
		c0.4,0.6,0.3,1.4-0.3,1.8C573.4,135.2,573.1,135.3,572.9,135.3z M177.9,130c-0.3,0-0.5-0.1-0.8-0.2c-0.6-0.4-0.7-1.2-0.3-1.8
		c1.4-1.9,2.8-3.7,4.2-5.6c0.4-0.6,1.2-0.7,1.8-0.2c0.6,0.4,0.7,1.2,0.2,1.8c-1.4,1.8-2.8,3.7-4.1,5.5
		C178.7,129.8,178.3,130,177.9,130z M564.7,124.2c-0.4,0-0.8-0.2-1-0.5c-1.4-1.8-2.8-3.6-4.3-5.4c-0.5-0.6-0.4-1.4,0.2-1.8
		c0.6-0.5,1.4-0.4,1.8,0.2c1.5,1.8,2.9,3.6,4.3,5.4c0.4,0.6,0.3,1.4-0.2,1.8C565.3,124.1,565,124.2,564.7,124.2z M186.4,119
		c-0.3,0-0.6-0.1-0.8-0.3c-0.6-0.5-0.6-1.3-0.2-1.8c1.5-1.8,3-3.6,4.5-5.3c0.5-0.5,1.3-0.6,1.8-0.1s0.6,1.3,0.1,1.8
		c-1.5,1.7-3,3.5-4.4,5.3C187.1,118.9,186.7,119,186.4,119z M556,113.5c-0.4,0-0.7-0.2-1-0.4c-1.5-1.7-3-3.4-4.6-5.1
		c-0.5-0.5-0.4-1.3,0.1-1.8s1.3-0.4,1.8,0.1c1.6,1.7,3.1,3.4,4.6,5.2c0.5,0.5,0.4,1.4-0.1,1.8C556.6,113.4,556.3,113.5,556,113.5z
		 M195.4,108.6c-0.3,0-0.6-0.1-0.9-0.3c-0.5-0.5-0.6-1.3-0.1-1.8c1.6-1.7,3.2-3.4,4.8-5c0.5-0.5,1.3-0.5,1.8,0s0.5,1.3,0,1.8
		c-1.6,1.6-3.2,3.3-4.7,5C196.1,108.5,195.7,108.6,195.4,108.6z M546.7,103.3c-0.3,0-0.7-0.1-0.9-0.4c-1.6-1.6-3.2-3.3-4.9-4.8
		c-0.5-0.5-0.5-1.3,0-1.8s1.3-0.5,1.8,0c1.6,1.6,3.3,3.2,4.9,4.9c0.5,0.5,0.5,1.3,0,1.8C547.3,103.2,547,103.3,546.7,103.3z
		 M205,98.7c-0.3,0-0.7-0.1-0.9-0.4c-0.5-0.5-0.5-1.3,0-1.8c1.6-1.6,3.3-3.2,5-4.8c0.5-0.5,1.3-0.4,1.8,0.1s0.4,1.3-0.1,1.8
		c-1.7,1.5-3.4,3.1-5,4.7C205.7,98.6,205.3,98.7,205,98.7z M536.8,93.7c-0.3,0-0.6-0.1-0.9-0.3c-1.7-1.5-3.4-3.1-5.1-4.6
		c-0.5-0.5-0.6-1.3-0.1-1.8s1.3-0.6,1.8-0.1c1.7,1.5,3.5,3.1,5.2,4.6c0.5,0.5,0.6,1.3,0.1,1.8C537.5,93.6,537.1,93.7,536.8,93.7z
		 M215.2,89.4c-0.4,0-0.7-0.2-1-0.4c-0.5-0.5-0.4-1.4,0.1-1.8c1.7-1.5,3.5-3,5.3-4.5c0.6-0.5,1.4-0.4,1.8,0.2
		c0.5,0.6,0.4,1.4-0.2,1.8c-1.8,1.4-3.5,2.9-5.2,4.4C215.8,89.3,215.5,89.4,215.2,89.4z M526.3,84.7c-0.3,0-0.6-0.1-0.8-0.3
		c-1.8-1.4-3.6-2.9-5.4-4.3c-0.6-0.4-0.7-1.2-0.2-1.8c0.4-0.6,1.2-0.7,1.8-0.2c1.8,1.4,3.7,2.9,5.4,4.3c0.6,0.5,0.6,1.3,0.2,1.8
		C527.1,84.5,526.7,84.7,526.3,84.7z M225.8,80.6c-0.4,0-0.8-0.2-1-0.5c-0.4-0.6-0.3-1.4,0.2-1.8c1.8-1.4,3.7-2.8,5.5-4.2
		c0.6-0.4,1.4-0.3,1.8,0.3c0.4,0.6,0.3,1.4-0.3,1.8c-1.8,1.3-3.7,2.7-5.5,4.1C226.4,80.5,226.1,80.6,225.8,80.6z M515.4,76.3
		c-0.3,0-0.5-0.1-0.8-0.2c-1.8-1.3-3.7-2.7-5.6-4c-0.6-0.4-0.7-1.2-0.3-1.8s1.2-0.7,1.8-0.3c1.9,1.3,3.8,2.6,5.7,4
		c0.6,0.4,0.7,1.2,0.3,1.8C516.2,76.1,515.8,76.3,515.4,76.3z M237,72.5c-0.4,0-0.8-0.2-1.1-0.6c-0.4-0.6-0.3-1.4,0.3-1.8
		c1.9-1.3,3.8-2.6,5.8-3.8c0.6-0.4,1.4-0.2,1.8,0.4c0.4,0.6,0.2,1.4-0.4,1.8c-1.9,1.2-3.8,2.5-5.7,3.8
		C237.5,72.4,237.2,72.5,237,72.5z M504,68.5c-0.2,0-0.5-0.1-0.7-0.2c-1.9-1.2-3.9-2.5-5.8-3.6c-0.6-0.4-0.8-1.2-0.4-1.8
		c0.4-0.6,1.2-0.8,1.8-0.4c2,1.2,4,2.4,5.9,3.7c0.6,0.4,0.8,1.2,0.4,1.8C504.8,68.3,504.4,68.5,504,68.5z M248.5,65
		c-0.4,0-0.9-0.2-1.1-0.6c-0.4-0.6-0.2-1.4,0.4-1.8c2-1.2,4-2.4,6-3.5c0.6-0.4,1.4-0.1,1.8,0.5c0.4,0.6,0.1,1.4-0.5,1.8
		c-2,1.1-4,2.3-5.9,3.5C249,65,248.8,65,248.5,65z M492.1,61.3c-0.2,0-0.4-0.1-0.6-0.2c-2-1.1-4-2.2-6-3.3c-0.6-0.3-0.9-1.1-0.5-1.7
		c0.3-0.6,1.1-0.9,1.7-0.5c2,1.1,4.1,2.2,6.1,3.3c0.6,0.3,0.8,1.1,0.5,1.8C493,61.1,492.6,61.3,492.1,61.3z M260.5,58.3
		c-0.5,0-0.9-0.2-1.1-0.7c-0.3-0.6-0.1-1.4,0.5-1.7c2-1.1,4.1-2.1,6.2-3.2c0.6-0.3,1.4-0.1,1.7,0.6c0.3,0.6,0.1,1.4-0.6,1.7
		c-2,1-4.1,2.1-6.1,3.1C260.9,58.2,260.7,58.3,260.5,58.3z M479.9,54.9c-0.2,0-0.4,0-0.6-0.1c-2-1-4.1-2-6.2-2.9
		c-0.6-0.3-0.9-1.1-0.6-1.7s1.1-0.9,1.7-0.6c2.1,1,4.2,2,6.3,3c0.6,0.3,0.9,1.1,0.6,1.7C480.8,54.6,480.4,54.9,479.9,54.9z
		 M272.9,52.2c-0.5,0-1-0.3-1.2-0.8c-0.3-0.6,0-1.4,0.6-1.7c2.1-1,4.2-1.9,6.3-2.8c0.7-0.3,1.4,0,1.7,0.7s0,1.4-0.7,1.7
		c-2.1,0.9-4.2,1.8-6.3,2.8C273.2,52.1,273,52.2,272.9,52.2z M467.3,49.1c-0.2,0-0.3,0-0.5-0.1c-2.1-0.9-4.3-1.8-6.4-2.6
		c-0.7-0.3-1-1-0.7-1.7s1-1,1.7-0.7c2.2,0.8,4.3,1.7,6.4,2.6c0.7,0.3,1,1,0.7,1.7C468.3,48.9,467.8,49.1,467.3,49.1z M285.5,46.8
		c-0.5,0-1-0.3-1.2-0.8c-0.3-0.7,0.1-1.4,0.7-1.7c2.1-0.8,4.3-1.7,6.5-2.4c0.7-0.2,1.4,0.1,1.6,0.8c0.2,0.7-0.1,1.4-0.8,1.6
		c-2.1,0.8-4.3,1.6-6.4,2.4C285.8,46.8,285.7,46.8,285.5,46.8z M454.4,44.1c-0.1,0-0.3,0-0.4-0.1c-2.2-0.8-4.3-1.5-6.5-2.2
		c-0.7-0.2-1.1-0.9-0.8-1.6c0.2-0.7,0.9-1.1,1.6-0.8c2.2,0.7,4.4,1.5,6.6,2.2c0.7,0.2,1,1,0.8,1.6C455.4,43.8,455,44.1,454.4,44.1z
		 M298.5,42.1c-0.5,0-1-0.3-1.2-0.9c-0.2-0.7,0.1-1.4,0.8-1.6c2.2-0.7,4.4-1.4,6.6-2.1c0.7-0.2,1.4,0.2,1.6,0.9
		c0.2,0.7-0.2,1.4-0.9,1.6c-2.2,0.6-4.4,1.3-6.6,2C298.8,42.1,298.6,42.1,298.5,42.1z M441.3,39.9c-0.1,0-0.2,0-0.4-0.1
		c-2.2-0.6-4.4-1.2-6.6-1.8c-0.7-0.2-1.1-0.9-0.9-1.6c0.2-0.7,0.9-1.1,1.6-0.9c2.2,0.6,4.5,1.2,6.7,1.8c0.7,0.2,1.1,0.9,0.9,1.6
		C442.3,39.5,441.8,39.9,441.3,39.9z M311.8,38.2c-0.6,0-1.1-0.4-1.2-1c-0.2-0.7,0.2-1.4,0.9-1.6c2.2-0.6,4.5-1.1,6.7-1.7
		c0.7-0.2,1.4,0.3,1.5,1c0.2,0.7-0.3,1.4-1,1.5c-2.2,0.5-4.5,1.1-6.7,1.7C312,38.2,311.9,38.2,311.8,38.2z M427.9,36.4
		c-0.1,0-0.2,0-0.3,0c-2.2-0.5-4.5-1-6.7-1.4c-0.7-0.1-1.2-0.8-1-1.5c0.1-0.7,0.8-1.2,1.5-1c2.3,0.4,4.5,0.9,6.8,1.5
		c0.7,0.2,1.1,0.9,1,1.5C429,36,428.5,36.4,427.9,36.4z M325.2,35.1c-0.6,0-1.1-0.4-1.3-1c-0.1-0.7,0.3-1.4,1-1.5
		c2.3-0.5,4.6-0.9,6.8-1.3c0.7-0.1,1.4,0.3,1.5,1.1c0.1,0.7-0.3,1.4-1.1,1.5c-2.2,0.4-4.5,0.8-6.7,1.3
		C325.4,35.1,325.3,35.1,325.2,35.1z M414.4,33.7c-0.1,0-0.1,0-0.2,0c-2.2-0.4-4.5-0.7-6.8-1.1c-0.7-0.1-1.2-0.8-1.1-1.5
		c0.1-0.7,0.8-1.2,1.5-1.1c2.3,0.3,4.6,0.7,6.9,1.1c0.7,0.1,1.2,0.8,1.1,1.5C415.5,33.3,415,33.7,414.4,33.7z M338.8,32.7
		c-0.6,0-1.2-0.5-1.3-1.1c-0.1-0.7,0.4-1.4,1.1-1.5c2.3-0.3,4.6-0.6,6.9-0.9c0.7-0.1,1.3,0.4,1.4,1.1c0.1,0.7-0.4,1.3-1.1,1.4
		c-2.3,0.3-4.6,0.6-6.8,0.9C338.9,32.7,338.8,32.7,338.8,32.7z M400.7,31.8L400.7,31.8c-2.4-0.3-4.7-0.5-6.9-0.7
		c-0.7-0.1-1.2-0.7-1.2-1.4c0.1-0.7,0.7-1.2,1.4-1.2c2.3,0.2,4.6,0.4,6.9,0.7c0.7,0.1,1.2,0.7,1.1,1.4
		C401.9,31.3,401.4,31.8,400.7,31.8z M352.5,31.2c-0.7,0-1.2-0.5-1.3-1.2s0.5-1.3,1.2-1.4c2.3-0.2,4.6-0.4,6.9-0.5
		c0.7,0,1.3,0.5,1.4,1.2c0,0.7-0.5,1.3-1.2,1.4c-2.3,0.1-4.6,0.3-6.8,0.5C352.6,31.2,352.5,31.2,352.5,31.2z M387,30.6
		C386.9,30.6,386.9,30.6,387,30.6c-2.3-0.1-4.6-0.2-6.9-0.3c-0.7,0-1.3-0.6-1.3-1.3s0.6-1.3,1.3-1.3c2.3,0.1,4.6,0.2,6.9,0.3
		c0.7,0,1.3,0.6,1.2,1.4C388.2,30.1,387.6,30.6,387,30.6z M366.3,30.4c-0.7,0-1.3-0.6-1.3-1.3s0.5-1.3,1.3-1.3
		c2.3-0.1,4.6-0.1,6.9-0.1l0,0c0.7,0,1.3,0.6,1.3,1.3s-0.6,1.3-1.3,1.3C370.9,30.3,368.6,30.3,366.3,30.4L366.3,30.4z"/>
</g>
</svg>
