<?xml version="1.0" encoding="utf-8"?>
<!-- Generator: Adobe Illustrator 24.0.1, SVG Export Plug-In . SVG Version: 6.00 Build 0)  -->
<svg version="1.1" id="Layer_1" xmlns="http://www.w3.org/2000/svg" xmlns:xlink="http://www.w3.org/1999/xlink" x="0px" y="0px"
	 viewBox="0 0 773.6 534.2" style="enable-background:new 0 0 773.6 534.2;" xml:space="preserve">
<style type="text/css">
	.st0{clip-path:url(#SVGID_2_);fill:#FCE3C3;}
	.st1{clip-path:url(#SVGID_2_);}
	.st2{fill:#602826;}
	.st3{fill:#FFCFCA;}
	.st4{fill:#F9BFBB;}
	.st5{opacity:0.3;fill:#F9BFBB;}
	.st6{fill:#F4B9B8;}
	.st7{fill:#397272;}
	.st8{fill:#326B69;}
	.st9{fill:#F9713D;}
	.st10{fill:#EF5D30;}
	.st11{fill:#211A17;}
	.st12{fill:#CE7872;}
	.st13{fill:#FFFFFF;}
	.st14{fill:#EA8C8B;}
	.st15{fill:#FBB03B;}
</style>
<g>
	<defs>
		<circle id="SVGID_1_" cx="384.7" cy="272.4" r="226.7"/>
	</defs>
	<clipPath id="SVGID_2_">
		<use xlink:href="#SVGID_1_"  style="overflow:visible;"/>
	</clipPath>
	<circle class="st0" cx="384.7" cy="272.4" r="226.7"/>
	<g class="st1">
		<g>
			<path class="st2" d="M555.6,379.3c0-32-25.9-57.9-57.9-57.9c-4.1,0-8.1,0.4-12,1.3c-4.7-23.4-0.6-51.8,0.5-69.1
				c2.7-40,1.4-92-33.6-120.7c-20.3-16.6-51.5-21.2-76.6-12.1c-28.6,10.3-45.8,36.7-54,63.1c-5.2,16.9-7,34.4-11.5,51.2
				c-3.2-1.5-6.7-2.3-10.4-2.3c-11.6,0-21.4,8.1-23.9,18.9c-2.5-0.3-5.1-0.5-7.7-0.5c-33.5,0-60.6,27.1-60.6,60.6
				c0,7.1,1.2,14,3.5,20.3c-16.3,9.8-27.2,27.7-27.2,48.1c0,28.3,20.9,51.7,48.1,55.6c6.1,26,29.4,45.4,57.2,45.4
				c1.2,0,2.4,0,3.6-0.1c9.4,23.7,32.5,40.5,59.6,40.5c24.8,0,46.4-14.1,57-34.8c10.3,7,22.7,11.1,36.1,11.1
				c34.7,0,62.9-27.5,64-61.9C536,430.3,555.6,407.1,555.6,379.3z"/>
			<polygon class="st3" points="488.3,1512.3 496.6,1493.9 489.2,1341.9 556.9,1341.9 542.6,1492 556.4,1504.9 596,1535.3 
				520.9,1535.3 492,1530.7 			"/>
			<path class="st2" d="M633,1550.5c-0.2-1.1-0.7-2-1.2-2.8c-2.5-3.6-7.7-5.1-11.3-7.2c-1.2-0.7-2.4-1.4-3.7-2.1
				c-5.1-3-10.2-6-15.3-8.9l-27.5-17.2l-30.4-21.2l-47.9,0.9l-8,17.9c-2.4,5.2-3.7,9.1-6.1,14.4c-1.3,2.9-2.7,5.8-3.1,8.9
				c-0.1,0.8-0.1,1.5-0.1,2.3c0.1,2.2,0.9,4.4,1.9,6.4c1.8,3.2,4.5,5.9,7.8,7.6c4.2,2.2,8.9,2.7,13.6,3.2
				c29.2,3.2,58.4,6.4,87.8,8.2c10.2,0.6,21,2.1,31.3,0.9C627.3,1561.2,634.8,1558.4,633,1550.5z"/>
			<polygon class="st3" points="293.2,1504.2 302,1486.1 299,1334 366.7,1335.9 348.1,1485.5 361.5,1498.8 400.2,1530.3 
				325.2,1528.2 296.3,1522.8 			"/>
			<path class="st2" d="M436.8,1546.6c-0.2-1.1-0.6-2-1.2-2.9c-2.4-3.6-7.6-5.3-11.1-7.5c-1.2-0.8-2.4-1.5-3.6-2.2
				c-5-3.1-10-6.2-15-9.4l-27-17.9l-29.8-22l-47.9-0.4l-8.5,17.7c-2.6,5.2-3.9,9-6.5,14.2c-1.4,2.8-2.8,5.7-3.3,8.8
				c-0.1,0.8-0.2,1.5-0.2,2.3c0,2.2,0.7,4.5,1.8,6.5c1.7,3.3,4.4,6,7.6,7.8c4.1,2.3,8.9,3,13.5,3.6c29.1,4,58.2,8.1,87.5,10.7
				c10.2,0.9,21,2.7,31.3,1.8C430.8,1557.1,438.3,1554.5,436.8,1546.6z"/>
			<path class="st3" d="M685.9,870.4c3.2-3.9,6.1-7.9,8.9-12.2c0,0,0,0,0,0c0.2-0.3,0.4-0.6,0.6-1c2.2-3.5,4.3-7,6.2-10.7
				c-0.5-0.9-1.1-1.8-1.6-2.8c-2.4-4.2-4.7-8.6-7-12.9c-0.6,2-1.1,3.9-1.4,4.7c-1,2.6-2.1,5.2-3.2,7.8c-2.5,5.6-5.4,11.1-8.6,16.4
				c-1.5,2.5-3.2,5.2-3.1,8.1c0,0.6,0.1,1.1,0.3,1.7c0.3,1.1,0.9,2,1.7,2.7c0.1,0.1,0.1,0.1,0.2,0.2c0.1,0.1,0.3,0.2,0.4,0.3
				c0.8,0.6,1.8,0.8,2.9,0.6c0.2,0,0.3-0.1,0.4-0.1l0,0c1-0.3,1.8-1.1,2.6-1.9C685.3,871,685.6,870.7,685.9,870.4z"/>
			<path class="st4" d="M679.2,872.7c-0.1-0.1-0.3-0.2-0.4-0.3c-0.1,0-0.1-0.1-0.2-0.2c-0.8-0.7-1.4-1.7-1.7-2.7
				c0.5-0.7,1-1.5,1.5-2.2c3.2-4.7,6.4-9.5,9.7-14.2c0.7-1.1,2.2-4.6,3.8-4.6c2.4,0,2,4.1,1.5,5.5c-0.3,0.9-0.9,1.7-1.4,2.4
				C688.1,862.1,684.2,867.8,679.2,872.7z"/>
			<path class="st3" d="M686.5,879.8c0.6-0.8,1.3-1.6,1.9-2.4c1.3-1.6,2.5-3.2,3.7-4.9c2-2.9,4-5.8,5.8-8.8c1.4-2.3,2.8-4.7,4-7.1
				c0.9-1.7,1.7-3.4,2.6-5.2c-1.5-2.6-3-5.1-4.5-7.7c-1.5-2.7-3-5.4-4.5-8.2c-1.5,2.6-2.7,8-3.3,9.5c-0.4,1-0.7,1.9-1.1,2.9
				c-3,7.4-6.6,14.5-10.7,21.3c-0.6,1-1.2,2-1.7,3c-0.8,1.6-1.4,3.3-1.4,5.1c0,2.9,2.6,6,5.4,5.4c1.2-0.3,2.2-1.1,3-2
				C686,880.4,686.2,880.1,686.5,879.8z"/>
			<path class="st4" d="M688.3,877.5c0.5-2.7,1.1-5.5,2-8.2c2.1-6.7,5.7-13,7.4-19.9l-0.1,0.9c0.1-0.1,0.3-0.2,0.5-0.2
				c0.7,0,1.2,0.5,1.5,1.1c1.1,1.6,1.7,3.5,2.1,5.4c-1.3,2.4-2.6,4.8-4,7.1c-1.8,3-3.7,6-5.8,8.8
				C690.8,874.2,689.6,875.9,688.3,877.5z"/>
			<path class="st3" d="M697.2,893.1c0.3-0.6,0.6-1.2,0.9-1.7c2-4,3.6-8.1,5-12.3c2-6.2,3.5-12.6,4.8-19.1c0.1-0.6,0.2-1.2,0.4-1.9
				c-2.8-4.8-5.6-9.6-8.4-14.4c-1.4-2.4-2.7-4.9-4.1-7.4c-0.2,0.4-0.4,0.8-0.5,1.2c-0.6,2.1-0.4,4.4-0.3,6.6c0.2,4,0.2,8-0.1,11.9
				c-0.1,0.7-0.1,1.4-0.2,2.1c0,0,0,0,0,0c-0.4,4.4-1.2,8.7-2.3,12.9c-0.1,0.5-0.2,0.9-0.4,1.4c-1.6,5.7-3.5,11.5-3.4,17.4
				c0.1,2.5,0.9,5.5,3.3,6.1c1.4,0.3,2.8-0.3,3.9-1.2C696.4,894.4,696.8,893.8,697.2,893.1z"/>
			<path class="st5" d="M708.3,858.2c-2.8-4.8-5.6-9.6-8.4-14.4c-2.4-4.2-4.7-8.6-7-12.9c-0.6,2-1.1,3.9-1.4,4.7
				c-0.6,1.6-1.3,3.2-1.9,4.8c3.7,6.5,6.1,14,8.2,21c1.4,4.3,2.5,8.7,3.6,13.2c0.5,1.6,1.1,3.1,1.7,4.6c2-6.2,3.5-12.6,4.8-19.1
				C708.1,859.4,708.2,858.8,708.3,858.2z"/>
			<g>
				<path class="st6" d="M209.1,891.8c0.5,2.4,1.2,4.7,2,7c2,6.2,4.3,12.3,6.3,18.4c0.9,2.7,1.7,5.4,1.7,8.2c0,2.8-0.8,5.7-2.9,7.6
					c-2,1.9-5.4,2.5-7.7,1c-2-1.4-2.8-4-3.5-6.4c-0.8-3.1-1.7-6.3-2.5-9.4c-1.1-4.2-2.3-8.4-3.2-12.7c-1.9-8.7-3-18,0.2-26.3
					c1-2.6,7.3-10.5,9.2-4.4c0.7,2.4-0.4,5.6-0.4,8C208.2,885.9,208.5,888.9,209.1,891.8z"/>
			</g>
			<g>
				<path class="st4" d="M205.4,897.2c0.5,2.4,1.2,4.7,2,7c2,6.2,4.3,12.3,6.3,18.4c0.9,2.7,1.7,5.4,1.7,8.2c0,2.8-0.8,5.7-2.9,7.6
					c-2,1.9-5.4,2.5-7.7,1c-2-1.4-2.8-4-3.5-6.4c-0.8-3.1-1.7-6.3-2.5-9.4c-1.1-4.2-2.3-8.4-3.2-12.7c-1.9-8.7-3-18,0.2-26.3
					c1-2.6,7.3-10.5,9.2-4.4c0.7,2.4-0.4,5.6-0.4,8C204.5,891.4,204.8,894.4,205.4,897.2z"/>
			</g>
			<path class="st3" d="M726.9,884.8c-5.8-14.5-11.6-29-17.4-43.5c-5.6-13.9-10.4-25.9-17.7-39c-3-5.4-7.1-12.4-10.5-17.8
				c-16.3-29.9-32.5-59.9-48.8-89.8c-10.3-18.9-20.6-37.9-30.9-56.8c-6.8-12.4-13.5-24.9-18.7-38.1c-6.4-16.3-10.2-33.6-13.6-50.8
				c-7.1-35.3-12.9-71.1-24.8-105c-9.1-25.9-22.1-50.9-42.1-69.8c-29.5-27.9-71.1-38.6-111-35.9c-6.9,0.5-13.8,1.4-20.5,2.7
				c-18.7,3.6-36.7,10.4-53.2,19.8c-17.1,9.8-31,21.9-42.1,38.2c-3.5,5.1-6.6,10.5-9.5,16c-10.9,20.8-17.9,43.4-26.8,65.2
				c-15.7,38.7-38.2,75.3-45.5,116.4c-7.6,42.7,11,146.1,10.8,206.6c-1.2,23-9.7,52.3-11.7,65c-1.6,10-3.3,20.4-2.2,30.5
				c1.2,10.8,4,21.2,6.7,31.6c0.4,1.6,0.8,3.3,1.8,4.7c1.8,2.5,5.9,3.1,7.8,0.5c4.2-5.8,1.9-14.4,0.5-20.8c-1.3-6-3-11.9-3.3-18
				c-0.3-6,1.2-11.4,3.6-16.9c1.7-3.9,3.3-7.9,5.1-11.9c0.5-1.1,1-2.2,1.6-3.2c0.2-0.4,0.5-0.8,0.7-1.2c1.2-1.9,2.7-3.5,4.8-4.5
				c1.7-0.8,4.5-1.3,6.3-0.4c1.9,1,1.8,3.5,2,5.4c0.2,2.2-0.1,4.4-0.4,6.6c-0.5,2.9-1.1,5.9-1.2,8.9c0,0.8,0,1.6,0.1,2.4
				c0.1,0.6,0.2,1.3,0.4,1.9c1.8,6.7,10.9,12.6,14.3,3.7c0.7-1.9,1-4,1.3-6c1.4-9.7,4.8-19.2,4.4-29c-0.3-6.3-1.2-12.5-2.1-18.7
				c-1.6-10.3-6.2-25.4-7.3-30.4c6.4-61.7,9.7-114.1,13.2-175.6c0.4-6.5,0.8-13.1,2.6-19.3c2.4-8,7-15.1,11.6-22.1
				c28.1-42.9,54.8-86.8,80-131.5c8.8-15.6,17.7-32.3,17.3-50.3c23.6,17.1,56.1,21.1,83.1,10.3c33.7,75.5,49.4,158.6,89.7,230.7
				c32.4,57.8,80.3,103.3,119.5,156.8c1.4,1.9,0.8,7.7,0.9,10.2c0.4,8-0.2,16,0.7,24c1,8.1,2.9,16,5.6,23.7c1.2,3.5,4.6,6.6,8.1,3.5
				c0.3-0.2,0.6-0.4,0.9-0.8c3.5-3.7,3.5-8.8,3.3-13.6c-0.2-5.5,0-10.6,2.4-15.6c0.6-1.4,1.7-2.6,3.2-2.9c0.9-0.2,1.8,0,2.7,0.3
				c2.9,1,5.1,2.8,6.9,5c0.9,1.2,1.8,2.5,2.5,3.8c0.7,1.3,1.4,2.6,2,3.9c0.8,1.7,1.5,3.3,2.3,4.9c0.2,0.3,0.3,0.6,0.5,1
				c0.1,0.3,0.3,0.6,0.4,0.9c0.9,1.9,1.9,3.7,2.8,5.6c1.7,3.4,3.4,6.7,5.1,10.1c1.5,2.9,3,5.9,4.5,8.8c2.6,5.1,5.4,10.9,10,14.6
				C723.3,892.3,728.8,889.5,726.9,884.8z"/>
			<g>
				<path class="st4" d="M227.9,875.5c-0.4,1.3-0.8,2.6-1.2,3.8c0-3,0.7-6,1.2-8.9c0.3-2.2,0.6-4.4,0.4-6.6c-0.2-1.9-0.1-4.4-2-5.4
					c-1.8-0.9-4.6-0.4-6.3,0.4c-2,1-3.5,2.6-4.8,4.5c-0.2,0.4-0.5,0.8-0.7,1.2c0.4-1.2,0.8-2.3,1.3-3.5c1-2.4,2.4-4.8,4.5-6.3
					c2.1-1.5,5.2-2.1,7.4-0.7c1.9,1.2,2.8,3.4,3.1,5.6C231.7,865.1,229.6,870.4,227.9,875.5z"/>
			</g>
			<g>
				<path class="st3" d="M444.4,357.1c-4.7,2.9-10.4,3.5-15.9,4.1c-6.6,0.7-13.2,1.4-19.9,1.1c-12.9-0.5-24.7-5.1-37-9.2
					c0.2-7.5,0.4-14.9,0.6-22.4c0.3-9.3,0.5-18.7-0.2-28c-0.2-2.9-0.5-5.7-0.9-8.5c-0.9-7.1-2.1-14.1-3.4-21.1
					c-1-5.8-2.1-11.5-3.1-17.3c3.3,3.2,6.5,4.9,10.6,7.1c17.2,9.5,34.7,18.3,52.3,26.9c5.3,2.6,10.7,5.2,16.4,6.6l0.2,32.7
					L444.4,357.1z"/>
			</g>
			<g>
				<path class="st4" d="M444.2,329c-19.8-5.1-38.9-13-56.3-23.8c-5.5-3.4-11.2-7.1-16.7-11.1c-0.9-7.1-2.1-14.1-3.4-21.1
					c-1-5.8-2.1-11.5-3.1-17.3c3.3,3.2,6.5,4.9,10.6,7.1c17.2,9.5,34.7,18.3,52.3,26.9c5.3,2.6,10.7,5.2,16.4,6.6L444.2,329z"/>
			</g>
			<path class="st3" d="M478.2,204.2c-1-4.7-2.3-9.3-3.8-13.9c-4.7-14.3-13.8-27.6-26.2-36.6c-23.9-17.2-58.1-14.3-78.4,6.8
				c-4.8,5-8.8,10.7-11.7,17c-7.1,15.3-8,32-4.9,48.2c2.7,14.3,8.5,28.3,15.9,40.5c4.5,7.5,9.8,14.7,16.2,20.9
				c3.6,3.6,7.6,6.8,12,9.6c8.7,5.6,18.5,9.3,28.8,10c9.3,0.6,18.9-1.6,26.9-6.2c9.1-5.3,14.7-13.6,18.9-22.9
				C482,254.8,483.4,228.5,478.2,204.2z"/>
			<g>
				<g>
					<path class="st3" d="M373.5,261.4c-9,4.2-20.2,3.2-28.3-2.7c-6.8-4.9-11.1-13.1-11.5-21.4c-0.1-1.5,0-3,0.2-4.6
						c0.3-2.7,1.1-5.3,2.5-7.6c3.3-5.7,10.3-8.9,16.9-8.2c6.6,0.7,12.5,5.2,15.5,11.1l1.8,12.8L373.5,261.4z"/>
				</g>
			</g>
			<path class="st2" d="M451.7,145.5c-7.7,22-23.9,40.5-43.7,52.8c-19.8,12.3-43,18.6-66.2,19.8c-1.6,0.1,3.1-30.6,4-33.6
				c4.7-15.7,15-29.6,28.5-38.8c2-1.4,4.1-2.7,6.3-3.8c13.4-7.1,29.1-9.7,44.1-7.5c6.2,0.9,12.2,2.5,17.7,5.4
				C443.5,140.3,452.2,144.1,451.7,145.5z"/>
			<path class="st3" d="M485.8,595.6c4.4-34.7,7.7-69.4,14.7-103.7c6.2-30.5,13.4-62.7,1.8-92.7c-4.9-5.2-10.8-9.4-16.9-13.2
				c-52-32.1-117.3-28.8-174.9-8.6c-3.1,47.7,3.1,95.6,7.1,143.4c1.2,6.8,2.1,13.8,2.9,20.7c5,43.2,7.8,86.6,10.7,130
				c1.4-0.2,2.8-0.3,4.2-0.4c9.8-0.3,19.5,1.3,29.1,2.9c24.8,4.1,49.5,8.3,74.3,12.4c9.6,1.6,19.2,3.2,28.7,5.5
				c5.5-24.9,11.4-49.7,17.3-74.6C484.5,610.2,484.9,603,485.8,595.6z"/>
			<path class="st7" d="M546.3,1464.4l-53.4-5.8c-10.1-123.3-22.5-299.5-23-371.8c-5-11.2-10-21-14.8-30
				c-28.2-52.4-52.6-73.8-71.8-143.2c-7.2-25.9-13.6-54-18.9-83.1c-11.4-62.2-17.7-128.7-15.2-186.3c41.1,4,89,12.9,128.9,1.9
				C493.1,686,516,742.5,526,784c20.3,83.5,51.7,257.3,53.4,289.9C581.4,1112.5,559.7,1402.5,546.3,1464.4z"/>
			<path class="st8" d="M457.4,978.7c-0.4,21.8-1,43.5-2,65.3c-0.2,4-0.1,8.5-0.3,12.9c-28.2-52.4-52.6-73.8-71.8-143.2
				c-7.2-25.9-13.6-54-18.9-83.1c1.4-3.6,2.7-7.3,3.9-11c14.6-43.9,18.5-90.8,33.5-134.5c17.7,25.5,31.2,53.8,39.9,83.6
				c12.9,44.1,15.1,90.6,15.8,136.5C457.8,929.7,457.8,954.2,457.4,978.7z"/>
			<path class="st7" d="M354.6,1453.5c-17.4-2.7-39.4-4.6-57-4.6c-11.1-111.6,2.8-386.9,2.8-386.9s-32.3-95.2-35-201.2
				c-0.4-17.2-2.9-69.6,8.3-114.5c14.7-59.2,38.7-85.5,54.3-109.7c49.7,13.6,102.2,17.5,150.1,9.7c-10.4,66.4-23.5,176.7-33.9,243.1
				c-22.6,144.1-39.4,274-63.7,417.8C373.2,1350.8,363.9,1405.2,354.6,1453.5z"/>
			<path class="st9" d="M567.1,499.4c-7.9,9.9-17.4,16.5-28.2,21c-3,1.2-5.8,2.3-8.4,3.2c-10.8,3.7-18.8,4.6-32.2,6.1l-10.7,107.5
				c-13.7,4.1-28,5.8-42.3,6.3c-22.1,0.8-44.5-0.6-66.6-2.4c-20.3-1.7-41-5-59.4-14.3c0.5-26-0.1-52-1.6-78
				c-0.6-10.8-1.4-21.7-2.4-32.5c0-0.1,0-0.3,0-0.4c-2.7,3.8-5.4,6.8-7.6,10.8c-26.3-17.4-49.7-38.2-70.4-61.9
				c0.5-1.1,0.9-2.1,1.3-3.2c2.5-6.3,5.6-12.2,9.1-18.1c7.3-12.7,14.8-25.3,22.7-37.6c1.5-2.3,3-4.6,4.5-6.8
				c10.5-15.1,22.9-28.8,38-39.3c8.1-5.6,16.7-10.3,25.9-13.9c4.7-1.9,31.2-9.1,31.4-8.7c3.2,5.3,6.5,7.4,12.4,9.2
				c14.3,4.4,29.6,4.8,44.4,2.8c8.2-1.1,19.7-8.4,19.7-8.4s25.8,7.4,39,15.3c5.7,3.5,11.1,7.5,16.3,11.8
				c15.6,13,27.5,29.2,36.1,47.6c8.8,18.9,14.4,39,20.9,58.8C561.8,482.7,564.6,491,567.1,499.4z"/>
			<path class="st10" d="M504.2,478.2c0.3-4.8,0.5-9.7,0.1-14.5c-0.4-5.7-1.6-11.3-2.9-16.9c-3-12.3-6.7-24.3-11.2-36
				c1,1.9,2.1,3.8,3.2,5.6c7.9,13.4,15.4,27.6,17.8,43.5c1.8,12.1,0.6,24.7,3.5,36.6c2.5,10.3,8,19.6,15.3,26.4
				c0.2,0.2,0.5,0.4,0.7,0.6c-10.8,3.7-18.8,4.6-32.2,6.1C501.1,511.5,503.1,496.6,504.2,478.2z"/>
			<path class="st10" d="M336.3,487c-4.1,21.1-8.5,42.9-18.5,61.8c-0.6-10.8-1.4-21.7-2.4-32.5C324.2,507.7,333.2,498.7,336.3,487z"
				/>
			<g>
				<path class="st11" d="M411.8,200.5c1.3-0.1,2.6,0,3.9,0.1c2.3,0.2,4.6,0.4,6.8,0.6c0.8,0.1,1.7,0,2-0.7c0.2-0.3,0.1-0.7,0-1.1
					c-0.6-1.3-2.2-1.8-3.6-1.9c-3.5-0.4-7.2-0.2-10.5,1.2c-0.6,0.3-4.3,1.9-4,2.8C406.6,202.2,411,200.6,411.8,200.5z"/>
				<path class="st11" d="M461.4,199c-1.3,0-2.6,0.2-3.8,0.4c-2.3,0.4-4.5,0.7-6.8,1.1c-0.7,0.1-1.7,0.1-2.1-0.5
					c-0.2-0.3-0.2-0.7,0-1.1c0.5-1.3,2-1.9,3.4-2.2c3.5-0.7,7.2-0.7,10.5,0.4c0.7,0.2,4.4,1.6,4.2,2.5
					C466.7,200.3,462.2,199,461.4,199z"/>
				<g>
					<path class="st12" d="M457.4,258.9c-2.6,6.6-7.2,11.2-12.9,11.7c-5.5,0.5-10.7-3-14.3-8.8c-2.5-3.9-4.2-9-4.7-14.5l1.1-0.1
						l31.7-2.6l1.2-0.1C459.7,249.7,459,254.7,457.4,258.9z"/>
					<path class="st13" d="M458.2,244.6c-3.5,5.3-8.9,8.9-15.2,9.4c-6.3,0.5-12.2-2.1-16.5-6.8L458.2,244.6z"/>
					<path class="st14" d="M457.4,258.9c-2.6,6.6-7.2,11.2-12.9,11.7c-5.5,0.5-10.7-3-14.3-8.8c1.5-1,3.2-1.9,4.9-2.7
						c4.9-2.2,10.4-3.1,15.6-2.3C453,257.2,455.2,257.9,457.4,258.9z"/>
				</g>
				<g>
					<path class="st11" d="M424.3,221.1c0.1,4.3-2.2,7.9-5.3,8c-3.1,0.1-5.6-3.3-5.8-7.7c-0.1-4.3,2.2-7.9,5.3-8
						C421.6,213.3,424.2,216.7,424.3,221.1z"/>
					<path class="st13" d="M420.3,218.6c-1.8,0.1-1.7,2.8,0.1,2.8C422.2,221.3,422.1,218.5,420.3,218.6z"/>
				</g>
				<g>
					<path class="st11" d="M453.8,220.2c0.1,4.3,2.7,7.8,5.8,7.7c3.1-0.1,5.4-3.7,5.3-8s-2.7-7.7-5.8-7.7S453.7,215.9,453.8,220.2z"
						/>
					<path class="st13" d="M461,216.5c-1.8,0.1-1.7,2.8,0.1,2.8C462.8,219.2,462.7,216.5,461,216.5z"/>
				</g>
				<path class="st12" d="M444.4,229.9c-1.8-1.4-4.6-1.4-6.3,0.2l4.9,8.5c1.4-0.1,2.5-1.2,3-2.5
					C446.8,233.9,446.2,231.3,444.4,229.9z"/>
			</g>
			
				<ellipse transform="matrix(0.9976 -6.919913e-02 6.919913e-02 0.9976 -15.9324 28.383)" class="st4" cx="401.7" cy="244.2" rx="14.7" ry="12"/>
			
				<ellipse transform="matrix(0.9976 -6.919363e-02 6.919363e-02 0.9976 -15.2559 33.1423)" class="st4" cx="470.8" cy="236.8" rx="8.3" ry="6.7"/>
		</g>
	</g>
</g>
<g>
	<path class="st15" d="M384.7,515.2c-0.7,0-1.3-0.6-1.3-1.3c0-0.7,0.6-1.3,1.3-1.3c2.3,0,4.6,0,6.9-0.1c0.7,0,1.3,0.5,1.3,1.3
		c0,0.7-0.5,1.3-1.3,1.3C389.3,515.2,387,515.2,384.7,515.2z M377.8,515.1C377.8,515.1,377.8,515.1,377.8,515.1
		c-2.3-0.1-4.7-0.2-7-0.3c-0.7,0-1.3-0.6-1.2-1.4c0-0.7,0.6-1.3,1.4-1.2c2.3,0.1,4.6,0.2,6.9,0.3c0.7,0,1.3,0.6,1.3,1.3
		C379,514.5,378.5,515.1,377.8,515.1z M398.5,514.8c-0.7,0-1.2-0.5-1.3-1.2c0-0.7,0.5-1.3,1.2-1.4c2.3-0.1,4.6-0.3,6.8-0.5
		c0.7-0.1,1.3,0.5,1.4,1.2c0.1,0.7-0.5,1.3-1.2,1.4C403.2,514.5,400.8,514.7,398.5,514.8C398.5,514.8,398.5,514.8,398.5,514.8z
		 M364,514.3c0,0-0.1,0-0.1,0c-2.3-0.2-4.6-0.4-6.9-0.7c-0.7-0.1-1.2-0.7-1.1-1.4c0.1-0.7,0.7-1.2,1.4-1.1c2.3,0.3,4.6,0.5,6.8,0.7
		c0.7,0.1,1.2,0.7,1.2,1.4C365.2,513.8,364.7,514.3,364,514.3z M412.2,513.6c-0.6,0-1.2-0.5-1.3-1.1c-0.1-0.7,0.4-1.3,1.1-1.4
		c2.3-0.3,4.5-0.6,6.8-0.9c0.7-0.1,1.4,0.4,1.5,1.1c0.1,0.7-0.4,1.4-1.1,1.5c-2.3,0.3-4.6,0.6-6.9,0.9
		C412.3,513.6,412.3,513.6,412.2,513.6z M350.3,512.8c-0.1,0-0.1,0-0.2,0c-2.3-0.3-4.6-0.7-6.9-1.1c-0.7-0.1-1.2-0.8-1.1-1.5
		c0.1-0.7,0.8-1.2,1.5-1.1c2.2,0.4,4.5,0.7,6.8,1.1c0.7,0.1,1.2,0.8,1.1,1.5C351.5,512.3,350.9,512.8,350.3,512.8z M425.9,511.7
		c-0.6,0-1.2-0.4-1.3-1.1c-0.1-0.7,0.4-1.4,1.1-1.5c2.2-0.4,4.5-0.8,6.7-1.3c0.7-0.1,1.4,0.3,1.5,1c0.1,0.7-0.3,1.4-1,1.5
		c-2.3,0.5-4.6,0.9-6.8,1.3C426,511.7,426,511.7,425.9,511.7z M336.7,510.5c-0.1,0-0.2,0-0.3,0c-2.3-0.5-4.5-0.9-6.8-1.5
		c-0.7-0.2-1.1-0.9-1-1.5c0.2-0.7,0.9-1.1,1.5-1c2.2,0.5,4.5,1,6.7,1.4c0.7,0.1,1.2,0.8,1,1.5C337.8,510,337.3,510.5,336.7,510.5z
		 M439.4,508.9c-0.6,0-1.1-0.4-1.3-1c-0.2-0.7,0.3-1.4,1-1.5c2.2-0.5,4.5-1.1,6.7-1.6c0.7-0.2,1.4,0.2,1.6,0.9
		c0.2,0.7-0.2,1.4-0.9,1.6c-2.2,0.6-4.5,1.1-6.7,1.7C439.6,508.9,439.5,508.9,439.4,508.9z M323.2,507.3c-0.1,0-0.2,0-0.3,0
		c-2.2-0.6-4.5-1.2-6.7-1.9c-0.7-0.2-1.1-0.9-0.9-1.6c0.2-0.7,0.9-1.1,1.6-0.9c2.2,0.6,4.4,1.3,6.6,1.8c0.7,0.2,1.1,0.9,0.9,1.6
		C324.3,507,323.8,507.3,323.2,507.3z M452.8,505.4c-0.6,0-1.1-0.4-1.2-0.9c-0.2-0.7,0.2-1.4,0.9-1.6c2.2-0.6,4.4-1.3,6.6-2
		c0.7-0.2,1.4,0.2,1.6,0.8c0.2,0.7-0.2,1.4-0.8,1.6c-2.2,0.7-4.4,1.4-6.6,2.1C453,505.4,452.9,505.4,452.8,505.4z M310,503.5
		c-0.1,0-0.3,0-0.4-0.1c-2.2-0.7-4.4-1.5-6.6-2.2c-0.7-0.2-1-1-0.8-1.6c0.2-0.7,1-1,1.6-0.8c2.1,0.8,4.3,1.5,6.5,2.2
		c0.7,0.2,1,0.9,0.8,1.6C311,503.1,310.5,503.5,310,503.5z M465.9,501.2c-0.5,0-1-0.3-1.2-0.9c-0.2-0.7,0.1-1.4,0.8-1.6
		c2.1-0.8,4.3-1.6,6.4-2.4c0.7-0.3,1.4,0.1,1.7,0.7c0.3,0.7-0.1,1.4-0.7,1.7c-2.1,0.8-4.3,1.7-6.5,2.4
		C466.2,501.1,466,501.2,465.9,501.2z M297,498.8c-0.2,0-0.3,0-0.5-0.1c-2.2-0.8-4.3-1.7-6.4-2.6c-0.7-0.3-1-1-0.7-1.7
		c0.3-0.7,1-1,1.7-0.7c2.1,0.9,4.2,1.8,6.4,2.6c0.7,0.3,1,1,0.7,1.7C298,498.5,297.5,498.8,297,498.8z M478.7,496.2
		c-0.5,0-1-0.3-1.2-0.8c-0.3-0.7,0-1.4,0.7-1.7c2.1-0.9,4.2-1.8,6.3-2.8c0.6-0.3,1.4,0,1.7,0.6c0.3,0.6,0,1.4-0.6,1.7
		c-2.1,1-4.2,1.9-6.3,2.8C479,496.1,478.9,496.2,478.7,496.2z M284.2,493.4c-0.2,0-0.4,0-0.5-0.1c-2.1-1-4.2-2-6.3-3
		c-0.6-0.3-0.9-1.1-0.6-1.7c0.3-0.6,1.1-0.9,1.7-0.6c2.1,1,4.1,2,6.2,2.9c0.6,0.3,0.9,1.1,0.6,1.7
		C285.2,493.2,284.7,493.4,284.2,493.4z M491.2,490.4c-0.5,0-0.9-0.3-1.2-0.7c-0.3-0.6-0.1-1.4,0.6-1.7c2-1,4.1-2,6.1-3.1
		c0.6-0.3,1.4-0.1,1.7,0.5c0.3,0.6,0.1,1.4-0.5,1.7c-2,1.1-4.1,2.1-6.2,3.1C491.6,490.4,491.4,490.4,491.2,490.4z M271.8,487.3
		c-0.2,0-0.4,0-0.6-0.1c-2-1.1-4.1-2.2-6.1-3.3c-0.6-0.4-0.8-1.1-0.5-1.8c0.4-0.6,1.1-0.8,1.8-0.5c2,1.1,4,2.2,6,3.3
		c0.6,0.3,0.9,1.1,0.5,1.7C272.7,487.1,272.3,487.3,271.8,487.3z M503.4,484c-0.4,0-0.9-0.2-1.1-0.7c-0.4-0.6-0.1-1.4,0.5-1.8
		c2-1.1,4-2.3,5.9-3.5c0.6-0.4,1.4-0.2,1.8,0.4c0.4,0.6,0.2,1.4-0.4,1.8c-2,1.2-4,2.4-6,3.5C503.8,484,503.6,484,503.4,484z
		 M259.8,480.5c-0.2,0-0.5-0.1-0.7-0.2c-2-1.2-4-2.4-5.9-3.7c-0.6-0.4-0.8-1.2-0.4-1.8c0.4-0.6,1.2-0.8,1.8-0.4
		c1.9,1.2,3.9,2.5,5.8,3.6c0.6,0.4,0.8,1.2,0.4,1.8C260.6,480.3,260.2,480.5,259.8,480.5z M515.2,476.9c-0.4,0-0.8-0.2-1.1-0.6
		c-0.4-0.6-0.2-1.4,0.4-1.8c1.9-1.2,3.8-2.5,5.7-3.8c0.6-0.4,1.4-0.3,1.8,0.3c0.4,0.6,0.3,1.4-0.3,1.8c-1.9,1.3-3.8,2.6-5.8,3.8
		C515.7,476.8,515.4,476.9,515.2,476.9z M248.2,473c-0.3,0-0.5-0.1-0.7-0.2c-1.9-1.3-3.8-2.6-5.7-4c-0.6-0.4-0.7-1.2-0.3-1.8
		c0.4-0.6,1.2-0.7,1.8-0.3c1.8,1.3,3.7,2.7,5.6,4c0.6,0.4,0.7,1.2,0.3,1.8C249,472.8,248.6,473,248.2,473z M526.6,469.1
		c-0.4,0-0.8-0.2-1-0.5c-0.4-0.6-0.3-1.4,0.3-1.8c1.9-1.3,3.7-2.7,5.5-4.1c0.6-0.4,1.4-0.3,1.8,0.2c0.4,0.6,0.3,1.4-0.2,1.8
		c-1.8,1.4-3.7,2.8-5.5,4.2C527.1,469,526.8,469.1,526.6,469.1z M237,464.9c-0.3,0-0.6-0.1-0.8-0.3c-1.8-1.4-3.6-2.9-5.4-4.3
		c-0.6-0.5-0.6-1.3-0.2-1.8c0.5-0.6,1.3-0.6,1.8-0.2c1.8,1.4,3.6,2.9,5.4,4.3c0.6,0.4,0.7,1.2,0.2,1.8
		C237.8,464.7,237.4,464.9,237,464.9z M537.5,460.7c-0.4,0-0.7-0.2-1-0.5c-0.5-0.6-0.4-1.4,0.2-1.8c1.8-1.4,3.5-2.9,5.2-4.4
		c0.5-0.5,1.4-0.4,1.8,0.1c0.5,0.5,0.4,1.4-0.1,1.8c-1.7,1.5-3.5,3-5.3,4.5C538,460.6,537.8,460.7,537.5,460.7z M226.3,456.2
		c-0.3,0-0.6-0.1-0.8-0.3c-1.7-1.5-3.5-3.1-5.2-4.6c-0.5-0.5-0.6-1.3-0.1-1.8c0.5-0.5,1.3-0.6,1.8-0.1c1.7,1.5,3.4,3.1,5.1,4.6
		c0.5,0.5,0.6,1.3,0.1,1.8C227,456,226.7,456.2,226.3,456.2z M547.9,451.6c-0.3,0-0.7-0.1-1-0.4c-0.5-0.5-0.4-1.3,0.1-1.8
		c1.7-1.5,3.4-3.1,5-4.7c0.5-0.5,1.3-0.5,1.8,0c0.5,0.5,0.5,1.3,0,1.8c-1.6,1.6-3.3,3.2-5,4.8C548.5,451.5,548.2,451.6,547.9,451.6z
		 M216.1,446.8c-0.3,0-0.6-0.1-0.9-0.4c-1.7-1.6-3.3-3.3-4.9-4.9c-0.5-0.5-0.5-1.3,0-1.8c0.5-0.5,1.3-0.5,1.8,0
		c1.6,1.6,3.2,3.3,4.9,4.9c0.5,0.5,0.5,1.3,0,1.8C216.8,446.7,216.5,446.8,216.1,446.8z M557.8,442c-0.3,0-0.6-0.1-0.9-0.4
		c-0.5-0.5-0.5-1.3,0-1.8c1.6-1.6,3.2-3.3,4.7-5c0.5-0.5,1.3-0.6,1.8-0.1c0.5,0.5,0.6,1.3,0.1,1.8c-1.6,1.7-3.2,3.4-4.8,5
		C558.5,441.9,558.1,442,557.8,442z M206.5,436.9c-0.3,0-0.7-0.1-1-0.4c-1.6-1.7-3.1-3.4-4.6-5.2c-0.5-0.5-0.4-1.4,0.1-1.8
		c0.5-0.5,1.4-0.4,1.8,0.1c1.5,1.7,3,3.4,4.6,5.1c0.5,0.5,0.4,1.3-0.1,1.8C207.1,436.8,206.8,436.9,206.5,436.9z M567.1,431.9
		c-0.3,0-0.6-0.1-0.8-0.3c-0.5-0.5-0.6-1.3-0.1-1.8c1.5-1.7,3-3.5,4.4-5.2c0.5-0.5,1.3-0.6,1.8-0.2c0.6,0.5,0.6,1.3,0.2,1.8
		c-1.5,1.8-3,3.6-4.5,5.3C567.8,431.7,567.5,431.9,567.1,431.9z M197.5,426.5c-0.4,0-0.7-0.2-1-0.5c-1.5-1.8-2.9-3.6-4.3-5.4
		c-0.4-0.6-0.3-1.4,0.2-1.8c0.6-0.4,1.4-0.3,1.8,0.2c1.4,1.8,2.8,3.6,4.3,5.4c0.5,0.6,0.4,1.4-0.2,1.8
		C198.1,426.4,197.8,426.5,197.5,426.5z M575.9,421.2c-0.3,0-0.6-0.1-0.8-0.3c-0.6-0.4-0.7-1.2-0.2-1.8c1.4-1.8,2.8-3.6,4.1-5.5
		c0.4-0.6,1.2-0.7,1.8-0.3c0.6,0.4,0.7,1.2,0.3,1.8c-1.4,1.9-2.8,3.7-4.2,5.6C576.6,421,576.3,421.2,575.9,421.2z M189.1,415.6
		c-0.4,0-0.8-0.2-1-0.5c-1.4-1.9-2.7-3.8-4-5.7c-0.4-0.6-0.3-1.4,0.3-1.8c0.6-0.4,1.4-0.3,1.8,0.3c1.3,1.9,2.6,3.8,4,5.6
		c0.4,0.6,0.3,1.4-0.3,1.8C189.6,415.5,189.3,415.6,189.1,415.6z M584,410c-0.3,0-0.5-0.1-0.7-0.2c-0.6-0.4-0.7-1.2-0.3-1.8
		c1.3-1.9,2.6-3.8,3.8-5.7c0.4-0.6,1.2-0.8,1.8-0.4c0.6,0.4,0.8,1.2,0.4,1.8c-1.3,1.9-2.5,3.9-3.8,5.8
		C584.8,409.8,584.4,410,584,410z M181.3,404.2c-0.4,0-0.8-0.2-1.1-0.6c-1.2-1.9-2.5-3.9-3.7-5.9c-0.4-0.6-0.2-1.4,0.4-1.8
		c0.6-0.4,1.4-0.2,1.8,0.4c1.2,2,2.4,3.9,3.6,5.8c0.4,0.6,0.2,1.4-0.4,1.8C181.7,404.2,181.5,404.2,181.3,404.2z M591.5,398.4
		c-0.2,0-0.5-0.1-0.7-0.2c-0.6-0.4-0.8-1.2-0.4-1.8c1.2-1.9,2.3-3.9,3.5-5.9c0.4-0.6,1.1-0.8,1.8-0.5c0.6,0.4,0.8,1.1,0.5,1.8
		c-1.1,2-2.3,4-3.5,6C592.4,398.2,591.9,398.4,591.5,398.4z M174.1,392.5c-0.4,0-0.9-0.2-1.1-0.7c-1.1-2-2.3-4-3.3-6.1
		c-0.3-0.6-0.1-1.4,0.5-1.7c0.6-0.3,1.4-0.1,1.7,0.5c1.1,2,2.2,4,3.3,6c0.4,0.6,0.1,1.4-0.5,1.8
		C174.6,392.4,174.4,392.5,174.1,392.5z M598.3,386.4c-0.2,0-0.4,0-0.6-0.1c-0.6-0.3-0.9-1.1-0.5-1.7c1.1-2,2.1-4.1,3.1-6.1
		c0.3-0.6,1.1-0.9,1.7-0.6c0.6,0.3,0.9,1.1,0.6,1.7c-1,2.1-2.1,4.1-3.2,6.2C599.2,386.1,598.8,386.4,598.3,386.4z M167.7,380.3
		c-0.5,0-0.9-0.3-1.2-0.7c-1-2.1-2-4.2-3-6.2c-0.3-0.6,0-1.4,0.6-1.7c0.6-0.3,1.4,0,1.7,0.6c0.9,2.1,1.9,4.1,2.9,6.2
		c0.3,0.6,0.1,1.4-0.6,1.7C168.1,380.3,167.9,380.3,167.7,380.3z M604.4,374c-0.2,0-0.4,0-0.5-0.1c-0.6-0.3-0.9-1.1-0.6-1.7
		c1-2.1,1.9-4.2,2.8-6.3c0.3-0.7,1-1,1.7-0.7c0.7,0.3,1,1,0.7,1.7c-0.9,2.1-1.8,4.3-2.8,6.4C605.4,373.7,604.9,374,604.4,374z
		 M162,367.8c-0.5,0-1-0.3-1.2-0.8c-0.9-2.1-1.8-4.3-2.6-6.4c-0.3-0.7,0.1-1.4,0.7-1.7c0.7-0.3,1.4,0.1,1.7,0.7
		c0.8,2.1,1.7,4.2,2.6,6.3c0.3,0.7,0,1.4-0.7,1.7C162.3,367.8,162.1,367.8,162,367.8z M609.8,361.2c-0.2,0-0.3,0-0.5-0.1
		c-0.7-0.3-1-1-0.7-1.7c0.8-2.1,1.6-4.3,2.4-6.5c0.2-0.7,1-1,1.6-0.8c0.7,0.2,1,1,0.8,1.6c-0.8,2.2-1.6,4.4-2.4,6.5
		C610.8,360.9,610.3,361.2,609.8,361.2z M157,355c-0.5,0-1-0.3-1.2-0.9c-0.8-2.2-1.5-4.4-2.2-6.6c-0.2-0.7,0.1-1.4,0.8-1.6
		c0.7-0.2,1.4,0.1,1.6,0.8c0.7,2.2,1.5,4.4,2.2,6.5c0.2,0.7-0.1,1.4-0.8,1.6C157.2,354.9,157.1,355,157,355z M614.5,348.2
		c-0.1,0-0.3,0-0.4-0.1c-0.7-0.2-1-0.9-0.8-1.6c0.7-2.2,1.4-4.4,2-6.6c0.2-0.7,0.9-1.1,1.6-0.9c0.7,0.2,1.1,0.9,0.9,1.6
		c-0.6,2.2-1.3,4.4-2,6.6C615.5,347.9,615,348.2,614.5,348.2z M152.7,341.8c-0.6,0-1.1-0.4-1.2-0.9c-0.6-2.2-1.3-4.5-1.9-6.7
		c-0.2-0.7,0.2-1.4,0.9-1.6c0.7-0.2,1.4,0.2,1.6,0.9c0.6,2.2,1.2,4.4,1.8,6.6c0.2,0.7-0.2,1.4-0.9,1.6
		C152.9,341.8,152.8,341.8,152.7,341.8z M618.3,335c-0.1,0-0.2,0-0.3,0c-0.7-0.2-1.1-0.9-0.9-1.6c0.6-2.2,1.1-4.4,1.6-6.7
		c0.2-0.7,0.9-1.1,1.5-1c0.7,0.2,1.1,0.9,1,1.5c-0.5,2.2-1.1,4.5-1.7,6.7C619.4,334.6,618.9,335,618.3,335z M149.2,328.5
		c-0.6,0-1.1-0.4-1.3-1c-0.5-2.2-1-4.5-1.5-6.8c-0.1-0.7,0.3-1.4,1-1.5c0.7-0.1,1.4,0.3,1.5,1c0.5,2.2,0.9,4.5,1.5,6.7
		c0.2,0.7-0.3,1.4-1,1.5C149.4,328.5,149.3,328.5,149.2,328.5z M621.5,321.5c-0.1,0-0.2,0-0.3,0c-0.7-0.1-1.2-0.8-1-1.5
		c0.5-2.3,0.9-4.5,1.3-6.7c0.1-0.7,0.8-1.2,1.5-1.1c0.7,0.1,1.2,0.8,1.1,1.5c-0.4,2.2-0.8,4.5-1.3,6.8
		C622.6,321.1,622.1,321.5,621.5,321.5z M146.4,315c-0.6,0-1.2-0.4-1.3-1.1c-0.4-2.3-0.8-4.6-1.1-6.9c-0.1-0.7,0.4-1.4,1.1-1.5
		c0.7-0.1,1.4,0.4,1.5,1.1c0.3,2.3,0.7,4.5,1.1,6.8c0.1,0.7-0.3,1.4-1.1,1.5C146.6,315,146.5,315,146.4,315z M623.8,307.9
		c-0.1,0-0.1,0-0.2,0c-0.7-0.1-1.2-0.8-1.1-1.5c0.3-2.3,0.6-4.6,0.9-6.8c0.1-0.7,0.7-1.2,1.4-1.1c0.7,0.1,1.2,0.7,1.1,1.4
		c-0.3,2.3-0.6,4.6-0.9,6.9C625,307.5,624.4,307.9,623.8,307.9z M144.5,301.3c-0.6,0-1.2-0.5-1.3-1.1c-0.3-2.3-0.5-4.6-0.7-6.9
		c-0.1-0.7,0.5-1.3,1.2-1.4c0.7-0.1,1.3,0.5,1.4,1.2c0.2,2.3,0.4,4.6,0.7,6.8c0.1,0.7-0.4,1.3-1.1,1.4
		C144.6,301.3,144.5,301.3,144.5,301.3z M625.4,294.2c0,0-0.1,0-0.1,0c-0.7-0.1-1.2-0.7-1.2-1.4c0.2-2.3,0.4-4.6,0.5-6.8
		c0-0.7,0.7-1.3,1.4-1.2c0.7,0,1.3,0.6,1.2,1.4c-0.1,2.3-0.3,4.6-0.5,6.9C626.6,293.7,626,294.2,625.4,294.2z M143.3,287.6
		c-0.7,0-1.2-0.5-1.3-1.2c-0.1-2.3-0.2-4.6-0.3-6.9c0-0.7,0.5-1.3,1.3-1.3c0.7,0,1.3,0.5,1.3,1.3c0.1,2.3,0.2,4.6,0.3,6.9
		C144.6,286.9,144.1,287.5,143.3,287.6C143.3,287.6,143.3,287.6,143.3,287.6z M626.1,280.4C626.1,280.4,626.1,280.4,626.1,280.4
		c-0.7,0-1.3-0.6-1.3-1.3c0.1-2.3,0.1-4.6,0.1-6.9v-0.5c0-0.7,0.6-1.3,1.3-1.3s1.3,0.6,1.3,1.3v0.5c0,2.3,0,4.6-0.1,6.9
		C627.4,279.9,626.8,280.4,626.1,280.4z M142.9,273.8c-0.7,0-1.3-0.6-1.3-1.3v-0.2c0-2.2,0-4.5,0.1-6.7c0-0.7,0.7-1.3,1.3-1.3
		c0.7,0,1.3,0.6,1.3,1.3c-0.1,2.2-0.1,4.4-0.1,6.6v0.2C144.2,273.2,143.6,273.8,142.9,273.8z M626.1,266.2c-0.7,0-1.3-0.6-1.3-1.3
		c-0.1-2.3-0.2-4.6-0.3-6.9c0-0.7,0.5-1.3,1.2-1.4c0.7,0,1.3,0.5,1.4,1.2c0.1,2.3,0.2,4.6,0.3,6.9
		C627.4,265.6,626.9,266.2,626.1,266.2C626.1,266.2,626.1,266.2,626.1,266.2z M143.3,260C143.2,260,143.2,260,143.3,260
		c-0.8,0-1.3-0.6-1.3-1.4c0.1-2.3,0.3-4.6,0.5-6.9c0.1-0.7,0.7-1.2,1.4-1.2c0.7,0.1,1.2,0.7,1.2,1.4c-0.2,2.3-0.3,4.6-0.5,6.8
		C144.5,259.4,143.9,260,143.3,260z M625.3,252.4c-0.7,0-1.2-0.5-1.3-1.2c-0.2-2.3-0.4-4.6-0.7-6.8c-0.1-0.7,0.4-1.3,1.1-1.4
		c0.7-0.1,1.3,0.4,1.4,1.1c0.3,2.3,0.5,4.6,0.7,6.9c0.1,0.7-0.5,1.3-1.2,1.4C625.4,252.4,625.4,252.4,625.3,252.4z M144.4,246.2
		c0,0-0.1,0-0.1,0c-0.7-0.1-1.2-0.7-1.1-1.4c0.3-2.3,0.6-4.6,0.9-6.9c0.1-0.7,0.8-1.2,1.5-1.1c0.7,0.1,1.2,0.8,1.1,1.5
		c-0.3,2.2-0.6,4.5-0.9,6.8C145.6,245.7,145.1,246.2,144.4,246.2z M623.7,238.7c-0.6,0-1.2-0.5-1.3-1.1c-0.3-2.3-0.7-4.5-1.1-6.8
		c-0.1-0.7,0.3-1.4,1-1.5c0.7-0.1,1.4,0.3,1.5,1.1c0.4,2.3,0.8,4.6,1.1,6.9c0.1,0.7-0.4,1.4-1.1,1.5
		C623.9,238.7,623.8,238.7,623.7,238.7z M146.4,232.6c-0.1,0-0.1,0-0.2,0c-0.7-0.1-1.2-0.8-1.1-1.5c0.4-2.3,0.8-4.6,1.3-6.8
		c0.1-0.7,0.8-1.2,1.5-1c0.7,0.1,1.2,0.8,1,1.5c-0.4,2.2-0.9,4.5-1.3,6.7C147.5,232.1,147,232.6,146.4,232.6z M621.4,225.1
		c-0.6,0-1.1-0.4-1.3-1c-0.5-2.2-0.9-4.5-1.5-6.7c-0.2-0.7,0.3-1.4,1-1.5c0.7-0.2,1.4,0.3,1.6,1c0.5,2.3,1,4.5,1.5,6.8
		c0.1,0.7-0.3,1.4-1,1.5C621.5,225.1,621.5,225.1,621.4,225.1z M149.1,219c-0.1,0-0.2,0-0.3,0c-0.7-0.2-1.1-0.9-1-1.5
		c0.5-2.3,1.1-4.5,1.7-6.7c0.2-0.7,0.9-1.1,1.6-0.9c0.7,0.2,1.1,0.9,0.9,1.6c-0.6,2.2-1.1,4.4-1.6,6.7
		C150.2,218.6,149.7,219,149.1,219z M618.2,211.7c-0.6,0-1.1-0.4-1.2-1c-0.6-2.2-1.2-4.4-1.8-6.6c-0.2-0.7,0.2-1.4,0.9-1.6
		c0.7-0.2,1.4,0.2,1.6,0.9c0.7,2.2,1.3,4.4,1.9,6.7c0.2,0.7-0.2,1.4-0.9,1.6C618.5,211.6,618.3,211.7,618.2,211.7z M152.6,205.7
		c-0.1,0-0.2,0-0.4-0.1c-0.7-0.2-1.1-0.9-0.9-1.6c0.6-2.2,1.3-4.4,2-6.6c0.2-0.7,0.9-1,1.6-0.8c0.7,0.2,1,0.9,0.8,1.6
		c-0.7,2.2-1.4,4.4-2,6.6C153.6,205.3,153.1,205.7,152.6,205.7z M614.3,198.4c-0.5,0-1-0.3-1.2-0.9c-0.7-2.2-1.5-4.3-2.2-6.5
		c-0.2-0.7,0.1-1.4,0.8-1.6c0.7-0.2,1.4,0.1,1.7,0.8c0.8,2.2,1.5,4.4,2.2,6.6c0.2,0.7-0.1,1.4-0.8,1.6
		C614.6,198.4,614.5,198.4,614.3,198.4z M156.8,192.5c-0.1,0-0.3,0-0.4-0.1c-0.7-0.2-1-1-0.8-1.6c0.8-2.2,1.6-4.4,2.4-6.5
		c0.3-0.7,1-1,1.7-0.7c0.7,0.3,1,1,0.7,1.7c-0.8,2.1-1.6,4.3-2.4,6.5C157.8,192.2,157.3,192.5,156.8,192.5z M609.7,185.4
		c-0.5,0-1-0.3-1.2-0.8c-0.8-2.1-1.7-4.2-2.6-6.3c-0.3-0.7,0-1.4,0.7-1.7c0.7-0.3,1.4,0,1.7,0.7c0.9,2.1,1.8,4.3,2.6,6.4
		c0.3,0.7-0.1,1.4-0.7,1.7C610,185.4,609.8,185.4,609.7,185.4z M161.8,179.6c-0.2,0-0.3,0-0.5-0.1c-0.7-0.3-1-1-0.7-1.7
		c0.9-2.1,1.8-4.3,2.8-6.4c0.3-0.6,1.1-0.9,1.7-0.6c0.6,0.3,0.9,1.1,0.6,1.7c-0.9,2.1-1.9,4.2-2.8,6.3
		C162.8,179.3,162.3,179.6,161.8,179.6z M604.3,172.8c-0.5,0-1-0.3-1.2-0.8c-0.9-2.1-1.9-4.1-2.9-6.2c-0.3-0.6-0.1-1.4,0.6-1.7
		c0.6-0.3,1.4-0.1,1.7,0.6c1,2.1,2,4.2,3,6.2c0.3,0.6,0,1.4-0.6,1.7C604.6,172.7,604.5,172.8,604.3,172.8z M167.6,167
		c-0.2,0-0.4,0-0.6-0.1c-0.6-0.3-0.9-1.1-0.6-1.7c1-2.1,2.1-4.2,3.2-6.2c0.3-0.6,1.1-0.9,1.7-0.5c0.6,0.3,0.9,1.1,0.5,1.7
		c-1.1,2-2.1,4.1-3.1,6.1C168.5,166.8,168,167,167.6,167z M598.2,160.4c-0.5,0-0.9-0.2-1.1-0.7c-1.1-2-2.2-4-3.3-6
		c-0.4-0.6-0.1-1.4,0.5-1.8c0.6-0.4,1.4-0.1,1.8,0.5c1.1,2,2.3,4,3.3,6.1c0.3,0.6,0.1,1.4-0.5,1.7
		C598.6,160.4,598.4,160.4,598.2,160.4z M174,154.8c-0.2,0-0.4-0.1-0.6-0.2c-0.6-0.4-0.8-1.1-0.5-1.8c1.1-2,2.3-4,3.5-6
		c0.4-0.6,1.2-0.8,1.8-0.4c0.6,0.4,0.8,1.2,0.4,1.8c-1.2,2-2.3,4-3.5,5.9C174.9,154.6,174.5,154.8,174,154.8z M591.4,148.5
		c-0.4,0-0.9-0.2-1.1-0.6c-1.2-1.9-2.4-3.9-3.6-5.8c-0.4-0.6-0.2-1.4,0.4-1.8c0.6-0.4,1.4-0.2,1.8,0.4c1.2,1.9,2.5,3.9,3.7,5.9
		c0.4,0.6,0.2,1.4-0.4,1.8C591.8,148.4,591.6,148.5,591.4,148.5z M181.2,143c-0.2,0-0.5-0.1-0.7-0.2c-0.6-0.4-0.8-1.2-0.4-1.8
		c1.2-1.9,2.5-3.9,3.8-5.8c0.4-0.6,1.2-0.7,1.8-0.3c0.6,0.4,0.7,1.2,0.3,1.8c-1.3,1.9-2.6,3.8-3.8,5.7
		C182,142.8,181.6,143,181.2,143z M583.9,136.9c-0.4,0-0.8-0.2-1.1-0.6c-1.3-1.9-2.6-3.8-4-5.6c-0.4-0.6-0.3-1.4,0.3-1.8
		c0.6-0.4,1.4-0.3,1.8,0.3c1.4,1.9,2.7,3.8,4,5.7c0.4,0.6,0.3,1.4-0.3,1.8C584.4,136.8,584.2,136.9,583.9,136.9z M189,131.6
		c-0.3,0-0.5-0.1-0.8-0.2c-0.6-0.4-0.7-1.2-0.3-1.8c1.4-1.9,2.8-3.7,4.2-5.6c0.4-0.6,1.2-0.7,1.8-0.2c0.6,0.4,0.7,1.2,0.2,1.8
		c-1.4,1.8-2.8,3.7-4.1,5.5C189.8,131.4,189.4,131.6,189,131.6z M575.8,125.8c-0.4,0-0.8-0.2-1-0.5c-1.4-1.8-2.8-3.6-4.3-5.4
		c-0.5-0.6-0.4-1.4,0.2-1.8c0.5-0.5,1.4-0.4,1.8,0.2c1.5,1.8,2.9,3.6,4.3,5.4c0.4,0.6,0.3,1.4-0.2,1.8
		C576.3,125.7,576.1,125.8,575.8,125.8z M197.4,120.6c-0.3,0-0.6-0.1-0.8-0.3c-0.6-0.5-0.6-1.3-0.2-1.8c1.5-1.8,3-3.6,4.5-5.3
		c0.5-0.5,1.3-0.6,1.8-0.1c0.5,0.5,0.6,1.3,0.1,1.8c-1.5,1.7-3,3.5-4.4,5.3C198.1,120.5,197.8,120.6,197.4,120.6z M567,115.1
		c-0.4,0-0.7-0.2-1-0.4c-1.5-1.7-3-3.4-4.6-5.1c-0.5-0.5-0.4-1.3,0.1-1.8c0.5-0.5,1.3-0.4,1.8,0.1c1.6,1.7,3.1,3.4,4.6,5.2
		c0.5,0.5,0.4,1.4-0.1,1.8C567.6,115,567.3,115.1,567,115.1z M206.4,110.2c-0.3,0-0.6-0.1-0.9-0.3c-0.5-0.5-0.6-1.3-0.1-1.8
		c1.6-1.7,3.2-3.4,4.8-5c0.5-0.5,1.3-0.5,1.8,0c0.5,0.5,0.5,1.3,0,1.8c-1.6,1.6-3.2,3.3-4.7,5C207.1,110.1,206.8,110.2,206.4,110.2z
		 M557.7,104.9c-0.3,0-0.7-0.1-0.9-0.4c-1.6-1.6-3.2-3.3-4.9-4.8c-0.5-0.5-0.5-1.3,0-1.8c0.5-0.5,1.3-0.5,1.8,0
		c1.6,1.6,3.3,3.2,4.9,4.9c0.5,0.5,0.5,1.3,0,1.8C558.4,104.8,558,104.9,557.7,104.9z M216,100.3c-0.3,0-0.7-0.1-0.9-0.4
		c-0.5-0.5-0.5-1.3,0-1.8c1.6-1.6,3.3-3.2,5-4.8c0.5-0.5,1.3-0.4,1.8,0.1c0.5,0.5,0.4,1.3-0.1,1.8c-1.7,1.5-3.4,3.1-5,4.7
		C216.7,100.2,216.4,100.3,216,100.3z M547.8,95.3c-0.3,0-0.6-0.1-0.9-0.3c-1.7-1.5-3.4-3.1-5.1-4.6c-0.5-0.5-0.6-1.3-0.1-1.8
		c0.5-0.5,1.3-0.6,1.8-0.1c1.7,1.5,3.5,3.1,5.2,4.6c0.5,0.5,0.6,1.3,0.1,1.8C548.5,95.2,548.1,95.3,547.8,95.3z M226.2,91
		c-0.4,0-0.7-0.2-1-0.4c-0.5-0.5-0.4-1.4,0.1-1.8c1.7-1.5,3.5-3,5.3-4.5c0.6-0.5,1.4-0.4,1.8,0.2c0.5,0.6,0.4,1.4-0.2,1.8
		c-1.8,1.4-3.5,2.9-5.2,4.4C226.8,90.9,226.5,91,226.2,91z M537.4,86.3c-0.3,0-0.6-0.1-0.8-0.3c-1.8-1.4-3.6-2.9-5.4-4.3
		c-0.6-0.4-0.7-1.2-0.2-1.8c0.4-0.6,1.2-0.7,1.8-0.2c1.8,1.4,3.7,2.9,5.4,4.3c0.6,0.5,0.6,1.3,0.2,1.8
		C538.1,86.1,537.7,86.3,537.4,86.3z M236.9,82.2c-0.4,0-0.8-0.2-1-0.5c-0.4-0.6-0.3-1.4,0.2-1.8c1.8-1.4,3.7-2.8,5.5-4.2
		c0.6-0.4,1.4-0.3,1.8,0.3c0.4,0.6,0.3,1.4-0.3,1.8c-1.8,1.3-3.7,2.7-5.5,4.1C237.4,82.1,237.1,82.2,236.9,82.2z M526.4,77.9
		c-0.3,0-0.5-0.1-0.8-0.2c-1.8-1.3-3.7-2.7-5.6-4c-0.6-0.4-0.7-1.2-0.3-1.8c0.4-0.6,1.2-0.7,1.8-0.3c1.9,1.3,3.8,2.6,5.7,4
		c0.6,0.4,0.7,1.2,0.3,1.8C527.2,77.7,526.8,77.9,526.4,77.9z M248,74.1c-0.4,0-0.8-0.2-1.1-0.6c-0.4-0.6-0.3-1.4,0.3-1.8
		c1.9-1.3,3.8-2.6,5.8-3.8c0.6-0.4,1.4-0.2,1.8,0.4c0.4,0.6,0.2,1.4-0.4,1.8c-1.9,1.2-3.8,2.5-5.7,3.8C248.5,74,248.3,74.1,248,74.1
		z M515,70.1c-0.2,0-0.5-0.1-0.7-0.2c-1.9-1.2-3.9-2.5-5.8-3.6c-0.6-0.4-0.8-1.2-0.4-1.8c0.4-0.6,1.2-0.8,1.8-0.4
		c2,1.2,4,2.4,5.9,3.7c0.6,0.4,0.8,1.2,0.4,1.8C515.9,69.9,515.4,70.1,515,70.1z M259.6,66.6c-0.4,0-0.9-0.2-1.1-0.6
		c-0.4-0.6-0.2-1.4,0.4-1.8c2-1.2,4-2.4,6-3.5c0.6-0.4,1.4-0.1,1.8,0.5c0.4,0.6,0.1,1.4-0.5,1.8c-2,1.1-4,2.3-5.9,3.5
		C260,66.6,259.8,66.6,259.6,66.6z M503.2,62.9c-0.2,0-0.4-0.1-0.6-0.2c-2-1.1-4-2.2-6-3.3c-0.6-0.3-0.9-1.1-0.5-1.7
		c0.3-0.6,1.1-0.9,1.7-0.5c2.1,1.1,4.1,2.2,6.1,3.3c0.6,0.4,0.8,1.1,0.5,1.8C504.1,62.7,503.6,62.9,503.2,62.9z M271.6,59.9
		c-0.5,0-0.9-0.2-1.1-0.7c-0.3-0.6-0.1-1.4,0.5-1.7c2-1.1,4.1-2.1,6.2-3.2c0.6-0.3,1.4-0.1,1.7,0.6c0.3,0.6,0.1,1.4-0.6,1.7
		c-2,1-4.1,2.1-6.1,3.1C272,59.8,271.8,59.9,271.6,59.9z M491,56.5c-0.2,0-0.4,0-0.6-0.1c-2-1-4.1-2-6.2-2.9
		c-0.6-0.3-0.9-1.1-0.6-1.7c0.3-0.6,1.1-0.9,1.7-0.6c2.1,1,4.2,2,6.3,3c0.6,0.3,0.9,1.1,0.6,1.7C491.9,56.2,491.4,56.5,491,56.5z
		 M283.9,53.8c-0.5,0-1-0.3-1.2-0.8c-0.3-0.6,0-1.4,0.6-1.7c2.1-1,4.2-1.9,6.3-2.8c0.7-0.3,1.4,0,1.7,0.7c0.3,0.7,0,1.4-0.7,1.7
		c-2.1,0.9-4.2,1.8-6.3,2.8C284.3,53.7,284.1,53.8,283.9,53.8z M478.4,50.7c-0.2,0-0.3,0-0.5-0.1c-2.1-0.9-4.2-1.8-6.4-2.6
		c-0.7-0.3-1-1-0.7-1.7c0.3-0.7,1-1,1.7-0.7c2.2,0.8,4.3,1.7,6.4,2.6c0.7,0.3,1,1,0.7,1.7C479.3,50.4,478.9,50.7,478.4,50.7z
		 M296.6,48.4c-0.5,0-1-0.3-1.2-0.8c-0.3-0.7,0.1-1.4,0.7-1.7c2.1-0.8,4.3-1.7,6.5-2.4c0.7-0.2,1.4,0.1,1.6,0.8
		c0.2,0.7-0.1,1.4-0.8,1.6c-2.1,0.8-4.3,1.6-6.4,2.4C296.9,48.4,296.7,48.4,296.6,48.4z M465.5,45.7c-0.1,0-0.3,0-0.4-0.1
		c-2.1-0.8-4.3-1.5-6.5-2.2c-0.7-0.2-1-0.9-0.8-1.6c0.2-0.7,0.9-1.1,1.6-0.8c2.2,0.7,4.4,1.5,6.6,2.2c0.7,0.2,1,1,0.8,1.6
		C466.5,45.4,466,45.7,465.5,45.7z M309.6,43.7c-0.5,0-1-0.3-1.2-0.9c-0.2-0.7,0.1-1.4,0.8-1.6c2.2-0.7,4.4-1.4,6.6-2.1
		c0.7-0.2,1.4,0.2,1.6,0.9c0.2,0.7-0.2,1.4-0.9,1.6c-2.2,0.6-4.4,1.3-6.6,2C309.8,43.7,309.7,43.7,309.6,43.7z M452.3,41.5
		c-0.1,0-0.2,0-0.4-0.1c-2.2-0.6-4.4-1.2-6.6-1.8c-0.7-0.2-1.1-0.9-0.9-1.6c0.2-0.7,0.9-1.1,1.6-0.9c2.2,0.6,4.5,1.2,6.7,1.8
		c0.7,0.2,1.1,0.9,0.9,1.6C453.4,41.1,452.9,41.5,452.3,41.5z M322.8,39.8c-0.6,0-1.1-0.4-1.2-1c-0.2-0.7,0.2-1.4,0.9-1.6
		c2.2-0.6,4.5-1.1,6.7-1.7c0.7-0.2,1.4,0.3,1.5,1c0.2,0.7-0.3,1.4-1,1.5c-2.2,0.5-4.5,1.1-6.7,1.7C323,39.8,322.9,39.8,322.8,39.8z
		 M439,38c-0.1,0-0.2,0-0.3,0c-2.2-0.5-4.5-1-6.7-1.4c-0.7-0.1-1.2-0.8-1-1.5c0.1-0.7,0.8-1.2,1.5-1c2.3,0.5,4.5,0.9,6.8,1.5
		c0.7,0.2,1.1,0.9,1,1.5C440.1,37.6,439.5,38,439,38z M336.2,36.7c-0.6,0-1.1-0.4-1.3-1c-0.1-0.7,0.3-1.4,1-1.5
		c2.3-0.5,4.6-0.9,6.8-1.3c0.7-0.1,1.4,0.3,1.5,1.1c0.1,0.7-0.3,1.4-1.1,1.5c-2.2,0.4-4.5,0.8-6.7,1.3
		C336.4,36.7,336.3,36.7,336.2,36.7z M425.4,35.3c-0.1,0-0.1,0-0.2,0c-2.2-0.4-4.5-0.7-6.8-1.1c-0.7-0.1-1.2-0.8-1.1-1.5
		c0.1-0.7,0.8-1.2,1.5-1.1c2.3,0.3,4.6,0.7,6.9,1.1c0.7,0.1,1.2,0.8,1.1,1.5C426.6,34.9,426,35.3,425.4,35.3z M349.8,34.3
		c-0.6,0-1.2-0.5-1.3-1.1c-0.1-0.7,0.4-1.4,1.1-1.5c2.3-0.3,4.6-0.6,6.9-0.9c0.7-0.1,1.3,0.4,1.4,1.1c0.1,0.7-0.4,1.3-1.1,1.4
		c-2.3,0.3-4.6,0.6-6.8,0.9C350,34.3,349.9,34.3,349.8,34.3z M411.8,33.4c0,0-0.1,0-0.1,0c-2.3-0.3-4.6-0.5-6.8-0.7
		c-0.7-0.1-1.2-0.7-1.2-1.4c0.1-0.7,0.7-1.2,1.4-1.2c2.3,0.2,4.6,0.4,6.9,0.7c0.7,0.1,1.2,0.7,1.1,1.4
		C413,32.9,412.4,33.4,411.8,33.4z M363.5,32.8c-0.7,0-1.2-0.5-1.3-1.2c-0.1-0.7,0.5-1.3,1.2-1.4c2.3-0.2,4.6-0.4,6.9-0.5
		c0.7,0,1.3,0.5,1.4,1.2c0,0.7-0.5,1.3-1.2,1.4c-2.3,0.1-4.6,0.3-6.8,0.5C363.6,32.8,363.6,32.8,363.5,32.8z M398,32.2
		C398,32.2,398,32.2,398,32.2c-2.3-0.1-4.6-0.2-6.9-0.3c-0.7,0-1.3-0.6-1.3-1.3c0-0.7,0.6-1.3,1.3-1.3c2.3,0.1,4.6,0.2,6.9,0.3
		c0.7,0,1.3,0.6,1.2,1.4C399.3,31.7,398.7,32.2,398,32.2z M377.3,32c-0.7,0-1.3-0.6-1.3-1.3c0-0.7,0.5-1.3,1.3-1.3
		c2.3-0.1,4.6-0.1,6.9-0.1c0,0,0,0,0,0c0.7,0,1.3,0.6,1.3,1.3c0,0.7-0.6,1.3-1.3,1.3C381.9,31.9,379.6,31.9,377.3,32
		C377.3,32,377.3,32,377.3,32z"/>
</g>
</svg>
