<svg id="레이어_1" data-name="레이어 1" xmlns="http://www.w3.org/2000/svg" viewBox="0 0 120 120"><defs><style>.cls-1{fill:#f3f5fa;}.cls-2,.cls-3,.cls-4{fill:none;stroke-width:1.5px;}.cls-2,.cls-4{stroke:#231815;}.cls-2{stroke-miterlimit:10;}.cls-3{stroke:#4b8dc3;}.cls-3,.cls-4{stroke-linecap:round;stroke-linejoin:round;}.cls-5{fill:#4b8dc3;}</style></defs><title>무제-1</title><circle class="cls-1" cx="60" cy="60" r="60"/><line class="cls-2" x1="33.09" y1="67.3" x2="86.79" y2="67.3"/><path class="cls-2" d="M36.4,67.3V38.7a1.22,1.22,0,0,1,1.22-1.21H82.11a1.21,1.21,0,0,1,1.21,1.21V67.3"/><line class="cls-3" x1="71.38" y1="45.91" x2="45.21" y2="45.91"/><rect class="cls-4" x="48.91" y="51.66" width="7.28" height="3.64"/><rect class="cls-2" x="45.72" y="81.98" width="28.34" height="4.66" rx="2.33"/><path class="cls-2" d="M55.34,75.13S55.43,82,51,82"/><path class="cls-2" d="M64.69,75.13S64.61,82,69.07,82"/><rect class="cls-2" x="33.09" y="33.85" width="54" height="41.28" rx="2.9"/><rect class="cls-5" x="56.4" y="70.4" width="7.19" height="1.57" rx="0.79"/><polyline class="cls-4" points="71.38 54.83 71.38 41.38 45.21 41.38 45.21 45.98 45.21 59 67.11 59"/><polygon class="cls-3" points="65.57 53.48 68.38 62.7 70.36 60.85 73.17 63.79 75.85 60.98 73.11 58.17 74.96 56.06 65.57 53.48"/></svg>