<svg id="Layer_1" data-name="Layer 1" xmlns="http://www.w3.org/2000/svg" viewBox="0 0 100 100"><defs><style>.cls-1{fill:#2e69ad;}.cls-2,.cls-3{fill:none;stroke:#fff;stroke-miterlimit:10;}.cls-2{stroke-width:2px;}</style></defs><title>5</title><circle class="cls-1" cx="50" cy="50" r="50"/><polygon class="cls-2" points="28.98 30.94 28.98 78.63 71.02 78.63 71.02 30.94 57.69 30.94 57.57 26.14 43.51 26.14 43.51 30.7 28.98 30.94"/><polyline class="cls-2" points="43.51 30.7 43.51 33.83 57.69 33.83 57.69 30.94"/><path class="cls-2" d="M45.8,26.14a4.46,4.46,0,0,1,4.8-4.77s5.85-.16,5,4.77"/><line class="cls-2" x1="53.42" y1="40.07" x2="64.71" y2="40.07"/><line class="cls-2" x1="53.42" y1="46.5" x2="64.71" y2="46.5"/><line class="cls-2" x1="53.42" y1="52.92" x2="64.71" y2="52.92"/><line class="cls-2" x1="53.42" y1="59.35" x2="64.71" y2="59.35"/><line class="cls-2" x1="53.42" y1="65.77" x2="64.71" y2="65.77"/><line class="cls-2" x1="53.42" y1="72.2" x2="64.71" y2="72.2"/><path class="cls-3" d="M66.76,43.49"/><polygon class="cls-2" points="37.23 39.26 37.16 46.55 37.99 47.38 45.3 47.38 46.13 46.55 46.13 39.26 45.25 38.39 38.02 38.39 37.23 39.26"/><polygon class="cls-2" points="37.23 52.55 37.16 59.83 37.99 60.66 45.3 60.66 46.13 59.83 46.13 52.55 45.25 51.67 38.02 51.67 37.23 52.55"/><polygon class="cls-2" points="37.23 65.83 37.16 73.12 37.99 73.94 45.3 73.94 46.13 73.12 46.13 65.83 45.25 64.96 38.02 64.96 37.23 65.83"/></svg>