<svg xmlns="http://www.w3.org/2000/svg" viewBox="0 0 100 100"><defs><style>.cls-1{fill:#2e69ad;}.cls-2,.cls-3,.cls-4{fill:none;stroke:#fff;}.cls-2,.cls-3{stroke-miterlimit:10;}.cls-2{stroke-width:2px;}.cls-3,.cls-4{stroke-width:1.5px;}.cls-4{stroke-linecap:round;stroke-linejoin:round;}.cls-5{fill:#fff;}</style></defs><title>5_1</title><g id="레이어_2" data-name="레이어 2"><g id="레이어_1-2" data-name="레이어 1"><circle class="cls-1" cx="50" cy="50" r="50"/><rect class="cls-2" x="21.63" y="28.58" width="59.15" height="44.36" rx="2.85"/><line class="cls-2" x1="21.63" y1="35.26" x2="80.77" y2="35.26"/><path class="cls-2" d="M22.14,57.52a15.93,15.93,0,0,1,16,15.6"/><path class="cls-2" d="M21.63,44.64H32a.43.43,0,0,1,.43.43l0,4.35a.44.44,0,0,0,.19.36L35.79,52a.42.42,0,0,0,.51,0l4.31-3.47a.42.42,0,0,1,.57,0l6.4,6.39a.41.41,0,0,1,.06.52l-2.31,3.75a.43.43,0,0,0,0,.44l1.85,3.11a.44.44,0,0,0,.37.21h3.79a.41.41,0,0,1,.42.41v9.6"/><line class="cls-3" x1="55.18" y1="45.67" x2="63.52" y2="45.67"/><line class="cls-3" x1="55.18" y1="54.66" x2="63.52" y2="54.66"/><line class="cls-3" x1="55.18" y1="63.08" x2="63.52" y2="63.08"/><polyline class="cls-4" points="67.18 43.09 71.27 47.18 76.2 41.2"/><polyline class="cls-4" points="67.18 52.66 71.27 56.75 76.2 50.76"/><polyline class="cls-4" points="67.18 61.98 71.27 66.08 76.2 60.09"/><rect class="cls-5" x="56.39" y="30.65" width="2.33" height="2.33"/><rect class="cls-5" x="63.27" y="30.65" width="2.33" height="2.33"/><rect class="cls-5" x="70.53" y="30.65" width="2.33" height="2.33"/></g></g></svg>