<svg id="레이어_1" data-name="레이어 1" xmlns="http://www.w3.org/2000/svg" viewBox="0 0 350 482"><defs><style>.cls-1{fill:#efd274;}.cls-2{fill:#f5f5f5;}.cls-3{fill:#fbfbfb;}.cls-4{fill:#e0e0e0;}.cls-5{fill:#ebebeb;}.cls-6{fill:#fff;}.cls-7{fill:#263238;}.cls-8{fill:#ec6e5d;}.cls-9{fill:#455963;}.cls-10{opacity:0.3;}.cls-11{opacity:0.2;}.cls-12{font-size:30px;}.cls-12,.cls-14{fill:#231916;font-family:NotoSansKR-Bold-KSCpc-EUC-H, Noto Sans KR;}.cls-13{font-size:21px;fill:#828182;font-family:NotoSansKR-Medium-KSCpc-EUC-H, Noto Sans KR;}.cls-14{font-size:18px;}.cls-15{letter-spacing:-0.08em;}.cls-16{letter-spacing:-0.02em;}</style></defs><title>Artboard 24 copy 6</title><rect class="cls-1" x="0.16" y="-0.3" width="350" height="482"/><rect class="cls-2" x="22.13" y="149.21" width="40.06" height="122.71"/><rect class="cls-3" x="62.06" y="149.21" width="31.66" height="122.71"/><rect class="cls-4" x="24.28" y="168.85" width="33.98" height="9.57"/><rect class="cls-2" x="25.23" y="170.05" width="1.9" height="7.32"/><path class="cls-3" d="M29.37,171.59a.61.61,0,1,1-.6-.6A.6.6,0,0,1,29.37,171.59Z"/><circle class="cls-3" cx="28.77" cy="174.18" r="0.6"/><rect class="cls-2" x="31.79" y="170.99" width="1.87" height="5.62"/><rect class="cls-2" x="34.49" y="170.99" width="1.87" height="5.62"/><rect class="cls-2" x="37.19" y="170.99" width="1.87" height="5.62"/><rect class="cls-2" x="39.89" y="170.99" width="1.87" height="5.62"/><rect class="cls-2" x="42.59" y="170.99" width="1.87" height="5.62"/><rect class="cls-2" x="45.29" y="170.99" width="1.87" height="5.62"/><rect class="cls-2" x="47.99" y="170.99" width="1.87" height="5.62"/><rect class="cls-2" x="50.7" y="170.99" width="1.87" height="5.62"/><rect class="cls-2" x="53.4" y="170.99" width="1.87" height="5.62"/><rect class="cls-2" x="56.1" y="170.99" width="1.87" height="5.62"/><rect class="cls-4" x="24.28" y="184.17" width="33.98" height="9.57"/><rect class="cls-2" x="25.23" y="185.38" width="1.9" height="7.32"/><path class="cls-3" d="M29.37,186.92a.61.61,0,1,1-.6-.61A.6.6,0,0,1,29.37,186.92Z"/><path class="cls-3" d="M29.37,189.5a.61.61,0,1,1-.6-.6A.6.6,0,0,1,29.37,189.5Z"/><rect class="cls-2" x="31.79" y="186.31" width="1.87" height="5.62"/><rect class="cls-2" x="34.49" y="186.31" width="1.87" height="5.62"/><rect class="cls-2" x="37.19" y="186.31" width="1.87" height="5.62"/><rect class="cls-2" x="39.89" y="186.31" width="1.87" height="5.62"/><rect class="cls-2" x="42.59" y="186.31" width="1.87" height="5.62"/><rect class="cls-2" x="45.29" y="186.31" width="1.87" height="5.62"/><rect class="cls-2" x="47.99" y="186.31" width="1.87" height="5.62"/><rect class="cls-2" x="50.7" y="186.31" width="1.87" height="5.62"/><rect class="cls-2" x="53.4" y="186.31" width="1.87" height="5.62"/><rect class="cls-2" x="56.1" y="186.31" width="1.87" height="5.62"/><rect class="cls-4" x="24.28" y="199.5" width="33.98" height="9.57"/><rect class="cls-2" x="25.23" y="200.7" width="1.9" height="7.32"/><path class="cls-3" d="M29.37,202.24a.61.61,0,1,1-.6-.6A.6.6,0,0,1,29.37,202.24Z"/><circle class="cls-3" cx="28.77" cy="204.83" r="0.6"/><rect class="cls-2" x="31.79" y="201.64" width="1.87" height="5.62"/><rect class="cls-2" x="34.49" y="201.64" width="1.87" height="5.62"/><rect class="cls-2" x="37.19" y="201.64" width="1.87" height="5.62"/><rect class="cls-2" x="39.89" y="201.64" width="1.87" height="5.62"/><rect class="cls-2" x="42.59" y="201.64" width="1.87" height="5.62"/><rect class="cls-2" x="45.29" y="201.64" width="1.87" height="5.62"/><rect class="cls-2" x="47.99" y="201.64" width="1.87" height="5.62"/><rect class="cls-2" x="50.7" y="201.64" width="1.87" height="5.62"/><rect class="cls-2" x="53.4" y="201.64" width="1.87" height="5.62"/><rect class="cls-2" x="56.1" y="201.64" width="1.87" height="5.62"/><rect class="cls-4" x="24.28" y="214.82" width="33.98" height="9.57"/><rect class="cls-2" x="25.23" y="216.02" width="1.9" height="7.32"/><path class="cls-3" d="M29.37,217.56a.61.61,0,1,1-.6-.6A.6.6,0,0,1,29.37,217.56Z"/><circle class="cls-3" cx="28.77" cy="220.15" r="0.6"/><rect class="cls-2" x="31.79" y="216.96" width="1.87" height="5.62"/><rect class="cls-2" x="34.49" y="216.96" width="1.87" height="5.62"/><rect class="cls-2" x="37.19" y="216.96" width="1.87" height="5.62"/><rect class="cls-2" x="39.89" y="216.96" width="1.87" height="5.62"/><rect class="cls-2" x="42.59" y="216.96" width="1.87" height="5.62"/><rect class="cls-2" x="45.29" y="216.96" width="1.87" height="5.62"/><rect class="cls-2" x="47.99" y="216.96" width="1.87" height="5.62"/><rect class="cls-2" x="50.7" y="216.96" width="1.87" height="5.62"/><rect class="cls-2" x="53.4" y="216.96" width="1.87" height="5.62"/><rect class="cls-2" x="56.1" y="216.96" width="1.87" height="5.62"/><rect class="cls-4" x="24.28" y="230.14" width="33.98" height="9.57"/><rect class="cls-2" x="25.23" y="231.35" width="1.9" height="7.32"/><path class="cls-3" d="M29.37,232.89a.61.61,0,1,1-.6-.61A.6.6,0,0,1,29.37,232.89Z"/><circle class="cls-3" cx="28.77" cy="235.47" r="0.6"/><rect class="cls-2" x="31.79" y="232.28" width="1.87" height="5.62"/><rect class="cls-2" x="34.49" y="232.28" width="1.87" height="5.62"/><rect class="cls-2" x="37.19" y="232.28" width="1.87" height="5.62"/><rect class="cls-2" x="39.89" y="232.28" width="1.87" height="5.62"/><rect class="cls-2" x="42.59" y="232.28" width="1.87" height="5.62"/><rect class="cls-2" x="45.29" y="232.28" width="1.87" height="5.62"/><rect class="cls-2" x="47.99" y="232.28" width="1.87" height="5.62"/><rect class="cls-2" x="50.7" y="232.28" width="1.87" height="5.62"/><rect class="cls-2" x="53.4" y="232.28" width="1.87" height="5.62"/><rect class="cls-2" x="56.1" y="232.28" width="1.87" height="5.62"/><rect class="cls-4" x="24.28" y="245.47" width="33.98" height="9.57"/><rect class="cls-2" x="25.23" y="246.67" width="1.9" height="7.32"/><path class="cls-3" d="M29.37,248.21a.61.61,0,1,1-.6-.61A.6.6,0,0,1,29.37,248.21Z"/><circle class="cls-3" cx="28.77" cy="250.79" r="0.6"/><rect class="cls-2" x="31.79" y="247.6" width="1.87" height="5.62"/><rect class="cls-2" x="34.49" y="247.6" width="1.87" height="5.62"/><rect class="cls-2" x="37.19" y="247.6" width="1.87" height="5.62"/><rect class="cls-2" x="39.89" y="247.6" width="1.87" height="5.62"/><rect class="cls-2" x="42.59" y="247.6" width="1.87" height="5.62"/><rect class="cls-2" x="45.29" y="247.6" width="1.87" height="5.62"/><rect class="cls-2" x="47.99" y="247.6" width="1.87" height="5.62"/><rect class="cls-2" x="50.7" y="247.6" width="1.87" height="5.62"/><rect class="cls-2" x="53.4" y="247.6" width="1.87" height="5.62"/><rect class="cls-2" x="56.1" y="247.6" width="1.87" height="5.62"/><rect class="cls-4" x="24.28" y="260.79" width="33.98" height="9.57"/><rect class="cls-2" x="25.23" y="261.99" width="1.9" height="7.32"/><path class="cls-3" d="M29.37,263.53a.61.61,0,1,1-1.21,0,.61.61,0,0,1,1.21,0Z"/><path class="cls-3" d="M29.37,266.12a.61.61,0,1,1-.6-.61A.6.6,0,0,1,29.37,266.12Z"/><rect class="cls-2" x="31.79" y="262.93" width="1.87" height="5.62"/><rect class="cls-2" x="34.49" y="262.93" width="1.87" height="5.62"/><rect class="cls-2" x="37.19" y="262.93" width="1.87" height="5.62"/><rect class="cls-2" x="39.89" y="262.93" width="1.87" height="5.62"/><rect class="cls-2" x="42.59" y="262.93" width="1.87" height="5.62"/><rect class="cls-2" x="45.29" y="262.93" width="1.87" height="5.62"/><rect class="cls-2" x="47.99" y="262.93" width="1.87" height="5.62"/><rect class="cls-2" x="50.7" y="262.93" width="1.87" height="5.62"/><rect class="cls-2" x="53.4" y="262.93" width="1.87" height="5.62"/><rect class="cls-2" x="56.1" y="262.93" width="1.87" height="5.62"/><path class="cls-4" d="M45.29,168.85a2.25,2.25,0,0,1,0-.29c0-.2,0-.48,0-.85s0-.82,0-1.34a8.4,8.4,0,0,0-.24-1.75,6.35,6.35,0,0,0-.9-1.91,4.26,4.26,0,0,0-1.86-1.49,8.85,8.85,0,0,0-2.64-.53l-2.93-.26c-4-.35-7.64-.57-10.28-.62-1.32,0-2.38,0-3.12,0h-.85a1,1,0,0,1-.3,0,1.16,1.16,0,0,1,.3,0l.85-.06c.73,0,1.8-.06,3.12-.05,2.64,0,6.29.2,10.3.55l2.93.26a8.77,8.77,0,0,1,2.7.56,4.44,4.44,0,0,1,1.94,1.58,6.09,6.09,0,0,1,.91,2,8.5,8.5,0,0,1,.2,1.78c0,.53,0,1,0,1.35s0,.63,0,.85A1.64,1.64,0,0,1,45.29,168.85Z"/><path class="cls-4" d="M35,168.85a1,1,0,0,1,0-.28v-.8c0-.34,0-.77,0-1.26a3.88,3.88,0,0,0-.42-1.57A2.94,2.94,0,0,0,33,163.77a4.25,4.25,0,0,0-2.23-.23,4,4,0,0,0-1.15.39,2.23,2.23,0,0,0-.9.85,1.18,1.18,0,0,0,0,1.18,1.56,1.56,0,0,0,1,.76,1.26,1.26,0,0,0,1.18-.34,1.69,1.69,0,0,0,.17-2.28,2.5,2.5,0,0,0-.89-.79A3.49,3.49,0,0,0,29,163l-1.12-.14c-.72-.08-1.39-.13-2-.16-1.24-.05-2.24,0-2.94,0h-.8a1.58,1.58,0,0,1-.28,0l.28,0,.8,0c.69,0,1.7-.07,2.94,0,.62,0,1.31,0,2,.12l1.12.14.59.09a2.14,2.14,0,0,1,.6.21,2.72,2.72,0,0,1,1,.86,2,2,0,0,1,.4,1.3,2,2,0,0,1-.61,1.29,1.52,1.52,0,0,1-1.4.4,1.8,1.8,0,0,1-1.17-.88,1.46,1.46,0,0,1,0-1.42,2.45,2.45,0,0,1,1-.93,4.05,4.05,0,0,1,1.23-.41,4.35,4.35,0,0,1,2.34.26,3.08,3.08,0,0,1,1.61,1.28,4,4,0,0,1,.41,1.64c0,.5,0,.93,0,1.27l0,.8C35,168.76,35,168.85,35,168.85Z"/><path class="cls-4" d="M48.07,168.85a1.07,1.07,0,0,1-.07-.31c0-.21-.1-.52-.19-.91a17.65,17.65,0,0,0-1-3.24,9.42,9.42,0,0,0-3-4,5.54,5.54,0,0,0-2.7-1,27.31,27.31,0,0,0-3.19-.17c-4.39-.08-8.37-.07-11.25-.18-1.44-.05-2.6-.12-3.4-.18l-.93-.08a1.19,1.19,0,0,1-.32,0,1.37,1.37,0,0,1,.33,0l.92,0c.81,0,2,.07,3.41.1,2.88.07,6.85,0,11.25.11a28,28,0,0,1,3.21.18A5.75,5.75,0,0,1,44,160.25a8.29,8.29,0,0,1,1.87,2A11.21,11.21,0,0,1,47,164.32a16.61,16.61,0,0,1,.94,3.29c.07.4.11.71.13.92A1.29,1.29,0,0,1,48.07,168.85Z"/><rect class="cls-4" x="24.75" y="150.74" width="33.04" height="4.8"/><rect class="cls-2" x="32.01" y="153.14" width="17.99" height="2.4"/><rect class="cls-2" x="70.59" y="119.47" width="49.69" height="152.2"/><rect class="cls-3" x="120.12" y="119.47" width="39.27" height="152.2"/><rect class="cls-4" x="73.25" y="143.83" width="42.15" height="11.87"/><rect class="cls-2" x="74.43" y="145.32" width="2.36" height="9.08"/><path class="cls-3" d="M79.57,147.23a.75.75,0,1,1-.75-.75A.75.75,0,0,1,79.57,147.23Z"/><circle class="cls-3" cx="78.82" cy="150.44" r="0.75"/><rect class="cls-2" x="82.57" y="146.48" width="2.32" height="6.98"/><rect class="cls-2" x="85.92" y="146.48" width="2.32" height="6.98"/><rect class="cls-2" x="89.27" y="146.48" width="2.32" height="6.98"/><rect class="cls-2" x="92.62" y="146.48" width="2.32" height="6.98"/><rect class="cls-2" x="95.97" y="146.48" width="2.32" height="6.98"/><rect class="cls-2" x="99.32" y="146.48" width="2.32" height="6.98"/><rect class="cls-2" x="102.67" y="146.48" width="2.32" height="6.98"/><rect class="cls-2" x="106.02" y="146.48" width="2.32" height="6.98"/><rect class="cls-2" x="109.37" y="146.48" width="2.32" height="6.98"/><rect class="cls-2" x="112.72" y="146.48" width="2.32" height="6.98"/><rect class="cls-4" x="73.25" y="162.84" width="42.15" height="11.87"/><rect class="cls-2" x="74.43" y="164.33" width="2.36" height="9.08"/><path class="cls-3" d="M79.57,166.24a.75.75,0,1,1-.75-.75A.76.76,0,0,1,79.57,166.24Z"/><path class="cls-3" d="M79.57,169.45a.75.75,0,1,1-.75-.75A.76.76,0,0,1,79.57,169.45Z"/><rect class="cls-2" x="82.57" y="165.49" width="2.32" height="6.98"/><rect class="cls-2" x="85.92" y="165.49" width="2.32" height="6.98"/><rect class="cls-2" x="89.27" y="165.49" width="2.32" height="6.98"/><rect class="cls-2" x="92.62" y="165.49" width="2.32" height="6.98"/><rect class="cls-2" x="95.97" y="165.49" width="2.32" height="6.98"/><rect class="cls-2" x="99.32" y="165.49" width="2.32" height="6.98"/><rect class="cls-2" x="102.67" y="165.49" width="2.32" height="6.98"/><rect class="cls-2" x="106.02" y="165.49" width="2.32" height="6.98"/><rect class="cls-2" x="109.37" y="165.49" width="2.32" height="6.98"/><rect class="cls-2" x="112.72" y="165.49" width="2.32" height="6.98"/><rect class="cls-4" x="73.25" y="181.84" width="42.15" height="11.87"/><rect class="cls-2" x="74.43" y="183.33" width="2.36" height="9.08"/><path class="cls-3" d="M79.57,185.24a.75.75,0,1,1-.75-.75A.75.75,0,0,1,79.57,185.24Z"/><circle class="cls-3" cx="78.82" cy="188.45" r="0.75"/><rect class="cls-2" x="82.57" y="184.49" width="2.32" height="6.98"/><rect class="cls-2" x="85.92" y="184.49" width="2.32" height="6.98"/><rect class="cls-2" x="89.27" y="184.49" width="2.32" height="6.98"/><rect class="cls-2" x="92.62" y="184.49" width="2.32" height="6.98"/><rect class="cls-2" x="95.97" y="184.49" width="2.32" height="6.98"/><rect class="cls-2" x="99.32" y="184.49" width="2.32" height="6.98"/><rect class="cls-2" x="102.67" y="184.49" width="2.32" height="6.98"/><rect class="cls-2" x="106.02" y="184.49" width="2.32" height="6.98"/><rect class="cls-2" x="109.37" y="184.49" width="2.32" height="6.98"/><rect class="cls-2" x="112.72" y="184.49" width="2.32" height="6.98"/><rect class="cls-4" x="73.25" y="200.85" width="42.15" height="11.87"/><rect class="cls-2" x="74.43" y="202.34" width="2.36" height="9.08"/><path class="cls-3" d="M79.57,204.25a.75.75,0,1,1-.75-.75A.76.76,0,0,1,79.57,204.25Z"/><path class="cls-3" d="M79.57,207.46a.75.75,0,1,1-.75-.75A.76.76,0,0,1,79.57,207.46Z"/><rect class="cls-2" x="82.57" y="203.5" width="2.32" height="6.98"/><rect class="cls-2" x="85.92" y="203.5" width="2.32" height="6.98"/><rect class="cls-2" x="89.27" y="203.5" width="2.32" height="6.98"/><rect class="cls-2" x="92.62" y="203.5" width="2.32" height="6.98"/><rect class="cls-2" x="95.97" y="203.5" width="2.32" height="6.98"/><rect class="cls-2" x="99.32" y="203.5" width="2.32" height="6.98"/><rect class="cls-2" x="102.67" y="203.5" width="2.32" height="6.98"/><rect class="cls-2" x="106.02" y="203.5" width="2.32" height="6.98"/><rect class="cls-2" x="109.37" y="203.5" width="2.32" height="6.98"/><rect class="cls-2" x="112.72" y="203.5" width="2.32" height="6.98"/><rect class="cls-4" x="73.25" y="219.85" width="42.15" height="11.87"/><rect class="cls-2" x="74.43" y="221.34" width="2.36" height="9.08"/><path class="cls-3" d="M79.57,223.25a.75.75,0,1,1-.75-.75A.75.75,0,0,1,79.57,223.25Z"/><circle class="cls-3" cx="78.82" cy="226.46" r="0.75"/><rect class="cls-2" x="82.57" y="222.5" width="2.32" height="6.98"/><rect class="cls-2" x="85.92" y="222.5" width="2.32" height="6.98"/><rect class="cls-2" x="89.27" y="222.5" width="2.32" height="6.98"/><rect class="cls-2" x="92.62" y="222.5" width="2.32" height="6.98"/><rect class="cls-2" x="95.97" y="222.5" width="2.32" height="6.98"/><rect class="cls-2" x="99.32" y="222.5" width="2.32" height="6.98"/><rect class="cls-2" x="102.67" y="222.5" width="2.32" height="6.98"/><rect class="cls-2" x="106.02" y="222.5" width="2.32" height="6.98"/><rect class="cls-2" x="109.37" y="222.5" width="2.32" height="6.98"/><rect class="cls-2" x="112.72" y="222.5" width="2.32" height="6.98"/><rect class="cls-4" x="73.25" y="238.86" width="42.15" height="11.87"/><rect class="cls-2" x="74.43" y="240.35" width="2.36" height="9.08"/><path class="cls-3" d="M79.57,242.26a.75.75,0,1,1-.75-.75A.76.76,0,0,1,79.57,242.26Z"/><path class="cls-3" d="M79.57,245.47a.75.75,0,1,1-.75-.75A.76.76,0,0,1,79.57,245.47Z"/><rect class="cls-2" x="82.57" y="241.51" width="2.32" height="6.98"/><rect class="cls-2" x="85.92" y="241.51" width="2.32" height="6.98"/><rect class="cls-2" x="89.27" y="241.51" width="2.32" height="6.98"/><rect class="cls-2" x="92.62" y="241.51" width="2.32" height="6.98"/><rect class="cls-2" x="95.97" y="241.51" width="2.32" height="6.98"/><rect class="cls-2" x="99.32" y="241.51" width="2.32" height="6.98"/><rect class="cls-2" x="102.67" y="241.51" width="2.32" height="6.98"/><rect class="cls-2" x="106.02" y="241.51" width="2.32" height="6.98"/><rect class="cls-2" x="109.37" y="241.51" width="2.32" height="6.98"/><rect class="cls-2" x="112.72" y="241.51" width="2.32" height="6.98"/><rect class="cls-4" x="73.25" y="257.86" width="42.15" height="11.87"/><rect class="cls-2" x="74.43" y="259.36" width="2.36" height="9.08"/><path class="cls-3" d="M79.57,261.27a.75.75,0,1,1-.75-.75A.76.76,0,0,1,79.57,261.27Z"/><circle class="cls-3" cx="78.82" cy="264.47" r="0.75"/><rect class="cls-2" x="82.57" y="260.52" width="2.32" height="6.98"/><rect class="cls-2" x="85.92" y="260.52" width="2.32" height="6.98"/><rect class="cls-2" x="89.27" y="260.52" width="2.32" height="6.98"/><rect class="cls-2" x="92.62" y="260.52" width="2.32" height="6.98"/><rect class="cls-2" x="95.97" y="260.52" width="2.32" height="6.98"/><rect class="cls-2" x="99.32" y="260.52" width="2.32" height="6.98"/><rect class="cls-2" x="102.67" y="260.52" width="2.32" height="6.98"/><rect class="cls-2" x="106.02" y="260.52" width="2.32" height="6.98"/><rect class="cls-2" x="109.37" y="260.52" width="2.32" height="6.98"/><rect class="cls-2" x="112.72" y="260.52" width="2.32" height="6.98"/><path class="cls-4" d="M99.32,143.83a1.61,1.61,0,0,1,0-.37c0-.24,0-.59,0-1.05s0-1-.06-1.67a10.56,10.56,0,0,0-.29-2.16,7.72,7.72,0,0,0-1.12-2.37,5.35,5.35,0,0,0-2.31-1.85,11.24,11.24,0,0,0-3.27-.66l-3.63-.31c-5-.44-9.48-.71-12.75-.78-1.64,0-3,0-3.88,0h-1a1.53,1.53,0,0,1-.37,0,1.38,1.38,0,0,1,.37,0l1-.07c.92,0,2.24-.08,3.88-.07,3.28,0,7.8.25,12.78.68l3.63.32a11.41,11.41,0,0,1,3.35.7,5.41,5.41,0,0,1,2.4,2,7.73,7.73,0,0,1,1.13,2.46,10.24,10.24,0,0,1,.25,2.21c0,.65,0,1.21,0,1.67s0,.78,0,1.05A2.12,2.12,0,0,1,99.32,143.83Z"/><path class="cls-4" d="M86.53,143.83a1.6,1.6,0,0,1,0-.35c0-.26,0-.58,0-1s0-1,0-1.56a4.78,4.78,0,0,0-.52-2,3.76,3.76,0,0,0-1.9-1.46,5.22,5.22,0,0,0-2.77-.28,4.76,4.76,0,0,0-1.43.49,2.71,2.71,0,0,0-1.1,1.05,1.48,1.48,0,0,0,0,1.47,2,2,0,0,0,1.25.94,1.6,1.6,0,0,0,1.47-.43,2.13,2.13,0,0,0,.65-1.39,2.11,2.11,0,0,0-.43-1.43,3.14,3.14,0,0,0-1.11-1,4.14,4.14,0,0,0-1.39-.36l-1.39-.18c-.89-.1-1.73-.16-2.5-.19-1.53-.07-2.78,0-3.64,0h-1a1.35,1.35,0,0,1-.35,0,1.22,1.22,0,0,1,.35,0l1-.05c.86,0,2.11-.09,3.65-.06.77,0,1.62.06,2.52.16.45,0,.92.1,1.4.17.24,0,.48.06.73.11a2.9,2.9,0,0,1,.75.26,3.41,3.41,0,0,1,1.21,1.06,2.38,2.38,0,0,1,.5,1.62,2.45,2.45,0,0,1-.75,1.6,1.91,1.91,0,0,1-1.73.5,2.28,2.28,0,0,1-1.45-1.1,1.78,1.78,0,0,1,0-1.76,3.11,3.11,0,0,1,1.23-1.16,4.85,4.85,0,0,1,1.52-.5,5.41,5.41,0,0,1,2.91.32,3.92,3.92,0,0,1,2,1.58,5,5,0,0,1,.5,2c0,.61,0,1.14,0,1.57s0,.73,0,1A2,2,0,0,1,86.53,143.83Z"/><path class="cls-4" d="M102.76,143.83a2.08,2.08,0,0,1-.09-.39c0-.26-.12-.64-.23-1.13a22.2,22.2,0,0,0-1.24-4,11.76,11.76,0,0,0-3.67-4.91,6.83,6.83,0,0,0-3.35-1.28,36,36,0,0,0-4-.21c-5.45-.1-10.39-.08-14-.22-1.78-.07-3.23-.15-4.22-.22l-1.15-.1a2.23,2.23,0,0,1-.4-.06h.4l1.15.05c1,0,2.44.09,4.23.12,3.57.09,8.5,0,14,.14a34.67,34.67,0,0,1,4,.22,7.06,7.06,0,0,1,3.48,1.35,10.27,10.27,0,0,1,2.32,2.45,14,14,0,0,1,1.38,2.6,20.17,20.17,0,0,1,1.16,4.08c.09.49.14.88.17,1.14A2,2,0,0,1,102.76,143.83Z"/><rect class="cls-4" x="73.83" y="121.36" width="40.99" height="5.95"/><rect class="cls-2" x="82.85" y="124.34" width="22.32" height="2.97"/><path class="cls-2" d="M201.18,112.77l27.11-4.14a27.42,27.42,0,1,1-24.1-23.11Z"/><path class="cls-4" d="M210,85.61l-3.29,21,20.62-3.88S224.28,91,210,85.61Z"/><path class="cls-2" d="M30.2,106.76a14.77,14.77,0,1,1,15,14.6A14.82,14.82,0,0,1,30.2,106.76ZM52,106.41a7.07,7.07,0,1,0-6.95,7.21A7.1,7.1,0,0,0,52,106.41Z"/><path class="cls-4" d="M30.2,106.76A14.82,14.82,0,0,1,44.74,91.69l.12,7.74a7.1,7.1,0,0,0,.23,14.19l.12,7.74A14.83,14.83,0,0,1,30.2,106.76Z"/><path class="cls-5" d="M43.41,90.5a16.87,16.87,0,0,1,17.28,16.81l-9,.14c-.07-4.57-3.55-7.45-8.11-7.38Z"/><path class="cls-2" d="M270.7,248.44a14.77,14.77,0,1,1,15,14.6A14.83,14.83,0,0,1,270.7,248.44Zm21.84-.36a7.07,7.07,0,1,0-7,7.21A7.1,7.1,0,0,0,292.54,248.08Z"/><path class="cls-4" d="M270.7,248.44a14.83,14.83,0,0,1,14.54-15.08l.12,7.74a7.1,7.1,0,0,0,.23,14.19l.12,7.75A14.83,14.83,0,0,1,270.7,248.44Z"/><path class="cls-5" d="M283.91,232.17A16.87,16.87,0,0,1,301.19,249l-9,.15c-.08-4.58-3.56-7.46-8.12-7.39Z"/><rect class="cls-6" x="258.12" y="102.54" width="61.46" height="70.15"/><path class="cls-7" d="M319.58,172.69s0-.11,0-.33v-1c0-.86,0-2.13,0-3.78,0-3.32,0-8.16,0-14.32,0-12.29,0-29.82,0-50.73l.1.1H258.12l.11-.11c0,25.86,0,50,0,70.14l-.09-.1,44.58,0,12.46,0h0l-12.44,0-44.64,0H258v-.1c0-20.17,0-44.28,0-70.14v-.12h61.68v.11c0,20.94,0,38.48-.05,50.8,0,6.14,0,11,0,14.29,0,1.64,0,2.91,0,3.76v1C319.58,172.58,319.58,172.69,319.58,172.69Z"/><path class="cls-8" d="M314.3,138.36s-.68-.34-2-.75a12.75,12.75,0,0,0-5.67-.42,12.4,12.4,0,0,0-3.74,1.2,17.85,17.85,0,0,0-3.67,2.65c-1.21,1.06-2.4,2.27-3.78,3.38a13.15,13.15,0,0,1-4.83,2.62,7.47,7.47,0,0,1-2.82.17,9.12,9.12,0,0,1-2.61-.81,47.34,47.34,0,0,1-4.38-2.6,13.85,13.85,0,0,0-4.11-1.85,12.41,12.41,0,0,0-3.91-.3,12.67,12.67,0,0,0-5.41,1.76c-1.16.71-1.7,1.24-1.73,1.21a2.19,2.19,0,0,1,.39-.39,9,9,0,0,1,1.26-1,12.3,12.3,0,0,1,5.46-1.91,12.15,12.15,0,0,1,4,.25,14,14,0,0,1,4.24,1.86,50.1,50.1,0,0,0,4.34,2.56,7.51,7.51,0,0,0,5.16.6,12.69,12.69,0,0,0,4.67-2.53c1.36-1.09,2.56-2.29,3.78-3.36a17.82,17.82,0,0,1,3.78-2.66,12.53,12.53,0,0,1,9.61-.62,9.68,9.68,0,0,1,1.45.62A3.44,3.44,0,0,1,314.3,138.36Z"/><rect class="cls-8" x="275.03" y="147.78" width="5.23" height="14.13"/><rect class="cls-8" x="297.21" y="147.78" width="5.23" height="14.13"/><rect class="cls-8" x="304.6" y="139.48" width="5.23" height="22.43"/><rect class="cls-8" x="268.27" y="157.47" width="5.23" height="4.76"/><rect class="cls-8" x="282.43" y="154.16" width="5.23" height="7.75"/><rect class="cls-8" x="289.82" y="152.39" width="5.23" height="9.53"/><path class="cls-7" d="M280.47,163.58a9.47,9.47,0,0,1-2.82.21,9.57,9.57,0,0,1-2.83-.21,9.57,9.57,0,0,1,2.83-.21A9.47,9.47,0,0,1,280.47,163.58Z"/><path class="cls-7" d="M274,163.58a19.11,19.11,0,0,1-5.65,0,19.11,19.11,0,0,1,5.65,0Z"/><path class="cls-7" d="M310.85,163.58a24.33,24.33,0,0,1-6.38,0,24.33,24.33,0,0,1,6.38,0Z"/><path class="cls-7" d="M303.09,163.58a24.33,24.33,0,0,1-6.38,0,24.33,24.33,0,0,1,6.38,0Z"/><path class="cls-7" d="M295,163.58a19,19,0,0,1-5.64,0,19,19,0,0,1,5.64,0Z"/><path class="cls-7" d="M287.41,163.58a9.57,9.57,0,0,1-2.83.21,9.47,9.47,0,0,1-2.82-.21,9.47,9.47,0,0,1,2.82-.21A9.57,9.57,0,0,1,287.41,163.58Z"/><rect class="cls-4" x="268.15" y="112.77" width="42.7" height="17.73"/><path class="cls-7" d="M277,118.38a2,2,0,1,1-2-2A2,2,0,0,1,277,118.38Z"/><rect class="cls-7" x="279.01" y="117" width="13.87" height="0.77"/><rect class="cls-6" x="279.01" y="118.75" width="26.98" height="0.77"/><path class="cls-8" d="M277,124.5a2,2,0,1,1-2-2A2,2,0,0,1,277,124.5Z"/><rect class="cls-8" x="279.01" y="123.12" width="7.08" height="0.77"/><rect class="cls-6" x="279.01" y="124.87" width="26.98" height="0.77"/><rect class="cls-6" x="283.82" y="198.03" width="51.65" height="36.89" transform="translate(90.52 524.25) rotate(-89.51)"/><path class="cls-7" d="M291,242.15v-1c0-.64,0-1.58,0-2.8,0-2.46,0-6,.06-10.59.06-9.11.16-22,.27-37.31v-.11h.1l36.89.3h.12v.12c-.17,19.34-.34,37.23-.47,51.65v.1h-.09L301,242.28l-7.42-.09-1.93,0h2l7.44,0,26.82.18-.1.09c.12-14.42.27-32.31.42-51.65l.12.12h0l-36.89-.33.11-.11c-.15,15.25-.28,28.15-.37,37.24-.05,4.55-.09,8.15-.12,10.62,0,1.23,0,2.17,0,2.82,0,.31,0,.56,0,.72S291,242.15,291,242.15Z"/><path class="cls-7" d="M296.13,203.08c0-.12,6.11-.17,13.64-.1s13.64.21,13.64.33-6.11.16-13.64.1S296.13,203.2,296.13,203.08Z"/><path class="cls-7" d="M296.1,206.72c0-.11,6.11-.16,13.64-.09s13.64.21,13.64.33-6.11.16-13.64.1S296.1,206.84,296.1,206.72Z"/><path class="cls-7" d="M296.07,210.37c0-.12,6.11-.16,13.64-.1s13.64.22,13.64.34-6.11.16-13.64.09S296.07,210.49,296.07,210.37Z"/><path class="cls-7" d="M296,214c0-.12,6.11-.16,13.64-.1s13.64.21,13.64.33-6.11.17-13.65.1S296,214.14,296,214Z"/><path class="cls-7" d="M296,217.67c0-.12,6.11-.17,13.65-.1s13.64.21,13.64.33-6.11.16-13.65.1S296,217.79,296,217.67Z"/><rect class="cls-9" x="301.38" y="221.9" width="4.39" height="13.71"/><rect class="cls-9" x="307.94" y="225.03" width="4.39" height="10.58"/><rect class="cls-9" x="314.01" y="229.33" width="4.39" height="6.28"/><path class="cls-7" d="M258.58,181.67l.15,0h.47l1.79,0,6.57,0,21.7,0,19.39,0h.12v.1c0,2.76,0,5,0,6.61,0,.77,0,1.37,0,1.81l0,.47c0,.11,0,.16,0,.16a.92.92,0,0,1,0-.16l0-.47c0-.44,0-1,0-1.81,0-1.59,0-3.85,0-6.61l.11.09-19.39,0-21.7,0-6.57,0-1.79,0h-.62Z"/><path class="cls-7" d="M258,114.35a1.07,1.07,0,0,1-.28,0l-.82,0-3,0-10.26,0,.11-.12c0,.77,0,1.58,0,2.4,0,4.64,0,8.84,0,11.88,0,1.52,0,2.75-.06,3.61,0,.42,0,.75-.05,1a2.15,2.15,0,0,1,0,.34s0-1.88,0-4.92-.05-7.25-.09-11.88c0-.82,0-1.63,0-2.39v-.12h.12l10.26,0,3,0,.82,0Z"/><path class="cls-7" d="M259.17,114.35a1.17,1.17,0,1,1-1.17-1.16A1.17,1.17,0,0,1,259.17,114.35Z"/><path class="cls-7" d="M309.84,190.72a1.17,1.17,0,1,1-1.16-1.16A1.16,1.16,0,0,1,309.84,190.72Z"/><path class="cls-9" d="M256.53,132.43H99a4.92,4.92,0,0,0-4.91,4.92V248.64A4.91,4.91,0,0,0,99,253.56h60.48s3.84,11.89-8.08,18.05h56.54s-13.46-4.62-10-18.05h58.63a4.91,4.91,0,0,0,4.91-4.92V137.35A4.92,4.92,0,0,0,256.53,132.43Z"/><path class="cls-7" d="M179.86,241.86a3,3,0,0,1-4.28,4.27,1.07,1.07,0,0,1-.26-.26,3,3,0,0,1,4.27-4.28A.87.87,0,0,1,179.86,241.86Z"/><path class="cls-6" d="M106.47,134.47H249a9.7,9.7,0,0,1,9.7,9.7v89a0,0,0,0,1,0,0h-162a0,0,0,0,1,0,0v-89A9.7,9.7,0,0,1,106.47,134.47Z"/><path class="cls-5" d="M105,134.47H252a6.74,6.74,0,0,1,6.74,6.74v1.47a0,0,0,0,1,0,0h-162a0,0,0,0,1,0,0v0A8.2,8.2,0,0,1,105,134.47Z"/><path class="cls-4" d="M103.06,138.75a1.14,1.14,0,1,1-1.13-1.14A1.13,1.13,0,0,1,103.06,138.75Z"/><path class="cls-4" d="M106.46,138.75a1.14,1.14,0,1,1-1.14-1.14A1.13,1.13,0,0,1,106.46,138.75Z"/><path class="cls-4" d="M109.68,138.75a1.14,1.14,0,1,1-1.14-1.14A1.13,1.13,0,0,1,109.68,138.75Z"/><path class="cls-7" d="M228.37,253.58s-22.43.09-50.08.09-50.07,0-50.07-.09,22.41-.1,50.07-.1S228.37,253.52,228.37,253.58Z"/><polygon class="cls-2" points="148.95 198.6 103.78 198.73 103.87 229.74 141.32 229.63 146.39 229.62 149.04 229.61 148.95 198.6"/><path class="cls-7" d="M107.26,226.42c-.06,0-.12-5.27-.13-11.75s0-11.75.06-11.75.11,5.26.13,11.75S107.31,226.42,107.26,226.42Z"/><path class="cls-5" d="M146.45,223.07c0,.05-8.81.12-19.68.15s-19.67,0-19.67,0,8.81-.12,19.67-.16S146.45,223,146.45,223.07Z"/><path class="cls-5" d="M146.44,219.62s-8.81.12-19.68.15-19.67,0-19.67,0,8.81-.12,19.67-.15S146.44,219.56,146.44,219.62Z"/><path class="cls-5" d="M146.43,216.17c0,.06-8.81.13-19.68.16s-19.67,0-19.67-.05,8.81-.12,19.67-.15S146.43,216.12,146.43,216.17Z"/><path class="cls-5" d="M146.42,212.72c0,.06-8.81.13-19.68.16s-19.67,0-19.67,0,8.81-.13,19.67-.16S146.42,212.67,146.42,212.72Z"/><path class="cls-5" d="M146.41,209.28c0,.05-8.81.12-19.68.15s-19.67,0-19.67,0,8.81-.12,19.67-.16S146.41,209.22,146.41,209.28Z"/><path class="cls-5" d="M146.4,205.83s-8.81.12-19.68.15-19.67,0-19.67,0,8.81-.12,19.67-.15S146.4,205.77,146.4,205.83Z"/><path class="cls-5" d="M146.39,202.38c0,.06-8.81.12-19.68.16s-19.67,0-19.67,0,8.81-.12,19.67-.15S146.39,202.33,146.39,202.38Z"/><rect class="cls-8" x="109.76" y="221.03" width="2.82" height="5.37" transform="translate(-0.64 0.32) rotate(-0.16)"/><rect class="cls-8" x="130.25" y="220.97" width="2.82" height="5.37" transform="translate(-0.64 0.38) rotate(-0.16)"/><rect class="cls-8" x="115.29" y="217.06" width="2.82" height="9.32" transform="translate(-0.64 0.34) rotate(-0.17)"/><rect class="cls-8" x="125.63" y="214.61" width="2.82" height="11.75" transform="translate(-0.63 0.37) rotate(-0.16)"/><rect class="cls-8" x="120.51" y="207.49" width="2.82" height="18.89" transform="translate(-0.63 0.35) rotate(-0.17)"/><rect class="cls-8" x="135.71" y="210.93" width="2.82" height="15.39" transform="matrix(1, 0, 0, 1, -0.63, 0.4)"/><path class="cls-7" d="M141.91,226.32c0,.05-7.74.12-17.29.14s-17.29,0-17.29,0,7.74-.13,17.29-.15S141.91,226.26,141.91,226.32Z"/><polygon class="cls-2" points="103.37 150.03 103.37 195.57 176.48 195.57 182.9 195.57 201.89 195.57 201.89 150.03 103.37 150.03"/><path class="cls-7" d="M110.3,181.49v1.43h-.15v-1.3h-.34v-.13Z"/><path class="cls-7" d="M110.65,182.21c0-.46.24-.74.57-.74s.57.28.57.74-.24.73-.57.73S110.65,182.66,110.65,182.21Zm1,0c0-.39-.17-.6-.42-.6s-.42.21-.42.6.17.59.42.59S111.64,182.59,111.64,182.21Z"/><path class="cls-7" d="M110.89,173.85V174h-1v-.1l.59-.59c.17-.16.2-.25.2-.35s-.12-.27-.34-.27a.47.47,0,0,0-.39.16l-.11-.09a.65.65,0,0,1,.51-.21c.29,0,.48.15.48.39a.57.57,0,0,1-.24.45l-.49.48Z"/><path class="cls-7" d="M111.06,173.27c0-.46.24-.74.58-.74s.57.28.57.74-.24.73-.57.73S111.06,173.72,111.06,173.27Zm1,0c0-.39-.17-.6-.42-.6s-.43.21-.43.6.18.59.43.59S112.06,173.65,112.06,173.27Z"/><path class="cls-7" d="M110.85,164.63c0,.24-.17.43-.52.43a.8.8,0,0,1-.52-.19l.08-.12a.61.61,0,0,0,.44.17c.24,0,.37-.11.37-.29s-.12-.29-.39-.29h-.1v-.1l.4-.5h-.74v-.13h.93v.1l-.41.51C110.7,164.24,110.85,164.4,110.85,164.63Z"/><path class="cls-7" d="M111.06,164.32c0-.45.24-.73.58-.73s.57.28.57.73-.24.74-.57.74S111.06,164.78,111.06,164.32Zm1,0c0-.38-.17-.59-.42-.59s-.43.21-.43.59.18.6.43.6S112.06,164.71,112.06,164.32Z"/><path class="cls-7" d="M116.65,186.92c0-.45.24-.73.57-.73s.58.28.58.73-.24.73-.58.73S116.65,187.38,116.65,186.92Zm1,0c0-.38-.18-.59-.43-.59s-.42.21-.42.59.17.6.42.6S117.65,187.31,117.65,186.92Z"/><path class="cls-7" d="M127.29,186.2v1.44h-.15v-1.3h-.33v-.14Z"/><path class="cls-7" d="M138.51,187.51v.13h-1v-.1l.6-.59c.16-.16.19-.26.19-.35s-.11-.27-.33-.27a.51.51,0,0,0-.4.16l-.1-.09a.65.65,0,0,1,.51-.21c.29,0,.48.15.48.39a.61.61,0,0,1-.24.45l-.49.48Z"/><path class="cls-7" d="M149.11,187.23c0,.24-.17.42-.52.42a.75.75,0,0,1-.51-.18l.07-.12a.61.61,0,0,0,.44.17c.24,0,.37-.11.37-.29s-.12-.29-.39-.29h-.1v-.11l.4-.49h-.73v-.14h.92v.11l-.41.51C149,186.84,149.11,187,149.11,187.23Z"/><path class="cls-7" d="M160,187.26h-.29v.38h-.14v-.38h-.82v-.1l.77-1h.16l-.73.93h.62v-.33h.14v.33H160Z"/><path class="cls-7" d="M170.41,187.22c0,.24-.17.43-.52.43a.76.76,0,0,1-.52-.18l.07-.12a.64.64,0,0,0,.45.17c.24,0,.37-.12.37-.3s-.12-.29-.48-.29h-.31l.08-.73h.78v.14h-.65l-.05.45h.18C170.24,186.79,170.41,187,170.41,187.22Z"/><path class="cls-7" d="M181.15,187.21a.45.45,0,0,1-.49.44c-.38,0-.59-.26-.59-.71s.27-.75.66-.75a.63.63,0,0,1,.34.08l-.06.12a.53.53,0,0,0-.28-.07c-.31,0-.51.2-.51.59V187a.47.47,0,0,1,.44-.25A.44.44,0,0,1,181.15,187.21Zm-.15,0c0-.19-.14-.31-.36-.31a.33.33,0,0,0-.37.31c0,.16.13.31.38.31A.31.31,0,0,0,181,187.22Z"/><path class="cls-7" d="M191.72,186.2v.11l-.6,1.33H191l.59-1.3h-.74v.26h-.15v-.4Z"/><path class="cls-7" d="M191.79,182.27c0,.08-16.64.14-37.16.14s-37.18-.06-37.18-.14,16.64-.13,37.18-.13S191.79,182.2,191.79,182.27Z"/><path class="cls-7" d="M191.79,173.29c0,.08-16.64.14-37.16.14s-37.18-.06-37.18-.14,16.64-.14,37.18-.14S191.79,173.21,191.79,173.29Z"/><path class="cls-7" d="M191.79,164.3c0,.08-16.64.14-37.16.14s-37.18-.06-37.18-.14,16.64-.14,37.18-.14S191.79,164.22,191.79,164.3Z"/><path class="cls-8" d="M117.45,182.14a.48.48,0,1,1-.48-.47A.47.47,0,0,1,117.45,182.14Z"/><path class="cls-8" d="M128.14,182.14a.48.48,0,1,1-.48-.47A.47.47,0,0,1,128.14,182.14Z"/><path class="cls-8" d="M138.83,182.14a.47.47,0,0,1-.48.48.48.48,0,1,1,0-1A.47.47,0,0,1,138.83,182.14Z"/><path class="cls-8" d="M149.52,182.14a.48.48,0,1,1-.48-.47A.48.48,0,0,1,149.52,182.14Z"/><path class="cls-8" d="M160.21,182.14a.48.48,0,1,1-.48-.47A.48.48,0,0,1,160.21,182.14Z"/><path class="cls-8" d="M181.58,182.14a.48.48,0,1,1-.47-.47A.47.47,0,0,1,181.58,182.14Z"/><path class="cls-8" d="M170.89,182.14a.48.48,0,1,1-.47-.47A.47.47,0,0,1,170.89,182.14Z"/><path class="cls-8" d="M192.27,182.14a.48.48,0,1,1-.48-.47A.47.47,0,0,1,192.27,182.14Z"/><path class="cls-4" d="M122.32,182.27A.31.31,0,1,1,122,182,.31.31,0,0,1,122.32,182.27Z"/><path class="cls-4" d="M133.05,182.27a.31.31,0,0,1-.31.32.32.32,0,1,1,0-.63A.31.31,0,0,1,133.05,182.27Z"/><path class="cls-4" d="M143.78,182.27a.32.32,0,1,1-.31-.31A.31.31,0,0,1,143.78,182.27Z"/><path class="cls-4" d="M154.51,182.27a.32.32,0,1,1-.31-.31A.31.31,0,0,1,154.51,182.27Z"/><path class="cls-4" d="M165.24,182.27a.32.32,0,1,1-.63,0,.32.32,0,0,1,.63,0Z"/><path class="cls-4" d="M176,182.27a.32.32,0,1,1-.63,0,.32.32,0,0,1,.63,0Z"/><path class="cls-4" d="M186.7,182.27a.32.32,0,1,1-.63,0,.32.32,0,0,1,.63,0Z"/><path class="cls-8" d="M128.83,178.3a1.17,1.17,0,1,1-2.34,0,1.17,1.17,0,1,1,2.34,0Z"/><path class="cls-8" d="M138.16,172.8a1.17,1.17,0,1,1-1.17-1.17A1.17,1.17,0,0,1,138.16,172.8Z"/><path class="cls-8" d="M149.73,173.29a1.17,1.17,0,1,1-1.17-1.17A1.17,1.17,0,0,1,149.73,173.29Z"/><path class="cls-8" d="M161,163.28a1.17,1.17,0,1,1-1.17-1.17A1.17,1.17,0,0,1,161,163.28Z"/><path class="cls-8" d="M171.59,169.65a1.17,1.17,0,0,1-2.34,0,1.17,1.17,0,0,1,2.34,0Z"/><path class="cls-8" d="M182.28,171.34a1.18,1.18,0,1,1-1.17-1.17A1.17,1.17,0,0,1,182.28,171.34Z"/><path class="cls-8" d="M192.27,178.3H192a4.59,4.59,0,0,1-.8-.11,6,6,0,0,1-2.78-1.32,5.71,5.71,0,0,1-1.37-1.77,12.75,12.75,0,0,0-1.43-2.22,4.67,4.67,0,0,0-2.41-1.68,3.11,3.11,0,0,0-1.6.05,4.34,4.34,0,0,0-1.49.84,28.08,28.08,0,0,0-2.46,2.83,4.88,4.88,0,0,1-1.61,1.25,3.23,3.23,0,0,1-2.11.17,2.66,2.66,0,0,1-1.6-1.48,9.82,9.82,0,0,1-.69-2.13,13.52,13.52,0,0,0-.64-2.17,1.74,1.74,0,0,0-.69-.82,2.3,2.3,0,0,0-1.08-.21,18.78,18.78,0,0,0-2.35.42,7.13,7.13,0,0,1-1.24.14,2.92,2.92,0,0,1-1.26-.24,2.62,2.62,0,0,1-1-.84,6.25,6.25,0,0,1-.61-1.14c-.34-.79-.56-1.62-.87-2.42a6,6,0,0,0-.57-1.13,2,2,0,0,0-.92-.77c-.1,0-.2-.07-.3-.09l-.3,0a1.14,1.14,0,0,0-.58.12,2.43,2.43,0,0,0-.85.89,10.82,10.82,0,0,0-1,2.46c-.26.86-.47,1.74-.68,2.63-.34,1.48-.65,2.95-1,4.39A21.66,21.66,0,0,1,155,176a5.65,5.65,0,0,1-1.11,1.93,1.6,1.6,0,0,1-1.06.47,2.14,2.14,0,0,1-1.08-.33,5.19,5.19,0,0,1-1.52-1.54,18.33,18.33,0,0,1-1.83-3.72,8.62,8.62,0,0,0-2.05-3.29,3.84,3.84,0,0,0-3.43-.84,5.89,5.89,0,0,0-1.64.72,11.29,11.29,0,0,0-1.43,1,19.24,19.24,0,0,0-2.38,2.4h0a25.38,25.38,0,0,1-3.53,2.93,17.31,17.31,0,0,1-3.61,2,7.93,7.93,0,0,1-3.54.59,12.51,12.51,0,0,1-2.95-.71,27.74,27.74,0,0,1-3.83-1.76c-.43-.23-.74-.41-1-.54a3.48,3.48,0,0,1-.31-.21l.33.18,1,.52a32.3,32.3,0,0,0,3.84,1.69,12.65,12.65,0,0,0,2.92.68,7.77,7.77,0,0,0,3.46-.61,17.09,17.09,0,0,0,3.57-2,25,25,0,0,0,3.48-2.92h0a18.39,18.39,0,0,1,2.4-2.44,12,12,0,0,1,1.45-1.06,6.26,6.26,0,0,1,1.71-.75,4.08,4.08,0,0,1,3.66.88,9,9,0,0,1,2.12,3.39,18.68,18.68,0,0,0,1.81,3.67,4.74,4.74,0,0,0,1.44,1.45,1.79,1.79,0,0,0,.94.29,1.27,1.27,0,0,0,.86-.39,5.34,5.34,0,0,0,1.05-1.83,20.26,20.26,0,0,0,.64-2.09c.38-1.43.68-2.9,1-4.38.2-.89.42-1.78.68-2.65a11,11,0,0,1,1-2.52,2.58,2.58,0,0,1,1-1,1.35,1.35,0,0,1,.71-.14l.35,0,.33.1a2.33,2.33,0,0,1,1.06.87,6,6,0,0,1,.59,1.19c.32.82.54,1.65.87,2.41a3.16,3.16,0,0,0,1.48,1.84,3.78,3.78,0,0,0,2.33.09,17.82,17.82,0,0,1,2.39-.41,2.59,2.59,0,0,1,1.22.24,2,2,0,0,1,.79.94,13.42,13.42,0,0,1,.64,2.21,10.64,10.64,0,0,0,.67,2.09,2.44,2.44,0,0,0,1.46,1.36,3,3,0,0,0,2-.16,4.59,4.59,0,0,0,1.54-1.19,28.68,28.68,0,0,1,2.5-2.83,4.42,4.42,0,0,1,1.55-.87,3.39,3.39,0,0,1,1.7,0,5,5,0,0,1,2.49,1.76,12.43,12.43,0,0,1,1.43,2.26,5.63,5.63,0,0,0,1.32,1.75,6.12,6.12,0,0,0,2.72,1.35,6.28,6.28,0,0,0,.79.13Z"/><path class="cls-7" d="M129,158.14c0,.08-4.15.14-9.27.14s-9.27-.06-9.27-.14,4.15-.14,9.27-.14S129,158.07,129,158.14Z"/><polygon class="cls-2" points="205.82 150.32 205.82 194.85 211.21 194.85 218.63 194.85 253.2 194.85 253.2 150.32 205.82 150.32"/><path class="cls-7" d="M229.3,155.37A14.62,14.62,0,1,0,243.92,170,14.62,14.62,0,0,0,229.3,155.37Zm.22,23.38a9,9,0,1,1,9-9A9,9,0,0,1,229.52,178.75Z"/><path class="cls-8" d="M229.53,155.37c0,1.56,0,3.66,0,5.41a9,9,0,0,1,8.56,11.71l5.3,1.44a14.62,14.62,0,0,0-13.85-18.56Z"/><path class="cls-9" d="M220.54,169.77a9,9,0,0,1,5.32-8.21l-2.24-5.05A14.64,14.64,0,0,0,214.68,170c0,.2,0,.41,0,.61h5.88C220.56,170.32,220.54,170.05,220.54,169.77Z"/><path class="cls-8" d="M229.52,178.75a8.51,8.51,0,0,1-1.9-.21c-.22,1.31-.65,3.83-1,5.82a14.6,14.6,0,0,0,16.75-10.43l-5.3-1.44A9,9,0,0,1,229.52,178.75Z"/><g class="cls-10"><path d="M229.52,178.75a8.51,8.51,0,0,1-1.9-.21c-.22,1.31-.65,3.83-1,5.82a14.6,14.6,0,0,0,16.75-10.43l-5.3-1.44A9,9,0,0,1,229.52,178.75Z"/></g><path class="cls-7" d="M227.58,170.49H227v.7h-.75v-.7H224.5V170l1.57-2.11h.8l-1.45,2h.89v-.63H227v.63h.54Z"/><path class="cls-7" d="M227.81,169.53c0-1.1.61-1.72,1.42-1.72s1.43.62,1.43,1.72-.61,1.72-1.43,1.72S227.81,170.63,227.81,169.53Zm2.07,0c0-.76-.26-1.07-.65-1.07s-.64.31-.64,1.07.26,1.07.64,1.07S229.88,170.28,229.88,169.53Z"/><path class="cls-7" d="M231,168.75a.84.84,0,0,1,.83-.92.92.92,0,1,1-.83.92Zm1.18,0c0-.36-.14-.53-.35-.53s-.35.17-.35.53.15.52.35.52S232.15,169.1,232.15,168.75Zm1.63-.88h.56l-2.26,3.32h-.57Zm-.55,2.44a.83.83,0,1,1,1.65,0,.83.83,0,1,1-1.65,0Zm1.17,0c0-.35-.14-.52-.35-.52s-.34.17-.34.52.14.53.34.53S234.4,170.66,234.4,170.31Z"/><path class="cls-7" d="M241.4,188.29c0,.08-5.42.14-12.1.14s-12.1-.06-12.1-.14,5.42-.13,12.1-.13S241.4,188.22,241.4,188.29Z"/><path class="cls-7" d="M236,190.52c0,.07-3,.13-6.71.13s-6.71-.06-6.71-.13,3-.14,6.71-.14S236,190.44,236,190.52Z"/><rect class="cls-3" x="152.63" y="197.81" width="95.1" height="31.24"/><path class="cls-5" d="M239.71,205.2c0,.06-16.16.1-36.09.1s-36.1,0-36.1-.1,16.16-.1,36.1-.1S239.71,205.15,239.71,205.2Z"/><path class="cls-5" d="M239.71,208.9s-16.16.1-36.09.1-36.1-.05-36.1-.1,16.16-.1,36.1-.1S239.71,208.84,239.71,208.9Z"/><path class="cls-5" d="M239.71,212.6c0,.05-16.16.1-36.09.1s-36.1,0-36.1-.1,16.16-.11,36.1-.11S239.71,212.54,239.71,212.6Z"/><path class="cls-5" d="M239.71,216.29c0,.06-16.16.1-36.09.1s-36.1,0-36.1-.1,16.16-.1,36.1-.1S239.71,216.24,239.71,216.29Z"/><path class="cls-5" d="M239.71,220c0,.06-16.16.1-36.09.1s-36.1,0-36.1-.1,16.16-.1,36.1-.1S239.71,219.93,239.71,220Z"/><path class="cls-9" d="M233.42,215.68l-.15.17a2,2,0,0,1-.61.33,3.23,3.23,0,0,1-2.64-.42,4.31,4.31,0,0,1-1.24-1.36,20.57,20.57,0,0,1-.94-1.88,6,6,0,0,0-1.41-2,3.21,3.21,0,0,0-1.23-.64,3.63,3.63,0,0,0-1.51-.08,6.09,6.09,0,0,0-2.88,1.33c-.86.67-1.61,1.5-2.54,2.25a6.24,6.24,0,0,1-3.49,1.49,3.64,3.64,0,0,1-2-.47A4.29,4.29,0,0,1,211.4,213a21.31,21.31,0,0,0-2-3.3,3.34,3.34,0,0,0-1.75-1.05,2.7,2.7,0,0,0-2,.43,4.06,4.06,0,0,0-1.35,1.56,9,9,0,0,0-.64,1.94,10.24,10.24,0,0,1-.63,2,4.65,4.65,0,0,1-.58,1,5,5,0,0,1-.86.79,5.8,5.8,0,0,1-2.2,1,6.21,6.21,0,0,1-2.43,0,5.8,5.8,0,0,1-2.14-.92c-.64-.41-1.21-.86-1.81-1.27a5.73,5.73,0,0,0-1.95-.92,3.12,3.12,0,0,0-2.09.24,4.69,4.69,0,0,0-1.56,1.25,11.59,11.59,0,0,0-1.05,1.6,12.77,12.77,0,0,1-1,1.59,4.61,4.61,0,0,1-1.5,1.23,3.41,3.41,0,0,1-2,.4,3,3,0,0,1-1.69-.82,4,4,0,0,1-.94-1.41,9.93,9.93,0,0,1-.43-1.52,6.55,6.55,0,0,0-1-2.72,3.56,3.56,0,0,0-2.32-1.5,2.87,2.87,0,0,0-1.34.15,3.51,3.51,0,0,0-1.07.61c-1.22,1-1.81,2.23-2.71,2.94a3.87,3.87,0,0,1-2.42,1.06,2.56,2.56,0,0,1-.71-.11l-.22-.09a2.6,2.6,0,0,0,.93.16,3.93,3.93,0,0,0,2.36-1.07c.88-.71,1.44-1.93,2.68-3a3.55,3.55,0,0,1,1.11-.64,3,3,0,0,1,1.41-.16,3.69,3.69,0,0,1,2.44,1.54,4.57,4.57,0,0,1,.67,1.32,14,14,0,0,1,.37,1.45,9,9,0,0,0,.43,1.49,3.72,3.72,0,0,0,.9,1.35,2.72,2.72,0,0,0,1.58.77,3.21,3.21,0,0,0,1.82-.38,4.34,4.34,0,0,0,1.43-1.19,12,12,0,0,0,1-1.56,11.63,11.63,0,0,1,1.06-1.63,4.94,4.94,0,0,1,1.63-1.31,3.4,3.4,0,0,1,2.25-.26,5.9,5.9,0,0,1,2,1c.61.41,1.18.86,1.8,1.26a5.57,5.57,0,0,0,2.06.88,5.72,5.72,0,0,0,2.33,0,5.46,5.46,0,0,0,2.11-.91,4.45,4.45,0,0,0,.81-.75,4.18,4.18,0,0,0,.55-.9,11,11,0,0,0,.63-2,9.08,9.08,0,0,1,.65-2,4.42,4.42,0,0,1,1.42-1.63,3,3,0,0,1,2.24-.46,3.55,3.55,0,0,1,1.87,1.12,21.07,21.07,0,0,1,2,3.33,4.09,4.09,0,0,0,1.32,1.33,3.38,3.38,0,0,0,1.87.44,6.1,6.1,0,0,0,3.37-1.43c.91-.74,1.67-1.57,2.55-2.25a6.24,6.24,0,0,1,3-1.35,3.85,3.85,0,0,1,1.59.09,3.35,3.35,0,0,1,1.28.68,6,6,0,0,1,1.43,2c.32.68.59,1.32.92,1.88a4.35,4.35,0,0,0,1.2,1.34,3.18,3.18,0,0,0,2.56.44A1.83,1.83,0,0,0,233.42,215.68Z"/><path class="cls-8" d="M238,214.82l-.25,0-.31,0a3.05,3.05,0,0,1-.4-.13,6.52,6.52,0,0,1-2.15-1.57c-.2-.2-.4-.41-.61-.65a8.84,8.84,0,0,0-.67-.71,3.8,3.8,0,0,0-2.13-.84,3.35,3.35,0,0,0-1.29.14,3.41,3.41,0,0,0-1.16.68,23.83,23.83,0,0,0-1.9,2.13,5.13,5.13,0,0,1-1.22,1,4,4,0,0,1-1.66.54,8.3,8.3,0,0,1-3.66-.59c-1.2-.43-2.35-1-3.64-1.41a7.83,7.83,0,0,0-2-.34,4.81,4.81,0,0,0-2,.38,22.41,22.41,0,0,0-3.52,2.31,7.59,7.59,0,0,1-2,1,8.21,8.21,0,0,1-2.33.35,9.52,9.52,0,0,1-4.62-1.11,10.4,10.4,0,0,1-3.51-3,26.44,26.44,0,0,1-2.14-3.87,7.67,7.67,0,0,0-1.24-1.76,5.37,5.37,0,0,0-1.83-1.23,3.69,3.69,0,0,0-2.2-.2,3.83,3.83,0,0,0-1.84,1,5.32,5.32,0,0,0-1.09,1.65,12.34,12.34,0,0,0-.57,1.82c-.15.62-.28,1.23-.48,1.82a7.61,7.61,0,0,1-.78,1.69,8.1,8.1,0,0,1-2.65,2.59,8.6,8.6,0,0,1-3.46,1.22,8.4,8.4,0,0,1-3.42-.35,6.35,6.35,0,0,1-4.12-3.5c-.28-.72-.43-1.41-.63-2a4.55,4.55,0,0,0-.82-1.58,3.09,3.09,0,0,0-2.39-1.06,2,2,0,0,0-.9.28,1.59,1.59,0,0,1,.9-.32,3.16,3.16,0,0,1,2.46,1.05,4.37,4.37,0,0,1,.85,1.6c.22.62.37,1.32.65,2a6.27,6.27,0,0,0,4.06,3.41,8,8,0,0,0,3.34.32,8.22,8.22,0,0,0,3.37-1.19,8.13,8.13,0,0,0,2.58-2.54,10.51,10.51,0,0,0,1.23-3.46,12.7,12.7,0,0,1,.57-1.85,5.39,5.39,0,0,1,1.14-1.71,3.83,3.83,0,0,1,4.29-.9,5.62,5.62,0,0,1,1.92,1.28A7.94,7.94,0,0,1,195,209a25.83,25.83,0,0,0,2.12,3.85,10.39,10.39,0,0,0,3.44,3,9.38,9.38,0,0,0,4.5,1.09,8.52,8.52,0,0,0,2.26-.34,7.31,7.31,0,0,0,2-.94,23,23,0,0,1,3.55-2.32,5.38,5.38,0,0,1,2.13-.4,8.24,8.24,0,0,1,2.06.37c1.31.39,2.46,1,3.64,1.42a8.29,8.29,0,0,0,3.57.59,4,4,0,0,0,1.59-.51,5.17,5.17,0,0,0,1.18-1,23.57,23.57,0,0,1,1.93-2.13,3.34,3.34,0,0,1,1.21-.7,3.53,3.53,0,0,1,1.36-.14,3.88,3.88,0,0,1,2.19.88,7.4,7.4,0,0,1,.67.73c.2.23.4.45.6.65a6.81,6.81,0,0,0,2.1,1.59A2.25,2.25,0,0,0,238,214.82Z"/><path class="cls-4" d="M162.56,205.39a2.43,2.43,0,0,1-.95.1,2.51,2.51,0,0,1-1-.1,2.2,2.2,0,0,1,1-.11A2.14,2.14,0,0,1,162.56,205.39Z"/><path class="cls-4" d="M162.56,208.9a2.43,2.43,0,0,1-.95.1,2.51,2.51,0,0,1-1-.1,2.3,2.3,0,0,1,1-.1A2.23,2.23,0,0,1,162.56,208.9Z"/><path class="cls-4" d="M162.56,212.41a2.23,2.23,0,0,1-.95.1,2.3,2.3,0,0,1-1-.1,2.51,2.51,0,0,1,1-.1A2.43,2.43,0,0,1,162.56,212.41Z"/><path class="cls-4" d="M162.56,215.93a2.43,2.43,0,0,1-.95.1,2.51,2.51,0,0,1-1-.1,2.2,2.2,0,0,1,1-.11A2.14,2.14,0,0,1,162.56,215.93Z"/><path class="cls-4" d="M162.56,219.44a2.43,2.43,0,0,1-.95.1,2.51,2.51,0,0,1-1-.1,2.3,2.3,0,0,1,1-.1A2.23,2.23,0,0,1,162.56,219.44Z"/><path class="cls-4" d="M171.34,224a18.29,18.29,0,0,1-3.82,0,18.29,18.29,0,0,1,3.82,0Z"/><path class="cls-4" d="M188.17,224a18.29,18.29,0,0,1-3.82,0,18.29,18.29,0,0,1,3.82,0Z"/><path class="cls-4" d="M205,224a18.29,18.29,0,0,1-3.82,0,18.29,18.29,0,0,1,3.82,0Z"/><path class="cls-4" d="M221.83,224a18.2,18.2,0,0,1-3.81,0,18.2,18.2,0,0,1,3.81,0Z"/><path class="cls-4" d="M238.67,224a18.29,18.29,0,0,1-3.82,0,18.29,18.29,0,0,1,3.82,0Z"/><path class="cls-8" d="M260.76,177.77s12,.54,13.31,11S265.23,198.92,262.3,199c-1.33,0-4,0-6.48,0-5.31,0-9.55-2-10.59-7.22a9.62,9.62,0,0,1-.19-1.86C245,184.23,249.24,176.84,260.76,177.77Z"/><path class="cls-7" d="M249.59,190,265,191.13a2.92,2.92,0,0,0,3.12-2.71h0a2.94,2.94,0,0,0-2.71-3.13L250,184.2a2.93,2.93,0,0,0-3.13,2.71h0A2.94,2.94,0,0,0,249.59,190Z"/><path class="cls-6" d="M261.58,188.39a.94.94,0,1,0,.8-1.06A1,1,0,0,0,261.58,188.39Z"/><path class="cls-6" d="M250.84,187.63a.94.94,0,1,0,.8-1.06A.94.94,0,0,0,250.84,187.63Z"/><path class="cls-6" d="M257,183.94a9.61,9.61,0,0,0,.35-1.13,10.53,10.53,0,0,1,1.12-2.58,5.4,5.4,0,0,1,2-1.95,11,11,0,0,1,1.08-.44,1,1,0,0,0-.31,0,3.49,3.49,0,0,0-.83.28,5.11,5.11,0,0,0-2.06,2,9.13,9.13,0,0,0-1.09,2.64c-.09.35-.15.64-.18.84S257,183.94,257,183.94Z"/><path class="cls-6" d="M258.68,199s-.37-.3-.86-.86a6.56,6.56,0,0,1-1.4-2.52,11.29,11.29,0,0,1-.38-2.89,8.59,8.59,0,0,0,0-1.23,1.35,1.35,0,0,0,0,.33c0,.21,0,.51-.07.89a9.85,9.85,0,0,0,.33,2.95,6.14,6.14,0,0,0,1.48,2.56,7,7,0,0,0,.67.6A1.12,1.12,0,0,0,258.68,199Z"/><g class="cls-10"><path d="M248,196.58c1.24-.87,2.2-.84,3.79-1.14a30,30,0,0,1,4.82-.41c3.73-.08,7.57.06,10.78,1.37a4.66,4.66,0,0,1,2.17,1.52,11.62,11.62,0,0,1-4.72,1c-3,.12-9.38.05-9.38.05a14.88,14.88,0,0,1-5.28-1C248.14,197.05,248,196.58,248,196.58Z"/></g><path class="cls-6" d="M245.93,186.74a2.73,2.73,0,0,0-.06.56,3.38,3.38,0,0,0,.37,1.56,3.6,3.6,0,0,0,1.85,1.69,10.09,10.09,0,0,0,3.3.63l8.7.67,2.52.2c.86,0,1.73.16,2.64.15a4.08,4.08,0,0,0,2.6-.83,3.87,3.87,0,0,0,.63-5.2,4.22,4.22,0,0,0-2.26-1.55,6.77,6.77,0,0,0-1.33-.19l-1.3-.12-2.51-.23-4.65-.43c-1.45-.1-2.8-.32-4.05-.39a13.21,13.21,0,0,0-1.78,0,7.35,7.35,0,0,0-1.56.27,5.13,5.13,0,0,0-2.18,1.29,3.49,3.49,0,0,0-.81,1.38,2.85,2.85,0,0,0-.1.4,1.13,1.13,0,0,1,0,.14s0-.19.16-.53a3.64,3.64,0,0,1,.82-1.34,5.07,5.07,0,0,1,2.16-1.24,6.7,6.7,0,0,1,1.54-.25,13.12,13.12,0,0,1,1.77,0c1.23.08,2.58.31,4,.42l4.64.44,2.52.24,1.29.12a6.27,6.27,0,0,1,1.3.19,4,4,0,0,1,2.16,1.48,3.65,3.65,0,0,1,.67,2.59,3.72,3.72,0,0,1-1.26,2.36,3.88,3.88,0,0,1-2.5.78c-.88,0-1.76-.09-2.62-.14l-2.51-.19-8.71-.63a10.1,10.1,0,0,1-3.27-.59,3.59,3.59,0,0,1-1.83-1.63,3.48,3.48,0,0,1-.39-1.53C245.91,186.94,245.94,186.75,245.93,186.74Z"/><path class="cls-6" d="M274.15,190.56a2.83,2.83,0,0,0-.64-.42,10.24,10.24,0,0,0-1.7-.73A9.59,9.59,0,0,0,270,189a2.75,2.75,0,0,0-.76,0c0,.06,1.15.19,2.5.64S274.12,190.62,274.15,190.56Z"/><path class="cls-6" d="M260.19,179.35a.16.16,0,0,0-.21.14.16.16,0,0,0,.23.12.15.15,0,0,0,0-.25"/><path class="cls-6" d="M258.71,182.32a.16.16,0,0,0-.21.14.16.16,0,0,0,.23.12.15.15,0,0,0,0-.25"/><path class="cls-6" d="M271,188.35a.15.15,0,0,0-.21.14.16.16,0,0,0,.23.12.16.16,0,0,0,0-.26"/><path class="cls-6" d="M273.49,189.27a.15.15,0,0,0-.21.14.15.15,0,1,0,.23-.14"/><g class="cls-10"><path class="cls-6" d="M257.62,178.38a10.79,10.79,0,0,0,2.82.6,22,22,0,0,1,6.46,2,12.51,12.51,0,0,1,3,2.19,10.29,10.29,0,0,1,1.78,2.4c.8,1.52.88,2.64,1,2.62s.11-.28.08-.8a6.79,6.79,0,0,0-.53-2.1,9.12,9.12,0,0,0-1.75-2.71,11.55,11.55,0,0,0-3.13-2.42,15.44,15.44,0,0,0-3.68-1.35,20.3,20.3,0,0,0-3.13-.49A7.85,7.85,0,0,0,257.62,178.38Z"/></g><g class="cls-10"><path class="cls-6" d="M271.27,193.64c.18.18.82-.19,1.22-1s.34-1.5.09-1.55-.58.48-.92,1.12S271.08,193.46,271.27,193.64Z"/></g><path class="cls-6" d="M255,187.83a1.17,1.17,0,0,0,.12.79,1.76,1.76,0,0,0,.53.7,1.91,1.91,0,0,0,1,.4,1.85,1.85,0,0,0,1.06-.22,1.87,1.87,0,0,0,.64-.6,1.28,1.28,0,0,0,.26-.75,4.93,4.93,0,0,1-.36.67,1.93,1.93,0,0,1-.62.53,1.78,1.78,0,0,1-1,.18,1.82,1.82,0,0,1-.92-.34,2,2,0,0,1-.52-.63A3.45,3.45,0,0,1,255,187.83Z"/><path class="cls-8" d="M245.75,202.69c-.71.25.1,10.59.63,15.85.29,2.83.72,5.76,2.34,8.09,1.81,2.6,5,3.75,8.15,4.09a9.7,9.7,0,0,0,9.8-5.09,29.88,29.88,0,0,0,3.72-10.87,64.32,64.32,0,0,0,.8-11S258.46,198.06,245.75,202.69Z"/><path class="cls-6" d="M263.27,223.56a.16.16,0,0,0-.22.13.16.16,0,0,0,.22.14.17.17,0,0,0,0-.26"/><path class="cls-6" d="M258.68,223.72a.15.15,0,0,0-.22.13.15.15,0,0,0,.22.13.16.16,0,0,0,0-.26"/><path class="cls-6" d="M253.33,219.35a.15.15,0,1,0,0,.27.17.17,0,0,0,0-.26"/><path class="cls-6" d="M254.77,207.5a.15.15,0,1,0,0,.26.15.15,0,0,0,0-.25"/><path class="cls-6" d="M250.22,209.76a.15.15,0,1,0,0,.26.15.15,0,0,0,0-.25"/><path class="cls-6" d="M268.37,221.83a.15.15,0,1,0,0,.26.15.15,0,0,0,0-.25"/><path class="cls-6" d="M268.84,217.89a.15.15,0,0,0-.22.13.16.16,0,0,0,.22.13.16.16,0,0,0,0-.26"/><path class="cls-6" d="M268.91,214.34a.15.15,0,1,0,0,.26.15.15,0,0,0,0-.25"/><path class="cls-6" d="M269,210.58a.15.15,0,1,0,0,.26.17.17,0,0,0,0-.26"/><path class="cls-6" d="M247.37,209.05a.16.16,0,0,0-.22.13.15.15,0,0,0,.21.13.16.16,0,0,0,0-.25"/><path class="cls-6" d="M252.88,223.79a.15.15,0,0,0-.22.13.16.16,0,0,0,.22.13.16.16,0,0,0,0-.26"/><path class="cls-6" d="M252.65,227.52a.15.15,0,0,0-.22.13.16.16,0,0,0,.22.13.16.16,0,0,0,0-.26"/><path class="cls-6" d="M264,228.16a.87.87,0,0,0,.18-.16c.12-.12.29-.29.49-.53a7.19,7.19,0,0,0,1.35-2.24,11.09,11.09,0,0,0,.47-1.75c.14-.63.28-1.31.42-2,.27-1.43.52-3,.73-4.69a78.13,78.13,0,0,0,.56-8.61c0-1.11,0-2,0-2.62,0-.29,0-.53,0-.71a.87.87,0,0,0,0-.25s0,.09,0,.25v.71c0,.62,0,1.51,0,2.61a85.13,85.13,0,0,1-.62,8.59c-.2,1.67-.45,3.26-.71,4.69-.14.72-.26,1.4-.4,2a12.25,12.25,0,0,1-.44,1.74,7.55,7.55,0,0,1-1.29,2.24c-.19.24-.35.42-.45.54A1.05,1.05,0,0,0,264,228.16Z"/><path class="cls-6" d="M254.9,217.4c-.06,0-.23,2.87-.4,6.41s-.26,6.42-.21,6.42.23-2.87.4-6.41S255,217.4,254.9,217.4Z"/><path class="cls-6" d="M259.1,201s-.1.09-.24.27l-.59.79c-.49.67-1.16,1.6-1.89,2.64l-.27.39,0,0s0,0,0,.06,0,.06,0,.08v.06a2,2,0,0,0,0,.24c0,.3,0,.59,0,.86q0,.84.06,1.47c0,.41,0,.75.06,1a1.58,1.58,0,0,0,.05.36,9.17,9.17,0,0,0,0-1.35l0-1.46c0-.27,0-.56,0-.85a1.5,1.5,0,0,1,0-.22v-.06a0,0,0,0,0,0,0s0,0,.06-.08l.27-.38c.73-1,1.38-2,1.84-2.67.23-.35.42-.63.54-.83A1.27,1.27,0,0,0,259.1,201Z"/><path class="cls-6" d="M255,222.81l.45.06c.3,0,.72.06,1.25.08,1.05.06,2.5.09,4.11.05s3.06-.13,4.11-.23l1.24-.14a2.54,2.54,0,0,0,.45-.08,2.32,2.32,0,0,0-.46,0l-1.24.08c-1.05.06-2.5.14-4.1.18s-3.06,0-4.11,0l-1.24,0A2,2,0,0,0,255,222.81Z"/><path class="cls-6" d="M245.68,209.62s.09.07.26.16.42.21.74.34a16.1,16.1,0,0,0,2.6.79,20.2,20.2,0,0,0,2.67.39,5,5,0,0,0,1.13,0,8,8,0,0,0-1.11-.15c-.69-.09-1.63-.22-2.65-.44a23.19,23.19,0,0,1-2.59-.73C246.08,209.77,245.69,209.59,245.68,209.62Z"/><path class="cls-7" d="M251.61,213.55a4.19,4.19,0,1,0,3.87-4.49A4.19,4.19,0,0,0,251.61,213.55Z"/><path class="cls-6" d="M252.74,213.47a3.06,3.06,0,1,0,2.83-3.28A3.06,3.06,0,0,0,252.74,213.47Z"/><path class="cls-8" d="M254.22,214a3,3,0,0,0,0-.5c0-.32,0-.77,0-1.32l0,.06,1.58-.92h-.09l1.59.9-.05-.08h0v.92c0,.31,0,.6,0,.89l0-.08-1.55.95h.07l-1.17-.61a2.6,2.6,0,0,0-.45-.22s.12.1.39.26l1.16.69,0,0,0,0,1.57-.92,0,0v-1.85h0s-.09-.15,0-.08l-1.6-.88,0,0,0,0-1.56.95,0,0v0c0,.57,0,1,0,1.35A1.65,1.65,0,0,0,254.22,214Z"/><g class="cls-11"><path d="M271.19,203.78s-12.75-5.8-25.44-1.09C245.75,202.69,251.68,207.55,271.19,203.78Z"/></g><path class="cls-8" d="M245.75,202.69s-7.67-6.17-9-5.71-1.87,1.18-1.25,2.84,10.26,10.89,10.26,10.89Z"/><path class="cls-7" d="M246,214.47A2.56,2.56,0,0,1,246,214c0-.29-.07-.72-.12-1.26-.08-1.06-.16-2.54-.2-4.17s0-3.11,0-4.17c0-.54,0-1,0-1.27a2.1,2.1,0,0,1,0-.46,1.7,1.7,0,0,1,0,.46c0,.35,0,.77,0,1.26,0,1.13.06,2.58.1,4.17s.1,3.05.14,4.17c0,.49,0,.92.05,1.27A1.64,1.64,0,0,1,246,214.47Z"/><g class="cls-11"><path d="M266.6,205.88A48.38,48.38,0,0,0,269.76,218c.26-1.15.48-2.25.63-3.26A17.08,17.08,0,0,0,269,211c-.76-1.71-1.53-3.42-2.29-5.12"/></g><path class="cls-8" d="M271.19,203.78s7,14.31,4.31,15.85c-3.84,2.19-9.14-14.93-9.14-14.93l2.48-.5Z"/><path class="cls-7" d="M271.85,217.4a2.47,2.47,0,0,1-.32-.44c-.2-.28-.47-.71-.78-1.25a37.67,37.67,0,0,1-2.12-4.37c-.73-1.75-1.29-3.38-1.65-4.57-.19-.59-.32-1.08-.41-1.41a3.92,3.92,0,0,1-.11-.53,1.74,1.74,0,0,1,.2.5l.48,1.39c.4,1.17,1,2.78,1.71,4.53a47.65,47.65,0,0,0,2,4.38c.28.55.53,1,.7,1.29A1.73,1.73,0,0,1,271.85,217.4Z"/><rect class="cls-7" x="31.39" y="233.11" width="49.62" height="34.54"/><rect class="cls-9" x="24.58" y="243.36" width="51.04" height="12.66"/><rect class="cls-7" x="26.84" y="245.97" width="10.05" height="1.55"/><rect class="cls-7" x="26.84" y="248.63" width="10.05" height="1.55"/><rect class="cls-7" x="26.84" y="251.38" width="10.05" height="1.55"/><path class="cls-7" d="M40.87,246.9a.58.58,0,1,1-1.16,0,.58.58,0,0,1,1.16,0Z"/><path class="cls-7" d="M43.41,246.9a.58.58,0,1,1-1.15,0,.58.58,0,0,1,1.15,0Z"/><path class="cls-7" d="M46,246.9a.58.58,0,0,1-1.16,0,.58.58,0,0,1,1.16,0Z"/><path class="cls-7" d="M48.5,246.9a.58.58,0,1,1-1.15,0,.58.58,0,0,1,1.15,0Z"/><path class="cls-7" d="M68.22,246.9a.58.58,0,1,1-1.16,0,.58.58,0,0,1,1.16,0Z"/><path class="cls-7" d="M70.81,246.9a.58.58,0,1,1-1.15,0,.58.58,0,0,1,1.15,0Z"/><path class="cls-7" d="M51,246.9a.57.57,0,0,1-.57.58.58.58,0,0,1-.58-.58.57.57,0,0,1,.58-.57A.56.56,0,0,1,51,246.9Z"/><path class="cls-7" d="M63.54,246.9a.58.58,0,0,1-.58.58.57.57,0,0,1-.57-.58.56.56,0,0,1,.57-.57A.57.57,0,0,1,63.54,246.9Z"/><path class="cls-2" d="M53.59,246.9a.58.58,0,0,1-.58.58.57.57,0,0,1-.57-.58.56.56,0,0,1,.57-.57A.57.57,0,0,1,53.59,246.9Z"/><path class="cls-2" d="M56.13,246.9a.57.57,0,0,1-.57.58.58.58,0,0,1-.58-.58.57.57,0,0,1,.58-.57A.56.56,0,0,1,56.13,246.9Z"/><path class="cls-2" d="M61.3,246.9a.58.58,0,1,1-1.16,0,.58.58,0,0,1,1.16,0Z"/><path class="cls-2" d="M72.92,246.9a.58.58,0,1,1-1.15,0,.58.58,0,0,1,1.15,0Z"/><path class="cls-8" d="M58.68,246.9a.58.58,0,1,1-1.16,0,.58.58,0,0,1,1.16,0Z"/><path class="cls-8" d="M66,246.9a.58.58,0,1,1-1.15,0,.58.58,0,0,1,1.15,0Z"/><path class="cls-7" d="M71.77,249.68a.58.58,0,1,1,.58.58A.58.58,0,0,1,71.77,249.68Z"/><path class="cls-7" d="M69.22,249.68a.58.58,0,1,1,.58.58A.58.58,0,0,1,69.22,249.68Z"/><path class="cls-7" d="M66.68,249.68a.58.58,0,0,1,.58-.58.58.58,0,0,1,0,1.16A.58.58,0,0,1,66.68,249.68Z"/><path class="cls-7" d="M64.14,249.68a.57.57,0,0,1,.57-.58.58.58,0,0,1,0,1.16A.57.57,0,0,1,64.14,249.68Z"/><path class="cls-7" d="M44.42,249.68a.58.58,0,0,1,.58-.58.58.58,0,0,1,0,1.16A.58.58,0,0,1,44.42,249.68Z"/><path class="cls-7" d="M41.83,249.68a.57.57,0,0,1,.57-.58.58.58,0,0,1,0,1.16A.57.57,0,0,1,41.83,249.68Z"/><path class="cls-7" d="M61.59,249.68a.58.58,0,0,1,.58-.58.58.58,0,0,1,0,1.16A.58.58,0,0,1,61.59,249.68Z"/><path class="cls-7" d="M49.1,249.68a.57.57,0,0,1,.57-.58.58.58,0,0,1,0,1.16A.57.57,0,0,1,49.1,249.68Z"/><path class="cls-2" d="M59.05,249.68a.58.58,0,1,1,.57.58A.58.58,0,0,1,59.05,249.68Z"/><path class="cls-2" d="M56.5,249.68a.58.58,0,1,1,.58.58A.58.58,0,0,1,56.5,249.68Z"/><path class="cls-2" d="M51.34,249.68a.58.58,0,0,1,.58-.58.58.58,0,0,1,0,1.16A.58.58,0,0,1,51.34,249.68Z"/><path class="cls-2" d="M39.71,249.68a.58.58,0,1,1,.58.58A.58.58,0,0,1,39.71,249.68Z"/><path class="cls-8" d="M54,249.68a.58.58,0,1,1,.58.58A.58.58,0,0,1,54,249.68Z"/><path class="cls-8" d="M46.67,249.68a.58.58,0,1,1,.58.58A.58.58,0,0,1,46.67,249.68Z"/><path class="cls-7" d="M40.87,252.15a.58.58,0,1,1-1.16,0,.58.58,0,0,1,1.16,0Z"/><circle class="cls-7" cx="42.84" cy="252.15" r="0.58"/><circle class="cls-7" cx="45.38" cy="252.15" r="0.58"/><circle class="cls-7" cx="47.92" cy="252.15" r="0.58"/><circle class="cls-7" cx="67.64" cy="252.15" r="0.58"/><circle class="cls-7" cx="70.23" cy="252.15" r="0.58"/><path class="cls-7" d="M51,252.15a.57.57,0,0,1-.57.58.58.58,0,0,1-.58-.58.57.57,0,0,1,.58-.57A.56.56,0,0,1,51,252.15Z"/><path class="cls-7" d="M63.54,252.15a.58.58,0,0,1-.58.58.57.57,0,0,1-.57-.58.56.56,0,0,1,.57-.57A.57.57,0,0,1,63.54,252.15Z"/><circle class="cls-2" cx="53.01" cy="252.15" r="0.58"/><path class="cls-2" d="M56.13,252.15a.57.57,0,0,1-.57.58.58.58,0,0,1-.58-.58.57.57,0,0,1,.58-.57A.56.56,0,0,1,56.13,252.15Z"/><path class="cls-2" d="M61.3,252.15a.58.58,0,1,1-1.16,0,.58.58,0,0,1,1.16,0Z"/><path class="cls-2" d="M72.92,252.15a.58.58,0,1,1-1.15,0,.58.58,0,0,1,1.15,0Z"/><path class="cls-8" d="M58.68,252.15a.58.58,0,1,1-1.16,0,.58.58,0,0,1,1.16,0Z"/><circle class="cls-8" cx="65.39" cy="252.15" r="0.58"/><rect class="cls-9" x="24.58" y="258.99" width="51.04" height="12.66"/><path class="cls-7" d="M40.74,262.4a.58.58,0,1,1-.58-.57A.58.58,0,0,1,40.74,262.4Z"/><path class="cls-7" d="M43.29,262.4a.58.58,0,1,1-.58-.57A.58.58,0,0,1,43.29,262.4Z"/><path class="cls-7" d="M45.83,262.4a.58.58,0,0,1-.58.58.58.58,0,0,1,0-1.15A.58.58,0,0,1,45.83,262.4Z"/><path class="cls-7" d="M48.37,262.4a.57.57,0,0,1-.57.58.58.58,0,1,1,0-1.15A.57.57,0,0,1,48.37,262.4Z"/><path class="cls-7" d="M68.09,262.4a.58.58,0,1,1-.58-.57A.58.58,0,0,1,68.09,262.4Z"/><path class="cls-7" d="M70.68,262.4a.57.57,0,0,1-.57.58.58.58,0,1,1,0-1.15A.57.57,0,0,1,70.68,262.4Z"/><path class="cls-7" d="M50.92,262.4a.58.58,0,0,1-.58.58.58.58,0,0,1,0-1.15A.58.58,0,0,1,50.92,262.4Z"/><path class="cls-7" d="M63.41,262.4a.57.57,0,0,1-.57.58.58.58,0,1,1,0-1.15A.57.57,0,0,1,63.41,262.4Z"/><path class="cls-2" d="M53.46,262.4a.58.58,0,1,1-.57-.57A.58.58,0,0,1,53.46,262.4Z"/><path class="cls-2" d="M56,262.4a.58.58,0,1,1-.58-.57A.58.58,0,0,1,56,262.4Z"/><path class="cls-2" d="M61.17,262.4a.58.58,0,0,1-.58.58.58.58,0,0,1,0-1.15A.58.58,0,0,1,61.17,262.4Z"/><path class="cls-2" d="M72.8,262.4a.58.58,0,1,1-.58-.57A.58.58,0,0,1,72.8,262.4Z"/><path class="cls-8" d="M58.55,262.4a.58.58,0,1,1-.58-.57A.58.58,0,0,1,58.55,262.4Z"/><path class="cls-8" d="M65.84,262.4a.58.58,0,1,1-.58-.57A.58.58,0,0,1,65.84,262.4Z"/><path class="cls-7" d="M71.64,265.18a.58.58,0,1,1,.58.58A.58.58,0,0,1,71.64,265.18Z"/><circle class="cls-7" cx="69.67" cy="265.18" r="0.58"/><path class="cls-7" d="M66.55,265.18a.58.58,0,1,1,.58.58A.58.58,0,0,1,66.55,265.18Z"/><path class="cls-7" d="M64,265.18a.58.58,0,1,1,.58.58A.58.58,0,0,1,64,265.18Z"/><path class="cls-7" d="M44.29,265.18a.58.58,0,1,1,.58.58A.58.58,0,0,1,44.29,265.18Z"/><path class="cls-7" d="M41.7,265.18a.58.58,0,1,1,.58.58A.58.58,0,0,1,41.7,265.18Z"/><circle class="cls-7" cx="62.04" cy="265.18" r="0.58"/><circle class="cls-7" cx="49.55" cy="265.18" r="0.58"/><path class="cls-2" d="M58.92,265.18a.58.58,0,0,1,.58-.57.58.58,0,0,1,0,1.15A.58.58,0,0,1,58.92,265.18Z"/><path class="cls-2" d="M56.38,265.18a.57.57,0,0,1,.57-.57.58.58,0,1,1,0,1.15A.57.57,0,0,1,56.38,265.18Z"/><circle class="cls-2" cx="51.79" cy="265.18" r="0.58"/><path class="cls-2" d="M39.59,265.18a.58.58,0,1,1,.57.58A.58.58,0,0,1,39.59,265.18Z"/><path class="cls-8" d="M53.83,265.18a.58.58,0,1,1,.58.58A.58.58,0,0,1,53.83,265.18Z"/><path class="cls-8" d="M46.55,265.18a.58.58,0,1,1,.57.58A.58.58,0,0,1,46.55,265.18Z"/><path class="cls-7" d="M40.74,267.66a.58.58,0,1,1-.58-.58A.58.58,0,0,1,40.74,267.66Z"/><path class="cls-7" d="M43.29,267.66a.58.58,0,1,1-.58-.58A.58.58,0,0,1,43.29,267.66Z"/><path class="cls-7" d="M45.83,267.66a.58.58,0,0,1-.58.57.58.58,0,0,1,0-1.15A.58.58,0,0,1,45.83,267.66Z"/><path class="cls-7" d="M48.37,267.66a.57.57,0,0,1-.57.57.58.58,0,1,1,0-1.15A.57.57,0,0,1,48.37,267.66Z"/><path class="cls-7" d="M68.09,267.66a.58.58,0,1,1-.58-.58A.58.58,0,0,1,68.09,267.66Z"/><path class="cls-7" d="M70.68,267.66a.57.57,0,0,1-.57.57.58.58,0,1,1,0-1.15A.57.57,0,0,1,70.68,267.66Z"/><path class="cls-7" d="M50.92,267.66a.58.58,0,0,1-.58.57.58.58,0,0,1,0-1.15A.58.58,0,0,1,50.92,267.66Z"/><path class="cls-7" d="M63.41,267.66a.57.57,0,0,1-.57.57.58.58,0,1,1,0-1.15A.57.57,0,0,1,63.41,267.66Z"/><path class="cls-2" d="M53.46,267.66a.58.58,0,1,1-.57-.58A.58.58,0,0,1,53.46,267.66Z"/><path class="cls-2" d="M56,267.66a.58.58,0,1,1-.58-.58A.58.58,0,0,1,56,267.66Z"/><path class="cls-2" d="M61.17,267.66a.58.58,0,0,1-.58.57.58.58,0,0,1,0-1.15A.58.58,0,0,1,61.17,267.66Z"/><path class="cls-2" d="M72.8,267.66a.58.58,0,1,1-.58-.58A.58.58,0,0,1,72.8,267.66Z"/><path class="cls-8" d="M58.55,267.66a.58.58,0,1,1-.58-.58A.58.58,0,0,1,58.55,267.66Z"/><path class="cls-8" d="M65.84,267.66a.58.58,0,1,1-.58-.58A.58.58,0,0,1,65.84,267.66Z"/><rect class="cls-7" x="26.84" y="261.6" width="10.05" height="1.55"/><rect class="cls-7" x="26.84" y="264.26" width="10.05" height="1.55"/><rect class="cls-7" x="26.84" y="267.01" width="10.05" height="1.55"/><polygon class="cls-7" points="86.41 256 75.62 256.02 75.62 243.36 86.41 243.34 86.41 256"/><polygon class="cls-7" points="86.41 271.53 75.62 271.55 75.62 258.89 86.41 258.87 86.41 271.53"/><rect class="cls-7" x="27.21" y="235.86" width="10.05" height="1.55"/><polygon class="cls-7" points="86.41 240.6 75.62 240.63 75.62 227.86 86.41 227.84 86.41 240.6"/><rect class="cls-9" x="24.95" y="227.84" width="51.05" height="12.66"/><rect class="cls-7" x="27.21" y="230.45" width="10.05" height="1.55"/><rect class="cls-7" x="27.21" y="233.11" width="10.05" height="1.55"/><path class="cls-7" d="M41.24,231.39a.58.58,0,1,1-.58-.58A.58.58,0,0,1,41.24,231.39Z"/><path class="cls-7" d="M43.78,231.39a.58.58,0,1,1-.58-.58A.58.58,0,0,1,43.78,231.39Z"/><path class="cls-7" d="M46.33,231.39a.58.58,0,1,1-.58-.58A.58.58,0,0,1,46.33,231.39Z"/><path class="cls-7" d="M48.87,231.39a.58.58,0,1,1-.58-.58A.58.58,0,0,1,48.87,231.39Z"/><path class="cls-7" d="M68.59,231.39a.58.58,0,1,1-.58-.58A.58.58,0,0,1,68.59,231.39Z"/><path class="cls-7" d="M71.18,231.39a.58.58,0,1,1-.58-.58A.58.58,0,0,1,71.18,231.39Z"/><path class="cls-7" d="M51.41,231.39a.57.57,0,0,1-.57.57.58.58,0,1,1,0-1.15A.57.57,0,0,1,51.41,231.39Z"/><path class="cls-7" d="M63.91,231.39a.58.58,0,0,1-.58.57.58.58,0,0,1,0-1.15A.58.58,0,0,1,63.91,231.39Z"/><path class="cls-2" d="M54,231.39a.58.58,0,0,1-.58.57.58.58,0,0,1,0-1.15A.58.58,0,0,1,54,231.39Z"/><path class="cls-2" d="M56.5,231.39a.58.58,0,1,1-.57-.58A.58.58,0,0,1,56.5,231.39Z"/><path class="cls-2" d="M61.66,231.39a.57.57,0,0,1-.57.57.58.58,0,1,1,0-1.15A.57.57,0,0,1,61.66,231.39Z"/><path class="cls-2" d="M73.29,231.39a.58.58,0,1,1-.58-.58A.58.58,0,0,1,73.29,231.39Z"/><path class="cls-8" d="M59.05,231.39a.58.58,0,1,1-.58-.58A.58.58,0,0,1,59.05,231.39Z"/><path class="cls-8" d="M66.33,231.39a.58.58,0,1,1-.57-.58A.58.58,0,0,1,66.33,231.39Z"/><path class="cls-7" d="M72.14,234.17a.58.58,0,1,1,.57.57A.58.58,0,0,1,72.14,234.17Z"/><circle class="cls-7" cx="70.17" cy="234.17" r="0.58"/><path class="cls-7" d="M67.05,234.17a.58.58,0,1,1,.58.57A.58.58,0,0,1,67.05,234.17Z"/><path class="cls-7" d="M64.51,234.17a.57.57,0,0,1,.57-.58.58.58,0,1,1,0,1.15A.57.57,0,0,1,64.51,234.17Z"/><path class="cls-7" d="M44.79,234.17a.58.58,0,1,1,.58.57A.58.58,0,0,1,44.79,234.17Z"/><path class="cls-7" d="M42.2,234.17a.57.57,0,0,1,.57-.58.58.58,0,1,1,0,1.15A.57.57,0,0,1,42.2,234.17Z"/><path class="cls-7" d="M62,234.17a.58.58,0,0,1,.58-.58.58.58,0,0,1,0,1.15A.58.58,0,0,1,62,234.17Z"/><circle class="cls-7" cx="50.04" cy="234.17" r="0.58"/><path class="cls-2" d="M59.42,234.17a.58.58,0,1,1,.57.57A.58.58,0,0,1,59.42,234.17Z"/><circle class="cls-2" cx="57.45" cy="234.17" r="0.58"/><path class="cls-2" d="M51.71,234.17a.58.58,0,0,1,.58-.58.58.58,0,0,1,0,1.15A.58.58,0,0,1,51.71,234.17Z"/><circle class="cls-2" cx="40.66" cy="234.17" r="0.58"/><path class="cls-8" d="M54.33,234.17a.58.58,0,1,1,.58.57A.58.58,0,0,1,54.33,234.17Z"/><path class="cls-8" d="M47,234.17a.58.58,0,1,1,.58.57A.58.58,0,0,1,47,234.17Z"/><path class="cls-7" d="M41.24,236.64a.58.58,0,0,1-1.16,0,.58.58,0,1,1,1.16,0Z"/><path class="cls-7" d="M43.78,236.64a.58.58,0,0,1-1.15,0,.58.58,0,1,1,1.15,0Z"/><path class="cls-7" d="M46.33,236.64a.58.58,0,0,1-1.16,0,.58.58,0,0,1,1.16,0Z"/><path class="cls-7" d="M48.87,236.64a.58.58,0,0,1-1.15,0,.58.58,0,1,1,1.15,0Z"/><path class="cls-7" d="M68.59,236.64a.58.58,0,0,1-1.16,0,.58.58,0,0,1,1.16,0Z"/><path class="cls-7" d="M71.18,236.64a.58.58,0,0,1-1.15,0,.58.58,0,1,1,1.15,0Z"/><path class="cls-7" d="M51.41,236.64a.56.56,0,0,1-.57.57.57.57,0,0,1-.58-.57.58.58,0,0,1,.58-.58A.57.57,0,0,1,51.41,236.64Z"/><path class="cls-7" d="M63.91,236.64a.57.57,0,0,1-.58.57.56.56,0,0,1-.57-.57.57.57,0,0,1,.57-.58A.58.58,0,0,1,63.91,236.64Z"/><path class="cls-2" d="M54,236.64a.57.57,0,0,1-.58.57.56.56,0,0,1-.57-.57.57.57,0,0,1,.57-.58A.58.58,0,0,1,54,236.64Z"/><path class="cls-2" d="M56.5,236.64a.58.58,0,0,1-1.15,0,.58.58,0,1,1,1.15,0Z"/><path class="cls-2" d="M61.66,236.64a.56.56,0,0,1-.57.57.57.57,0,0,1-.58-.57.58.58,0,0,1,.58-.58A.57.57,0,0,1,61.66,236.64Z"/><path class="cls-2" d="M73.29,236.64a.58.58,0,0,1-1.15,0,.58.58,0,1,1,1.15,0Z"/><path class="cls-8" d="M59.05,236.64a.58.58,0,0,1-1.16,0,.58.58,0,0,1,1.16,0Z"/><path class="cls-8" d="M66.33,236.64a.58.58,0,0,1-1.15,0,.58.58,0,1,1,1.15,0Z"/><path class="cls-7" d="M94.33,173.93h-.85L91,174l-9,.05-29.75.07.1-.12v1.34c0,14.41,0,27.44,0,36.89,0,4.71,0,8.53,0,11.18,0,1.31,0,2.33,0,3,0,.34,0,.61,0,.79s0,.27,0,.27,0-.09,0-.27v-.79c0-.7,0-1.72,0-3,0-2.65,0-6.47,0-11.18,0-9.45,0-22.48,0-36.89v-1.46H82.06l9,0,2.44,0h.85Z"/><path class="cls-7" d="M95.73,174.39a1.68,1.68,0,1,1-1.67-1.67A1.68,1.68,0,0,1,95.73,174.39Z"/><path class="cls-8" d="M66.75,188.8l8.7-21a1.15,1.15,0,0,0-1.11-1.74H72.59a1.12,1.12,0,0,1-1.25-1l-.06-.78a1.11,1.11,0,0,0-1.25-1H61.71a2.89,2.89,0,0,0-1.92.85l-.68.65a2.87,2.87,0,0,1-1.92.85H46.59a3,3,0,0,0-2.53,1.74L35.44,188.8Z"/><g class="cls-10"><path d="M66.75,188.8l8.7-21a1.15,1.15,0,0,0-1.11-1.74H72.59a1.12,1.12,0,0,1-1.25-1l-.06-.78a1.11,1.11,0,0,0-1.25-1H61.71a2.89,2.89,0,0,0-1.92.85l-.68.65a2.87,2.87,0,0,1-1.92.85H46.59a3,3,0,0,0-2.53,1.74L35.44,188.8Z"/></g><path class="cls-4" d="M68.19,181.67,71.47,169a1.28,1.28,0,0,0-1.09-1.67H44.65a1.17,1.17,0,0,0-1.09.95l-4.78,19.09c-.21.84.13,1.34.89,1.34H65.55a1.16,1.16,0,0,0,1.08-.93Z"/><path class="cls-5" d="M66.41,188.23l1.4-20a1.22,1.22,0,0,0-1.23-1.31H39.93v21.29Z"/><path class="cls-3" d="M66.71,188.69l-3.17-20.6a1.47,1.47,0,0,0-1.45-1.15h-27a1.46,1.46,0,0,0-1.37,2l5.83,18.85Z"/><path class="cls-8" d="M66.75,188.79,60.21,169.5a1.94,1.94,0,0,0-1.82-1.34H30.6a1.36,1.36,0,0,0-1.25,1.8l6.09,18.84Z"/><path class="cls-7" d="M325,271.55c0,.07-67.46.12-150.65.12s-150.65-.05-150.65-.12,67.43-.11,150.65-.11S325,271.49,325,271.55Z"/><rect class="cls-6" y="337.31" width="350" height="145"/><text class="cls-12" transform="translate(64.6 415.4)">빅데이터분석과정</text><text class="cls-13" transform="translate(99.4 454)">2022년 4월 22일</text><text class="cls-14" transform="translate(10.69 365.55)"><tspan class="cls-15">k</tspan><tspan x="9.4" y="0">-Digi</tspan><tspan class="cls-16" x="50.6" y="0">t</tspan><tspan x="57.74" y="0">al</tspan></text></svg>