<svg id="레이어_1" data-name="레이어 1" xmlns="http://www.w3.org/2000/svg" viewBox="0 0 350 482"><defs><style>.cls-1{fill:#d8e9e6;}.cls-2{fill:#cdc6be;}.cls-3{fill:#3f362f;}.cls-4{fill:#4f443d;}.cls-5{fill:#f6f2eb;}.cls-6{fill:#fff;}.cls-7{fill:#dbd6d1;}.cls-8{fill:#f4c32d;}.cls-9{fill:#f5b725;}.cls-10{fill:#6b5f56;}.cls-11{fill:#df5046;}.cls-12{fill:#b1a79e;}.cls-13{fill:#eeeae7;}.cls-14{fill:#ada49b;}.cls-15{fill:#c0b7af;}.cls-16{fill:#c4bbb4;}.cls-17{fill:#ad5f3d;}.cls-18{fill:#bb7048;}.cls-19{fill:#d5865e;}.cls-20{fill:#a09185;}.cls-21{fill:#908174;}.cls-22{fill:#e8e1d9;}.cls-23{fill:#eb5e4d;}.cls-24{fill:#d7c9be;}.cls-25,.cls-28{fill:#3d322c;}.cls-26{fill:#574a41;}.cls-26,.cls-28{opacity:0.5;}.cls-27{fill:#776c65;}.cls-29{fill:#f5b5a3;}.cls-30{fill:#df4536;}.cls-31{fill:#f8c5b4;}.cls-32{fill:#ea5a57;}.cls-33{fill:#c0b5ab;}.cls-34{fill:#f6cb47;}.cls-35{fill:#493b37;}.cls-36{fill:#342723;}.cls-37{fill:#544640;}.cls-38{fill:#c5bcb4;}.cls-39{fill:#a09287;}.cls-40{fill:#ec782e;}.cls-41{fill:#db661b;}.cls-42{fill:#f08944;}.cls-43{fill:#ece5e6;}.cls-44{fill:#2f3855;}.cls-45{fill:#4b408b;}.cls-46{fill:#513f3a;}.cls-47{fill:#ef7f28;}.cls-48{fill:#f7f4f9;}.cls-49{fill:#2c1d1b;}.cls-50{fill:#d5c8d3;}.cls-51{font-size:30px;}.cls-51,.cls-53{fill:#231916;font-family:NotoSansKR-Bold-KSCpc-EUC-H, Noto Sans KR;}.cls-52{font-size:21px;fill:#828182;font-family:NotoSansKR-Medium-KSCpc-EUC-H, Noto Sans KR;}.cls-53{font-size:18px;}</style></defs><title>Artboard 24 copy 10</title><rect class="cls-1" y="0.31" width="350" height="482"/><polygon class="cls-2" points="69.37 227.72 70.31 235.23 78.37 230.57 69.37 227.72"/><path class="cls-3" d="M82.12,239.45c0-3.33-2-7.19-4.52-8.63a4,4,0,0,0-2-.55,5.45,5.45,0,0,0-2.9.81A4.16,4.16,0,0,0,71.12,234l5.08,10.43a3.85,3.85,0,0,0,3.31-.11,5.12,5.12,0,0,0,2-2.05,7.38,7.38,0,0,0,.38-.86A6.42,6.42,0,0,0,82.12,239.45Z"/><path class="cls-4" d="M71,235.41c0,3.33,2,7.2,4.52,8.64S80,244,80,240.63s-2-7.19-4.52-8.63S71,232.08,71,235.41Z"/><path class="cls-5" d="M71.84,236c0,2.63,1.6,5.69,3.57,6.83s3.58-.07,3.58-2.7-1.6-5.69-3.58-6.83S71.84,233.33,71.84,236Z"/><path class="cls-6" d="M75.29,233.8a7.71,7.71,0,0,1,3.21,6.14c0,2.36-1.44,3.45-3.21,2.42a7.69,7.69,0,0,1-3.21-6.13C72.08,233.87,73.52,232.78,75.29,233.8Zm.7.8a2.76,2.76,0,0,0-.68-.53,1.74,1.74,0,0,0-1.19-.33.57.57,0,0,0-.34.16c-.1.1-.08.24,0,.45a6.59,6.59,0,0,0,.41.72c.07.11.12.06.27.08a1.43,1.43,0,0,1,.43.07,3.18,3.18,0,0,1,.71.43c.11.09.16.06.2,0a2.37,2.37,0,0,0,.26-.58A.52.52,0,0,0,76,234.6Zm-2.41,2.5a4.08,4.08,0,0,0,1.71,3.26c.94.55,1.71,0,1.71-1.29a4.12,4.12,0,0,0-1.71-3.27C74.35,235.26,73.58,235.84,73.58,237.1Zm4.45,1a5.53,5.53,0,0,0-.67-1.75,4.53,4.53,0,0,0-.56-.85c-.15-.13-.23-.08-.28,0a2.68,2.68,0,0,0-.2.66.4.4,0,0,0,.08.31,6.14,6.14,0,0,1,.52.95c.08.17.15.42.23.65s.06.33.15.4a5.84,5.84,0,0,0,.54.34c.16.08.24.06.25-.15A2.26,2.26,0,0,0,78,238.09Zm-.71,4.06c.09,0,.32-.21.46-.42a2.2,2.2,0,0,0,.42-1.28,2.22,2.22,0,0,0,0-.59c0-.23-.14-.33-.29-.38a2.38,2.38,0,0,0-.53-.11c-.08,0-.06.1-.09.29a3,3,0,0,1-.13.5,1.55,1.55,0,0,1-.4.56c-.07.06-.06.16,0,.26a4.9,4.9,0,0,0,.32.88C77.08,242,77.18,242.15,77.32,242.15Zm-3-.92a3.18,3.18,0,0,0,.39.46,2.27,2.27,0,0,0,1.22.69,1,1,0,0,0,.64,0c.11-.08.09-.24,0-.41a5.93,5.93,0,0,0-.38-.85c-.05-.1-.11-.18-.21-.18a1.8,1.8,0,0,1-.69-.17,3.3,3.3,0,0,1-.45-.29c-.16-.12-.22-.21-.28-.16a2,2,0,0,0-.31.41A.41.41,0,0,0,74.36,241.23Zm-1.79-2.91a5.83,5.83,0,0,0,.77,1.7,2.54,2.54,0,0,0,.39.47c.16.13.23.1.28-.08a3.17,3.17,0,0,0,.14-.62c0-.11-.06-.17-.17-.38s-.25-.45-.32-.62a6.25,6.25,0,0,1-.31-1,.44.44,0,0,0-.16-.28,2.56,2.56,0,0,0-.61-.32c-.12,0-.21,0-.23.17A4.42,4.42,0,0,0,72.57,238.32Zm0-1.62a1.76,1.76,0,0,0,.6.17c.07,0,.12,0,.13-.16a3.07,3.07,0,0,1,.14-.85,1.73,1.73,0,0,1,.22-.39c.09-.13.15-.14.12-.26s-.19-.58-.27-.79-.17-.33-.31-.32a.51.51,0,0,0-.33.17,2,2,0,0,0-.53,1.16,2.82,2.82,0,0,0,0,.89A.47.47,0,0,0,72.57,236.7Z"/><path class="cls-7" d="M75.11,236.45a3.35,3.35,0,0,1,1.39,2.66c0,1-.62,1.5-1.39,1.06a3.35,3.35,0,0,1-1.39-2.66C73.72,236.48,74.34,236,75.11,236.45Z"/><path class="cls-4" d="M77.84,238.83a5.84,5.84,0,0,1-.54-.34c-.09-.07-.08-.17-.15-.4s-.15-.48-.23-.65a6.14,6.14,0,0,0-.52-.95.4.4,0,0,1-.08-.31,2.68,2.68,0,0,1,.2-.66c0-.11.13-.16.28,0a4.53,4.53,0,0,1,.56.85,5.53,5.53,0,0,1,.67,1.75,2.26,2.26,0,0,1,.06.59C78.08,238.89,78,238.91,77.84,238.83Z"/><path class="cls-4" d="M75.83,235.65c0,.06-.09.09-.2,0a3.18,3.18,0,0,0-.71-.43,1.43,1.43,0,0,0-.43-.07c-.15,0-.2,0-.27-.08a6.59,6.59,0,0,1-.41-.72c-.11-.21-.13-.35,0-.45a.57.57,0,0,1,.34-.16,1.74,1.74,0,0,1,1.19.33,2.76,2.76,0,0,1,.68.53.52.52,0,0,1,.1.47A2.37,2.37,0,0,1,75.83,235.65Z"/><path class="cls-4" d="M72.34,235.43a2,2,0,0,1,.53-1.16.51.51,0,0,1,.33-.17c.14,0,.22.09.31.32s.2.53.27.79,0,.13-.12.26a1.73,1.73,0,0,0-.22.39,3.07,3.07,0,0,0-.14.85c0,.14-.06.16-.13.16a1.76,1.76,0,0,1-.6-.17.47.47,0,0,1-.27-.38A2.82,2.82,0,0,1,72.34,235.43Z"/><path class="cls-4" d="M72.58,237.16a2.56,2.56,0,0,1,.61.32.44.44,0,0,1,.16.28,6.25,6.25,0,0,0,.31,1c.07.17.2.4.32.62s.18.27.17.38a3.17,3.17,0,0,1-.14.62c-.05.18-.12.21-.28.08a2.54,2.54,0,0,1-.39-.47,5.83,5.83,0,0,1-.77-1.7,4.42,4.42,0,0,1-.22-1C72.37,237.13,72.46,237.11,72.58,237.16Z"/><path class="cls-4" d="M74.63,240.35c.06,0,.12,0,.28.16a3.3,3.3,0,0,0,.45.29,1.8,1.8,0,0,0,.69.17c.1,0,.16.08.21.18a5.93,5.93,0,0,1,.38.85c.06.17.08.33,0,.41a1,1,0,0,1-.64,0,2.27,2.27,0,0,1-1.22-.69,3.18,3.18,0,0,1-.39-.46.41.41,0,0,1,0-.47A2,2,0,0,1,74.63,240.35Z"/><path class="cls-4" d="M76.72,240.72a1.55,1.55,0,0,0,.4-.56,3,3,0,0,0,.13-.5c0-.19,0-.29.09-.29a2.38,2.38,0,0,1,.53.11c.15.05.24.15.29.38a2.22,2.22,0,0,1,0,.59,2.2,2.2,0,0,1-.42,1.28c-.14.21-.37.42-.46.42s-.24-.12-.31-.29a4.9,4.9,0,0,1-.32-.88C76.66,240.88,76.65,240.78,76.72,240.72Z"/><polygon class="cls-2" points="28.23 204.01 29.21 211.52 37.24 206.86 28.23 204.01"/><path class="cls-3" d="M41,215.74c0-3.32-2-7.19-4.52-8.63a4.1,4.1,0,0,0-2-.55,5.52,5.52,0,0,0-2.89.81A4.16,4.16,0,0,0,30,210.25l5.08,10.43a3.86,3.86,0,0,0,3.32-.12,5.25,5.25,0,0,0,2-2,5.92,5.92,0,0,0,.37-.87A6.06,6.06,0,0,0,41,215.74Z"/><path class="cls-4" d="M29.83,211.71c0,3.32,2,7.19,4.52,8.63s4.52-.09,4.52-3.41-2-7.2-4.52-8.64S29.83,208.38,29.83,211.71Z"/><path class="cls-5" d="M30.71,212.25c0,2.63,1.6,5.69,3.57,6.83s3.57-.07,3.57-2.7-1.6-5.69-3.57-6.83S30.71,209.62,30.71,212.25Z"/><path class="cls-6" d="M34.16,210.1a7.69,7.69,0,0,1,3.21,6.13c0,2.36-1.44,3.45-3.21,2.43A7.68,7.68,0,0,1,31,212.52C31,210.16,32.38,209.07,34.16,210.1Zm.69.79a2.81,2.81,0,0,0-.68-.53A1.78,1.78,0,0,0,33,210a.54.54,0,0,0-.33.16c-.1.11-.08.24,0,.46a6.82,6.82,0,0,0,.41.72c.07.11.11.06.26.07a1.73,1.73,0,0,1,.43.08,2.64,2.64,0,0,1,.72.43c.1.08.15.05.19,0a1.93,1.93,0,0,0,.26-.58A.52.52,0,0,0,34.85,210.89Zm-2.4,2.5a4.09,4.09,0,0,0,1.71,3.27c.94.54,1.71,0,1.71-1.3a4.1,4.1,0,0,0-1.71-3.26C33.21,211.55,32.45,212.13,32.45,213.39Zm4.45,1a6.34,6.34,0,0,0-.67-1.75,4.9,4.9,0,0,0-.56-.85c-.16-.13-.24-.08-.29,0a2.47,2.47,0,0,0-.19.65.36.36,0,0,0,.08.31,7.12,7.12,0,0,1,.52.95,5.08,5.08,0,0,1,.22.66c.07.23.06.32.15.39a3.44,3.44,0,0,0,.55.34c.16.09.23.06.25-.14A2.33,2.33,0,0,0,36.9,214.38Zm-.71,4.06c.08,0,.32-.21.45-.42a2.11,2.11,0,0,0,.43-1.28,2.78,2.78,0,0,0,0-.59.41.41,0,0,0-.3-.37,2.31,2.31,0,0,0-.52-.12c-.09,0-.06.11-.1.29a1.88,1.88,0,0,1-.13.51,1.75,1.75,0,0,1-.39.56c-.08.06-.07.15,0,.26a7,7,0,0,0,.32.87C36,218.32,36,218.45,36.19,218.44Zm-3-.92a2.31,2.31,0,0,0,.39.47,2.44,2.44,0,0,0,1.22.69,1.16,1.16,0,0,0,.63,0c.11-.09.1-.24,0-.42a6.42,6.42,0,0,0-.37-.85c-.06-.1-.12-.17-.21-.18a1.8,1.8,0,0,1-.7-.16,3.16,3.16,0,0,1-.45-.3c-.16-.12-.21-.21-.27-.16a1.75,1.75,0,0,0-.31.42C33.1,217.19,33.1,217.32,33.23,217.52Zm-1.8-2.9a6,6,0,0,0,.78,1.7,2.43,2.43,0,0,0,.39.46c.15.14.23.1.28-.07a4.26,4.26,0,0,0,.14-.63c0-.11-.06-.16-.18-.38a5.88,5.88,0,0,1-.31-.61,6.33,6.33,0,0,1-.31-1,.37.37,0,0,0-.17-.27,2.61,2.61,0,0,0-.61-.33c-.12,0-.21,0-.23.17A4.6,4.6,0,0,0,31.43,214.62Zm0-1.62a2,2,0,0,0,.59.16c.07,0,.13,0,.13-.15a3.42,3.42,0,0,1,.14-.85,1.64,1.64,0,0,1,.23-.4c.08-.13.15-.13.11-.26a7.32,7.32,0,0,0-.26-.79c-.09-.23-.17-.33-.32-.32a.59.59,0,0,0-.33.17,2,2,0,0,0-.52,1.17,3.16,3.16,0,0,0-.05.88A.52.52,0,0,0,31.44,213Z"/><path class="cls-7" d="M34,212.75a3.32,3.32,0,0,1,1.4,2.66c0,1-.63,1.49-1.4,1.05a3.34,3.34,0,0,1-1.39-2.66C32.58,212.77,33.21,212.3,34,212.75Z"/><path class="cls-4" d="M36.71,215.12a3.44,3.44,0,0,1-.55-.34c-.09-.07-.08-.16-.15-.39a5.08,5.08,0,0,0-.22-.66,7.12,7.12,0,0,0-.52-.95.36.36,0,0,1-.08-.31,2.47,2.47,0,0,1,.19-.65c0-.12.13-.17.29,0a4.9,4.9,0,0,1,.56.85,6.34,6.34,0,0,1,.67,1.75,2.33,2.33,0,0,1,.06.6C36.94,215.18,36.87,215.21,36.71,215.12Z"/><path class="cls-4" d="M34.69,211.94c0,.06-.09.09-.19,0a2.64,2.64,0,0,0-.72-.43,1.73,1.73,0,0,0-.43-.08c-.15,0-.19,0-.26-.07a6.82,6.82,0,0,1-.41-.72c-.11-.22-.13-.35,0-.46A.54.54,0,0,1,33,210a1.78,1.78,0,0,1,1.19.33,2.81,2.81,0,0,1,.68.53.52.52,0,0,1,.1.47A1.93,1.93,0,0,1,34.69,211.94Z"/><path class="cls-4" d="M31.21,211.73a2,2,0,0,1,.52-1.17.59.59,0,0,1,.33-.17c.15,0,.23.09.32.32a7.32,7.32,0,0,1,.26.79c0,.13,0,.13-.11.26a1.64,1.64,0,0,0-.23.4,3.42,3.42,0,0,0-.14.85c0,.13-.06.16-.13.15a2,2,0,0,1-.59-.16.52.52,0,0,1-.28-.39A3.16,3.16,0,0,1,31.21,211.73Z"/><path class="cls-4" d="M31.44,213.45a2.61,2.61,0,0,1,.61.33.37.37,0,0,1,.17.27,6.33,6.33,0,0,0,.31,1,5.88,5.88,0,0,0,.31.61c.12.22.19.27.18.38a4.26,4.26,0,0,1-.14.63c-.05.17-.13.21-.28.07a2.43,2.43,0,0,1-.39-.46,6,6,0,0,1-.78-1.7,4.6,4.6,0,0,1-.22-1C31.23,213.43,31.32,213.4,31.44,213.45Z"/><path class="cls-4" d="M33.5,216.64c.06,0,.11,0,.27.16a3.16,3.16,0,0,0,.45.3,1.8,1.8,0,0,0,.7.16c.09,0,.15.08.21.18a6.42,6.42,0,0,1,.37.85c.07.18.08.33,0,.42a1.16,1.16,0,0,1-.63,0,2.44,2.44,0,0,1-1.22-.69,2.31,2.31,0,0,1-.39-.47c-.13-.2-.13-.33,0-.46A1.75,1.75,0,0,1,33.5,216.64Z"/><path class="cls-4" d="M35.59,217a1.75,1.75,0,0,0,.39-.56,1.88,1.88,0,0,0,.13-.51c0-.18,0-.29.1-.29a2.31,2.31,0,0,1,.52.12.41.41,0,0,1,.3.37,2.78,2.78,0,0,1,0,.59,2.11,2.11,0,0,1-.43,1.28c-.13.21-.37.42-.45.42s-.24-.12-.32-.29a7,7,0,0,1-.32-.87C35.52,217.17,35.51,217.08,35.59,217Z"/><path class="cls-7" d="M107.69,199s-.87-.57-.92-.59h0a.61.61,0,0,0-.6.07l-1,.58a2.36,2.36,0,0,0-1,1.88v4a.83.83,0,0,0,.38.8h0l.77.52.27-.83.58-.34a2.36,2.36,0,0,0,1-1.88v-2.58Z"/><path class="cls-2" d="M107,205.7l-1,.59c-.54.31-1,0-1-.74v-4a2.37,2.37,0,0,1,1-1.88l1-.59c.54-.31,1,0,1,.75v4A2.37,2.37,0,0,1,107,205.7Z"/><path class="cls-6" d="M114.15,216.93c-1.83-2.46-8-9.33-8-9.33l-5.06-15.84a8.49,8.49,0,0,0-3.88-4.86L51.42,160.6a.74.74,0,0,0-.8,0h0L24.85,175.57l54.71,55.61,10.6,15.51,25.71-14.88V221.15A8.5,8.5,0,0,0,114.15,216.93Z"/><polygon class="cls-8" points="76.18 204.99 81.61 221.75 105.11 208.25 99.68 191.49 76.18 204.99"/><path class="cls-9" d="M103.1,207.36c-10,2-22.26,12-22.26,12l.77,2.38,23.5-13.5-5.43-16.76-2.21,1.27S99.41,202.73,103.1,207.36Z"/><polygon class="cls-6" points="94.54 214.78 88.87 197.29 87.85 197.88 93.5 215.31 94.54 214.78"/><polygon class="cls-2" points="90.16 243.95 115.85 229.08 115.87 231.81 90.16 246.69 90.16 243.95 90.16 243.95"/><polygon class="cls-10" points="94.21 234.63 94.21 241.57 111.98 231.31 111.98 224.37 94.21 234.63"/><polygon class="cls-11" points="112.76 227.73 115.16 226.34 115.16 223.14 112.76 224.53 112.76 227.73"/><polygon class="cls-11" points="112.76 229.91 115.16 228.52 115.16 227.22 112.76 228.61 112.76 229.91"/><polygon class="cls-11" points="91.04 240.45 93.44 239.07 93.44 235.87 91.04 237.25 91.04 240.45"/><polygon class="cls-11" points="91.04 242.63 93.44 241.25 93.44 239.95 91.04 241.33 91.04 242.63"/><polygon class="cls-4" points="111.98 227.84 94.21 238.1 94.21 236.48 111.98 226.22 111.98 227.84"/><polygon class="cls-4" points="111.98 231.31 94.21 241.57 94.21 239.94 111.98 229.68 111.98 231.31"/><polygon class="cls-2" points="96.59 214.87 104.61 210.26 106.46 212.31 98.43 216.98 96.59 214.87"/><polygon class="cls-2" points="84.34 221.93 92.37 217.32 94.22 219.37 86.18 224.03 84.34 221.93"/><path class="cls-7" d="M90.16,246.69V236a8.59,8.59,0,0,0-1.72-4.22c-1.84-2.46-8-9.33-8-9.33l-5-15.84a8.53,8.53,0,0,0-3.89-4.85L25.7,175.49a.75.75,0,0,0-1.12.64v32.7l4.63,2.69c0-.1,0-.2,0-.3,0-4.29,2.61-6.26,5.83-4.4s5.83,6.84,5.83,11.14v.28l.86.48,28.61,16.52s0-.2,0-.29c0-4.3,2.61-6.27,5.83-4.41S82,237.39,82,241.68V242Z"/><path class="cls-12" d="M88.67,243.06a.86.86,0,0,0-1.31.74v1.28l2.8,1.61V244Z"/><polygon class="cls-2" points="55.56 195.54 55.56 226.71 67.91 233.84 67.91 202.66 55.56 195.54"/><path class="cls-2" d="M50.64,166.18a2.54,2.54,0,0,1,2.27-.1l35.41,20.46a1,1,0,0,1,.26.22.62.62,0,0,0-.26-.95L52.91,165.36a2.53,2.53,0,0,0-2.27.09c-.54.31-.68.76-.42,1.09A1.39,1.39,0,0,1,50.64,166.18Z"/><path class="cls-7" d="M50.48,166.76l35.41,20.46a2.57,2.57,0,0,0,2.27-.09,1.41,1.41,0,0,0,.42-.37,1,1,0,0,0-.26-.22L52.91,166.08a2.54,2.54,0,0,0-2.27.1,1.39,1.39,0,0,0-.42.36A1,1,0,0,0,50.48,166.76Z"/><path class="cls-2" d="M45.52,169.18a2.54,2.54,0,0,1,2.27-.1L83.2,189.54a.78.78,0,0,1,.25.22.61.61,0,0,0-.25-.95L47.79,168.36a2.5,2.5,0,0,0-2.27.09c-.55.31-.69.76-.42,1.09A1.17,1.17,0,0,1,45.52,169.18Z"/><path class="cls-7" d="M45.35,169.76l35.41,20.46a2.54,2.54,0,0,0,2.27-.1,1.28,1.28,0,0,0,.42-.36.78.78,0,0,0-.25-.22L47.79,169.08a2.54,2.54,0,0,0-2.27.1,1.17,1.17,0,0,0-.42.36A.78.78,0,0,0,45.35,169.76Z"/><path class="cls-2" d="M40.39,172.17a2.57,2.57,0,0,1,2.27-.09l35.41,20.46a1,1,0,0,1,.26.22.62.62,0,0,0-.26-.95L42.66,171.35a2.54,2.54,0,0,0-2.27.1c-.54.31-.68.75-.42,1.09A1.41,1.41,0,0,1,40.39,172.17Z"/><path class="cls-7" d="M40.23,172.76l35.41,20.46a2.54,2.54,0,0,0,2.27-.1,1.39,1.39,0,0,0,.42-.36,1,1,0,0,0-.26-.22L42.66,172.08a2.57,2.57,0,0,0-2.27.09,1.41,1.41,0,0,0-.42.37A1,1,0,0,0,40.23,172.76Z"/><path class="cls-2" d="M35.26,175.17a2.53,2.53,0,0,1,2.27-.09L73,195.54a.9.9,0,0,1,.25.21.61.61,0,0,0-.25-.94L37.53,174.35a2.54,2.54,0,0,0-2.27.1c-.54.31-.68.75-.41,1.09A1.36,1.36,0,0,1,35.26,175.17Z"/><path class="cls-7" d="M35.1,175.76l35.41,20.46a2.54,2.54,0,0,0,2.27-.1,1.19,1.19,0,0,0,.42-.37.9.9,0,0,0-.25-.21L37.53,175.08a2.53,2.53,0,0,0-2.27.09,1.36,1.36,0,0,0-.41.37A.92.92,0,0,0,35.1,175.76Z"/><polygon class="cls-8" points="56.76 209.97 66.67 215.69 66.67 203.28 56.76 197.55 56.76 209.97"/><path class="cls-8" d="M72.75,219.17l-3.4-2V203.32l.88.51A7.35,7.35,0,0,1,73.59,208l4.46,14.23-1.69-1Z"/><path class="cls-3" d="M59.46,214.42l-2.36-1.36a1.45,1.45,0,0,1-.59-1.14h0c0-.43.27-.64.59-.45l2.36,1.36a1.45,1.45,0,0,1,.59,1.14h0C60.05,214.41,59.78,214.61,59.46,214.42Z"/><path class="cls-3" d="M75.9,221.85s2.54.51,3.07.19a.88.88,0,0,0-.19-1.54,7.58,7.58,0,0,0-2.19,0Z"/><path class="cls-6" d="M76.8,217l-.91-.59h0a.63.63,0,0,0-.6.06l-1,.59a2.36,2.36,0,0,0-1,1.88v4a.83.83,0,0,0,.38.81h0l.77.52.27-.83.58-.34a2.36,2.36,0,0,0,1-1.88V218.7Z"/><path class="cls-2" d="M76.14,223.72l-1,.59c-.54.31-1,0-1-.75v-4a2.36,2.36,0,0,1,1-1.88l1-.59c.54-.31,1,0,1,.75v4A2.36,2.36,0,0,1,76.14,223.72Z"/><path class="cls-6" d="M77.62,199.56l17.89-10.33s-1,2.07-6.26,5.32A40.18,40.18,0,0,1,77.62,199.56Z"/><polygon class="cls-10" points="52.93 212.09 27.33 197.3 27.33 179.13 52.93 193.92 52.93 212.09"/><path class="cls-6" d="M29,188.32v-5.71l1.44.83v.75l-.79-.45v1.66l.75.43v.73l-.75-.43V188l.82.47v.75Z"/><path class="cls-6" d="M31,189.47v-5.71l.65.38v5l.82.48v.74Z"/><path class="cls-6" d="M32.86,190.53v-5.7l1.43.83v.74l-.78-.45v1.66l.74.43v.74l-.74-.43v1.81l.81.47v.75Z"/><path class="cls-6" d="M36.43,192.26c-.15.18-.38.18-.7,0a1.67,1.67,0,0,1-.71-.83,3.68,3.68,0,0,1-.23-1.36v-2.48c0-.85.16-1.29.5-1.31a1,1,0,0,1,.45.14,2.16,2.16,0,0,1,.9,2v.79l-.63-.37v-.73a2.73,2.73,0,0,0-.06-.66.46.46,0,0,0-.22-.31c-.11-.07-.18,0-.22.07a1.82,1.82,0,0,0-.07.58v2.66a2.9,2.9,0,0,0,.06.69.52.52,0,0,0,.23.33c.1.06.18,0,.22-.07a2.16,2.16,0,0,0,.06-.63V190l.64.37v.81A1.9,1.9,0,0,1,36.43,192.26Z"/><path class="cls-6" d="M37.4,193.16v-5l-.5-.29v-.75l1.63.94v.75l-.48-.27v4.95Z"/><path class="cls-6" d="M39.75,191.83l-.21-.13v2.69l-.65-.37v-5.71l1.07.62a1.38,1.38,0,0,1,.51.47,1.57,1.57,0,0,1,.21.63,5.22,5.22,0,0,1,.06.87,2.21,2.21,0,0,1-.09.75.25.25,0,0,1-.3.19,1,1,0,0,1,.31.57,9.6,9.6,0,0,1,.08,1.5,10.54,10.54,0,0,0,0,1.19l-.65-.38c0-.05,0-.73,0-2.06a1.43,1.43,0,0,0-.07-.54A.61.61,0,0,0,39.75,191.83Zm-.21-.81.26.15a.21.21,0,0,0,.19,0s.06-.1.08-.21,0-.29,0-.54v0a2.29,2.29,0,0,0-.06-.64.55.55,0,0,0-.27-.3l-.22-.13Z"/><path class="cls-6" d="M41.37,195.45v-5.71l.65.38v5.7Z"/><path class="cls-6" d="M44.27,196.79q-.23.27-.69,0a1.62,1.62,0,0,1-.71-.83,3.48,3.48,0,0,1-.24-1.36v-2.49c0-.84.17-1.28.5-1.3a.89.89,0,0,1,.45.14,2.16,2.16,0,0,1,.9,2v.79l-.63-.37v-.73a3.53,3.53,0,0,0-.05-.66.51.51,0,0,0-.22-.32c-.11-.06-.19,0-.23.08a1.87,1.87,0,0,0-.06.57V195a2.9,2.9,0,0,0,.06.69.48.48,0,0,0,.22.33c.11.06.18,0,.22-.07a2.16,2.16,0,0,0,.06-.63v-.82l.64.37v.81A1.82,1.82,0,0,1,44.27,196.79Z"/><path class="cls-8" d="M28.94,193.31v-.51l.61.35v.58a2.94,2.94,0,0,0,.06.7.58.58,0,0,0,.23.33c.12.06.19.05.23,0a1.71,1.71,0,0,0,.05-.49,2.15,2.15,0,0,0-.1-.68,3.36,3.36,0,0,0-.31-.74l-.31-.62a5.79,5.79,0,0,1-.35-.84,2.82,2.82,0,0,1-.12-.83,1.43,1.43,0,0,1,.21-.93c.13-.16.37-.13.7.06a1.4,1.4,0,0,1,.67.79,3.8,3.8,0,0,1,.18,1.27v.35l-.6-.35v-.4a3.17,3.17,0,0,0-.05-.63.49.49,0,0,0-.21-.3c-.1-.06-.17,0-.22,0a.77.77,0,0,0-.07.37,1.73,1.73,0,0,0,.07.48,5.33,5.33,0,0,0,.25.55l.35.71a6,6,0,0,1,.4,1,3.38,3.38,0,0,1,.14.93,1.86,1.86,0,0,1-.21,1.07c-.13.18-.37.17-.7,0a1.62,1.62,0,0,1-.71-.84A4,4,0,0,1,28.94,193.31Z"/><path class="cls-8" d="M31.22,196.23v-5.71l1.44.83v.75l-.79-.45v1.66l.75.43v.73l-.75-.43v1.82l.82.47v.75Z"/><path class="cls-8" d="M34.07,195.19l-.21-.13v2.69l-.65-.37v-5.71l1.07.62a1.38,1.38,0,0,1,.51.47,1.62,1.62,0,0,1,.21.63,5.3,5.3,0,0,1,.06.87A2.21,2.21,0,0,1,35,195a.25.25,0,0,1-.3.19,1,1,0,0,1,.31.57,9.6,9.6,0,0,1,.08,1.5,10.54,10.54,0,0,0,0,1.19l-.65-.37c0-.06,0-.74,0-2.06a1.45,1.45,0,0,0-.07-.55A.61.61,0,0,0,34.07,195.19Zm-.21-.8.26.15a.23.23,0,0,0,.19,0,.43.43,0,0,0,.08-.21c0-.11,0-.29,0-.54v0a2.29,2.29,0,0,0-.06-.64.55.55,0,0,0-.27-.3l-.22-.12Z"/><path class="cls-8" d="M36.05,199l-.67-6.09.62.35.28,2.74.18,1.92h0l.15-1.73.24-2.44.6.35-.61,5.35Z"/><path class="cls-8" d="M37.94,200.11V194.4l.65.38v5.71Z"/><path class="cls-8" d="M40.85,201.45c-.15.18-.38.18-.7,0a1.67,1.67,0,0,1-.71-.83,3.65,3.65,0,0,1-.23-1.36v-2.48c0-.85.16-1.29.5-1.3a.85.85,0,0,1,.45.14,2.14,2.14,0,0,1,.9,2v.78l-.63-.36v-.73a2.77,2.77,0,0,0-.06-.67.48.48,0,0,0-.22-.31c-.11-.07-.18,0-.22.07a1.57,1.57,0,0,0-.07.58v2.66a3.06,3.06,0,0,0,.06.7.49.49,0,0,0,.23.32c.1.06.18,0,.22-.07a2.16,2.16,0,0,0,.06-.63v-.82l.64.37v.81A1.88,1.88,0,0,1,40.85,201.45Z"/><path class="cls-8" d="M41.6,202.22v-5.71l1.43.83v.75l-.78-.45v1.66l.74.43v.73l-.74-.43v1.82l.81.47v.75Z"/><polygon class="cls-8" points="52.22 200.32 48.39 198.38 51.21 192.93 47.98 191.06 45.1 200.02 48.61 201.02 45.88 208.01 46.62 208.44 52.22 200.32"/><path class="cls-2" d="M48.35,74.47l-4.78-2.66a2.69,2.69,0,0,0-.29-.16h0a1.69,1.69,0,0,0-1.46.2L25.16,81.47a5.93,5.93,0,0,0-2.48,4.73v22.21c0,1.17.46,1.93,1.15,2.12l4.77,2.7,3.56-7,9.66-5.58a5.91,5.91,0,0,0,2.47-4.72V82.44Z"/><path class="cls-13" d="M46.81,103.44l-16.66,9.62c-1.36.79-2.47,0-2.47-1.87V89a6,6,0,0,1,2.47-4.73l16.66-9.62c1.37-.79,2.47.05,2.47,1.87V98.71A5.91,5.91,0,0,1,46.81,103.44Z"/><path class="cls-6" d="M44.52,102.86l-11.39,6.58c-1.5.86-2.72-.07-2.72-2.06V90.16A6.53,6.53,0,0,1,33.13,85l11.39-6.57c1.5-.87,2.72.06,2.72,2V97.67A6.51,6.51,0,0,1,44.52,102.86Z"/><path class="cls-14" d="M45.12,89.92c0-4.37-2.65-6.37-5.93-4.48s-5.94,7-5.94,11.34,2.66,6.38,5.94,4.48S45.12,94.29,45.12,89.92Z"/><path class="cls-15" d="M37.63,100.6c3.28-1.89,5.94-7,5.94-11.34a5.67,5.67,0,0,0-1.65-4.51,4.5,4.5,0,0,0-2.73.69c-3.28,1.89-5.94,7-5.94,11.34a5.67,5.67,0,0,0,1.65,4.51A4.48,4.48,0,0,0,37.63,100.6Z"/><path class="cls-14" d="M35.58,93.6a2,2,0,0,0-.82,1.58c0,.61.37.89.82.62a2,2,0,0,0,.83-1.58C36.41,93.62,36,93.34,35.58,93.6Z"/><path class="cls-14" d="M41.38,90.3a2,2,0,0,0-.83,1.58c0,.6.37.88.83.62a2,2,0,0,0,.83-1.58C42.21,90.31,41.84,90,41.38,90.3Z"/><path class="cls-14" d="M55,111.73a2,2,0,0,0-.82,1.58c0,.61.37.89.82.63a2,2,0,0,0,.83-1.58C55.83,111.75,55.46,111.47,55,111.73Z"/><path class="cls-14" d="M55.57,111.71l-8.52-4.92A1.26,1.26,0,0,0,45.79,109l8.68,5C54.65,113.53,55.41,112,55.57,111.71Z"/><path class="cls-14" d="M60.8,108.36a2,2,0,0,0-.83,1.58c0,.61.37.89.83.62a2,2,0,0,0,.83-1.58C61.63,108.38,61.26,108.1,60.8,108.36Z"/><path class="cls-14" d="M61.37,108.34l-8.52-4.92a1.26,1.26,0,0,0-1.26,2.18l8.67,5C60.45,110.15,61.2,108.66,61.37,108.34Z"/><path class="cls-15" d="M55.25,102.44c-3,1.76-5.52,6.49-5.52,10.55s2.47,5.94,5.52,4.18,5.53-6.49,5.53-10.55S58.3,100.68,55.25,102.44Z"/><polygon class="cls-15" points="58.56 102 51.49 117.37 53.77 118.69 60.78 103.28 58.56 102"/><path class="cls-7" d="M57,103.47C54,105.23,51.49,110,51.49,114S54,120,57,118.19s5.52-6.48,5.52-10.55S60.07,101.7,57,103.47Z"/><path class="cls-15" d="M52.07,115.09l5.63,3.25c2.37,1.37,6,1.52,8,.33l1.88-1.08c2-1.19,1.8-3.27-.57-4.64l-5.63-3.25-9.34,2.67Z"/><polygon class="cls-15" points="66.82 116.35 69 115.51 68.95 112.47 66.2 112.47 66.82 116.35"/><path class="cls-2" d="M52.07,112.37l5.63,3.25c2.37,1.37,6,1.52,8,.33l1.88-1.08c2-1.19,1.8-3.27-.57-4.64L61.41,107Z"/><path class="cls-14" d="M61.91,109.27l-5.47,3.16a.7.7,0,0,1-.63,0h0c-.19-.11-.21-.28-.05-.37l5.47-3.16a.69.69,0,0,1,.64,0h0C62.06,109,62.08,109.18,61.91,109.27Z"/><path class="cls-14" d="M63.61,110.25l-5.47,3.16a.73.73,0,0,1-.64,0h0c-.19-.11-.21-.27,0-.36l5.47-3.16a.67.67,0,0,1,.63,0h0C63.75,110,63.77,110.16,63.61,110.25Z"/><path class="cls-14" d="M65.3,111.23l-5.47,3.16a.7.7,0,0,1-.63,0h0c-.19-.11-.21-.27-.05-.37l5.47-3.15a.69.69,0,0,1,.64,0h0C65.44,111,65.47,111.14,65.3,111.23Z"/><path class="cls-14" d="M66.84,115.81a1.93,1.93,0,0,0-.8,1.53c0,.59.36.86.8.61a1.9,1.9,0,0,0,.8-1.53C67.64,115.83,67.29,115.56,66.84,115.81Z"/><path class="cls-14" d="M97.08,133.74A14.07,14.07,0,0,1,90,131.67L66.41,118l1-2.24,23.81,13.75c6.57,3.79,11.24.69,16.65-2.9l1.67-1.11c6.19-4,10.44-1.51,18.14,3l.54.31-1.09,2.2-.69-.41c-7.75-4.58-10.65-6.29-15.57-3.1l-1.65,1.09C105.45,131.18,101.6,133.74,97.08,133.74Z"/><path class="cls-16" d="M127.65,128.91a1.93,1.93,0,0,0-.8,1.53c0,.59.36.86.8.61a1.93,1.93,0,0,0,.8-1.53C128.45,128.93,128.09,128.66,127.65,128.91Z"/><polygon class="cls-17" points="125.4 202.41 119.15 198.98 119.15 99.12 125.4 102.56 125.4 202.41"/><polygon class="cls-18" points="186.68 167.03 125.4 202.41 125.4 102.56 186.68 67.17 186.68 167.03"/><polygon class="cls-19" points="119.15 99.12 125.4 102.56 186.68 67.17 180.44 63.74 119.15 99.12"/><path class="cls-17" d="M178.85,137.26l-7.7,4.44c-.5.29-.91,0-.91-.69v-2.19a2.19,2.19,0,0,1,.91-1.75l7.7-4.44c.5-.29.91,0,.91.69v2.19A2.22,2.22,0,0,1,178.85,137.26Z"/><path class="cls-17" d="M182.33,141.27l-7.7,4.44c-.5.29-.91,0-.91-.69v-2.19a2.19,2.19,0,0,1,.91-1.75l7.7-4.44c.5-.29.91,0,.91.69v2.19A2.22,2.22,0,0,1,182.33,141.27Z"/><path class="cls-17" d="M152.39,96.16l-7.7,4.45c-.5.29-.91,0-.91-.7V97.73a2.19,2.19,0,0,1,.91-1.75l7.7-4.45c.5-.29.91,0,.91.7v2.18A2.19,2.19,0,0,1,152.39,96.16Z"/><path class="cls-17" d="M155.86,100.17l-7.69,4.45c-.51.29-.92,0-.92-.7v-2.18a2.17,2.17,0,0,1,.92-1.75l7.69-4.45c.51-.29.92,0,.92.7v2.18A2.17,2.17,0,0,1,155.86,100.17Z"/><path class="cls-17" d="M175.2,133.4l-7.69,4.44c-.51.29-.92,0-.92-.69V135a2.2,2.2,0,0,1,.92-1.75l7.69-4.44c.51-.29.92,0,.92.69v2.19A2.19,2.19,0,0,1,175.2,133.4Z"/><path class="cls-17" d="M175.16,121.48l-7.69,4.44c-.51.29-.92,0-.92-.69V123a2.19,2.19,0,0,1,.92-1.75l7.69-4.44c.51-.29.92,0,.92.69v2.19A2.19,2.19,0,0,1,175.16,121.48Z"/><path class="cls-17" d="M178.64,125.49,171,129.93c-.51.29-.92,0-.92-.69v-2.19a2.19,2.19,0,0,1,.92-1.75l7.69-4.44c.51-.29.92,0,.92.69v2.19A2.19,2.19,0,0,1,178.64,125.49Z"/><path class="cls-17" d="M178.89,149.18l-7.7,4.44c-.5.29-.91,0-.91-.69v-2.19a2.19,2.19,0,0,1,.91-1.75l7.7-4.44c.5-.29.91,0,.91.69v2.19A2.22,2.22,0,0,1,178.89,149.18Z"/><path class="cls-17" d="M165.83,174.15l-7.69,4.44c-.51.29-.92,0-.92-.69v-2.19a2.19,2.19,0,0,1,.92-1.75l7.69-4.44c.51-.29.92,0,.92.69v2.19A2.19,2.19,0,0,1,165.83,174.15Z"/><path class="cls-17" d="M173.83,157.71l-7.69,4.44c-.51.29-.92,0-.92-.69v-2.19a2.19,2.19,0,0,1,.92-1.75l7.69-4.44c.5-.29.91,0,.91.69V156A2.21,2.21,0,0,1,173.83,157.71Z"/><path class="cls-17" d="M168.66,155.1,161,159.55c-.51.29-.92,0-.92-.7v-2.18a2.17,2.17,0,0,1,.92-1.75l7.69-4.44c.51-.3.92,0,.92.69v2.18A2.17,2.17,0,0,1,168.66,155.1Z"/><path class="cls-17" d="M178.89,160.58l-7.7,4.44c-.5.3-.91,0-.91-.69v-2.18a2.19,2.19,0,0,1,.91-1.75l7.7-4.45c.5-.29.91,0,.91.7v2.18A2.19,2.19,0,0,1,178.89,160.58Z"/><path class="cls-17" d="M183.83,163.46l-7.69,4.44c-.51.29-.92,0-.92-.69V165a2.19,2.19,0,0,1,.92-1.75l7.69-4.44c.51-.29.92,0,.92.69v2.19A2.19,2.19,0,0,1,183.83,163.46Z"/><path class="cls-17" d="M168.66,166.51,161,171c-.51.29-.92,0-.92-.69v-2.19a2.2,2.2,0,0,1,.92-1.75l7.69-4.44c.51-.29.92,0,.92.69v2.19A2.19,2.19,0,0,1,168.66,166.51Z"/><path class="cls-17" d="M138.49,191.25l-7.69,4.44c-.51.29-.92,0-.92-.69v-2.19a2.17,2.17,0,0,1,.92-1.75l7.69-4.44c.51-.29.92,0,.92.69v2.19A2.2,2.2,0,0,1,138.49,191.25Z"/><path class="cls-17" d="M142.12,183l-7.69,4.44c-.51.29-.92,0-.92-.69v-2.19a2.19,2.19,0,0,1,.92-1.75l7.69-4.44c.51-.29.92,0,.92.69v2.19A2.19,2.19,0,0,1,142.12,183Z"/><path class="cls-17" d="M138.49,178.39l-7.69,4.44c-.51.3-.92,0-.92-.69V180a2.17,2.17,0,0,1,.92-1.75l7.69-4.45c.51-.29.92,0,.92.7v2.18A2.17,2.17,0,0,1,138.49,178.39Z"/><path class="cls-17" d="M142.12,170.15l-7.69,4.44c-.51.3-.92,0-.92-.69v-2.18a2.17,2.17,0,0,1,.92-1.75l7.69-4.45c.51-.29.92,0,.92.7v2.18A2.17,2.17,0,0,1,142.12,170.15Z"/><path class="cls-17" d="M178.59,93.86,170.9,98.3c-.51.3-.92,0-.92-.69V95.43a2.17,2.17,0,0,1,.92-1.75l7.69-4.45c.51-.29.92,0,.92.7v2.18A2.17,2.17,0,0,1,178.59,93.86Z"/><path class="cls-17" d="M182.22,85.62l-7.69,4.45c-.51.29-.92,0-.92-.7V87.19a2.17,2.17,0,0,1,.92-1.75L182.22,81c.51-.29.92,0,.92.7v2.18A2.17,2.17,0,0,1,182.22,85.62Z"/><path class="cls-17" d="M152.43,108.08l-7.7,4.45c-.5.29-.91,0-.91-.7v-2.18a2.19,2.19,0,0,1,.91-1.75l7.7-4.44c.5-.3.91,0,.91.69v2.18A2.19,2.19,0,0,1,152.43,108.08Z"/><path class="cls-17" d="M141.45,114.39l-7.7,4.45c-.5.29-.91,0-.91-.7V116a2.19,2.19,0,0,1,.91-1.75l7.7-4.44c.5-.3.91,0,.91.69v2.19A2.19,2.19,0,0,1,141.45,114.39Z"/><polygon class="cls-12" points="146.28 154.33 164.81 143.63 164.81 110.97 146.28 121.67 146.28 154.33"/><polygon class="cls-20" points="147.04 152.97 163.99 143.11 163.99 112.44 147.04 122.3 147.04 152.97"/><polygon class="cls-21" points="158.16 115.83 158.24 139.59 163.99 143.11 163.99 112.44 158.16 115.83"/><polygon class="cls-20" points="146.28 154.33 146.28 121.67 139.59 117.63 139.59 150.29 146.28 154.33"/><polygon class="cls-2" points="164.81 110.97 158.13 106.93 139.59 117.63 146.28 121.67 164.81 110.97"/><polygon class="cls-2" points="163.99 143.11 158.24 139.59 147.04 146.05 147.04 152.97 163.99 143.11"/><path class="cls-22" d="M149.57,145a63.39,63.39,0,0,1-1.67-9.44l-.38,0a62.92,62.92,0,0,0,1.69,9.5,2.48,2.48,0,0,1-.18,2.06,3.45,3.45,0,0,1-2,1.31v.38a3.79,3.79,0,0,0,2.31-1.49A2.87,2.87,0,0,0,149.57,145Z"/><path class="cls-22" d="M151.86,133.51h-.38c0,.07.21,6.33.21,9.29s-2.38,3.89-4.65,3.93v.38c2.46-.05,5-1.19,5-4.31C152.06,139.85,151.86,133.58,151.86,133.51Z"/><path class="cls-22" d="M154.92,140a12.93,12.93,0,0,1-.5-2.36,33.75,33.75,0,0,1,.29-5.83l-.38,0a36.19,36.19,0,0,0-.28,5.91,14.38,14.38,0,0,0,.5,2.43c.42,1.52.77,2.83,0,3.44s-1.66,0-2.65-.63a9.21,9.21,0,0,0-1.57-.92,3.47,3.47,0,0,0-3.26.77v.5c.14-.13,1.67-1.5,3.12-.92a8.51,8.51,0,0,1,1.5.88,4.15,4.15,0,0,0,2.13,1,1.51,1.51,0,0,0,1-.34C155.75,143.05,155.35,141.56,154.92,140Z"/><path class="cls-22" d="M157.82,137.69c.57-1.88.44-7.25.43-7.48h-.37c0,.05.14,5.54-.42,7.36a8.62,8.62,0,0,0,.25,5.38.6.6,0,0,1,0,.51c-.25.49-1.24.79-2.39,1.15A13.9,13.9,0,0,0,152,146a11.05,11.05,0,0,0-2.64,2.6c-.82,1-1.53,1.87-2.28,2v.38c.91-.12,1.69-1.05,2.57-2.14a10.89,10.89,0,0,1,2.55-2.52,14.1,14.1,0,0,1,3.25-1.31c1.28-.39,2.29-.7,2.62-1.32a1,1,0,0,0,0-.8A8.31,8.31,0,0,1,157.82,137.69Z"/><polygon class="cls-22" points="162.51 115.1 161 114.18 147.04 122.3 147.04 124.03 162.51 115.1"/><polygon class="cls-6" points="147.04 124.03 147.04 128.94 162.51 120.01 162.51 115.09 147.04 124.03"/><polygon class="cls-23" points="160.17 118.95 160.17 120.69 161.99 119.64 161.99 117.9 160.17 118.95"/><polygon class="cls-23" points="157.13 120.7 157.13 122.44 158.94 121.4 158.94 119.66 157.13 120.7"/><polygon class="cls-23" points="154.16 122.48 154.16 124.22 155.97 123.17 155.97 121.44 154.16 122.48"/><polygon class="cls-23" points="151.11 124.24 151.11 125.97 152.92 124.93 152.92 123.19 151.11 124.24"/><polygon class="cls-23" points="147.85 126.08 147.85 127.82 149.66 126.77 149.66 125.04 147.85 126.08"/><polygon class="cls-24" points="159.5 116.83 159.5 121.75 159.75 121.61 159.75 116.69 159.5 116.83"/><polygon class="cls-24" points="156.46 118.59 156.46 123.5 156.7 123.36 156.7 118.45 156.46 118.59"/><polygon class="cls-24" points="153.42 120.34 153.42 125.26 153.66 125.12 153.66 120.21 153.42 120.34"/><polygon class="cls-24" points="150.38 122.1 150.38 127.02 150.62 126.88 150.62 121.96 150.38 122.1"/><polygon class="cls-25" points="147.04 125.17 147.04 125.72 162.51 116.79 162.51 116.24 147.04 125.17"/><polygon class="cls-10" points="160.79 124.19 158.09 122.56 147.04 128.94 147.04 132.13 160.79 124.19"/><polygon class="cls-26" points="159.5 123.42 158.09 122.56 147.04 128.94 147.04 130.62 159.5 123.42"/><polygon class="cls-27" points="147.04 132.13 147.04 137.04 160.79 129.11 160.79 124.19 147.04 132.13"/><polygon class="cls-22" points="158.28 126.3 158.28 128.12 160.32 126.95 160.32 125.12 158.28 126.3"/><polygon class="cls-25" points="158.28 128.62 158.28 129 160.32 127.82 160.32 127.44 158.28 128.62"/><polygon class="cls-25" points="158.28 129.34 158.28 129.72 160.32 128.54 160.32 128.16 158.28 129.34"/><polygon class="cls-22" points="154.66 128.35 154.66 130.17 156.7 129 156.7 127.17 154.66 128.35"/><polygon class="cls-25" points="154.66 130.67 154.66 131.04 156.7 129.87 156.7 129.49 154.66 130.67"/><polygon class="cls-25" points="154.66 131.39 154.66 131.77 156.7 130.59 156.7 130.21 154.66 131.39"/><polygon class="cls-22" points="151 130.57 151 132.4 153.04 131.22 153.04 129.39 151 130.57"/><polygon class="cls-25" points="151 132.89 151 133.27 153.04 132.09 153.04 131.71 151 132.89"/><polygon class="cls-25" points="151 133.61 151 133.99 153.04 132.81 153.04 132.44 151 133.61"/><polygon class="cls-22" points="147.43 132.56 147.43 134.39 149.47 133.21 149.47 131.39 147.43 132.56"/><polygon class="cls-25" points="147.43 134.88 147.43 135.26 149.47 134.08 149.47 133.71 147.43 134.88"/><polygon class="cls-25" points="147.43 135.6 147.43 135.98 149.47 134.81 149.47 134.43 147.43 135.6"/><polygon class="cls-28" points="157.3 126.21 157.3 131.12 157.59 130.96 157.59 126.04 157.3 126.21"/><polygon class="cls-28" points="153.66 128.28 153.66 133.2 153.95 133.03 153.95 128.12 153.66 128.28"/><polygon class="cls-28" points="149.99 130.44 149.99 135.35 150.28 135.19 150.28 130.28 149.99 130.44"/><path class="cls-22" d="M135.74,151.24a1.41,1.41,0,0,1-.67-.14c-1.77-.93-1.85-4.6-1.95-9.25,0-1.76-.08-3.6-.22-5.44a176.89,176.89,0,0,1,0-18c.13-3.93.25-7.32.09-9.35-.38-4.86.86-6.65,7-10.12,2.38-1.34,4-2.44,6-3.7,2.9-1.9,6.18-4,12.9-7.72,11.07-6.07,27.57-15.91,27.74-16a.18.18,0,0,1,.26.06.19.19,0,0,1-.07.26c-.16.1-16.67,9.94-27.75,16-6.71,3.67-10,5.81-12.87,7.7-1.95,1.27-3.63,2.37-6,3.72-6,3.4-7.19,5-6.82,9.77.16,2,0,5.44-.08,9.38a176.05,176.05,0,0,0,0,17.94c.14,1.86.18,3.69.22,5.47.1,4.34.18,8.09,1.76,8.92,1.12.59,4.53-1.51,5.74-2.36a.19.19,0,0,1,.26,0,.18.18,0,0,1,0,.26C140.8,149,137.55,151.24,135.74,151.24Z"/><path class="cls-22" d="M134.83,152.35a1.29,1.29,0,0,1-.73-.2c-1.91-1.23-1.92-7-1.93-13.11a82.07,82.07,0,0,0-.36-9.52c-.11-.81-.23-1.68-.36-2.6-1.07-7.66-2.53-18.16.62-20.87a123.3,123.3,0,0,1,17.83-12c2.43-1.3,4.93-2.94,7.57-4.67a81.45,81.45,0,0,1,13.18-7.51,108.6,108.6,0,0,0,15.93-8.45.19.19,0,0,1,.26,0,.19.19,0,0,1-.05.26,109.28,109.28,0,0,1-16,8.48,82.69,82.69,0,0,0-13.11,7.48c-2.65,1.74-5.16,3.38-7.6,4.69a121.66,121.66,0,0,0-17.77,12c-3,2.57-1.48,13.38-.48,20.53.12.92.25,1.79.35,2.6a81,81,0,0,1,.36,9.57c0,5.74,0,11.68,1.76,12.79,1.44.92,5.22-2.81,6.57-4.32a.19.19,0,0,1,.28.25C140.69,148.28,137,152.35,134.83,152.35Z"/><path class="cls-22" d="M134.56,151.17a2.32,2.32,0,0,1-1.63-.58c-1.4-1.28-1.5-4.6-1.22-9.18.22-3.49.07-10.62-.07-17.51-.13-6.26-.25-12.17,0-14,.35-3.21,1.2-3.69,4-5.28.54-.31,1.17-.66,1.88-1.09,2.25-1.35,4.55-3.76,6.77-6.09A38.92,38.92,0,0,1,150.17,92a25.55,25.55,0,0,1,8.66-3.45c1.15-.29,2.35-.6,3.63-1,2.82-.87,6.8-4.32,10.32-7.35a57.43,57.43,0,0,1,6.05-4.84c4.2-2.62,7.72-4.92,7.75-4.94a.19.19,0,0,1,.26,0,.19.19,0,0,1-.05.26s-3.56,2.33-7.76,5a56.18,56.18,0,0,0-6,4.8c-3.54,3.06-7.55,6.53-10.45,7.43-1.29.4-2.49.71-3.65,1a25.35,25.35,0,0,0-8.54,3.39,39.13,39.13,0,0,0-5.88,5.43c-2.24,2.35-4.55,4.78-6.85,6.15-.71.43-1.34.79-1.89,1.1-2.73,1.55-3.46,2-3.8,5-.2,1.8-.08,7.7,0,13.94.15,6.9.3,14,.08,17.54-.33,5.3,0,7.87,1.09,8.88a2.22,2.22,0,0,0,1.95.44c3-.48,5-4.07,5-4.1a.18.18,0,0,1,.25-.08.19.19,0,0,1,.08.26c-.08.15-2.09,3.78-5.31,4.29A3.48,3.48,0,0,1,134.56,151.17Z"/><polygon class="cls-10" points="134.34 142.54 130.74 144.62 130.74 142.65 134.34 140.57 134.34 142.54"/><polygon class="cls-10" points="133.96 121.38 130.35 123.46 130.35 121.49 133.96 119.41 133.96 121.38"/><polygon class="cls-10" points="160.07 90.5 158.61 91.34 158.61 86.3 160.07 85.46 160.07 90.5"/><polygon class="cls-10" points="135.91 105.78 134.45 106.63 134.45 101.59 135.91 100.75 135.91 105.78"/><polygon class="cls-10" points="182.18 77.38 180.73 78.22 180.73 73.19 182.18 72.34 182.18 77.38"/><path class="cls-25" d="M173.24,186.89c.12,1.93.58,4.54-.17,4.57-1.3-.45-2.53-1.16-3.65-.48a2.3,2.3,0,0,0-1,2.84,6.14,6.14,0,0,0,2.16,1.76,15.51,15.51,0,0,0,3.92,1.17,3.51,3.51,0,0,0,3.21.49c1-.52,1.5-1,1.2-2.06-.49-1.84-.25-1.94.39-5C179.68,188.47,173.14,185.33,173.24,186.89Z"/><path class="cls-25" d="M172.66,183.55c.51-.94,2.18-.9,4.28-.24s2.87,1,2.9,1.59.3,2.28-2.31,2.1-4.55-1.62-4.72-2.21A4.67,4.67,0,0,1,172.66,183.55Z"/><path class="cls-11" d="M179.81,132.48A2.3,2.3,0,0,1,181,131h0a4.21,4.21,0,0,1,6.56,1.89c.91,2.33-.09,4.73-.91,7-.47,1.3.1,3.36-.75,4.46s-7.38-2.34-7.48-5.75A26.75,26.75,0,0,1,179.81,132.48Z"/><path class="cls-29" d="M179.53,126.76c.59,1.43,3.32,6.71,3.32,6.71l-6.23,3.12a26.12,26.12,0,0,0-1.43-7.37C174,126.26,179.53,126.76,179.53,126.76Z"/><path class="cls-25" d="M193.54,186a21.94,21.94,0,0,0-.74-9.63,11.59,11.59,0,0,0-6.25,1.76c.49,1.74.66,2.22,1,3.48.18.71.38,1.41.62,2.11.35,1.05.26,1.07-.83,1-1.65,0-3.17.27-3.18,2.11a4.53,4.53,0,0,0,1.49,2,5.19,5.19,0,0,0,4.73.51c.8.69,2.69.08,3.81-1C194.53,188.1,193.94,186.42,193.54,186Z"/><path class="cls-30" d="M176.23,151.24c.41-1.06.6-1.41,1.73-1.48s2.34.17,3.52.07a18.83,18.83,0,0,0,5-1.26c.66-.24,1.69,3.08,1.88,4.72a15,15,0,0,1-.36,5.23c.88,2.15,1.61,6.13.42,9.06a27.83,27.83,0,0,1,4.72,8c1.23,3.44,1.06,7.6,1.09,8.76.09,1.92-5,1.7-6.43,0-1.14-3.93-5.8-12.95-6.75-14.68-1.31-2.39-1.84-4.08-3.07-6.51-.94-1.88-2.22-3.83-2.56-5.93A12.53,12.53,0,0,1,176.23,151.24Z"/><path class="cls-31" d="M173.23,135.85s-2.22-2.4-3.1-3.26-2.67-1.23-3.65-1.62-.86,0-.81.16.35.32.35.32-.81-.12-.87.28a.28.28,0,0,0,.34.35.48.48,0,0,0-.21.51c.06.36,1.1.61,1.1.61s-1.07.22-.71.59a4.16,4.16,0,0,0,1.6.59,9.59,9.59,0,0,1,1.13,1.06c.65.69,2.37,1.88,3.08,1.6A8.43,8.43,0,0,0,173.23,135.85Z"/><path class="cls-23" d="M174.18,154c.64-1.17,9.78-2.1,9.66-2,.45,1.81,3,6.75-.84,8.8-.13.79-2.68,10-4.37,13.06.38,2,1,2.58.27,5.18a15.55,15.55,0,0,1,1,4.8c.16,4-.53,8.75-1,9.43-1.14,1.52-5.65.91-5.76-1.8-.21-2.2-2.44-18-2.75-22.24C171.39,162.73,172.23,157.6,174.18,154Z"/><path class="cls-30" d="M185.91,153.72s-1.29,2.11-5.58,2.63a9.38,9.38,0,0,1-6.64-1.32l.49-1s4.68,1.06,7.59-.11a37.21,37.21,0,0,1,3.84-1.42Z"/><path class="cls-30" d="M173,151.47c-.36-.73,2-1.32,2-1.32l.62,1.69S173.69,152.85,173,151.47Z"/><path class="cls-32" d="M173.14,135.73c.9-.56,9.57-5.16,10.37-4.74,2.08,1.11,3.48,4.94,3.71,7.35.14,1.56-.05,8.83.09,10.12.19.31.67,1.1.11,1.53.71.72.2,1.1-.51,1.85s-5.27,3.2-7.36,3.2c-2.92,0-4.86,0-5.62-.6-.53-.4-.26-1.23.21-1.63-.27-1.53-2.12-4-2.38-5.38-.53-2.93-1.36-5-1.51-8C170.13,137.07,171.45,136.8,173.14,135.73Z"/><path class="cls-11" d="M182.85,131.15s-.17.58-1.81,1.42a30.78,30.78,0,0,1-4.74,1.67v-.35a38.74,38.74,0,0,1,3.5-2c1.77-.88,2.33-.79,2.33-.79Z"/><path class="cls-31" d="M172.93,125.05c.36-1.77,1.17-3.27,2.91-3.69a4.68,4.68,0,0,1,4.61,1.68c1.35,1.68.94,3.52-.25,5.15a8.29,8.29,0,0,1-2.52,2.22c-1,.51-2.88,1.27-4-.26A6.85,6.85,0,0,1,172.93,125.05Z"/><path class="cls-25" d="M173.18,122.25c.61-.11.37-.67.92-1a6.7,6.7,0,0,1,4.38-.58c2.76.58,4.4,2,3.31,4.19.21,1.13-.72,4-.49,5.55a3.16,3.16,0,0,1-4-2.47c-1.13.19-3.22-2-2.66-3C172.55,125.46,172.47,122.37,173.18,122.25Z"/><path class="cls-31" d="M174.29,126.33s.88-1.19,1.65.29c.63,1.23-.94,1.68-.94,1.68Z"/><path class="cls-30" d="M176.56,124.53s-2.05,1.83-5.29-.28-.39-4.39,1.86-4.1a6.58,6.58,0,0,1,3.43,1.34Z"/><path class="cls-23" d="M173.18,122.25c.26-2.88,4.38-4.5,7.53-2.28,1.72,1.21,2.66,3.8,1,6.55C181.32,127.63,173.87,127.26,173.18,122.25Z"/><path class="cls-30" d="M178.85,119.64c-.11.22.14.56.56.76s.83.18.94-.05-.14-.56-.55-.76S179,119.41,178.85,119.64Z"/><path class="cls-31" d="M167.86,137.92a1.67,1.67,0,0,1-.55,2c-.6.43-2.35,0-1.92-1.14-.44-.34-.06-.76.11-1.21-.18-.63.21-1.21.61-1.13C167.24,136.65,167.63,137,167.86,137.92Z"/><path class="cls-30" d="M177.69,174.45a3.26,3.26,0,0,1-2,.5,2.11,2.11,0,0,1-1.38-.72,8.06,8.06,0,0,1,1.7,0C176.64,174.34,177.69,174.45,177.69,174.45Z"/><path class="cls-30" d="M177.31,173.54a9.61,9.61,0,0,0-2.06-1.15c-.65-.15-1.15-.24-1.15-.24a11.35,11.35,0,0,0,1.44,1A6.88,6.88,0,0,0,177.31,173.54Z"/><path class="cls-23" d="M186.63,139.18l1.13,3.82s0,4.16-.18,5.56c.22.53.59.65.18,1.27.85,0,.56.86.16,1.53a7.81,7.81,0,0,1-3.38,2.8c-1.35.72-5.8,1.81-7.51,1.38s-3.8-.92-3.65-1.74a4.53,4.53,0,0,0,.12-1.08l-.52-1.25a5.32,5.32,0,0,0,4.05-.31c1.35-.65,3.81-3.72,3.15-8.78A32.5,32.5,0,0,0,186.63,139.18Z"/><path class="cls-23" d="M181.63,142.91a46.41,46.41,0,0,0-2.24-6.32c-1.07-2.08-2.31-3-3.06-2.88a1.67,1.67,0,0,0-1.32,1,2.56,2.56,0,0,1,2.44,1.19c1.2,1.48,2.8,6.47,2.82,7.45S181.63,142.91,181.63,142.91Z"/><path class="cls-23" d="M181.78,131.38a6.24,6.24,0,0,1,2.14,3c.62,1.45,1.92,6,1.92,6l.93-.65a45,45,0,0,0-1.77-5.51c-.94-2.19-1.73-2.94-2.35-3.33a1.08,1.08,0,0,0-1.08.08A2.09,2.09,0,0,0,181.78,131.38Z"/><path class="cls-30" d="M181,153.75a6.31,6.31,0,0,1-2.72.72,6.8,6.8,0,0,1-2.53-.68,11.32,11.32,0,0,1,2.35-.11A26.51,26.51,0,0,0,181,153.75Z"/><path class="cls-31" d="M170.82,137.75a53.86,53.86,0,0,0-6.27-1.87,6.23,6.23,0,0,0-1.5-2.43,13.73,13.73,0,0,1-1.39-2.38,3.45,3.45,0,0,0-2.19.83,11.37,11.37,0,0,0,.49,3.3c1,2.58,1,3.1,1.87,4,.13.52,0,.6.9.89a14.51,14.51,0,0,0,5.1,2.47,29.29,29.29,0,0,1,4.39,2l.55-5.33A6.19,6.19,0,0,0,170.82,137.75Z"/><path class="cls-11" d="M168.33,135.92c1,.09,1.78.25,2,.69,1.59-.81,3.33-1.26,4.68,0,2.06,1.91,2.58,6.93.24,9-1.54,1.38-2.82,1-4.63-1.05-.72-.29-1.57-1.1-3.13-1.81A5.18,5.18,0,0,1,168.33,135.92Z"/><path class="cls-31" d="M161.11,133.2a7,7,0,0,0,.55-2.13c0-.89-.28-4.16-.27-4.92s-.61-.39-.64.19.1,1.4-.22,1.54-1.51-.51-1.54-1.73a2.38,2.38,0,0,0-1.15-2.11c-.29,0,0,.68,0,.68s-.22.09-.33.55a3.35,3.35,0,0,0,0,1.1,5,5,0,0,0-.5,1.93c0,.95,1.76,2.85,2.46,3.89A2,2,0,0,0,161.11,133.2Z"/><polygon class="cls-2" points="164.81 132.38 146.28 121.67 146.77 121.43 165.31 132.13 164.81 132.38"/><polygon class="cls-33" points="164.81 165.04 146.28 154.33 146.28 121.67 164.81 132.38 164.81 165.04"/><polygon class="cls-12" points="164.81 132.38 165.31 132.13 165.31 164.79 164.81 165.04 164.81 132.38"/><polygon class="cls-34" points="161.33 153 149.76 146.32 149.76 129.66 161.33 136.34 161.33 153"/><path class="cls-6" d="M161.52,153.32l-12-6.9V129.33l12,6.9ZM150,146.21l11.19,6.46V136.45L150,130Z"/><polygon class="cls-25" points="155.06 135.02 153.37 140.44 155.49 141.67 154.13 146.59 157.72 141.23 155.61 140.01 157.02 136.16 155.06 135.02"/><path class="cls-35" d="M133.48,202.75l1.26,9a1.43,1.43,0,0,0,.81,1.21L146,219a3.05,3.05,0,0,0,1.47.37,2.36,2.36,0,0,0,1.19-.29l16.4-9.47a1.21,1.21,0,0,0,.67-1.06l.63-9.84Z"/><path class="cls-36" d="M167.17,198.12h-.78l-.11-.08-11.47-6.63a3.31,3.31,0,0,0-1.61-.4,2.68,2.68,0,0,0-1.32.31l-18.06,10.43-.1.07h-.63v1.09a1.59,1.59,0,0,0,.89,1.34l11.47,6.62a3.33,3.33,0,0,0,1.62.41,2.57,2.57,0,0,0,1.31-.32l18.06-10.42a1.36,1.36,0,0,0,.74-1.17C167.18,199.32,167.17,198.12,167.17,198.12Z"/><path class="cls-35" d="M147.07,210.08a3.33,3.33,0,0,1-1.62-.41L134,203a1.56,1.56,0,0,1-.89-1.33,1.33,1.33,0,0,1,.73-1.16l18.06-10.43a2.58,2.58,0,0,1,1.32-.31,3.31,3.31,0,0,1,1.61.4l11.47,6.63a1.59,1.59,0,0,1,.9,1.33,1.36,1.36,0,0,1-.74,1.17l-18.06,10.42A2.57,2.57,0,0,1,147.07,210.08Z"/><path class="cls-36" d="M134.17,201.71l18.06-10.43a2.48,2.48,0,0,1,2.23.1L165.93,198a1.2,1.2,0,0,1,.47.45c.19-.32,0-.72-.47-1l-11.47-6.62a2.52,2.52,0,0,0-2.23-.1l-18.06,10.43a.6.6,0,0,0-.31.84A1,1,0,0,1,134.17,201.71Z"/><path class="cls-37" d="M134.33,202.44l11.47,6.62a2.47,2.47,0,0,0,2.24.1l18.05-10.43a.86.86,0,0,0,.31-.28,1.2,1.2,0,0,0-.47-.45l-11.47-6.62a2.48,2.48,0,0,0-2.23-.1l-18.06,10.43a1,1,0,0,0-.31.28A1.2,1.2,0,0,0,134.33,202.44Z"/><path class="cls-36" d="M160,199.77l.26.16a2.76,2.76,0,0,0,2.45.1c.63-.36.55-1-.18-1.42l-.26-.15Z"/><path class="cls-38" d="M163.77,197h-.2a1.83,1.83,0,0,0-.48-.41L155.27,192a3.09,3.09,0,0,0-2.77-.11L148.9,194l-.24.18h-.24v.53h0a1.1,1.1,0,0,0,.67.89l7.81,4.52a3.11,3.11,0,0,0,2.78.11l3.6-2.08a.8.8,0,0,0,.47-.66h0Z"/><path class="cls-7" d="M163.29,197.7l-3.6,2.07a3.08,3.08,0,0,1-2.78-.11l-7.81-4.51c-.82-.48-.91-1.19-.2-1.6l3.6-2.08a3.09,3.09,0,0,1,2.77.11l7.82,4.52C163.91,196.57,164,197.29,163.29,197.7Z"/><path class="cls-39" d="M149.57,194l3.06-1.76a2.6,2.6,0,0,1,2.36.1l7.34,4.23a1.11,1.11,0,0,1,.53.58c.12-.32-.06-.69-.53-1L155,191.94a2.63,2.63,0,0,0-2.36-.09l-3.06,1.76a.65.65,0,0,0-.36.79A.81.81,0,0,1,149.57,194Z"/><path class="cls-38" d="M149.74,195l7.34,4.24a2.63,2.63,0,0,0,2.36.09l3.06-1.76a.76.76,0,0,0,.36-.4,1.11,1.11,0,0,0-.53-.58L155,192.33a2.6,2.6,0,0,0-2.36-.1L149.57,194a.81.81,0,0,0-.36.41A1.18,1.18,0,0,0,149.74,195Z"/><path class="cls-36" d="M148.62,200.45h-.54v.13l-.79-.46a.48.48,0,0,0-.42,0l-.22.12v-.11h-.53v.48h0a.13.13,0,0,0,.07.12l1.26.73a.48.48,0,0,0,.42,0l.64-.37c.08-.05.11-.11.1-.16h0Z"/><path class="cls-35" d="M147.45,201l-1.26-.72c-.1-.06-.09-.17,0-.24l.65-.38a.45.45,0,0,1,.42,0l1.25.72c.11.06.1.17,0,.24l-.64.38A.48.48,0,0,1,147.45,201Z"/><path class="cls-36" d="M152.83,198h-.53v.13l-.8-.46a.46.46,0,0,0-.41,0l-.22.12v-.11h-.53v.48h0a.1.1,0,0,0,.07.12l1.26.73a.46.46,0,0,0,.41,0l.65-.37a.15.15,0,0,0,.09-.16h0Z"/><path class="cls-35" d="M151.67,198.56l-1.26-.72c-.11-.07-.09-.17,0-.24l.65-.38a.46.46,0,0,1,.41,0l1.26.73c.11.06.09.17,0,.24l-.65.37A.46.46,0,0,1,151.67,198.56Z"/><path class="cls-40" d="M152,194.89l-.85-.47h0a.43.43,0,0,0-.46,0l-3.31,1.91a1.68,1.68,0,0,0-.69,1.33v2.59l.86.5v-2.05a12.33,12.33,0,0,1,.7-1.62l2.67-1.44c0,.57,0,2.2,0,2.2l.46-.27.85.47v-2.32Z"/><polygon class="cls-41" points="151.79 198.34 150.94 197.87 150.93 195.67 151.79 195.42 151.99 196.46 151.79 198.34"/><path class="cls-42" d="M147.56,198.17v2.61l.46-.27s0-1.8,0-2.24a1,1,0,0,1,.22-.7c.23-.33.51-.28,1-.45a3.07,3.07,0,0,0,.67-.28,3.77,3.77,0,0,0,.66-.49c.49-.39.77-.76,1-.71s.21.11.22.46,0,2.24,0,2.24l.46-.27v-2.61c0-.52-.31-.75-.69-.53l-3.31,1.91A1.66,1.66,0,0,0,147.56,198.17Z"/><path class="cls-36" d="M147.28,207.19l.26.15a2.73,2.73,0,0,0,2.45.1c.62-.36.55-1-.18-1.41l-.26-.16Z"/><path class="cls-38" d="M151.05,204.37h-.2a1.52,1.52,0,0,0-.48-.41l-7.82-4.51a3.06,3.06,0,0,0-2.77-.12l-3.6,2.08a1.08,1.08,0,0,0-.24.18h-.24v.52h0a1.11,1.11,0,0,0,.67.9l7.81,4.51a3.08,3.08,0,0,0,2.78.12l3.6-2.08a.85.85,0,0,0,.47-.67h0Z"/><path class="cls-7" d="M150.57,205.11l-3.6,2.08a3.08,3.08,0,0,1-2.78-.12l-7.81-4.51c-.82-.47-.91-1.19-.2-1.6l3.6-2.08a3.06,3.06,0,0,1,2.77.12l7.82,4.51C151.19,204,151.28,204.7,150.57,205.11Z"/><path class="cls-39" d="M136.85,201.41l3.06-1.77a2.66,2.66,0,0,1,2.36.1l7.34,4.24a1.09,1.09,0,0,1,.53.57c.12-.32-.06-.68-.53-1l-7.34-4.23a2.63,2.63,0,0,0-2.36-.1L136.85,201a.63.63,0,0,0-.36.78A.76.76,0,0,1,136.85,201.41Z"/><path class="cls-38" d="M137,202.39l7.34,4.23a2.6,2.6,0,0,0,2.36.1l3.06-1.77a.76.76,0,0,0,.36-.4,1.09,1.09,0,0,0-.53-.57l-7.34-4.24a2.66,2.66,0,0,0-2.36-.1l-3.06,1.77a.76.76,0,0,0-.36.4A1.11,1.11,0,0,0,137,202.39Z"/><path class="cls-39" d="M162.89,203.6a.88.88,0,0,1,.1.43v3.81a1.84,1.84,0,0,1-.77,1.46l-10.41,6a.73.73,0,0,1-.26.09.45.45,0,0,0,.67.15l10.41-6a1.84,1.84,0,0,0,.77-1.46v-3.82C163.4,203.82,163.18,203.57,162.89,203.6Z"/><path class="cls-38" d="M162.22,209.3a1.84,1.84,0,0,0,.77-1.46V204a.88.88,0,0,0-.1-.43.7.7,0,0,0-.26.08l-10.41,6a1.85,1.85,0,0,0-.76,1.47V215a.91.91,0,0,0,.09.43.73.73,0,0,0,.26-.09Z"/><path class="cls-25" d="M220.62,172.66h-5.89c0,.87.08,1.6.14,2a2.3,2.3,0,0,1-1.24,2.54c-.82.56-3,1.71-3.12,3.33s.6,2.32,2.76,2.88c1.18.31,2.51-.44,3.55-1.32s2.35-2.55,2.35-3.13c1.69-.62,1.72-1.58,1-4.17A14.31,14.31,0,0,0,220.62,172.66Z"/><path class="cls-25" d="M222.28,157.45l-2.6,3c.48.73.89,1.33,1.12,1.61a2.29,2.29,0,0,1,.24,2.82c-.41.9-1.67,3-1,4.46s1.71,1.67,3.85,1c1.17-.34,1.93-1.66,2.37-2.95s.71-3.4.41-3.9c1.14-1.4.66-2.24-1.24-4.11C225.27,158.76,222.56,158.1,222.28,157.45Z"/><path class="cls-31" d="M207.28,114.85s.64,3.43.88,5.8c.21-.25,2.62-4.16,2.62-4.16l3.37,2.81a18.08,18.08,0,0,1-2,3.19,16.34,16.34,0,0,1-4,3.67,2.06,2.06,0,0,1-2-.51,5.68,5.68,0,0,1-2.05-4.59,20.52,20.52,0,0,1,.59-6.21Z"/><path class="cls-43" d="M215.36,121.85a11.16,11.16,0,0,1-6.46-4.74,15.09,15.09,0,0,1,1.88-2c1.19-4.48,4-5,5.33-4.3,2.56,1.25,3,4.09,1.93,6.46A38.36,38.36,0,0,1,215.36,121.85Z"/><path class="cls-12" d="M212.64,145c-2,0-3.82-1.26-5-3.58a7.71,7.71,0,0,1-.65-2.23,6,6,0,0,1-1-1.64c-1.86-4.82-.1-15.69,1.93-21.05,1.38-3.64,3.3-5.09,4.9-5.63,1.81-1.61,3.24-1.6,4.13-1.32a3.89,3.89,0,0,1,2.42,2.93,36.43,36.43,0,0,1,.48,4.13c1.33,7.16,1.24,18-.25,22.2-1.28,3.57-3.89,6-6.66,6.18Zm-5.18-5.31a6.4,6.4,0,0,0,.51,1.55c1.19,2.3,3,3.5,5,3.36,2.61-.17,5.09-2.49,6.32-5.92s1.47-11.16.83-17.62c.16,5.86-.11,13-1.63,16.48a6.6,6.6,0,0,1-6.32,4.06A7.08,7.08,0,0,1,207.46,139.69Zm-.13-.69a6.59,6.59,0,0,0,4.83,2.21,6.14,6.14,0,0,0,6-3.82c1.92-4.34,1.83-14.57,1.4-20.61-.64-3.43-1.57-6-2.76-6.43a1.91,1.91,0,0,0-1.81.21l-.05,0a3.82,3.82,0,0,1,.94.16l-.12.36a4,4,0,0,0-1.26-.16c-2.51,2.34-4.26,9.7-4.54,14.28l0,.45c-.35,5.67-.74,12.1,2.07,13.69l-.19.33c-3-1.7-2.63-8-2.26-14l0-.45c.27-4.55,1.9-11.49,4.34-14.21a4.89,4.89,0,0,0-.77.17C209.47,114.41,206.18,131.65,207.33,139Zm4.95-27.51c-1.34.68-2.83,2.13-4,5.15-2,5.3-3.76,16-1.93,20.78a5.32,5.32,0,0,0,.5,1C206.07,131,208.94,115.79,212.28,111.49Zm3.77-1.67a2.29,2.29,0,0,1,.84.17c1,.37,1.74,1.81,2.34,3.88-.07-.56-.14-1-.2-1.31a3.52,3.52,0,0,0-2.17-2.64,3.48,3.48,0,0,0-3.13.73c.19,0,.37,0,.54-.05a3.61,3.61,0,0,1,.46-.36A2.44,2.44,0,0,1,216.05,109.82Z"/><path class="cls-30" d="M208.72,150.57c0,.87-.63,3.82.83,4.88,2.54,1.39,4.91-.15,7.71-.9a9.31,9.31,0,0,0,1.68-2.14c3.09-5.21,3.16-11.66,2.16-17.45a.57.57,0,0,0-.49-.49c-1.75-.15-7.44-3.52-7.44-3.52C207.61,134.42,208.78,149.1,208.72,150.57Z"/><path class="cls-30" d="M209.55,155.45l.28.38c.69.88,4.44,5.41,6.95,8.42,1.4,1.67,1.73,2.71,2.56,2.78,2.84.24,4.17-2.62,4.16-3.94,0-2.3-4.13-8.75-6.48-11.25A14.63,14.63,0,0,1,209.55,155.45Z"/><path class="cls-23" d="M216.77,142c-1.53-1.67-1.57-4.14-.28-8.4,2-1.89,8.07,1.27,10.43,1.83,1.76,2.2.59,5-.64,7.7,0,2.71-.62,6.46-1.1,10.59-.12,1-.89,4.18-2.09,4.87.33,1.73,1.43,4.31.41,8-1,3.43-2.49,7.36-3,8.65-1.48.52-4.82,1.22-6.37-1,0-3,0-10.9,0-18.61C213.67,154.26,216.47,145.75,216.77,142Z"/><path class="cls-30" d="M227.11,135.7l.33.87a7.36,7.36,0,0,1-4.7,2.26,16.91,16.91,0,0,1-7.64-.65,3.79,3.79,0,0,1-1.93-2s7.57,1.29,9.57.73Z"/><path class="cls-30" d="M227.44,133.57c-.27-1.47-2.26-1.57-2.26-1.57l-.78,2.73S227.83,135.71,227.44,133.57Z"/><path class="cls-6" d="M212.56,133.46c-.8-1.35-.28-6.42.17-8.63-1-3.65-1.35-6.33-.6-9.29.46-1.84,2.14-4,4.41-4.08,1.1,0,4.84,1.5,5.54,1.89a13,13,0,0,1,6.58,4.36c.25.26-.73,8.83-1.22,10.44-.57,1.87-.25,4.74-.68,6.49.21,1.7-5,2.7-6.55,2.7C214.93,137.37,213.65,135.9,212.56,133.46Z"/><path class="cls-43" d="M225.18,132a4.17,4.17,0,0,1-2.84.24,6.08,6.08,0,0,1-2.53-1.31s2.06.67,3,.84S225.18,132,225.18,132Z"/><path class="cls-43" d="M223.94,114a3.26,3.26,0,0,1-2.27,2.45c-3.08,1.06-5.26-.4-5.85-2s1.3-3,1.3-3A16.25,16.25,0,0,1,223.94,114Z"/><path class="cls-23" d="M227.44,133.57,228,135a16.67,16.67,0,0,1-4.63,2.35c-3.4,1.27-7.18.54-8.85-.94s-2.7-2.42-2.81-3.77a29.59,29.59,0,0,1,.21-5.8c.28-2.14.77-7.8.77-7.8a13.13,13.13,0,0,0,3.8,1.73,22.66,22.66,0,0,0,4.26.81s-.12,5.26.49,7.55c.45,1.67,1.11,3.37,2.93,4.28A3.69,3.69,0,0,0,227.44,133.57Z"/><path class="cls-30" d="M219.28,123.05a15.85,15.85,0,0,1-3.48-.64,13.58,13.58,0,0,1-2.3-.88A18.86,18.86,0,0,0,213,125c0,1.09,1.15,2.13,2.53,2.47s3.19,0,3.35-1.29C219.19,124,219.28,123.05,219.28,123.05Z"/><path class="cls-23" d="M224.86,114.49a7.55,7.55,0,0,0-2.71,3.33,19.44,19.44,0,0,0-1.38,5.56l-1.35-.4a12.43,12.43,0,0,1,1.51-5.73c1.72-2.76,2.24-3.44,3.45-3.45C225.06,113.8,224.86,114.49,224.86,114.49Z"/><path class="cls-23" d="M218.07,111.76a7.47,7.47,0,0,0-2.71,3.34,19.14,19.14,0,0,0-1.39,5.55l-1.35-.39a12.55,12.55,0,0,1,1.52-5.74c1.72-2.75,2.23-3.44,3.45-3.44C218.26,111.08,218.07,111.76,218.07,111.76Z"/><path class="cls-29" d="M217.11,110.61a7.46,7.46,0,0,0,2.39.21,5.61,5.61,0,0,0,2.55-1.23,16.9,16.9,0,0,0,.75,4.08c.47,1-1.8,2.09-3.74,1.88-1.36-.15-2.56-1.33-2.55-1.83A30.47,30.47,0,0,0,217.11,110.61Z"/><path class="cls-31" d="M215,106.18a5.48,5.48,0,0,1,1.7-3.55,5.31,5.31,0,0,1,3.9-.45c1.89.35,3,2.61,2.38,5-.57,2.22-2.47,5.51-5,5.7-1.3.09-2.18-1-2.63-2.27A10.13,10.13,0,0,1,215,106.18Z"/><path class="cls-23" d="M215.35,103.45a5.19,5.19,0,0,1-2.06.47,1.43,1.43,0,0,1-1.35-1.23,7.67,7.67,0,0,1,2.42-.3A1.19,1.19,0,0,1,215.35,103.45Z"/><path class="cls-25" d="M223.65,107.69s.14.09-.26,1a18.47,18.47,0,0,1-1.21,2.16s-.57-.4-.51-1.69a4.39,4.39,0,0,1,.51-2,3.74,3.74,0,0,1-2.76-.85c-1.44-1.09-1.62-1.9-1.62-1.9a3.55,3.55,0,0,1-2.63,1.52c-1.5-.08-3-2.28-1.52-2.77s4.94,0,4.94,0S223.74,106,223.65,107.69Z"/><path class="cls-23" d="M223.67,108.1c-1.15-2.58-5.4-5.54-8.56-5.35l0-.08c1.67-2.63,3.46-3.21,7-1.69s2.62,4.62,2.43,5A8,8,0,0,1,223.67,108.1Z"/><path class="cls-30" d="M221.73,105.6a8.1,8.1,0,0,0-3.5-2.91,8.24,8.24,0,0,0-6.29,0,6.8,6.8,0,0,1,3.22,1.4c.93,1,1.47,1.85,3.3,1.88A9.68,9.68,0,0,0,221.73,105.6Z"/><path class="cls-30" d="M224.29,134a11.43,11.43,0,0,1-2.81,1.22,5.31,5.31,0,0,1-2.42,0,15.55,15.55,0,0,0,2.42-.54C223.09,134.24,224.29,134,224.29,134Z"/><path class="cls-30" d="M223.75,155.18c-.25.14-.53,1-1.41,1.79a5.36,5.36,0,0,1-1.54,1,2.65,2.65,0,0,1,1.42-1.79A4.41,4.41,0,0,0,223.75,155.18Z"/><path class="cls-30" d="M220.52,158.6s1.12.69,1.31,1.37.33,1.37.33,1.37a1.28,1.28,0,0,1-1.1-1C220.72,159.38,220.52,158.6,220.52,158.6Z"/><path class="cls-35" d="M212.4,152.24l1,7.31a1.15,1.15,0,0,0,.66,1l8.42,4.87a2.4,2.4,0,0,0,1.18.3,1.86,1.86,0,0,0,1-.24l13.25-7.65a1,1,0,0,0,.54-.85l.51-7.95Z"/><path class="cls-36" d="M239.62,148.5H239l-.09-.07-9.27-5.35a2.67,2.67,0,0,0-1.3-.33,2.12,2.12,0,0,0-1.07.26l-14.59,8.42-.08.06h-.51v.88a1.27,1.27,0,0,0,.72,1.08l9.27,5.35a2.56,2.56,0,0,0,1.3.33,2.23,2.23,0,0,0,1.07-.25L239,150.45a1.07,1.07,0,0,0,.59-.94Z"/><path class="cls-35" d="M223.37,158.16a2.56,2.56,0,0,1-1.3-.33l-9.27-5.35a1.29,1.29,0,0,1-.72-1.08,1.08,1.08,0,0,1,.59-.94L227.26,142a2.12,2.12,0,0,1,1.07-.26,2.67,2.67,0,0,1,1.3.33l9.27,5.35a1.29,1.29,0,0,1,.72,1.08,1.07,1.07,0,0,1-.59.94l-14.59,8.43A2.23,2.23,0,0,1,223.37,158.16Z"/><path class="cls-36" d="M213,151.4,227.54,143a2,2,0,0,1,1.81.07l9.27,5.35a1,1,0,0,1,.38.37c.15-.26,0-.59-.38-.82l-9.27-5.35a2,2,0,0,0-1.81-.08L213,151a.49.49,0,0,0-.25.68A.7.7,0,0,1,213,151.4Z"/><path class="cls-37" d="M213.08,152l9.27,5.35a2,2,0,0,0,1.81.08L238.75,149a.94.94,0,0,0,.25-.23,1,1,0,0,0-.38-.37l-9.27-5.35a2,2,0,0,0-1.81-.07L213,151.4a.7.7,0,0,0-.25.23A1,1,0,0,0,213.08,152Z"/><path class="cls-36" d="M233.82,149.84l.21.12a2.21,2.21,0,0,0,2,.08c.51-.29.45-.81-.14-1.14l-.21-.13Z"/><path class="cls-38" d="M236.87,147.56h-.16a1.31,1.31,0,0,0-.39-.33L230,143.58a2.5,2.5,0,0,0-2.24-.09l-2.91,1.68a1.33,1.33,0,0,0-.19.14h-.19v.43h0a.94.94,0,0,0,.55.72l6.31,3.65a2.5,2.5,0,0,0,2.24.09l2.91-1.68a.67.67,0,0,0,.38-.54h0Z"/><path class="cls-7" d="M236.48,148.16l-2.91,1.68a2.47,2.47,0,0,1-2.24-.1L225,146.1c-.67-.38-.74-1-.17-1.3l2.91-1.67a2.47,2.47,0,0,1,2.24.09l6.32,3.64C237,147.25,237.05,147.83,236.48,148.16Z"/><path class="cls-39" d="M225.4,145.17l2.47-1.43a2.12,2.12,0,0,1,1.91.08l5.93,3.42a1,1,0,0,1,.43.46c.09-.25,0-.55-.43-.77l-5.93-3.42a2.12,2.12,0,0,0-1.91-.08l-2.47,1.43a.51.51,0,0,0-.3.63A.65.65,0,0,1,225.4,145.17Z"/><path class="cls-38" d="M225.54,146l5.93,3.42a2.13,2.13,0,0,0,1.9.08l2.47-1.43a.63.63,0,0,0,.3-.33,1,1,0,0,0-.43-.46l-5.93-3.42a2.12,2.12,0,0,0-1.91-.08l-2.47,1.43a.65.65,0,0,0-.3.32A.93.93,0,0,0,225.54,146Z"/><path class="cls-36" d="M224.62,150.39h-.43v.1l-.64-.37a.35.35,0,0,0-.33,0l-.18.1v-.09h-.43v.39h0a.1.1,0,0,0,.06.1l1,.58a.37.37,0,0,0,.34,0l.52-.3c.07,0,.09-.09.08-.13h0Z"/><path class="cls-35" d="M223.68,150.81l-1-.58c-.09,0-.08-.14,0-.2l.53-.3a.35.35,0,0,1,.33,0l1,.58c.08,0,.07.14,0,.2l-.52.3A.37.37,0,0,1,223.68,150.81Z"/><path class="cls-36" d="M228,148.43h-.43v.1l-.64-.37a.37.37,0,0,0-.34,0l-.17.1v-.09H226v.38h0a.09.09,0,0,0,0,.1l1,.59a.38.38,0,0,0,.34,0l.52-.3a.11.11,0,0,0,.07-.12h0Z"/><path class="cls-35" d="M227.09,148.86l-1-.59c-.08-.05-.07-.14,0-.19l.52-.31a.41.41,0,0,1,.34,0l1,.59c.09.05.08.13,0,.19l-.52.3A.38.38,0,0,1,227.09,148.86Z"/><path class="cls-40" d="M227.36,145.89l-.68-.38h0a.34.34,0,0,0-.37,0l-2.67,1.54a1.34,1.34,0,0,0-.56,1.07v2.1l.69.4V149a9.37,9.37,0,0,1,.57-1.32l2.15-1.16c0,.46,0,1.77,0,1.77l.37-.21.69.38v-1.87Z"/><polygon class="cls-41" points="227.19 148.68 226.5 148.29 226.5 146.52 227.19 146.32 227.35 147.16 227.19 148.68"/><path class="cls-42" d="M223.77,148.54v2.11l.37-.22s0-1.45,0-1.81a.78.78,0,0,1,.17-.57c.19-.26.41-.22.81-.36a2.09,2.09,0,0,0,.54-.22,3.87,3.87,0,0,0,.54-.4c.39-.32.61-.61.81-.58s.16.09.17.37,0,1.82,0,1.82l.37-.22v-2.11c0-.42-.25-.61-.56-.43l-2.67,1.54A1.35,1.35,0,0,0,223.77,148.54Z"/><path class="cls-36" d="M223.54,155.83l.21.12a2.21,2.21,0,0,0,2,.08c.51-.29.45-.8-.14-1.14l-.21-.12Z"/><path class="cls-38" d="M226.59,153.55h-.16a1.31,1.31,0,0,0-.39-.33l-6.32-3.65a2.5,2.5,0,0,0-2.24-.09l-2.9,1.68a1,1,0,0,0-.2.14h-.19v.43h0a.94.94,0,0,0,.55.72l6.31,3.65a2.5,2.5,0,0,0,2.24.09l2.91-1.68a.65.65,0,0,0,.38-.54h0Z"/><path class="cls-7" d="M226.2,154.15l-2.91,1.68a2.5,2.5,0,0,1-2.24-.09l-6.31-3.65c-.67-.38-.74-1-.16-1.29l2.9-1.68a2.5,2.5,0,0,1,2.24.09l6.32,3.65C226.7,153.24,226.78,153.82,226.2,154.15Z"/><path class="cls-39" d="M215.12,151.16l2.47-1.43a2.15,2.15,0,0,1,1.91.08l5.93,3.42a1,1,0,0,1,.43.47c.09-.26-.05-.56-.43-.78l-5.93-3.42a2.15,2.15,0,0,0-1.91-.08l-2.47,1.43a.52.52,0,0,0-.3.64A.63.63,0,0,1,215.12,151.16Z"/><path class="cls-38" d="M215.26,152l5.93,3.42a2.1,2.1,0,0,0,1.9.08l2.47-1.43a.61.61,0,0,0,.3-.32,1,1,0,0,0-.43-.47l-5.93-3.42a2.15,2.15,0,0,0-1.91-.08l-2.47,1.43a.63.63,0,0,0-.3.33A1,1,0,0,0,215.26,152Z"/><path class="cls-39" d="M236.16,152.93a.68.68,0,0,1,.08.34v3.08a1.5,1.5,0,0,1-.62,1.19l-8.41,4.85a.74.74,0,0,1-.21.07.35.35,0,0,0,.54.12l8.41-4.85a1.5,1.5,0,0,0,.62-1.18v-3.09C236.57,153.11,236.4,152.91,236.16,152.93Z"/><path class="cls-38" d="M235.62,157.54a1.5,1.5,0,0,0,.62-1.19v-3.08a.68.68,0,0,0-.08-.34.35.35,0,0,0-.21.07l-8.41,4.85a1.5,1.5,0,0,0-.62,1.18v3.09a.68.68,0,0,0,.08.34.74.74,0,0,0,.21-.07Z"/><path class="cls-31" d="M226,131.64a36,36,0,0,0-1.53,7.23c0,.85,0,1.64-.06,2.31h3.21a79.93,79.93,0,0,0,2.58-8.9c.39-2.6-1.44-10.48-1.44-10.48H224s.6,6.08.92,7.54A5.45,5.45,0,0,0,226,131.64Z"/><path class="cls-25" d="M227.87,140.38a10.13,10.13,0,0,1-3.44-.53c-.05,2.08-.09,3.56-.09,3.56a4.14,4.14,0,0,0-1.79,1.73c-.51,1.11.81,2.2.81,2.2s.84-.6,1.26.5c.2.49.45.87,1.4.38a3.08,3.08,0,0,0,1.54-1.63c.84-1.72-.64-3.39-.64-3.39S227.34,142,227.87,140.38Z"/><path class="cls-43" d="M225.55,116.13c2.86-1.13,4,1.34,4.53,4.47.23,1.27-.31,3.4-.34,4.23a6.92,6.92,0,0,1,.34,2s-1,.58-4,.27a20.57,20.57,0,0,0-2.9-.17,4.55,4.55,0,0,1,.05-2.08C222.15,123.09,221.79,117.6,225.55,116.13Z"/><path class="cls-25" d="M210.51,110.58a6.27,6.27,0,0,0-3.41.5c-1.66.79-2,1.61-2.4,3.37s-.48,2.5-.48,2.5a2.5,2.5,0,0,0,1.39.45,3.79,3.79,0,0,0,2-.45c-.07-.07-.36-2.1-.36-2.1a3.74,3.74,0,0,0,1.84-.76c.95-.71,1.9-.55,3.16-.82.94-.2.72-.56.34-.69a16,16,0,0,0-2.17-.19,10.56,10.56,0,0,0,2.8-.67c1.06-.5.64-.57,0-.83C213.43,110,211.54,110.32,210.51,110.58Z"/><polygon class="cls-17" points="320.74 227.58 327.32 223.96 327.32 173.19 320.74 176.8 320.74 227.58"/><polygon class="cls-18" points="256.19 190.31 320.74 227.58 320.74 176.8 256.19 139.53 256.19 190.31"/><polygon class="cls-19" points="327.32 173.19 320.74 176.8 256.19 139.53 262.77 135.92 327.32 173.19"/><path class="cls-17" d="M309,198.56l8.1,4.68c.54.3,1,0,1-.73V200.2a2.29,2.29,0,0,0-1-1.84l-8.1-4.68c-.53-.31-1,0-1,.73v2.3A2.33,2.33,0,0,0,309,198.56Z"/><path class="cls-17" d="M288.83,172.05l8.11,4.68c.53.3,1,0,1-.73v-2.31a2.31,2.31,0,0,0-1-1.84l-8.11-4.68c-.53-.31-1,0-1,.73v2.3A2.33,2.33,0,0,0,288.83,172.05Z"/><path class="cls-17" d="M306,190.51l8.1,4.68c.54.31,1,0,1-.73v-2.3a2.28,2.28,0,0,0-1-1.84l-8.1-4.68c-.53-.31-1,0-1,.73v2.3A2.31,2.31,0,0,0,306,190.51Z"/><path class="cls-17" d="M298.16,211.4l8.1,4.68c.53.31,1,0,1-.73v-2.3a2.31,2.31,0,0,0-1-1.84l-8.1-4.68c-.53-.31-1,0-1,.73v2.3A2.31,2.31,0,0,0,298.16,211.4Z"/><path class="cls-17" d="M297.44,192.39l8.1,4.68c.54.31,1,0,1-.73V194a2.29,2.29,0,0,0-1-1.84l-8.1-4.68c-.53-.31-1,0-1,.73v2.3A2.3,2.3,0,0,0,297.44,192.39Z"/><path class="cls-17" d="M289.28,194.1l8.11,4.68c.53.31,1,0,1-.73v-2.3a2.33,2.33,0,0,0-1-1.85l-8.11-4.67c-.53-.31-1,0-1,.72v2.31A2.31,2.31,0,0,0,289.28,194.1Z"/><path class="cls-17" d="M286.3,186.06l8.11,4.67c.53.31,1,0,1-.73v-2.3a2.31,2.31,0,0,0-1-1.84l-8.11-4.68c-.53-.31-1,0-1,.73v2.3A2.33,2.33,0,0,0,286.3,186.06Z"/><path class="cls-17" d="M277.73,187.94l8.11,4.68c.53.3,1,0,1-.73v-2.31a2.31,2.31,0,0,0-1-1.84l-8.11-4.68c-.53-.3-1,0-1,.73v2.31A2.31,2.31,0,0,0,277.73,187.94Z"/><path class="cls-17" d="M295.18,203.36l8.1,4.68c.53.3,1,0,1-.73V205a2.31,2.31,0,0,0-1-1.84l-8.1-4.68c-.54-.3-1,0-1,.73v2.31A2.29,2.29,0,0,0,295.18,203.36Z"/><path class="cls-17" d="M294,168.7l8.1,4.67c.53.31,1,0,1-.72v-2.31a2.31,2.31,0,0,0-1-1.84l-8.1-4.68c-.54-.31-1,0-1,.73v2.3A2.31,2.31,0,0,0,294,168.7Z"/><path class="cls-17" d="M277.53,165.48l8.11,4.68c.53.31,1,0,1-.73v-2.3a2.33,2.33,0,0,0-1-1.85l-8.11-4.68c-.53-.3-1,0-1,.73v2.31A2.31,2.31,0,0,0,277.53,165.48Z"/><path class="cls-17" d="M282.69,175l8.1,4.68c.53.31,1,0,1-.73v-2.3a2.3,2.3,0,0,0-1-1.84l-8.1-4.68c-.54-.31-1,0-1,.73v2.3A2.28,2.28,0,0,0,282.69,175Z"/><path class="cls-17" d="M260.86,149.34,269,154c.53.31,1,0,1-.73V151a2.33,2.33,0,0,0-1-1.85l-8.1-4.68c-.53-.3-1,0-1,.73v2.31A2.32,2.32,0,0,0,260.86,149.34Z"/><path class="cls-17" d="M266,158.85l8.1,4.68c.54.31,1,0,1-.73v-2.3a2.28,2.28,0,0,0-1-1.84L266,154c-.53-.31-1,0-1,.73V157A2.3,2.3,0,0,0,266,158.85Z"/><path class="cls-17" d="M277.53,199l8.11,4.68c.53.3,1,0,1-.73v-2.31a2.31,2.31,0,0,0-1-1.84l-8.11-4.68c-.53-.3-1,0-1,.73v2.31A2.33,2.33,0,0,0,277.53,199Z"/><path class="cls-17" d="M260.86,182.88l8.1,4.68c.53.3,1,0,1-.73v-2.31a2.31,2.31,0,0,0-1-1.84l-8.1-4.68c-.53-.3-1,0-1,.73V181A2.32,2.32,0,0,0,260.86,182.88Z"/><path class="cls-17" d="M266,192.39l8.1,4.68c.54.31,1,0,1-.73V194a2.31,2.31,0,0,0-1-1.85l-8.1-4.67c-.53-.31-1,0-1,.73v2.3A2.31,2.31,0,0,0,266,192.39Z"/><path class="cls-35" d="M264.71,221.61h6.75l3.37-2.15,3.38-2a3.2,3.2,0,0,1,2.88.12l6.05,3.49h6.27v4.08h0a.83.83,0,0,1-.5.8l-13,7.51a3.23,3.23,0,0,1-2.88-.12l-11.62-6.71c-.49-.29-.72-.65-.69-1h0Z"/><path class="cls-36" d="M265.41,224.56,277,231.27a3.23,3.23,0,0,0,2.88.12l13-7.51a.83.83,0,0,0,.5-.8h0v.55h0a.83.83,0,0,1-.5.8l-13,7.51a3.2,3.2,0,0,1-2.88-.12l-11.62-6.71a1.12,1.12,0,0,1-.69-1h0v-.55h0C264.69,223.91,264.92,224.27,265.41,224.56Z"/><path class="cls-35" d="M274.83,215.38v4.22s3.18-.36,3.54-1.65-.84-1.91-1.46-2.18A10,10,0,0,0,274.83,215.38Z"/><path class="cls-37" d="M265.2,220.94l3.38-1.95,2.28,1.31a2.14,2.14,0,0,0,1.92.08l4.46-2.58c.49-.28.43-.78-.14-1.11l-2.27-1.31,3.38-1.95a3.2,3.2,0,0,1,2.88.12l11.62,6.71c.85.49.94,1.23.2,1.66l-13,7.51a3.23,3.23,0,0,1-2.88-.12l-11.62-6.71C264.56,222.11,264.47,221.36,265.2,220.94Z"/><path class="cls-35" d="M278.65,226.25l9.28-5.36c.41-.24.36-.65-.11-.92L282.73,217a1.73,1.73,0,0,0-1.59-.07l-9.28,5.36c-.41.23-.36.65.11.92l5.09,2.93A1.79,1.79,0,0,0,278.65,226.25Z"/><path class="cls-36" d="M278.85,225.76l7.8-4.5c.34-.2.3-.55-.1-.78L282.28,218a1.48,1.48,0,0,0-1.34-.06l-7.8,4.51c-.34.19-.3.54.1.77l4.27,2.47A1.51,1.51,0,0,0,278.85,225.76Z"/><polygon class="cls-42" points="276.63 222.79 282.17 219.6 281.2 219.03 275.66 222.23 276.63 222.79"/><path class="cls-35" d="M279.58,213.87c.8,0,1.45.32,1.45.73s-.65.73-1.45.73-1.45-.33-1.45-.73S278.78,213.87,279.58,213.87Z"/><ellipse class="cls-36" cx="279.58" cy="214.74" rx="0.79" ry="0.4"/><path class="cls-35" d="M267.49,220.88c.79,0,1.44.33,1.44.73s-.65.73-1.44.73S266,222,266,221.61,266.69,220.88,267.49,220.88Z"/><path class="cls-36" d="M267.49,221.35c.43,0,.79.18.79.4s-.36.4-.79.4-.8-.18-.8-.4S267.05,221.35,267.49,221.35Z"/><path class="cls-35" d="M278.58,227.26c.8,0,1.44.32,1.44.73s-.64.73-1.44.73-1.45-.33-1.45-.73S277.78,227.26,278.58,227.26Z"/><path class="cls-36" d="M278.58,227.73c.44,0,.79.18.79.4s-.35.4-.79.4-.8-.18-.8-.4S278.14,227.73,278.58,227.73Z"/><path class="cls-35" d="M290.75,220.18c.8,0,1.44.33,1.44.73s-.64.73-1.44.73-1.45-.32-1.45-.73S290,220.18,290.75,220.18Z"/><path class="cls-36" d="M290.75,220.65c.44,0,.79.18.79.4s-.35.4-.79.4-.79-.18-.79-.4S290.31,220.65,290.75,220.65Z"/><path class="cls-22" d="M320.74,194.13a.19.19,0,0,0,.18-.13.2.2,0,0,0-.11-.26c-.11,0-11-4.22-15.17-6.61-1.38-.8-2.69-1.64-4.21-2.62A142.26,142.26,0,0,0,288.6,177l-2.71-1.39a115.21,115.21,0,0,1-15-8.76c-8.54-5.6-14.47-9.63-14.53-9.67a.2.2,0,0,0-.28.05.21.21,0,0,0,.06.28c.05,0,6,4.07,14.54,9.67a115.72,115.72,0,0,0,15,8.78l2.71,1.39a138.84,138.84,0,0,1,12.79,7.45c1.53,1,2.85,1.83,4.23,2.63,4.18,2.41,15.12,6.6,15.23,6.64Z"/><path class="cls-22" d="M320.74,197.11a.2.2,0,0,0,.11-.36l-7.69-5.33c-.93-.64-1.79-1.29-2.62-1.92a29.4,29.4,0,0,0-10.72-5.73c-5.49-1.61-11.6-4.57-18.69-9.05-3.52-2.23-7.43-4.33-11.21-6.37-2-1.07-4.06-2.18-6-3.3a39.63,39.63,0,0,1-7.75-5.26.2.2,0,0,0-.28.28c.09.08,2.16,2.13,7.84,5.33,2,1.11,4,2.23,6,3.3,3.78,2,7.68,4.13,11.19,6.36,7.12,4.5,13.26,7.47,18.79,9.09a29.09,29.09,0,0,1,10.59,5.66c.83.64,1.69,1.29,2.63,1.94l7.7,5.32A.15.15,0,0,0,320.74,197.11Z"/><path class="cls-22" d="M320.74,191.21a.21.21,0,0,0,.18-.11.21.21,0,0,0-.1-.27c-.13-.06-13.53-6.26-18.56-7.71l-2.58-.74c-5.46-1.56-12.93-3.7-15.66-4.68-7.56-2.73-11.58-5.72-15.38-11.42-3.62-5.43-12.46-10.81-12.55-10.86a.2.2,0,0,0-.2.34c.09.05,8.85,5.38,12.42,10.74,3.85,5.78,7.93,8.81,15.58,11.57,2.74,1,10.22,3.13,15.68,4.69l2.59.74c5,1.44,18.36,7.63,18.5,7.69Z"/><polygon class="cls-10" points="278.13 177.31 279.66 178.2 279.66 170.93 278.13 170.04 278.13 177.31"/><polygon class="cls-10" points="310.06 191.53 311.6 192.42 311.6 185.16 310.06 184.27 310.06 191.53"/><path class="cls-29" d="M262.66,180.73l-5.51-.67.4,3.74s3.76-.6,4.23-.29a4.93,4.93,0,0,0,1.87.29S264,180.89,262.66,180.73Z"/><path class="cls-25" d="M249.66,204.07s-3.23.6-4,1.62-.3,2.18-.45,3.44.4,2.47,1.75,2.41c1.19,0,1.14-1.09,1.34-1.77,0,0,3.34-.35,5-1.54S252.47,203.75,249.66,204.07Z"/><path class="cls-30" d="M260.27,188.52c-2.67-.59-6,.41-8.79,1.72a.54.54,0,0,0-.21,0C247.9,191.91,240,191.86,240,192a12.44,12.44,0,0,0-.57,6.45c.53,2,2.3,4,4.72,3.68a6.34,6.34,0,0,0,5.65.52c0,.06-.32.46-.69,1a3.53,3.53,0,0,1,2.92,1.35,6.06,6.06,0,0,1,1,1.79c1.06-.79,2.11-1.66,2.85-2.22,1.38-1.05,6.13-6.2,6.13-10.53A3.2,3.2,0,0,0,260.27,188.52Z"/><path class="cls-23" d="M260.82,207.31a14.76,14.76,0,0,0-2.11-5.76c-2.12-3.17-3.84-7.82-6.11-9.27-2.74-1.75-8.89-.38-9.1-.49.05,1.5-.52,5.07-.29,6.72a11.54,11.54,0,0,0,1,3.6c.66,1.3,2.47,2.45,5.13,2.53a10.38,10.38,0,0,0,3.25,3.41,30.06,30.06,0,0,0-3.17,2.45,57.09,57.09,0,0,1-7,5.69,5.26,5.26,0,0,1,1.46,1.23,3.61,3.61,0,0,1,.76,1.77c4.57-1.05,8.19-3.44,11.95-6.09a14.29,14.29,0,0,0,3.05-3.12A1.64,1.64,0,0,0,260.82,207.31Z"/><path class="cls-43" d="M249.73,180.4c.66-3.16,1.1-7.53,1.1-7.53s-3.35-3.65-6.65.51c-1,1.28-1,3-1.24,3.72a4.31,4.31,0,0,0-.68,2.11C244.19,181.38,247.39,181.27,249.73,180.4Z"/><path class="cls-31" d="M256.36,174.6l-2.69,2.2c-1.45-.51-2.55-2.22-3.17-3.86.53-.43,2.41-1.5,2.54-2.07-.56-1.56.29-2.88,1.74-4.28a4.71,4.71,0,0,1,5.9-.16,2.59,2.59,0,0,1,1.3,2.47c-.18,1.66-1.13,5.65-2.54,6.37C258.45,175.78,257.31,175,256.36,174.6Z"/><path class="cls-25" d="M252.49,166.56a3.65,3.65,0,0,1,2.19-3c1.54-.71,4.27-.81,5.5.58,0-.05,0-.1.07-.14a1,1,0,0,1,1.45-.07,2.59,2.59,0,0,1,.8,1.09,1.19,1.19,0,0,1,.81,0c.89.37.86,1.63.54,2.37-.65,1.52-3.06,3.2-4.84,2.78.09.89-.35,1.37-1.06,2a3.73,3.73,0,0,1-4,.33,4.56,4.56,0,0,1-2.62-4A2.37,2.37,0,0,1,252.49,166.56Z"/><path class="cls-31" d="M259.64,170.57a.79.79,0,0,0-1.31-.39c-1,.65.2,2.6.2,2.6Z"/><path class="cls-6" d="M254.76,175.91c-3.42-2.64-3.31-2.94-4.95-3.65-1.45-.62-5.63,3.25-6.94,7.29A93.1,93.1,0,0,0,240,192.91c3.29,3,8.43,2.4,12.42.56a22,22,0,0,0,3.72-6.09,23.57,23.57,0,0,0,1.88-5.66C258.36,180.09,258.19,178.54,254.76,175.91Z"/><path class="cls-25" d="M244.77,214.46a22.91,22.91,0,0,0-3.5,0c-1,.18-1.16,2-2.05,2.87s-3.47,1.31-4.16,3.1.57,4.53,2.18,3.86c2.65-1.12,8-5.57,8-5.57A3.84,3.84,0,0,0,244.77,214.46Z"/><path class="cls-35" d="M313.4,227.56c-1.27-1.57-4.23-4.08-9.79-3.17-5,.81-8,1.3-10.54-4.41-3.09-7-11.77-13-19.33-13.33a16.11,16.11,0,0,0-2,0,9.18,9.18,0,0,1-.06,3.15,5.36,5.36,0,0,1-3.26,4,3.77,3.77,0,0,1-3.42-.22,2.32,2.32,0,0,1-.79-2.81c.69-2,3.33-3.93,7.27-4.33a39.67,39.67,0,0,0-1.82-6.5c-.53-1.56-1.08-3.18-1.44-4.66a47.74,47.74,0,0,1-1.16-13.26l.23,0a47.84,47.84,0,0,0,1.15,13.18c.36,1.48.91,3.09,1.44,4.65a39.87,39.87,0,0,1,1.83,6.54,16.73,16.73,0,0,1,2,0c7.64.33,16.41,6.37,19.53,13.47,2.44,5.54,5.23,5.09,10.29,4.27,5.68-.92,8.71,1.64,10,3.25Zm-41.87-20.85c-3.84.4-6.42,2.26-7.08,4.18a2.11,2.11,0,0,0,.71,2.55,3.49,3.49,0,0,0,3.2.19,5.16,5.16,0,0,0,3.12-3.84A9,9,0,0,0,271.53,206.71Z"/><polygon class="cls-44" points="270.41 184.14 267.06 186.04 265.06 184.89 268.42 182.99 270.41 184.14"/><polygon class="cls-36" points="270.41 182.76 267.06 184.66 265.06 183.51 268.42 181.61 270.41 182.76"/><polygon class="cls-45" points="265.89 183.14 265.06 183.51 267.06 184.66 267.03 183.8 265.89 183.14"/><polygon class="cls-46" points="268.42 181.61 269.34 182.47 270.31 182.73 270.41 182.76 268.42 181.61"/><path class="cls-47" d="M267.89,179.08v2.5l1.53-.88a.67.67,0,0,0,.34-.58V178Z"/><polygon class="cls-12" points="269.34 179.37 267.03 180.7 265.89 180.04 268.19 178.71 269.34 179.37"/><polygon class="cls-25" points="267.03 180.7 267.03 183.8 269.34 182.47 269.34 179.37 267.03 180.7"/><polygon class="cls-36" points="265.89 180.04 265.89 183.14 267.03 183.8 267.03 180.7 265.89 180.04"/><path class="cls-25" d="M278.7,171.61l-4.69,2.7a.28.28,0,0,1-.37-.09h0a.27.27,0,0,1,.1-.37l4.69-2.71a.28.28,0,0,1,.37.1h0A.28.28,0,0,1,278.7,171.61Z"/><path class="cls-29" d="M265.68,180.48a34.25,34.25,0,0,1-3.11,1.7c-.76.33-.09,1.42.67,1.62a4.66,4.66,0,0,0,2.93-.89c.47-.43,1.3-1,.89-1.22s-.49-.08-.79.14a1.61,1.61,0,0,1-.7.26Z"/><path class="cls-46" d="M275.46,173.27v0a2,2,0,0,0-2.69-.72l-1.54.89c.63,1.16,1.2,2.36,1.89,3.49l1.63-1A2,2,0,0,0,275.46,173.27Z"/><path class="cls-7" d="M274,175.62a3.12,3.12,0,0,0-1.31-2.49.81.81,0,0,0-.84-.06h0l-1.5.87,1.69,3.61,1.51-.88A1.13,1.13,0,0,0,274,175.62Z"/><path class="cls-48" d="M272.45,176.49c0,1-.58,1.4-1.3,1a3.13,3.13,0,0,1-1.31-2.49c0-1,.59-1.4,1.31-1A3.12,3.12,0,0,1,272.45,176.49Z"/><path class="cls-36" d="M273.1,176.62a4.19,4.19,0,0,0-1.74-3.34,1.11,1.11,0,0,0-1.14-.08h0l-7.45,4.37,2.3,4.83,7.42-4.37A1.54,1.54,0,0,0,273.1,176.62Z"/><path class="cls-7" d="M266.46,180.49a4.19,4.19,0,0,0-1.74-3.34,1.13,1.13,0,0,0-1.14-.08l-.81.49,2.3,4.83.82-.48A1.56,1.56,0,0,0,266.46,180.49Z"/><path class="cls-36" d="M265.71,181c0,1.28-.78,1.87-1.74,1.31a4.16,4.16,0,0,1-1.75-3.33c0-1.29.78-1.88,1.75-1.32A4.19,4.19,0,0,1,265.71,181Z"/><path class="cls-6" d="M265.07,180.84a3.13,3.13,0,0,0-1.31-2.49.83.83,0,0,0-.85-.06h0l-.67.39,1.73,3.6.64-.39A1.12,1.12,0,0,0,265.07,180.84Z"/><path class="cls-6" d="M264.39,181.23c0,1-.59,1.4-1.31,1a3.12,3.12,0,0,1-1.3-2.49c0-1,.58-1.4,1.3-1A3.13,3.13,0,0,1,264.39,181.23Z"/><path class="cls-47" d="M270.06,174.31h0v-.39l-.33.11a1.41,1.41,0,0,0-.55,0l-1.12.45-.45.15v.42h0a.28.28,0,0,0,.17.23.76.76,0,0,0,.7,0l1.45-.83a.22.22,0,0,0,.11-.16h0Z"/><path class="cls-42" d="M268.49,174.9l1.45-.83c.18-.11.15-.29-.05-.41h0a.81.81,0,0,0-.71,0l-1.45.84c-.18.1-.15.28.06.4h0A.76.76,0,0,0,268.49,174.9Z"/><polygon class="cls-36" points="265.06 183.51 265.06 184.89 267.06 186.04 267.06 184.66 265.06 183.51"/><polygon class="cls-25" points="267.06 184.66 267.06 186.04 270.41 184.14 270.41 182.76 267.06 184.66"/><path class="cls-23" d="M271.8,178l-3.54,2c-.14.08-.25,0-.25-.18V178.6a.59.59,0,0,1,.25-.47l3.54-2c.13-.08.24,0,.24.18v1.25A.6.6,0,0,1,271.8,178Z"/><path class="cls-31" d="M269.86,181.35a2.43,2.43,0,0,0,.2-1.9l-1.78,1c-.7.51-1.26-.95-1.85-1.14-.8-.26-.48.74-.24,1.14s.89,1.23.56,1.75a13.63,13.63,0,0,1-2.62,1.7h0a13,13,0,0,0-2.24,1.28c-.27-.59-1.93-3.43-4-4.45,0,0-4,2.47-3.59,3.67.92,2.71,4.54,4.21,5.41,4.54a3.44,3.44,0,0,0,2.7.35,12.09,12.09,0,0,0,2.85-2h0c.83-.72,1.7-1.53,2.49-2.29C269.7,183.15,269.86,182.38,269.86,181.35Z"/><path class="cls-43" d="M256.26,187.86a8.12,8.12,0,0,0,5-4.51c-.29-.31-1-1.37-1.31-1.69-1.3-3.4-3.13-4.73-4.57-4.81a3,3,0,0,0-3.11,3.69C253,184.71,254.2,186.22,256.26,187.86Z"/><path class="cls-23" d="M249.67,172.47a11.07,11.07,0,0,0-3.3,2.45,14.88,14.88,0,0,0-3,6h-1.11s1.46-4.53,3.23-6.54a7.51,7.51,0,0,1,3.89-2.54A.82.82,0,0,1,249.67,172.47Z"/><path class="cls-43" d="M248.89,172s1.66-1,2.45-.57,3.27,2.1,3.73,3a12.21,12.21,0,0,1,.78,2.42,18.29,18.29,0,0,1-4.85-2.75C248.89,172.3,248.89,172,248.89,172Z"/><path class="cls-23" d="M253.39,192.31s-1.31,1.41-3.18-.27a6.79,6.79,0,0,1-2-7.92,67.67,67.67,0,0,1-5.33-4.57c-1,1.69-1.43,5-2.35,7.14a12,12,0,0,0-.94,6.26,9.29,9.29,0,0,0,5.33,3.51c5,1.44,9.44-1.85,9.21-2.48S253.39,192.31,253.39,192.31Z"/><path class="cls-23" d="M252.6,179.17a16,16,0,0,0-4.69,5.88l-.9-.94s2.8-4.62,5.29-6.33a9.14,9.14,0,0,1,2.71-1.32,1.19,1.19,0,0,1,1.38.64S255.28,177.27,252.6,179.17Z"/><path class="cls-30" d="M239.47,192.22v1.84a10.45,10.45,0,0,0,5.72,2.94,14.69,14.69,0,0,0,8.94-.67,15.69,15.69,0,0,0,2.69-2l-1-.82s-.6.71-3.25,1.5a16.52,16.52,0,0,1-7.95.13C242.66,194.63,239.47,192.22,239.47,192.22Z"/><path class="cls-30" d="M253.47,208.48a2.38,2.38,0,0,0,1.16.74,5.91,5.91,0,0,0,1.91-.37l-1.3-.37C254.75,208.33,254,208.57,253.47,208.48Z"/><path class="cls-30" d="M253.25,167.19a15.4,15.4,0,0,1-3.58,3.42c-2,1.28.4,3.5,2.14,3.43a5.41,5.41,0,0,0,4.58-2.65,7.67,7.67,0,0,1,1.77-2Z"/><path class="cls-23" d="M261.23,165.57c-.28-3.15-4.79-4.93-8.24-2.5-1.88,1.34-2.91,4.17-1.08,7.18C252.32,171.47,260.48,171.07,261.23,165.57Z"/><path class="cls-30" d="M255,162.71c.11.24-.16.62-.61.84s-.92.19-1-.05.15-.62.61-.84S254.91,162.46,255,162.71Z"/><path class="cls-49" d="M222.87,261.45c-.14-1.16-1.52-1.39-3.1-1.58s-.51,3.47-.51,3.59S223.07,263.1,222.87,261.45Z"/><path class="cls-25" d="M222.87,261.45a4.8,4.8,0,0,1-3.8,1.25,15.86,15.86,0,0,1-4.61-.94s.73,3.93,1,5.49.89,3.35.71,4.63a17.87,17.87,0,0,1-2.16,4.92,3.08,3.08,0,0,0,.91,4c1,.65,3.78,1,4.71-.69a9.67,9.67,0,0,0,1.22-4.68,5.58,5.58,0,0,0,.95-1.3c.65-1.24-.24-2.41-.44-3.28S222.83,265.13,222.87,261.45Z"/><path class="cls-25" d="M208.65,255.61a4.33,4.33,0,0,1-4,2.18c-2.43,0-2.22-1.71-2.22-1.71s.06,6.77.27,8.19a2.35,2.35,0,0,1-1.27,2.6c-.83.57-3,1.75-3.19,3.4s.62,2.37,2.83,3c1.2.32,2.56-.45,3.63-1.35s2.4-2.61,2.4-3.21c1.73-.63,1.76-1.61,1.07-4.26C209.14,261.06,208.72,256.85,208.65,255.61Z"/><path class="cls-31" d="M194.48,210.81s2.79,2,5.13,4.12l.72-.87c1.38-1.7,2.93-3.39,2.93-3.39l3.45,2.87a19.33,19.33,0,0,1-2,3.26,16.34,16.34,0,0,1-4.13,3.75,2.11,2.11,0,0,1-2.09-.52c-.62-.81-.73-.85-2.8-3.46A66.34,66.34,0,0,1,192,211Z"/><path class="cls-43" d="M207.94,216.14a11.3,11.3,0,0,1-6.6-4.85,15.05,15.05,0,0,1,1.92-2c1.21-4.58,4.05-5.09,5.45-4.4,2.62,1.28,3.09,4.18,2,6.62A38.58,38.58,0,0,1,207.94,216.14Z"/><path class="cls-30" d="M201.16,250.83c-.08-1.61-.06-3.7,0-5.31s-.76-13.7,4.92-17.24c.1-.12,5.44.62,7.23.78a.59.59,0,0,1,.51.49c1,5.93.94,12.53-2.21,17.85a10.37,10.37,0,0,1-2.48,2.87c1,1.71.8,12.36-.79,14.66-.77,1.11-3.55,2.73-5.79.86-.65-.54-.32-1.61-.51-3.83C201.7,258,201.21,252,201.16,250.83Z"/><path class="cls-23" d="M210.24,237.81c-1.91-1.32-2.52-3.76-2.23-8.3,1.58-2.36,8.34-.61,10.81-.59,2.27,1.78,1.74,4.81,1.15,7.81.63,2.7,2,6.73,2.5,11,.12,1.06.23,3.45-.81,4.41a23.89,23.89,0,0,1,1.41,9.35c-.15,3.64-1.29,7.4-1.48,8.8-1.36.85-3.32,2.25-5.38.42-1.65-1.48-2.89-12.31-2.47-17.52-.79-1.26-1.54-2-1.85-3.46C211.09,245.92,210.8,241.6,210.24,237.81Z"/><path class="cls-30" d="M220,230.31l.34.89a7.56,7.56,0,0,1-4.81,2.31,17.09,17.09,0,0,1-7.82-.67,3.9,3.9,0,0,1-2-2s7.75,1.32,9.79.75Z"/><path class="cls-30" d="M220.3,228.14c-.28-1.52-2.31-1.62-2.31-1.62l-.8,2.8S220.7,230.32,220.3,228.14Z"/><path class="cls-6" d="M205.08,228c-.82-1.39-.29-6.57.17-8.82-1-3.74-1.38-6.48-.62-9.51.48-1.88,2.2-4.05,4.52-4.17,1.13-.05,4.95,1.53,5.67,1.93a13.37,13.37,0,0,1,6.73,4.46c.25.27-.76,9-1.25,10.68-.58,1.91-.26,4.84-.7,6.63.22,1.74-5.12,2.77-6.69,2.77C207.51,232,206.19,230.51,205.08,228Z"/><path class="cls-50" d="M218,226.52a4.26,4.26,0,0,1-2.91.25,6.13,6.13,0,0,1-2.58-1.34s2.1.68,3,.86A22.73,22.73,0,0,0,218,226.52Z"/><path class="cls-43" d="M216.72,208.14a3.34,3.34,0,0,1-2.32,2.5c-3.15,1.09-5.38-.4-6-2.07s1.33-3,1.33-3A16.63,16.63,0,0,1,216.72,208.14Z"/><path class="cls-23" d="M220.3,228.14l.59,1.47a16.84,16.84,0,0,1-4.74,2.4c-3.48,1.3-7.34.56-9-1s-2.76-2.46-2.88-3.85a30.21,30.21,0,0,1,.22-5.93c.28-2.18.78-8,.78-8a13.53,13.53,0,0,0,3.89,1.78,24.38,24.38,0,0,0,4.36.82s-.12,5.38.5,7.72c.46,1.71,1.14,3.44,3,4.38A3.81,3.81,0,0,0,220.3,228.14Z"/><path class="cls-30" d="M212,217.38a16.63,16.63,0,0,1-3.55-.66,13.36,13.36,0,0,1-2.36-.91,19.4,19.4,0,0,0-.48,3.55c0,1.12,1.18,2.19,2.58,2.53s3.27.05,3.44-1.31C211.86,218.36,212,217.38,212,217.38Z"/><path class="cls-23" d="M217.66,208.62a7.68,7.68,0,0,0-2.77,3.41,19.8,19.8,0,0,0-1.42,5.68l-1.37-.4a12.78,12.78,0,0,1,1.54-5.87c1.76-2.82,2.29-3.52,3.53-3.52C217.86,207.92,217.66,208.62,217.66,208.62Z"/><path class="cls-23" d="M210.71,205.83a7.68,7.68,0,0,0-2.77,3.41,19.8,19.8,0,0,0-1.42,5.68l-1.37-.4a12.78,12.78,0,0,1,1.54-5.87c1.76-2.82,2.29-3.52,3.53-3.52C210.91,205.13,210.71,205.83,210.71,205.83Z"/><path class="cls-29" d="M209.73,204.65a7.86,7.86,0,0,0,2.45.22,5.69,5.69,0,0,0,2.6-1.26,17.66,17.66,0,0,0,.77,4.17c.48,1.05-1.84,2.14-3.82,1.92-1.39-.15-2.62-1.35-2.61-1.87A32.17,32.17,0,0,0,209.73,204.65Z"/><path class="cls-31" d="M207.62,200.12a5.57,5.57,0,0,1,1.73-3.63c1.07-.79,2.75-.69,4-.46,1.93.36,3.06,2.67,2.43,5.12-.58,2.26-2.52,5.63-5.14,5.82-1.33.1-2.23-1-2.68-2.32A10.3,10.3,0,0,1,207.62,200.12Z"/><path class="cls-23" d="M207.93,197.33a5.24,5.24,0,0,1-2.1.48,1.46,1.46,0,0,1-1.38-1.26,7.86,7.86,0,0,1,2.47-.31A1.23,1.23,0,0,1,207.93,197.33Z"/><path class="cls-25" d="M216.42,201.67s.14.09-.27,1a19.61,19.61,0,0,1-1.23,2.21s-.58-.41-.52-1.74a4.35,4.35,0,0,1,.52-2,3.81,3.81,0,0,1-2.82-.86,4.21,4.21,0,0,1-1.67-2,3.59,3.59,0,0,1-2.68,1.55c-1.54-.08-3.11-2.33-1.56-2.83s5.06,0,5.06,0S216.52,199.9,216.42,201.67Z"/><path class="cls-23" d="M216.44,202.09c-1.17-2.65-5.52-5.67-8.75-5.48a.59.59,0,0,0,0-.08c1.72-2.69,3.55-3.28,7.18-1.73s2.69,4.73,2.5,5.11A8.92,8.92,0,0,1,216.44,202.09Z"/><path class="cls-30" d="M214.46,199.53a8.2,8.2,0,0,0-3.58-3,8.44,8.44,0,0,0-6.43,0,6.86,6.86,0,0,1,3.28,1.44c1,1,1.51,1.89,3.38,1.92A10,10,0,0,0,214.46,199.53Z"/><path class="cls-30" d="M217.07,228.59a11.72,11.72,0,0,1-2.87,1.25,5.36,5.36,0,0,1-2.47,0,15.58,15.58,0,0,0,2.47-.55C215.85,228.82,217.07,228.59,217.07,228.59Z"/><path class="cls-30" d="M221.59,249.1a14.25,14.25,0,0,1-1,2.11,5.59,5.59,0,0,1-1.31,1.35,2.71,2.71,0,0,1,1-2.12A4.53,4.53,0,0,0,221.59,249.1Z"/><path class="cls-30" d="M219.17,253.26s1.27.42,1.61,1.06.65,1.28.65,1.28a1.29,1.29,0,0,1-1.32-.72C219.54,254,219.17,253.26,219.17,253.26Z"/><path class="cls-31" d="M220.64,219.17s-2.61,3.86-4.39,5.07c-1.1.75-1.42,1.06-2.37,1.16a14.74,14.74,0,0,1-1.92,0c-1.83,0-7.63-1.77-7.63-1.77a7.26,7.26,0,0,0-1.4.28c-.63.2-3-.88-4.15-1.45a4.89,4.89,0,0,1-1.78-1.93c-.31-.51.11-1.61.95-1.43.44-.33,1.42,0,2.07.27a14.88,14.88,0,0,0,4.81,1.36c1,.09,2,.07,4.17.05a16.2,16.2,0,0,0,4-.56l3.54-4.62Z"/><path class="cls-43" d="M220.47,210.38c3,1.08,3.32,4.83,1.64,7.62a14.05,14.05,0,0,1-1.81,2.54,6.87,6.87,0,0,1-1.1,1.77s-1.13-.21-3.25-2.51a21.57,21.57,0,0,0-2.11-2.09s.78-1.31,1.45-1.57C215.67,214.07,216.6,209,220.47,210.38Z"/><path class="cls-31" d="M202.57,220.62a3.21,3.21,0,0,0-1.17-1.36,4.33,4.33,0,0,1-1.3-1.3c-.36-.44-.68.42-.24.75a6,6,0,0,1,1,1.62Z"/><polygon class="cls-12" points="197.61 250.08 178.21 238.87 178.21 204.69 197.61 215.9 197.61 250.08"/><polygon class="cls-20" points="197.61 250.08 197.61 215.9 204.61 211.67 204.61 245.85 197.61 250.08"/><polygon class="cls-2" points="178.21 204.69 185.21 200.47 204.61 211.67 197.61 215.9 178.21 204.69"/><rect class="cls-35" x="186.75" y="231.16" width="3.85" height="49.56"/><path class="cls-35" d="M190.6,280.72c0,.59-.86,1.06-1.92,1.06s-1.93-.47-1.93-1.06.86-1.06,1.93-1.06S190.6,280.14,190.6,280.72Z"/><path class="cls-37" d="M190.6,231.16c0,.59-.86,1.06-1.92,1.06s-1.93-.47-1.93-1.06.86-1.06,1.93-1.06S190.6,230.57,190.6,231.16Z"/><polygon class="cls-2" points="223.84 223.13 204.44 211.92 204.96 211.67 224.36 222.87 223.84 223.13"/><polygon class="cls-33" points="223.84 257.31 204.44 246.1 204.44 211.92 223.84 223.13 223.84 257.31"/><polygon class="cls-12" points="223.84 223.13 224.36 222.87 224.36 257.05 223.84 257.31 223.84 223.13"/><polygon class="cls-34" points="220.2 244.71 208.08 237.71 208.08 220.28 220.2 227.27 220.2 244.71"/><path class="cls-6" d="M220.39,245.05l-12.5-7.22V219.94l12.5,7.22Zm-12.11-7.45L220,244.37v-17l-11.72-6.76Z"/><polygon class="cls-25" points="213.63 225.9 211.86 231.57 214.08 232.85 212.66 238 216.42 232.39 214.21 231.11 215.69 227.08 213.63 225.9"/><path class="cls-35" d="M181.77,268.59h-6.71l-3.35-2.13-3.36-1.94a3.18,3.18,0,0,0-2.86.11l-6,3.48h-6.23v4.05h0a.83.83,0,0,0,.49.79l12.92,7.46a3.15,3.15,0,0,0,2.86-.12l11.55-6.66a1.12,1.12,0,0,0,.69-1h0Z"/><path class="cls-36" d="M181.07,271.52l-11.55,6.67a3.18,3.18,0,0,1-2.86.12l-12.92-7.46a.84.84,0,0,1-.49-.8h0v.55h0a.84.84,0,0,0,.49.8l12.92,7.46a3.18,3.18,0,0,0,2.86-.12l11.55-6.67c.49-.28.72-.64.69-1h0v-.56h0A1.11,1.11,0,0,1,181.07,271.52Z"/><path class="cls-35" d="M171.71,262.4v4.19s-3.16-.36-3.52-1.64.83-1.9,1.45-2.16A10,10,0,0,1,171.71,262.4Z"/><path class="cls-37" d="M181.27,267.92,177.92,266l-2.26,1.3a2.12,2.12,0,0,1-1.91.08l-4.44-2.56c-.49-.28-.42-.78.14-1.1l2.26-1.31-3.36-1.94a3.19,3.19,0,0,0-2.86.12L154,267.25c-.85.49-.94,1.23-.21,1.65l12.92,7.46a3.18,3.18,0,0,0,2.86-.12l11.55-6.66C181.92,269.09,182,268.35,181.27,267.92Z"/><path class="cls-35" d="M167.91,273.2l-9.22-5.32c-.4-.24-.35-.65.12-.92l5.05-2.91a1.77,1.77,0,0,1,1.58-.07l9.22,5.33c.41.23.36.64-.11.91l-5.05,2.92A1.76,1.76,0,0,1,167.91,273.2Z"/><path class="cls-36" d="M167.72,272.72,160,268.24c-.35-.2-.3-.54.09-.77l4.25-2.45a1.49,1.49,0,0,1,1.33,0l7.75,4.47c.34.2.3.54-.1.77l-4.24,2.45A1.49,1.49,0,0,1,167.72,272.72Z"/><polygon class="cls-42" points="169.92 269.77 164.41 266.59 165.38 266.03 170.88 269.21 169.92 269.77"/><path class="cls-35" d="M167,260.9c-.8,0-1.44.32-1.44.72s.64.73,1.44.73,1.44-.33,1.44-.73S167.78,260.9,167,260.9Z"/><path class="cls-36" d="M167,261.36c-.44,0-.79.18-.79.4s.35.4.79.4.79-.18.79-.4S167.42,261.36,167,261.36Z"/><path class="cls-35" d="M179,267.86c-.8,0-1.44.33-1.44.73s.64.73,1.44.73,1.43-.33,1.43-.73S179.8,267.86,179,267.86Z"/><path class="cls-36" d="M179,268.33c-.44,0-.79.18-.79.4s.35.4.79.4.79-.18.79-.4S179.44,268.33,179,268.33Z"/><path class="cls-35" d="M168,274.2c-.8,0-1.44.33-1.44.73s.64.73,1.44.73,1.43-.33,1.43-.73S168.78,274.2,168,274.2Z"/><path class="cls-36" d="M168,274.67c-.44,0-.79.18-.79.4s.35.4.79.4.78-.18.78-.4S168.42,274.67,168,274.67Z"/><path class="cls-35" d="M155.89,267.17c-.79,0-1.44.33-1.44.73s.65.73,1.44.73,1.44-.33,1.44-.73S156.68,267.17,155.89,267.17Z"/><path class="cls-36" d="M155.89,267.64c-.43,0-.79.18-.79.4s.36.4.79.4.79-.18.79-.4S156.33,267.64,155.89,267.64Z"/><rect class="cls-6" y="337.31" width="350" height="145"/><text class="cls-51" transform="translate(30.19 415.4)">전기공사 및 관리자과정</text><text class="cls-52" transform="translate(99.4 454)">2022년 4월 12일</text><text class="cls-53" transform="translate(10.69 365.55)">스마트훈련</text></svg>