<svg xmlns="http://www.w3.org/2000/svg" xmlns:xlink="http://www.w3.org/1999/xlink" viewBox="0 0 350 482"><defs><style>.cls-1{isolation:isolate;}.cls-2{fill:#579b99;}.cls-3{fill:#c7c6d4;}.cls-4{fill:#c8c3e1;}.cls-5{fill:#a2a7c8;}.cls-6{fill:url(#Untitled_Gradient_3);}.cls-7{fill:url(#Untitled_Gradient_3-2);}.cls-8{fill:#7f9fd3;}.cls-9{fill:#f5a71a;}.cls-10{fill:#949cc7;}.cls-11{fill:#43b9a6;}.cls-12{fill:#6186c4;}.cls-13,.cls-34{fill:#d74932;}.cls-13{opacity:0.32;}.cls-13,.cls-30,.cls-42,.cls-58{mix-blend-mode:multiply;}.cls-14,.cls-42{fill:#ea523a;}.cls-15{fill:#f1f0f8;}.cls-16{fill:#58b8bc;}.cls-17{fill:#527abd;}.cls-18{fill:#e84028;}.cls-19{fill:#dc6752;}.cls-20{fill:#0a434b;}.cls-21{fill:#159299;}.cls-22{opacity:0.5;}.cls-23{fill:#125763;}.cls-24{fill:#077075;}.cls-25{fill:#9e3759;}.cls-26,.cls-45{fill:#521c2e;}.cls-27{fill:#f8e485;}.cls-28{fill:#f29d81;}.cls-29{fill:#129293;}.cls-30{fill:#ee7c4f;opacity:0.68;}.cls-31{fill:#172141;}.cls-32{fill:#dbd7eb;}.cls-33{fill:#2e6061;}.cls-35{fill:#b9b7db;}.cls-36{fill:#6f6d7c;}.cls-37{fill:#016769;}.cls-38{fill:#1f2b62;}.cls-39{fill:#153390;}.cls-40{fill:#1e2d68;}.cls-41{fill:#2c4c9e;}.cls-43{fill:#1e2950;}.cls-44,.cls-47{fill:#1a3140;}.cls-44{opacity:0.35;}.cls-45{opacity:0.51;}.cls-46,.cls-50{fill:#676375;}.cls-48{fill:#b84f71;}.cls-49{fill:#003b84;}.cls-50{opacity:0.22;mix-blend-mode:screen;}.cls-51{fill:#1f304f;}.cls-52{fill:#0c4e58;}.cls-53{fill:#083b42;}.cls-54{fill:#1c2f68;}.cls-55{fill:#8c2a4b;}.cls-56{fill:#792a44;}.cls-57{fill:#132241;}.cls-58{fill:#73c9e1;}.cls-59{fill:#fff;}.cls-60{font-size:30px;}.cls-60,.cls-62{fill:#231916;font-family:NotoSansKR-Bold-KSCpc-EUC-H, Noto Sans KR;}.cls-61{font-size:21px;fill:#828182;font-family:NotoSansKR-Medium-KSCpc-EUC-H, Noto Sans KR;}.cls-62{font-size:18px;}</style><linearGradient id="Untitled_Gradient_3" x1="262.16" y1="207.68" x2="330.25" y2="207.68" gradientUnits="userSpaceOnUse"><stop offset="0" stop-color="#ebb31b"/><stop offset="1" stop-color="#f4c21f"/></linearGradient><linearGradient id="Untitled_Gradient_3-2" x1="1107.67" y1="-1380.32" x2="1123.71" y2="-1380.32" gradientTransform="matrix(0.84, 0.54, -0.54, 0.84, -1400.22, 766.12)" xlink:href="#Untitled_Gradient_3"/></defs><title>Artboard 24 copy 13</title><g class="cls-1"><g id="레이어_1" data-name="레이어 1"><rect class="cls-2" x="-0.09" y="0.75" width="350" height="482"/><path class="cls-3" d="M29.66,257.38H318.74a0,0,0,0,1,0,0v0a19.28,19.28,0,0,1-19.28,19.28H48.94a19.28,19.28,0,0,1-19.28-19.28v0a0,0,0,0,1,0,0Z"/><rect class="cls-4" x="286.01" y="176.76" width="31.23" height="50.62" rx="4.74" transform="translate(-46.46 305.24) rotate(-50.33)"/><path class="cls-5" d="M327.43,203.19l-31.68-26.28a4.72,4.72,0,0,0-4.87-.71,4.77,4.77,0,0,1,2.42,1.05L325,203.52a4.74,4.74,0,0,1,.62,6.67l-13.89,16.75a4.83,4.83,0,0,1-1.79,1.34,4.76,4.76,0,0,0,4.24-1.68l13.89-16.75A4.73,4.73,0,0,0,327.43,203.19Z"/><path class="cls-6" d="M301.4,190.31l.4-2.71a2,2,0,0,0-.91-2L285,175.52a2,2,0,0,0-2.77.62l-6.85,10.8,0,0-12.91,20.36a2,2,0,0,0,.62,2.77L310,239.85a2,2,0,0,0,2.78-.62l17.13-27a2,2,0,0,0-.62-2.78l-27-17.12A2,2,0,0,1,301.4,190.31Z"/><path class="cls-7" d="M297.31,186.56l-11.12-7.05a2.44,2.44,0,0,0-3.37.76l-7.09,11.17,0,0-10.89,17.17a.44.44,0,0,0,.74.47L277,191.19l0,0,6.61-10.43a1.57,1.57,0,0,1,2.18-.49l11.11,7.05a.43.43,0,0,0,.6-.14A.44.44,0,0,0,297.31,186.56Z"/><circle class="cls-8" cx="103.32" cy="155.05" r="45.55" transform="translate(-82.55 142.17) rotate(-52.36)"/><circle class="cls-9" cx="103.32" cy="155.05" r="44.36" transform="translate(-60.16 244.42) rotate(-84.99)"/><circle class="cls-8" cx="103.4" cy="155.24" r="40.18" transform="translate(-32.15 27.11) rotate(-12.94)"/><circle class="cls-4" cx="103.32" cy="155.05" r="38.09" transform="translate(-77.49 200.01) rotate(-70.28)"/><path class="cls-8" d="M73.22,164.47l-6.09,2.33a1.94,1.94,0,1,0,1.39,3.62l6.09-2.32a1.94,1.94,0,0,0-1.39-3.63Z"/><path class="cls-8" d="M113.87,182.64a2,2,0,0,0-1.12,2.51l2.33,6.09a1.94,1.94,0,1,0,3.62-1.39l-2.32-6.09A2,2,0,0,0,113.87,182.64Z"/><path class="cls-8" d="M138.13,139.67,132,142a1.94,1.94,0,0,0,1.39,3.63l6.09-2.33a1.94,1.94,0,1,0-1.39-3.62Z"/><path class="cls-8" d="M89.07,117.73A1.94,1.94,0,0,0,88,120.24l2.32,6.09a1.94,1.94,0,0,0,3.63-1.39l-2.33-6.09A2,2,0,0,0,89.07,117.73Z"/><rect class="cls-9" x="104.44" y="95.51" width="9.35" height="10.41" rx="1.07" transform="matrix(0.1, -0.99, 0.99, 0.1, -2.18, 199.01)"/><path class="cls-9" d="M114,95.93l0-.29c.06-.56-.19-1-.54-1.07l-7.36-.76c-.35,0-.69.39-.74,1l0,.28Z"/><path class="cls-9" d="M112,109.42l.32-3.1-7.48-.76-.31,3A46.53,46.53,0,0,1,112,109.42Z"/><rect class="cls-9" x="57.99" y="113.58" width="10.41" height="9.35" rx="1.07" transform="translate(-66.79 85.35) rotate(-47.67)"/><path class="cls-9" d="M56.39,117.93l-.22-.19c-.41-.38-.55-.9-.31-1.16l5-5.47c.24-.26.77-.17,1.18.21l.22.19Z"/><path class="cls-9" d="M71.75,121l-2.14-2-5.06,5.56,2.13,1.93A45.75,45.75,0,0,1,71.75,121Z"/><rect class="cls-9" x="77.02" y="97.07" width="12.68" height="7.28" rx="1.04" transform="translate(-30.46 36.39) rotate(-20.92)"/><path class="cls-9" d="M86.84,95l-.08-.21a.8.8,0,0,0-1-.46l-8.41,3.22a.78.78,0,0,0-.45,1l.08.21Z"/><path class="cls-9" d="M94.89,91.38a14.1,14.1,0,1,0-11.44,19l-1-2.62a11.4,11.4,0,1,1,6.31-2.41l1,2.62A14.13,14.13,0,0,0,94.89,91.38Z"/><path class="cls-9" d="M86.74,111.65c1.15-.44,2.32-.83,3.48-1.18l-2.67-7-5.47,2.09,2.64,6.91C85.39,112.19,86.06,111.91,86.74,111.65Z"/><path class="cls-10" d="M106.45,153.8a3.34,3.34,0,1,1-4.31-1.92A3.34,3.34,0,0,1,106.45,153.8Z"/><path class="cls-10" d="M107.75,127.81l-3.26,27.36a1.25,1.25,0,0,1-2.49-.29C102,154.77,101.76,156,107.75,127.81Z"/><path class="cls-11" d="M104.61,154.51a1.37,1.37,0,1,1-1.77-.79A1.38,1.38,0,0,1,104.61,154.51Z"/><path class="cls-11" d="M128,165a.22.22,0,0,1-.16,0l-24.33-9.91a.21.21,0,0,1-.12-.28.22.22,0,0,1,.28-.12L128,164.6a.22.22,0,0,1,.12.28A.23.23,0,0,1,128,165Z"/><path class="cls-12" d="M117.58,132.62v57.74a38.08,38.08,0,0,0,10.6-64.17H124A6.43,6.43,0,0,0,117.58,132.62Z"/><path class="cls-12" d="M117.58,132.62v60.21l.16-.06a40.2,40.2,0,0,0,13.43-66.58H124A6.43,6.43,0,0,0,117.58,132.62Z"/><path class="cls-12" d="M117.58,132.62v64.43c.53-.17,1.06-.36,1.58-.56A44.4,44.4,0,0,0,137,126.19H124A6.43,6.43,0,0,0,117.58,132.62Z"/><path class="cls-13" d="M117.58,132.62V198.3c.67-.22,1.34-.45,2-.71a45.55,45.55,0,0,0,19-71.4H124A6.43,6.43,0,0,0,117.58,132.62Z"/><rect class="cls-14" x="103.37" y="151.87" width="26.48" height="105.51" rx="9.77" transform="translate(233.21 409.25) rotate(180)"/><rect class="cls-15" x="131.98" y="151.87" width="26.48" height="105.51" transform="translate(290.44 409.25) rotate(180)"/><rect class="cls-15" x="161.48" y="151.87" width="26.48" height="105.51" transform="translate(349.43 409.25) rotate(180)"/><rect class="cls-16" x="78.84" y="167.34" width="22.58" height="90.04" rx="1.45"/><path class="cls-17" d="M63.3,205.73h3.05a9.77,9.77,0,0,1,9.77,9.77v32.12a9.76,9.76,0,0,1-9.76,9.76H63.3a9.77,9.77,0,0,1-9.77-9.77V215.5A9.77,9.77,0,0,1,63.3,205.73Z" transform="translate(129.65 463.11) rotate(180)"/><rect class="cls-18" x="28.33" y="224.48" width="22.58" height="32.9" rx="9.77" transform="translate(79.24 481.86) rotate(180)"/><path class="cls-19" d="M43.12,251.39l-.46,4.09L44,256.81l1.77-1.05a10.71,10.71,0,0,1-.35-1.43,18.22,18.22,0,0,1,1.17-3.75Z"/><path class="cls-20" d="M42.52,254.68a4.07,4.07,0,0,0-.61,1.82,6.27,6.27,0,0,0,.19,2.22,49.42,49.42,0,0,0,7.72-.09c2.17-.4,2.36-.78,2.31-1.4s-3-.43-3.88-1.16-2.11-2.33-2.63-2.07-.42,1.25-1.13,1.31S42.83,254.31,42.52,254.68Z"/><path class="cls-19" d="M25.67,251.47l-3.33,2.44-.07,1.88,2,.6a10.16,10.16,0,0,1,.81-1.22,18.09,18.09,0,0,1,3.55-1.68Z"/><path class="cls-20" d="M22.83,253.26a4.13,4.13,0,0,0-1.75.78,6.21,6.21,0,0,0-1.5,1.65,50,50,0,0,0,5.28,5.62c1.76,1.33,2.17,1.21,2.59.76s-1.71-2.51-1.77-3.65.29-3.13-.25-3.34-1.2.54-1.72.06S23.32,253.24,22.83,253.26Z"/><path class="cls-21" d="M33.36,219.18S35.82,236,35.82,238s-11.72,13.1-11.72,13.1.39,3.75,3.21,4.13c.68.09,13.79-11.63,14.55-13.38.86-2,3.23-16.23,3.23-16.23s5.32,8,5.09,9.64c-.37,2.59-8.32,16.47-8.32,16.47s1.08,2.4,4.94.74c0,0,10.62-13.54,12.2-15.11s-11.42-22.9-11.42-22.9Z"/><g class="cls-22"><path class="cls-23" d="M40.17,220.07a21.4,21.4,0,0,0-.51-3l-6.3,2.07s.33,2.24.75,5.18a6.06,6.06,0,0,0,3.23,1c1.23-.25,2.84-2.1,2.84-5.3Z"/></g><path class="cls-24" d="M33.36,219.18a161,161,0,0,1,3,18.76c.4,2.28-10.13,11.45-12.3,13.2,3.93-4.37,10.82-11.51,11.13-13-.09-.69.29,1.82-.51-5.21-.17-1.52-.36-3-.51-4.56C33.87,225.29,33.57,222.24,33.36,219.18Z"/><path class="cls-21" d="M47.56,215.58h0Z"/><path class="cls-21" d="M47.32,215.58h0Z"/><path class="cls-21" d="M48.61,215.66h0Z"/><path class="cls-21" d="M31.08,188.46h0Z"/><path class="cls-21" d="M47.79,215.59h0Z"/><path class="cls-21" d="M47.69,215.58h0Z"/><path class="cls-21" d="M47.21,215.58h0Z"/><path class="cls-21" d="M31,188.44h0Z"/><path class="cls-21" d="M47,215.59h0Z"/><path class="cls-21" d="M46.85,215.59h0Z"/><path class="cls-21" d="M47.08,215.58h0Z"/><path class="cls-21" d="M31.32,188.52h0Z"/><path class="cls-21" d="M31.47,188.55l.22.06Z"/><path class="cls-21" d="M48.37,215.63h0Z"/><path class="cls-21" d="M31.7,188.62h0Z"/><path class="cls-21" d="M48.5,215.64h0Z"/><path class="cls-21" d="M48.27,215.62h0Z"/><path class="cls-21" d="M48,215.6h0Z"/><path class="cls-21" d="M47.91,215.59h0Z"/><path class="cls-21" d="M31.39,188.53l.07,0Z"/><path class="cls-21" d="M48.14,215.61h0Z"/><path class="cls-21" d="M31.16,188.48l.14,0Z"/><path class="cls-21" d="M45.66,215.7l-.11,0Z"/><path class="cls-21" d="M45.54,215.72h0Z"/><path class="cls-21" d="M30.09,188.24h0Z"/><path class="cls-21" d="M45.9,215.67h0Z"/><path class="cls-21" d="M30.18,188.26l.16,0Z"/><path class="cls-21" d="M45.78,215.68l-.09,0Z"/><path class="cls-21" d="M45.18,215.78h0Z"/><path class="cls-21" d="M45.42,215.74h0Z"/><path class="cls-21" d="M29.92,188.21h0Z"/><path class="cls-21" d="M45.31,215.75l-.1,0Z"/><path class="cls-21" d="M30,188.22l.08,0Z"/><path class="cls-21" d="M30.92,188.42h0Z"/><path class="cls-21" d="M46.49,215.61h0Z"/><path class="cls-21" d="M46,215.66h0Z"/><path class="cls-21" d="M30.75,188.38l.16,0Z"/><path class="cls-21" d="M46.62,215.6h0Z"/><path class="cls-21" d="M46.73,215.6h0Z"/><path class="cls-21" d="M46.38,215.62h0Z"/><path class="cls-21" d="M46.14,215.64h0Z"/><path class="cls-21" d="M30.34,188.29l.24.05Z"/><path class="cls-21" d="M46.25,215.63h0Z"/><path class="cls-21" d="M30.59,188.34l.15,0Z"/><path class="cls-21" d="M49.07,215.73l-.1,0Z"/><path class="cls-21" d="M34.58,189.6h0Z"/><path class="cls-21" d="M32.84,189l.24.08Z"/><path class="cls-21" d="M34.32,189.49h0Z"/><path class="cls-21" d="M34.07,189.39l.12.05Z"/><path class="cls-21" d="M34.21,189.45l.11,0Z"/><path class="cls-21" d="M32.77,188.94l.06,0Z"/><path class="cls-21" d="M34.53,189.57l0,0Z"/><path class="cls-21" d="M32.57,188.87l.06,0Z"/><path class="cls-21" d="M48.84,215.69l-.21,0Z"/><path class="cls-21" d="M34.4,189.52l.05,0Z"/><path class="cls-21" d="M34.47,189.55l.05,0Z"/><path class="cls-21" d="M34.36,189.51h0Z"/><path class="cls-21" d="M33.57,189.21h0Z"/><path class="cls-21" d="M33.62,189.23h0Z"/><path class="cls-21" d="M33.34,189.13l.16.06Z"/><path class="cls-21" d="M33.51,189.19l.05,0Z"/><path class="cls-21" d="M33.17,189.07l.16.05Z"/><path class="cls-21" d="M34,189.38h0Z"/><path class="cls-21" d="M33.68,189.25l.24.09Z"/><path class="cls-21" d="M34,189.36h0Z"/><path class="cls-21" d="M33.1,189l0,0Z"/><path class="cls-21" d="M33.94,189.34l0,0Z"/><path class="cls-21" d="M32.64,188.89l.13.05Z"/><path class="cls-21" d="M31.92,188.68l.07,0Z"/><path class="cls-21" d="M49.18,215.75l-.08,0Z"/><path class="cls-21" d="M49.3,215.77l-.1,0Z"/><path class="cls-21" d="M32,188.7l.06,0Z"/><path class="cls-21" d="M49.54,215.83l-.1,0Z"/><path class="cls-21" d="M49.41,215.8l-.08,0Z"/><path class="cls-21" d="M49,215.71l-.08,0Z"/><path class="cls-21" d="M31.85,188.66l.07,0Z"/><path class="cls-21" d="M31.78,188.64l.06,0Z"/><path class="cls-21" d="M45.07,215.8l-.11,0Z"/><path class="cls-21" d="M34.72,189.65l.06,0Z"/><path class="cls-21" d="M49.64,215.85l-.09,0Z"/><path class="cls-21" d="M34.78,189.68h0Z"/><path class="cls-21" d="M32.29,188.79l.27.08Z"/><path class="cls-21" d="M34.82,189.7h0Z"/><path class="cls-21" d="M34.64,189.62l0,0Z"/><path class="cls-21" d="M32.22,188.77l.07,0Z"/><path class="cls-21" d="M49.76,215.88l-.09,0Z"/><path class="cls-21" d="M34.86,189.71Z"/><path class="cls-21" d="M32.07,188.72l.14,0Z"/><path class="cls-21" d="M34.85,189.71h0Z"/><path class="cls-21" d="M28.74,188l.16,0Z"/><path class="cls-21" d="M42,216.66l-.05,0Z"/><path class="cls-21" d="M28.07,188h0Z"/><path class="cls-21" d="M41.89,216.7l-.08,0Z"/><path class="cls-21" d="M41.51,216.85h0Z"/><path class="cls-21" d="M42.12,216.62l-.08,0Z"/><path class="cls-21" d="M28.15,188h0Z"/><path class="cls-21" d="M27.73,188h0Z"/><path class="cls-21" d="M41.66,216.79h0Z"/><path class="cls-21" d="M27.9,188h0Z"/><path class="cls-21" d="M41.76,216.75l0,0Z"/><path class="cls-21" d="M42.22,216.58h0Z"/><path class="cls-21" d="M42.8,216.38l-.06,0Z"/><path class="cls-21" d="M28.49,188l.24,0Z"/><path class="cls-21" d="M42.32,216.54l0,0Z"/><path class="cls-21" d="M43,216.3l-.06,0Z"/><path class="cls-21" d="M42.93,216.34l-.08,0Z"/><path class="cls-21" d="M42.7,216.41l-.08,0Z"/><path class="cls-21" d="M28.32,188l.16,0Z"/><path class="cls-21" d="M42.46,216.49l0,0Z"/><path class="cls-21" d="M42.56,216.46l-.05,0Z"/><path class="cls-21" d="M40.29,217.37h0Z"/><path class="cls-21" d="M40.21,217.41h0Z"/><path class="cls-21" d="M40.52,217.27h0Z"/><path class="cls-21" d="M40.43,217.31h0Z"/><path class="cls-21" d="M27.15,188h0Z"/><path class="cls-21" d="M27.07,188h0Z"/><path class="cls-21" d="M43.18,216.26l-.1,0Z"/><path class="cls-21" d="M39.53,217.73c-.82-8-9.53-24.3-12.55-29.73a4.08,4.08,0,0,0-3.39,1.71c-2.42,3.9.52,20.45,3.21,25.31a17.56,17.56,0,0,0,3.32,4.28c1.58,1.49,5.26,3.61,6.68,3.34,1.18-.23,2.73-1.95,2.73-4.91Z"/><path class="cls-21" d="M40,217.52h0Z"/><path class="cls-21" d="M47.34,215.58h0Z"/><path class="cls-21" d="M27,188h0Z"/><path class="cls-21" d="M41.06,217l0,0Z"/><path class="cls-21" d="M41.2,217l0,0Z"/><path class="cls-21" d="M27.32,188h0Z"/><path class="cls-21" d="M41.31,216.93l-.06,0Z"/><path class="cls-21" d="M27.64,188h0Z"/><path class="cls-21" d="M27.56,188h0Z"/><path class="cls-21" d="M27.48,188h0Z"/><path class="cls-21" d="M40.74,217.17h0Z"/><path class="cls-21" d="M41.43,216.88l0,0Z"/><path class="cls-21" d="M41,217.07h0Z"/><path class="cls-21" d="M40.65,217.21h0Z"/><path class="cls-21" d="M29.17,188.09h0Z"/><path class="cls-21" d="M43.76,216.09l-.1,0Z"/><path class="cls-21" d="M44.58,215.89l-.1,0Z"/><path class="cls-21" d="M43.86,216.07h0Z"/><path class="cls-21" d="M43.51,216.16l-.07,0Z"/><path class="cls-21" d="M44.7,215.87l-.08,0Z"/><path class="cls-21" d="M43.63,216.13l-.07,0Z"/><path class="cls-21" d="M29.59,188.15l.16,0Z"/><path class="cls-21" d="M44.34,216l-.08,0Z"/><path class="cls-21" d="M44.24,216l-.1,0Z"/><path class="cls-21" d="M29.33,188.11l.17,0Z"/><path class="cls-21" d="M29.25,188.1h0Z"/><path class="cls-21" d="M44.47,215.92l-.09,0Z"/><path class="cls-21" d="M29.51,188.14h0Z"/><path class="cls-21" d="M44.1,216,44,216Z"/><path class="cls-21" d="M44,216l-.1,0Z"/><path class="cls-21" d="M28.91,188.06l.16,0Z"/><path class="cls-21" d="M43.28,216.23l-.08,0Z"/><path class="cls-21" d="M44.82,215.84l-.09,0Z"/><path class="cls-21" d="M29.75,188.18l.17,0Z"/><path class="cls-21" d="M43.4,216.2l-.08,0Z"/><path class="cls-21" d="M29.08,188.08h0Z"/><path class="cls-21" d="M44.94,215.82l-.08,0Z"/><path class="cls-25" d="M32.63,188.89h0Z"/><path class="cls-25" d="M29.5,188.14h0Z"/><path class="cls-25" d="M33.33,189.12h0Z"/><path class="cls-25" d="M32.56,188.87h0Z"/><path class="cls-25" d="M30,188.22h0Z"/><path class="cls-25" d="M27.47,188h0Z"/><polygon class="cls-25" points="26.98 188 26.98 188 26.98 188 26.98 188"/><path class="cls-25" d="M27.55,188h0Z"/><path class="cls-25" d="M30.34,188.29Z"/><path class="cls-25" d="M30.09,188.24Z"/><path class="cls-25" d="M33.15,189.06h0Z"/><path class="cls-25" d="M33.08,189h0Z"/><path class="cls-25" d="M29.92,188.21Z"/><path class="cls-25" d="M27.14,188h0Z"/><path class="cls-25" d="M32.83,189h0Z"/><path class="cls-25" d="M32.77,188.94Z"/><path class="cls-25" d="M31.3,188.51h0Z"/><path class="cls-25" d="M27.3,188h0Z"/><path class="cls-25" d="M29.58,188.15h0Z"/><path class="cls-25" d="M30.17,188.25h0Z"/><path class="cls-25" d="M27.06,188h0Z"/><path class="cls-25" d="M31.69,188.61h0Z"/><path class="cls-25" d="M28.48,188h0Z"/><path class="cls-25" d="M29.07,188.08h0Z"/><path class="cls-25" d="M31.07,188.45h0Z"/><path class="cls-25" d="M31.76,188.63h0Z"/><path class="cls-25" d="M29.16,188.09h0Z"/><path class="cls-25" d="M28.31,188h0Z"/><path class="cls-25" d="M33.5,189.19h0Z"/><path class="cls-25" d="M31.84,188.66h0Z"/><path class="cls-25" d="M28.9,188.06h0Z"/><path class="cls-25" d="M31.38,188.53h0Z"/><path class="cls-25" d="M31.14,188.47h0Z"/><path class="cls-25" d="M28.73,188h0Z"/><path class="cls-25" d="M31.46,188.55h0Z"/><path class="cls-25" d="M30.74,188.38h0Z"/><path class="cls-25" d="M29.33,188.11Z"/><path class="cls-25" d="M31,188.43h0Z"/><path class="cls-25" d="M32.06,188.72h0Z"/><path class="cls-25" d="M32.21,188.76h0Z"/><path class="cls-25" d="M30.58,188.34h0Z"/><path class="cls-25" d="M28.06,188h0Z"/><path class="cls-25" d="M27.89,188h0Z"/><path class="cls-25" d="M31.92,188.68Z"/><path class="cls-25" d="M29.25,188.1Z"/><path class="cls-25" d="M32,188.7h0Z"/><path class="cls-25" d="M30.91,188.41h0Z"/><path class="cls-25" d="M28.14,188h0Z"/><path class="cls-25" d="M44.14,216h0Z"/><path class="cls-25" d="M43.79,216.08h0Z"/><path class="cls-25" d="M43.44,216.18l0,0Z"/><path class="cls-25" d="M43.56,216.15h0Z"/><path class="cls-25" d="M44,216h0Z"/><path class="cls-25" d="M43.9,216.06h0Z"/><path class="cls-25" d="M43.66,216.12h0Z"/><path class="cls-25" d="M43,216.32l0,0Z"/><path class="cls-25" d="M42.85,216.36l-.05,0Z"/><path class="cls-25" d="M43.2,216.25h0Z"/><path class="cls-25" d="M43.32,216.22h0Z"/><path class="cls-25" d="M43.08,216.29h0Z"/><path class="cls-25" d="M45.21,215.77h0Z"/><path class="cls-25" d="M42.74,216.4h0Z"/><path class="cls-25" d="M45.09,215.79h0Z"/><path class="cls-25" d="M45.33,215.75h0Z"/><path class="cls-25" d="M45.45,215.73h0Z"/><path class="cls-25" d="M45,215.82h0Z"/><path class="cls-25" d="M45.55,215.72h0Z"/><path class="cls-25" d="M44.73,215.86h0Z"/><path class="cls-25" d="M44.38,215.94h0Z"/><path class="cls-25" d="M44.48,215.91h0Z"/><path class="cls-25" d="M44.26,216h0Z"/><path class="cls-25" d="M44.86,215.84h0Z"/><path class="cls-25" d="M44.62,215.89h0Z"/><path class="cls-25" d="M41.81,216.73l-.05,0Z"/><path class="cls-25" d="M40.94,217.08l-.2.09Z"/><path class="cls-25" d="M41.25,217l0,0Z"/><path class="cls-25" d="M40.63,217.22l-.11.05Z"/><path class="cls-25" d="M42.62,216.44l-.06,0Z"/><path class="cls-25" d="M40.48,217.28l0,0Z"/><path class="cls-25" d="M41,217.05l-.05,0Z"/><path class="cls-25" d="M40.71,217.18l-.06,0Z"/><path class="cls-25" d="M40,217.52l-.44.21Z"/><path class="cls-25" d="M40.26,217.38l0,0Z"/><path class="cls-25" d="M40.41,217.32l-.12.05Z"/><path class="cls-25" d="M40.18,217.42a1.24,1.24,0,0,0-.2.1A1.24,1.24,0,0,1,40.18,217.42Z"/><path class="cls-25" d="M33.56,189.21h0Z"/><path class="cls-25" d="M42.28,216.56l-.06,0Z"/><path class="cls-25" d="M42,216.64l0,0Z"/><path class="cls-25" d="M41.38,216.9l-.07,0Z"/><path class="cls-25" d="M42.51,216.48h0Z"/><path class="cls-25" d="M42.42,216.51l-.1,0Z"/><path class="cls-25" d="M42.18,216.59l-.06,0Z"/><path class="cls-25" d="M41.62,216.8l-.11,0Z"/><path class="cls-25" d="M41.49,216.85l-.06,0Z"/><path class="cls-25" d="M41.94,216.68l0,0Z"/><path class="cls-25" d="M41.72,216.77l-.06,0Z"/><path class="cls-25" d="M45.69,215.7h0Z"/><path class="cls-25" d="M41.17,217l-.11,0Z"/><path class="cls-25" d="M34.82,189.69h0Z"/><path class="cls-25" d="M34.84,189.71h0Z"/><path class="cls-25" d="M49.67,215.86h0Z"/><path class="cls-25" d="M34.81,189.69h0Z"/><path class="cls-25" d="M34.78,189.68Z"/><path class="cls-25" d="M34.69,189.64h0Z"/><path class="cls-25" d="M49.2,215.75h0Z"/><path class="cls-25" d="M34.6,189.6l0,0Z"/><path class="cls-25" d="M49.1,215.73h0Z"/><path class="cls-25" d="M49.55,215.83h0Z"/><path class="cls-25" d="M49.33,215.78h0Z"/><path class="cls-25" d="M49.44,215.8h0Z"/><path class="cls-25" d="M34.52,189.57h0Z"/><path class="cls-25" d="M34.06,189.39h0Z"/><path class="cls-25" d="M34,189.36h0Z"/><path class="cls-25" d="M49,215.71h0Z"/><path class="cls-25" d="M33.92,189.34h0Z"/><path class="cls-25" d="M33.66,189.24h0Z"/><path class="cls-25" d="M33.61,189.22h0Z"/><path class="cls-25" d="M34,189.37h0Z"/><path class="cls-25" d="M34.45,189.54h0Z"/><path class="cls-25" d="M34.38,189.51h0Z"/><path class="cls-25" d="M34.32,189.49Z"/><path class="cls-25" d="M34.19,189.44h0Z"/><path class="cls-25" d="M34.36,189.5h0Z"/><path class="cls-25" d="M45.93,215.67h0Z"/><path class="cls-25" d="M46.76,215.59h0Z"/><path class="cls-25" d="M46.86,215.59h0Z"/><path class="cls-25" d="M46.62,215.6Z"/><path class="cls-25" d="M46.52,215.61h0Z"/><path class="cls-25" d="M47,215.58h0Z"/><path class="cls-25" d="M47.11,215.58h0Z"/><path class="cls-25" d="M46,215.65h0Z"/><path class="cls-25" d="M45.8,215.68h0Z"/><path class="cls-25" d="M47.23,215.58h0Z"/><path class="cls-25" d="M46.28,215.63h0Z"/><path class="cls-25" d="M46.17,215.64h0Z"/><path class="cls-25" d="M46.4,215.62h0Z"/><path class="cls-25" d="M47.58,215.58h0Z"/><path class="cls-25" d="M48.29,215.62h0Z"/><path class="cls-25" d="M48.4,215.63h0Z"/><path class="cls-25" d="M48.52,215.65h0Z"/><path class="cls-25" d="M48.16,215.61h0Z"/><path class="cls-25" d="M48.63,215.66h0Z"/><path class="cls-25" d="M48.87,215.69h0Z"/><path class="cls-25" d="M47.69,215.58Z"/><path class="cls-25" d="M47.46,215.58h0Z"/><path class="cls-25" d="M47.82,215.59h0Z"/><path class="cls-25" d="M48.06,215.6h0Z"/><path class="cls-25" d="M47.93,215.59h0Z"/><path class="cls-25" d="M39.53,217.73l.44-.21h0a1.24,1.24,0,0,1,.2-.1h0l0,0h0l.12-.05h0l0,0h0l.11-.05h0l.06,0h0l.2-.09h0l.05,0,0,0,.11,0,0,0,0,0,.06,0,.07,0,0,0,.06,0h0l.11,0h0l.06,0,0,0,.05,0,.08,0,0,0,.05,0,0,0,.08,0,.06,0h0l.06,0,0,0,.1,0,0,0h0l.05,0,.06,0,.08,0h0l.06,0,.05,0,.08,0,0,0,.06,0h0l.1,0h0l.08,0h0l.08,0,0,0,.07,0h.05l.07,0h0l.1,0h.14l.1,0h0l.08,0h0l.1,0h0l.08,0h0l.09,0h0l.1,0h0l.08,0h0l.09,0h0l.08,0h0l.11,0h.14l.1,0h.24l.11,0h0l.09,0h2.85l.21,0h0l.08,0h0l.1,0h0l.08,0h0l.1,0h0l.08,0h0l.1,0h0l.09,0h0l.09,0s-12.37-25.26-14.9-26.17h-.08l-.06,0h0l0,0,0,0h0l0,0h0l-.05,0h0l-.05,0h-.08l-.11,0h0l-.12-.05H34l0,0h0l-.24-.09h-.12l-.05,0h0l-.16-.06h0l-.16-.05h0l0,0h0l-.24-.08h0l-.06,0h0l-.13-.05h0l-.06,0h0l-.27-.08h0l-.07,0h0l-.14,0h0l-.06,0h0l-.07,0h0l-.07,0h0l-.06,0h-.09l-.22-.06h0l-.07,0H31.3l-.14,0h-.25l-.16,0h0l-.15,0h0l-.24-.05h0l-.16,0h-.09l-.08,0h-.09l-.17,0h0l-.16,0H29.5l-.17,0h-.26l-.16,0h0l-.16,0h0l-.24,0h0l-.16,0H27c3,5.43,11.73,21.68,12.55,29.73Z"/><g class="cls-22"><path class="cls-26" d="M34.34,202.43a79.73,79.73,0,0,1,4.56,12c3.27.08,7.4-.09,10-.22-1.24-2.49-2.12-4.22-2.46-4.9Z"/></g><g class="cls-22"><path class="cls-23" d="M34.71,214.07a22.57,22.57,0,0,0,4.19.37,79.73,79.73,0,0,0-4.56-12L22.7,195.82v.09a20.89,20.89,0,0,0,5.92,13.32C31,211.66,33.34,213.74,34.71,214.07Z"/></g><rect class="cls-14" x="35.66" y="186.97" width="26.57" height="26.57" rx="11.39"/><path class="cls-27" d="M47.55,203.52c.92,2.89,3.35,3.4,6,2.62a1.35,1.35,0,0,1,1.71,1.3v.1a1.38,1.38,0,0,1-.93,1.29c-4.46,1.53-9.32.22-10.48-5.31H43a1,1,0,0,1-1-1h0a1,1,0,0,1,1-1h.57a16.21,16.21,0,0,1,0-2.2H43a1,1,0,0,1-1-1h0a1,1,0,0,1,1-1H44c1.29-5.18,5.68-6.91,10.26-5.69a1.36,1.36,0,0,1,1,1.31v.27a1.35,1.35,0,0,1-1.7,1.31c-2.64-.77-5-.16-6,2.8h3.84a1,1,0,0,1,1,1h0a1,1,0,0,1-1,1H47.1c0,.43,0,1.76,0,2.2h4.29a1,1,0,0,1,1,1h0a1,1,0,0,1-1,1Z"/><path class="cls-28" d="M51,208.86c.19,0,3.56,1.29,5.85,0,1-.56,2.26-.24,1.79.85s-2.66.62-3,.92,3.76,2.53,4.87,2.72-.71,1.14-1.14,1.14-.09.17-.52.61-1.49.33-2,.43c-1.66.34-6.09-2.72-6.76-3.39S51,208.86,51,208.86Z"/><path class="cls-29" d="M27.15,188a21,21,0,0,1,2.77,4.06c1,2.1,6.67,12.42,7.29,12.42S51.78,209,51.78,209a11,11,0,0,0-1,4.27s-15-2.42-16.11-2.42-2.43-2-3.56-3.12-6.73-6.23-8.34-10.22S22,187.12,27.15,188Z"/><polygon class="cls-28" points="32.41 182.49 34.21 190.5 27.15 187.99 28.53 182.52 32.41 182.49"/><path class="cls-30" d="M32.41,182.49l-3.88,0-.32,1.27a8.25,8.25,0,0,0,3.53,2.28,4.25,4.25,0,0,0,1.48,0Z"/><path class="cls-28" d="M29.52,174.8a5.49,5.49,0,0,1,2.69,1c1.47,1,2.82,3.66,2.82,3.66a13.23,13.23,0,0,1,.77,2.71c.08,1-3.47,2.63-5.23,2.41a6.82,6.82,0,0,1-4.67-4.05C25.31,178.69,28.74,174.7,29.52,174.8Z"/><path class="cls-30" d="M32.73,176.19a3.22,3.22,0,0,0-.52-.41,5.49,5.49,0,0,0-2.69-1c-.37-.05-1.33.82-2.18,1.95l.6,0a7.56,7.56,0,0,0,4-.17A5.6,5.6,0,0,0,32.73,176.19Z"/><path class="cls-31" d="M27.94,176.71a18.47,18.47,0,0,1,1.13,3.57,14.83,14.83,0,0,1,.22,4.18c-1.47.76-3.85.69-5.87-1.93s.27-4.77.78-5.17-.29-.54.07-1.58,1-.38,1.68-1.1-1.11-2.23.17-3.41,2.95,1.1,2.95,1.1.7-2.25,2-1,1.34,2.19.29,3.59A5.88,5.88,0,0,1,27.94,176.71Z"/><path class="cls-28" d="M29.08,179.32s-1.6-.77-1.6.58.55,2.08,1.34,1.74S29.08,179.32,29.08,179.32Z"/><rect class="cls-12" x="121.92" y="127.95" width="160.26" height="129.79" rx="42.12"/><rect class="cls-32" x="139.82" y="115.61" width="124.46" height="154.46" rx="23.4" transform="translate(394.89 -9.2) rotate(90)"/><path class="cls-33" d="M275.65,130.61H128.45a3.5,3.5,0,0,0-3.63,3.34v12.4H279.27V134A3.49,3.49,0,0,0,275.65,130.61Z"/><polygon class="cls-34" points="129.67 136.73 136.28 140.23 136.28 133.22 129.67 136.73"/><rect class="cls-15" x="124.82" y="142.7" width="154.46" height="6.22"/><rect class="cls-35" x="124.82" y="150.08" width="154.46" height="101.16"/><rect class="cls-15" x="148.33" y="210.54" width="25.25" height="10.13"/><rect class="cls-15" x="148.33" y="198.8" width="25.25" height="10.13"/><rect class="cls-15" x="148.33" y="234.01" width="25.25" height="10.13"/><rect class="cls-15" x="148.33" y="222.27" width="25.25" height="10.14"/><rect class="cls-15" x="148.33" y="167.11" width="25.25" height="8.05"/><rect class="cls-15" x="148.33" y="176.75" width="25.25" height="8.71"/><rect class="cls-15" x="149.2" y="177.55" width="23.51" height="7.11"/><rect class="cls-15" x="148.33" y="187.07" width="25.25" height="10.14"/><rect class="cls-15" x="229.32" y="222.27" width="25.25" height="10.14"/><rect class="cls-15" x="175.33" y="234.01" width="25.25" height="10.13"/><rect class="cls-15" x="229.32" y="210.54" width="25.25" height="10.13"/><rect class="cls-15" x="229.32" y="187.07" width="25.25" height="10.14"/><rect class="cls-15" x="229.32" y="198.8" width="25.25" height="10.13"/><rect class="cls-15" x="202.32" y="234.01" width="25.25" height="10.13"/><rect class="cls-15" x="229.32" y="234.01" width="25.25" height="10.13"/><rect class="cls-15" x="148.33" y="157.46" width="25.25" height="8.05"/><rect class="cls-15" x="175.33" y="222.27" width="25.25" height="10.14"/><rect class="cls-15" x="175.33" y="210.54" width="25.25" height="10.13"/><rect class="cls-15" x="229.32" y="176.75" width="25.25" height="8.71"/><rect class="cls-15" x="175.33" y="157.46" width="25.25" height="8.05"/><rect class="cls-15" x="175.33" y="167.11" width="25.25" height="8.05"/><rect class="cls-15" x="175.33" y="187.07" width="25.25" height="10.14"/><rect class="cls-15" x="202.32" y="222.27" width="25.25" height="10.14"/><rect class="cls-15" x="175.33" y="176.75" width="25.25" height="8.71"/><rect class="cls-15" x="175.33" y="198.8" width="25.25" height="10.13"/><rect class="cls-15" x="202.32" y="167.11" width="25.25" height="8.05"/><rect class="cls-15" x="202.32" y="176.75" width="25.25" height="8.71"/><rect class="cls-15" x="202.32" y="210.54" width="25.25" height="10.13"/><rect class="cls-15" x="202.32" y="157.46" width="25.25" height="8.05"/><rect class="cls-15" x="202.32" y="187.07" width="25.25" height="10.14"/><rect class="cls-15" x="202.32" y="198.8" width="25.25" height="10.13"/><rect class="cls-15" x="256.31" y="234.01" width="22.09" height="10.13"/><rect class="cls-15" x="175.33" y="245.74" width="25.25" height="4.7"/><rect class="cls-15" x="202.32" y="245.74" width="25.25" height="4.7"/><rect class="cls-15" x="229.32" y="245.74" width="25.25" height="4.7"/><rect class="cls-15" x="125.69" y="245.74" width="20.9" height="4.7"/><rect class="cls-15" x="125.69" y="234.01" width="20.9" height="10.13"/><rect class="cls-15" x="148.33" y="245.74" width="25.25" height="4.7"/><rect class="cls-15" x="256.31" y="245.74" width="22.09" height="4.7"/><rect class="cls-15" x="256.31" y="222.27" width="22.09" height="10.14"/><rect class="cls-15" x="256.31" y="176.75" width="22.09" height="8.71"/><rect class="cls-36" x="229.32" y="167.11" width="25.25" height="8.05"/><rect class="cls-15" x="230.19" y="167.91" width="23.51" height="6.45"/><rect class="cls-15" x="256.31" y="187.07" width="22.09" height="10.14"/><rect class="cls-15" x="256.31" y="167.11" width="22.09" height="8.05"/><rect class="cls-15" x="256.31" y="198.8" width="22.09" height="10.13"/><rect class="cls-15" x="256.31" y="210.54" width="22.09" height="10.13"/><rect class="cls-15" x="125.69" y="222.27" width="20.9" height="10.14"/><rect class="cls-15" x="256.31" y="157.46" width="22.09" height="8.05"/><rect class="cls-15" x="229.32" y="157.46" width="25.25" height="8.05"/><rect class="cls-15" x="125.69" y="176.75" width="20.9" height="8.71"/><rect class="cls-15" x="125.69" y="150.88" width="153.58" height="4.98"/><rect class="cls-15" x="125.69" y="210.54" width="20.9" height="10.13"/><rect class="cls-15" x="125.69" y="198.8" width="20.9" height="10.13"/><rect class="cls-15" x="125.69" y="187.07" width="20.9" height="10.14"/><rect class="cls-15" x="125.69" y="157.46" width="20.9" height="8.05"/><rect class="cls-15" x="125.69" y="167.11" width="20.9" height="8.05"/><path class="cls-15" d="M256.16,140.89h-5a.59.59,0,0,1-.59-.59h0a.58.58,0,0,1,.59-.59h5a.58.58,0,0,1,.59.59h0A.59.59,0,0,1,256.16,140.89Z"/><rect class="cls-15" x="266.96" y="135.7" width="5.69" height="4.4"/><rect class="cls-36" x="268.15" y="135.59" width="3.32" height="4.61" transform="translate(407.7 -131.91) rotate(90)"/><path class="cls-15" d="M272.6,130.17s-1.54-2.64-1.55-2.67h0c-.12.24-1.44,2.64-1.46,2.67h-.95l1.95-3.23-1.87-3.15h.95c1,1.82,1.21,2.13,1.44,2.58h0c.34-.71.59-1.09,1.45-2.58h.95l-1.94,3.11,2,3.27Z"/><rect class="cls-14" x="266.92" y="204.89" width="25.6" height="25.6" rx="10.98"/><rect class="cls-14" x="294.46" y="204.89" width="25.6" height="25.6" rx="10.98"/><rect class="cls-14" x="266.92" y="232.62" width="25.6" height="25.6" rx="10.98"/><rect class="cls-14" x="294.46" y="232.62" width="25.6" height="25.6" rx="10.98"/><path class="cls-27" d="M274.35,210.63l5.37,5.38,5.38-5.38a1.19,1.19,0,0,1,1.69,0h0a1.2,1.2,0,0,1,0,1.69l-5.38,5.39,5.37,5.36a1.21,1.21,0,0,1,0,1.69h0a1.2,1.2,0,0,1-1.7,0l-5.37-5.37-5.37,5.37a1.19,1.19,0,0,1-1.69,0h0a1.21,1.21,0,0,1,0-1.69l5.37-5.36-5.38-5.39a1.2,1.2,0,0,1,0-1.69h0A1.19,1.19,0,0,1,274.35,210.63Z"/><path class="cls-27" d="M280.91,236.62v7.61h7.61a1.2,1.2,0,0,1,1.2,1.19h0a1.2,1.2,0,0,1-1.2,1.2h-7.61v7.58a1.19,1.19,0,0,1-1.19,1.2h0a1.2,1.2,0,0,1-1.2-1.2v-7.59h-7.59a1.2,1.2,0,0,1-1.2-1.2h0a1.2,1.2,0,0,1,1.2-1.19h7.58v-7.61a1.19,1.19,0,0,1,1.2-1.19h0A1.19,1.19,0,0,1,280.91,236.62Z"/><path class="cls-27" d="M300.32,244.31h13.89a1.19,1.19,0,0,1,1.19,1.19h0a1.19,1.19,0,0,1-1.19,1.19H300.32a1.19,1.19,0,0,1-1.19-1.19h0A1.19,1.19,0,0,1,300.32,244.31Zm9-4.45a2.07,2.07,0,0,1-3.53,1.47,2.17,2.17,0,0,1,0-2.94A2.08,2.08,0,0,1,309.32,239.86Zm0,11.1a2.05,2.05,0,1,1-4.1,0,2,2,0,0,1,.57-1.47A2.08,2.08,0,0,1,309.32,251Z"/><path class="cls-27" d="M300.3,216.52h13.92a1.18,1.18,0,0,1,1.18,1.17h0a1.18,1.18,0,0,1-1.18,1.18H300.3a1.17,1.17,0,0,1-1.17-1.18h0A1.17,1.17,0,0,1,300.3,216.52Z"/><path class="cls-19" d="M290.66,195.78l1.1,4.71-1.39,1.73-2.2-1a3.92,3.92,0,0,0,.79-1.77,21.84,21.84,0,0,0-.72-3.41Z"/><path class="cls-19" d="M316,139.69l2-4.39,2.16-.52,1.14,2.13a4,4,0,0,0-1.71.92A21,21,0,0,0,318,141Z"/><polygon class="cls-28" points="275.83 108.57 276.84 116.8 283.25 113.27 279.8 107.1 275.83 108.57"/><path class="cls-30" d="M280.58,108.5l-.78-1.4-4,1.47.56,4.53a4.46,4.46,0,0,0,1.34-.59A9.52,9.52,0,0,0,280.58,108.5Z"/><path class="cls-37" d="M288.8,142.41l7.68,2.85s9.16,9.65,11.85,6.59,7.84-13.56,7.84-13.56l3.45,2.17s-2.86,15.37-6.76,18.54c-10.34,8.39-29.61-6.34-29.61-6.34Z"/><path class="cls-28" d="M276.18,98.39s-.2-.08-1.34,1.48a17.35,17.35,0,0,0-1.8,3.7c-.75,1.89-1.38,3.94-.81,6,.3,1.06,4.56,1.35,6.28.44a7.46,7.46,0,0,0,3.2-5.94C281.61,101.94,276.94,98,276.18,98.39Z"/><path class="cls-38" d="M279,108.56c.27.56.71.71,2,.74a4,4,0,0,0,3.85-3.65c1.32-7.26-5.56-9-7.33-9.73a1.4,1.4,0,0,0-1.57.33,2.72,2.72,0,0,1-2.33.75c-.37-.06-1.36-.08-1.63.49-.77,1.63-.79,3.32,2.11,3.32C280.69,100.81,278.48,107.48,279,108.56Z"/><path class="cls-21" d="M287.57,142.41c.85,0,5.75,1.91,6.38,5.08S291.19,197,291.19,197l-3.16.44s-9.29-45.74-7.77-49.3S287.57,142.41,287.57,142.41Z"/><path class="cls-24" d="M294,147.49c-.63-3.17-5.53-5.05-6.38-5.08,0,0-5.79,2.12-7.31,5.69a5.87,5.87,0,0,0-.16,2c2.12-.77,4.41-1.42,5.24-1,1.7.92,3,2.71,6.29,3.51a4.63,4.63,0,0,0,2.32-.22A38.8,38.8,0,0,0,294,147.49Z"/><path class="cls-20" d="M292,199.77a4.91,4.91,0,0,1,.84,2.09,7.39,7.39,0,0,1-.07,2.61s-6.46.76-9,.45-2.82-.74-2.8-1.47,3.48-.72,4.46-1.65,2.29-2.87,2.92-2.6.58,1.42,1.41,1.45S291.61,199.35,292,199.77Z"/><path class="cls-20" d="M317.34,135.72a4.73,4.73,0,0,1,.61-2.17,7.39,7.39,0,0,1,1.65-2s5.58,3.35,7.42,5.17,1.77,2.32,1.31,2.88-3.19-1.56-4.53-1.43-3.57.86-3.91.27.42-1.48-.23-2S317.39,136.29,317.34,135.72Z"/><path class="cls-25" d="M274.75,120.59l-.13.59c-1.48,7.13.9,16.36,3.67,23.1.87,2.12.85,2.79,2,3.82l5.08-2.8Z"/><g class="cls-22"><path class="cls-26" d="M274.75,120.59l-.13.59a32.25,32.25,0,0,0,.44,12.73,40.43,40.43,0,0,0,4.09-3Z"/></g><path class="cls-21" d="M282.58,111.78a50.08,50.08,0,0,1,6.72,10.81c2.29,5.5,10.09,23.54,10.09,23.54s-7.33,4.86-11.92,3.46-12-16.09-14-23a11.92,11.92,0,0,1,3.75-12.32C278.09,113.86,282.58,111.78,282.58,111.78Z"/><path class="cls-24" d="M273.46,126.64a53.9,53.9,0,0,0,2.54,6.64c4.93-3.39,11.92-9.71,9.7-17.25C284.88,114.81,272.51,123.32,273.46,126.64Z"/><path class="cls-39" d="M243.24,108.78a2.71,2.71,0,1,1,2.42-2.69A2.56,2.56,0,0,1,243.24,108.78Z"/><path class="cls-40" d="M262.39,104.43h0a2.46,2.46,0,0,1,2.46,2.46v1a0,0,0,0,1,0,0h-4.93a0,0,0,0,1,0,0v-1A2.46,2.46,0,0,1,262.39,104.43Z" transform="translate(368.54 -156.24) rotate(90)"/><polygon class="cls-41" points="255.86 115.37 258.44 107.4 260.89 108.13 258.77 115.32 255.86 115.37"/><path class="cls-14" d="M248,111.84a13.45,13.45,0,0,1,7.78-2.48h5.77l.45-1.69a6.15,6.15,0,0,0,0-3.13l-.45-1.69H255.8a13.45,13.45,0,0,1-7.78-2.48l-4.08-2.88v17.23Z"/><path class="cls-42" d="M249.14,107.74c-1.39.42-3.71,3.46-5.2,5.59v1.39l4.08-2.88a13.45,13.45,0,0,1,7.78-2.48h5.77l.45-1.69a6.15,6.15,0,0,0,0-3.13l-.45-1.69a7.6,7.6,0,0,1-1.54,3.88C258.76,108,251.32,107.09,249.14,107.74Z"/><path class="cls-27" d="M242.54,115.43V96.88a.7.7,0,0,1,.7-.7h0a.7.7,0,0,1,.7.7v18.55a.7.7,0,0,1-.7.7h0A.71.71,0,0,1,242.54,115.43Z"/><path class="cls-28" d="M278.2,104.93s.13-1.84,1.1-1.53,1.34,2.29.45,2.71S278.2,104.93,278.2,104.93Z"/><path class="cls-28" d="M263.49,117.39c-.44,0-2.43-3.49-2.43-3.49s-3.42-3-3.87-3-.48,1-.72,1.5a5,5,0,0,0-.61,1.5c0,.37-.4,1.06,0,1.47s1.65,1.89,2.4,2a8,8,0,0,1,2.32,1.53Z"/><path class="cls-21" d="M284.89,120.59c-2.37,3.94-10.1,11-13.91,11.38s-11.39-13-11.39-13l2.63-3.92s7.22,7.39,9,6.85,5.55-9.46,10.69-9S285.75,119.16,284.89,120.59Z"/><path class="cls-19" d="M162.6,121.26s15.46,1.26,15.46,5.84c0,3.77-7,19-8.25,24.87-.24,1.09,1.21,2.69,1.14,2.86-.33.85-2.14-.35-2.14-.35l-1.39-4.21s5.32-19.77,3.7-21.39-17.24-5-17.24-5Z"/><path class="cls-30" d="M173.69,127.2c-1.27-3.82-12.92-4.63-12.92-4.63l-5,.77-1.9.58s15.62,3.34,17.24,5c1,1-.69,9.14-2.11,15.08C171.3,137.3,174.41,129.36,173.69,127.2Z"/><path class="cls-28" d="M148.42,124.05a4.07,4.07,0,0,0,.83,3.43c1.29,1.29,15.71.61,16.41,2.53,1.26,3.42-2,20.19-2,20.19l1.43,4.18s2,1.32,2.14.83c.08-.24-1.38-2.11-1.21-3.6.64-5.58,8-21.52,6.92-24.71-1.27-3.82-12.93-4.64-12.93-4.64Z"/><path class="cls-37" d="M148.42,124.76s-.45,2.14.4,3S165.66,130,165.66,130s-.53-2.63,2.59-3.79a16.84,16.84,0,0,1,8.79-1s-.49-1.56-5.13-2.91a41.92,41.92,0,0,0-9.75-1.41Z"/><path class="cls-20" d="M167.52,150.2s-.34-.21-.8.48-.26,4.59-.26,4.59l.73.16a15.66,15.66,0,0,1,.19-2.83c.17,0,.46,3,.85,3.19s3.08.88,3.58.54-.86-1.5-.86-1.5-1.4-.07-1.54-.28S167.52,150.2,167.52,150.2Z"/><path class="cls-43" d="M153.57,83.72c.48.1,4.88.15,4.88,3.35s-.06,4.48.77,5.88-.55,4.79-1.58,4.81-1.12,3.71-1.12,3.71-6,2.68-7.61,2a2.66,2.66,0,0,0-1.35-.16c-2.93.32-5-3-3.11-5.25a3.45,3.45,0,0,1,.26-.28c2.53-2.54,2.23-2.33,2.23-5.19s.51-2,1.72-3.76S150.58,83.09,153.57,83.72Z"/><path class="cls-25" d="M158.91,106.3s2.78,7.57,6,8.69,4.73,4.68,4.73,4.68l-1.92,1.69-6.32-2.82Z"/><path class="cls-44" d="M161,110.65l-1.23-.42,1.72,8.31,3.15,1.41c-.26-1.7-.92-4.29-1.45-6.22A15.46,15.46,0,0,1,161,110.65Z"/><path class="cls-25" d="M157.25,97.8c.9.89,6.23,5.62,5.15,8.55-2.39,6.49,1.78,13.88,1.78,14.89s-12.71,4.46-15.51,4.46,3.36-8.94,2.22-12-2.67-15.3-1.71-16.25C149.81,96.81,157.08,97.62,157.25,97.8Z"/><path class="cls-45" d="M153.33,113c-.42-2.46-2.67-7.42-4.34-10.86.31,4.09,1.18,9.63,1.9,11.55,1.14,3.06-5,12-2.22,12a6.85,6.85,0,0,0,.81-.06l.45-.06h0S154,117,153.33,113Z"/><path class="cls-28" d="M155.15,92l.48,5.8s3.28,6.9,1.71,7.48-5.15-7.22-5.15-7.22V90.66Z"/><path class="cls-30" d="M152.19,90.66v3.75c1,1.48,2.36,2.51,3.37,2.53L155.15,92Z"/><path class="cls-28" d="M155.15,85.31s1.71-.76,2.29,2.67.09,7.09-1.61,7.35S151,92.85,151,90C151,87.59,153.79,85,155.15,85.31Z"/><path class="cls-20" d="M163.61,150.2s-.34-.21-.8.48-.26,4.59-.26,4.59l.73.16a15.66,15.66,0,0,1,.19-2.83c.17,0,.46,3,.85,3.19s3.08.88,3.58.54-.86-1.5-.86-1.5-1.4-.07-1.54-.28S163.61,150.2,163.61,150.2Z"/><path class="cls-44" d="M171.91,122.26a41.92,41.92,0,0,0-9.75-1.41l-5.81,1.65a10.49,10.49,0,0,0,2.31.55c.76,0,4.66,1,5.86,1,.78,0,6.28-.49,10-.83A18.48,18.48,0,0,0,171.91,122.26Z"/><polygon class="cls-46" points="157.26 122.07 157.26 121.08 162.6 122.55 164.95 122.55 164.94 123.1 162.67 123.05 157.26 122.07"/><polygon class="cls-47" points="157.26 121.08 170.83 121.44 180.17 123.05 162.6 122.55 157.26 121.08"/><path class="cls-28" d="M159.64,119.67a6.89,6.89,0,0,0,3,.39,2.8,2.8,0,0,1,2.78.27,4.08,4.08,0,0,1,1.36,1.46s.63.69,0,.78a39.19,39.19,0,0,1-5.06-.17c-.12-.12-3.55-.76-3.55-.76Z"/><path class="cls-48" d="M146.37,117.73c2.57,3.63,10.46,5.18,13.59,4.53a4.41,4.41,0,0,1,1.47-2.39c.32-.32-9.42-4.11-10.54-4.75s-1.51-17.35-1.51-17.35a5,5,0,0,0-2.47,3.18C145.34,105.9,144.34,114.86,146.37,117.73Z"/><path class="cls-49" d="M146.16,103.18a3.42,3.42,0,0,1-1.76-1.25,3.12,3.12,0,0,1,.31-4.16c2.53-2.53,2.23-2.32,2.23-5.19s-.29-3.53.92-5.25,2.72-4.22,5.71-3.59l.18,0c.06,0,3.26,0,2.67,1.84a1,1,0,0,0-1.31.46c-1,1.57-1,2.07-2.16,2.58s-.7,2.48-.7,3.78c0,1-.14,2-.12,3s2.21,9.06-4.2,7.89A17.56,17.56,0,0,1,146.16,103.18Z"/><path class="cls-46" d="M166.05,105.46l-3.6,16.13a1.22,1.22,0,0,0,1.17,1.49l16.95.25a1.21,1.21,0,0,0,1.19-.88l4.79-16.38a1.22,1.22,0,0,0-1.17-1.56H167.24A1.22,1.22,0,0,0,166.05,105.46Z"/><path class="cls-50" d="M165.77,106.71l-3.32,14.88a1.22,1.22,0,0,0,1.17,1.49l11.19.16c1.68-3,4.45-8.54,4.45-11.53S171.05,107.35,165.77,106.71Z"/><path class="cls-39" d="M172,242.44c-.7,1.07.82,2.95,2.1,2.95h0a1.61,1.61,0,0,0,1.35-.73l19.44-29.8c.71-1.08-.53-3.15-1.83-3.15Z"/><path class="cls-39" d="M183.69,239.13c0,2.83,1,5.42,3.62,6.45a6.5,6.5,0,0,0,7.2-1.59,8.6,8.6,0,0,0,1.31-8C193.76,229.85,183.69,230.77,183.69,239.13Zm6.27,3.93c-2.15,0-2.83-1.85-2.83-4,0-4.47,3.54-4.84,4.92-3S193.22,243.06,190,243.06Z"/><path class="cls-41" d="M191.49,212.43l-19.42,29.83a1.61,1.61,0,0,0,1.35,2.48h0a1.61,1.61,0,0,0,1.35-.73l19.44-29.8a1.62,1.62,0,0,0-1.36-2.51h0A1.62,1.62,0,0,0,191.49,212.43Z"/><path class="cls-41" d="M182.92,238.17c0,2.82,1,5.41,3.61,6.45a6.51,6.51,0,0,0,7.21-1.59,8.63,8.63,0,0,0,1.3-8C193,228.89,182.92,229.8,182.92,238.17Zm6.27,3.93c-2.16,0-2.83-1.85-2.83-4,0-4.47,3.53-4.84,4.92-3.05S192.45,242.1,189.19,242.1Z"/><path class="cls-39" d="M170.35,217.51c0,2.82,1,5.41,3.61,6.45a6.5,6.5,0,0,0,7.2-1.59,8.61,8.61,0,0,0,1.31-8C180.41,208.23,170.35,209.14,170.35,217.51Zm6.27,3.93c-2.16,0-2.83-1.86-2.83-4,0-4.46,3.53-4.83,4.92-3S179.88,221.44,176.62,221.44Z"/><path class="cls-41" d="M169.57,216.54c0,2.83,1,5.42,3.62,6.46a6.5,6.5,0,0,0,7.2-1.59,8.61,8.61,0,0,0,1.31-8C179.64,207.27,169.57,208.18,169.57,216.54Zm6.27,3.93c-2.15,0-2.83-1.85-2.83-4,0-4.47,3.54-4.83,4.92-3S179.1,220.47,175.84,220.47Z"/><path class="cls-51" d="M168.36,265a4,4,0,1,1-4-4A4,4,0,0,1,168.36,265Z"/><path class="cls-51" d="M201.23,265a4,4,0,1,1-4-4A4,4,0,0,1,201.23,265Z"/><path class="cls-9" d="M162.44,264.9l-.32.05a1.47,1.47,0,0,1-1.71-1.2l-.78-4.43H163l.67,3.87A1.47,1.47,0,0,1,162.44,264.9Z"/><path class="cls-9" d="M195.31,264.9,195,265a1.47,1.47,0,0,1-1.71-1.2l-.77-4.43h3.33l.68,3.87A1.48,1.48,0,0,1,195.31,264.9Z"/><path class="cls-9" d="M196.35,259.58h-38a.51.51,0,0,1,0-1h38a3.17,3.17,0,0,0,2.24-5.4,12.93,12.93,0,0,0-8.07-3.74l-10.29-.86a.51.51,0,0,1-.46-.55.5.5,0,0,1,.57-.43l10.26.83a14,14,0,0,1,8.71,4,4.13,4.13,0,0,1,1.22,3A4.18,4.18,0,0,1,196.35,259.58Z"/><path class="cls-9" d="M197.24,248.56a.5.5,0,0,1-.51-.5V224.78a8.45,8.45,0,0,1,8-8.42l7.21-.41a.5.5,0,0,1,.53.47.51.51,0,0,1-.48.54l-7.2.41a7.43,7.43,0,0,0-7,7.41v23.28A.5.5,0,0,1,197.24,248.56Z"/><path class="cls-9" d="M197.84,227.27l-.09-.1H163.37a.69.69,0,0,0-.68.82l3.67,20.14a.52.52,0,0,0,.51.43h30.88l.09-.1ZM165.72,239h4.4l.59,3.9h-4.28Zm31-6.44h-3.4v-4.38h3.4Zm-3.4,10.34V239h3.4v3.9Zm3.4.72v3.93h-3.4v-3.93Zm-3.4-5.34v-5h3.4v5Zm-.72-5.72h-5.84v-4.38h5.84Zm0,.72v5h-5.84v-5Zm0,5.72v3.9h-5.84V239Zm0,4.62v3.93h-5.84v-3.93Zm-6.39-11.06h-9.3l-.5-4.38h9.8Zm0,.72v5h-8.64l-.58-5Zm0,5.72v3.9h-8.11l-.45-3.9Zm0,4.62v3.93h-7.58l-.45-3.93Zm-10.61-15.44.5,4.38h-6l-.66-4.38Zm.59,5.1.57,5h-5.83l-.76-5Zm-6.19,5h-4.42l-.91-5h4.57Zm1,.72h5.8l.45,3.9h-5.65Zm6.33,4.62.45,3.93h-5.48l-.59-3.93Zm-8.91-15.44.67,4.38h-4.59l-.8-4.38Zm-1.91,15.44h4.26l.6,3.93h-4.14Z"/><path class="cls-19" d="M229.39,263.29l-1.06,2.94-2.48-1.34a1.26,1.26,0,0,1,.38-.6,27,27,0,0,0,1-3.93Z"/><path class="cls-52" d="M252,260.05l2.37-1.81s-6.92-15.26-6.92-18.88,2-22.57-.41-25a7.58,7.58,0,0,1-2.35-5.06L236,213.66s1,20.45,3.49,28.06S252,260.05,252,260.05Z"/><path class="cls-53" d="M247.08,214.38a7.9,7.9,0,0,1-2.33-4.67l-.25-.28L236,213.66s.68,14.56,2.42,23.68c3.44-5.69,10.27-11.41,9.77-18.33C248,216.73,247.7,215,247.08,214.38Z"/><path class="cls-23" d="M237.88,214.2s-12.52,19.55-13.24,23.35,1.75,24.6,1.75,24.6l3.47,1.14S232,242,234.59,239.45s11.87-14.79,12.9-17.1c1.69-3.8-1.31-10.86-1.31-10.86Z"/><path class="cls-53" d="M246.18,211.49l-8.3,2.71s-1.52,2.37-3.53,5.62a5,5,0,0,0,.82.5c3.29,1.56,9.56-2,11.91-4.49a1.31,1.31,0,0,0,.3-.68A29,29,0,0,0,246.18,211.49Z"/><path class="cls-28" d="M228.12,178.33s-2.16.28-2.68,1.19-.67,7.19.58,7.77,4.63-1.55,4.84-4.14S228.12,178.33,228.12,178.33Z"/><path class="cls-30" d="M225.44,179.52c.52-.91,2.68-1.19,2.68-1.19a8.91,8.91,0,0,1,2.19,2.54c-.3.22-.54.32-.66.21-.4-.4-3.16-.22-4.47-.48A3.71,3.71,0,0,1,225.44,179.52Z"/><polygon class="cls-28" points="235.8 187.38 230.86 183.15 227.69 186.01 230.34 190.03 235.8 187.38"/><path class="cls-30" d="M227.69,186l3.17-2.86.74.63-.15.08a.73.73,0,0,0-.38.86c.36,1.17.88,3.75-1.07,4.79Z"/><path class="cls-54" d="M226.84,184.88c.65.66,2.84-2.51,2.84-3.63s-3.41-.92-4.62-1.49-2-2.95,0-3.8a3,3,0,0,1,3.12.09,6.49,6.49,0,0,1,3.56.06A2.64,2.64,0,0,1,233.6,178s1,0,1.25,1.89-1.39,5.46-1.39,5.46l-2.59-2-.05,0a1,1,0,0,0-.4,1.26,4.68,4.68,0,0,1,.45,1.66,3.85,3.85,0,0,1-1.78,2.68,2.69,2.69,0,0,1-4-1.32c-.33-.88-.59-1.8-.38-2.18C225.18,184.7,226.18,184.23,226.84,184.88Z"/><path class="cls-28" d="M229.65,181.08s1-.84,1.64-.18a1,1,0,0,1-.15,1.8c-.72.5-1.79-.35-1.79-.35Z"/><path class="cls-55" d="M232.78,187.23s-4.52,8-4.52,13.4,2.19,15.88,6.91,18c3.29,1.48,9.56-1.91,11.91-4.27S241.29,183.79,232.78,187.23Z"/><path class="cls-56" d="M231.48,214.62a7.12,7.12,0,0,0,4.78-5.19c2.48-8.29,0-21.2,0-21.2l-.71-1.06-7,17.49A31.61,31.61,0,0,0,231.48,214.62Z"/><path class="cls-19" d="M254.34,258.05l1.78,1.79-1.64,1.84a6.46,6.46,0,0,1-.61-.92,10.62,10.62,0,0,0-1.6-1.35Z"/><path class="cls-20" d="M258.75,260.5a1.78,1.78,0,0,0-1-1.05,5.88,5.88,0,0,0-2-.46c-.14.06-.6,1.5-1.1,1.71a3.65,3.65,0,0,1-1.67-.09,3.41,3.41,0,0,0-.16,2.22c.27,1.5-1.08,4-1.31,4.56s.62,1.05.62,1.05S255.08,268.12,258.75,260.5Z"/><polygon class="cls-21" points="255.11 258.19 251.99 260.16 251.05 259.62 254.35 257.2 255.11 258.19"/><path class="cls-20" d="M227.85,268.84a1.78,1.78,0,0,0,.82-1.2,5.77,5.77,0,0,0,.07-2c-.09-.12-1.59-.29-1.9-.74a3.78,3.78,0,0,1-.23-1.65,3.42,3.42,0,0,0-2.21.28c-1.42.56-4.13-.28-4.73-.39s-.91.81-.91.81S219.66,266.74,227.85,268.84Z"/><polygon class="cls-21" points="229.92 264.29 225.85 262.44 225.99 260.92 230.72 262.96 229.92 264.29"/><path class="cls-28" d="M213.55,214.3c-.3.31-3.83.32-4.67.32s-2.38,1.41-2.17,1.62,2.15-.12,2.15-.12,1,.66,0,1,.33.51.84.51,4.39-.91,4.39-.91Z"/><path class="cls-55" d="M236.25,188.23s.24,16.47-2.47,21.09-19.64,7.79-19.64,7.79l-1.71-3.83s13.38-4.15,14.29-6.59,2.68-14.49,3.62-16.66C231.45,187.48,235.62,184.88,236.25,188.23Z"/><path class="cls-19" d="M128.56,183.58s3.71,10.77,6,11,10-3.52,10-3.52l.62,2.37s-8.29,6-11.56,4.86-6.47-4.37-6.47-4.37Z"/><path class="cls-57" d="M125.11,168l.18,0,3,.56a1.42,1.42,0,0,0,.47,1.29c.65.64,4.12,12.87,2.2,14.79s-9.66,1.21-9.89,1.21-1.45-8.88-1.45-8.88Z"/><path class="cls-19" d="M129,226.84s-2.13,22.19-1.06,24.94,2.83,7.49,2.83,7.49h-2l-4-5.36s.1-.25-.23-1.32-2.76-12.62-1.88-18.06c.24-1.55.55-9,1.31-10.24C125.88,221.12,129,225.23,129,226.84Z"/><path class="cls-20" d="M124.61,252.88s-.5-.21-.94.84.81,6.19.81,6.19l1,0s-.7-3.83-.46-3.83,1.36,3.89,1.94,4.05,4.33.4,4.92-.18-1.53-1.79-1.53-1.79-1.89.25-2.13,0S124.61,252.88,124.61,252.88Z"/><path class="cls-28" d="M123.29,226.84s-2.13,22.19-1.06,24.94,2.83,7.49,2.83,7.49h-2l-4-5.36s.09-.25-.24-1.32-2.76-12.62-1.88-18.06c.25-1.55.55-9,1.31-10.24C120.17,221.12,123.29,225.23,123.29,226.84Z"/><path class="cls-30" d="M117.42,229.16l5.75-1c-.1,1.1-.25,2.79-.41,4.79a20.59,20.59,0,0,1-5.67.16C117.18,232.05,117.28,230.59,117.42,229.16Z"/><path class="cls-30" d="M123.26,227.82c2-.33,4.09-.66,5.73-.9,0,.47-.26,2.83-.51,5.92a17.36,17.36,0,0,1-2.16.45,11.26,11.26,0,0,1-3.54-.06C122.91,231.81,123.05,229.67,123.26,227.82Z"/><path class="cls-55" d="M115.46,231.45V218.19c0-3.49,1.34-12.67,3.49-17.23s11,0,11,0a35.7,35.7,0,0,1,2.56,10.88l.52,20A42.81,42.81,0,0,1,115.46,231.45Z"/><path class="cls-56" d="M132.55,213l0-1.14c-.09-1.13-.23-2.2-.4-3.19l-9.87-2.47A37.58,37.58,0,0,0,132.55,213Z"/><path class="cls-21" d="M127.8,182c.3.3,4.46,4.48,4.12,7.85-.5,5-1.89,10.13-1.41,12.14.81,3.36-11.28,3.86-11.85-.38-.2-1.51.19-5.29-.16-8.7-.57-5.43-1.86-10.77-1.62-10.91C122.18,178.78,127,181.19,127.8,182Z"/><path class="cls-23" d="M130.52,198.68c-1.7-.07-4.51-.43-4.87-.79s-1.77-4.62-1.77-4.62l.92-.43s-2.07-7.54-4.26-9.73a5.4,5.4,0,0,0-2.53-1.72l-.63.34c0,.53-.08,1.74-.15,2.87.27,1.54.66,3.65,1,5.91.8,1.84,1.72,3.75,1.92,4.08.38.62,3.43,5.38,3.43,5.38l6.91,1.69A9.46,9.46,0,0,1,130.52,198.68Z"/><path class="cls-41" d="M124.63,206.31l1.66-3.5,15.3-8.24-3.19-16.18,1.7-3.58,16.72,7.91L155,186.6l-10.93-5.17,3,15.47L132,205l12.22,5.78-1.88,4Z"/><polygon class="cls-39" points="140.09 214.48 142.36 214.71 124.63 206.31 126.29 202.81 141.59 194.57 138.4 178.39 140.1 174.81 138.16 174.61 136.56 177.93 139.26 194.08 124.02 202.1 122.25 206.18 140.09 214.48"/><polygon class="cls-39" points="153.07 186.87 154.98 186.6 144.05 181.43 144.34 182.88 153.07 186.87"/><path class="cls-58" d="M115.09,185.6c.92-3.62,1.79-3.57,1.79-3.57s.76,3.71,1.38,7.07a4.13,4.13,0,0,1-1.13-.48A5,5,0,0,1,115.09,185.6Z"/><path class="cls-20" d="M118.9,252.88s-.49-.21-.94.84.81,6.19.81,6.19l1,0s-.69-3.83-.46-3.83,1.37,3.89,1.94,4.05,4.33.4,4.92-.18-1.52-1.79-1.52-1.79-1.89.25-2.14,0S118.9,252.88,118.9,252.88Z"/><path class="cls-28" d="M126.9,174.8l.46,5.47s1.84,6.49.36,7-3.6-6.78-3.6-6.78v-7Z"/><path class="cls-30" d="M127.19,178.18a4.78,4.78,0,0,1-3.07-2.26v-2.4l2.78,1.28Z"/><path class="cls-28" d="M126.9,168.47s1.62-.72,2.16,2.53.13,6.27-1.47,6.51-3.81-2.43-4.59-4.59S125.62,168.13,126.9,168.47Z"/><path class="cls-28" d="M140.57,200.39a.08.08,0,0,1-.1-.13c.44-.53,1.18-1.52.57-1.52s-1.25.79-2,1.06c-.26.09-13.34.53-14.44-1.7a28.08,28.08,0,0,1-2-6.16,11.19,11.19,0,0,0-5.92,1.55c.8,4.11,2,7.61,3.46,9.12,1.9,1.9,12.87.45,15.46.08a8.93,8.93,0,0,1,1.15-.1c1.13-.05,3.49-.13,4-.13.66,0,2.22-3.34,2.22-3.34Z"/><path class="cls-30" d="M122.59,191.94a11.19,11.19,0,0,0-5.92,1.55c.07.37.15.74.23,1.1a26.51,26.51,0,0,0,6-1.18C122.8,192.93,122.69,192.44,122.59,191.94Z"/><path class="cls-21" d="M117.58,181.43s-1.85-.24-1.85,6.71a30.2,30.2,0,0,0,.54,5.75c1.12.1,5.54.2,7.08-1.72C123.35,192.17,120.8,180.66,117.58,181.43Z"/><path class="cls-49" d="M125.32,166.4a5.09,5.09,0,0,0,.85.23,3,3,0,0,1,2.3,1.78c.95,2-6.12,8.48-4.35,10.81s-.22,5.27-2.82,6.91.89,1.15-2.25,2.71-7.12-4.21-4.7-8.42,4.56-12.28,7.54-13.51C123.85,166.1,124.86,166.22,125.32,166.4Z"/><path class="cls-19" d="M145.68,189.78s-1.41.63-1.41,1.23,1.56-.29,1.28,0-1.47.63-1.34,1.05c.23.78,1.43-.4,1.72-.12s-1,.57-1,.9,1,.07,1.39,0S146.11,190.37,145.68,189.78Z"/><rect class="cls-59" y="337.31" width="350" height="145"/><text class="cls-60" transform="translate(21.34 415.4)">ERP회계사무원양성과정</text><text class="cls-61" transform="translate(99.4 454)">2022년 6월 21일</text><text class="cls-62" transform="translate(10.69 365.55)">스마트훈련</text></g></g></svg>