<svg xmlns="http://www.w3.org/2000/svg" viewBox="0 0 535.71 385.27"><defs><style>.cls-1{isolation:isolate;}.cls-2,.cls-7{fill:#fff;}.cls-3{fill:#f9cad2;}.cls-4{fill:#00cfbe;}.cls-13,.cls-5{fill:none;}.cls-5,.cls-6,.cls-7,.cls-8,.cls-9{stroke:#011635;}.cls-13,.cls-5,.cls-6,.cls-7,.cls-8,.cls-9{stroke-linecap:round;stroke-linejoin:round;stroke-width:1.5px;}.cls-14,.cls-15,.cls-16,.cls-6{fill:#011635;}.cls-8{fill:#f4dc90;}.cls-9{fill:#d0d0d6;}.cls-10{fill:#f99aaa;}.cls-11{fill:#8791ff;}.cls-12{opacity:0.45;mix-blend-mode:multiply;}.cls-13{stroke:#8791ff;}.cls-14{font-size:48px;font-family:FranklinGothic-Demi, Franklin Gothic Demi;font-weight:300;}.cls-15{font-size:24px;}.cls-15,.cls-16{font-family:Ebrima;}.cls-16{font-size:21px;}</style></defs><title>OPEN메인</title><g class="cls-1"><g id="OBJECTS"><rect class="cls-2" x="77.93" y="69.11" width="371.64" height="254.75" rx="12"/><path class="cls-3" d="M520.54,132c-1.29-12.52,4.71-29.83,13.5-28.27s-2.18,15.15,5.11,29.21Z" transform="translate(-129.25 -70.52)"/><path class="cls-4" d="M523,139.63s14.22-14.06,21.6-39.11,40.09-25.85,46.15,5.8S568.3,182.4,568.3,182.4Z" transform="translate(-129.25 -70.52)"/><path class="cls-5" d="M570.21,107.93s1.84,30.1-25,52.7" transform="translate(-129.25 -70.52)"/><path class="cls-5" d="M611.15,115.49s4.75,16.45-7.51,28.83" transform="translate(-129.25 -70.52)"/><path class="cls-5" d="M220.36,379.22s3.1,14.84-4.81,27.89" transform="translate(-129.25 -70.52)"/><path class="cls-5" d="M205.2,379.22s-.45,11.85-6.52,22" transform="translate(-129.25 -70.52)"/><path class="cls-4" d="M353,389c19.22,24.56,38.74,23.79,62.21,23.7s50.12,6.47,61.91,21.58,47.46,19.29,45.85-17-54.16-68.83-96.52-67.4-70.85-5-70.85-5Z" transform="translate(-129.25 -70.52)"/><path class="cls-5" d="M354.34,365.34c65.86,34,111.92,11.75,140.13,47.4" transform="translate(-129.25 -70.52)"/><path class="cls-5" d="M539.15,416.86s10.58,7.26,10.24,25.85" transform="translate(-129.25 -70.52)"/><path class="cls-3" d="M223.45,135c-8.3-17.1-6.25-44,5.52-43.73s.16,28.91,15.72,41.22Z" transform="translate(-129.25 -70.52)"/><path class="cls-4" d="M181.92,168.82s-46.28-84.13-2-97.18c37.24-11,29.4,62.17,69.69,78.36Z" transform="translate(-129.25 -70.52)"/><path class="cls-5" d="M183.9,93.79s5.31,37.45,29.56,66.27" transform="translate(-129.25 -70.52)"/><path class="cls-5" d="M157,263.84s22.44,6.31,41.68,2.59" transform="translate(-129.25 -70.52)"/><path class="cls-5" d="M147.51,145s13.05,5.36,19.38,18.84" transform="translate(-129.25 -70.52)"/><path class="cls-5" d="M267.31,106.06s-6,10.46,0,28.57" transform="translate(-129.25 -70.52)"/><rect class="cls-6" x="64.86" y="58.45" width="371.64" height="254.75" rx="12"/><rect class="cls-7" x="57.06" y="58.45" width="371.64" height="254.75" rx="12"/><path class="cls-8" d="M198.31,383.71H546a12,12,0,0,0,12-12V359.48H186.31v12.23A12,12,0,0,0,198.31,383.71Z" transform="translate(-129.25 -70.52)"/><path class="cls-9" d="M378,371.6a5.92,5.92,0,1,0-5.91,5.91A5.92,5.92,0,0,0,378,371.6Z" transform="translate(-129.25 -70.52)"/><path class="cls-8" d="M546,129H198.31a12,12,0,0,0-12,12H558A12,12,0,0,0,546,129Z" transform="translate(-129.25 -70.52)"/><rect class="cls-3" x="81.82" y="90.45" width="134.37" height="91.27"/><rect class="cls-10" x="81.82" y="178.45" width="134.37" height="3.27"/><rect class="cls-5" x="88.16" y="96.78" width="6.16" height="6.16"/><line class="cls-5" x1="106.65" y1="102.95" x2="100.49" y2="102.95"/><polyline class="cls-5" points="104.64 155.86 122.73 120.83 140.4 147.46 161.25 126.44 174.65 142.13 195.88 152.29"/><path class="cls-7" d="M236.1,226.38a2.21,2.21,0,1,0-2.21,2.21A2.21,2.21,0,0,0,236.1,226.38Z" transform="translate(-129.25 -70.52)"/><path class="cls-7" d="M292.71,197a2.21,2.21,0,1,0-2.21,2.21A2.21,2.21,0,0,0,292.71,197Z" transform="translate(-129.25 -70.52)"/><circle class="cls-7" cx="140.4" cy="147.46" r="2.21"/><path class="cls-7" d="M306.11,212.65a2.21,2.21,0,1,0-2.21,2.21A2.21,2.21,0,0,0,306.11,212.65Z" transform="translate(-129.25 -70.52)"/><path class="cls-7" d="M254.19,191.35a2.21,2.21,0,1,0-2.21,2.21A2.21,2.21,0,0,0,254.19,191.35Z" transform="translate(-129.25 -70.52)"/><path class="cls-7" d="M327.34,222.82a2.21,2.21,0,1,0-2.21,2.21A2.21,2.21,0,0,0,327.34,222.82Z" transform="translate(-129.25 -70.52)"/><line class="cls-5" x1="104.64" y1="166.98" x2="195.88" y2="166.98"/><rect class="cls-2" x="174.43" y="96.78" width="35.03" height="6.16"/><rect class="cls-11" x="191.59" y="105.88" width="17.87" height="6.16"/><rect class="cls-3" x="81.82" y="189.92" width="134.37" height="79.04"/><rect class="cls-10" x="81.82" y="265.69" width="134.37" height="3.27"/><rect class="cls-5" x="88.16" y="196.25" width="6.16" height="6.16"/><line class="cls-5" x1="106.65" y1="202.42" x2="100.49" y2="202.42"/><rect class="cls-11" x="94.32" y="210.67" width="115.13" height="4.42"/><rect class="cls-2" x="94.32" y="221.14" width="115.13" height="4.42"/><rect class="cls-2" x="94.32" y="231.61" width="71.35" height="4.42"/><rect class="cls-11" x="94.32" y="242.08" width="51.62" height="4.42"/><rect class="cls-11" x="151.46" y="242.08" width="29" height="4.42"/><rect class="cls-2" x="94.32" y="252.54" width="31.4" height="4.42"/><rect class="cls-3" x="230.39" y="90.45" width="173.54" height="22.6"/><rect class="cls-10" x="230.39" y="113.04" width="173.54" height="3.27"/><line class="cls-5" x1="236.73" y1="96.78" x2="242.89" y2="96.78"/><line class="cls-5" x1="249.06" y1="96.78" x2="255.22" y2="96.78"/><rect class="cls-5" x="236.73" y="94.39" width="6.16" height="2.39"/><rect class="cls-11" x="242.89" y="102.19" width="61.64" height="4.42"/><rect class="cls-2" x="308.3" y="102.19" width="25.87" height="4.42"/><rect class="cls-3" x="230.39" y="120.9" width="173.54" height="22.6"/><rect class="cls-10" x="230.39" y="143.5" width="173.54" height="3.27"/><line class="cls-5" x1="236.73" y1="127.23" x2="242.89" y2="127.23"/><line class="cls-5" x1="249.06" y1="127.23" x2="255.22" y2="127.23"/><rect class="cls-5" x="236.73" y="124.84" width="6.16" height="2.39"/><rect class="cls-11" x="242.89" y="132.64" width="28.18" height="4.42"/><rect class="cls-11" x="305.54" y="132.64" width="82.29" height="4.42"/><rect class="cls-2" x="275.76" y="132.64" width="25.87" height="4.42"/><rect class="cls-3" x="230.39" y="151.35" width="173.54" height="22.6"/><rect class="cls-10" x="230.39" y="173.95" width="173.54" height="3.27"/><line class="cls-5" x1="236.73" y1="157.69" x2="242.89" y2="157.69"/><line class="cls-5" x1="249.06" y1="157.69" x2="255.22" y2="157.69"/><rect class="cls-5" x="236.73" y="155.3" width="6.16" height="2.39"/><rect class="cls-11" x="242.89" y="163.09" width="61.64" height="4.42"/><rect class="cls-3" x="230.39" y="181.8" width="173.54" height="22.6"/><rect class="cls-10" x="230.39" y="204.4" width="173.54" height="3.27"/><line class="cls-5" x1="236.73" y1="188.14" x2="242.89" y2="188.14"/><line class="cls-5" x1="249.06" y1="188.14" x2="255.22" y2="188.14"/><rect class="cls-5" x="236.73" y="185.75" width="6.16" height="2.39"/><rect class="cls-11" x="242.89" y="193.54" width="43.18" height="4.42"/><rect class="cls-2" x="291.08" y="193.54" width="72.69" height="4.42"/><rect class="cls-2" x="369.23" y="193.54" width="11.97" height="4.42"/><rect class="cls-3" x="230.39" y="217.33" width="173.54" height="51.63"/><rect class="cls-10" x="230.39" y="265.69" width="173.54" height="3.27"/><rect class="cls-5" x="236.73" y="223.67" width="6.16" height="6.16"/><line class="cls-5" x1="255.22" y1="229.83" x2="249.06" y2="229.83"/><rect class="cls-11" x="263.3" y="230.68" width="24.92" height="24.92"/><line class="cls-5" x1="269.59" y1="249.32" x2="281.93" y2="236.97"/><line class="cls-5" x1="281.93" y1="249.32" x2="269.59" y2="236.97"/><rect class="cls-11" x="297.31" y="230.68" width="24.92" height="24.92"/><line class="cls-5" x1="303.6" y1="249.32" x2="315.95" y2="236.97"/><rect class="cls-11" x="331.33" y="230.68" width="24.92" height="24.92"/><rect class="cls-5" x="338.77" y="237.55" width="11.18" height="11.18"/><rect class="cls-11" x="365.34" y="230.68" width="24.92" height="24.92"/><line class="cls-5" x1="372.21" y1="237.55" x2="372.21" y2="237.55"/><line class="cls-5" x1="383.4" y1="237.55" x2="383.4" y2="237.55"/><line class="cls-5" x1="372.21" y1="248.74" x2="372.21" y2="248.74"/><line class="cls-5" x1="383.4" y1="248.74" x2="383.4" y2="248.74"/><g class="cls-12"><rect class="cls-11" x="354.99" y="200.66" width="158.81" height="158.81" rx="7.2"/><rect class="cls-13" x="354.99" y="200.66" width="158.81" height="158.81" rx="7.2"/></g><rect class="cls-2" x="347.99" y="193.66" width="158.81" height="158.81" rx="7.2"/><rect class="cls-5" x="347.99" y="193.66" width="158.81" height="158.81" rx="7.2"/><line class="cls-5" x1="357.32" y1="207.97" x2="363.01" y2="202.29"/><line class="cls-5" x1="357.32" y1="202.29" x2="363.01" y2="207.97"/><path class="cls-11" d="M508.18,317.44a12.06,12.06,0,0,0-12.07,12.07v2.92h24.14v-2.92A12.06,12.06,0,0,0,508.18,317.44Z" transform="translate(-129.25 -70.52)"/><path class="cls-11" d="M515,308.18a6.85,6.85,0,1,0-6.85,6.85A6.85,6.85,0,0,0,515,308.18Z" transform="translate(-129.25 -70.52)"/><rect class="cls-5" x="363.01" y="219.55" width="31.85" height="42.37"/><rect class="cls-11" x="532" y="317.17" width="35.03" height="6.16" transform="translate(969.78 569.98) rotate(180)"/><rect class="cls-11" x="532" y="326.27" width="17.87" height="6.16" transform="translate(952.62 588.18) rotate(180)"/><path class="cls-5" d="M621,328.67a3.76,3.76,0,1,0-3.76,3.76A3.76,3.76,0,0,0,621,328.67Z" transform="translate(-129.25 -70.52)"/><rect class="cls-3" x="363.01" y="271.78" width="128.78" height="25.32"/><rect class="cls-11" x="369.83" y="277.51" width="115.13" height="4.42"/><rect class="cls-2" x="369.83" y="287.98" width="43.52" height="4.42"/><rect class="cls-3" x="363.01" y="306.96" width="128.78" height="25.32"/><rect class="cls-11" x="369.83" y="312.7" width="52.68" height="4.42"/><rect class="cls-2" x="426.41" y="312.7" width="58.56" height="4.42"/><rect class="cls-2" x="393.84" y="323.17" width="42.06" height="4.42"/><rect class="cls-2" x="369.83" y="323.17" width="20.12" height="4.42"/><path class="cls-5" d="M483,348.1c-15.3,0-14.48-12.84-31.42-12.84h0a8.26,8.26,0,0,1-8.26-8.25v-3.29" transform="translate(-129.25 -70.52)"/><path class="cls-6" d="M488.67,348.1h0a2.84,2.84,0,0,0-2.84-2.84h0A2.84,2.84,0,0,0,483,348.1h0a2.84,2.84,0,0,0,2.84,2.84h0A2.84,2.84,0,0,0,488.67,348.1Z" transform="translate(-129.25 -70.52)"/><path class="cls-6" d="M446.16,320.88h0a2.86,2.86,0,0,0-2.85-2.85h0a2.85,2.85,0,0,0-2.84,2.85h0a2.84,2.84,0,0,0,2.84,2.84h0A2.85,2.85,0,0,0,446.16,320.88Z" transform="translate(-129.25 -70.52)"/><g class="cls-12"><rect class="cls-11" x="424.06" y="72.45" width="110.9" height="110.9" rx="7.2"/><rect class="cls-13" x="424.06" y="72.45" width="110.9" height="110.9" rx="7.2"/></g><rect class="cls-2" x="417.06" y="65.45" width="110.9" height="110.9" rx="7.2"/><rect class="cls-5" x="417.06" y="65.45" width="110.9" height="110.9" rx="7.2"/><line class="cls-5" x1="426.39" y1="79.76" x2="432.08" y2="74.08"/><line class="cls-5" x1="426.39" y1="74.08" x2="432.08" y2="79.76"/><text class="cls-14" transform="translate(449.98 138.07)">UI</text><path class="cls-5" d="M522.39,167.06c16.93,0,16.11,12.84,31.41,12.84" transform="translate(-129.25 -70.52)"/><path class="cls-6" d="M559.49,179.9h0a2.84,2.84,0,0,0-2.84-2.84h0a2.85,2.85,0,0,0-2.85,2.84h0a2.85,2.85,0,0,0,2.85,2.84h0A2.84,2.84,0,0,0,559.49,179.9Z" transform="translate(-129.25 -70.52)"/><path class="cls-6" d="M522.39,167.06h0a2.85,2.85,0,0,0-2.85-2.84h0a2.84,2.84,0,0,0-2.84,2.84h0a2.84,2.84,0,0,0,2.84,2.84h0A2.85,2.85,0,0,0,522.39,167.06Z" transform="translate(-129.25 -70.52)"/><path class="cls-6" d="M559.49,197.51h0a2.84,2.84,0,0,0-2.84-2.84h0a2.85,2.85,0,0,0-2.85,2.84h0a2.85,2.85,0,0,0,2.85,2.84h0A2.84,2.84,0,0,0,559.49,197.51Z" transform="translate(-129.25 -70.52)"/><path class="cls-6" d="M522.39,197.51h0a2.85,2.85,0,0,0-2.85-2.84h0a2.84,2.84,0,0,0-2.84,2.84h0a2.84,2.84,0,0,0,2.84,2.84h0A2.85,2.85,0,0,0,522.39,197.51Z" transform="translate(-129.25 -70.52)"/><line class="cls-5" x1="393.13" y1="126.99" x2="424.55" y2="126.99"/><path class="cls-5" d="M522.39,228c16.93,0,16.11-12.85,31.41-12.85" transform="translate(-129.25 -70.52)"/><path class="cls-6" d="M559.49,215.12h0a2.85,2.85,0,0,1-2.84,2.85h0a2.86,2.86,0,0,1-2.85-2.85h0a2.85,2.85,0,0,1,2.85-2.84h0A2.84,2.84,0,0,1,559.49,215.12Z" transform="translate(-129.25 -70.52)"/><path class="cls-6" d="M522.39,228h0a2.85,2.85,0,0,1-2.85,2.84h0A2.84,2.84,0,0,1,516.7,228h0a2.85,2.85,0,0,1,2.84-2.85h0A2.86,2.86,0,0,1,522.39,228Z" transform="translate(-129.25 -70.52)"/><g class="cls-12"><rect class="cls-11" x="111.92" y="304.56" width="125.99" height="68.29" rx="7.2"/><rect class="cls-13" x="111.92" y="304.56" width="125.99" height="68.29" rx="7.2"/></g><rect class="cls-2" x="104.92" y="297.56" width="125.99" height="68.29" rx="7.2"/><rect class="cls-5" x="104.92" y="297.56" width="125.99" height="68.29" rx="7.2"/><line class="cls-5" x1="114.25" y1="311.88" x2="119.94" y2="306.19"/><line class="cls-5" x1="114.25" y1="306.19" x2="119.94" y2="311.88"/><text class="cls-14" transform="translate(137.94 347.77)">UX</text><path class="cls-5" d="M297.51,371.83c0-15.3-12.85-14.48-12.85-31.42h0a8.25,8.25,0,0,0-8.25-8.25h-3.29" transform="translate(-129.25 -70.52)"/><rect class="cls-6" x="165.41" y="301.31" width="5.68" height="5.68" rx="2.84"/><path class="cls-6" d="M270.28,335h0a2.84,2.84,0,0,1-2.84-2.84h0a2.85,2.85,0,0,1,2.84-2.85h0a2.85,2.85,0,0,1,2.84,2.85h0A2.84,2.84,0,0,1,270.28,335Z" transform="translate(-129.25 -70.52)"/><g class="cls-12"><rect class="cls-11" x="258.5" y="338.08" width="73.45" height="46.44" rx="7.2"/><rect class="cls-13" x="258.5" y="338.08" width="73.45" height="46.44" rx="7.2"/></g><rect class="cls-2" x="251.5" y="331.08" width="73.45" height="46.44" rx="7.2"/><rect class="cls-5" x="251.5" y="331.08" width="73.45" height="46.44" rx="7.2"/><line class="cls-5" x1="260.83" y1="345.4" x2="266.52" y2="339.71"/><line class="cls-5" x1="260.83" y1="339.71" x2="266.52" y2="345.4"/><path class="cls-6" d="M407.63,434.66a2.67,2.67,0,1,0-2.67,2.67A2.67,2.67,0,0,0,407.63,434.66Z" transform="translate(-129.25 -70.52)"/><path class="cls-6" d="M435.47,415a2.67,2.67,0,1,0-2.67,2.67A2.67,2.67,0,0,0,435.47,415Z" transform="translate(-129.25 -70.52)"/><path class="cls-5" d="M405,434.66S428.15,440.8,432.8,415" transform="translate(-129.25 -70.52)"/><path class="cls-5" d="M353.12,414.8c16.94,0,16.12,12.84,31.42,12.84" transform="translate(-129.25 -70.52)"/><path class="cls-6" d="M390.22,427.64h0a2.84,2.84,0,0,0-2.84-2.84h0a2.84,2.84,0,0,0-2.84,2.84h0a2.85,2.85,0,0,0,2.84,2.85h0A2.85,2.85,0,0,0,390.22,427.64Z" transform="translate(-129.25 -70.52)"/><path class="cls-6" d="M353.12,414.8h0a2.84,2.84,0,0,0-2.84-2.84h0a2.84,2.84,0,0,0-2.84,2.84h0a2.84,2.84,0,0,0,2.84,2.84h0A2.84,2.84,0,0,0,353.12,414.8Z" transform="translate(-129.25 -70.52)"/><g class="cls-12"><rect class="cls-11" x="7.75" y="213.67" width="69.61" height="111.74" rx="7.66"/><rect class="cls-13" x="7.75" y="213.67" width="69.61" height="111.74" rx="7.66"/></g><rect class="cls-2" x="0.75" y="206.67" width="69.61" height="111.74" rx="7.66"/><rect class="cls-5" x="0.75" y="206.67" width="69.61" height="111.74" rx="7.66"/><line class="cls-5" x1="10.08" y1="220.99" x2="15.77" y2="215.31"/><line class="cls-5" x1="10.08" y1="215.31" x2="15.77" y2="220.99"/><path class="cls-11" d="M188.12,319.05a.74.74,0,0,0-.25-.52.68.68,0,0,0-.54-.19c-14.41.85-21.8-12-21.87-12.16a.78.78,0,0,0-1.31,0c-.07.13-7.47,13-21.87,12.16a.67.67,0,0,0-.54.19.74.74,0,0,0-.25.52c0,.34-1.33,34.43,23.2,38.24h.23C189.45,353.48,188.14,319.39,188.12,319.05Z" transform="translate(-129.25 -70.52)"/><path class="cls-5" d="M223.41,292.91c-16.94,0-16.12,12.84-31.42,12.84" transform="translate(-129.25 -70.52)"/><path class="cls-6" d="M186.31,305.75h0a2.84,2.84,0,0,1,2.84-2.84h0a2.84,2.84,0,0,1,2.84,2.84h0a2.84,2.84,0,0,1-2.84,2.84h0A2.84,2.84,0,0,1,186.31,305.75Z" transform="translate(-129.25 -70.52)"/><path class="cls-6" d="M223.41,292.91h0a2.84,2.84,0,0,1,2.84-2.84h0a2.85,2.85,0,0,1,2.85,2.84h0a2.85,2.85,0,0,1-2.85,2.84h0A2.84,2.84,0,0,1,223.41,292.91Z" transform="translate(-129.25 -70.52)"/><g class="cls-12"><rect class="cls-11" x="7.75" y="91.98" width="69.61" height="94.97" rx="7.2"/><rect class="cls-13" x="7.75" y="91.98" width="69.61" height="94.97" rx="7.2"/></g><rect class="cls-2" x="0.75" y="84.98" width="69.61" height="94.97" rx="7.2"/><rect class="cls-5" x="0.75" y="84.98" width="69.61" height="94.97" rx="7.2"/><line class="cls-5" x1="10.08" y1="99.29" x2="15.77" y2="93.61"/><line class="cls-5" x1="10.08" y1="93.61" x2="15.77" y2="99.29"/><text class="cls-15" transform="translate(6.39 129.94)">Open<tspan x="11.51" y="28.8">API</tspan></text><path class="cls-5" d="M223.41,191.62c-16.94,0-16.12-12.84-31.42-12.84" transform="translate(-129.25 -70.52)"/><path class="cls-6" d="M186.31,178.78h0a2.84,2.84,0,0,0,2.84,2.84h0a2.84,2.84,0,0,0,2.84-2.84h0a2.84,2.84,0,0,0-2.84-2.84h0A2.84,2.84,0,0,0,186.31,178.78Z" transform="translate(-129.25 -70.52)"/><path class="cls-6" d="M223.41,191.62h0a2.84,2.84,0,0,0,2.84,2.84h0a2.85,2.85,0,0,0,2.85-2.84h0a2.85,2.85,0,0,0-2.85-2.84h0A2.84,2.84,0,0,0,223.41,191.62Z" transform="translate(-129.25 -70.52)"/><g class="cls-12"><rect class="cls-11" x="117.07" y="60.7" width="73.45" height="46.44" rx="7.2"/><rect class="cls-13" x="117.07" y="60.7" width="73.45" height="46.44" rx="7.2"/></g><rect class="cls-2" x="110.07" y="53.7" width="73.45" height="46.44" rx="7.2"/><rect class="cls-5" x="110.07" y="53.7" width="73.45" height="46.44" rx="7.2"/><line class="cls-5" x1="119.41" y1="68.01" x2="125.09" y2="62.33"/><line class="cls-5" x1="119.41" y1="62.33" x2="125.09" y2="68.01"/><text class="cls-16" transform="translate(124.2 85.99)">Html</text><g class="cls-12"><rect class="cls-11" x="207.66" y="72.15" width="162.62" height="20.7" rx="7.2"/><rect class="cls-13" x="207.66" y="72.15" width="162.62" height="20.7" rx="7.2"/></g><rect class="cls-2" x="202.08" y="66.57" width="162.62" height="20.7" rx="7.2"/><rect class="cls-5" x="202.08" y="66.57" width="162.62" height="20.7" rx="7.2"/><path class="cls-3" d="M481.93,144.06H374.11a3.38,3.38,0,0,0-3.38,3.38h0a3.38,3.38,0,0,0,3.38,3.38H481.93a3.38,3.38,0,0,0,3.38-3.38h0A3.38,3.38,0,0,0,481.93,144.06Z" transform="translate(-129.25 -70.52)"/><path class="cls-11" d="M460.89,144.06H374.11a3.38,3.38,0,0,0,0,6.76h86.78Z" transform="translate(-129.25 -70.52)"/><rect class="cls-5" x="226.39" y="74.14" width="5.68" height="5.68"/><g class="cls-12"><rect class="cls-11" x="207.66" y="43.33" width="162.62" height="20.7" rx="7.2"/><rect class="cls-13" x="207.66" y="43.33" width="162.62" height="20.7" rx="7.2"/></g><rect class="cls-2" x="202.08" y="37.75" width="162.62" height="20.7" rx="7.2"/><rect class="cls-5" x="202.08" y="37.75" width="162.62" height="20.7" rx="7.2"/><path class="cls-3" d="M481.93,115.24H374.11a3.38,3.38,0,0,0-3.38,3.38h0a3.38,3.38,0,0,0,3.38,3.38H481.93a3.38,3.38,0,0,0,3.38-3.38h0A3.38,3.38,0,0,0,481.93,115.24Z" transform="translate(-129.25 -70.52)"/><path class="cls-11" d="M398.36,115.24H374.11a3.38,3.38,0,1,0,0,6.76h24.25Z" transform="translate(-129.25 -70.52)"/><rect class="cls-5" x="226.39" y="45.31" width="5.68" height="5.68"/><g class="cls-12"><rect class="cls-11" x="207.66" y="100.98" width="162.62" height="20.7" rx="7.2"/><rect class="cls-13" x="207.66" y="100.98" width="162.62" height="20.7" rx="7.2"/></g><rect class="cls-2" x="202.08" y="95.39" width="162.62" height="20.7" rx="7.2"/><rect class="cls-5" x="202.08" y="95.39" width="162.62" height="20.7" rx="7.2"/><path class="cls-3" d="M481.93,172.88H374.11a3.38,3.38,0,0,0-3.38,3.38h0a3.38,3.38,0,0,0,3.38,3.38H481.93a3.38,3.38,0,0,0,3.38-3.38h0A3.38,3.38,0,0,0,481.93,172.88Z" transform="translate(-129.25 -70.52)"/><path class="cls-11" d="M477.82,172.88H374.11a3.38,3.38,0,0,0,0,6.76H477.82Z" transform="translate(-129.25 -70.52)"/><rect class="cls-5" x="226.39" y="102.96" width="5.68" height="5.68"/><path class="cls-5" d="M338.13,119.67c-16.93,0-16.12,12.85-31.42,12.85" transform="translate(-129.25 -70.52)"/><path class="cls-6" d="M301,132.52h0a2.85,2.85,0,0,1,2.84-2.85h0a2.85,2.85,0,0,1,2.84,2.85h0a2.84,2.84,0,0,1-2.84,2.84h0A2.84,2.84,0,0,1,301,132.52Z" transform="translate(-129.25 -70.52)"/><path class="cls-6" d="M338.13,119.67h0a2.85,2.85,0,0,1,2.85-2.84h0a2.84,2.84,0,0,1,2.84,2.84h0a2.85,2.85,0,0,1-2.84,2.85h0A2.86,2.86,0,0,1,338.13,119.67Z" transform="translate(-129.25 -70.52)"/><path class="cls-6" d="M301,148.13h0a2.84,2.84,0,0,1,2.84-2.84h0a2.84,2.84,0,0,1,2.84,2.84h0a2.84,2.84,0,0,1-2.84,2.84h0A2.84,2.84,0,0,1,301,148.13Z" transform="translate(-129.25 -70.52)"/><path class="cls-6" d="M338.13,148.13h0a2.85,2.85,0,0,1,2.85-2.84h0a2.84,2.84,0,0,1,2.84,2.84h0A2.84,2.84,0,0,1,341,151h0A2.85,2.85,0,0,1,338.13,148.13Z" transform="translate(-129.25 -70.52)"/><line class="cls-5" x1="208.88" y1="77.61" x2="177.46" y2="77.61"/><path class="cls-5" d="M338.13,175.58c-16.93,0-16.12-12.84-31.42-12.84" transform="translate(-129.25 -70.52)"/><path class="cls-6" d="M301,162.74h0a2.84,2.84,0,0,0,2.84,2.84h0a2.84,2.84,0,0,0,2.84-2.84h0a2.84,2.84,0,0,0-2.84-2.84h0A2.84,2.84,0,0,0,301,162.74Z" transform="translate(-129.25 -70.52)"/><path class="cls-6" d="M338.13,175.58h0a2.85,2.85,0,0,0,2.85,2.84h0a2.84,2.84,0,0,0,2.84-2.84h0a2.84,2.84,0,0,0-2.84-2.84h0A2.85,2.85,0,0,0,338.13,175.58Z" transform="translate(-129.25 -70.52)"/></g></g></svg>