<svg xmlns="http://www.w3.org/2000/svg" width="95.307" height="50.993" viewBox="0 0 95.307 50.993">
  <g id="handshake-deal-svgrepo-com" transform="translate(0 -24.903)">
    <path id="패스_263" data-name="패스 263" d="M0,47.445Z" transform="translate(0.208 0.348)" fill="#f2f2f2"/>
    <path id="패스_251" data-name="패스 251" d="M165.922,240.264a1.827,1.827,0,0,1-.45,1.426,2.448,2.448,0,0,1-3.377.075l-.525-.45a1.653,1.653,0,0,1,.075,2.326l-1.651,1.651a1.632,1.632,0,0,1-2.251,0l-1.051-1.051a1.766,1.766,0,0,1,0,2.476l-.9.826a1.826,1.826,0,0,1-2.4,0l-.826-.826a1.178,1.178,0,0,1,0,1.651l-.9.9a1.178,1.178,0,0,1-1.651,0l-2.1-1.126a.232.232,0,0,1-.15-.075l-.75-2.176a1.3,1.3,0,0,1,.3-1.276,1.589,1.589,0,0,0,0-2.326l-.976-.976a1.618,1.618,0,0,0-2.176-.15l-.6.525.825-.825a1.951,1.951,0,0,0,0-2.852l-.75-.75a1.951,1.951,0,0,0-2.852,0l-.976.976a1.767,1.767,0,0,0,0-2.476l-1.2-1.2a1.748,1.748,0,0,0-2.4-.075l-2.927,2.552h0a1.35,1.35,0,0,0-.075-1.651l-.9-.9a1.226,1.226,0,0,0-1.8,0l-.15.15c-.75-.675-1.426-1.2-1.951-1.726l6.979-16.21c2.026,0,5.7-.15,8.555-1.876a5.183,5.183,0,0,1,7.054,1.351l-.9.45a22.968,22.968,0,0,1-6.379,2.627,3.935,3.935,0,0,0-2.852,3.452,17.664,17.664,0,0,1-.9,4.5,1.972,1.972,0,0,0,.9,2.326,3.1,3.1,0,0,0,1.426.375,2.689,2.689,0,0,0,1.8-.675c1.8-1.576,4.353-4.052,4.127-5.178,0,0,2.4.375,2.927-.225,0,0,11.857,9.155,14.634,14.709h0C165.7,238.538,165.922,239.439,165.922,240.264Z" transform="translate(-104.311 -173.711)" fill="#f9b54c" opacity="0.5"/>
    <g id="그룹_251" data-name="그룹 251" transform="translate(25.14 41.824)" opacity="0.5">
      <path id="패스_252" data-name="패스 252" d="M224.833,239.937c-2.326,1.5-9.606,6.079-10.056,5.1-2.852-5.553-14.709-14.634-14.709-14.634-.525.6-2.927.225-2.927.225.225,1.126-2.326,3.677-4.127,5.178a2.689,2.689,0,0,1-1.8.675,3.366,3.366,0,0,1-1.426-.375,2.03,2.03,0,0,1-.9-2.326,17.664,17.664,0,0,0,.9-4.5,3.838,3.838,0,0,1,2.852-3.452,25.5,25.5,0,0,0,6.379-2.627,6.359,6.359,0,0,1,6.229-.375,14.215,14.215,0,0,0,12.307.45Z" transform="translate(-178.53 -222.187)" fill="#ffd05b"/>
      <path id="패스_253" data-name="패스 253" d="M151.861,330.7a1.589,1.589,0,0,0,0-2.326l-.976-.976a1.7,1.7,0,0,0-2.176-.15l-.6.525.825-.826a2.087,2.087,0,0,0,0-2.852l-.75-.75a2.087,2.087,0,0,0-2.852,0l-.976.9a1.767,1.767,0,0,0,0-2.476l-1.2-1.2a1.748,1.748,0,0,0-2.4-.075l-3,2.7a1.226,1.226,0,0,0,0-1.8l-.9-.9a1.226,1.226,0,0,0-1.8,0L134,321.54a2.534,2.534,0,0,0,3.227,2.7c-.225,4.2,4.5,3.977,4.5,3.977-.825,4.5,4.728,3.752,4.728,3.752.15,3.452,5.929,2.326,5.929,2.326l-.75-2.326A1.021,1.021,0,0,1,151.861,330.7Z" transform="translate(-134 -301.688)" fill="#ffd05b"/>
    </g>
    <g id="그룹_252" data-name="그룹 252" transform="translate(26.293 39.462)">
      <path id="패스_254" data-name="패스 254" d="M142.6,323.5l-.15.225a.979.979,0,0,1-1.426.075l-.525-.45a.979.979,0,0,1-.075-1.426l.15-.225a.979.979,0,0,1,1.426-.075l.525.45A1.037,1.037,0,0,1,142.6,323.5Z" transform="translate(-140.147 -300.382)" fill="#fff" opacity="0.5"/>
      <path id="패스_255" data-name="패스 255" d="M174.356,323.83l-.3.3a1.343,1.343,0,0,1-1.951.15l-.675-.6a1.343,1.343,0,0,1-.15-1.951l.225-.3a1.343,1.343,0,0,1,1.951-.15l.675.6A1.419,1.419,0,0,1,174.356,323.83Z" transform="translate(-165.153 -300.041)" fill="#fff" opacity="0.5"/>
      <path id="패스_256" data-name="패스 256" d="M199.081,337.83l-.225.3a1.343,1.343,0,0,1-1.951.15l-.675-.6a1.343,1.343,0,0,1-.15-1.951l.225-.3a1.343,1.343,0,0,1,1.951-.15l.675.6A1.347,1.347,0,0,1,199.081,337.83Z" transform="translate(-185.3 -311.415)" fill="#fff" opacity="0.5"/>
      <path id="패스_257" data-name="패스 257" d="M215.911,358.986l-.225.225a1.163,1.163,0,0,1-1.576.15l-.6-.45a1.163,1.163,0,0,1-.15-1.576l.225-.225a1.163,1.163,0,0,1,1.576-.15l.6.45A1.163,1.163,0,0,1,215.911,358.986Z" transform="translate(-199.429 -329.118)" fill="#fff" opacity="0.5"/>
      <path id="패스_258" data-name="패스 258" d="M191.2,266.552l.75-1.876a1.146,1.146,0,0,0-.75-1.5l-1.426-.375a18.068,18.068,0,0,1-.9,4.052,2.553,2.553,0,0,0-.075.75A1.959,1.959,0,0,0,191.2,266.552Z" transform="translate(-179.672 -252.819)" fill="#fff" opacity="0.5"/>
      <path id="패스_259" data-name="패스 259" d="M353.083,230.162l-4.953,2.176-8.93-20.862,3.752-1.876Z" transform="translate(-301.855 -209.6)" fill="#fff"/>
    </g>
    <path id="패스_260" data-name="패스 260" d="M380.617,154.889A46.954,46.954,0,0,0,374.764,132L351.2,143.557l13.583,27.616,15.084-7.88A52.231,52.231,0,0,0,380.617,154.889Z" transform="translate(-285.311 -107.096)" fill="#324a5e" opacity="0.5"/>
    <path id="패스_261" data-name="패스 261" d="M108.683,211.476l-8.93,20.862L94.8,230.162,104.931,209.6Z" transform="translate(-77.014 -170.138)" fill="#fff"/>
    <path id="패스_262" data-name="패스 262" d="M0,154.889a50.561,50.561,0,0,0,.75,8.33l15.084,7.88,13.583-27.616L5.853,132A46.954,46.954,0,0,0,0,154.889Z" transform="translate(0 -107.096)" fill="#324a5e" opacity="0.5"/>
    <g id="그룹_253" data-name="그룹 253" transform="translate(4.803 51.094)" opacity="0.5">
      <circle id="타원_57" data-name="타원 57" cx="2.251" cy="2.251" r="2.251" transform="translate(75.045 3.077)" fill="#2b3b4e"/>
      <circle id="타원_58" data-name="타원 58" cx="2.251" cy="2.251" r="2.251" transform="translate(80.748)" fill="#2b3b4e"/>
      <ellipse id="타원_59" data-name="타원 59" cx="2.402" cy="2.102" rx="2.402" ry="2.102" transform="translate(5.615 3.905)" fill="#2b3b4e"/>
      <circle id="타원_60" data-name="타원 60" cx="2.251" cy="2.251" r="2.251" transform="translate(0 0.75)" fill="#2b3b4e"/>
    </g>
  </g>
</svg>
