<svg id="레이어_1" data-name="레이어 1" xmlns="http://www.w3.org/2000/svg" xmlns:xlink="http://www.w3.org/1999/xlink" viewBox="0 0 350 482"><defs><style>.cls-1,.cls-14,.cls-16,.cls-18,.cls-4{fill:none;}.cls-2{fill:#f3efe3;}.cls-3{fill:#dbdbee;}.cls-14,.cls-4{stroke:#151d3b;}.cls-14,.cls-16,.cls-18,.cls-4{stroke-linecap:round;stroke-linejoin:round;}.cls-18,.cls-4{stroke-width:0.75px;}.cls-5{fill:#c7c6e3;}.cls-6{fill:#5c64ac;}.cls-7{fill:#aeaed6;}.cls-8{fill:#ecc650;}.cls-9{fill:#e16555;}.cls-10{fill:#1b284d;}.cls-11{fill:#fff;}.cls-12{fill:#dd4e4a;}.cls-13{fill:#57b9dd;}.cls-14,.cls-16{stroke-width:0.5px;}.cls-15{fill:#f08a75;}.cls-16{stroke:#dd4e4a;}.cls-17{fill:#151d3b;}.cls-18{stroke:#023b88;}.cls-19{clip-path:url(#clip-path);}</style><clipPath id="clip-path"><path class="cls-1" d="M291.5,249.77a25.48,25.48,0,1,1-50.95,0,24.19,24.19,0,0,1,.19-3.09,25.47,25.47,0,0,1,50.76,3.09Z"/></clipPath></defs><title>Artboard 24 copy 21</title><rect class="cls-2" width="349.84" height="482"/><path class="cls-3" d="M311.41,236.73a69.87,69.87,0,0,1-11.5,38.51H60.06a90,90,0,0,1,77.59-147.9,70.17,70.17,0,0,1,131.22,34.6,71.59,71.59,0,0,1-.71,10A70.18,70.18,0,0,1,311.41,236.73Z"/><line class="cls-4" x1="53.19" y1="275.24" x2="306.45" y2="275.24"/><rect class="cls-5" x="192.19" y="87.41" width="73.46" height="88.63" rx="9.95"/><path class="cls-6" d="M228.92,104.08v55.3H216c1.49-9.27,3.09-44.85,3.09-44.85l-13.89,5.11L203.05,113a116.42,116.42,0,0,1,17.88-7.46,43.72,43.72,0,0,1,4.43-1.08A21.19,21.19,0,0,1,228.92,104.08Z"/><path class="cls-6" d="M228.92,104.07c9,0,25.87,8.9,25.87,8.9l-2.13,6.67-13.9-5.11s1.61,35.58,3.1,44.85H228.92"/><path class="cls-7" d="M222.1,113.63l1.85-2.07-2.37-.07-.65-6a43.72,43.72,0,0,1,4.43-1.08l3.56,18.4Z"/><path class="cls-7" d="M235.74,113.63l-1.86-2.07,2.38-.07.65-6a44.38,44.38,0,0,0-4.43-1.08l-3.56,18.4Z"/><path class="cls-4" d="M228.92,122.83V154.9a4.48,4.48,0,0,1-4.47,4.48h0"/><rect class="cls-7" x="257.22" y="110.44" width="12.81" height="96.03" transform="translate(22.84 -32.93) rotate(7.47)"/><line class="cls-4" x1="270.46" y1="120.98" x2="274.92" y2="121.56"/><line class="cls-4" x1="269.36" y1="129.36" x2="273.82" y2="129.95"/><line class="cls-4" x1="268.26" y1="137.75" x2="272.72" y2="138.33"/><line class="cls-4" x1="267.16" y1="146.13" x2="271.62" y2="146.72"/><line class="cls-4" x1="266.06" y1="154.51" x2="270.52" y2="155.1"/><line class="cls-4" x1="264.96" y1="162.9" x2="269.42" y2="163.48"/><line class="cls-4" x1="263.86" y1="171.28" x2="268.32" y2="171.87"/><line class="cls-4" x1="262.76" y1="179.67" x2="267.22" y2="180.25"/><line class="cls-4" x1="261.66" y1="188.05" x2="266.12" y2="188.64"/><line class="cls-4" x1="260.56" y1="196.43" x2="265.02" y2="197.02"/><rect class="cls-8" x="243.25" y="155.5" width="8.54" height="94.03" transform="matrix(1, 0.07, -0.07, 1, 15.6, -17.69)"/><path class="cls-9" d="M255.28,179.09l-12-.89L246.55,153a4.41,4.41,0,0,1,4.59-4l.65.05a4.41,4.41,0,0,1,4,4.6Z"/><rect class="cls-10" x="235.56" y="143.77" width="8" height="88.07"/><polygon class="cls-11" points="243.56 143.77 235.56 143.77 238.03 133.35 239.56 126.89 241.09 133.35 243.56 143.77"/><polygon class="cls-12" points="241.09 133.35 238.03 133.35 239.56 126.89 241.09 133.35"/><rect class="cls-13" x="231.88" y="159.61" width="5.03" height="87.06" transform="translate(-28.14 37.97) rotate(-8.74)"/><polygon class="cls-11" points="230.27 159.73 225.29 160.49 225.83 153.78 226.17 149.62 227.74 153.49 230.27 159.73"/><polygon class="cls-10" points="227.74 153.49 225.83 153.78 226.17 149.62 227.74 153.49"/><path class="cls-6" d="M259.75,275.24h-25a5.31,5.31,0,0,1-5.32-4.94l-4.8-74.51h45.25l-4.8,74.51A5.31,5.31,0,0,1,259.75,275.24Z"/><path class="cls-13" d="M126.35,78.45c-5.33-1.54-16.19,15.88-26.5,36.37s-17.94,54.7-17.94,54.7h6.73C108.36,95.87,131.67,80,126.35,78.45Z"/><path class="cls-13" d="M65.33,170a541.78,541.78,0,0,1,3.07-65.67c3.84-33.58,7.81-48.44,13.51-47.67s-6.72,16.91-8.32,114.59Z"/><path class="cls-13" d="M73.35,170.86s4-38,14.22-72.2,21.34-47,25.72-44.61-16.86,22.46-31.62,117Z"/><path class="cls-13" d="M63,172.64a300.08,300.08,0,0,0-6.4-45.15C51.24,103.3,46.88,92.79,51,91.77s15.88,58.74,15.88,80.73Z"/><path class="cls-11" d="M59.3,167.57H99.85a0,0,0,0,1,0,0v92.3a15.37,15.37,0,0,1-15.37,15.37H74.67A15.37,15.37,0,0,1,59.3,259.87v-92.3A0,0,0,0,1,59.3,167.57Z"/><path class="cls-6" d="M203,275.24H180l-8.71-79.34-9.47-85.07c3.47,1.34,8.58,3.27,12.27,4.44a123.84,123.84,0,0,0,12.31,2.93c1.31,7.31,5.26,31.27,4.72,50.65a42.34,42.34,0,0,0,1.76,13.47c.3,1,.63,2.17.94,3.45a104.48,104.48,0,0,1,2.95,26.1C196.61,234.71,204.68,255.9,203,275.24Z"/><polygon class="cls-12" points="180.18 117.22 180.18 185.59 100.42 185.59 100.42 117.04 123.82 105.09 126.35 91.77 151.24 91.77 154.9 109.19 180.18 117.22"/><path class="cls-6" d="M199.13,275.24H101.28V116l18.44-8.84,10.35,11c3,5.75,6.72,12.58,11.13,20.13.8,1.37,1.63,2.78,2.48,4.19,3.26,5.47,6.86,11.25,10.78,17.21a397.19,397.19,0,0,0,36.15,47.35c1.29,1.44,2.59,2.86,3.91,4.28l-3.6,10.23a24,24,0,0,0-.12,15.66A214,214,0,0,1,199.13,275.24Z"/><path class="cls-6" d="M193.78,185.77a21.29,21.29,0,0,1-7,10.13h-23.7l-5.12-86.58s1.57.63,3.85,1.51c3.47,1.34,8.58,3.27,12.27,4.44a123.84,123.84,0,0,0,12.31,2.93l.08,0a5.66,5.66,0,0,1,4.59,5.29,66.64,66.64,0,0,0,2.32,14.69C195.56,146,199.47,170.34,193.78,185.77Z"/><path class="cls-6" d="M115.15,259.22a18.18,18.18,0,0,1-.26,12.47l-.19.48-.52,1.29-49.79-1.29-5.09-5.56c2.51-4.86,10.55-6.14,10.55-6.14h0a3.08,3.08,0,0,1-.26-2.9c1.56-3.62,0-2.86-.68-35.16-.77-36.12,26.56-99.56,26.56-99.56a4.56,4.56,0,0,1-.08-.9,5,5,0,0,1,2.84-4.51l3-1.46,18.44-8.84,10.35,11c3,5.75,6.72,12.58,11.13,20.13-7.52,8.16-23.55,28.3-28.65,56.47-5.52,30.44-.92,48.56,1,54.91a18.66,18.66,0,0,1,.71,4.32A19.54,19.54,0,0,0,115.15,259.22Z"/><path class="cls-4" d="M97,123.11s12.91.94,18.15,15.28"/><path class="cls-10" d="M151.24,91.77H126.35a3.56,3.56,0,0,1,3.5-2.91h17.89a3.58,3.58,0,0,1,3.49,2.84Z"/><path class="cls-5" d="M154.46,159.71A122.53,122.53,0,0,1,131,159.5a92.69,92.69,0,0,1-16.55-3.28,11.27,11.27,0,0,1-8-11.39l1.88-36.44a4.79,4.79,0,0,1,2.78-4.1l5.54-2.56A4.79,4.79,0,0,1,123,104c3.2,6.8,10.21,21,20.65,38.47C146.94,148,150.54,153.75,154.46,159.71Z"/><path class="cls-5" d="M190.61,207.06c-21.8-1.44-48.14-14.32-62.67-22.35a11.13,11.13,0,0,1-3.52-16.39l19.26-25.82c3.26,5.47,6.86,11.25,10.78,17.21q3.33,5.07,7,10.3c3.86,5.55,8,11.19,12.34,16.82C179,193.63,184.65,200.43,190.61,207.06Z"/><line class="cls-14" x1="131" y1="159.5" x2="143.68" y2="142.5"/><path class="cls-10" d="M64.06,275.11h48.22a1.89,1.89,0,0,0,1.59-2.93,6.77,6.77,0,0,0-4-2.45c-5.51-1.41-8.39-6.66-16.08-6.66s-10,5.38-16.65,5.38-5.31-4.93-12-4.93a6.58,6.58,0,0,0-5.77,3.09A5.56,5.56,0,0,0,64.06,275.11Z"/><path class="cls-4" d="M120.4,160.17s-.12,9.92-3.57,18.54a103.1,103.1,0,0,0-4.28,16.07c-5.52,30.43-.92,48.56,1,54.91a18.57,18.57,0,0,1,.71,4.32,20.19,20.19,0,0,0,.94,5.22,18.21,18.21,0,0,1-.26,12.46l-.19.48"/><path class="cls-4" d="M118.16,174.78a100.25,100.25,0,0,1,6.17-12.84"/><path class="cls-4" d="M69.85,260.47c5.79-.86,24.23-2.86,30,0"/><path class="cls-4" d="M82.1,259.22s11.53-4.86,17.75-5.18"/><path class="cls-4" d="M75.19,210.69s2.75,16.66,13.45,21.59"/><path class="cls-4" d="M177.78,206.45s9,.76,10.6,3.41S185,221.3,185,221.3"/><path class="cls-5" d="M153.88,104.34c1.75,7.67,9.82,58.3,7.38,92.61,0,0,15.33-9.73,25.07-25.34a9.57,9.57,0,0,0-1.52-12,50.7,50.7,0,0,0-10.74-7.92l6.51-4.29a8.82,8.82,0,0,0,2.45-12.3l-16.14-23.81a15,15,0,0,0-9.57-6.31Z"/><path class="cls-4" d="M161.42,170c3.86,5.55,8,11.19,12.34,16.82"/><path class="cls-4" d="M186.36,118.2c1.31,7.31,5.26,31.27,4.72,50.65a42.34,42.34,0,0,0,1.76,13.47c.3,1,.63,2.17.94,3.45"/><path class="cls-4" d="M199.13,275.24a214,214,0,0,0-8.33-38,24,24,0,0,1,.12-15.66l3.6-10.23-2.35-2.55"/><path class="cls-10" d="M141.91,82.08a3.12,3.12,0,1,0-4.7,2.68v4.62h3.16V84.76A3.11,3.11,0,0,0,141.91,82.08Z"/><path class="cls-15" d="M188.11,208.41s-4.74-.83-5.64.64-.13,4.55.8,4.65a5.34,5.34,0,0,0,2.4-.8,3.48,3.48,0,0,0,4.17-2Z"/><path class="cls-8" d="M232.65,268.45h-8.07a178.85,178.85,0,0,1-9.78-32.93,134.78,134.78,0,0,1-2.42-19.45v-3.21l9.25-1.57S223.55,245,232.65,268.45Z"/><path class="cls-8" d="M207.5,213.42s-3.15,13.53-2.71,55h8.52s.25-32.66,3.84-51.74v-3.29Z"/><path class="cls-10" d="M210.1,162.17a8,8,0,0,1-.42-6.57,5.72,5.72,0,0,0,.49,3.38,5.41,5.41,0,0,1,2.4-2.67s-1.94,4-1.58,6.41Z"/><path class="cls-10" d="M210.58,162.46s0-4.1,3.14-4,4.17,7.75-1.79,5.38Z"/><path class="cls-12" d="M211.89,164.61a1.67,1.67,0,0,1-2.52-2.2c.61-.7,1.41-.48,2.11.13S212.5,163.91,211.89,164.61Z"/><path class="cls-15" d="M214.84,180.84l-5.41,2.47-2.24-4.9c-2.45,2-4.38,1-5.81-1.23l-1,.46a.41.41,0,0,1-.57-.5l.25-.78a3,3,0,0,0-.06-2,28.41,28.41,0,0,1-1-3.36h0l-.09-.36v0a7.76,7.76,0,0,1-.13-.82h0c0-.23,0-.46,0-.7a7.24,7.24,0,1,1,13.28,4,2.49,2.49,0,0,0-.38,1.73,2.43,2.43,0,0,0,.3.87Z"/><path class="cls-10" d="M201.56,174c.08.26.05.51-.07.55s-.3-.15-.38-.41-.05-.52.08-.56S201.48,173.73,201.56,174Z"/><path class="cls-10" d="M212,173.11a2.49,2.49,0,0,0-.38,1.73c-.69.48-1.46.7-2-.12a3.05,3.05,0,0,0-.78-.82,6.91,6.91,0,0,0-3.41-1.13,1.85,1.85,0,0,1-.7-.15c-1.72-.65-1.13-3.24-1.13-3.24-2.08,1.3-1.31-1.06-1.31-1.06l-.77.62a.6.6,0,0,1-1-.56c.1-.61.23-1.08.23-1.08a3.41,3.41,0,0,0-2,2.53c0-.23,0-.46,0-.7a7.24,7.24,0,1,1,13.28,4Z"/><path class="cls-15" d="M206.77,170.59c-1.7-.32-1.67,2.29-1.67,2.29l1.19,1.77C209.69,175.3,208.46,170.92,206.77,170.59Z"/><path class="cls-16" d="M208.41,173.65c-.17.74-.79,1.25-2.12,1"/><path class="cls-16" d="M206,173.65s-.4-2.13.65-2.29,1,1.15,1,1.15"/><path class="cls-16" d="M206,172.22a1.74,1.74,0,0,1,.8,1.71"/><path class="cls-16" d="M204.4,176a2.22,2.22,0,0,1-.8,1.54"/><path class="cls-12" d="M207.35,183.08l-.86-1.32a1.92,1.92,0,0,1,.47-2.59c1.39-1,3.95-2.42,6-2.45a1.36,1.36,0,0,1,1.25.81l1,2.27Z"/><path class="cls-12" d="M222.72,209.92l.32,3.39-16.86,2.18.2-3.14h0A2.23,2.23,0,0,1,205,210c.23-1.92.62-5.15.95-8,.22-1.86-.4-2.14-1.15-2.65-1-.69-2.27-1.77-2-7.66l-1.43-2.6c.33-.6.62-1.16.88-1.64a11.12,11.12,0,0,1,3.3-3.78l3.85-2.74a8.57,8.57,0,0,1,6-1.55l.48.05a6.68,6.68,0,0,1,5.37,4,61.71,61.71,0,0,0,.47,15.75,90.24,90.24,0,0,0,1.78,9.12,1.42,1.42,0,0,1-.69,1.58Z"/><path class="cls-12" d="M221.81,199.22h-2l-3.65-10.69-7.74,3.65a49.39,49.39,0,0,1-3.66,7.21,33,33,0,0,1-14.54,13l-2.82-4.27,1.76-1.41a2.6,2.6,0,0,1,.59-2.36c3.73-4.19,9.21-10.93,11.53-15.18.33-.6.62-1.16.88-1.64a11.12,11.12,0,0,1,3.3-3.78l3.85-2.74a8.57,8.57,0,0,1,6-1.55l.48.05a6.68,6.68,0,0,1,5.37,4c0,.06.05.12.08.19l4.08,10.42A3.77,3.77,0,0,1,221.81,199.22Z"/><path class="cls-4" d="M208.45,192.18a49.39,49.39,0,0,1-3.66,7.21"/><path class="cls-4" d="M221.63,199.22c-.64-4.29-.74-12.55-.74-12.55"/><line class="cls-4" x1="207.88" y1="212.35" x2="220.89" y2="210.22"/><path class="cls-4" d="M217.15,216.71c-1,5.51-1.79,12.15-2.35,18.81"/><polygon class="cls-10" points="213.39 275.24 196.18 275.24 200.84 271.94 205.75 268.45 212.58 268.45 212.84 270.58 213.39 275.24"/><path class="cls-15" d="M212.84,270.58c-1.94-.86-5.75-.3-8.56,1.27-1.73,1-2.81.63-3.44.09l4.91-3.49h6.83Z"/><path class="cls-10" d="M234.87,275.24H216l4.66-3.3c.63.54,1.7.87,3.44-.09,2.81-1.57,7.26-1.84,9.19-1Z"/><path class="cls-15" d="M233.26,270.87c-1.93-.86-6.38-.59-9.19,1-1.74,1-2.81.63-3.44.09l4.91-3.49h6.83Z"/><path class="cls-15" d="M233.26,270.87c-1.93-.86-6.38-.59-9.19,1-1.74,1-2.81.63-3.44.09l4.91-3.49h6.83Z"/><path class="cls-8" d="M146.24,218c-14,0-21.42,3.13-23.08,14a123.42,123.42,0,0,1-2.74,13A116.72,116.72,0,0,0,117,263.76a10.44,10.44,0,0,0,10.36,11.48h44.82a12.86,12.86,0,0,0,12.26-16.8,31,31,0,0,0-7.92-12.88,21.17,21.17,0,0,1-5.58-9.08C168.82,229.36,162.77,218,146.24,218Z"/><polygon class="cls-6" points="171.42 275.24 153.79 275.24 154.59 273.46 157.83 266.21 163.75 267.21 162.61 269.69 168.6 273.46 171.42 275.24"/><path class="cls-10" d="M146.24,245.9s10.24,0,17.75,2.17l-8.52,18.45,8.18,2.82,9.15-19.74a6.44,6.44,0,0,0-3.78-8.82c-3.26-1.08-8.05-3.09-14.93-3.32l-10.2,1.78Z"/><path class="cls-11" d="M157.36,235l-2.06.23-.55-2.44c-.15-3.78-.66-7.45-.66-7.45l.76-10.13a5.79,5.79,0,0,1,2,3l3.52,12.39A3.51,3.51,0,0,1,157.36,235Z"/><path class="cls-11" d="M154.75,232.81c.08,2.08.95,3.11.66,4.65l-17.84,3.48-.1-4.12L137,215.39a11.22,11.22,0,0,1,3.76-2.07l2.3-.73c.49,1.09,2,4.2,4.44,5.83l3-5.39,3.13,1.44a5.59,5.59,0,0,1,1.23.76l-.76,10.13S154.6,229,154.75,232.81Z"/><path class="cls-4" d="M154.44,220.69l-.35,4.67s.51,3.67.66,7.45"/><path class="cls-12" d="M140.05,237.12l.42-10a1.08,1.08,0,0,1,1.08-1h16.18a1.09,1.09,0,0,1,1,1.49l-4,10a1.09,1.09,0,0,1-1,.67H141.13A1.08,1.08,0,0,1,140.05,237.12Z"/><path class="cls-11" d="M143.14,235.22l-5.67,1.6-1.87.52a3.1,3.1,0,0,1-3.92-3.37l1.42-11.4a11.15,11.15,0,0,1,7.67-9.25l.3-.09,1.53-.49c1.92,4.51-3.27,8.49-3.27,8.49l-.58,10.41,3.52-.68Z"/><path class="cls-15" d="M142.27,231s7.08-3,7.4-2-2.47,1.73-2.47,1.73l3.83.74a.81.81,0,0,1,.54,1.21l-1,1.73a2.5,2.5,0,0,1-2.37,1.22l-5-.42Z"/><line class="cls-4" x1="143.14" y1="235.22" x2="137.47" y2="236.82"/><line class="cls-4" x1="142.27" y1="230.96" x2="136.58" y2="232.05"/><line class="cls-4" x1="139.33" y1="221.23" x2="138.75" y2="231.64"/><path class="cls-15" d="M150.37,213a10.41,10.41,0,0,0-1.7-.6v-3.79h-4.93v3.82a4.84,4.84,0,0,0-.51.14l-.16.05c.49,1.09,2,4.2,4.44,5.83l3-5.39Z"/><path class="cls-15" d="M153.82,204.38c0,.23,0,.45,0,.67a8.33,8.33,0,0,1-.09,1c-.33,2.71-1.46,5.59-3.21,7a3.7,3.7,0,0,1-2.37.9c-1.85,0-3.63-2.26-4.38-4.32l-.06-.19a0,0,0,0,1,0,0,6.31,6.31,0,1,1,10.16-5Z"/><path class="cls-16" d="M150.48,213a3.7,3.7,0,0,1-2.37.9c-1.85,0-3.63-2.26-4.38-4.32"/><path class="cls-17" d="M153.82,204.38c0,.23,0,.45,0,.67a8.33,8.33,0,0,1-.09,1,9.68,9.68,0,0,0-1.24-3.43c-1.85,1.83-7.58,0-7.58,0-1.57,1.73-.84,6-.84,6l-.36.86a0,0,0,0,1,0,0,6.31,6.31,0,1,1,10.16-5Z"/><path class="cls-15" d="M144.08,206.94s-.41-2.2-2.12-1.48.54,6.47,2.39,3.36"/><path class="cls-16" d="M142.07,206.85s.1-.81.79-.64.47,1.94.47,1.94"/><ellipse class="cls-14" cx="146.86" cy="207.68" rx="1.65" ry="1.49"/><path class="cls-14" d="M153.05,207.68a1.66,1.66,0,1,1-1.65-1.49A1.58,1.58,0,0,1,153.05,207.68Z"/><path class="cls-14" d="M148.51,207.79a1.09,1.09,0,0,1,1.24,0"/><path class="cls-16" d="M147,210.09a1.88,1.88,0,0,0,.94,1"/><path class="cls-17" d="M147.27,207.92c0,.26-.11.47-.25.47s-.24-.21-.24-.47.11-.46.24-.46S147.27,207.67,147.27,207.92Z"/><path class="cls-17" d="M151.75,207.92c0,.26-.11.47-.24.47s-.25-.21-.25-.47.11-.46.25-.46S151.75,207.67,151.75,207.92Z"/><path class="cls-16" d="M149.32,208.39s.23,1.54,1.16,2l-1.35.51"/><path class="cls-6" d="M153.23,275.24H140.64a19.46,19.46,0,0,1,.93-1.78c.2-.34.42-.68.67-1a16.8,16.8,0,0,1,3.48-3.61l-.17-1.36,5.12-1.11,2.05,7.11Z"/><path class="cls-10" d="M136.83,243.64l5.44,26.42,9.9-2.75-5.94-25.72a4.81,4.81,0,0,0-5.86-3.58h0A4.8,4.8,0,0,0,136.83,243.64Z"/><path class="cls-5" d="M152.72,273.46l.51,1.78H140.64a19.46,19.46,0,0,1,.93-1.78Z"/><polygon class="cls-5" points="171.42 275.24 153.79 275.24 154.59 273.46 168.6 273.46 171.42 275.24"/><path class="cls-8" d="M178.53,113.85s.11-9.51,9.51-9.51c0,0-9.51-.12-9.51-9.51,0,0-.12,9.51-9.52,9.51C169,104.34,178.53,104.45,178.53,113.85Z"/><path class="cls-8" d="M164.73,100.79s.07-6,6-6c0,0-6-.08-6-6,0,0-.08,6-6,6C158.76,94.83,164.73,94.9,164.73,100.79Z"/><path class="cls-18" d="M275.47,228.9c3.24-5.72-.18-16.22,5.46-23.14s13.32-4.78,14.43,0-5.81,4.7-5.38-.51,13.24-8.62,8.63-14.52"/><line class="cls-4" x1="263.33" y1="229.33" x2="261.36" y2="210.22"/><circle class="cls-10" cx="261.36" cy="210.22" r="1.44"/><g class="cls-19"><path class="cls-13" d="M291.5,249.77a25.48,25.48,0,1,1-50.95,0,24.19,24.19,0,0,1,.19-3.09,25.47,25.47,0,0,1,50.76,3.09Z"/><path class="cls-18" d="M239.26,239.87s14.58,14.66,11,33.35"/><path class="cls-18" d="M240.55,237.1s19.29,7.8,15.28,38.14"/><path class="cls-18" d="M244.13,232.83s9.14,1.89,14.86,16.78a58.89,58.89,0,0,1,3.59,27.88"/><path class="cls-18" d="M247.22,228.73s12.62.17,19.54,16.74,5.55,29.77,5.55,29.77"/><path class="cls-18" d="M254.21,224.29s12.21-.77,22.37,21.35.6,31,.6,31"/><path class="cls-18" d="M266,222.41a41.38,41.38,0,0,1,18.08,24.66c4.35,17.1.76,24.53.76,24.53"/><path class="cls-13" d="M291.5,249.77a25.46,25.46,0,0,1-1.46,8.5,57.25,57.25,0,0,0-44.92,6.07,25.38,25.38,0,0,1-4.57-14.57,24.19,24.19,0,0,1,.19-3.09,69.54,69.54,0,0,1,18.94-12c8.61-3.55,17.29-5.34,22.17-4.92A25.41,25.41,0,0,1,291.5,249.77Z"/><path class="cls-18" d="M242,266.47s21.17-17.24,51.74-7.08"/><path class="cls-18" d="M284.86,229.67c-26.13-1.11-46.11,18.79-46.11,18.79"/><path class="cls-18" d="M238.41,253.24s23.23-18.36,50-18.79"/><path class="cls-18" d="M239.69,257.17S264.2,238.55,292,242.65"/><path class="cls-18" d="M240.55,261.33s22.45-16.8,54.73-9.63"/></g><line class="cls-4" x1="277.61" y1="234.28" x2="292.72" y2="212.76"/><line class="cls-4" x1="252.97" y1="238.1" x2="240.55" y2="210.94"/><circle class="cls-10" cx="292.72" cy="212.76" r="1.44"/><circle class="cls-10" cx="240.55" cy="210.94" r="1.44"/><path class="cls-13" d="M48.45,185.51c-3.29,0-3.3,5.13,0,5.13S51.76,185.51,48.45,185.51Z"/><path class="cls-13" d="M289,162.46c-3.29,0-3.3,5.12,0,5.12S292.3,162.46,289,162.46Z"/><path class="cls-13" d="M302.83,238.28c-3.3,0-3.3,5.13,0,5.13S306.13,238.28,302.83,238.28Z"/><path class="cls-13" d="M297.45,258a1,1,0,0,0,0,2.05A1,1,0,0,0,297.45,258Z"/><path class="cls-13" d="M297.7,222.4a1,1,0,0,0,0,2A1,1,0,0,0,297.7,222.4Z"/><path class="cls-13" d="M278.49,183a1,1,0,0,0,0,2.05A1,1,0,0,0,278.49,183Z"/><path class="cls-13" d="M50.25,217.28a1,1,0,0,0,0,2.05A1,1,0,0,0,50.25,217.28Z"/></svg>