<svg xmlns="http://www.w3.org/2000/svg" viewBox="0 0 350 482"><defs><style>.cls-1{isolation:isolate;}.cls-2{fill:#ebeded;}.cls-3{fill:#8eaf5f;}.cls-4{fill:#6e91af;}.cls-5{fill:#233542;}.cls-6{fill:#f1db9d;}.cls-7{fill:#d58f6b;}.cls-8{fill:#d3756a;}.cls-13,.cls-9{fill:none;stroke-linecap:round;stroke-linejoin:round;}.cls-9{stroke:#233542;}.cls-10{fill:#3e554f;}.cls-11{fill:#a8b36e;}.cls-12{fill:#658c71;}.cls-13{stroke:#d58f6b;}.cls-14{fill:#f2d9bb;}.cls-15{fill:#6f8f53;}.cls-16,.cls-17,.cls-18,.cls-25{fill:#709053;}.cls-16{opacity:0.26;}.cls-16,.cls-18,.cls-22,.cls-23,.cls-24,.cls-25,.cls-26,.cls-29,.cls-30,.cls-31,.cls-35,.cls-37,.cls-38,.cls-39,.cls-40,.cls-41,.cls-42{mix-blend-mode:multiply;}.cls-18{opacity:0.51;}.cls-19{fill:#bdd64b;}.cls-20,.cls-22,.cls-24,.cls-30,.cls-31{fill:#8bb6cc;}.cls-21,.cls-23,.cls-41,.cls-42{fill:#cb892d;}.cls-22,.cls-45{opacity:0.56;}.cls-23{opacity:0.62;}.cls-24{opacity:0.34;}.cls-25,.cls-30{opacity:0.25;}.cls-26{opacity:0.42;}.cls-27,.cls-28,.cls-29{fill:#56585d;}.cls-28,.cls-44,.cls-45{mix-blend-mode:screen;}.cls-29{opacity:0.49;}.cls-31{opacity:0.61;}.cls-32,.cls-35,.cls-44,.cls-45{fill:#e8e9e7;}.cls-33{fill:#762644;}.cls-34,.cls-39{fill:#3f779a;}.cls-36,.cls-37,.cls-38,.cls-40{fill:#ee9e75;}.cls-37{opacity:0.41;}.cls-38{opacity:0.45;}.cls-39{opacity:0.69;}.cls-40{opacity:0.75;}.cls-41{opacity:0.22;}.cls-42{opacity:0.28;}.cls-43{fill:#cb6ea8;}.cls-44{opacity:0.46;}</style></defs><title>Artboard 24 copy 24</title><g class="cls-1"><g id="레이어_1" data-name="레이어 1"><rect class="cls-2" width="350" height="482"/><path class="cls-3" d="M350,275.48V482H.6V271S17.3,267.13,41,264c39.13-5.26,97.35-8.57,131,10.8,1.14.66,10,4.33,17.59,7.66,2.21.95,4.3,1.91,6,2.73l1.67.8a24.25,24.25,0,0,0,22.3.15l8.87-4.26c3.21-1.55,9.29-2.42,12.52-1.44,18.47,5.5,25.91,3.33,47.33,2.84,7.84-.18,14.9-.56,21.22-1.07C336.7,280,350,275.48,350,275.48Z"/><path class="cls-4" d="M244.81,249.75l-4.48-6.5a.87.87,0,0,0-1-.32l-3,1.14c.37-1.65-.14-3.82-1.79-6.22-2.67-3.87-8.94-4.65-8.94-4.65s-1.45,6.2,1.22,10.07c2.54,3.68,5.51,4.62,7.63,3.4l.15,0,4.67-1.8,4.09,5.93a.86.86,0,0,0,1.21.22A.87.87,0,0,0,244.81,249.75Z"/><path class="cls-5" d="M313.33,313.51l10.19-.71a5.41,5.41,0,0,1,5.26,2.36c2.34,3,9.69,3.54,10.86,7.66s-3.43,5.23-5.68,4.81-7.45-1.67-12.2-1.1h-3.59Z"/><path class="cls-5" d="M280.74,235.16s1.14-.21,2.31,1.64l-3.92,2.78s-1-2.69,0-3.34Z"/><path class="cls-5" d="M308.61,276s14.34-3.05,16.54,1.45l.47,4.61S308.6,286.6,308.61,276Z"/><path class="cls-5" d="M299.21,214.6s3.39-5.73,9.65-4.46,10.82,6.57,7.27,15.81c0,0-3.2,5.61-2.57,8.13s2.44.83,4.7,2.28,2.69,10.1-5.2,10.42-15.93-4.44-16.39-13.09S299.21,214.6,299.21,214.6Z"/><path class="cls-6" d="M306.25,217.49c.57,3.11-1.11,6-3.76,6.54s-5.26-1.62-5.83-4.73,1.1-6,3.75-6.54S305.67,214.38,306.25,217.49Z"/><path class="cls-7" d="M263.89,247.8s-2.57,1.07,0,6.7,5.71,12.51,9.64,10.8l2.4-1-8.83-17.95Z"/><path class="cls-8" d="M268,247.92l-7.52,4.74-11.11-3.34-3.55,6.87,9.65,7.59s5,3.73,9.08,3,11.78-7.58,11.78-7.58S276.35,249.76,268,247.92Z"/><path class="cls-5" d="M276.35,259.17s0-9.41-8.33-11.25l-2.74,1.73c3,3.22,3.92,11.1,4.2,14.77A66.54,66.54,0,0,0,276.35,259.17Z"/><path class="cls-6" d="M263.89,247.8s9.2-4.11,11.14-5.88,5.08-6.19,7.33-6.76,8.58,0,8.58,0l11.53,2.06,8.87,4.22a5.81,5.81,0,0,1,2.47,2.19c1.19,1.9,3,5.78,4.26,12.89,2,11.37,4.82,24.14,4.82,24.14l-36.45,4.23-4.89-23.07-8,3.48S272.28,252.66,263.89,247.8Z"/><path class="cls-5" d="M290.36,222.27a7,7,0,0,1-1.42-8.72c2.72-5.35,7,0,7,0s4.57-1.05,7.22,1.39,3.84,11.18-2.21,14.69Z"/><path class="cls-8" d="M290.79,236.13l1.16-7.75,10-.74.52,9.58s-3.74,11.21-12.53,9.36C284.35,245.4,290.79,236.13,290.79,236.13Z"/><path class="cls-5" d="M300.75,228.38H292l-1,6.78S299,234,300.75,228.38Z"/><path class="cls-8" d="M295.87,217.17a4.55,4.55,0,0,0-1-2.57c-2,.51-5,2.21-5.62,7.88-.8,7.83-.59,10.87,5.17,11.2,4.26.25,7.24-4.23,8.47-8.5C295.52,224.48,296,219,295.87,217.17Z"/><path class="cls-8" d="M305.41,225.43a2.31,2.31,0,1,1-2.77-1.76A2.32,2.32,0,0,1,305.41,225.43Z"/><path class="cls-4" d="M281.17,250.89s-4.21,3.55-3.63,8.42a6.17,6.17,0,0,0,.9,2.6,3.86,3.86,0,0,0,2.17,1.75l3.32,14-19.05-2.4a10.34,10.34,0,0,0-7,1.58c-2.48,1.67-4.77,4.79-3.67,10.59a10.55,10.55,0,0,0,2.36,4.85l14,16.47s-10.14,11.12-3.88,22.12,36.21-2,43.6-2.91,11.52-1.39,11.52-1.39,2.26-10.11-5.51-13.4l-6.76.38s16.91-12.26,16.78-25.15l-1.12-10.93s-14.21,7.27-19.82-6.63l-4-15.29S285.93,254.5,281.17,250.89Z"/><path class="cls-4" d="M290.94,256.17s7.39-14.81,18.53-16.51a1.62,1.62,0,0,1,1.09.23l3.18,1.9a23.58,23.58,0,0,0-17.07,15.33Z"/><path class="cls-7" d="M309.24,270.25s3.38,1,4.44,2.95-14.42-2-20.9-6.83A74.6,74.6,0,0,1,309.24,270.25Z"/><path class="cls-8" d="M292.78,266.37s10.78,1.1,16.46,3.88l-9.27,17s-4.43,5.08-10.69,5.79-27.65.61-27.65.61-7,3-11.65,1.14-3.38-2.91-2.38-3.16,5.38-1.57,6.57-4.26l-.28-3.32s3.61.63,5.36,2.15c0,0,4.64,1,11.59-1.84s15.78-5.68,15.78-5.68Z"/><path class="cls-5" d="M292.47,267c2.85.86,10.7,3.34,15.25,6l1.52-2.79c-5.68-2.78-16.46-3.88-16.46-3.88Z"/><path class="cls-8" d="M244.38,278.42c-4,1.5-7,3.58-6.64,4.65l1.81,4.93a5.2,5.2,0,0,0,.87,0l3.39,8.16s2.28,1.76,7.06,0,5.35-4.6,5.35-4.6l-2.66-8.43a5,5,0,0,0,.66-.61l-1.8-4.93C252,276.55,248.43,276.91,244.38,278.42Z"/><path class="cls-5" d="M252.42,277.62c.39,1.06-2.58,3.14-6.63,4.65s-7.66,1.86-8,.8,2.59-3.15,6.64-4.65S252,276.55,252.42,277.62Z"/><path class="cls-9" d="M250.74,285a20.94,20.94,0,0,0,2.82-1.88"/><path class="cls-9" d="M240.42,288a25.08,25.08,0,0,0,8.25-2"/><path class="cls-10" d="M244.37,273.33c1.92,2.95,2,5.1.88,5.85s-3.06-.18-5-3.12-2-7.54-2-7.54S242.45,270.39,244.37,273.33Z"/><path class="cls-11" d="M246.54,272.66c1.07,3.35.58,5.45-.71,5.87s-2.9-1-4-4.36.11-7.8.11-7.8S245.48,269.3,246.54,272.66Z"/><path class="cls-11" d="M242.68,276.8c1.71,2.44,1.84,4.26.9,4.93s-2.6-.07-4.31-2.51-1.87-6.33-1.87-6.33S241,274.35,242.68,276.8Z"/><path class="cls-10" d="M244.16,275.23c.14,3.52,1.31,5.32,2.67,5.27s2.38-1.95,2.24-5.47-2.75-7.28-2.75-7.28S244,271.71,244.16,275.23Z"/><path class="cls-12" d="M241.57,277.29c1.51,3.18,3.29,4.37,4.51,3.78s1.43-2.74-.07-5.92-5.38-5.6-5.38-5.6S240.07,274.11,241.57,277.29Z"/><path class="cls-6" d="M272,283.92l-1.15.46c-6.95,2.85-11.59,1.84-11.59,1.84-1.75-1.52-5.36-2.15-5.36-2.15l.28,3.32c-1.19,2.69-5.57,4-6.57,4.26s-2.26,1.26,2.38,3.16,11.65-1.14,11.65-1.14,5.19,0,11.21,0A15.29,15.29,0,0,0,272,283.92Z"/><path class="cls-13" d="M250,294.81a51.78,51.78,0,0,0,5.25-.73"/><line class="cls-9" x1="309.49" y1="313.51" x2="287.6" y2="326.53"/><line class="cls-9" x1="270.52" y1="308.71" x2="284.18" y2="296.45"/><line class="cls-9" x1="281.17" y1="294.85" x2="293.39" y2="299.57"/><path class="cls-9" d="M260.5,252.66s3.95,2.09,3.76,5.88"/><path class="cls-6" d="M292.78,266.37l6-14.32s3.7-5.85,10.44-4.8,7.1,12,5.68,18.31a63.4,63.4,0,0,0-1.05,6.53S303.19,267.2,292.78,266.37Z"/><path class="cls-13" d="M314.92,265.56s-1.15,5.7-1.24,7.64"/><path class="cls-4" d="M281.93,252.05s-1.95-14.68-1.19-16.89l-2.21,1.48a3,3,0,0,0-1.33,2.62,60.32,60.32,0,0,0,2.35,15Z"/><path class="cls-9" d="M287.66,279.43s1.62-.34,4.12,1.47"/><path class="cls-6" d="M258,251.84l-8.57-2.58c0-.41-.14-2.69-1.73-3.31s-5.13-2.53-5.57-3.12-.9,1.81,1.16,3.12L238,247.38a1.65,1.65,0,0,0-.33,2.38s0,2.73.81,3.62,4.41,2.88,5.4,2.69c.36-.06.91-.18,1.48-.29l9.22,7.27A12.51,12.51,0,0,0,258,251.84Z"/><path class="cls-13" d="M243.25,246s-.58,4.14,2.24,5.3"/><line class="cls-13" x1="237.63" y1="249.76" x2="243.2" y2="248.3"/><path class="cls-13" d="M243.84,256.07s2-1.32,1.65-2.77a18,18,0,0,0-1.64-3.54"/><line class="cls-13" x1="238.15" y1="252.92" x2="244.22" y2="250.42"/><line class="cls-13" x1="240.62" y1="254.89" x2="245.29" y2="252.66"/><line class="cls-13" x1="245.32" y1="255.78" x2="247.47" y2="255.38"/><line class="cls-13" x1="249.39" y1="249.26" x2="249.39" y2="250.42"/><path class="cls-13" d="M247.25,293.36c.76-.09,4.68-.33,7.14-1.65"/><polyline class="cls-9" points="236.35 244.07 234.69 244.76 233.15 242.16"/><path class="cls-8" d="M223.18,332.2h15.07c.7-1.18,1.11-4.06,1-7.4C239,320.45,238,317,236.83,317l-5.21.23a6.43,6.43,0,0,0-.3.83l-8.73.8s-2.36,1.66-2.13,6.78S223.18,332.2,223.18,332.2Z"/><path class="cls-5" d="M236.72,332.2h1.53c.7-1.18,1.11-4.06,1-7.4C239,320.45,238,317,236.83,317s-1.88,3.62-1.68,8C235.29,328.26,235.93,331,236.72,332.2Z"/><path class="cls-9" d="M231,328.91a21.11,21.11,0,0,0,.92,3.29"/><path class="cls-9" d="M231.32,318.08a25.62,25.62,0,0,0-.62,8.54"/><path class="cls-7" d="M236.48,332.2H262s-2.17-4.05-4.67-4.3a18.2,18.2,0,0,0-4.14,0,6.76,6.76,0,0,0-5.8-3.92,10,10,0,0,0-6.6,2.11s-2.29-4.09-5.55-4.17C235.2,321.92,234.61,328.15,236.48,332.2Z"/><path class="cls-14" d="M246.51,326.07a.34.34,0,0,1-.67,0,.34.34,0,1,1,.67,0Z"/><circle class="cls-14" cx="239.91" cy="327.63" r="0.38"/><path class="cls-14" d="M241.76,327.25a.19.19,0,1,1-.38,0,.19.19,0,1,1,.38,0Z"/><path class="cls-14" d="M247.35,325.39a.2.2,0,1,1-.19-.19A.2.2,0,0,1,247.35,325.39Z"/><path class="cls-14" d="M248.63,327a.2.2,0,1,1-.39,0,.19.19,0,0,1,.19-.19A.19.19,0,0,1,248.63,327Z"/><path class="cls-9" d="M294.49,228.92a3,3,0,0,1-2.23.05"/><path class="cls-5" d="M294.32,223.51c-.07.37.06.7.3.74s.49-.21.55-.58-.06-.69-.3-.74S294.38,223.14,294.32,223.51Z"/><path class="cls-5" d="M289.72,223.38c0,.37.11.7.35.73s.47-.25.52-.62-.11-.69-.35-.72S289.77,223,289.72,223.38Z"/><path class="cls-9" d="M295.92,221.58a1.59,1.59,0,0,0-2.07-.09"/><path class="cls-9" d="M291,221.36a1.18,1.18,0,0,0-1.56.13"/><polyline class="cls-9" points="292.01 222.93 290.49 226.82 292.2 227.2"/><path class="cls-15" d="M129.41,301.09s6.37-3,9.11-4.23c3.16-1.39,3-5.05,8.36-9.2,2.71-2.1,7.87-6.55,11.9-7.06s7.19-5.91,8.2-8.72,9.14-5.21,11.85-1.62,4.88,2.44,9.38,3.33,10.49-5.17,13.26,1.31,2.41,10.33,5.47,11.65-.32-3.37,5.44,0,9.09,1.76,10.14,6.67l0,.14a8.38,8.38,0,0,0,9.28,6.43,9.78,9.78,0,0,1,6.71,1.3c5,3.18,17.38,5,16.8,5.57-1.7,1.74-21.94,3-27.71,2.2s-11.5-1.63-10.16.14-3,1.72-10-.14-4.27-4.25-12.06-4.25S174.52,306,174.52,306l-20.47,4.31s-6,1.46-7.72-1.43-11-4.59-11-4.59H124l-8.06-1.71Z"/><path class="cls-16" d="M238.54,301.09c4.5,2.86,13.9,5.36,16.26,5.59-3.41.31-22,2.92-27.16,2.18-5.78-.82-11.51-1.63-10.16.13s-3,1.73-10-.13-4.28-4.25-12.08-4.25S174.51,306,174.51,306L154,310.3s-6,1.45-7.71-1.44-11-4.59-11-4.59H124l-8.07-1.7,13.5-1.48a74.81,74.81,0,0,0,9.1-4.22c2.5-1.65,4.74-3.48,8.37-9.21,0,0,7.86-6.55,11.9-7.06s7.18-5.9,8.19-8.72,9.14-5.21,11.85-1.62,4.88,2.44,9.38,3.33,10.5-5.17,13.27,1.31c.55,1.31,1,2.51,1.34,3.61a.36.36,0,0,0,0,.07c1.07,3.31,1.48,5.64,2.74,7h0a3.69,3.69,0,0,0,1.35,1c3.07,1.32-.33-3.37,5.44,0s9.09,1.77,10.14,6.66l0,.16a8.37,8.37,0,0,0,9.28,6.42A9.77,9.77,0,0,1,238.54,301.09Z"/><path class="cls-17" d="M131.85,309.8c2-.1,2.93.55,3,1.41S134,312.8,132,312.9a5.89,5.89,0,0,1-3.67-1.36A5.88,5.88,0,0,1,131.85,309.8Z"/><path class="cls-17" d="M136.09,314.9c-1.37.08-2-.37-2.06-1s.57-1.11,1.94-1.19a4.09,4.09,0,0,1,2.55.93A4.08,4.08,0,0,1,136.09,314.9Z"/><path class="cls-17" d="M129.51,313.86c1.14-.77,1.93-.73,2.26-.24s.07,1.25-1.07,2a4,4,0,0,1-2.65.52A4.12,4.12,0,0,1,129.51,313.86Z"/><path class="cls-17" d="M137.62,301c1.31-.42,2.06-.15,2.23.42s-.28,1.21-1.59,1.63a4.07,4.07,0,0,1-2.69-.28A4.06,4.06,0,0,1,137.62,301Z"/><path class="cls-17" d="M169.39,297.67c1.31-.41,2.06-.14,2.23.43s-.28,1.21-1.59,1.63a4.07,4.07,0,0,1-2.69-.28A4.11,4.11,0,0,1,169.39,297.67Z"/><path class="cls-18" d="M162.49,306.39c-1.07-.86-1.27-1.64-.9-2.1s1.16-.44,2.23.42a4.19,4.19,0,0,1,1.28,2.41A4,4,0,0,1,162.49,306.39Z"/><path class="cls-17" d="M182.44,287.14c-.77-1.15-.73-1.95-.24-2.28s1.23-.08,2,1.07a4.19,4.19,0,0,1,.52,2.68A4.11,4.11,0,0,1,182.44,287.14Z"/><path class="cls-17" d="M167.93,276.23c-.77-1.15-.73-1.94-.24-2.28s1.23-.08,2,1.07a4.15,4.15,0,0,1,.51,2.68A4,4,0,0,1,167.93,276.23Z"/><path class="cls-17" d="M142.16,303.09c-.26-.84-.1-1.31.26-1.42s.76.18,1,1a2.57,2.57,0,0,1-.17,1.72A2.58,2.58,0,0,1,142.16,303.09Z"/><path class="cls-17" d="M171.79,297.54c-.26-.84-.1-1.31.26-1.42s.76.18,1,1a2.64,2.64,0,0,1-.17,1.72A2.58,2.58,0,0,1,171.79,297.54Z"/><path class="cls-17" d="M217.49,291.32c1.31-.42,2-.15,2.23.42s-.28,1.21-1.59,1.63a4.09,4.09,0,0,1-2.7-.28A4.11,4.11,0,0,1,217.49,291.32Z"/><path class="cls-17" d="M219.88,291.18c-.26-.83-.09-1.31.27-1.42s.76.18,1,1a2.65,2.65,0,0,1-.17,1.72A2.62,2.62,0,0,1,219.88,291.18Z"/><path class="cls-17" d="M167.36,279.29c-.26-.84-.09-1.31.27-1.43s.76.18,1,1a2.64,2.64,0,0,1-.17,1.72A2.58,2.58,0,0,1,167.36,279.29Z"/><path class="cls-18" d="M142.58,298.12c.71-.51,1.21-.49,1.43-.18s.06.78-.65,1.29a2.55,2.55,0,0,1-1.68.36A2.64,2.64,0,0,1,142.58,298.12Z"/><path class="cls-17" d="M145.47,292.11c.25-.84.65-1.14,1-1s.53.58.29,1.43a2.62,2.62,0,0,1-1.1,1.33A2.7,2.7,0,0,1,145.47,292.11Z"/><path class="cls-17" d="M170.39,300.57c.72-.51,1.22-.49,1.43-.19s.07.79-.65,1.3a2.53,2.53,0,0,1-1.67.36A2.57,2.57,0,0,1,170.39,300.57Z"/><path class="cls-18" d="M160.13,306.58c.71-.51,1.21-.49,1.43-.18s.06.78-.65,1.29a2.53,2.53,0,0,1-1.67.36A2.6,2.6,0,0,1,160.13,306.58Z"/><path class="cls-18" d="M180.32,288.06c.72-.5,1.22-.49,1.43-.18s.07.79-.65,1.29a2.56,2.56,0,0,1-1.67.37A2.61,2.61,0,0,1,180.32,288.06Z"/><path class="cls-18" d="M211.18,289c.71-.51,1.21-.49,1.43-.18s.06.78-.65,1.29a2.53,2.53,0,0,1-1.67.36A2.6,2.6,0,0,1,211.18,289Z"/><path class="cls-17" d="M134.76,300.47c.84-.22,1.3,0,1.39.34s-.21.76-1.06,1a2.56,2.56,0,0,1-1.69-.26A2.57,2.57,0,0,1,134.76,300.47Z"/><path class="cls-19" d="M143.5,291c.84-.22,1.31,0,1.4.34s-.22.76-1.06,1a2.62,2.62,0,0,1-1.7-.27A2.63,2.63,0,0,1,143.5,291Z"/><path class="cls-19" d="M165.15,274.31c.77.5.95,1,.74,1.34s-.75.37-1.52-.13a2.81,2.81,0,0,1-1-1.53A2.73,2.73,0,0,1,165.15,274.31Z"/><path class="cls-19" d="M178.81,286c.84-.21,1.31,0,1.4.34s-.22.76-1.06,1a2.6,2.6,0,0,1-1.7-.26A2.62,2.62,0,0,1,178.81,286Z"/><path class="cls-19" d="M213.85,286c-.72.14-1.09.49-1.14.86s.23.59,1,.45a3.05,3.05,0,0,0,1.4-.9A1.39,1.39,0,0,0,213.85,286Z"/><path class="cls-19" d="M196.39,293.48c-.37-.5-.75-.51-1-.24a.94.94,0,0,0,.1,1.22,1.34,1.34,0,0,0,1.14.42A2.18,2.18,0,0,0,196.39,293.48Z"/><path class="cls-19" d="M216.25,289.06c-.37-.5-.75-.51-1-.24a1,1,0,0,0,.1,1.23,1.36,1.36,0,0,0,1.14.41A2.18,2.18,0,0,0,216.25,289.06Z"/><path class="cls-19" d="M165.82,276.47c.85-.22,1.31,0,1.4.34s-.22.76-1.06,1a2.6,2.6,0,0,1-1.7-.26A2.58,2.58,0,0,1,165.82,276.47Z"/><path class="cls-18" d="M153.18,287.49a4,4,0,0,0,1.66,2.2c1.59.89,2.92,1.4,3.46,1.2.72-.28.48-1,2.79-1.33s7.26,2.33,7.64,2.06,2.78-2.42,1.52,0-5.3,3.47-6.87,2.21,0-3.9-2.53-2.21-3.29.71-6.21.88-3,3.38-4,.81a5.05,5.05,0,0,1,1.85-5.91C152.9,287.19,153.1,287.28,153.18,287.49Z"/><path class="cls-18" d="M186.5,298.67c1.29,0,4.61-.28,5.58,0s4.5,2.22,7.42,1.19,6-1.66,8-.25-.15,1.58-2.13,1.5-1.38-.35-3.81.95-7.83,1.15-7.83,1.15l-4.08-1.15s-6.37.76-9,1.16S180.91,298.67,186.5,298.67Z"/><path class="cls-18" d="M205.35,287.66c-1.61,1.11-4.27-2.08-8.44-5.26s-1.55-.25-2.94,1-3.71.92-5.7-.84-4.08-2.78-2-3,2.14,1.44,4.77,1,.9-1.64,5.84,0,5.91-2.09,5.91-2.09a.36.36,0,0,0,0,.07c1.07,3.31,1.48,5.64,2.74,7h0C205.8,286.58,205.77,287.37,205.35,287.66Z"/><path class="cls-20" d="M152.51,307a.53.53,0,0,0,.26,0l.49-.09,19.15-3.78a.63.63,0,0,0,.45-.34l0-.06a1.19,1.19,0,0,0,0-.33.62.62,0,0,0-.71-.49l-18.73,3.69-1.2.3v0a.6.6,0,0,0-.2.6A.55.55,0,0,0,152.51,307Z"/><path class="cls-21" d="M135.74,312.46a1.57,1.57,0,0,0,.18-.89,1.53,1.53,0,0,0-1.65-1.38l-93.34,9a1.54,1.54,0,0,0-1.37,1.67,1.52,1.52,0,0,0,1.66,1.37l93.34-9A1.54,1.54,0,0,0,135.74,312.46Z"/><path class="cls-20" d="M133,313.5l10.79-.44a.53.53,0,0,0,.3-.07h0c1.39-.58-.18-4.73-.4-4.66l-11,2c-.47,0-.48,1.89-.44,2.07C132.48,313.11,132.73,313.49,133,313.5Z"/><path class="cls-22" d="M152.31,306.87a.53.53,0,0,0,.26,0l.49-.1L172.21,303a.63.63,0,0,0,.45-.34l0-.06a1.25,1.25,0,0,0,0-.34.55.55,0,0,0-.2-.3.57.57,0,0,1,.4.42,1.19,1.19,0,0,1,0,.33l0,.06a.63.63,0,0,1-.45.34l-19.15,3.78-.49.09a.53.53,0,0,1-.26,0,.58.58,0,0,1-.31-.16S152.27,306.87,152.31,306.87Z"/><path class="cls-20" d="M174.33,303.46a.66.66,0,0,0,0-.37.63.63,0,0,0-.72-.49l-20.78,4.1a.63.63,0,0,0-.48.73.61.61,0,0,0,.72.48l20.77-4.1A.59.59,0,0,0,174.33,303.46Z"/><path class="cls-22" d="M152.83,307.75l20.78-4.1a.61.61,0,0,0,.44-.35.58.58,0,0,0,0-.37.5.5,0,0,0-.18-.27.58.58,0,0,1,.47.43.66.66,0,0,1,0,.37.59.59,0,0,1-.44.35l-20.77,4.1a.56.56,0,0,1-.54-.21C152.67,307.72,152.74,307.77,152.83,307.75Z"/><path class="cls-20" d="M176.84,304.58a.55.55,0,0,0,0-.36.6.6,0,0,0-.7-.5l-23.41,4.09A.61.61,0,1,0,153,309l23.41-4.09A.6.6,0,0,0,176.84,304.58Z"/><path class="cls-22" d="M152.74,308.89l23.41-4.09a.58.58,0,0,0,.45-.35.54.54,0,0,0-.14-.67.59.59,0,0,1,.42.44.55.55,0,0,1,0,.36.6.6,0,0,1-.45.35L153,309a.56.56,0,0,1-.51-.19A.51.51,0,0,0,152.74,308.89Z"/><path class="cls-20" d="M178.81,306a.56.56,0,0,0,.05-.34.62.62,0,0,0-.7-.52L153.38,309a.63.63,0,0,0-.52.7.62.62,0,0,0,.7.51l24.79-3.81A.63.63,0,0,0,178.81,306Z"/><path class="cls-20" d="M181,308.15a.57.57,0,0,0,.05-.34.62.62,0,0,0-.69-.53l-26,3.82a.62.62,0,0,0-.51.7.6.6,0,0,0,.69.52l26-3.82A.6.6,0,0,0,181,308.15Z"/><path class="cls-20" d="M183.08,309.75a.72.72,0,0,0,0-.33.62.62,0,0,0-.68-.53l-29.29,3.67a.62.62,0,0,0-.53.69.62.62,0,0,0,.68.54l29.29-3.68A.62.62,0,0,0,183.08,309.75Z"/><path class="cls-22" d="M153.33,310.07l24.78-3.81a.63.63,0,0,0,.46-.36.59.59,0,0,0,.05-.35.56.56,0,0,0-.19-.31.58.58,0,0,1,.43.45.56.56,0,0,1-.05.34.63.63,0,0,1-.46.36l-24.79,3.81a.56.56,0,0,1-.51-.2A.47.47,0,0,0,153.33,310.07Z"/><path class="cls-20" d="M184.33,311.53a.59.59,0,0,0,.06-.32.63.63,0,0,0-.67-.55l-30.4,2.9a.62.62,0,0,0-.55.67.61.61,0,0,0,.67.55l30.39-2.9A.59.59,0,0,0,184.33,311.53Z"/><path class="cls-20" d="M179.94,307a.58.58,0,0,0,.05-.35.61.61,0,0,0-.7-.51l-26.2,4a.62.62,0,0,0,.18,1.22l26.21-4.05A.63.63,0,0,0,179.94,307Z"/><path class="cls-22" d="M153,311.19l26.2-4.05a.65.65,0,0,0,.47-.36.83.83,0,0,0,0-.35.53.53,0,0,0-.18-.28.57.57,0,0,1,.5.46.59.59,0,0,1-.05.35.63.63,0,0,1-.46.36l-26.21,4.05a.58.58,0,0,1-.52-.23C152.82,311.15,152.88,311.2,153,311.19Z"/><path class="cls-20" d="M185.91,313.43a.61.61,0,0,0-.57-.87l-29.79,1.06a.62.62,0,0,0-.59.64.6.6,0,0,0,.63.59l29.79-1.06A.59.59,0,0,0,185.91,313.43Z"/><path class="cls-23" d="M131.75,312.43c.51-.06.32-1.87.9-2.08-.52.32-.59,2.59.11,3.06l-91.54,8.81a1.48,1.48,0,0,1-1.52-.93Z"/><path class="cls-22" d="M154.21,312.17l26-3.81a.63.63,0,0,0,.47-.36.56.56,0,0,0,.05-.34.61.61,0,0,0-.18-.31.55.55,0,0,1,.44.46.57.57,0,0,1-.05.34.6.6,0,0,1-.46.35l-26,3.82a.58.58,0,0,1-.51-.21A.41.41,0,0,0,154.21,312.17Z"/><path class="cls-22" d="M153,313.59l29.28-3.68a.61.61,0,0,0,.48-.36.53.53,0,0,0,.05-.33.56.56,0,0,0-.16-.29.61.61,0,0,1,.52.49.72.72,0,0,1,0,.33.62.62,0,0,1-.48.36l-29.29,3.68a.57.57,0,0,1-.51-.25S152.9,313.6,153,313.59Z"/><path class="cls-22" d="M152.91,314.49a.58.58,0,0,0,.29.09l30.4-2.9a.6.6,0,0,0,.5-.36.63.63,0,0,0,.05-.31.51.51,0,0,0-.14-.26.57.57,0,0,1,.37.46.51.51,0,0,1,0,.32.59.59,0,0,1-.5.35l-30.39,2.9A.58.58,0,0,1,152.91,314.49Z"/><path class="cls-22" d="M155,314.44a.57.57,0,0,0,.33.13l29.79-1.06a.63.63,0,0,0,.54-.36.87.87,0,0,0,.05-.28c0-.07-.06-.12-.08-.18a.59.59,0,0,1,.3.47.63.63,0,0,1-.06.27.59.59,0,0,1-.53.36l-29.79,1.06A.57.57,0,0,1,155,314.44Z"/><path class="cls-20" d="M156.5,315.72l.13,0,4,.22h.12l25.27-.77s.39-.21.44-.33a.54.54,0,0,0,.06-.25s0,0,0,0a.63.63,0,0,0-.63-.6l-26.55.81h0l-.92,0-1.34,0a.59.59,0,0,0-.44.24s0,0-.05,0h0a.76.76,0,0,0-.1.37A.65.65,0,0,0,156.5,315.72Z"/><path class="cls-20" d="M143.77,313.06l12.75,2.71,4,.22h.12l-.53-.49h0c-.2-.19-.45-.42-.76-.69h0c-1.72-1.64-4.69-4.69-5.73-7a5.89,5.89,0,0,1-.33-.9,1.56,1.56,0,0,1,0-.3,1.37,1.37,0,0,1,.23-1l-1.19.31v0l-8.57,2.41.06,3.56Z"/><path class="cls-24" d="M133,313.5l10.91-.47,12.61,2.69.13,0,4,.22h.12l25.27-.77s.39-.21.44-.33a.54.54,0,0,0,.06-.25c-1.65.6-20.92.8-26.3.85h-1.34a15.67,15.67,0,0,1-2.19-.35h-.07c-1.22-.28-2.65-.64-3.72-.88l-9.73-2.52-10.89.74C132.35,312.79,132.69,313.51,133,313.5Z"/><path class="cls-24" d="M152,307.18s-7.32,1.37-7.49,2.68l-.16,1.31s.35-1.3.87-1.64S152,307.18,152,307.18Z"/><path class="cls-17" d="M184.2,226.6a2.69,2.69,0,0,0,3.28,0s.29-1.44-1.67-2.64a7.19,7.19,0,0,0-4.35-.83A7.26,7.26,0,0,0,184.2,226.6Z"/><path class="cls-17" d="M200.29,234.9a3.85,3.85,0,0,0,3-3.53s-1.25-1.66-4.33-.68a10.27,10.27,0,0,0-4.93,3.87A10.21,10.21,0,0,0,200.29,234.9Z"/><path class="cls-17" d="M172.08,231.42a2.12,2.12,0,0,1,2.48-.68s.52,1-.7,2.35a5.72,5.72,0,0,1-3.11,1.56A5.8,5.8,0,0,1,172.08,231.42Z"/><path class="cls-17" d="M187.5,212.31a2.75,2.75,0,0,1-1,3.16s-1.46-.14-2-2.38a7.35,7.35,0,0,1,.46-4.44A7.35,7.35,0,0,1,187.5,212.31Z"/><path class="cls-17" d="M162.41,202.91c.92-3.13,3.45-3.11,3.45-3.11s1.67,1.24.74,4.36a10.3,10.3,0,0,1-3.76,5A10.41,10.41,0,0,1,162.41,202.91Z"/><path class="cls-17" d="M171.62,186.57a2.74,2.74,0,0,0,1-3.14s-1.27-.74-3,.76a7.39,7.39,0,0,0-2.15,3.91A7.24,7.24,0,0,0,171.62,186.57Z"/><path class="cls-17" d="M184.49,173.79c0-3.26-2.37-4-2.37-4s-2,.67-2,3.93a10.37,10.37,0,0,0,2.08,5.94A10.39,10.39,0,0,0,184.49,173.79Z"/><path class="cls-17" d="M172.33,199.69a2.16,2.16,0,0,1,.14-2.58s1.14-.18,2,1.41A5.77,5.77,0,0,1,175,202,5.7,5.7,0,0,1,172.33,199.69Z"/><path class="cls-17" d="M159.21,178.92a2.71,2.71,0,0,1,2.67,1.92s-.59,1.35-2.88,1.2a7.27,7.27,0,0,1-4-1.85A7.22,7.22,0,0,1,159.21,178.92Z"/><path class="cls-17" d="M142.46,200a3.86,3.86,0,0,1-1.83-4.28s1.68-1.2,4.33.66a10.39,10.39,0,0,1,3.55,5.19A10.15,10.15,0,0,1,142.46,200Z"/><path class="cls-17" d="M195,257.22a2.72,2.72,0,0,0,2-2.59s-.93-1.13-3.09-.35a7.32,7.32,0,0,0-3.37,2.9A7.18,7.18,0,0,0,195,257.22Z"/><path class="cls-17" d="M211.53,249.81a3.88,3.88,0,0,0-.82-4.6s-2.06-.06-3.24,3a10.42,10.42,0,0,0-.12,6.3A10.28,10.28,0,0,0,211.53,249.81Z"/><path class="cls-17" d="M186.08,245.66a2.74,2.74,0,0,1,1.82,2.75s-1,1.05-3.1.1a7.32,7.32,0,0,1-3.14-3.16A7.19,7.19,0,0,1,186.08,245.66Z"/><path class="cls-17" d="M163.07,259.45a3.89,3.89,0,0,1-.23-4.66s2-.53,3.83,2.15a10.48,10.48,0,0,1,1.52,6.12A10.27,10.27,0,0,1,163.07,259.45Z"/><path class="cls-17" d="M156.25,242a2.73,2.73,0,0,0-1.79-2.77s-1.37.54-1.31,2.85a7.35,7.35,0,0,0,1.66,4.14A7.35,7.35,0,0,0,156.25,242Z"/><path class="cls-17" d="M154.47,223.83c-2.48-2.1-4.58-.67-4.58-.67s-.7,2,1.78,4.05a10.18,10.18,0,0,0,5.89,2.09A10.37,10.37,0,0,0,154.47,223.83Z"/><path class="cls-17" d="M166.82,249.64a2.13,2.13,0,0,1-1.9-1.73s.57-1,2.34-.68a5.71,5.71,0,0,1,3,1.79A5.68,5.68,0,0,1,166.82,249.64Z"/><path class="cls-17" d="M142.55,246.89a2.68,2.68,0,0,1,3.16-.88s.67,1.31-.88,3a7.23,7.23,0,0,1-4,2A7.43,7.43,0,0,1,142.55,246.89Z"/><path class="cls-17" d="M18.53,233c1.25,20.48,9.8,39.77,17,52a37.12,37.12,0,0,0,20.89,16.26.16.16,0,0,0,.09,0A37.5,37.5,0,0,0,67.33,303c1.28,0,3,.06,4.93-.09a31,31,0,0,0,17.07-6.77,52.86,52.86,0,0,0,9.21-9.25,92.18,92.18,0,0,0,19.79-65.33c-.21-2.62-3.83-32.29-4-34.45-.63-9.08,2.49-19.32,0-35.21A45.81,45.81,0,0,0,111.16,140a95.93,95.93,0,0,1-4.3-11.64c-1.57-5.11-.45-11.39-4.69-10.55-2.18.42-8.12-13.65-8.12-30.68,0-12.18-5.27-23.38-8.28-28.79a41.67,41.67,0,0,1-3.32-8.26c-1.17-4-5.25-10.74-8.41-11.76l-.15-.06-.29-.06c-.12,0-.23,0-.35,0-.92,0-1.71.63-2.29,2.12l-.81,2.22C68.88,46,67.92,49.06,67,51.17a14.1,14.1,0,0,1-.68,1.44,4.83,4.83,0,0,1-.26.45,2.49,2.49,0,0,1-.25.38,2.82,2.82,0,0,1-.67.7,15.36,15.36,0,0,0-5.33,10.7c-.06.73-.12,1.46-.21,2.16a15,15,0,0,1-.91,3.8v0a3.35,3.35,0,0,1-.3.67,3.41,3.41,0,0,1-.35.65,3.31,3.31,0,0,1-.39.61,2.47,2.47,0,0,1-.33.41A6.34,6.34,0,0,1,54.74,75a5.25,5.25,0,0,0-1,.53,3.4,3.4,0,0,0-.3.23,4.4,4.4,0,0,0-1,1,2.88,2.88,0,0,0-.27.41,3.62,3.62,0,0,0-.24.43,5.7,5.7,0,0,0-.35.8,14.75,14.75,0,0,0-.59,2c-.92,4.26-3.84,7.53-7.36,10a2.84,2.84,0,0,0-.63.59,1.86,1.86,0,0,0-.21.28,21.23,21.23,0,0,0-2.46,5.75c-.1.33-.21.67-.31,1-.55,1.92-1.09,4.11-1.6,6.5-.12.56-.24,1.14-.36,1.72-.47,2.34-.91,4.82-1.32,7.39,0,.32-.09.64-.15,1-.19,1.3-.37,2.6-.56,3.93-.07.62-.16,1.26-.24,1.9a.28.28,0,0,1,0,.09c-.08.67-.15,1.34-.24,2-.39,3.52-.71,7-.91,10.4,0,.33,0,.67-.06,1a105.36,105.36,0,0,0-.07,11c1.2,21.59-7.09,37.13-14.14,65.89-.17.68-.32,1.38-.47,2.08s-.27,1.4-.41,2.1a.09.09,0,0,1,0,0A74.17,74.17,0,0,0,18.53,233Z"/><path class="cls-25" d="M73.35,144.15s-7.32-21.52-8-16.62c-.58,4.39-1.73,4.64-1.73,4.64s-1.9-14.35-2.94-15.67C59,114.37,55.11,138.64,53,139.7s-3-2.49-3.58-2.49c-1.72,0-3.83,19.77-3.83,19.77s3.92-12.21,5.89-12.64,4.63,2.81,6.78-2.61,2.86-2.89,5.91-3.07,2.24-4.87,3.72-4S73.35,144.15,73.35,144.15Z"/><path class="cls-25" d="M38.83,215.21s3.86-21.8,4.46-16.39c.54,4.83,3.07,2.84,3.07,2.84s2.77-5,3.32-6.49c.9-2.4,2,13.43,3.31,14.56s1.66-2.84,2-2.86c1,0,2.29,13.61,2.29,13.61s-2-5.24-3.17-5.67S51.51,218,50,212.1s-1.82-3.13-3.62-3.25-1.55-5.33-2.37-4.3S38.83,215.21,38.83,215.21Z"/><path class="cls-25" d="M93.62,212.05c.57,4.38,3.47,10.83,4.52,9.51,1.68-2.13,2.8-14.87,4.92-13.8s-1.37,21.48,4.3,19.35c1.62-.61.15,19.07.15,19.07s-1.58-14.39-3.55-14.83-2.69,1-4.84-4.41c-4.89,0-3.81-7.85-6.85-8s-5.59,4.08-7.06,5S93,207.14,93.62,212.05Z"/><path class="cls-25" d="M82.17,192.49s-.3-12,2.9-9.54c3.72,2.88,1.15-8.37,3.72-11.75C90.6,175,90,181,91.93,181s3.28-5.41,4.89-4.12,4.09,6.26,4.34,10.3-4-8.55-6-6.18-4.51,1.34-5.93.74-.92,7.91-3.67,5.44S82.17,192.49,82.17,192.49Z"/><path class="cls-25" d="M66.83,173s-3.74-7.69-5-5.06c-1.4,3.06-3.46-4.9-6.19-6.18.09,3,2.49,6.6,1.23,7.25s-3.84-2.33-4.44-1-.53,5.32.63,8-.25-6.74,1.76-5.89,3.29-.66,4-1.51S62,173.27,63,170.8,66.83,173,66.83,173Z"/><path class="cls-25" d="M89.12,246.89s-5.35-11.3-6.51-9.2,0,6.62-1.4,5.69S77.56,231,76.48,230s.88,10.3-.75,9.39S73,234,72.05,238.2a47.27,47.27,0,0,0-1,8.47s1.3-6.65,2.91-6,2.93,1.56,3.62.45,2.43,4.9,3.51,5.36,2.58-5.64,3.24-5S89.12,246.89,89.12,246.89Z"/><path class="cls-25" d="M73.09,52s.74-13,1.75-8.54.33,7.34,1.86,5.63S79.46,44,80.62,51s.18,10.76,1.18,8.54,1.51-1.37,1.85,2.56.34,7.69,0,6.49-1-6.49-1.85-6.49-2.29-3.41-2.51-7.17-3.24-4.44-3.59-3.07S73.09,52,73.09,52Z"/><path class="cls-25" d="M72.3,83.28s.41-15.2-1.4-12.3-1.08,6-2,7.18-2.34-3.25-2.12-3.93a69.93,69.93,0,0,0-2.14,11.61c-.34,5.47,2.16-4.61,4.26-5.63S72.3,83.28,72.3,83.28Z"/><path class="cls-25" d="M85,118.32s.41-15.37,2.42-8.88,4.29,10.42,3.75,7.69,1.66-12.81,2.5-2.74,2.71,18.11,2.37,12.47,4.79-2.71,4.57,8.74c-4.57-8.74-4.73-.5-5.58-5.8s-3.35-4.13-3.86-8.92-1.77,2.11-2.71-.34C85.72,113.37,85,118.32,85,118.32Z"/><g class="cls-26"><path class="cls-17" d="M55.22,83.75c-1.5-4.81-3.06-4.85-4.51-1.93.53-3.14,1.31-5.73,4-6.8a6.89,6.89,0,0,0,4-4.22C58.22,74.8,58.25,79.73,55.22,83.75Z"/><path class="cls-17" d="M59.63,67a5.24,5.24,0,0,1,2.77-2.92C67,62,67,56.34,67,51.17a14.1,14.1,0,0,1-.68,1.44c-.09.16-.17.31-.26.45a4.13,4.13,0,0,1-.25.38,2.82,2.82,0,0,1-.67.7,15.36,15.36,0,0,0-5.33,10.7C59.78,65.57,59.72,66.3,59.63,67Z"/><path class="cls-17" d="M70.16,42.51c.25-.72.52-1.45.81-2.21.72-1.9,1.82-2.39,3.06-2C72.83,42,71.79,43.85,70.16,42.51Z"/><path class="cls-17" d="M18.53,233c1.25,20.48,9.8,39.77,17,52a37.12,37.12,0,0,0,20.89,16.26.16.16,0,0,0,.09,0,43.58,43.58,0,0,0,9.77,1.45c2,.06,4,.12,5.93.15a31,31,0,0,0,17.07-6.77,5,5,0,0,0-1.93-.35c-5.69.07-10.44-3.24-15.22-9.23a24.64,24.64,0,0,0-11.74-7.84c-7.51-2.45-11.37-13.13-14.28-24.17a40.71,40.71,0,0,0-4.75-11.27c-5.54-8.83-6.31-31-4.17-41.88-3.61-16.88,5.26-41.21,3.06-62.72-6.59-4.58,5.18-33.43,7.43-45.87a11.27,11.27,0,0,1-1.07,1.52c-.91-3.45-2-4.51-3-3.83a2.84,2.84,0,0,0-.63.59,1.86,1.86,0,0,0-.21.28,21.23,21.23,0,0,0-2.46,5.75c-.1.33-.21.67-.31,1-.55,1.92-1.09,4.11-1.6,6.5-.12.56-.24,1.14-.36,1.72-.47,2.34-.91,4.82-1.32,7.39,0,.32-.09.64-.15,1-.19,1.3-.37,2.6-.56,3.93-.07.62-.16,1.26-.24,1.9a.28.28,0,0,1,0,.09c-.08.67-.15,1.34-.24,2-.39,3.52-.71,7-.91,10.4,0,.33,0,.67-.06,1a105.36,105.36,0,0,0-.07,11c1.2,21.59-7.09,37.13-14.14,65.89-.17.68-.32,1.38-.47,2.08s-.27,1.4-.41,2.1a.09.09,0,0,1,0,0A81.68,81.68,0,0,0,18.53,233Z"/></g><path class="cls-25" d="M69,269.55s-11.23-22.5-11.21-17c0,4.89-1.2,5.34-1.2,5.34S52.33,242.43,51,241.13c-2.16-2.07-2.85,25.13-5,26.62s-3.7-2.29-4.3-2.2c-1.9.26-1.27,22.26-1.27,22.26s.39-13.2,2.49-14,7.59,1.61,9.14-4.66,2.71-3.6,6-4.26,1.74-5.67,3.49-4.91S69,269.55,69,269.55Z"/><path class="cls-25" d="M69.46,105.5a2.93,2.93,0,0,0,.16,3.52s1.54.25,2.72-1.9a7.88,7.88,0,0,0,.71-4.71A7.69,7.69,0,0,0,69.46,105.5Z"/><path class="cls-25" d="M71.49,108.39a2.3,2.3,0,0,0-.66,2.67s1.1.54,2.47-.81a6.15,6.15,0,0,0,1.57-3.36A6.07,6.07,0,0,0,71.49,108.39Z"/><path class="cls-25" d="M65.34,110.73a2.28,2.28,0,0,0,1.92,2s1-.67.6-2.55a6.13,6.13,0,0,0-2-3.1A6.2,6.2,0,0,0,65.34,110.73Z"/><path class="cls-25" d="M64.63,114.9a1.71,1.71,0,0,0,1.44,1.47s.77-.5.45-1.91A4.57,4.57,0,0,0,65,112.13,4.61,4.61,0,0,0,64.63,114.9Z"/><path class="cls-25" d="M83.57,75.75a2.26,2.26,0,0,1-.12,2.71s-1.19.19-2.1-1.46a6.07,6.07,0,0,1-.54-3.62A6,6,0,0,1,83.57,75.75Z"/><path class="cls-25" d="M81.89,78.72a1.33,1.33,0,0,1,.38,1.56s-.64.32-1.44-.47a3.61,3.61,0,0,1-.92-2A3.59,3.59,0,0,1,81.89,78.72Z"/><path class="cls-25" d="M86.21,73.22a2,2,0,0,1-1.67,1.7s-.89-.58-.52-2.21A5.35,5.35,0,0,1,85.79,70,5.4,5.4,0,0,1,86.21,73.22Z"/><path class="cls-25" d="M85.79,79.18a1.68,1.68,0,0,1-1.57,1.32s-.72-.57-.26-1.94a4.55,4.55,0,0,1,1.73-2.17A4.64,4.64,0,0,1,85.79,79.18Z"/><path class="cls-25" d="M85.92,127.63a2.26,2.26,0,0,0,.13,2.71s1.18.19,2.09-1.46a6.07,6.07,0,0,0,.54-3.62A6,6,0,0,0,85.92,127.63Z"/><path class="cls-25" d="M88.12,140.45a1.33,1.33,0,0,0-.39,1.57s.64.31,1.44-.48a3.57,3.57,0,0,0,.93-2A3.52,3.52,0,0,0,88.12,140.45Z"/><path class="cls-25" d="M84.1,135.25a2,2,0,0,0,2.15,1s.64-.86-.26-2.26a5.3,5.3,0,0,0-2.59-1.92A5.42,5.42,0,0,0,84.1,135.25Z"/><path class="cls-25" d="M84.21,140.91a1.7,1.7,0,0,0,1.57,1.33s.72-.57.27-1.94a4.61,4.61,0,0,0-1.74-2.17A4.6,4.6,0,0,0,84.21,140.91Z"/><path class="cls-25" d="M44.65,127.3a1.33,1.33,0,0,0,.74,1.44s.69-.19.77-1.32a3.6,3.6,0,0,0-.6-2.1A3.65,3.65,0,0,0,44.65,127.3Z"/><path class="cls-25" d="M42,130.25a1.67,1.67,0,0,0,2-.05s.17-.91-1.06-1.64a4.48,4.48,0,0,0-2.73-.47A4.56,4.56,0,0,0,42,130.25Z"/><path class="cls-25" d="M53.53,152.21a1.33,1.33,0,0,0,.74,1.43s.68-.19.77-1.31a3.57,3.57,0,0,0-.6-2.1A3.61,3.61,0,0,0,53.53,152.21Z"/><path class="cls-25" d="M50.9,155.15a1.68,1.68,0,0,0,2,0s.17-.91-1.06-1.64a4.53,4.53,0,0,0-2.73-.48A4.56,4.56,0,0,0,50.9,155.15Z"/><path class="cls-17" d="M107.87,88a2.15,2.15,0,0,0-1.26,2.26s.86.76,2.43-.11a5.73,5.73,0,0,0,2.26-2.65A5.63,5.63,0,0,0,107.87,88Z"/><path class="cls-17" d="M98.57,91.37a2.74,2.74,0,0,0,1.86,2.72s1.35-.58,1.23-2.88a7.32,7.32,0,0,0-1.75-4.1A7.34,7.34,0,0,0,98.57,91.37Z"/><path class="cls-17" d="M133.78,110a2.7,2.7,0,0,0-3.21-.71s-.6,1.35,1.05,2.95a7.22,7.22,0,0,0,4.06,1.79A7.4,7.4,0,0,0,133.78,110Z"/><path class="cls-17" d="M117.27,116.38c-.36-3.24-2.86-3.67-2.86-3.67s-1.85.93-1.49,4.17a10.36,10.36,0,0,0,2.83,5.62A10.45,10.45,0,0,0,117.27,116.38Z"/><path class="cls-17" d="M119.93,98.26A3.84,3.84,0,0,0,116.2,101s.85,1.9,4.07,1.64a10.19,10.19,0,0,0,5.67-2.66A10.26,10.26,0,0,0,119.93,98.26Z"/><path class="cls-17" d="M146.65,108a2.11,2.11,0,0,1-2.56.11s-.28-1.12,1.21-2.14a5.67,5.67,0,0,1,3.37-.82A5.75,5.75,0,0,1,146.65,108Z"/><path class="cls-17" d="M127.4,123.16a2.74,2.74,0,0,1,1.65-2.86s1.39.46,1.45,2.77a7.35,7.35,0,0,1-1.43,4.23A7.4,7.4,0,0,1,127.4,123.16Z"/><path class="cls-17" d="M149.78,138c-1.59,2.84-4.06,2.25-4.06,2.25s-1.34-1.58.25-4.42a10.23,10.23,0,0,1,4.78-4.05A10.39,10.39,0,0,1,149.78,138Z"/><path class="cls-17" d="M137.19,151.82a2.75,2.75,0,0,0-1.68,2.84s1.08,1,3.11-.06a7.33,7.33,0,0,0,3-3.33A7.19,7.19,0,0,0,137.19,151.82Z"/><path class="cls-17" d="M121.82,161.39c-.78,3.17,1.41,4.44,1.41,4.44s2.06-.22,2.83-3.38a10.37,10.37,0,0,0-.72-6.26A10.33,10.33,0,0,0,121.82,161.39Z"/><path class="cls-17" d="M139.39,138.87a2.15,2.15,0,0,1-.7,2.49s-1.15-.08-1.63-1.83a5.73,5.73,0,0,1,.29-3.48A5.7,5.7,0,0,1,139.39,138.87Z"/><path class="cls-17" d="M147.59,162.08a2.74,2.74,0,0,1-2.17-2.48s.87-1.18,3.07-.51a7.24,7.24,0,0,1,3.52,2.7A7.19,7.19,0,0,1,147.59,162.08Z"/><path class="cls-17" d="M168.58,145.33a3.87,3.87,0,0,1,.84,4.58s-1.91.79-4.08-1.62a10.34,10.34,0,0,1-2.31-5.86A10.22,10.22,0,0,1,168.58,145.33Z"/><path class="cls-27" d="M99.71,124.21a1.92,1.92,0,0,0,2.65-.75c.37-.52.74-1,1.12-1.58,1.79-2.59,3.52-5.4,5.18-8.39,1-1.73,1.93-3.55,2.87-5.42.41-.8.8-1.61,1.2-2.44s.7-1.46,1-2.21c.43-.91.84-1.84,1.26-2.77a.69.69,0,0,0-.2-.87c-.18-.12-1.34,1.56-3.15,4-.54.73-1.14,1.55-1.79,2.4s-1.35,1.75-2.1,2.67l-.52.62c-1.14,1.38-1.47,2.93-3.06,4.42a5.47,5.47,0,0,0-1,1.36,9.2,9.2,0,0,0-.44,1.09,6,6,0,0,1-.57,1.16,6.78,6.78,0,0,1-1,1.29l-.25.26a8.49,8.49,0,0,0-2,2.43,1.93,1.93,0,0,0-.22.59A2,2,0,0,0,99.71,124.21Z"/><path class="cls-28" d="M100.93,119.09a6.82,6.82,0,0,0,1.84-2.71,5.81,5.81,0,0,1,1.45-2.44c1.58-1.49,1.91-3,3.06-4.42,4.26-5.14,7.26-10,7.55-9.74a.6.6,0,0,1,.08.08l0,0c-.3-.2-3.16,4.68-7.3,9.93-1.11,1.42-1.4,3-2.94,4.5a6,6,0,0,0-1.39,2.48,6.84,6.84,0,0,1-1.76,2.76A8.47,8.47,0,0,0,99.57,122a2,2,0,0,0,.37,2.32l-.24-.1a2,2,0,0,1-.75-2.69A8.65,8.65,0,0,1,100.93,119.09Z"/><path class="cls-29" d="M99,121.53a2,2,0,0,0,.75,2.69,2,2,0,0,0,2.66-.76c.38-.52.46-.59.82-1.15a4.2,4.2,0,0,0-.53-2c-.76-1.16-.45-1.76-.45-2.72a6.69,6.69,0,0,1-1.27,1.54A8.65,8.65,0,0,0,99,121.53Z"/><path class="cls-27" d="M88.37,98.9q1.57,4.57,3.33,8.86c.27.7.57,1.41.87,2.1s.63,1.47,1,2.19c.86,1.92,1.76,3.79,2.7,5.59.8,1.54,1.63,3,2.5,4.48l.35.59a2,2,0,0,0,2.59,1,2,2,0,0,0,1-2.61,7.41,7.41,0,0,0-1.44-2.24c-.13-.17-.3-.34-.47-.52a5.57,5.57,0,0,1-1.16-1.79,3.85,3.85,0,0,1-.2-.57A6.63,6.63,0,0,0,98,113.07a7.85,7.85,0,0,1-1.18-1.76c-.38-.73-.66-1.44-1-2.13a7,7,0,0,0-.47-.78c-.28-.4-.56-.8-.82-1.19-3.36-5-5.61-9.32-5.89-9.15A.67.67,0,0,0,88.37,98.9Z"/><path class="cls-28" d="M102.16,121.43a8.89,8.89,0,0,0-2-3,4.19,4.19,0,0,1-1-1.87,7.41,7.41,0,0,0-1.36-3.25c-1.43-1.64-1.6-3.21-2.6-4.71-3.72-5.56-6.2-10.65-6.52-10.47a.79.79,0,0,0-.17.14.75.75,0,0,1,.23-.24c.31-.18,2.89,4.86,6.71,10.35,1,1.48,1.23,3,2.68,4.66A6.57,6.57,0,0,1,99.36,116a5.42,5.42,0,0,0,1.36,2.37,9,9,0,0,1,1.92,2.76,2,2,0,0,1-1,2.61h0A2,2,0,0,0,102.16,121.43Z"/><path class="cls-20" d="M98.73,122.69a2,2,0,0,0,.74,1.38l.15.22c.12.21.27.44.4.68s.31.52.46.79.26.45.38.68.14.26.22.39c.48.87,1,1.76,1.42,2.65,1.07,2.05,2.14,4.11,3.19,6.18.53,1.05,1.06,2.09,1.58,3.14q2.37,4.65,4.67,9.35c.87,1.76,1.75,3.52,2.62,5.29q2.79,5.67,5.55,11.34c1.38,2.82,2.76,5.65,4.12,8.46h0a2.58,2.58,0,0,0,3.47,1.2,2.63,2.63,0,0,0,1.19-3.5l0,0q-2.81-5.49-5.62-10.93c-1.51-2.93-3-5.84-4.56-8.76h0c-.9-1.71-1.8-3.44-2.7-5.16-1.66-3.16-3.33-6.33-5-9.48-.51-1-1-1.93-1.54-2.89-1.1-2.06-2.23-4.12-3.37-6.17-.56-1-1.14-2-1.74-3.07-.3-.52-.6-1-.92-1.55l-.37-.58a1.88,1.88,0,0,1-.16-.23,4.78,4.78,0,0,0-.32-.44l-.25-.31-.28-.27L102,121l-.16-.12-.23-.12a2.22,2.22,0,0,0-1-.19,1.81,1.81,0,0,0-.76.22A2,2,0,0,0,98.73,122.69Z"/><path class="cls-30" d="M99.37,123.43l.15.21c.13.2.29.43.43.66s.33.51.49.78.27.43.4.66.16.25.24.39c.51.84,1,1.71,1.52,2.58q1.73,3,3.42,6.06c.57,1,1.14,2,1.7,3.07q2.53,4.56,5,9.16,1.4,2.59,2.81,5.19,3,5.55,6,11.12L126,171.6h0a2.59,2.59,0,0,0,3,1.26,2.58,2.58,0,0,1-4.8.38h0c-1.36-2.81-2.74-5.64-4.12-8.46q-2.76-5.67-5.55-11.34c-.87-1.77-1.75-3.53-2.62-5.29q-2.31-4.69-4.67-9.35c-.52-1.05-1-2.09-1.58-3.14-1-2.07-2.12-4.13-3.19-6.18-.47-.89-.94-1.78-1.42-2.65-.08-.13-.15-.26-.22-.39s-.25-.46-.38-.68-.3-.54-.46-.79-.28-.47-.4-.68l-.15-.22a2,2,0,0,1-.74-1.38v-.07A2,2,0,0,0,99.37,123.43Z"/><path class="cls-31" d="M98.73,122.69a2,2,0,0,0,.74,1.38l.15.22c.12.21.27.44.4.68s.31.52.46.79.26.45.38.68.14.26.22.39c.3-.54.66-1.12,1.07-1.73a4.28,4.28,0,0,0,.89-2.8,1.88,1.88,0,0,1-.16-.23,4.78,4.78,0,0,0-.32-.44l-.25-.31-.28-.27L102,121l-.16-.12-.23-.12a2.22,2.22,0,0,0-1-.19,1.81,1.81,0,0,0-.76.22A2,2,0,0,0,98.73,122.69Z"/><path class="cls-20" d="M96.64,124.33c-.64,1-1.27,2-1.89,2.93-1.24,2-2.45,3.92-3.66,5.88L89.93,135q-3,5-6,9.91l-1.61,2.68-6.48,10.85-6,10.19a2.64,2.64,0,0,0,.9,3.59,2.6,2.6,0,0,0,3.57-.92l0-.05q2.37-4.23,4.75-8.47,3.32-5.88,6.65-11.75l2.15-3.79c1.69-3,3.39-5.93,5.11-8.88.58-1,1.17-2,1.76-3.05q1.74-3,3.49-5.91c.6-1,1.19-2,1.78-2.9.16-.27.33-.52.49-.78l.42-.63c.15-.22.3-.45.44-.64l.16-.22h0a1.94,1.94,0,0,0,.81-1.61,2,2,0,0,0-2-2,1.87,1.87,0,0,0-.56.09,1.45,1.45,0,0,0-.29.11,2.22,2.22,0,0,0-.37.21l-.07.06-.26.23c-.12.12-.17.19-.26.29s-.24.29-.33.42-.38.51-.55.76C97.29,123.36,97,123.85,96.64,124.33Z"/><path class="cls-32" d="M99.84,122.08a.62.62,0,0,0,.17.84.6.6,0,0,0,.83-.18.6.6,0,1,0-1-.66Z"/><path class="cls-33" d="M107.27,138.8q2.37,4.65,4.67,9.35c.87,1.76,1.75,3.52,2.62,5.29,0-.82,3.55-2.41,4.13-2.23h0c-.9-1.71-1.8-3.44-2.7-5.16-1.66-3.16-2.69-5.13-4.38-8.28C110.4,137.69,107,138.29,107.27,138.8Z"/><path class="cls-33" d="M89.33,136c-2,3.3-3.42,5.62-5.41,8.93l-1.61,2.68a11.19,11.19,0,0,1,4.1,2.18c.71-1.27.72-1.27,1.44-2.53,1.69-3,4.56-8,6.28-10.91C94.14,136,90.27,136,89.33,136Z"/><path class="cls-34" d="M75.83,158.48l-6,10.19a2.64,2.64,0,0,0,.9,3.59,2.6,2.6,0,0,0,3.57-.92l0-.05q2.37-4.23,4.75-8.47C77.4,162.22,75.6,159.72,75.83,158.48Z"/><path class="cls-34" d="M120.11,164.78c1.38,2.82,2.76,5.65,4.12,8.46h0a2.58,2.58,0,0,0,3.47,1.2,2.63,2.63,0,0,0,1.19-3.5l0,0q-2.81-5.49-5.62-10.93C123.44,160.86,120.84,164.24,120.11,164.78Z"/><path class="cls-30" d="M97.64,122.86c.17-.25.35-.5.55-.76s.21-.28.33-.42.14-.17.26-.29l.24-.21-.24.37c-.34.5-.65,1-1,1.5-.61,1-1.21,2-1.8,3-1.18,2-2.33,4-3.48,6L91.43,134q-2.87,5-5.71,10.09c-.51.9-1,1.82-1.52,2.73q-3.09,5.5-6.16,11-2.87,5.17-5.72,10.37a2.56,2.56,0,0,0,1.46,3.75,2.59,2.59,0,0,1-3.08.33,2.64,2.64,0,0,1-.9-3.59l6-10.19,6.48-10.85L83.92,145q3-5,6-9.91l1.16-1.9c1.21-2,2.42-3.92,3.66-5.88.62-1,1.25-2,1.89-2.93C97,123.85,97.29,123.36,97.64,122.86Z"/><path class="cls-35" d="M100.32,121.82a.6.6,0,0,0-.17,1.08.63.63,0,0,0,.35.09.61.61,0,0,1-.49-.07.62.62,0,0,1-.17-.84A.59.59,0,0,1,100.32,121.82Z"/><path class="cls-28" d="M109.89,106.23l2.84-.6c.35-.73.7-1.46,1-2.21l-2.09.41C111.14,104.56,110.54,105.38,109.89,106.23Z"/><path class="cls-28" d="M91.7,107.76c.27.7.57,1.41.87,2.1l3.25-.68a7,7,0,0,0-.47-.78c-.28-.4-.56-.8-.82-1.19Z"/><path class="cls-28" d="M103.21,115.3l5.45-1.81c1-1.73,1.93-3.55,2.87-5.42l-3.74.83-.52.62c-1.14,1.38-1.47,2.93-3.06,4.42A5.47,5.47,0,0,0,103.21,115.3Z"/><path class="cls-28" d="M93.53,112.05c.86,1.92,1.76,3.79,2.7,5.59l3.33-1.11a3.85,3.85,0,0,1-.2-.57A6.63,6.63,0,0,0,98,113.07a7.85,7.85,0,0,1-1.18-1.76Z"/><polygon class="cls-33" points="92.54 202.93 91.48 185.48 95.14 191.18 92.54 202.93"/><path class="cls-36" d="M128.34,169.61s.81-6.81-1.51-7.44c-1.26-.34-2.33-1.59-3.09-1.24.57.88,0,3-1.07,4.13-3.29-.48-2.44,1.1-2.32,1.68a9,9,0,0,0,3.17,4.65C128.1,175,128.34,169.61,128.34,169.61Z"/><path class="cls-27" d="M80.46,306.59c7.38.61,7.69,1.57,11.76,2.36,1.23.26,4.2-.39,4.56-1.72.17-.6.06-1.07-.36-4.46a65.67,65.67,0,0,1-.32-9.48c.49-10.71-9.26-7.07-8.39,4.32a2.49,2.49,0,0,1-2,2.68,8.1,8.1,0,0,1-3.06,0c-2.42-.13-3,0-4,.63a2.61,2.61,0,0,0-1.27,2.45C77.33,305.71,78,305.94,80.46,306.59Z"/><path class="cls-27" d="M101.43,303.8c7.32,1.13,7.57,2.11,11.57,3.18,1.22.34,4.22-.09,4.68-1.4.2-.59.13-1.06-.06-4.47a64.84,64.84,0,0,1,.34-9.48c1.22-10.65-8.76-7.71-8.67,3.72A3,3,0,0,1,108,298a4,4,0,0,1-2.6.71,17.34,17.34,0,0,0-4.49.45,6.86,6.86,0,0,0-1.19.41,1.66,1.66,0,0,0-1.15,1.85C98.51,302.43,99.06,303,101.43,303.8Z"/><path class="cls-27" d="M118.9,295s-.14-.7-5.31-1.53-5.31-.4-5.31-.4.23,2.13,4.23,2.76S118.86,295.92,118.9,295Z"/><path class="cls-27" d="M98.27,296.92s.41-.94-6.64-1.45c0,0-5.61-.47-5.53.31s2.1,2.15,2.1,2.15S98.07,300.39,98.27,296.92Z"/><path class="cls-34" d="M118.44,295.23c.09,2-9.79,1.64-9.63-1.31-.3-10.21-.14-21.13-2-31,4.17-1.22,8.38-2.75,12.69-3.87C120.25,271.44,120.53,283.26,118.44,295.23Z"/><path class="cls-34" d="M99.07,264.68c-.82,10.21-1.48,23.47-1.88,33.23,0,2.56-10.27,2.8-10.2-.66,0-.64-.32-5.07-.59-9.47-.65-10.47-1.22-16.92-1.29-23.15,3.47.15,6.9.33,10.15.33A28.73,28.73,0,0,0,99.07,264.68Z"/><path class="cls-34" d="M90.41,221.06c1.26-6.28,1-4.67,4.06-5.12,2.36-.35,8.48.16,13.21,1.74,2.72-2.48,6.38-4,9.24-3.26s4.38,2.18,4.65,5.71c.1,1.25,2,7.25.67,11.21,0,0-.12.74-.28,1.92-.13.94-.3,2.18-.48,3.61-.84,6.41-2,16.71-2,21.48,0,.24,0,.48,0,.73-4.31,1.12-8.52,2.65-12.69,3.87-.14-.77-.27-1.54-.43-2.29-.19-1.23-.37-2.45-.51-3.67a.68.68,0,0,1,0-.15,3.93,3.93,0,0,1-.06-.48c-.07-.58-.14-1.16-.2-1.73-.23-2-.42-4-.58-6-.25-3.2-1.29-7-1.79-5.07-1.58,6-3.41,13.32-4,18.58-.07.81-.14,1.65-.21,2.51a28.73,28.73,0,0,1-3.81.28c-3.25,0-6.68-.18-10.15-.33v-1.54C85.14,254,85,241.89,90.41,221.06Z"/><path class="cls-36" d="M123.92,174.33c-.24-1.44-.4-2.94-.4-2.94-.58-1.33,3.74-3.19,4.82-1.78,1.41,1.85,5.75,8.78,7.39,11.47-4-1.35-8-2.55-11.38-4.73A18.1,18.1,0,0,1,123.92,174.33Z"/><path class="cls-36" d="M120,178.7a5.41,5.41,0,0,1,2.94-1.94,4.88,4.88,0,0,1,1.52-.19l-.07-.22c3.33,2.18,7.38,3.38,11.38,4.73.06.1.12.21.18.29.24.41.4.68.45.78l.51,1c.18.34.33.63.51,1.06a2.07,2.07,0,0,1,.19,1c0,.29-.08.6-.13,1-.27,2.65-2.27,5-4.9,4.77,0,0-2.7-.36-3.69-.63a24.77,24.77,0,0,1-2.83-1,24.37,24.37,0,0,1-2.57-1.24c-.41-.22-.82-.46-1.24-.71C122,187.29,118.07,181.12,120,178.7Z"/><path class="cls-36" d="M102.75,164.09l.57,4.19.37,2.82.29,2.11c.36,2.68,10,1.35,9.65-1.33-.07-.45-4-9.72-4-9.72C108.87,160.31,102.54,162.52,102.75,164.09Z"/><path class="cls-37" d="M103.32,168.28l.37,2.82a8.62,8.62,0,0,1,3.34-1.41l1.72-1Z"/><path class="cls-36" d="M100.48,155.43c-1.48,2.27-.78,8.16-.26,10.94a3.06,3.06,0,0,0,1.41,2.06c2.89,1.79,2.64.26,5.4,1.26,6.24,0,13.72-1.7,14-8.23.36-7.41-7.59-13.43-13.83-13.43-2.68,0-5.75,2.56-6.25,5.94A3.59,3.59,0,0,1,100.48,155.43Z"/><path class="cls-27" d="M103.48,155.21c-2.66,2.9-2,6.25.31,8.65a33.08,33.08,0,0,0,3,6.58,3.92,3.92,0,0,0,3.55,2c5,.17,8.41-3.62,10.92-8.33a9.09,9.09,0,0,0,.91-6.24,16.24,16.24,0,0,0-8-10.39C108.48,144.13,102,148.19,103.48,155.21Z"/><path class="cls-36" d="M103,162.8c.11,1.81-1.06,3.56-.23,4,.67.38,1.75-.26,2.65-1.47a4.13,4.13,0,0,0,.83-2.21,2,2,0,0,0-.86-1.94C103.86,160.37,102.85,160.8,103,162.8Z"/><path class="cls-32" d="M91.24,216c-2,9.47,31.31,9.64,30.06,2.36,1.2-3.66,5.49-37.89,3.17-41.12-2.75-1.61-7.28-2.44-15.51-2.21-4.43.62-19.19-1.9-18,5.67.08.52,1.44,9.33,2,10.7.38,1-.14,9.11-.34,11.49C92.15,207.53,92.09,212.48,91.24,216Z"/><path class="cls-35" d="M92,187.63a41.58,41.58,0,0,1,1.27,5.88c1.39-1.59.39-5.12.39-5.12l-1.74-2A8,8,0,0,0,92,187.63Z"/><path class="cls-38" d="M124.42,176.57a13.48,13.48,0,0,1-.5-2.24,6.27,6.27,0,0,0,1.21,2.52c2.14,3,8,3.89,8,3.89h0a13,13,0,0,1,2.83.63c.24.41.4.68.45.78l.51,1c.11.22-3.84,1.68-3.84,1.68S123.91,176.56,124.42,176.57Z"/><path class="cls-39" d="M103.24,243.59c.5-1.9,1.54,1.87,1.79,5.07.16,2,.35,4,.58,6a81.27,81.27,0,0,1,1.32-8.18c2-7.71,14.18-6.71,14.55-9.58.18-1.43.44-3.37.58-4.31a1,1,0,0,1-.37.33c-4,3.17-14.41,5.49-20.37,3.15C97.3,234.47,103.06,236.57,103.24,243.59Z"/><path class="cls-32" d="M123.8,176.19v.11l-1.29,14.86c4.66,2.94,8.94,2.94,11.84.83a.38.38,0,0,0,.14-.09,9,9,0,0,0,2.83-3.75,6.83,6.83,0,0,0,.46-1.5c1-5.5-6.27-6-6.27-6-.79-.15-5.3-2.93-7-4l-.07,0,0,0C124,176.33,123.8,176.19,123.8,176.19Z"/><path class="cls-20" d="M98.27,296.92a7.67,7.67,0,0,1-.48,2.27c-.36.63-3.15,1.35-7.53.65-3.84-.61-4-2-4-2l-.19-2.09s.29,1.58,5.88,1.89C95.29,297.86,98.38,297.68,98.27,296.92Z"/><path class="cls-20" d="M118.9,295a2.83,2.83,0,0,1-.65,1.89c-.62.63-3.36.75-6,.18-3.73-.8-3.88-2.25-3.88-2.25l-.08-1.75s1,1.39,4.36,2C118.14,296,118.9,295,118.9,295Z"/><path class="cls-35" d="M123.8,176.3l-1.29,14.86c4.66,2.94,8.94,2.94,11.84.83-1.36.64-7.85-.1-6.89-6.18.93-5.89-2.46-8.8-3-9.2l-.07,0,0,0Z"/><path class="cls-36" d="M80.8,175c.94-.63,1.88-1.26,2.82-1.85.17.42.35.83.53,1.23a9.33,9.33,0,0,0,1.1.38c.78.22,9.09,1.21,9,4.05s-3.4,7.46-4.7,8l-.14.06h0c-.29,0-5.43-.91-7.18-1.43A17.47,17.47,0,0,1,77,182.89a.27.27,0,0,1-.1-.06s-.22-.2-.5-.51a3.72,3.72,0,0,1-.83-1.42c0-.07-.14-.34-.24-.6C77.07,178.49,78.87,176.69,80.8,175Z"/><path class="cls-36" d="M74.93,179.19c-.07-.28-.1-.44-.16-.73a3.59,3.59,0,0,0-.11-.41c0-.1,0-.21-.07-.31-.15-.74-.1-1.56-.2-2.29a28.78,28.78,0,0,1-.3-4.54,34.55,34.55,0,0,1,.86-7.27l.14-.48,0-.15a24.38,24.38,0,0,1,.72-2.36c.6-1.48,5.34-1.47,5.36.48,0,0,.06,2.87.27,4.17.06.65.2,1.3.31,1.94s.27,1.28.45,1.92a31.09,31.09,0,0,0,1.25,3.71l.13.3c-.94.59-1.88,1.22-2.82,1.85-1.93,1.67-3.73,3.47-5.51,5.28-.05-.14-.11-.27-.14-.38C75,179.62,75,179.3,74.93,179.19Z"/><path class="cls-40" d="M74.09,170.91a28.78,28.78,0,0,0,.3,4.54c.1.73,0,1.55.2,2.29,0,.1,0,.21.07.31a3.59,3.59,0,0,1,.11.41c.06.29.09.45.16.73,0,.11.11.43.22.73s.34.88.38,1a3.72,3.72,0,0,0,.83,1.42c.28.31.5.51.5.51a.27.27,0,0,0,.1.06c1.94-2.13,7.19-8.49,7.19-8.49s-3.92-.54-7.88,4.32C75,180.22,74.06,169.91,74.09,170.91Z"/><path class="cls-32" d="M76.88,181.9c.07,2.35.86,6.15,2.62,6.88,2.15.89,7,.28,14.27.28.47-3.62.52-3.35.87-5.39a7.56,7.56,0,0,0,.07-1,26.76,26.76,0,0,0-1.15-6.83c-3-.29-9.08-1.31-9.41-1.46A8.17,8.17,0,0,0,77,180.27,5.42,5.42,0,0,0,76.88,181.9Z"/><path class="cls-36" d="M81.21,161.13s4-3.11,2-5.63c0,0-2.2,1.85-3.46-3.72-.73-3.25-2.05.26-2.05.26a7.52,7.52,0,0,0-3.57,4c-.47,1.59,2.18,4.87,2.18,4.87Z"/><path class="cls-35" d="M76.88,181.9c.07,2.35.86,6.15,2.62,6.88,2.15.89,7,.28,14.27.28a35.49,35.49,0,0,0-.46-8.77l-1.49,1.91a18.91,18.91,0,0,1-1,4.7c-.63,1.16-11.86,1.23-12.92-1.42A22.83,22.83,0,0,1,76.88,181.9Z"/><path class="cls-21" d="M100,175.13c12.08-1.11,19.4.09,19.4.09a3.46,3.46,0,0,0-.34-.6c-.25-.34-.72-1.58-1.36-1.93-.91-.5-5-.94-6.67-1-6.14-.21-8.05,0-10.12,2.32C100.58,174.36,100.28,174.73,100,175.13Z"/><path class="cls-21" d="M99.2,223.56c2.16-.18,4.49-.68,6.89-.75,8.22-.25,15.9-1.48,15.78-4.08,1.21-3.65,2.65-13.87,2.65-13.87.91-6.45,2.62-12.44,2.43-17.52,0-3.33.48-9.34-1.93-10.88-1.24-.8-8-2.1-16.27-1.86-8,.17-15.35,1.12-15.18,1.26-1.27.79-2,5.57-1.7,8.54.28,2.63.6,18,.62,18.13v0a3.13,3.13,0,0,1,0,.75c-.41,4.47-1,11.87-2.48,15.26C89.42,220.91,94.18,224,99.2,223.56Z"/><path class="cls-41" d="M127,189.52a1.66,1.66,0,0,1-.91.49,7.64,7.64,0,0,1-1.06.21c-.72.1-1.45.14-2.17.19l-4.39.1a32.34,32.34,0,0,1-4.4-.21c-1.46-.16-2.91-.41-4.37-.57h0c-1.83,0-3.66-.05-5.49-.17-.91-.05-1.82-.13-2.72-.25a13.66,13.66,0,0,1-2.69-.55l0,.06a16.4,16.4,0,0,0,5.39,1.32,39.5,39.5,0,0,0,5.55.15h0c1.47.12,2.94.21,4.41.26s2.94.17,4.41.32a25.2,25.2,0,0,0,4.43,0,13.58,13.58,0,0,0,2.2-.33,5.89,5.89,0,0,0,1.08-.34,1.58,1.58,0,0,0,.89-.7Z"/><path class="cls-41" d="M125.41,200.23a9.36,9.36,0,0,1-4,.93c-1.37.08-2.75.11-4.14.13-2.78,0-5.57-.09-8.35-.17s-5.53-.22-8.28-.58c-1.37-.18-2.75-.34-4.11-.58a25.47,25.47,0,0,1-4-.9l0,.06a31.63,31.63,0,0,0,8.11,2,47.75,47.75,0,0,0,8.36.39,55.28,55.28,0,0,1,8.34.09,18.34,18.34,0,0,0,4.19,0,11.4,11.4,0,0,0,2.08-.4,4.17,4.17,0,0,0,1.87-1Z"/><path class="cls-41" d="M123.59,213.24a12.71,12.71,0,0,1-3.91.69c-1.33,0-2.67.13-4,.06a78.17,78.17,0,0,0-8.1,0c-2.71.07-5.38.26-8-.51a20.72,20.72,0,0,1-3.74-1.38,9.63,9.63,0,0,1-3.24-2.3l0,0a8.91,8.91,0,0,0,3.08,2.67A16.91,16.91,0,0,0,99.45,214a14,14,0,0,0,4.07.6c1.36,0,2.71-.08,4.06-.19a42.64,42.64,0,0,1,8.06-.24,20.47,20.47,0,0,0,4.07.24,8,8,0,0,0,3.91-1.15Z"/><path class="cls-42" d="M99.2,223.56c2.15-.18,4.52-.44,6.9-.75-2.78,0-10.24-4.51-11.63-6.87-1.62-2.77-2-26-2-26s0,12.45,0,12.58v0a3.74,3.74,0,0,1,0,.75c-.42,4.48-1,11.87-2.49,15.26C89.42,220.92,94.17,224,99.2,223.56Z"/><path class="cls-42" d="M109,186.7s4.58,12.11,11.58,15.77C120.55,202.47,113.79,203.47,109,186.7Z"/><path class="cls-42" d="M107.88,191.92s1.51,8.24,5.5,11.3,5.7,6,9,6.66c-1.1.75-6.42-1.53-9.25-3.71S108.07,199.75,107.88,191.92Z"/><path class="cls-33" d="M116.65,224.13s.48-1,1.44,0,1,2.41,2.09,4.77a14.9,14.9,0,0,1,.71,7.28,7.51,7.51,0,0,0,2.25-3.62c.58-2.27-3.62-9.72-5.77-9.72C116,222.84,116.65,224.13,116.65,224.13Z"/><path class="cls-43" d="M116.65,224.13s-1-1.16.72-1.87,2.43-.39,4.2-2.13,2.8,3.73,2.91,5c.25,3-.66,5.09-.84,7.41a3.49,3.49,0,0,1-1.58,3s1-4.82-1.81-8.52a9.45,9.45,0,0,1-.83-1.26C117.3,221.86,116.65,224.13,116.65,224.13Z"/><path class="cls-44" d="M121.38,220.32a1.06,1.06,0,0,1,1.54.58,7.61,7.61,0,0,1,.08,1,4.48,4.48,0,0,0,.23,1,11.9,11.9,0,0,1,.55,3.84c0,1.31-.16,2.6-.28,3.9a7.43,7.43,0,0,1-1,3.72l.08,0a9,9,0,0,0-1.31-7.1c-.36-.52-.81-.94-1.17-1.43a16.91,16.91,0,0,0-1-1.52c-.39-.46-.72-1-1.33-1.27a.94.94,0,0,0-1.09,1.13h0a.91.91,0,0,1,1.07-1.08,3.52,3.52,0,0,1,1.26,1.28c.38.48.67,1,1,1.54s.81.93,1.15,1.43a9,9,0,0,1,1.35,7l0,.22.13-.18a7.7,7.7,0,0,0,1-3.76c.14-1.3.31-2.59.34-3.91a10.82,10.82,0,0,0-.57-3.87,5.19,5.19,0,0,1-.24-.94,6.61,6.61,0,0,0-.09-1,1.1,1.1,0,0,0-1.62-.57Z"/><path class="cls-45" d="M122.21,220.49a10.42,10.42,0,0,0-.82,1,1.36,1.36,0,0,1-.3-.88Z"/><path class="cls-45" d="M123.28,228.22a7.51,7.51,0,0,0-.61.76,1.07,1.07,0,0,1-.22-.64Z"/><path class="cls-45" d="M122.7,230a5.68,5.68,0,0,0,.59.41.7.7,0,0,1-.46.2Z"/><path class="cls-45" d="M122.76,228a9.88,9.88,0,0,0,.15-1.32,1.32,1.32,0,0,1,.72.58Z"/><path class="cls-45" d="M121.14,223.86a11.71,11.71,0,0,0-.82,1,1.34,1.34,0,0,1-.3-.88Z"/><path class="cls-45" d="M121.5,226.69a11.53,11.53,0,0,0,1.11.7,1.24,1.24,0,0,1-.82.4Z"/><path class="cls-45" d="M121.22,222.56l-1.06-.43s-.07,0-.08-.06a2.4,2.4,0,0,1,.61-.79Z"/><path class="cls-45" d="M122.16,226.43l-1.14.06a.18.18,0,0,1-.1,0,2.57,2.57,0,0,1,.22-1Z"/><path class="cls-45" d="M121.77,222a.3.3,0,0,0,.08.07l.34.24.68.46a5.45,5.45,0,0,1-.22-.79l-.26-.86a2.48,2.48,0,0,1-.54.74C121.79,221.9,121.76,221.94,121.77,222Z"/><path class="cls-45" d="M122.55,225.34a.29.29,0,0,0,0,.1c0,.14,0,.28,0,.42s-.07.54-.1.81a6.4,6.4,0,0,1,.6-.56l.63-.63a2.5,2.5,0,0,1-.9-.14C122.63,225.31,122.58,225.3,122.55,225.34Z"/><path class="cls-45" d="M122.46,223.13a12,12,0,0,1-1.88.27,4.76,4.76,0,0,1,1-.72c.06,0,.16-.12.23-.12s.17.14.22.18l.24.21S122.42,223.14,122.46,223.13Z"/><path class="cls-45" d="M122.32,225.05a12,12,0,0,1-1.88.27,4.49,4.49,0,0,1,1-.72c.06,0,.16-.13.23-.12s.16.13.22.18a2.31,2.31,0,0,0,.24.2S122.28,225.06,122.32,225.05Z"/><path class="cls-45" d="M119.55,222.48c0,.35-.06.69-.1,1,0,.18,0,.37-.08.55a3.29,3.29,0,0,1,.8-.6c.32-.17.24-.25,0-.46S119.55,222.56,119.55,222.48Z"/><path class="cls-45" d="M121.88,223.81c.26.22.5.46.75.71l.4.39a2.86,2.86,0,0,1,0-1c.06-.35,0-.34-.36-.28A4.71,4.71,0,0,1,121.88,223.81Z"/><path class="cls-45" d="M118.12,222l.44.21.24.14a1.34,1.34,0,0,1,.49.54,4.17,4.17,0,0,1,0-.7c0-.11,0-.18,0-.25A3.71,3.71,0,0,0,118.12,222Z"/><path class="cls-45" d="M122.7,229.34a3.1,3.1,0,0,1,.64.66,3.29,3.29,0,0,0,0-.59A2.7,2.7,0,0,0,122.7,229.34Z"/></g></g></svg>