<svg id="레이어_1" data-name="레이어 1" xmlns="http://www.w3.org/2000/svg" viewBox="0 0 350 482"><defs><style>.cls-1{fill:#2e497b;}.cls-2{fill:#fff;}.cls-3{fill:#3d949f;}.cls-4{fill:#69bdc6;}.cls-5{fill:#45a5b1;}.cls-6{fill:#f6f6f6;}.cls-7{fill:#db5225;}.cls-8{fill:#c7c6c6;}.cls-9{fill:#377fb0;}.cls-10,.cls-20{opacity:0.2;}.cls-11,.cls-20,.cls-21{fill:#1d1e1c;}.cls-12{fill:#2c678e;}.cls-13{fill:#dbdada;}.cls-14{fill:#575857;}.cls-15{fill:#3c3d3c;}.cls-16{fill:#878788;}.cls-17{fill:#b2b2b2;}.cls-18{fill:#9e9d9c;}.cls-19{fill:#71706f;}.cls-21{opacity:0.3;}.cls-22{fill:#f7b77d;}.cls-23{fill:#212120;}.cls-23,.cls-27{opacity:0.1;}.cls-24{fill:#010100;}.cls-25{fill:#facfa0;}.cls-26{fill:#f9caa0;}.cls-28{fill:#ededec;}</style></defs><title>Artboard 24 copy 19</title><rect class="cls-1" y="-0.3" width="350" height="482.3"/><path class="cls-2" d="M247.82,261.53a.34.34,0,0,1-.17,0l-1.78-1a.33.33,0,0,1-.12-.46.34.34,0,0,1,.47-.13l1.77,1a.33.33,0,0,1,.13.46A.36.36,0,0,1,247.82,261.53Z"/><path class="cls-2" d="M243.61,259.09a.33.33,0,0,1-.17,0l-3.66-2.11a.34.34,0,0,1-.12-.47.33.33,0,0,1,.46-.12l3.66,2.11a.33.33,0,0,1,.12.46A.32.32,0,0,1,243.61,259.09Zm-6.09-3.51a.34.34,0,0,1-.17-.05l-3.66-2.11a.35.35,0,0,1-.13-.47.34.34,0,0,1,.47-.12l3.66,2.11a.34.34,0,0,1,.12.47A.34.34,0,0,1,237.52,255.58Zm-6.1-3.52a.41.41,0,0,1-.17-.05l-3.65-2.11a.34.34,0,0,1-.13-.46.35.35,0,0,1,.47-.13l3.66,2.11a.34.34,0,0,1-.18.64Zm-6.09-3.52a.38.38,0,0,1-.17,0l-3.65-2.11a.35.35,0,0,1-.13-.47.35.35,0,0,1,.47-.13l3.65,2.11a.35.35,0,0,1,.13.47A.34.34,0,0,1,225.33,248.54ZM219.24,245a.34.34,0,0,1-.17-.05l-3.65-2.11a.34.34,0,0,1-.13-.47.34.34,0,0,1,.47-.12l3.65,2.11a.33.33,0,0,1,.13.46A.36.36,0,0,1,219.24,245Zm-6.09-3.52a.34.34,0,0,1-.17,0l-3.66-2.11a.34.34,0,0,1,.34-.59l3.66,2.11a.34.34,0,0,1,.12.47A.32.32,0,0,1,213.15,241.51ZM207.06,238a.26.26,0,0,1-.17-.05l-3.66-2.1a.34.34,0,0,1-.12-.47.33.33,0,0,1,.46-.13l3.66,2.11a.34.34,0,0,1,.12.47A.34.34,0,0,1,207.06,238ZM201,234.47a.39.39,0,0,1-.18,0l-3.65-2.11a.34.34,0,0,1,.34-.6l3.66,2.12a.33.33,0,0,1,.12.46A.34.34,0,0,1,201,234.47Zm-6.1-3.51a.41.41,0,0,1-.17-.05l-3.65-2.11a.34.34,0,1,1,.34-.59l3.65,2.11a.33.33,0,0,1,.13.46A.35.35,0,0,1,194.87,231Z"/><path class="cls-2" d="M188.78,227.44a.34.34,0,0,1-.17-.05l-1.78-1a.34.34,0,0,1-.12-.47.34.34,0,0,1,.47-.12l1.77,1a.34.34,0,0,1,.13.47A.35.35,0,0,1,188.78,227.44Z"/><path class="cls-2" d="M280.28,137.09a.34.34,0,0,1-.17-.05l-1.78-1a.34.34,0,0,1-.12-.47.35.35,0,0,1,.47-.13l1.77,1a.34.34,0,0,1-.17.64Z"/><path class="cls-2" d="M276.11,134.68a.34.34,0,0,1-.17-.05l-3.6-2.07a.34.34,0,0,1,.35-.59l3.59,2.07a.34.34,0,0,1,.12.47A.34.34,0,0,1,276.11,134.68Zm-6-3.46a.33.33,0,0,1-.17,0l-3.59-2.08a.33.33,0,0,1-.13-.46.35.35,0,0,1,.47-.13l3.59,2.08a.33.33,0,0,1,.13.46A.35.35,0,0,1,270.12,131.22Zm-6-3.45a.34.34,0,0,1-.17,0l-3.59-2.07.34-.59,3.59,2.07a.34.34,0,0,1,.12.47A.34.34,0,0,1,264.14,127.77Zm-6-3.46a.26.26,0,0,1-.17,0l-3.59-2.07a.34.34,0,1,1,.34-.59l3.59,2.07a.35.35,0,0,1,.13.47A.35.35,0,0,1,258.15,124.31Zm-6-3.45a.34.34,0,0,1-.17,0l-3.6-2.07a.34.34,0,0,1-.12-.47.35.35,0,0,1,.47-.13l3.59,2.08a.33.33,0,0,1,.12.46A.35.35,0,0,1,252.17,120.86Zm-6-3.46a.28.28,0,0,1-.17-.05l-3.59-2.07a.34.34,0,1,1,.34-.59l3.59,2.07a.35.35,0,0,1,.13.47A.35.35,0,0,1,246.18,117.4Zm-6-3.46a.33.33,0,0,1-.17,0l-3.6-2.08a.34.34,0,0,1,.34-.59l3.6,2.08a.33.33,0,0,1,.12.46A.34.34,0,0,1,240.2,113.94Z"/><path class="cls-2" d="M234.17,110.47a.41.41,0,0,1-.17,0l-1.77-1a.35.35,0,0,1-.13-.47.35.35,0,0,1,.47-.13l1.77,1a.34.34,0,0,1-.17.64Z"/><path class="cls-2" d="M147.38,174.4a.33.33,0,0,1-.17,0l-1.78-1a.34.34,0,0,1,.34-.59l1.78,1a.33.33,0,0,1,.12.46A.34.34,0,0,1,147.38,174.4Z"/><path class="cls-2" d="M143.17,172a.39.39,0,0,1-.18,0l-3.65-2.11a.34.34,0,0,1,.34-.6l3.66,2.12a.33.33,0,0,1,.12.46A.34.34,0,0,1,143.17,172Zm-6.1-3.51a.41.41,0,0,1-.17-.05l-3.65-2.11a.34.34,0,1,1,.34-.59l3.65,2.11a.33.33,0,0,1,.13.46A.35.35,0,0,1,137.07,168.46ZM131,164.94a.34.34,0,0,1-.17-.05l-3.65-2.11a.33.33,0,0,1-.13-.46.34.34,0,0,1,.47-.13l3.65,2.11a.34.34,0,0,1,.13.47A.35.35,0,0,1,131,164.94Zm-6.09-3.52a.33.33,0,0,1-.17,0l-3.66-2.11a.35.35,0,0,1,.35-.6l3.65,2.11a.36.36,0,0,1,.13.47A.35.35,0,0,1,124.89,161.42Zm-6.09-3.52a.33.33,0,0,1-.17,0L115,155.75a.34.34,0,0,1-.12-.47.33.33,0,0,1,.46-.12l3.66,2.11a.33.33,0,0,1,.12.46A.32.32,0,0,1,118.8,157.9Zm-6.09-3.51a.41.41,0,0,1-.18,0l-3.65-2.11a.34.34,0,1,1,.34-.59l3.66,2.11a.34.34,0,0,1,.12.47A.34.34,0,0,1,112.71,154.39Zm-6.1-3.52a.41.41,0,0,1-.17-.05l-3.65-2.11a.33.33,0,0,1-.13-.46.34.34,0,0,1,.47-.13l3.65,2.11a.35.35,0,0,1,.13.47A.34.34,0,0,1,106.61,150.87Zm-6.09-3.52a.33.33,0,0,1-.17,0L96.7,145.2a.35.35,0,0,1-.13-.47.35.35,0,0,1,.47-.13l3.65,2.11a.35.35,0,0,1,.13.47A.35.35,0,0,1,100.52,147.35Zm-6.09-3.52a.33.33,0,0,1-.17,0l-3.66-2.11a.34.34,0,0,1,.35-.59l3.65,2.11a.34.34,0,0,1,.13.46A.35.35,0,0,1,94.43,143.83Z"/><path class="cls-2" d="M88.34,140.32a.34.34,0,0,1-.17,0l-1.78-1a.34.34,0,0,1,.34-.6l1.78,1a.34.34,0,0,1,.12.47A.32.32,0,0,1,88.34,140.32Z"/><path class="cls-2" d="M192.14,136a.33.33,0,0,1-.17,0l-1.78-1a.35.35,0,0,1-.13-.47.34.34,0,0,1,.47-.12l1.78,1a.34.34,0,0,1,.12.47A.34.34,0,0,1,192.14,136Z"/><path class="cls-2" d="M187.92,133.56a.41.41,0,0,1-.17-.05l-3.65-2.11a.33.33,0,0,1-.13-.46.34.34,0,0,1,.47-.13l3.65,2.11a.34.34,0,0,1,.13.47A.34.34,0,0,1,187.92,133.56ZM181.83,130a.35.35,0,0,1-.17,0L178,127.89a.35.35,0,0,1-.13-.47.35.35,0,0,1,.47-.13L182,129.4a.35.35,0,0,1,.13.47A.34.34,0,0,1,181.83,130Zm-6.09-3.52a.33.33,0,0,1-.17,0l-3.66-2.11a.34.34,0,0,1,.35-.59l3.65,2.11a.34.34,0,0,1,.13.46A.35.35,0,0,1,175.74,126.52ZM169.65,123a.34.34,0,0,1-.17-.05l-3.66-2.11a.34.34,0,0,1-.12-.47.33.33,0,0,1,.46-.12l3.66,2.11a.34.34,0,0,1,.12.47A.32.32,0,0,1,169.65,123Zm-6.09-3.52a.26.26,0,0,1-.17,0l-3.66-2.11a.34.34,0,0,1-.13-.46.35.35,0,0,1,.47-.13l3.66,2.11a.34.34,0,0,1,.12.47A.34.34,0,0,1,163.56,119.49Zm-6.1-3.52a.38.38,0,0,1-.17,0l-3.65-2.11a.35.35,0,0,1-.13-.47.35.35,0,0,1,.47-.13l3.65,2.12a.33.33,0,0,1,.13.46A.34.34,0,0,1,157.46,116Zm-6.09-3.51a.37.37,0,0,1-.17,0l-3.65-2.11a.34.34,0,1,1,.34-.59l3.65,2.11a.33.33,0,0,1,.13.46A.35.35,0,0,1,151.37,112.46Zm-6.09-3.52a.34.34,0,0,1-.17,0l-3.66-2.11a.33.33,0,0,1-.12-.46.34.34,0,0,1,.47-.13l3.65,2.11a.34.34,0,0,1-.17.64Zm-6.09-3.52a.26.26,0,0,1-.17,0l-3.66-2.1a.34.34,0,0,1-.12-.47.33.33,0,0,1,.46-.13l3.66,2.11a.34.34,0,0,1,.12.47A.32.32,0,0,1,139.19,105.42Z"/><path class="cls-2" d="M133.1,101.9a.33.33,0,0,1-.17,0l-1.78-1a.34.34,0,0,1,.34-.59l1.78,1a.33.33,0,0,1,.12.46A.34.34,0,0,1,133.1,101.9Z"/><path class="cls-2" d="M101.33,256.52a.33.33,0,0,1-.29-.18.33.33,0,0,1,.12-.46l1.78-1a.34.34,0,0,1,.34.59l-1.78,1A.34.34,0,0,1,101.33,256.52Z"/><path class="cls-2" d="M105.37,254.18a.32.32,0,0,1-.29-.17.34.34,0,0,1,.12-.47l3.4-2a.35.35,0,0,1,.47.13.34.34,0,0,1-.13.46l-3.4,2A.33.33,0,0,1,105.37,254.18Zm5.66-3.27a.34.34,0,0,1-.29-.17.33.33,0,0,1,.12-.46l3.4-2a.36.36,0,0,1,.47.13.35.35,0,0,1-.13.47l-3.39,2A.39.39,0,0,1,111,250.91Zm5.67-3.27a.34.34,0,0,1-.3-.17.33.33,0,0,1,.13-.46l3.39-2a.34.34,0,0,1,.47.12.35.35,0,0,1-.12.47l-3.4,2A.38.38,0,0,1,116.7,247.64Zm5.66-3.27a.35.35,0,0,1-.3-.17.33.33,0,0,1,.13-.46l3.4-2a.33.33,0,0,1,.46.12.34.34,0,0,1-.12.47l-3.4,2A.33.33,0,0,1,122.36,244.37Zm5.66-3.26a.33.33,0,0,1-.29-.18.33.33,0,0,1,.12-.46l3.4-2a.34.34,0,0,1,.47.12.36.36,0,0,1-.13.47l-3.4,2A.34.34,0,0,1,128,241.11Zm5.66-3.27a.35.35,0,0,1-.29-.18.33.33,0,0,1,.12-.46l3.4-2a.34.34,0,1,1,.34.59l-3.4,2A.34.34,0,0,1,133.68,237.84Zm5.67-3.27a.36.36,0,0,1-.3-.17.34.34,0,0,1,.13-.47l3.39-2a.34.34,0,0,1,.47.12.34.34,0,0,1-.13.47l-3.39,2A.41.41,0,0,1,139.35,234.57ZM145,231.3a.35.35,0,0,1-.3-.17.34.34,0,0,1,.13-.47l3.39-2a.34.34,0,1,1,.35.59l-3.4,2A.34.34,0,0,1,145,231.3Z"/><path class="cls-2" d="M150.67,228a.32.32,0,0,1-.29-.17.34.34,0,0,1,.12-.47l1.78-1a.33.33,0,0,1,.46.12.34.34,0,0,1-.12.47l-1.78,1A.34.34,0,0,1,150.67,228Z"/><path class="cls-2" d="M181.28,139a.32.32,0,0,1-.29-.17.33.33,0,0,1,.12-.46l1.78-1a.33.33,0,0,1,.46.13.33.33,0,0,1-.12.46l-1.78,1A.33.33,0,0,1,181.28,139Z"/><path class="cls-2" d="M185.32,136.62a.32.32,0,0,1-.29-.17.34.34,0,0,1,.12-.47l3.4-2a.34.34,0,1,1,.34.59l-3.4,2A.26.26,0,0,1,185.32,136.62Zm5.67-3.27a.34.34,0,0,1-.3-.17.34.34,0,0,1,.12-.47l3.4-2a.35.35,0,0,1,.47.13.33.33,0,0,1-.13.46l-3.39,2A.38.38,0,0,1,191,133.35Zm5.66-3.27a.34.34,0,0,1-.3-.17.35.35,0,0,1,.13-.47l3.39-2a.34.34,0,0,1,.47.13.33.33,0,0,1-.12.46l-3.4,2A.35.35,0,0,1,196.65,130.08Zm5.66-3.27a.35.35,0,0,1-.3-.17.34.34,0,0,1,.13-.46l3.4-2a.34.34,0,0,1,.34.59l-3.4,2A.33.33,0,0,1,202.31,126.81Zm5.66-3.27a.32.32,0,0,1-.29-.17.33.33,0,0,1,.12-.46l3.4-2a.34.34,0,0,1,.34.6l-3.4,2A.33.33,0,0,1,208,123.54Zm5.66-3.27a.34.34,0,0,1-.29-.17.33.33,0,0,1,.12-.46l3.4-2a.34.34,0,1,1,.34.59l-3.4,2A.33.33,0,0,1,213.63,120.27ZM219.3,117a.34.34,0,0,1-.3-.17.33.33,0,0,1,.13-.46l3.39-2a.34.34,0,0,1,.47.12.35.35,0,0,1-.12.47l-3.4,2A.38.38,0,0,1,219.3,117Zm5.66-3.26a.38.38,0,0,1-.3-.17.34.34,0,0,1,.13-.47l3.4-2a.33.33,0,0,1,.46.12.34.34,0,0,1-.12.47l-3.4,2A.34.34,0,0,1,225,113.74Z"/><path class="cls-2" d="M230.62,110.47a.32.32,0,0,1-.29-.17.34.34,0,0,1,.12-.47l1.78-1a.34.34,0,0,1,.34.6l-1.78,1A.34.34,0,0,1,230.62,110.47Z"/><path class="cls-2" d="M131.32,100.88a.32.32,0,0,1-.29-.17.34.34,0,0,1,.12-.47l1.78-1a.33.33,0,0,1,.46.12.34.34,0,0,1-.12.47l-1.78,1A.34.34,0,0,1,131.32,100.88Z"/><path class="cls-2" d="M135.36,98.55a.33.33,0,0,1-.29-.18.33.33,0,0,1,.12-.46l3.4-2a.34.34,0,0,1,.47.12.36.36,0,0,1-.13.47l-3.4,2A.34.34,0,0,1,135.36,98.55ZM141,95.28a.36.36,0,0,1-.29-.17.34.34,0,0,1,.12-.47l3.4-2a.34.34,0,1,1,.34.59l-3.39,2A.41.41,0,0,1,141,95.28ZM146.69,92a.34.34,0,0,1-.17-.64l3.39-2a.34.34,0,1,1,.34.59l-3.39,2A.41.41,0,0,1,146.69,92Zm5.66-3.27a.35.35,0,0,1-.3-.17.34.34,0,0,1,.13-.47l3.4-2a.33.33,0,0,1,.46.12.34.34,0,0,1-.12.47l-3.4,2A.34.34,0,0,1,152.35,88.74ZM158,85.47a.32.32,0,0,1-.29-.17.34.34,0,0,1,.12-.47l3.4-2a.33.33,0,0,1,.46.12.34.34,0,0,1-.12.47l-3.4,2A.34.34,0,0,1,158,85.47Zm5.66-3.27a.34.34,0,0,1-.29-.17.34.34,0,0,1,.12-.47l3.4-2a.34.34,0,1,1,.34.59l-3.4,2A.34.34,0,0,1,163.67,82.2Zm5.67-3.27a.34.34,0,0,1-.3-.17.35.35,0,0,1,.13-.47l3.39-2a.34.34,0,1,1,.34.59l-3.39,2A.41.41,0,0,1,169.34,78.93ZM175,75.66a.34.34,0,0,1-.3-.17.35.35,0,0,1,.13-.47l3.39-2a.34.34,0,0,1,.47.13.33.33,0,0,1-.12.46l-3.4,2A.35.35,0,0,1,175,75.66Z"/><path class="cls-2" d="M180.66,72.39a.35.35,0,0,1-.3-.17.36.36,0,0,1,.13-.47l1.78-1a.33.33,0,0,1,.46.12.34.34,0,0,1-.12.47l-1.78,1A.33.33,0,0,1,180.66,72.39Z"/><polygon class="cls-3" points="206.84 219.75 222.97 210.44 222.97 175.02 206.84 184.33 206.84 219.75"/><polygon class="cls-4" points="196.73 165.37 199.74 167.08 215.87 157.77 212.86 156.06 196.73 165.37"/><polygon class="cls-4" points="206.84 219.75 196.73 213.95 196.73 165.37 199.74 167.08 206.84 184.33 206.84 219.75"/><polygon class="cls-5" points="206.84 184.33 199.74 167.08 215.87 157.77 222.97 175.02 206.84 184.33"/><polygon class="cls-3" points="205.95 178.84 201.34 167.63 215.25 159.59 219.87 170.8 205.95 178.84"/><polygon class="cls-3" points="220.44 172.21 221.37 174.47 207.46 182.5 206.53 180.24 220.44 172.21"/><polygon class="cls-6" points="207.49 176.4 217.41 170.73 213.69 162.03 203.77 167.7 207.49 176.4"/><polygon class="cls-7" points="213.29 163.03 211.78 163.89 212.27 165.03 213.78 164.17 213.29 163.03"/><polygon class="cls-8" points="211.48 164.06 209.97 164.92 210.46 166.06 211.97 165.2 211.48 164.06"/><polygon class="cls-9" points="214.56 166 213.06 166.87 213.54 168 215.05 167.14 214.56 166"/><polygon class="cls-8" points="212.75 167.04 211.25 167.9 211.73 169.04 213.24 168.18 212.75 167.04"/><path class="cls-4" d="M209.87,165.93l1.11,2.6a.79.79,0,0,1-.3,1L207,171.64a.6.6,0,0,1-.85-.33l-1.11-2.6a.78.78,0,0,1,.29-1L209,165.6A.61.61,0,0,1,209.87,165.93Z"/><polygon class="cls-8" points="215.2 167.49 213.69 168.35 214.18 169.49 215.69 168.63 215.2 167.49"/><polygon class="cls-7" points="211.58 169.56 208.26 171.46 208.75 172.6 212.07 170.7 211.58 169.56"/><polygon class="cls-8" points="207.96 171.63 206.45 172.49 206.94 173.63 208.45 172.77 207.96 171.63"/><polygon class="cls-7" points="215.84 168.98 214.33 169.84 214.82 170.98 216.32 170.12 215.84 168.98"/><polygon class="cls-8" points="214.03 170.01 212.52 170.88 213.01 172.02 214.51 171.16 214.03 170.01"/><polygon class="cls-9" points="210.41 172.09 208.9 172.94 209.39 174.09 210.89 173.22 210.41 172.09"/><polygon class="cls-8" points="208.59 173.12 207.09 173.98 207.58 175.12 209.08 174.26 208.59 173.12"/><g class="cls-10"><path class="cls-11" d="M219.52,194.84v1.35l-8.84,5.1V200Zm0,2.15-8.84,5.11v1.34l8.84-5.1Zm0,2.15-8.84,5.1v1.35l8.84-5.1Zm0,2.15-8.84,5.1v1.35l8.84-5.1Zm0,2.15-8.84,5.1v1.35l8.84-5.11Zm0,2.15-8.84,5.1V212l8.84-5.11Z"/></g><polygon class="cls-3" points="215.74 228.71 108.15 216.47 108.15 207.43 215.74 219.81 215.74 228.71"/><path class="cls-3" d="M110.32,219.46l57.28,33a11.61,11.61,0,0,0,10.49,0L213.57,232c2.89-1.67,2.89-4.38,0-6.05l-57.28-33.05a11.61,11.61,0,0,0-10.49,0l-35.48,20.49C107.43,215.08,107.43,217.79,110.32,219.46Z"/><path class="cls-4" d="M110.32,210.46l57.28,33a11.55,11.55,0,0,0,10.49,0L213.57,223c2.89-1.67,2.89-4.38,0-6.06l-57.28-33a11.61,11.61,0,0,0-10.49,0L110.32,204.4C107.43,206.08,107.43,208.79,110.32,210.46Z"/><polygon class="cls-12" points="178.89 204.72 164.36 196.33 164.36 103.54 178.89 111.93 178.89 204.72"/><polygon class="cls-3" points="146.04 223.69 178.89 204.72 178.89 111.93 131.51 122.51 146.04 223.69"/><polygon class="cls-13" points="204.98 196.32 209.85 193.52 187.9 180.84 183.03 183.65 204.98 196.32"/><path class="cls-3" d="M169.12,183.65v37.81h0c0,2.22,1.46,4.43,4.38,6.11,5.84,3.38,15.32,3.38,21.16,0,2.92-1.68,4.39-3.89,4.39-6.11h0V183.65Z"/><polygon class="cls-14" points="179.07 211.23 179.07 218.4 157.12 205.72 157.12 198.56 179.07 211.23"/><polygon class="cls-15" points="209.85 193.52 209.85 200.68 179.07 218.4 179.07 211.24 209.85 193.52"/><polygon class="cls-16" points="183.94 200.59 183.94 208.44 161.99 195.76 161.99 187.91 183.94 200.59"/><polygon class="cls-13" points="206.18 187.75 183.95 200.58 181.97 199.44 179.99 198.3 177.92 197.1 175.93 195.96 173.86 194.76 171.88 193.61 169.81 192.42 167.83 191.27 165.75 190.08 163.77 188.93 161.99 187.9 184.22 175.07 184.22 175.07 186 176.1 187.98 177.25 190.05 178.44 192.04 179.59 194.11 180.78 196.09 181.92 198.16 183.12 200.15 184.26 202.22 185.46 204.2 186.61 206.18 187.75"/><polygon class="cls-17" points="206.18 187.75 206.18 195.61 183.95 208.44 183.95 200.59 206.18 187.75"/><polygon class="cls-14" points="204.2 186.61 181.97 199.44 179.99 198.3 202.22 185.46 204.2 186.61"/><polygon class="cls-14" points="200.15 184.26 177.92 197.1 175.93 195.96 198.16 183.12 200.15 184.26"/><polygon class="cls-14" points="196.09 181.92 173.86 194.76 171.88 193.61 194.11 180.78 196.09 181.92"/><polygon class="cls-14" points="192.04 179.59 169.81 192.42 167.83 191.27 190.05 178.44 192.04 179.59"/><polygon class="cls-14" points="187.98 177.25 165.75 190.08 163.77 188.93 186 176.1 187.98 177.25"/><polygon class="cls-15" points="181.97 200.74 181.97 199.44 179.99 198.3 179.99 199.6 181.97 200.74"/><polygon class="cls-15" points="177.92 198.4 177.92 197.1 175.93 195.96 175.93 197.26 177.92 198.4"/><polygon class="cls-15" points="173.86 196.06 173.86 194.76 171.88 193.61 171.88 194.91 173.86 196.06"/><polygon class="cls-15" points="169.81 193.72 169.81 192.42 167.83 191.27 167.82 192.58 169.81 193.72"/><polygon class="cls-15" points="165.75 191.38 165.75 190.08 163.77 188.93 163.77 190.24 165.75 191.38"/><polygon class="cls-13" points="179.07 211.23 183.94 208.44 161.99 195.76 157.12 198.56 179.07 211.23"/><path class="cls-13" d="M170.68,165.76c0-4.32-3-6.08-6.78-3.91a15,15,0,0,0-6.79,11.74c0,4.33,3,6.08,6.79,3.92A15,15,0,0,0,170.68,165.76Z"/><rect class="cls-15" x="161.49" y="168.4" width="9.24" height="5.12" transform="translate(-65 229.34) rotate(-60)"/><ellipse class="cls-15" cx="163.9" cy="169.68" rx="4.62" ry="2.67" transform="translate(-65 226.77) rotate(-60)"/><path class="cls-13" d="M171.6,170.35c0-2.08-1.47-2.93-3.27-1.88a7.22,7.22,0,0,0-3.27,5.65c0,2.09,1.47,2.93,3.27,1.89C172.26,173.74,171.6,174.89,171.6,170.35Z"/><rect class="cls-18" x="166.97" y="171.66" width="6.53" height="3.35" transform="translate(-65 234.1) rotate(-60)"/><path class="cls-18" d="M171.1,171.17c0-1.47-1-2.07-2.31-1.33a5.07,5.07,0,0,0-2.31,4c0,1.47,1,2.07,2.31,1.33A5.1,5.1,0,0,0,171.1,171.17Z"/><path class="cls-13" d="M174,172.85c0-1.48-1-2.07-2.31-1.34a5.13,5.13,0,0,0-2.31,4c0,1.47,1,2.07,2.31,1.34A5.1,5.1,0,0,0,174,172.85Z"/><rect class="cls-18" x="171.79" y="173.24" width="3.5" height="4" transform="translate(-64.99 237.93) rotate(-60)"/><path class="cls-18" d="M173.05,173.53c0-.79-.56-1.11-1.24-.71a2.73,2.73,0,0,0-1.24,2.14c0,.79.56,1.11,1.24.71A2.73,2.73,0,0,0,173.05,173.53Z"/><path class="cls-13" d="M176.51,175.53c0-.79-.55-1.11-1.23-.71A2.71,2.71,0,0,0,174,177c0,.79.55,1.11,1.24.72A2.76,2.76,0,0,0,176.51,175.53Z"/><path class="cls-19" d="M177,174.68c0-1.43-1-2-2.24-1.29a5,5,0,0,0-2.24,3.88c0,1.43,1,2,2.24,1.29A4.94,4.94,0,0,0,177,174.68Z"/><rect class="cls-15" x="173.64" y="177.03" width="10.34" height="2.51" transform="translate(-65 244) rotate(-60)"/><path class="cls-15" d="M181.38,175.55c0-2.33-1.63-3.28-3.65-2.11a8.09,8.09,0,0,0-3.66,6.33c0,2.34,1.64,3.28,3.66,2.12A8.1,8.1,0,0,0,181.38,175.55Z"/><path class="cls-19" d="M183.56,176.81c0-2.33-1.64-3.28-3.66-2.11a8.06,8.06,0,0,0-3.65,6.33c0,2.33,1.63,3.28,3.65,2.11A8.07,8.07,0,0,0,183.56,176.81Z"/><path class="cls-13" d="M182.18,177.64c0-1.42-1-2-2.24-1.29a5,5,0,0,0-2.24,3.88c0,1.43,1,2,2.24,1.29A5,5,0,0,0,182.18,177.64Z"/><path class="cls-15" d="M181,178.33c0-.66-.47-.94-1-.6a2.3,2.3,0,0,0-1.05,1.81c0,.67.47.94,1.05.61A2.35,2.35,0,0,0,181,178.33Z"/><polygon class="cls-18" points="173.87 185.27 181.19 189.49 181.19 194.11 173.87 189.89 173.87 185.27"/><polygon class="cls-13" points="189.46 176.27 196.78 180.49 181.19 189.49 173.87 185.27 189.46 176.27"/><polygon class="cls-16" points="196.78 185.11 196.78 180.49 181.19 189.49 181.19 194.11 196.78 185.11"/><rect class="cls-16" x="181.17" y="177.64" width="7.8" height="5.1"/><path class="cls-16" d="M187.83,181.15c1.52.88,1.52,2.3,0,3.18a6.08,6.08,0,0,1-5.51,0c-1.53-.88-1.53-2.3,0-3.18A6.08,6.08,0,0,1,187.83,181.15Z"/><path class="cls-13" d="M187.83,176.05c1.52.88,1.52,2.31,0,3.18a6.08,6.08,0,0,1-5.51,0c-1.53-.87-1.53-2.3,0-3.18A6.08,6.08,0,0,1,187.83,176.05Z"/><path class="cls-16" d="M186.49,176.83a.86.86,0,0,1,0,1.63,3.14,3.14,0,0,1-2.83,0,.86.86,0,0,1,0-1.63A3.14,3.14,0,0,1,186.49,176.83Z"/><rect class="cls-15" x="184.33" y="175.27" width="1" height="3.02"/><path class="cls-15" d="M185.18,178.08c.2.12.2.3,0,.41a.78.78,0,0,1-.7,0c-.2-.11-.2-.29,0-.41A.78.78,0,0,1,185.18,178.08Z"/><path class="cls-14" d="M185.18,175.07c.2.11.2.29,0,.4a.78.78,0,0,1-.7,0c-.2-.11-.2-.29,0-.4A.73.73,0,0,1,185.18,175.07Z"/><polygon class="cls-18" points="187.19 175 182.61 175 181.87 170.11 187.93 170.11 187.19 175"/><path class="cls-18" d="M186.52,174.07a1,1,0,0,1,0,1.87,3.62,3.62,0,0,1-3.24,0,1,1,0,0,1,0-1.87A3.62,3.62,0,0,1,186.52,174.07Z"/><path class="cls-15" d="M187,168.88a1.3,1.3,0,0,1,0,2.47,4.68,4.68,0,0,1-4.28,0,1.3,1.3,0,0,1,0-2.47A4.68,4.68,0,0,1,187,168.88Z"/><rect class="cls-13" x="182.61" y="165.33" width="4.57" height="3.95"/><path class="cls-13" d="M186.52,168.35a1,1,0,0,1,0,1.87,3.62,3.62,0,0,1-3.24,0,1,1,0,0,1,0-1.87A3.56,3.56,0,0,1,186.52,168.35Z"/><path class="cls-18" d="M186.52,164.4a1,1,0,0,1,0,1.86,3.56,3.56,0,0,1-3.24,0,1,1,0,0,1,0-1.86A3.56,3.56,0,0,1,186.52,164.4Z"/><rect class="cls-18" x="180.63" y="160.14" width="8.53" height="5.58"/><path class="cls-18" d="M187.92,164c1.66,1,1.66,2.53,0,3.49a6.69,6.69,0,0,1-6,0c-1.66-1-1.66-2.52,0-3.49A6.69,6.69,0,0,1,187.92,164Z"/><path class="cls-18" d="M187.92,158.39c1.66,1,1.66,2.53,0,3.49a6.69,6.69,0,0,1-6,0c-1.66-1-1.66-2.52,0-3.49A6.69,6.69,0,0,1,187.92,158.39Z"/><rect class="cls-15" x="178.87" y="151.55" width="12.07" height="7.89"/><path class="cls-15" d="M189.17,157c2.35,1.36,2.35,3.56,0,4.92a9.39,9.39,0,0,1-8.54,0c-2.35-1.36-2.35-3.56,0-4.92A9.45,9.45,0,0,1,189.17,157Z"/><path class="cls-18" d="M189.17,149.09c2.35,1.36,2.35,3.56,0,4.92a9.45,9.45,0,0,1-8.54,0c-2.35-1.36-2.35-3.56,0-4.92A9.45,9.45,0,0,1,189.17,149.09Z"/><rect class="cls-5" x="197.73" y="134.59" width="8.22" height="13.89"/><path class="cls-5" d="M189.9,159.05l14.18-8.19c1.76-1,2.34-2.53,1.49-3.88l-6-9.52-35.19-20.32-32.85,5.37v13.6l35.19,20.32,16.48,3.48A10.07,10.07,0,0,0,189.9,159.05Z"/><path class="cls-4" d="M189.9,145.44l14.18-8.18c1.76-1,2.34-2.53,1.49-3.88l-6-9.52-35.19-20.32-32.85,19,35.19,20.32,16.48,3.47A10,10,0,0,0,189.9,145.44Z"/><path class="cls-4" d="M166.7,142.83,146,130.9h0l-14.53-8.39h0l-8.19,22.25A103.46,103.46,0,0,0,117,180.44v26.47l14.54,8.39h0L146,223.69V144.5l20.66,11.93Z"/><path class="cls-20" d="M118.81,205.84v-25.4a101.23,101.23,0,0,1,6.24-35l7.43-20.21,32.38,18.7v9.35L144.2,141.32V220.5Z"/><rect class="cls-15" x="178.75" y="132.1" width="12.3" height="2.99"/><path class="cls-15" d="M189.25,132.57c2.4,1.39,2.4,3.64,0,5a9.66,9.66,0,0,1-8.7,0c-2.4-1.39-2.4-3.64,0-5A9.66,9.66,0,0,1,189.25,132.57Z"/><path class="cls-13" d="M189.25,129.59c2.4,1.38,2.4,3.63,0,5a9.6,9.6,0,0,1-8.7,0c-2.4-1.39-2.4-3.64,0-5A9.6,9.6,0,0,1,189.25,129.59Z"/><path class="cls-18" d="M187.56,128.8c1.48.85,1.48,2.23,0,3.08a5.87,5.87,0,0,1-5.32,0c-1.48-.85-1.48-2.23,0-3.08A5.87,5.87,0,0,1,187.56,128.8Z"/><rect class="cls-15" x="165.75" y="204.86" width="1.83" height="7.54" transform="translate(-81.99 111.29) rotate(-30)"/><path class="cls-15" d="M164.79,206.63c0-1.7,1.2-2.39,2.67-1.54a5.91,5.91,0,0,1,2.67,4.62c0,1.7-1.2,2.39-2.67,1.54A5.91,5.91,0,0,1,164.79,206.63Z"/><path class="cls-19" d="M163.21,207.55c0-1.7,1.19-2.39,2.66-1.54a5.88,5.88,0,0,1,2.67,4.62c0,1.7-1.19,2.39-2.67,1.54A5.9,5.9,0,0,1,163.21,207.55Z"/><path class="cls-15" d="M163.31,208.68c0-1,.73-1.46,1.63-.94a3.62,3.62,0,0,1,1.63,2.83c0,1-.73,1.46-1.63.94A3.6,3.6,0,0,1,163.31,208.68Z"/><rect class="cls-19" x="164.12" y="205.13" width="0.85" height="9.43" transform="translate(-82.88 110.38) rotate(-30)"/><path class="cls-14" d="M161.57,207.71c0-2.13,1.5-3,3.34-1.93a7.36,7.36,0,0,1,3.33,5.77c0,2.13-1.49,3-3.33,1.93A7.38,7.38,0,0,1,161.57,207.71Z"/><path class="cls-18" d="M160.84,208.13c0-2.12,1.49-3,3.33-1.92a7.36,7.36,0,0,1,3.34,5.77c0,2.13-1.5,3-3.34,1.92A7.35,7.35,0,0,1,160.84,208.13Z"/><path class="cls-13" d="M161.8,208.69c0-1.51,1.06-2.13,2.37-1.37a5.22,5.22,0,0,1,2.37,4.1c0,1.51-1.06,2.13-2.37,1.37A5.22,5.22,0,0,1,161.8,208.69Z"/><path class="cls-14" d="M163.68,209.77c0-.31.22-.43.49-.28a1.1,1.1,0,0,1,.49.85c0,.31-.22.43-.49.28A1.1,1.1,0,0,1,163.68,209.77Z"/><rect class="cls-15" x="157.61" y="208.14" width="4.06" height="1.34" transform="translate(-83.02 107.81) rotate(-30)"/><path class="cls-15" d="M160.92,207.52c0-.3.21-.43.47-.28a1,1,0,0,1,.48.82c0,.31-.21.43-.48.28A1,1,0,0,1,160.92,207.52Z"/><path class="cls-14" d="M157.4,209.55a.3.3,0,0,1,.48-.28,1,1,0,0,1,.47.82c0,.31-.21.43-.47.28A1.06,1.06,0,0,1,157.4,209.55Z"/><rect class="cls-15" x="191.86" y="199.32" width="11.28" height="2.74" transform="translate(-75.05 271.39) rotate(-60)"/><path class="cls-15" d="M200.31,197.7c0-2.54-1.79-3.57-4-2.3a8.82,8.82,0,0,0-4,6.91c0,2.54,1.79,3.57,4,2.3A8.83,8.83,0,0,0,200.31,197.7Z"/><path class="cls-19" d="M202.68,199.07c0-2.54-1.78-3.57-4-2.3a8.82,8.82,0,0,0-4,6.91c0,2.54,1.79,3.57,4,2.3A8.79,8.79,0,0,0,202.68,199.07Z"/><path class="cls-15" d="M202.53,200.77c0-1.56-1.09-2.19-2.44-1.41a5.4,5.4,0,0,0-2.45,4.23c0,1.56,1.1,2.19,2.45,1.41A5.39,5.39,0,0,0,202.53,200.77Z"/><rect class="cls-19" x="193.64" y="201.87" width="14.1" height="1.27" transform="translate(-75.03 275.06) rotate(-60)"/><path class="cls-14" d="M205.12,199.31c0-3.18-2.23-4.47-5-2.88a11,11,0,0,0-5,8.63c0,3.18,2.23,4.47,5,2.88A11,11,0,0,0,205.12,199.31Z"/><path class="cls-18" d="M206.22,199.94c0-3.18-2.23-4.47-5-2.88a11,11,0,0,0-5,8.64c0,3.18,2.23,4.47,5,2.88A11,11,0,0,0,206.22,199.94Z"/><path class="cls-13" d="M204.78,200.77c0-2.26-1.59-3.17-3.54-2a7.84,7.84,0,0,0-3.55,6.14c0,2.26,1.59,3.17,3.55,2A7.85,7.85,0,0,0,204.78,200.77Z"/><path class="cls-14" d="M202,202.4c0-.47-.33-.66-.73-.42a1.59,1.59,0,0,0-.73,1.26c0,.47.32.66.73.42A1.62,1.62,0,0,0,202,202.4Z"/><rect class="cls-15" x="207.02" y="197.91" width="2" height="6.07" transform="translate(-70.02 280.62) rotate(-60)"/><path class="cls-15" d="M206.1,199c0-.45-.32-.63-.71-.41a1.59,1.59,0,0,0-.71,1.23c0,.45.32.64.71.41A1.57,1.57,0,0,0,206.1,199Z"/><path class="cls-14" d="M211.36,202.06c0-.45-.32-.63-.71-.41a1.59,1.59,0,0,0-.71,1.23c0,.45.32.63.71.41A1.59,1.59,0,0,0,211.36,202.06Z"/><path class="cls-7" d="M246,175.32a7.4,7.4,0,0,1,.21,1.87c-.05,3-.61,6.84-1.22,12.91-.38,1.78-3.94,1.73-4.07.05-.51-6.4.23,2.95-1-12.48l-.63-4.1L239,172l-.09-.59-.27-1.71-.56-3.63c-.73-4,4.79-4.77,5.59-.41l.74,3.16.37,1.58.12.52.37,1.56Z"/><path class="cls-21" d="M240.78,189.18c.29,1.53,1.05,4.36,2,5.58.29-9.51,1.49-14.84,1.22-17.71-.08-.85-.45-2.34-2.47-10.3-.38,2.17-2.34,2.82-2.72,5a22.74,22.74,0,0,0-.46,7.48,27.28,27.28,0,0,0,.78,3.05Q240.12,185.69,240.78,189.18Z"/><path class="cls-22" d="M229.51,163.82a1.69,1.69,0,0,0,.72.56l.08,0a4.52,4.52,0,0,0,4.07-.48,1.25,1.25,0,0,0-.28-2.35,3.53,3.53,0,0,0-.89-.24l-.52,0h-.27l-.42,0a4.21,4.21,0,0,0-2,.72,1.79,1.79,0,0,0-.66.87,1.57,1.57,0,0,0,0,.23A1,1,0,0,0,229.51,163.82Z"/><polygon class="cls-22" points="228.44 155.91 234.19 155.22 235.09 162.66 229.46 164.38 228.44 155.91"/><path class="cls-23" d="M229.33,163.17c.24.24.14.45.18.65s.39.41.72.56a4.13,4.13,0,0,0,2.19-3.06,6.16,6.16,0,0,0,.09-1.15h0l-3.81.85.07,2.19Z"/><path class="cls-22" d="M226.27,159.39l.49.11c0,.34,0,1.81,0,1.81.07.85.6,2,1.63,1.92l.33,0,.57,0,.2,0a4,4,0,0,0,2.47-1.8,3.89,3.89,0,0,0,.5-1.18,3.45,3.45,0,0,0,.09-1.12h.08c.85-.07,2.34.43,2.6-.31a9.08,9.08,0,0,0,.49-3.2,6.54,6.54,0,0,0-.12-1c-.83-3.73-3.52-3.59-5.22-3.52a4.32,4.32,0,0,0-3.68,2.51,6.09,6.09,0,0,0-.51,2.64,6.07,6.07,0,0,0,.26.59l-.64,1.92A.55.55,0,0,0,226.27,159.39Z"/><path class="cls-24" d="M234.76,160.1c-3.4.88-1.64-3.12-1.64-3.12s-.72,1.27-1,1.63c-.56,0-.56,0-1.06,0-.38-4.3.37-6.27-4.34-5.07-1-.12-1.6-3.06,4.15-3.14a4.82,4.82,0,0,1,5.14,3.76C236.58,156.57,236.72,159.36,234.76,160.1Z"/><path class="cls-22" d="M233.72,157.29c0,.8-.61,1.74-1.13,1.76s-.49-.62-.52-1.42c0-.53-.19-1.27.37-1.46S233.67,156.13,233.72,157.29Z"/><path class="cls-7" d="M242.1,185.51a6.47,6.47,0,0,1-1.47,1.29l-.3.2a10.63,10.63,0,0,1-1.3.7,16.71,16.71,0,0,1-2.77,1.06,17.22,17.22,0,0,1-5.62.8l-.38-.05a2.91,2.91,0,0,1-2-.86.84.84,0,0,1-.14-.24,25.68,25.68,0,0,1-1.39-5.74v0c-.19-1.16-.38-2.39-.55-3.65-.07-.47-.13-.92-.2-1.39-.59-4.56-1-9-1.28-10.09v0c.19-.12.35-.27.52-.39s.06-.06.09-.06c2.16-1.64,3.35-2.6,4.89-3.62a4.41,4.41,0,0,1,.48-.31s0,0,0,0l.35-.22.29-.09c1.28-.32,4.4-1.17,4.45-1.18.26,0,4.27.94,5.2,1.12.25,1.6.44,3,.61,4.27a104.33,104.33,0,0,1,.87,15.87A4.48,4.48,0,0,1,242.1,185.51Z"/><path class="cls-25" d="M242.75,190.11a1.91,1.91,0,0,0-1.79.76,2.25,2.25,0,0,0-.31,1.9,2.39,2.39,0,0,1,.07,1.06c-.1.43-.52.93-.37,1.34a.48.48,0,0,0,.89.08,3.69,3.69,0,0,0,.58-1.32c.16-.33.57-.55.74-.87a2.19,2.19,0,0,0,.15-1.38Z"/><path class="cls-25" d="M244.91,195.26c.28.6.16,1.22-.29,1.24.1.41-.34,1-.82.71-.12.42-.89.1-1.13-.28-.37-.6-.41-.63-.52-.8a4.85,4.85,0,0,1-.5-1.25,3.47,3.47,0,0,1-.17-1.36c.09-1.22,0-2.44.76-3.4a2,2,0,0,1,1.77.66,2.39,2.39,0,0,1,.62,1.78,2.92,2.92,0,0,0,.44,1.58C245.53,195,245.12,195.43,244.91,195.26Z"/><path class="cls-22" d="M244.91,195.26c.28.6.16,1.22-.29,1.24.1.41-.34,1-.82.71-.12.42-.89.1-1.13-.28-.37-.6-.41-.63-.52-.8a4.85,4.85,0,0,1-.5-1.25,3.47,3.47,0,0,1-.17-1.36c.09-1.22,0-2.44.76-3.4a2,2,0,0,1,1.77.66,2.39,2.39,0,0,1,.62,1.78,2.92,2.92,0,0,0,.44,1.58C245.53,195,245.12,195.43,244.91,195.26Z"/><path class="cls-26" d="M242.75,190.11a1.91,1.91,0,0,0-1.79.76,2.25,2.25,0,0,0-.31,1.9,2.39,2.39,0,0,1,.07,1.06c-.1.43-.52.93-.37,1.34a.48.48,0,0,0,.89.08,3.69,3.69,0,0,0,.58-1.32c.16-.33.57-.55.74-.87a2.19,2.19,0,0,0,.15-1.38Z"/><path class="cls-11" d="M236,225.75c.77.46,1.49.88,2.18,1.25a24.91,24.91,0,0,0,3.84,1.73c2,.63,3.09.15,3.28-.82a10.2,10.2,0,0,0-.34-4l-.17-1.08-.35-2.23-4.45-.29H240l.08.43v0l.27,1.71.06.35-.35,0-1.51.1-.95-.1a1.85,1.85,0,0,0-1.65.63A1.69,1.69,0,0,0,236,225.75Z"/><path class="cls-11" d="M224.11,232.09a33.21,33.21,0,0,0,6,3,4.79,4.79,0,0,0,2,.24,1.33,1.33,0,0,0,1.24-1.08,10,10,0,0,0-.34-4v-3.05l-2.1-.24-2.6-.31.07,2,0,.55-1.86.12-1-.09a1.82,1.82,0,0,0-1.64.64A1.69,1.69,0,0,0,224.11,232.09Z"/><path class="cls-7" d="M238,189.29l-.09.38L236.13,199l-.86,4.55L234,210.27c.59,12.73-.22,4.84.38,17.42a2.09,2.09,0,0,1-1.32,1.87,3.83,3.83,0,0,1-1.81.2,5.82,5.82,0,0,1-2.83-1.16,2.43,2.43,0,0,1-.91-1.6c0-1.88-.84-12.93-1-16.38,0-.19,0-.36,0-.5s0-.39,0-.46a3.45,3.45,0,0,1,0-.56L228,192.74l0-.48,0-.24,0-.24,0-.26,0-.24,0-.24,0-.37,0-.55.5,0,.29,0,.85-.08.67-.06h.26l4.23-.37,1-.07h0l.29,0h0Z"/><path class="cls-7" d="M233.54,190.1l.09.71,1.05,8.19h0l.59,4.59.54,4.26c.49,2.48,1.39,8.37,3.09,13a2.82,2.82,0,0,0,1.21,1.51,1.07,1.07,0,0,0,.22.15c1.36.83,3.34,1.1,4.5.35a2.35,2.35,0,0,0,.9-2.52c-.35-1.66-2.08-11.45-2.81-14.87l-.41-8.33c0-.11,0-.23.05-.34a18.06,18.06,0,0,0,.23-2v-.09c0-.19,0-.38,0-.57s0-.24,0-.35a22.44,22.44,0,0,0-.06-2.33c0-.12,0-.24,0-.37,0-.32-.06-.63-.1-.94a15,15,0,0,0-.7-3.12h0l-1.23.46-.24.09-1.31.49-3,1.12-1.08.4Z"/><path class="cls-7" d="M242.1,185.51c0,.4,0,.77,0,1.13a1.11,1.11,0,0,1-.14.34v0h0a3.67,3.67,0,0,1-1.17,1.21.5.5,0,0,1-.14.1,13.22,13.22,0,0,1-2.69,1.36,19.42,19.42,0,0,1-4.28,1.13,12.92,12.92,0,0,1-2.5.17h-.37a4.34,4.34,0,0,1-2.52-.84c0-.34,0-1.06,0-1.47,0-.2,0-.32,0-.32a5.64,5.64,0,0,0,1.64.55l.51.07a14.73,14.73,0,0,0,6-.74,15.43,15.43,0,0,0,2.46-1,11.38,11.38,0,0,0,1.33-.79l.38-.27a7.14,7.14,0,0,0,1.49-1.46A8,8,0,0,1,242.1,185.51Z"/><path class="cls-7" d="M236.49,163.08c-.14,1.22-3.34,3.18-7.44,1.11a3.56,3.56,0,0,0,.62-.8,2,2,0,0,1,1.61-.94c2.44-.34,3-.76,3.56-1.81C235.25,161.27,236.62,161.91,236.49,163.08Z"/><path class="cls-21" d="M235.93,223.47a1.69,1.69,0,0,0,.11,2.28c.77.46,1.49.88,2.18,1.25a16,16,0,0,0,1.82-4.16l-1.51.1-.95-.1A1.85,1.85,0,0,0,235.93,223.47Z"/><path class="cls-21" d="M231,226.93a17.5,17.5,0,0,0,.29,2.82,38.39,38.39,0,0,1,.91,5.56,1.33,1.33,0,0,0,1.24-1.08,10,10,0,0,0-.34-4v-.67a2,2,0,0,0,1.31-1.86c-.58-12.59.22-4.7-.38-17.42l1.28-6.68.54,4.26c.49,2.48,1.39,8.37,3.09,13a2.82,2.82,0,0,0,1.21,1.51v-.06c0-.5,0-1-.05-1.5v0l0-.43c-.15-2.24-.47-4.47-.62-6.71-.5-6.93-.56-11.2,1-18.3,0-.11.05-.23.07-.35a2.33,2.33,0,0,1-.11.28,5.87,5.87,0,0,1-4.24,3.82,3.93,3.93,0,0,1-1.45,0h0a4.27,4.27,0,0,1-1.32-.5c.62,3.84-.8,6.45-1.52,9.12a6.89,6.89,0,0,0-.38,2.62c.09.78,1.08,5.46.42,8.61A32.75,32.75,0,0,0,231,226.93Z"/><path class="cls-21" d="M237,183.26a17.32,17.32,0,0,1-1.09,6.44,10.59,10.59,0,0,1,3.28-1.54c-2.18-5.92-.67-12.67-2.55-18.69A117.49,117.49,0,0,1,237,183.26Z"/><path class="cls-22" d="M214.39,173.35a1.6,1.6,0,0,0,1.79-.75,2.42,2.42,0,0,0,.13-2,5.15,5.15,0,0,0-1.14-1.74c-1.32-1.44-3-2.59-4-4.28-.1-.17-.24-.37-.44-.35s-.41.51-.37.75c.12,1,1.62,2.54,1.52,2.56-.49.24-.33.44-.42.78-.24,0-.59.55-.45.76-.29.16-.26.6-.26.71,0,.47-.16.63,0,1.08s.74.89,1.12,1.31c.19.21.54.26.65,0a10.71,10.71,0,0,1,1.3.87A2.45,2.45,0,0,0,214.39,173.35Z"/><path class="cls-21" d="M231.25,190.8a.88.88,0,0,0-.12.17,7,7,0,0,0-.83,1.6,53.68,53.68,0,0,0-3.67,19.28c-.06-.41-.1-.82-.16-1.23,0-.19,0-.36,0-.5s0-.39,0-.46a3.45,3.45,0,0,1,0-.56L228,192.74l0-.48,0-.24,0-.24,0-.26,0-.24,0-.24,0-.37,0-.55c0-.34,0-1.06,0-1.47a.84.84,0,0,1-.14-.24,25.68,25.68,0,0,1-1.39-5.74,3.18,3.18,0,0,1-4.27.21l-.58-.65a3,3,0,0,0,1.93-.13,1.3,1.3,0,0,0,.46-.22,5.47,5.47,0,0,0,1.91-2.9c.07-.17.14-.35.2-.52l.17-.46a52.48,52.48,0,0,1,3.12-6.77c-.14,1.09-.28,2.16-.38,3.25-.29,2.77-.45,5.56-.51,8.35a17.92,17.92,0,0,0,.17,3.35,9.08,9.08,0,0,0,1,2.7,5.49,5.49,0,0,0,.37.63c.09.14.19.27.29.41A8.44,8.44,0,0,0,231.25,190.8Z"/><path class="cls-7" d="M222.48,179.52l1.21-9.92,0-.27a3.2,3.2,0,1,1,6.33.95l-1.77,9.42c-.39,1.61-.9,3.31-2.66,3.09S222.26,181.27,222.48,179.52Z"/><path class="cls-7" d="M226.93,182.44l-.13.14-.09.09a3.18,3.18,0,0,1-4.27.21s-6.25-4.64-8.78-9.88c0,0,0,0,0-.06.17-.45,1.68-2.06,2.74-1.94a.46.46,0,0,1,.2.05L223,175.5l3,2.09.53.37,0,0A3.19,3.19,0,0,1,226.93,182.44Z"/><g class="cls-27"><path class="cls-2" d="M110.24,174.25,108,172.93,104,174l-2.35-.56-1.47-2.39H96.94l-1.47,2.39-2.35.56-4-1.08-2.28,1.32,1.88,2.28-1,1.36-4.14.85v1.87l4.14.85,1,1.35-1.88,2.29,2.28,1.32,4-1.08,2.35.56,1.47,2.39h3.23l1.47-2.39,2.35-.56,4,1.08,2.28-1.32-1.88-2.29,1-1.35,4.14-.85v-1.87l-4.14-.85-1-1.36ZM104,182.8a12,12,0,0,1-10.83,0c-3-1.73-3-4.52,0-6.25a12,12,0,0,1,10.83,0C107,178.28,107,181.07,104,182.8Zm-2-5.07c1.86,1.07,1.86,2.82,0,3.89a7.44,7.44,0,0,1-6.75,0c-1.86-1.07-1.86-2.82,0-3.89A7.44,7.44,0,0,1,101.93,177.73Z"/></g><g class="cls-27"><path class="cls-2" d="M269.25,169.34l-1.63-.94-2.82.78-1.67-.4-1.05-1.7h-2.3l-1,1.7-1.68.4-2.82-.78-1.63.94L254,171l-.7,1-2.94.6v1.33l2.94.6.7,1-1.35,1.63,1.63.94,2.82-.78,1.68.4,1,1.7h2.3l1.05-1.7,1.67-.4,2.82.78,1.63-.94-1.34-1.63.69-1,2.95-.6v-1.33l-2.95-.6-.69-1Zm-4.47,6.09a8.5,8.5,0,0,1-7.7,0c-2.13-1.23-2.13-3.22,0-4.45a8.5,8.5,0,0,1,7.7,0C266.91,172.21,266.91,174.2,264.78,175.43Zm-1.45-3.61c1.33.76,1.33,2,0,2.77a5.28,5.28,0,0,1-4.8,0c-1.32-.77-1.32-2,0-2.77A5.28,5.28,0,0,1,263.33,171.82Z"/></g><g class="cls-27"><path class="cls-2" d="M168,98l-1.62-.94-2.82.78-1.68-.4-1-1.7h-2.3l-1.05,1.7-1.67.4-2.83-.78-1.62.94,1.34,1.63-.69,1-2.95.6v1.33l2.95.6.69,1-1.34,1.63,1.62.94,2.83-.78,1.67.4,1.05,1.7h2.3l1-1.7,1.68-.4,2.82.78,1.62-.94-1.34-1.63.7-1,2.94-.6v-1.33l-2.94-.6-.7-1Zm-4.46,6.09a8.52,8.52,0,0,1-7.71,0c-2.12-1.23-2.12-3.22,0-4.45a8.52,8.52,0,0,1,7.71,0C165.61,100.89,165.61,102.88,163.49,104.11ZM162,100.5c1.32.76,1.32,2,0,2.77a5.3,5.3,0,0,1-4.81,0c-1.32-.77-1.32-2,0-2.77A5.3,5.3,0,0,1,162,100.5Z"/></g><g class="cls-27"><path class="cls-2" d="M189.33,115.46l2.81-1.62.55.32-2.81,1.62Zm11.49,3.38.55-.32-1.38-.79-.55.32Zm-5.31-3.06.55-.32-2.81-1.62-.55.32Zm-10.93,3.06,1.37-.79-.55-.32-1.38.79Zm0-10-.55.32,1.37.79.55-.32Zm13.73,1.44.57-.32.55.32-.57.32c2.9,1.84,2.9,4.65,0,6.49l.57.32-.55.32-.57-.32a13.21,13.21,0,0,1-11.23,0l-.56.32-.56-.32.57-.32c-2.9-1.84-2.9-4.65,0-6.49l-.57-.32.56-.32.56.32A13.21,13.21,0,0,1,198.31,110.27Zm-2.19,1.59a7.58,7.58,0,0,0-6.85,0c-1.89,1.09-1.89,2.86,0,4a7.58,7.58,0,0,0,6.85,0C198,114.72,198,113,196.12,111.86Zm-4,2,.55-.32-2.81-1.62-.55.32Zm7.3-4.21.55.32,1.38-.79-.55-.32Zm-6.19,4.21,2.81-1.62-.55-.32-2.81,1.62Z"/></g><g class="cls-27"><path class="cls-2" d="M227.82,85.38l-1,.56-2.42-1.4,1-.56Zm6.9,4-1,.56,4.93,2.85,1-.56Zm5.92,3.42-1,.56,4.93,2.85,1-.56Zm13.28,8.79,1-.56-2.42-1.4-1,.56Zm-28.52,0,2.42-1.4-1-.56-2.42,1.4Zm13.28-8.79-4.93,2.85,1,.56,4.93-2.85Zm5.92-3.42-4.93,2.85,1,.56,4.93-2.85Zm6.9-4,1,.56,2.42-1.4-1-.56Zm-3.67,2.12L250.52,86l1,.56-2.68,1.55L257,92.77l-8.17,4.72L251.48,99l-1,.56-2.69-1.55-8.17,4.72-8.17-4.72L228.8,99.6l-1-.56,2.69-1.55-8.17-4.72,8.17-4.71-2.69-1.55,1-.56,2.69,1.55,8.17-4.72Zm-8.17-1.37-11.5,6.64,11.5,6.64,11.5-6.64Z"/></g><g class="cls-27"><path class="cls-2" d="M260.59,193.88l-.72.41-4,2.29-.7.41-2.76,1.59,1.21.7.71.41,4,2.29.71.41,4,2.3.71.4,1.3.76-2.67,1.54-.71.41-4,2.29-.71.41-4,2.29-.7.41-1.2.69,2.78,1.6.71.41,4,2.3.71.41,4.45,2.56,4.45-2.57.71-.4,4-2.3.71-.41,4-2.29.71-.41,4-2.29.71-.41,4-2.29.71-.41,2.67-1.54-1.3-.75-.71-.42-4-2.29-.71-.41-4-2.29-.71-.41-4-2.29-.71-.41-4-2.29-.71-.41-4.47-2.58Zm3.11,25.56-1.44-.83h2.88Zm2.15-1.24h-4.3l-4-2.3h12.24Zm4.68-2.71H256.87l-2.78-1.6,1.2-.69H274.5Zm4.68-2.7H256l4-2.29h19.22Zm4.68-2.7H260.68l4-2.29h19.21Zm7.35-4.24-2.67,1.54H265.36l2.67-1.54-1.3-.75h19.21Zm-2-1.17H266l-4-2.29h19.21Zm-4.68-2.7H261.34l-4-2.29h19.21Zm-4.67-2.7H256.66l-1.21-.7,2.76-1.59H271.9Zm-4.69-2.7H258.91l4-2.29h4.34Zm-7.59-2.7,1.45-.85,1.46.85Z"/></g><g class="cls-27"><path class="cls-2" d="M189.73,256.58l-1.28,1.79L183,259.49V262l5.47,1.12,1.28,1.79-2.49,3,3,1.74,5.24-1.44,3.1.75,2,3.15h4.27l1.94-3.15,3.11-.75,5.23,1.44,3-1.74-2.49-3,1.29-1.79,5.46-1.12v-2.47l-5.46-1.12-1.29-1.79,2.49-3-3-1.75-5.23,1.44-3.11-.74-1.94-3.16h-4.27l-2,3.16-3.1.74-5.24-1.44-3,1.75Zm5.8,0a15.8,15.8,0,0,1,14.3,0c3.95,2.28,3.95,6,0,8.25a15.8,15.8,0,0,1-14.3,0C191.59,262.57,191.59,258.88,195.53,256.6Zm11.61,1.55c2.46,1.42,2.46,3.73,0,5.15a9.85,9.85,0,0,1-8.91,0c-2.47-1.42-2.47-3.73,0-5.15A9.85,9.85,0,0,1,207.14,258.15Z"/></g><g class="cls-27"><path class="cls-2" d="M236.64,137.85l-6.16-3.55,1.21-.7,6.15,3.55Zm-20.94,5-1.21-.7-3,1.75,1.21.69Zm14.76-8.52-1.21-.7-6.15,3.55,1.21.7Zm19,9.57-3-1.75-1.21.7,3,1.74Zm-4.23-19.51,1.21.7,3-1.74-1.21-.7Zm-2.47,1.43,1.24-.72,1.2.7-1.23.71c6.34,4,6.34,10.2,0,14.22l1.24.71-1.21.7-1.24-.71c-7,3.66-17.65,3.66-24.62,0l-1.23.71-1.21-.7,1.24-.71c-6.35-4-6.35-10.19,0-14.22l-1.24-.71,1.21-.7,1.23.72C225.13,122.12,235.82,122.12,242.78,125.79ZM223,137.93a16.61,16.61,0,0,0,15,0c4.14-2.39,4.14-6.28,0-8.67a16.61,16.61,0,0,0-15,0C218.83,131.65,218.83,135.54,223,137.93Zm14.87-7.9-1.21-.69-6.15,3.55,1.21.7Zm-25.16-7.41-1.21.7,3,1.74,1.21-.7Zm17.78,10.27-6.15-3.55-1.21.69,6.15,3.56Z"/></g><g class="cls-27"><path class="cls-2" d="M150.51,264.43l-4.75-2.74.93-.54,4.75,2.74Zm-16.16,3.83-.93-.54-2.33,1.35.93.54Zm11.39-6.57-.93-.54-4.74,2.74.93.54Zm14.67,7.38-2.33-1.35-.93.54,2.33,1.35Zm-3.26-15,.93.54,2.33-1.34-.93-.54Zm-1.9,1.1.95-.55.94.54-1,.55c4.9,3.1,4.9,7.86,0,11l1,.55-.94.53-.95-.55a22.3,22.3,0,0,1-19,0l-1,.55-.93-.53.95-.55c-4.89-3.11-4.89-7.87,0-11l-.95-.55.93-.54,1,.55A22.37,22.37,0,0,1,155.25,255.12ZM140,264.49a12.86,12.86,0,0,0,11.59,0c3.19-1.85,3.19-4.85,0-6.69a12.86,12.86,0,0,0-11.59,0C136.77,259.64,136.77,262.64,140,264.49Zm11.48-6.09-.93-.54-4.75,2.74.93.54ZM132,252.68l-.93.54,2.33,1.34.94-.54Zm13.72,7.92L141,257.86l-.93.54,4.74,2.74Z"/></g><g class="cls-27"><path class="cls-2" d="M127.78,126.93l.73.42-1.83,1.06-.74-.42ZM117,133.16l.73.43,3.74-2.16-.74-.42Zm-4.49,2.59.74.43L117,134l-.73-.42ZM108,139.2l-.74-.43-1.83,1.06.73.43Zm20.51.63-1.83-1.06-.74.43,1.84,1.06ZM117,134l3.73,2.16.74-.43-3.74-2.15Zm-4.49-2.59,3.74,2.16.73-.43L113.23,131Zm-6.33-4.5-.73.42,1.83,1.06L108,128ZM117,126l6.19,3.57,2-1.17.73.42-2,1.18,6.2,3.57-6.2,3.58,2,1.17-.73.42-2-1.17L117,141.16l-6.19-3.57-2,1.17-.73-.42,2-1.17-6.19-3.58,6.2-3.57-2-1.18.73-.42,2,1.17Zm-8.71,7.57,8.71,5,8.71-5-8.71-5Z"/></g><g class="cls-27"><path class="cls-2" d="M120.27,87.27l-3.72,2.15-.59.34-3.31,1.91-.59.34-3.31,1.91-.59.34-3.31,1.91-.58.34L101,98.42l-.6.34-1.08.63,2.23,1.28.59.34,3.31,1.91.58.34,3.31,1.91.6.34,3.3,1.91.59.34,3.31,1.91.59.34,3.71,2.14,3.7-2.14.59-.34,3.31-1.91.59-.34,2.31-1.33-1-.58-.59-.34L127,103.26l-.59-.34L123.11,101l-.59-.34-2.22-1.28,1.08-.63.59-.34,3.31-1.91.59-.34,3.31-1.91.59-.34,1-.58L128.48,92l-.59-.34-3.31-1.91-.59-.34ZM120.2,110h2.4l-1.2.7Zm-3.9-2.25h10.2l-3.31,1.91H119.6Zm-3.9-2.25h16l1,.58-2.31,1.33H115.71Zm-3.9-2.25h16l3.31,1.91h-16ZM104.6,101h16l3.3,1.91h-16Zm-1.73-2.25h16l-1.08.63,2.22,1.28H104l-2.22-1.28Zm3.9-2.25h16l-3.3,1.91h-16Zm3.9-2.25h16l-3.31,1.91h-16ZM114.56,92H126l2.3,1.33-1,.58h-16Zm3.9-2.25h3.62l3.3,1.91H115.16Zm.59-.34,1.22-.7,1.21.7Z"/></g><g class="cls-27"><path class="cls-2" d="M89.86,195.66l-4.25,2.45-.67.39-3.78,2.18-.67.39-3.78,2.18-.67.39-3.78,2.18-.67.38-3.77,2.18-.68.39-1.23.72L68.45,211l.67.39,3.77,2.18.68.39,3.77,2.18.68.39,3.77,2.18.67.39,3.78,2.18.67.38,4.23,2.45,4.23-2.44.68-.39,3.77-2.18.68-.39,2.64-1.53-1.14-.65-.67-.39-3.78-2.18-.67-.39-3.78-2.18-.67-.39-2.54-1.46,1.24-.72.67-.38,3.77-2.18.68-.39,3.77-2.18.68-.39,1.15-.67-2.63-1.51-.66-.39-3.78-2.18-.68-.39Zm-.08,26h2.73l-1.37.79Zm-4.46-2.57H97l-3.77,2.18H89.1Zm-4.44-2.57H99.14l1.14.65-2.64,1.53h-13Zm-4.45-2.57H94.69l3.78,2.18H80.2ZM72,211.34H90.24L94,213.52H75.75Zm-2-2.57H88.26l-1.23.72L89.57,211H71.31l-2.54-1.46Zm4.45-2.57H92.71l-3.77,2.17H70.68Zm4.45-2.56H97.16l-3.77,2.18H75.12Zm4.45-2.57h13L99,202.58l-1.15.67H79.57Zm4.45-2.57h4.12l3.78,2.18H84Zm.67-.39,1.39-.8,1.38.8Z"/></g><rect class="cls-8" x="257.63" y="129.52" width="32.73" height="16.46"/><path class="cls-8" d="M262.43,139.3c-6.39,3.69-6.39,9.68,0,13.37s16.75,3.68,23.14,0,6.39-9.68,0-13.37S268.82,135.61,262.43,139.3Z"/><path class="cls-28" d="M262.43,122.84c-6.39,3.69-6.39,9.67,0,13.36s16.75,3.69,23.14,0,6.39-9.67,0-13.36S268.82,119.15,262.43,122.84Z"/><rect class="cls-8" x="262.82" y="116.94" width="22.35" height="11.24"/><path class="cls-8" d="M266.1,123.62c-4.37,2.52-4.37,6.6,0,9.12a17.46,17.46,0,0,0,15.8,0c4.36-2.52,4.36-6.6,0-9.12A17.46,17.46,0,0,0,266.1,123.62Z"/><path class="cls-28" d="M266.1,112.38c-4.37,2.52-4.37,6.6,0,9.12a17.46,17.46,0,0,0,15.8,0c4.36-2.52,4.36-6.6,0-9.12A17.46,17.46,0,0,0,266.1,112.38Z"/><rect class="cls-8" x="265.6" y="105.75" width="16.79" height="9.99"/><path class="cls-8" d="M268.06,112.31c-3.28,1.89-3.28,5,0,6.85a13.07,13.07,0,0,0,11.87,0c3.28-1.89,3.28-5,0-6.85A13.13,13.13,0,0,0,268.06,112.31Z"/><path class="cls-28" d="M268.06,102.32c-3.28,1.89-3.28,5,0,6.85a13.07,13.07,0,0,0,11.87,0c3.28-1.89,3.28-5,0-6.85A13.13,13.13,0,0,0,268.06,102.32Z"/><path class="cls-15" d="M270.24,103.58c-2.07,1.19-2.07,3.14,0,4.33a8.28,8.28,0,0,0,7.51,0c2.08-1.19,2.08-3.14,0-4.33A8.28,8.28,0,0,0,270.24,103.58Z"/><path class="cls-15" d="M261.84,128.28a.86.86,0,0,1,0,1.64,3.14,3.14,0,0,1-2.83,0,.86.86,0,0,1,0-1.64A3.14,3.14,0,0,1,261.84,128.28Z"/><path class="cls-15" d="M289.08,128.28a.86.86,0,0,1,0,1.64,3.14,3.14,0,0,1-2.83,0,.86.86,0,0,1,0-1.64A3.14,3.14,0,0,1,289.08,128.28Z"/><path class="cls-15" d="M275.42,135.93a.86.86,0,0,1,0,1.63,3.09,3.09,0,0,1-2.84,0,.86.86,0,0,1,0-1.63A3.09,3.09,0,0,1,275.42,135.93Z"/><path class="cls-15" d="M289.26,141.94a7.09,7.09,0,0,1-3.2,5.54c-1.77,1-3.21.19-3.21-1.85a7.07,7.07,0,0,1,3.21-5.54C287.82,139.07,289.26,139.9,289.26,141.94Z"/><polygon class="cls-18" points="123.31 260.3 104.45 271.19 104.45 283.1 123.31 272.21 123.31 260.3"/><polygon class="cls-28" points="83.12 237.1 64.26 247.99 104.45 271.19 123.31 260.3 83.12 237.1"/><polygon class="cls-17" points="64.26 259.9 64.26 247.99 104.45 271.19 104.45 283.1 64.26 259.9"/><ellipse class="cls-15" cx="71.66" cy="247.86" rx="2.93" ry="1.69"/><path class="cls-15" d="M85.29,239.94a1.26,1.26,0,0,1,0,2.39,4.6,4.6,0,0,1-4.15,0,1.26,1.26,0,0,1,0-2.39A4.6,4.6,0,0,1,85.29,239.94Z"/><path class="cls-15" d="M106.06,265.28a1.26,1.26,0,0,1,0,2.39,4.54,4.54,0,0,1-4.15,0,1.26,1.26,0,0,1,0-2.39A4.6,4.6,0,0,1,106.06,265.28Z"/><path class="cls-15" d="M117.62,258.56a1.26,1.26,0,0,1,0,2.39,4.6,4.6,0,0,1-4.15,0,1.26,1.26,0,0,1,0-2.39A4.6,4.6,0,0,1,117.62,258.56Z"/><rect class="cls-16" x="84.39" y="240.65" width="20.1" height="13.14"/><path class="cls-16" d="M87.33,249.69c-3.92,2.27-3.92,5.94,0,8.21a15.76,15.76,0,0,0,14.22,0c3.92-2.27,3.92-5.94,0-8.21A15.7,15.7,0,0,0,87.33,249.69Z"/><path class="cls-28" d="M87.33,236.55c-3.92,2.26-3.92,5.94,0,8.2a15.7,15.7,0,0,0,14.22,0c3.92-2.26,3.92-5.94,0-8.2A15.7,15.7,0,0,0,87.33,236.55Z"/><path class="cls-15" d="M90.79,238.54c-2,1.17-2,3.05,0,4.22a8.09,8.09,0,0,0,7.3,0c2-1.17,2-3,0-4.22A8.09,8.09,0,0,0,90.79,238.54Z"/><polygon class="cls-28" points="215.12 90.37 215.12 75.63 210.39 72.9 208.27 76.89 201.41 72.94 199.29 66.49 190.08 61.17 187.96 65.17 181.1 61.21 178.98 54.77 174.25 52.03 151.83 79.72 192.7 101.88 215.12 90.37"/><polygon class="cls-17" points="192.7 103.31 192.7 88.58 187.97 85.84 185.84 89.84 178.99 85.88 176.87 79.44 167.66 74.12 165.54 78.11 158.68 74.16 156.56 67.71 151.83 64.98 151.83 79.72 192.7 103.31"/><polygon class="cls-18" points="199.29 66.49 201.41 72.94 178.99 85.88 176.87 79.44 199.29 66.49"/><polygon class="cls-18" points="178.98 54.77 181.1 61.21 158.68 74.16 156.56 67.71 178.98 54.77"/><polygon class="cls-18" points="215.12 75.63 215.12 90.37 192.7 103.31 192.7 88.58 215.12 75.63"/><polygon class="cls-28" points="215.12 75.63 210.39 72.9 187.97 85.84 192.7 88.58 215.12 75.63"/><polygon class="cls-28" points="178.98 54.77 174.25 52.03 151.83 64.98 156.56 67.71 178.98 54.77"/><polygon class="cls-28" points="199.29 66.49 190.08 61.17 167.66 74.12 176.87 79.44 199.29 66.49"/><ellipse class="cls-15" cx="183.47" cy="69.9" rx="3.79" ry="2.19"/><ellipse class="cls-15" cx="190.57" cy="66.13" rx="2.02" ry="1.17"/><path class="cls-15" d="M177.44,73.33a.87.87,0,0,1,0,1.65,3.16,3.16,0,0,1-2.87,0,.87.87,0,0,1,0-1.65A3.16,3.16,0,0,1,177.44,73.33Z"/><path class="cls-17" d="M285.71,257.39H231.79v10h0c0,4,2.63,8,7.89,11,10.53,6.08,27.6,6.08,38.13,0,5.26-3,7.9-7,7.9-11h0Z"/><path class="cls-28" d="M239.68,246.38c-10.52,6.08-10.52,15.94,0,22s27.6,6.07,38.13,0,10.53-15.94,0-22S250.21,240.3,239.68,246.38Z"/><path class="cls-15" d="M245.46,265.06c1.26.73,1.26,1.9,0,2.63a5.06,5.06,0,0,1-4.55,0c-1.26-.73-1.26-1.9,0-2.63A5.06,5.06,0,0,1,245.46,265.06Z"/><path class="cls-15" d="M276.58,247.09c1.26.73,1.26,1.9,0,2.63a5.06,5.06,0,0,1-4.55,0,1.39,1.39,0,0,1,0-2.63A5.06,5.06,0,0,1,276.58,247.09Z"/><ellipse class="cls-15" cx="274.31" cy="266.37" rx="3.22" ry="1.86"/><path class="cls-15" d="M240.91,247.09a5.06,5.06,0,0,1,4.55,0c1.26.73,1.26,1.9,0,2.63a5.06,5.06,0,0,1-4.55,0C239.65,249,239.65,247.82,240.91,247.09Z"/><path class="cls-15" d="M258.75,268.24c1.77,0,3.21.83,3.21,1.86s-1.44,1.85-3.21,1.85-3.22-.83-3.22-1.85S257,268.24,258.75,268.24Z"/><path class="cls-15" d="M258.75,242.83c1.77,0,3.21.83,3.21,1.85s-1.44,1.86-3.21,1.86-3.22-.83-3.22-1.86S257,242.83,258.75,242.83Z"/><ellipse class="cls-15" cx="280.75" cy="257.39" rx="3.22" ry="1.86"/><ellipse class="cls-15" cx="236.74" cy="257.39" rx="3.22" ry="1.86"/><rect class="cls-17" x="243.16" y="241.69" width="31.18" height="15.68"/><ellipse class="cls-17" cx="258.75" cy="257.37" rx="15.59" ry="9"/><path class="cls-28" d="M247.72,235.33c-6.08,3.51-6.08,9.21,0,12.73s16,3.51,22,0,6.09-9.22,0-12.73S253.81,231.81,247.72,235.33Z"/><ellipse class="cls-15" cx="258.75" cy="241.69" rx="8.26" ry="4.77"/><path class="cls-28" d="M62.88,119.59,102.08,97c2.88-1.67,4.33,1.52,2.29,5.06l-39.2,67.89c-2,3.54-5.53,3.88-5.53.55V125.2A7.15,7.15,0,0,1,62.88,119.59Z"/><rect class="cls-28" x="43.04" y="132.13" width="87.58" height="10.05" transform="translate(-75.37 143.77) rotate(-60)"/><path class="cls-17" d="M71.32,124.46l39.2-22.63c2.89-1.66,4.33,1.53,2.29,5.06l-39.2,67.9c-2,3.53-5.53,3.88-5.53.55V130.07A7.18,7.18,0,0,1,71.32,124.46Z"/><path class="cls-15" d="M110.46,107.83c-1.08.63-2,.12-2-1.13a4.36,4.36,0,0,1,2-3.41c1.09-.62,2-.11,2,1.14A4.34,4.34,0,0,1,110.46,107.83Z"/><path class="cls-15" d="M72.18,131c-1.08.62-2,.12-2-1.14a4.36,4.36,0,0,1,2-3.4c1.09-.62,2-.12,2,1.14A4.34,4.34,0,0,1,72.18,131Z"/><path class="cls-15" d="M90.87,141.76c-1.08.63-2,.12-2-1.13a4.36,4.36,0,0,1,2-3.41c1.09-.62,2-.12,2,1.14A4.34,4.34,0,0,1,90.87,141.76Z"/><path class="cls-15" d="M91.82,118.64c-1.08.63-2,.12-2-1.13a4.36,4.36,0,0,1,2-3.41c1.09-.62,2-.12,2,1.14A4.34,4.34,0,0,1,91.82,118.64Z"/><path class="cls-15" d="M71.54,153.78c-1.09.62-2,.12-2-1.14a4.34,4.34,0,0,1,2-3.4c1.08-.63,2-.12,2,1.14A4.36,4.36,0,0,1,71.54,153.78Z"/><path class="cls-15" d="M71.49,175.33c-1.09.63-2,.12-2-1.13a4.32,4.32,0,0,1,2-3.4c1.08-.63,2-.12,2,1.13A4.34,4.34,0,0,1,71.49,175.33Z"/><path class="cls-15" d="M82.67,140.89c-3.15,1.82-5.7.35-5.7-3.29a12.62,12.62,0,0,1,5.7-9.89c3.15-1.82,5.71-.34,5.71,3.3A12.61,12.61,0,0,1,82.67,140.89Z"/></svg>