<svg xmlns="http://www.w3.org/2000/svg" viewBox="0 0 121.2 121.2"><defs><style>.cls-1,.cls-2{fill:none;stroke:#fff;stroke-miterlimit:10;stroke-width:2px;}.cls-2{stroke-linecap:round;}</style></defs><title>1</title><g id="레이어_2" data-name="레이어 2"><g id="레이어_1-2" data-name="레이어 1"><circle class="cls-1" cx="60.6" cy="60.6" r="59.6"/><circle class="cls-1" cx="38.02" cy="41.25" r="6.15"/><path class="cls-1" d="M28,53.74V74.49s-.06.72,1.36,1.31a2.79,2.79,0,0,1,1.8,2.31V95.77a1.26,1.26,0,0,0,1.39,1.39H44s1,.09,1-1.33V57.62s.27-2.15,2.57-.51L53.41,61A3.64,3.64,0,0,0,57,60.49L64.2,56a1.75,1.75,0,0,0,.58-2.4l0,0a1.57,1.57,0,0,0-2.13-.5l-5.69,3.19s-1.79.83-3,0l-6.76-5.34a3.88,3.88,0,0,0-2.68-.73H32.71a6,6,0,0,0-2.79.64A3.27,3.27,0,0,0,28,53.74Z"/><line class="cls-2" x1="37.99" y1="81.75" x2="37.99" y2="97.16"/><polyline class="cls-1" points="55.13 61.25 55.13 76.63 91.97 76.63 91.97 33.15 55.13 33.15 55.13 56.58"/><line class="cls-1" x1="55.13" y1="71.79" x2="91.97" y2="71.79"/><line class="cls-1" x1="63.17" y1="68.59" x2="89.16" y2="68.59"/><line class="cls-1" x1="85.05" y1="50.03" x2="85.05" y2="68.59"/><line class="cls-1" x1="80.1" y1="54.09" x2="80.1" y2="68.59"/><line class="cls-1" x1="75.6" y1="49.09" x2="75.6" y2="68.59"/><line class="cls-1" x1="70.56" y1="54.09" x2="70.56" y2="68.59"/><line class="cls-1" x1="73.55" y1="76.63" x2="73.55" y2="80.01"/><circle class="cls-1" cx="73.55" cy="82.42" r="2.61"/></g></g></svg>