<svg xmlns="http://www.w3.org/2000/svg" viewBox="0 0 121.2 121.2"><defs><style>.cls-1{fill:#fff;}.cls-2{fill:none;stroke:#fff;stroke-miterlimit:10;stroke-width:2px;}</style></defs><title>3</title><g id="레이어_2" data-name="레이어 2"><g id="레이어_1-2" data-name="레이어 1"><rect class="cls-1" x="34.55" y="59.85" width="20.4" height="29.1"/><circle class="cls-2" cx="60.6" cy="60.6" r="59.6"/><circle class="cls-2" cx="44.75" cy="41.1" r="7.13"/><circle class="cls-2" cx="77.6" cy="41.1" r="7.13"/><line class="cls-2" x1="22.17" y1="71.44" x2="99.91" y2="71.44"/><line class="cls-2" x1="25.89" y1="88.95" x2="25.89" y2="71.44"/><line class="cls-2" x1="95.97" y1="88.95" x2="95.97" y2="71.44"/><line class="cls-2" x1="69.87" y1="61.72" x2="69.87" y2="71.44"/><line class="cls-2" x1="84.73" y1="61.72" x2="84.73" y2="71.44"/><path class="cls-2" d="M31,71.44V58.6a5.65,5.65,0,0,1,.67-2.77C32.42,54.5,34,53,37.17,53H51.25a8.52,8.52,0,0,1,3.34.38,5.36,5.36,0,0,1,3.73,4.65V71.44"/><path class="cls-2" d="M64,71.44V58.6a5.75,5.75,0,0,1,.66-2.77C65.35,54.5,66.88,53,70.1,53H84.17a8.57,8.57,0,0,1,3.35.38,5.36,5.36,0,0,1,3.73,4.65V71.44"/></g></g></svg>