<svg xmlns="http://www.w3.org/2000/svg" viewBox="0 0 121.2 121.2"><defs><style>.cls-1,.cls-2{fill:none;stroke:#fff;stroke-miterlimit:10;stroke-width:2px;}.cls-2{stroke-linecap:round;}</style></defs><title>4</title><g id="레이어_2" data-name="레이어 2"><g id="레이어_1-2" data-name="레이어 1"><circle class="cls-1" cx="60.6" cy="60.6" r="59.6"/><circle class="cls-1" cx="39.02" cy="38.89" r="6.75"/><path class="cls-1" d="M26,59.92H52v-5s-.37-5.4-5.32-5.4H32.27S26,49.5,26,54.71Z"/><circle class="cls-1" cx="82.03" cy="38.89" r="6.75"/><path class="cls-1" d="M69,59.92H95v-5s-.37-5.4-5.32-5.4H75.28S69,49.5,69,54.71Z"/><circle class="cls-1" cx="60.65" cy="74.03" r="6.75"/><path class="cls-1" d="M47.59,95.07h26V90s-.37-5.4-5.32-5.4H53.9s-6.31,0-6.31,5.21Z"/><path class="cls-2" d="M42.66,89.85A34.34,34.34,0,0,1,26.58,64.92"/><path class="cls-2" d="M94.74,64.78A34.33,34.33,0,0,1,78.65,89.85"/><path class="cls-2" d="M46.85,29.15a34.41,34.41,0,0,1,27.54,0"/></g></g></svg>