<svg xmlns="http://www.w3.org/2000/svg" viewBox="0 0 121.2 121.2"><defs><style>.cls-1,.cls-2{fill:none;stroke:#fff;stroke-miterlimit:10;stroke-width:2px;}.cls-2{stroke-linecap:round;}</style></defs><title>5</title><g id="레이어_2" data-name="레이어 2"><g id="레이어_1-2" data-name="레이어 1"><circle class="cls-1" cx="60.6" cy="60.6" r="59.6"/><circle class="cls-1" cx="48.34" cy="35.6" r="6"/><path class="cls-1" d="M38.48,47.9V68.66s-.06.71,1.36,1.3a2.79,2.79,0,0,1,1.8,2.31V89.94A1.27,1.27,0,0,0,43,91.33H54.57s1,.08,1-1.34V51.78s.27-2.15,2.58-.5l5.76,3.91a3.66,3.66,0,0,0,3.63-.54l7.16-4.54a1.73,1.73,0,0,0,.58-2.4l0,0a1.56,1.56,0,0,0-2.12-.5l-5.7,3.2s-1.78.83-3,0L57.69,45A3.86,3.86,0,0,0,55,44.3H43.23a6,6,0,0,0-2.79.64A3.27,3.27,0,0,0,38.48,47.9Z"/><line class="cls-2" x1="48.51" y1="75.91" x2="48.51" y2="91.33"/><line class="cls-2" x1="48.51" y1="49.01" x2="48.51" y2="63.05"/><line class="cls-1" x1="36.44" y1="91.33" x2="79.26" y2="91.33"/><polyline class="cls-1" points="74.39 47.02 74.39 29.6 88.03 29.6 88.03 41.6 74.39 41.6"/><line class="cls-1" x1="74.39" y1="91.33" x2="74.39" y2="50.32"/><path class="cls-1" d="M88,32.58h8.87a.51.51,0,0,1,.41.82L93.89,38a.5.5,0,0,0,0,.6l3.47,4.87a.51.51,0,0,1-.42.81H86s-2.19,0-2.25-2.7"/></g></g></svg>